<svg id="Chef_animada" xmlns="http://www.w3.org/2000/svg" xmlns:xlink="http://www.w3.org/1999/xlink" viewBox="0 0 432 589"><defs><clipPath id="clip-path"><rect width="432" height="589" style="fill:none"/></clipPath></defs><g style="clip-path:url(#clip-path)"><g id="Grupo_8590" data-name="Grupo 8590"><g id="Grupo_8317" data-name="Grupo 8317"><path id="Caminho_13626" data-name="Caminho 13626" d="M212,101.28c-2.33,21-18,39.94-38.12,46.31-7,9.31-6.29,13.62-6.12,28.51.16,13.83,33.44,55.8-.13,38.44-7.41,1.78-11.63-18.51-17.19-24.19s-10.78-12.66-10.37-20.55c.2-3.69,1.64-7.23,1.84-10.92.23-4.09-1.08-8.14-1.81-12.13-3.21-17.85,6-37,21.6-46.39s36.31-8.71,51.74.84" style="fill:#263238"/></g><g id="Grupo_8318" data-name="Grupo 8318"><path id="Caminho_13627" data-name="Caminho 13627" d="M249.6,132.8c0-4-15.86-9.62-41.69-9.62s-41.68,5.6-41.68,9.62Z" style="fill:#bbbdbf"/></g><g id="Grupo_8319" data-name="Grupo 8319"><path id="Caminho_13628" data-name="Caminho 13628" d="M207.91,142.41c-25.82,0-41.68-5.6-41.68-9.61h-1c0,6,19.12,10.93,42.71,10.93s42.71-4.89,42.71-10.93h-1C249.59,136.81,233.74,142.41,207.91,142.41Z" style="fill:#c8cacb"/></g><g id="Grupo_8320" data-name="Grupo 8320"><path id="Caminho_13629" data-name="Caminho 13629" d="M207.91,142.41c25.82,0,41.68-5.6,41.69-9.61H166.23C166.23,136.81,182.09,142.41,207.91,142.41Z" style="fill:#bbbdbf"/></g><g id="Grupo_8321" data-name="Grupo 8321"><path id="Caminho_13630" data-name="Caminho 13630" d="M191.94,255.4v-6.53s-4.34-.23-6.3,1.78l1.21,9.21Z" style="fill:#adadad"/></g><g id="Grupo_8322" data-name="Grupo 8322"><path id="Caminho_13631" data-name="Caminho 13631" d="M228.13,255.35v-6.53s4.34-.23,6.3,1.77l-1.2,9.21Z" style="fill:#adadad"/></g><g id="Grupo_8323" data-name="Grupo 8323"><path id="Caminho_13632" data-name="Caminho 13632" d="M186.85,260.83a1,1,0,0,1-.35-.06,1,1,0,0,1-.62-.78l-1.2-9.21a1,1,0,0,1,.26-.81c2.24-2.29,6.86-2.08,7.05-2.07a1,1,0,0,1,.93,1v6.54a1,1,0,0,1-.34.74l-5.09,4.45A1,1,0,0,1,186.85,260.83Zm-.17-9.8.9,6.89,3.39-3v-5.11a8.42,8.42,0,0,0-4.29,1.18Z" style="fill:#59316d"/></g><g id="Grupo_8324" data-name="Grupo 8324"><path id="Caminho_13633" data-name="Caminho 13633" d="M233.23,260.78a1,1,0,0,1-.65-.24l-5.09-4.45a1,1,0,0,1-.34-.74v-6.53a1,1,0,0,1,.93-1c.19,0,4.81-.22,7,2.07a1,1,0,0,1,.27.81l-1.21,9.21a1,1,0,0,1-.62.79A1,1,0,0,1,233.23,260.78Zm-4.13-5.87,3.4,3,.9-6.89a8.45,8.45,0,0,0-4.3-1.18Z" style="fill:#59316d"/></g><g id="Grupo_8325" data-name="Grupo 8325"><path id="Caminho_13634" data-name="Caminho 13634" d="M232,267.29c1.84,20.58-51,11.83-46.18-1.15,5.54-14.86,3.7-51.46,3.7-51.46H229.2S229.93,244.55,232,267.29Z" style="fill:#b88469"/></g><g id="Grupo_8326" data-name="Grupo 8326"><path id="Caminho_13635" data-name="Caminho 13635" d="M229.77,219.8c-7.72,3.14-13.22,3.08-21.7,2.67-7.57,0-11.58-1.58-18.6-3.88,0,0,.28,14.91.24,16.88,6,5.87,11.78,12.18,20.38,12.18,7.78,0,14.33-5.38,19.95-10C230.05,237.66,229.75,221.48,229.77,219.8Z" style="fill:#a86751"/></g><g id="Grupo_8327" data-name="Grupo 8327"><path id="Caminho_13636" data-name="Caminho 13636" d="M213,280.55c-10,0-20.82-3-25.65-7.38-3.21-2.88-3.09-5.6-2.43-7.37,5.41-14.51,3.65-50.71,3.63-51.07a1,1,0,0,1,.93-1H229.2a1,1,0,0,1,1,1c0,.3.75,30.11,2.77,52.55h0c.42,4.71-1.79,8.42-6.39,10.72A32.56,32.56,0,0,1,213,280.55Zm-22.45-64.89c.26,6.15,1.29,37.16-3.8,50.83-.66,1.75,0,3.51,1.91,5.23,6.8,6.11,27.11,9.44,37.06,4.46,3.87-1.94,5.66-4.9,5.31-8.8-1.81-20.24-2.6-46.43-2.75-51.72Z" style="fill:#59316d"/></g><g id="Grupo_8328" data-name="Grupo 8328"><path id="Caminho_13637" data-name="Caminho 13637" d="M255.83,171a5.43,5.43,0,0,0-6.33,2.54c.51-6.19,3.57-25.87,3.57-26.84,0-2.36-.06-4.27-.22-6a44.21,44.21,0,0,0-88.32,3v7.91c0,1.41,1.47,15.67,2.16,21.11a5.56,5.56,0,0,0-5.15-1.69,6.76,6.76,0,0,0-5.26,6.7,22.06,22.06,0,0,0,3.89,12.55c2.68,3.4,6.49,4.66,9.74,3.73,1.94,14.3,11.17,28.19,24.3,34.5,25.51,12.25,48.63-11.55,53.38-35.41,0,1.18,3.88,1.42,4.61,1.28C260.76,192.83,265.75,173.73,255.83,171Z" style="fill:#b88469"/></g><g id="Grupo_8329" data-name="Grupo 8329"><path id="Caminho_13638" data-name="Caminho 13638" d="M208.25,232.87a33.26,33.26,0,0,1-14.42-3.42c-12.74-6.12-22.34-19.46-24.69-34.2-3.49.53-7.13-1.05-9.7-4.3a22.83,22.83,0,0,1-4.09-13.21,7.7,7.7,0,0,1,6-7.59,5.82,5.82,0,0,1,4.17.56c-.75-6.34-2-17.71-1.9-19.07v-7.88a45.19,45.19,0,0,1,90.28-3.09c.15,1.64.22,3.52.22,6.07,0,.4-.27,2.27-1,7.51s-1.75,12.13-2.27,16.61a6.26,6.26,0,0,1,5.32-.76h0c4.08,1.1,6.4,4.93,6.19,10.24-.25,6.42-4.26,14-9.85,15.07a10.71,10.71,0,0,1-4.17-.47c-3.46,14.94-13.34,28.32-25.51,34.4A32.42,32.42,0,0,1,208.25,232.87ZM170,193.1a1,1,0,0,1,1,.84c2,14.52,11.29,27.77,23.75,33.75a30,30,0,0,0,27.2-.09c11.89-5.95,21.86-19.86,24.8-34.62a1,1,0,0,1,1.92,0,8.55,8.55,0,0,0,3.47.52c4.6-.88,8.05-7.67,8.26-13.22.08-2.09-.22-7.06-4.75-8.29h0a4.49,4.49,0,0,0-5.25,2.12,1,1,0,0,1-1.35.31,1,1,0,0,1-.45-.91c.32-3.88,1.63-12.92,2.58-19.53.5-3.51,1-6.83,1-7.24,0-2.48-.07-4.31-.22-5.9a43.24,43.24,0,0,0-86.38,2.93v7.86c0,1.38,1.47,15.57,2.16,21a1,1,0,0,1-1.64.83,4.62,4.62,0,0,0-4.22-1.46,5.75,5.75,0,0,0-4.54,5.81,21,21,0,0,0,3.67,11.9c2.34,3,5.68,4.27,8.71,3.4a1.22,1.22,0,0,1,.27,0Z" style="fill:#59316d"/></g><g id="Grupo_8331" data-name="Grupo 8331"><g id="Grupo_8330" data-name="Grupo 8330"><path id="Caminho_13639" data-name="Caminho 13639" d="M166.66,175.67c-1.3-1.15-3.69-1.76-4.76.08-.29.49-.19,1.41.34,1.55a14.85,14.85,0,0,1,2.37.33,3.38,3.38,0,0,1,1.64,1.92c.46,1.18,0,3.26,1.65,2.39a1.74,1.74,0,0,0,.83-1.62A4.87,4.87,0,0,0,166.66,175.67Z" style="fill:#a86751"/></g></g><g id="Grupo_8333" data-name="Grupo 8333"><g id="Grupo_8332" data-name="Grupo 8332"><path id="Caminho_13640" data-name="Caminho 13640" d="M253.52,174.77c1.3-1.15,3.69-1.76,4.76.08.29.49.19,1.41-.34,1.55a16.08,16.08,0,0,0-2.37.33,3.38,3.38,0,0,0-1.64,1.92c-.46,1.18-.36,4.74-2,3.87a1.75,1.75,0,0,1-.82-1.62A8,8,0,0,1,253.52,174.77Z" style="fill:#a86751"/></g></g><g id="Grupo_8345" data-name="Grupo 8345"><g id="Grupo_8335" data-name="Grupo 8335"><g id="Grupo_8334" data-name="Grupo 8334"><path id="Caminho_13641" data-name="Caminho 13641" d="M193.37,152.57a1.9,1.9,0,0,0-2.62-.6,1.93,1.93,0,0,0-.65.68c-.9,2.09-.58,4.21-.53,6.45.05,2.49.1,5,.22,7.47.13,2.81,4.33,2.69,4.37-.12V159C194.11,156.73,194.33,154.63,193.37,152.57Z" style="fill:#59316d"/></g></g><g id="Grupo_8337" data-name="Grupo 8337"><g id="Grupo_8336" data-name="Grupo 8336"><path id="Caminho_13642" data-name="Caminho 13642" d="M228.18,152.48a1.9,1.9,0,0,0-2.62-.6,2,2,0,0,0-.65.69c-.89,2.08-.58,4.21-.53,6.45.05,2.49.11,5,.22,7.46.13,2.82,4.33,2.69,4.37-.12v-7.47C228.92,156.64,229.15,154.55,228.18,152.48Z" style="fill:#59316d"/></g></g><g id="Grupo_8342" data-name="Grupo 8342"><g id="Grupo_8339" data-name="Grupo 8339"><g id="Grupo_8338" data-name="Grupo 8338"><path id="Caminho_13643" data-name="Caminho 13643" d="M209.63,175.09a18.83,18.83,0,0,1,4.93,4.18,3.4,3.4,0,0,1-.44,4.79l-.1.08a6.78,6.78,0,0,1-3.89,1.4c-1.57.08-3.24-.41-3.8-1.24s.25-1.93,1.78-2.17a7.41,7.41,0,0,1-2.06-5,1.85,1.85,0,0,1,.75-1.7A3.19,3.19,0,0,1,209.63,175.09Z" style="fill:#a86751"/></g></g><g id="Grupo_8341" data-name="Grupo 8341"><g id="Grupo_8340" data-name="Grupo 8340"><path id="Caminho_13644" data-name="Caminho 13644" d="M216.6,180.65c-.5-2.63-3.82-4.68-7.37-6.2-.43-.19-1.1.16-.79.42,1.89,1.59,4.31,3.1,5.16,5a2.64,2.64,0,0,1-.29,2.93c-.73.9-2,1.29-3.14,2-.78.49-.78.83.33.74C214.51,185.24,217,182.6,216.6,180.65Z" style="fill:#59316d"/></g></g></g><g id="Grupo_8343" data-name="Grupo 8343"><path id="Caminho_13645" data-name="Caminho 13645" d="M196.46,143.64a1,1,0,0,1-.62-.22,7.39,7.39,0,0,0-9.92,0,1,1,0,0,1-1.33-1.43h0c.06,0,5.92-5.42,12.49,0a1,1,0,0,1,.13,1.37,1,1,0,0,1-.75.36Z" style="fill:#59316d"/></g><g id="Grupo_8344" data-name="Grupo 8344"><path id="Caminho_13646" data-name="Caminho 13646" d="M232.23,143.64a1,1,0,0,1-.62-.22,7.38,7.38,0,0,0-9.91,0,1,1,0,0,1-1.34-1.43c.06,0,5.93-5.42,12.49,0a1,1,0,0,1,.14,1.37,1,1,0,0,1-.76.36Z" style="fill:#59316d"/></g></g><g id="Grupo_8346" data-name="Grupo 8346"><path id="Caminho_13647" data-name="Caminho 13647" d="M294.63,350.26c9.21-13.87,32.73-46,16.69-62.55-15.78-16.28-30-17.45-52.23-21.88-15.79-3.14-20-5.67-34.27-5.67h-32c-14.26,0-18.48,2.53-34.28,5.67-22.26,4.43-39.75,7.19-55.52,23.48-12.16,12.55,0,32,7.75,43.59,4.74,7.1,10.72,13.65,14.48,21.28,4.29,8.69,6.36,18.17,9.15,27.35,3.51,11.52,10.57,22.49,12.89,34.13A108.59,108.59,0,0,1,149,441.11c-.66,18.31-4.19,36.52-8.67,54.31A390,390,0,0,1,128.25,535H289.36a344.52,344.52,0,0,1-19.26-76.52c-1.64-12.93-2.45-26.22-.42-39.15,1.42-9,6-17.53,9.09-26.12C283.84,379,286.13,363.11,294.63,350.26Z" style="fill:#b88469"/></g><g id="Grupo_8347" data-name="Grupo 8347"><path id="Caminho_13648" data-name="Caminho 13648" d="M149.84,318c1.46-7.12,1.9-12.35.68-18.68-3-15.79-21.78-21.54-30.26-19.93-17.2,3.26-21.74,14.34-23.43,21.24-1,5.2-3.66,16.35-4.63,21.55Q85.33,359,78.47,395.9L71.6,432.77c-2,10.56-5.67,21.58-5.67,32.35-.82,10.63,6.35,18.83,17.28,22.55,7.62,2.59,17.64-.49,23.07-6.6,5-5.58,5.48-9.07,7-15.16,6.5-26.05,12.2-52.38,18.69-78.35,3.57-14.26,7.84-29.08,11.43-43.62C145.47,335.65,148.08,326.64,149.84,318Z" style="fill:#b88469"/></g><g id="Grupo_8348" data-name="Grupo 8348"><path id="Caminho_13649" data-name="Caminho 13649" d="M113.33,645.07a34.47,34.47,0,0,0-5.55-17.23c-4.7-7-8.44-12-8.44-12s4.1-41.61,9.56-75.36a269.59,269.59,0,0,0,3.36-35.31l.33-38.35a48.42,48.42,0,0,0-.48-5.38c-.87-8.56-10.85-18.17-23.72-17.69-10.14.38-21.49,7.75-22.46,20l-.73,28.71c-1.55,28.38,8.71,103.23,11.13,123.24a12.37,12.37,0,0,0-.79,3.75v.39s-6.28,9.12-4.07,32.38c2.85,30.07,18.91,42.81,28.65,41.26,7.69-1.22-4.5-18.45-4.84-34.36.25-1.75,4.69-13.39,5-15.94l5.9,19.94a4.51,4.51,0,0,0,4.86,1.76,4.2,4.2,0,0,0,3.22-4.25Z" style="fill:#b88469"/></g><g id="Grupo_8349" data-name="Grupo 8349"><path id="Caminho_13650" data-name="Caminho 13650" d="M98.46,694.56c-3.49,0-7.33-1.51-11-4.34-9.18-7.12-15.37-20.94-17-37.93-2-21.57,3.07-31.15,4.07-32.79v-.13a13,13,0,0,1,.76-3.81c-.31-2.57-.75-6-1.26-10.08-3.64-28.66-11.2-88.31-9.85-113.11L65,463.69c1-12.61,12.67-20.54,23.39-20.93,13.41-.51,23.8,9.38,24.73,18.57a12.88,12.88,0,0,0,.17,1.43,27.78,27.78,0,0,1,.31,4.07l-.32,38.33a271.89,271.89,0,0,1-3.38,35.46c-5.12,31.64-9.08,70.68-9.51,74.92.89,1.19,4.23,5.76,8.24,11.76A35.63,35.63,0,0,1,114.3,645l.9,15.53a5.2,5.2,0,0,1-3.93,5.25,5.45,5.45,0,0,1-5.92-2.15.84.84,0,0,1-.13-.27l-4.91-16.59c-.57,1.82-1.33,4-2.07,6.21-.91,2.65-1.85,5.38-2,6.17.17,6.83,2.62,14.09,4.59,19.94,2.16,6.41,3.72,11,2.17,13.62a3.68,3.68,0,0,1-2.74,1.7A10.93,10.93,0,0,1,98.46,694.56ZM89.29,444.69h-.86c-9.87.36-20.62,7.6-21.53,19.08l-.73,28.66c-1.34,24.67,6.21,84.2,9.83,112.81.53,4.21,1,7.72,1.3,10.31a1.24,1.24,0,0,1-.06.47,11.25,11.25,0,0,0-.73,3.44v.39a1,1,0,0,1-.17.51c-.06.08-6,9.2-3.9,31.74,1.56,16.46,7.48,29.79,16.23,36.57,3.82,3,7.94,4.35,11.3,3.82a1.77,1.77,0,0,0,1.37-.78c1.08-1.8-.59-6.75-2.35-12-2-6-4.54-13.45-4.69-20.61a.43.43,0,0,1,0-.16,65.68,65.68,0,0,1,2.09-6.6,87.17,87.17,0,0,0,2.9-9.31,1,1,0,0,1,1.19-.76,1,1,0,0,1,.71.59l5.86,19.79a3.51,3.51,0,0,0,3.72,1.24,3.21,3.21,0,0,0,2.48-3.25l-.9-15.53h0A33.63,33.63,0,0,0,107,628.39c-4.62-6.94-8.36-11.94-8.4-12a1,1,0,0,1-.19-.68c0-.41,4.15-42,9.56-75.41a269.48,269.48,0,0,0,3.35-35.19l.33-38.32a26.91,26.91,0,0,0-.3-3.8c-.06-.51-.12-1-.17-1.47-.82-8.11-10.27-16.84-21.85-16.84Z" style="fill:#59316d"/></g><g id="Grupo_8350" data-name="Grupo 8350"><path id="Caminho_13651" data-name="Caminho 13651" d="M300.73,355.26c9.2-13.87,27.71-51.35,11.67-67.91-15.78-16.29-31-17.09-53.31-21.52-13.07-2.59-18.22-4.78-27.69-5.46,1,8.72-8.94,12.12-16.51,14.24-5.12,1.44-8.69,2.82-8.69,2.82-23.44-3.4-21.22-17-21.22-17-8.71.77-14,2.88-26.46,5.36-22.27,4.43-39.75,7.19-55.52,23.48-12.16,12.55,0,32,7.75,43.59,4.74,7.1,10.72,13.65,14.48,21.28,4.29,8.69,6.36,18.17,9.15,27.35,3.5,11.52-2.11,81.73-7.36,117.31-1.24,8.45-22.4,91-16.71,107.27,11.24,8,30.6,13.26,46,17.08,1.64.41-1.68,5,0,5.23,66,10.8,153.56-18.24,153.56-18.24,1.63-41.54-17.28-133-20.58-158.92C287.64,438.34,292.23,368.11,300.73,355.26Z" style="fill:#fff"/></g><g id="Grupo_8351" data-name="Grupo 8351"><path id="Caminho_13652" data-name="Caminho 13652" d="M183.66,260.9l2-10.3s1,8.33,16.33,10.74a3.62,3.62,0,0,1,3.08,3.44l.36,12.54S184.39,274.66,183.66,260.9Z" style="fill:#fff"/></g><g id="Grupo_8352" data-name="Grupo 8352"><path id="Caminho_13653" data-name="Caminho 13653" d="M236.44,260.9l-2-10.3s-1,8.33-16.33,10.74a3.62,3.62,0,0,0-3.08,3.44l-.35,10.56S235.84,271.15,236.44,260.9Z" style="fill:#fff"/></g><g id="Grupo_8353" data-name="Grupo 8353"><path id="Caminho_13654" data-name="Caminho 13654" d="M262,294.27c3.11-15.79,22.45-21.53,31.19-19.93,17.72,3.26,22.4,14.35,24.14,21.25,1,5.2,3.78,16.34,4.78,21.55l14.16,73.71q3.53,18.42,7.07,36.86c1.92,10,5.43,20.38,5.8,30.59v.35l.76,28.71c1.52,27.11,1.06,96.08,1.86,118.47-9.83,2.16-35.42,7.59-43-5.05-1.24-11.61-9.08-88.87-9.44-100.7L299,463.73c-.24-.91-.47-1.86-.74-2.89-6.7-26-10.45-52.37-17.14-78.34-3.68-14.26-8.08-29.09-11.79-43.62-2.11-8.29-4.8-17.31-6.62-25.93C261.23,305.83,260.78,300.61,262,294.27Z" style="fill:#fff"/></g><g id="Grupo_8354" data-name="Grupo 8354"><path id="Caminho_13655" data-name="Caminho 13655" d="M152.24,299.34c-3.12-15.79-22.45-21.53-31.19-19.93-17.73,3.26-22.41,14.34-24.15,21.24-1,5.2-3.77,16.35-4.77,21.55Q85,359.05,78,395.92l-7.08,36.85c-1.91,10-5.42,20.38-5.8,30.6v.35l-.75,28.71c-1.52,27.1-1.07,96.08-1.86,118.47,9.82,2.15,35.42,7.58,43-5.06,1.25-11.61,9.09-88.86,9.45-100.69l.32-36.36c.23-.9.46-1.85.73-2.88,6.7-26.05,10.46-52.37,17.15-78.35,3.67-14.25,8.07-29.08,11.78-43.62,2.12-8.29,4.81-17.3,6.63-25.92C153,310.9,153.49,305.67,152.24,299.34Z" style="fill:#fff"/></g><g id="Grupo_8355" data-name="Grupo 8355"><path id="Caminho_13656" data-name="Caminho 13656" d="M158.09,299.34c-3.11-15.79-22.45-21.53-31.19-19.93-17.72,3.26-22.4,14.34-24.14,21.24-1,5.2-3.78,16.35-4.78,21.55q-7.08,36.85-14.15,73.72l-7.08,36.85c-1.92,10-5.43,20.38-5.8,30.6v.35l-.76,28.71c-1.52,27.1-1.06,96.08-1.86,118.47,9.83,2.15,35.42,7.58,43.05-5.06,1.24-11.61,9.08-88.86,9.44-100.69l.32-36.36c.23-.9.47-1.85.74-2.88,6.7-26.05,10.45-52.37,17.14-78.35,3.68-14.25,8.08-29.08,11.79-43.62,2.11-8.29,4.8-17.3,6.62-25.92C158.9,310.9,159.34,305.67,158.09,299.34Z" style="fill:#f7f7f7"/></g><g id="Grupo_8356" data-name="Grupo 8356"><path id="Caminho_13657" data-name="Caminho 13657" d="M183.66,260.9l2-10.3s1,8.33,16.33,10.74a3.62,3.62,0,0,1,3.08,3.44l.36,12.54S184.39,274.66,183.66,260.9Z" style="fill:#fff"/></g><g id="Grupo_8357" data-name="Grupo 8357"><path id="Caminho_13658" data-name="Caminho 13658" d="M236.44,260.9l-2-10.3s-1,8.33-16.33,10.74a3.62,3.62,0,0,0-3.08,3.44l-.35,10.56S235.84,271.15,236.44,260.9Z" style="fill:#fff"/></g><g id="Grupo_8358" data-name="Grupo 8358"><path id="Caminho_13659" data-name="Caminho 13659" d="M134.55,383.13h-.08a1,1,0,0,1-.89-1.05L136.11,349a1,1,0,0,1,1.95.15l-2.54,33.06A1,1,0,0,1,134.55,383.13Z" style="fill:#59316d"/></g><g id="Grupo_8359" data-name="Grupo 8359"><path id="Caminho_13660" data-name="Caminho 13660" d="M291.05,405.79a1,1,0,0,1-1-.82l-9.89-60.05a1,1,0,0,1,1-.95,1,1,0,0,1,.89.63L292,404.66a1,1,0,0,1-.81,1.12Z" style="fill:#59316d"/></g><g id="Grupo_8361" data-name="Grupo 8361"><path id="Caminho_13662" data-name="Caminho 13662" d="M153.62,187.89a1.93,1.93,0,0,1,0,.48,8.8,8.8,0,0,1-.1,1.36,21.11,21.11,0,0,1-1.16,4.89A23.91,23.91,0,0,1,126,210.41a22.61,22.61,0,0,1-4.85-1.32,11,11,0,0,1-1.25-.57c-.25-.13-.42-.22-.4-.24a34.5,34.5,0,0,0,6.55,1.71,25.29,25.29,0,0,0,7.32-.13,23.21,23.21,0,0,0,15-9,24.79,24.79,0,0,0,3.55-6.38A35.64,35.64,0,0,0,153.62,187.89Z" style="fill:#455a64"/></g><g id="Grupo_8364" data-name="Grupo 8364"><g id="Grupo_8362" data-name="Grupo 8362"><path id="Caminho_13663" data-name="Caminho 13663" d="M160.21,190.35a21.91,21.91,0,0,1-3.88-12.56,6.74,6.74,0,0,1,5.25-6.7,5.61,5.61,0,0,1,5.15,1.69c-.69-5.44-2.21-19.7-2.16-21.11v-7.91a44.22,44.22,0,0,1,44.22-44.22H210c-15.06-8-39.58,6.61-54.23,15.38-15.6,9.34-19.46,14-16.25,31.81.72,4,2,8,1.8,12.13-.2,3.69-1.64,7.22-1.84,10.92-.4,7.89,4.82,14.88,10.38,20.55s9.78,26,17.19,24.19c7.82,4,12,4.87,13.84,3.57a47.17,47.17,0,0,1-10.89-24C166.7,195,162.89,193.74,160.21,190.35Z" style="fill:#263238"/></g><g id="Grupo_8363" data-name="Grupo 8363"><path id="Caminho_13664" data-name="Caminho 13664" d="M210.08,99.57h-1.21c-24.42,0-47.13,19.77-47.13,44.19,0,2.31,1.43,7.53,1.45,7.94-.05,1.41,1.32,13.83,2,19.27.15.33,1.92,2.5,2,2.84-.14-9.23,8.29-17.59,13.09-20.27,16.95-9.45,29.11-33.45,31.18-52.23l1.44-.08A29.35,29.35,0,0,0,210.08,99.57Z" style="fill:#263238"/></g></g><g id="Grupo_8365" data-name="Grupo 8365"><path id="Caminho_13665" data-name="Caminho 13665" d="M166.84,195.25c-10.53-1.85-11.15-10.38-11.15-15V168c-5.07-11.55-16.78-14.93-28.33-9.87a22.84,22.84,0,0,0-5.08,38.75c-2.61-.58-5.27,1.67-5.81,4.29a10,10,0,0,0,2,7.58c5.46,8,17.82,10.08,25.59,4.36,6.16,4.18,15.27,1.75,19.84-4.13S168.94,202.39,166.84,195.25Z" style="fill:#263238"/></g><g id="Grupo_8366" data-name="Grupo 8366"><path id="Caminho_13666" data-name="Caminho 13666" d="M178.69,219.65c-2.63,0-6.49-1.35-11.83-4.08-2,.33-3.85-.56-5.7-2.7-5.32,3.83-12.14,4.4-17.11,1.41a19.77,19.77,0,0,1-26.42-5A11,11,0,0,1,115.5,201a6.87,6.87,0,0,1,3-4.3,6.42,6.42,0,0,1,1.43-.67,23.8,23.8,0,0,1,7.07-38.8,25.59,25.59,0,0,1,13.14-2.2c-.22-1.62-.58-3.24-.92-4.83-.24-1.09-.48-2.18-.68-3.27-3.24-18,.65-23.2,16.71-32.82,14.72-8.81,39.32-23.54,55-15.5a1,1,0,0,1,.33.1c1,.53,2,1.09,2.91,1.66a1,1,0,0,1,.24,1.39,1,1,0,0,1-.7.42h-.63c-2.27,18.16-14,42.34-31.57,52.15-4,2.23-12.73,10.22-12.59,19.41a1,1,0,0,1-1.92.38c-.11-.19-.56-.79-.81-1.12a4.31,4.31,0,0,0-3.66-1,5.75,5.75,0,0,0-4.54,5.81,21,21,0,0,0,3.67,11.9c2.34,3,5.68,4.27,8.71,3.4a1,1,0,0,1,1.21.67v.14a46.15,46.15,0,0,0,10.66,23.53,1,1,0,0,1-.1,1.38h-.08A4.54,4.54,0,0,1,178.69,219.65ZM167,213.57a1,1,0,0,1,.45.11c6.84,3.54,10.16,4.18,11.76,4a48.18,48.18,0,0,1-10.07-22.43,10.39,10.39,0,0,1-9.7-4.3,22.93,22.93,0,0,1-4.09-13.21,7.7,7.7,0,0,1,6-7.59,6.06,6.06,0,0,1,5.07,1.11c1.23-9,9.32-16.31,13.44-18.61,17.3-9.64,28.72-33.72,30.69-51.48a.54.54,0,0,1,0-.22l-.76-.42a.92.92,0,0,1-.32-.1l-.15-.07a1,1,0,0,1-.54.16,46,46,0,0,0-8.52.83,1,1,0,1,1-.38-1.91,43.51,43.51,0,0,1,4.81-.69c-14.89-3.1-36.38,9.78-48.5,17-15.35,9.2-18.91,13.43-15.79,30.81.2,1.06.43,2.12.66,3.19a48,48,0,0,1,1.1,6.3,1,1,0,0,1-.89,1.06h-.25A23.25,23.25,0,0,0,127.76,159a21.87,21.87,0,0,0-4.87,37.09,1,1,0,0,1-.82,1.71,3.42,3.42,0,0,0-2.56.54,5,5,0,0,0-2.09,3,9,9,0,0,0,1.79,6.79,17.79,17.79,0,0,0,24.23,4.17,1,1,0,0,1,1.13,0c4.47,3,11.26,2.38,16.14-1.54a1,1,0,0,1,.73-.21,1,1,0,0,1,.66.38c2.19,2.87,3.71,2.9,4.67,2.67H167Z" style="fill:#59316d"/></g><g id="Grupo_8367" data-name="Grupo 8367"><path id="Caminho_13667" data-name="Caminho 13667" d="M141.89,156.9a5.9,5.9,0,0,1-.66-.75,7.65,7.65,0,0,1-1.16-2.57c-.71-2.41-.38-6.21,1.53-10.23a20.33,20.33,0,0,1,4.21-5.9,38.26,38.26,0,0,1,6.33-5.38,32.81,32.81,0,0,1,8.22-4.12c3-1,6.21-1.84,9.47-2.65s6.44-1.62,9.42-2.66a58.75,58.75,0,0,0,8.34-3.63,61.86,61.86,0,0,0,19.61-16.46c.77-1,1.33-1.74,1.71-2.32a5.65,5.65,0,0,1,.62-.77,7.23,7.23,0,0,1-.51.84c-.36.54-.89,1.35-1.63,2.32a56.94,56.94,0,0,1-7,7.8,61.14,61.14,0,0,1-12.6,9,58.75,58.75,0,0,1-8.41,3.69c-3,1.06-6.21,1.87-9.47,2.7s-6.44,1.6-9.43,2.61a33.12,33.12,0,0,0-8.14,4,40.12,40.12,0,0,0-6.28,5.28,20.12,20.12,0,0,0-4.1,5.82c-1.91,3.92-2.32,7.63-1.68,10A9.18,9.18,0,0,0,141.89,156.9Z" style="fill:#59316d"/></g><g id="Grupo_8368" data-name="Grupo 8368"><path id="Caminho_13668" data-name="Caminho 13668" d="M209.51,99.52a6.87,6.87,0,0,1-.55.66c-.37.43-.94,1-1.67,1.81a74.68,74.68,0,0,1-6.71,6.11,47.08,47.08,0,0,1-11.54,7,44.7,44.7,0,0,1-7.7,2.08c-2.71.54-5.54,1-8.42,1.4a92.91,92.91,0,0,0-16,3.37,34.93,34.93,0,0,0-11.63,6.43,22.76,22.76,0,0,0-5.6,7,20.69,20.69,0,0,0-1,2.26,3.25,3.25,0,0,1-.34.79,7.79,7.79,0,0,1,.22-.83,17.56,17.56,0,0,1,.88-2.32A22,22,0,0,1,145,128a34.89,34.89,0,0,1,11.71-6.63,92.46,92.46,0,0,1,16.12-3.49c2.9-.43,5.71-.86,8.4-1.38a44.4,44.4,0,0,0,7.61-2,47.56,47.56,0,0,0,11.47-6.78,85.33,85.33,0,0,0,6.83-5.91l1.75-1.73A4.68,4.68,0,0,1,209.51,99.52Z" style="fill:#59316d"/></g><g id="Grupo_8369" data-name="Grupo 8369"><path id="Caminho_13669" data-name="Caminho 13669" d="M166.84,215a2.22,2.22,0,0,1-.57-.39c-.36-.26-.88-.67-1.55-1.16a49.13,49.13,0,0,1-5.28-4.92,19.18,19.18,0,0,1-5-9.45,46,46,0,0,1-.28-6.32,11,11,0,0,0-1.81-6.24,38.6,38.6,0,0,0-4.55-4.93,18.63,18.63,0,0,1-3.74-5.15,23.37,23.37,0,0,1-1.82-5.46,21.52,21.52,0,0,1-.47-5,29.66,29.66,0,0,1,.5-4.09,14.22,14.22,0,0,0,.07-3.06c-.2-1.67-.53-2.57-.47-2.59a3.58,3.58,0,0,1,.26.64,14,14,0,0,1,.44,1.92,13.65,13.65,0,0,1,0,3.13c-.1,1.16-.38,2.56-.42,4.06a24,24,0,0,0,2.33,10.2,17.86,17.86,0,0,0,3.66,5,36.69,36.69,0,0,1,4.65,5,10,10,0,0,1,1.48,3.19,15.24,15.24,0,0,1,.43,3.36A46.79,46.79,0,0,0,155,199a19,19,0,0,0,4.74,9.31,54.9,54.9,0,0,0,5.12,5l1.59,1.21A3.56,3.56,0,0,1,166.84,215Z" style="fill:#59316d"/></g><g id="Grupo_8370" data-name="Grupo 8370"><path id="Caminho_13670" data-name="Caminho 13670" d="M149.13,182.42a6.8,6.8,0,0,1-.33,1.6,24.5,24.5,0,0,1-1.64,4.13,27,27,0,0,1-9.91,10.62,28.83,28.83,0,0,1-14,4.09,27.35,27.35,0,0,1-4.43-.23,7.25,7.25,0,0,1-1.59-.33c2,.14,4,.19,6,.13A29.82,29.82,0,0,0,137,198.24a27.63,27.63,0,0,0,9.84-10.3A45.84,45.84,0,0,0,149.13,182.42Z" style="fill:#59316d"/></g><g id="Grupo_8371" data-name="Grupo 8371"><path id="Caminho_13671" data-name="Caminho 13671" d="M115.12,170.84a4.47,4.47,0,0,1,1-.61,10.61,10.61,0,0,1,1.29-.58,18.81,18.81,0,0,1,1.78-.63,24.39,24.39,0,0,1,4.8-.93,26.64,26.64,0,0,1,11.8,1.58,23.36,23.36,0,0,1,4.38,2.21,13.57,13.57,0,0,1,1.52,1.09,7.29,7.29,0,0,1,1.08.92,5.31,5.31,0,0,1,.83.88c-.08.1-1.3-1.16-3.66-2.53a26.48,26.48,0,0,0-4.34-2.05,31.77,31.77,0,0,0-5.7-1.37,31.34,31.34,0,0,0-5.81-.18,27.15,27.15,0,0,0-4.74.81C116.7,170.14,115.24,171,115.12,170.84Z" style="fill:#59316d"/></g><g id="Grupo_8372" data-name="Grupo 8372"><path id="Caminho_13672" data-name="Caminho 13672" d="M142.74,162.5a1.14,1.14,0,0,1-.15-.23c-.11-.2-.23-.43-.4-.71a10.5,10.5,0,0,1-.9-3,14.85,14.85,0,0,1,3.07-10.81A16.76,16.76,0,0,1,147,145a21.43,21.43,0,0,1,3.42-2.32,30,30,0,0,1,8.58-3c6.29-1.32,13.38-1,20.59-2.07a31.9,31.9,0,0,0,10.13-3.13,30.24,30.24,0,0,0,7.77-6.05,47.88,47.88,0,0,0,9-14.09c1.9-4.41,3.1-8.14,4-10.66l1-2.94.27-.76a1.89,1.89,0,0,1,.11-.25V100l-.21.78-1,3a110.39,110.39,0,0,1-3.8,10.74,47.65,47.65,0,0,1-9,14.32,30.74,30.74,0,0,1-7.93,6.14,31.81,31.81,0,0,1-10.28,3.21c-7.31,1.09-14.36.75-20.58,2s-11.56,3.88-14.36,7.78a14.81,14.81,0,0,0-3.16,10.47A13.37,13.37,0,0,0,142.74,162.5Z" style="fill:#59316d"/></g><g id="Grupo_8373" data-name="Grupo 8373"><path id="Caminho_13673" data-name="Caminho 13673" d="M150.12,208.68a17.27,17.27,0,0,1-1.39,4.66,22.25,22.25,0,0,1-3,4.94,20.29,20.29,0,0,1-5.88,4.95,19.26,19.26,0,0,1-9,2.33,17.63,17.63,0,0,1-10.22-3,17.11,17.11,0,0,1-6.77-9.57A14.58,14.58,0,0,1,116,200.7a14.5,14.5,0,0,1,8.64-6.12v.58a23.52,23.52,0,0,1-10-4.06,19.14,19.14,0,0,1-6.35-7.61,18.07,18.07,0,0,1-1.55-8.76,14.74,14.74,0,0,1,2.53-7.25,15.17,15.17,0,0,1,4.65-4.3,14.27,14.27,0,0,1,4.41-1.7,12.68,12.68,0,0,1,3-.22l.75.08h.26a15.24,15.24,0,0,0-3.93.31A13.9,13.9,0,0,0,114,163.4a14.67,14.67,0,0,0-4.44,4.26,14.49,14.49,0,0,0-2.39,7.06,17.63,17.63,0,0,0,1.56,8.5,18.71,18.71,0,0,0,6.2,7.37,22.94,22.94,0,0,0,9.75,3.94l1.5.24-1.48.35a14,14,0,0,0-8.28,5.88,14.27,14.27,0,0,0-2,11.87,16.51,16.51,0,0,0,6.53,9.29,17,17,0,0,0,9.88,2.94,18.82,18.82,0,0,0,8.81-2.22,20,20,0,0,0,5.81-4.78,22.08,22.08,0,0,0,3.1-4.83,27.18,27.18,0,0,0,1.29-3.39c.1-.37.18-.68.24-.92Z" style="fill:#59316d"/></g><g id="Grupo_8374" data-name="Grupo 8374"><path id="Caminho_13674" data-name="Caminho 13674" d="M143.27,158.39a1.43,1.43,0,0,1-.28-.13l-.81-.43a22.18,22.18,0,0,1-2.89-2A24.08,24.08,0,0,1,135.67,122a24.72,24.72,0,0,1,4.29-4.14,33.87,33.87,0,0,1,10.92-5.35,61.12,61.12,0,0,1,12-2.13c3.91-.37,7.67-.55,11.26-.79a98.25,98.25,0,0,0,10.12-1.16,45.73,45.73,0,0,0,8.52-2.33,30.49,30.49,0,0,0,10.72-6.76,24.9,24.9,0,0,0,2.25-2.66l.53-.73a1.57,1.57,0,0,1,.2-.25,18.12,18.12,0,0,1-2.81,3.81,29.76,29.76,0,0,1-10.78,7,45.67,45.67,0,0,1-8.59,2.41,93.45,93.45,0,0,1-10.16,1.16c-7.16.57-15.12.63-23.09,3a33.9,33.9,0,0,0-10.73,5.24,23.83,23.83,0,0,0-8.14,26.89,24.52,24.52,0,0,0,7.21,10.37,22.85,22.85,0,0,0,2.81,2.07l.77.48A1.18,1.18,0,0,1,143.27,158.39Z" style="fill:#59316d"/></g><g id="Grupo_8380" data-name="Grupo 8380"><g id="Grupo_8375" data-name="Grupo 8375"><path id="Caminho_13675" data-name="Caminho 13675" d="M247.63,193.17a54.68,54.68,0,0,1-5.58,15.25,31.09,31.09,0,0,0,12.52-14.88,7.3,7.3,0,0,1-2.33.91C251.51,194.59,247.61,194.35,247.63,193.17Z" style="fill:#263238"/></g><g id="Grupo_8376" data-name="Grupo 8376"><path id="Caminho_13676" data-name="Caminho 13676" d="M242.05,209.39a1,1,0,0,1-1-1,1,1,0,0,1,.12-.47,53.91,53.91,0,0,0,5.47-15,1,1,0,0,1,1.92,0,8.55,8.55,0,0,0,3.47.52,6,6,0,0,0,2-.79,1,1,0,0,1,1.41,1.19,32,32,0,0,1-12.9,15.35A1,1,0,0,1,242.05,209.39Zm6.19-14.45a55.67,55.67,0,0,1-3.55,10.37,29.69,29.69,0,0,0,8-10l-.3.07a10.76,10.76,0,0,1-4.18-.47Z" style="fill:#59316d"/></g><g id="Grupo_8377" data-name="Grupo 8377"><path id="Caminho_13677" data-name="Caminho 13677" d="M252.85,140.74c.16,1.73.22,3.64.22,6,0,.92-2.75,18.65-3.47,25.76l8.34-32.37-11.81-28.57-4.37-14-31.07-1.79s.66,1.48,1.83,4A44.22,44.22,0,0,1,252.85,140.74Z" style="fill:#263238"/></g><g id="Grupo_8378" data-name="Grupo 8378"><path id="Caminho_13678" data-name="Caminho 13678" d="M266.81,150.42c-2.44-5.14-8.54-7.07-7.42-22.12a13.71,13.71,0,0,0-.27-4.14c-1.39-6.13-6.2-8-8.68-9.21,2.56-14.27,8.71-33.92-5.31-37.59S216.5,82.65,205.4,92c-1.38-1.24,1.67,7.58,3.35,7.58,1.27,0,2.53.07,3.77.17,6,12.87,25.35,52.91,37.08,59.25,1.58,3.49-.78,11.35,0,13.55,0,.39-.08.76-.1,1.08a5.42,5.42,0,0,1,6.33-2.55c3.08.83,4.72,3.25,5.27,6.23,2.75-3.29,6.25-6.07,7.86-10C271.15,161.84,269.31,155.7,266.81,150.42Z" style="fill:#263238"/></g><g id="Grupo_8379" data-name="Grupo 8379"><path id="Caminho_13679" data-name="Caminho 13679" d="M261.1,178.25a1,1,0,0,1-1-.8c-.38-2-1.47-4.63-4.57-5.47a4.49,4.49,0,0,0-5.25,2.12,1,1,0,0,1-1.35.31,1,1,0,0,1-.45-.91,3.66,3.66,0,0,1,.08-.9,16.93,16.93,0,0,1,.18-5.22c.31-2.64.7-5.9,0-7.74-11.58-6.74-29.48-43-36.94-59-1.1-.09-2.13-.13-3.13-.13-2.4,0-4.34-6.65-4.36-6.72-.34-1.17-.58-2.27.23-2.77a1.14,1.14,0,0,1,.57-.16h0c15.15-12.6,28.67-17.46,40.18-14.45,13.1,3.43,9.79,19.82,7.13,33-.34,1.71-.68,3.38-1,5,2.7,1.3,7.16,3.48,8.55,9.55a15.32,15.32,0,0,1,.29,4.43c-.81,10.75,2.14,14.48,4.74,17.78a19.92,19.92,0,0,1,2.58,3.85c3.38,7.12,4.09,12.88,2.18,17.6-1.21,3-3.42,5.31-5.54,7.56-.84.88-1.71,1.8-2.49,2.73A1,1,0,0,1,261.1,178.25Zm-6.94-8.42a7.34,7.34,0,0,1,1.92.26,7.93,7.93,0,0,1,5.48,5.17q.68-.73,1.35-1.44c2.09-2.22,4.07-4.31,5.15-6.95,1.69-4.18,1-9.43-2.13-16h0a19,19,0,0,0-2.35-3.48c-2.68-3.4-6-7.63-5.16-19.14a12.76,12.76,0,0,0-.25-3.85c-1.18-5.19-5-7-7.54-8.25l-.63-.3a1,1,0,0,1-.52-1c.33-1.84.72-3.78,1.12-5.75,2.62-13,5.6-27.76-5.71-30.72-11-2.86-24,2-38.8,14.35.34,1.59,1.91,5.36,2.76,5.91,1.19,0,2.42.06,3.75.18a1,1,0,0,1,.81.56c5.69,12.22,25.15,52.58,36.65,58.8a.92.92,0,0,1,.42.45c1,2.27.62,5.88.24,9.06-.14,1.22-.3,2.54-.31,3.5a6,6,0,0,1,3.75-1.28Z" style="fill:#59316d"/></g></g><g id="Grupo_8384" data-name="Grupo 8384"><g id="Grupo_8381" data-name="Grupo 8381"><path id="Caminho_13680" data-name="Caminho 13680" d="M239,76.51c0,.13-2.27.21-5.82,1.16a28.42,28.42,0,0,0-2.84.91c-1,.34-2,.84-3.14,1.33a35.27,35.27,0,0,0-12.12,9.63c-.72,1-1.44,1.85-2,2.76a27.21,27.21,0,0,0-1.52,2.55c-1.71,3.21-2.33,5.42-2.42,5.37a7.33,7.33,0,0,1,.4-1.53,12.38,12.38,0,0,1,.62-1.77,30.31,30.31,0,0,1,2.5-5,33.28,33.28,0,0,1,2-2.84,38.08,38.08,0,0,1,5.59-5.62A37.23,37.23,0,0,1,227,79.35a32.68,32.68,0,0,1,8.53-2.62,12.93,12.93,0,0,1,1.86-.22A7.22,7.22,0,0,1,239,76.51Z" style="fill:#59316d"/></g><g id="Grupo_8382" data-name="Grupo 8382"><path id="Caminho_13681" data-name="Caminho 13681" d="M257.77,172s0-.08.18-.23l.54-.64c.49-.57,1.23-1.4,2.05-2.55a14.33,14.33,0,0,0,2.33-4.53,8.2,8.2,0,0,0,.24-3.12,9,9,0,0,0-1.16-3.32c-1.26-2.17-3.32-4.07-5.2-6.42a37.45,37.45,0,0,1-7.87-18.37,75.35,75.35,0,0,1-.28-11.34,39.51,39.51,0,0,0-1-11.16A23,23,0,0,0,235,95.85,21.26,21.26,0,0,0,227,94a23.2,23.2,0,0,0-14.33,4.22l-.7.49c-.15.1-.23.16-.24.15a16.28,16.28,0,0,1,3.62-2.54A23.29,23.29,0,0,1,227,93.59a21.56,21.56,0,0,1,8.14,1.8,23.38,23.38,0,0,1,13,14.8,40.3,40.3,0,0,1,1.06,11.32,77,77,0,0,0,.26,11.26,37.16,37.16,0,0,0,7.7,18.13c1.84,2.32,3.91,4.25,5.19,6.52a9.17,9.17,0,0,1,1.16,3.49,8.22,8.22,0,0,1-.3,3.27,14.3,14.3,0,0,1-2.48,4.57,28.1,28.1,0,0,1-2.14,2.49l-.6.6A.69.69,0,0,1,257.77,172Z" style="fill:#59316d"/></g><g id="Grupo_8383" data-name="Grupo 8383"><path id="Caminho_13682" data-name="Caminho 13682" d="M281.26,143.3a7.3,7.3,0,0,0-1.94-3.3,6.22,6.22,0,0,0-3-1.62,5,5,0,0,0-5.08,1.51,3.64,3.64,0,0,0-.79,2.21,2.52,2.52,0,0,0,.84,1.91,2.21,2.21,0,0,0,2.53.41,1.08,1.08,0,0,0,.51-.75,1.39,1.39,0,0,1-.56.59,2.13,2.13,0,0,1-2.38-.46,2.27,2.27,0,0,1-.73-1.77,3.33,3.33,0,0,1,.77-2,4.71,4.71,0,0,1,4.83-1.38,6.15,6.15,0,0,1,2.82,1.56,7.1,7.1,0,0,1,1.8,3.13,6,6,0,0,1-2.44,6.69,8.56,8.56,0,0,1-7.9.38,11.58,11.58,0,0,1-3.87-2.49,9.87,9.87,0,0,1-2.52-4.07,24.63,24.63,0,0,1-1-4.87c-.18-1.61-.39-3.21-.69-4.78a42,42,0,0,0-2.58-8.85,30.62,30.62,0,0,0-4.22-7.23,22.89,22.89,0,0,0-5.31-4.8,17,17,0,0,0-2.49-1.41l.09.35a20.62,20.62,0,0,1,2.27,1.32,23,23,0,0,1,5.19,4.86,30.23,30.23,0,0,1,4.12,7.14,42.33,42.33,0,0,1,2.53,8.75c.29,1.55.5,3.13.68,4.75a25.12,25.12,0,0,0,.95,4.93,10.4,10.4,0,0,0,2.68,4.33,12.14,12.14,0,0,0,4,2.59,9,9,0,0,0,8.28-.46,6.38,6.38,0,0,0,2.52-7.13Z" style="fill:#59316d"/></g></g><g id="Grupo_8385" data-name="Grupo 8385"><path id="Caminho_13683" data-name="Caminho 13683" d="M279.14,80.88a8.6,8.6,0,0,0-.07-1.34c0-.26-.05-.52-.07-.78a10.79,10.79,0,0,0-.14-1.26,6.15,6.15,0,0,0-.12-.83c0-.28-.13-.83-.2-1.25s-.1-.56-.16-.84c-.08-.44-.18-.87-.28-1.3s-.12-.55-.19-.82c-.12-.48-.25-1-.39-1.43-.06-.24-.12-.47-.19-.71-.22-.71-.45-1.43-.7-2.15s-.42-1.17-.65-1.73l-.22-.51c-.16-.38-.33-.76-.5-1.13l-.27-.56-.53-1-.28-.51c-.2-.35-.4-.69-.6-1l-.26-.42c-.24-.38-.49-.76-.75-1.12a1.88,1.88,0,0,0-.16-.23,28.83,28.83,0,0,0-6-6.18l.43.32-.43-.32-.61-.47c-.43-.31-.87-.61-1.32-.91a34.32,34.32,0,0,0-6.05-3.13h0c-19.47-7.78-45.65.35-45.65.35-50.8-53-88.21-16.36-88.41,14.91v1.82h0a35.3,35.3,0,0,0,.38,4.1v.27a4.88,4.88,0,0,0,.15.85c0,.28.08.44.13.66s.09.45.15.68.13.57.21.86.08.34.13.51q.2.7.42,1.38a35.38,35.38,0,0,0,2.39,5.68,30.05,30.05,0,0,0,1.94,3.16c.33.49.68,1,1,1.41a28,28,0,0,0,4.86,4.8A29.28,29.28,0,0,0,139,92.5c.61.37,1.22.7,1.82,1a31.14,31.14,0,0,0,14.11,3.32c-1.73,8.64.84,18.11.84,18.11l.95-.56c0-4.51,18-10.23,47-10.23s46.79,6.29,46.79,10.79h0l1.08.52a2.86,2.86,0,0,0,.06-.58v.06a49,49,0,0,0,1.07-6h-.1a2.39,2.39,0,0,0,.13-.28h0c.11-1,.17-2,.19-2.83a26.52,26.52,0,0,1-.19,2.83v.28h1.19a15.44,15.44,0,0,0,1.67-.12l.88-.11a7.14,7.14,0,0,0,1.13-.15l.91-.17,1-.2.89-.22,1-.27.86-.26.93-.33.8-.31.91-.4.73-.33c.36-.18.7-.37,1-.56s.54-.3.8-.46.76-.46,1.12-.71c.21-.14.4-.29.59-.43s.54-.39.79-.59l.59-.5.7-.61.56-.55c.22-.21.43-.43.64-.65s.35-.38.52-.58.4-.47.59-.72.32-.38.47-.59l.58-.81.38-.57c.25-.37.47-.76.69-1.15.09-.14.17-.29.25-.44.24-.44.47-.9.69-1.36.09-.2.17-.4.25-.6s.29-.66.42-1,.17-.46.25-.69.22-.65.33-1l.21-.73c.09-.33.18-.67.26-1l.18-.74c.07-.36.14-.71.2-1.07s.09-.49.13-.74L279,86c0-.22.05-.44.07-.65q.07-.88.12-1.77V81.51A6.19,6.19,0,0,1,279.14,80.88ZM125.61,54.68c-.14.59-.27,1.19-.39,1.78C125.34,55.86,125.47,55.27,125.61,54.68Z" style="fill:#fff"/></g><g id="Grupo_8386" data-name="Grupo 8386"><path id="Caminho_13684" data-name="Caminho 13684" d="M285,80.88a8.6,8.6,0,0,0-.07-1.34,3,3,0,0,0-.07-.78,10.76,10.76,0,0,0-.13-1.26l-.12-.83c-.06-.41-.13-.83-.21-1.25s-.1-.56-.15-.84c-.09-.44-.18-.87-.28-1.3s-.13-.55-.19-.82c-.12-.48-.25-1-.39-1.43l-.2-.71c-.21-.71-.44-1.43-.69-2.15s-.43-1.17-.65-1.73l-.23-.51c-.16-.38-.32-.76-.5-1.13l-.27-.56c-.17-.35-.34-.69-.52-1L280,62.7c-.19-.35-.39-.69-.6-1l-.25-.42c-.25-.38-.5-.76-.75-1.12l-.16-.23a28.83,28.83,0,0,0-6-6.18l.43.32-.43-.32-.62-.47c-.43-.31-.87-.61-1.31-.91a34.41,34.41,0,0,0-6.06-3.13h0c-19.48-7.78-45.65.35-45.65.35-50.8-53-88.21-16.36-88.42,14.91v1.82h0a37.63,37.63,0,0,0,.38,4.1v.27l.15.85c0,.22.09.44.13.66l.15.68.21.86a1.94,1.94,0,0,0,.14.51c.13.47.26.93.41,1.38a36.35,36.35,0,0,0,2.4,5.68,30,30,0,0,0,1.93,3.16c.34.49.69,1,1,1.41a27.87,27.87,0,0,0,7.58,6.65c.61.37,1.22.7,1.83,1a31.14,31.14,0,0,0,14.11,3.32c-1.74,8.64.83,18.11.83,18.11l1-.56c0-4.51,18-10.23,47-10.23s46.78,6.29,46.78,10.79h0l1.08.52a3.83,3.83,0,0,0,.07-.58V115a49,49,0,0,0,1.07-6h-.09c0-.09.09-.18.13-.28h0c.1-1,.16-2,.19-2.83,0,.88-.09,1.82-.19,2.83V109h1.18a15.63,15.63,0,0,0,1.68-.12l.88-.11a7.14,7.14,0,0,0,1.13-.15l.91-.17,1-.2.89-.22,1-.27.85-.26.93-.33.8-.31.92-.4.72-.33c.36-.18.7-.37,1.05-.56l.79-.46c.38-.23.76-.46,1.13-.71l.59-.43c.26-.2.53-.39.78-.59l.59-.5c.24-.2.48-.4.7-.61s.38-.36.56-.55l.64-.65c.21-.22.35-.38.52-.58s.4-.47.6-.72.31-.38.46-.59l.58-.81.39-.57c.24-.37.47-.76.69-1.15l.24-.44c.25-.44.48-.9.69-1.36l.26-.6.42-1,.24-.69c.12-.32.23-.65.33-1s.15-.48.21-.73.19-.67.27-1,.12-.49.17-.74.14-.71.2-1.07.09-.49.13-.74.11-.79.15-1.19c0-.22.06-.44.08-.65.05-.59.09-1.18.11-1.77V81.56A2.35,2.35,0,0,0,285,80.88ZM131.47,54.68c-.15.59-.28,1.19-.4,1.78C131.19,55.86,131.32,55.27,131.47,54.68Z" style="fill:#f7f7f7"/></g><g id="Grupo_8387" data-name="Grupo 8387"><path id="Caminho_13685" data-name="Caminho 13685" d="M251.52,116.44a1,1,0,0,1-.43-.09l-1.08-.53a1,1,0,0,1-.55-.87c0-3.33-16.17-9.82-45.81-9.82-30.2,0-46,6-46,9.25a1,1,0,0,1-.48.84l-.95.57a1,1,0,0,1-1.34-.35,2.44,2.44,0,0,1-.1-.24c-.1-.38-2.39-9-1.06-17.39a32,32,0,0,1-17.15-5.7A27.94,27.94,0,0,1,132.9,89a29.38,29.38,0,0,1-2.29-2.57c-.37-.47-.73-1-1.08-1.46a30.91,30.91,0,0,1-2-3.26,36.41,36.41,0,0,1-2.47-5.83c-.15-.47-.29-1-.42-1.42l-.14-.53c-.08-.3-.15-.6-.22-.89l-.15-.7a4.28,4.28,0,0,0-.13-.68c0-.23-.12-.59-.16-.87v-.28c-.1-.63-.17-1.26-.24-1.89v-.14c-.07-.69-.11-1.3-.14-1.91-.82-17.63,9.8-35.22,25.24-41.84,11-4.71,33.91-7.87,64.41,23.7,5-1.45,38.29-10.31,56.15,6.34l.13.12.66.65.24.25.58.6.25.28.56.64c.12.13.23.27.34.4l.18.23c.1.11.19.23.28.35l.77,1,.16.24c.26.38.52.76.78,1.16l.22.35.66,1.13c.1.18.19.36.29.53.19.35.37.7.54,1.06l.28.57c.18.38.35.77.52,1.17l.08.18.15.35c.23.57.45,1.16.67,1.76s.49,1.47.7,2.2c.05.16.09.31.13.46l.07.26c.14.49.28,1,.4,1.46l.15.65V73c.11.44.2.88.29,1.33.06.28.11.57.16.86s.15.85.21,1.28l.12.85c.05.43.1.86.14,1.28v.19l.06.62c0,.46.06.92.07,1.37v2.77c0,.65-.07,1.26-.12,1.86a1.32,1.32,0,0,1-.05.44v.23q-.06.61-.15,1.23a3.83,3.83,0,0,1-.1.59v.17l-.21,1.1-.18.77L279,91c-.09.35-.15.5-.22.75s-.23.68-.34,1l-.06.15c-.06.19-.13.38-.2.56-.14.35-.28.7-.43,1l-.09.2-.18.42c-.22.48-.46,1-.71,1.42-.07.12-.14.23-.2.35l-.06.11c-.23.4-.47.8-.72,1.19l-.27.41-.13.18-.6.85-.43.54c-.26.33-.47.58-.68.82l-.54.6-.67.69c-.19.19-.38.38-.58.56l-.73.64-.11.09c-.16.15-.33.29-.51.43l-.77.58-.24.18-.42.3c-.38.26-.78.51-1.17.75l-.83.47c-.35.2-.71.4-1.09.58l-.53.25-.22.1-1,.41c-.23.1-.47.19-.71.27h-.12l-1,.34c-.29.1-.59.19-.88.27l-1,.28-.93.23-1,.21c-.37.07-.65.13-.94.17l-1.16.16h-.26l-.65.08c-.57.06-1.14.09-1.72.12h-.37a48,48,0,0,1-1,5.19,3.72,3.72,0,0,1-.08.57,1,1,0,0,1-1,.76Zm-47.87-13.26c26,0,44.18,5,47.29,10.21.33-1.55.58-3.06.75-4.54a1,1,0,0,1,.95-.86h1.19c.55,0,1.09-.06,1.63-.11l.58-.08h.27a6.62,6.62,0,0,0,1.1-.15l.79-.14,1.08-.22.87-.21.93-.26.82-.26.9-.31.12,0,.65-.25c.28-.11.55-.23.82-.36l.29-.13.47-.22c.34-.17.67-.35,1-.53s.51-.29.76-.44.73-.44,1.08-.68l.36-.26.21-.16.75-.56.46-.39.11-.09c.22-.19.45-.38.66-.59l.54-.51c.21-.21.42-.42.62-.64l.49-.54c.16-.18.39-.46.57-.69s.33-.4.45-.57l.56-.78.13-.2.24-.34c.23-.36.45-.73.66-1.1l.24-.42q.34-.65.66-1.32l.15-.35.09-.22c.14-.32.28-.64.4-1,.07-.16.13-.33.19-.5l.05-.16c.11-.31.22-.62.32-.94s.14-.47.2-.71.18-.64.26-1,.11-.48.16-.72.14-.69.2-1v-.17a5.25,5.25,0,0,1,.09-.55c.06-.38.11-.77.15-1.16v-.63c.05-.57.09-1.14.11-1.72V81h0a8.16,8.16,0,0,0-.07-1.3v-.76a10.1,10.1,0,0,0-.13-1.22c-.05-.41-.07-.54-.11-.82s-.13-.81-.2-1.22l-.15-.83c-.09-.42-.18-.84-.28-1.27v-.19l-.15-.61c-.11-.46-.24-.93-.37-1.4l-.2-.69c-.21-.7-.43-1.41-.68-2.12s-.41-1.13-.63-1.67l-.22-.5-.48-1.1-.27-.54c-.16-.34-.33-.67-.51-1l-.27-.49c-.19-.34-.38-.67-.58-1l-.25-.41c-.24-.37-.48-.73-.73-1.08l-.15-.23-.72-1-.44-.54-.3-.37c-.16-.18-.31-.36-.47-.53l-.3-.33-.53-.57-.23-.23-.63-.61-.09-.08c-18.12-16.9-54.48-5.87-54.84-5.75a1,1,0,0,1-1-.26C182.18,19.06,160,22,149.43,26.54c-16.68,7.16-24.73,25.52-24.06,39.94,0,.6.07,1.18.12,1.76v.21c.06.6.13,1.2.23,1.79v.27a4.16,4.16,0,0,0,.14.77c0,.26.09.47.14.69s.09.44.14.66.13.55.21.83l.13.5c.12.45.25.9.4,1.34a33.45,33.45,0,0,0,2.33,5.52,28.11,28.11,0,0,0,1.87,3.06c.33.48.66.93,1,1.36a27.2,27.2,0,0,0,5.55,5.28,30.32,30.32,0,0,0,17.14,5.34,1,1,0,0,1,.79.33,1,1,0,0,1,.22.83c-1.21,6-.25,12.51.38,15.69,3.51-5.38,23.47-9.53,47.49-9.53Z" style="fill:#59316d"/></g><g id="Grupo_8415" data-name="Grupo 8415"><g id="Grupo_8390" data-name="Grupo 8390"><g id="Grupo_8389" data-name="Grupo 8389"><g id="Grupo_8388" data-name="Grupo 8388"><path id="Caminho_13686" data-name="Caminho 13686" d="M232,176.58c-.17,0-.26-.47-.16-1s.34-.89.52-.85.26.48.16,1S232.18,176.58,232,176.58Z" style="fill:#995037"/></g></g></g><g id="Grupo_8393" data-name="Grupo 8393"><g id="Grupo_8392" data-name="Grupo 8392"><g id="Grupo_8391" data-name="Grupo 8391"><path id="Caminho_13687" data-name="Caminho 13687" d="M240.53,174.75a.62.62,0,0,1-.57-.46.6.6,0,0,1,.16-.72c.16-.07.42.16.54.48S240.71,174.71,240.53,174.75Z" style="fill:#995037"/></g></g></g><g id="Grupo_8396" data-name="Grupo 8396"><g id="Grupo_8395" data-name="Grupo 8395"><g id="Grupo_8394" data-name="Grupo 8394"><path id="Caminho_13688" data-name="Caminho 13688" d="M236.23,180c-.19,0-.4-.42-.47-1s0-1,.27-1,.42.42.47.95S236.44,180,236.23,180Z" style="fill:#995037"/></g></g></g><g id="Grupo_8399" data-name="Grupo 8399"><g id="Grupo_8398" data-name="Grupo 8398"><g id="Grupo_8397" data-name="Grupo 8397"><path id="Caminho_13689" data-name="Caminho 13689" d="M225.39,179.12c-.18,0-.21-.56,0-1.1s.44-1,.65-.89.21.55,0,1.09S225.65,179.11,225.39,179.12Z" style="fill:#995037"/></g></g></g><g id="Grupo_8402" data-name="Grupo 8402"><g id="Grupo_8401" data-name="Grupo 8401"><g id="Grupo_8400" data-name="Grupo 8400"><path id="Caminho_13690" data-name="Caminho 13690" d="M187.47,175.52c-.17,0-.26-.47-.16-1s.34-.89.51-.85.27.47.16,1S187.67,175.52,187.47,175.52Z" style="fill:#995037"/></g></g></g><g id="Grupo_8405" data-name="Grupo 8405"><g id="Grupo_8404" data-name="Grupo 8404"><g id="Grupo_8403" data-name="Grupo 8403"><path id="Caminho_13691" data-name="Caminho 13691" d="M196,173.7a.63.63,0,0,1-.57-.46.62.62,0,0,1,.16-.73c.16-.07.42.16.54.49S196.2,173.65,196,173.7Z" style="fill:#995037"/></g></g></g><g id="Grupo_8408" data-name="Grupo 8408"><g id="Grupo_8407" data-name="Grupo 8407"><g id="Grupo_8406" data-name="Grupo 8406"><path id="Caminho_13692" data-name="Caminho 13692" d="M191.72,178.92c-.19,0-.4-.42-.48-1s0-1,.28-1,.42.42.47,1S191.93,178.89,191.72,178.92Z" style="fill:#995037"/></g></g></g><g id="Grupo_8411" data-name="Grupo 8411"><g id="Grupo_8410" data-name="Grupo 8410"><g id="Grupo_8409" data-name="Grupo 8409"><path id="Caminho_13693" data-name="Caminho 13693" d="M186.38,181.35c-.19,0-.22-.56,0-1.1s.43-1,.64-.89.22.56,0,1.1S186.63,181.35,186.38,181.35Z" style="fill:#995037"/></g></g></g><g id="Grupo_8414" data-name="Grupo 8414"><g id="Grupo_8413" data-name="Grupo 8413"><g id="Grupo_8412" data-name="Grupo 8412"><path id="Caminho_13694" data-name="Caminho 13694" d="M179.33,174.78c-.19,0-.21-.56,0-1.09s.44-1,.65-.9.21.56,0,1.1S179.59,174.78,179.33,174.78Z" style="fill:#995037"/></g></g></g></g><g id="Grupo_8416" data-name="Grupo 8416"><path id="Caminho_13695" data-name="Caminho 13695" d="M227.93,66.9a.92.92,0,0,1-.73-.32c-12.41-13.91-15-16.19-15.06-16.28a1,1,0,1,1,.94-1.76,1,1,0,0,1,.34.29c.1.09,2.64,2.33,15.24,16.45a1,1,0,0,1-.08,1.37.87.87,0,0,1-.65.25Z" style="fill:#59316d"/></g><g id="Grupo_8417" data-name="Grupo 8417"><path id="Caminho_13696" data-name="Caminho 13696" d="M154.89,97.33a.49.49,0,0,1-.49-.49h0a.46.46,0,0,1,.29-.45c.31-.13,30.93-13.11,66.44-6.06a.49.49,0,0,1,.37.59h0a.48.48,0,0,1-.56.37c-35.22-7-65.56,5.86-65.86,6A.41.41,0,0,1,154.89,97.33Z" style="fill:#59316d"/></g><g id="Grupo_8418" data-name="Grupo 8418"><path id="Caminho_13697" data-name="Caminho 13697" d="M253.52,109.44h0c-.11,0-2.67-.15-14.65-5.1a.48.48,0,0,1-.27-.63.5.5,0,0,1,.64-.27h0c11.66,4.81,14.21,5,14.32,5a.5.5,0,0,1,0,1Z" style="fill:#59316d"/></g><g id="Grupo_8419" data-name="Grupo 8419"><path id="Caminho_13698" data-name="Caminho 13698" d="M155.72,86.34h-.08A28.93,28.93,0,0,1,131.52,64.4a.49.49,0,0,1,.39-.57.51.51,0,0,1,.57.39A28,28,0,0,0,155.8,85.37a.47.47,0,0,1,.41.53v0a.47.47,0,0,1-.47.41Z" style="fill:#59316d"/></g><g id="Grupo_8420" data-name="Grupo 8420"><path id="Caminho_13699" data-name="Caminho 13699" d="M140.07,70.65a.48.48,0,0,1-.34-.14,15.58,15.58,0,0,1-3.52-6.5,56.56,56.56,0,0,1-2.51-12,.48.48,0,0,1,.43-.53h0a.49.49,0,0,1,.53.44,55.57,55.57,0,0,0,2.47,11.83,15,15,0,0,0,3.27,6.1.48.48,0,0,1,0,.68h0a.51.51,0,0,1-.35.15Z" style="fill:#59316d"/></g><g id="Grupo_8421" data-name="Grupo 8421"><path id="Caminho_13700" data-name="Caminho 13700" d="M154.46,107.76a.49.49,0,0,1-.49-.49h0a.52.52,0,0,1,.2-.4c.15-.11,15.08-10.51,44.39-8.87a.48.48,0,0,1,.46.5h0a.49.49,0,0,1-.52.46h0c-29-1.61-43.61,8.59-43.76,8.69A.48.48,0,0,1,154.46,107.76Z" style="fill:#59316d"/></g><g id="Grupo_8422" data-name="Grupo 8422"><path id="Caminho_13701" data-name="Caminho 13701" d="M244.87,101.77a.51.51,0,0,1-.29-.1c-7.18-5.5-46.45-9.43-66.7-6.67a.49.49,0,0,1-.57-.4h0a.5.5,0,0,1,.4-.56h0c20.41-2.78,60.11,1.25,67.42,6.85a.48.48,0,0,1,.1.67v0a.47.47,0,0,1-.38.19Z" style="fill:#59316d"/></g><g id="Grupo_8429" data-name="Grupo 8429"><path id="Caminho_13707" data-name="Caminho 13707" d="M264.43,313.64c-1.46-7.12-1.89-12.35-.68-18.69,3-15.78,21.78-21.53,30.26-19.92,17.2,3.26,21.74,14.34,23.43,21.24,1,5.2,3.66,16.35,4.63,21.55l13.74,73.71,6.87,36.86c2,10.55,5.66,21.58,5.66,32.35.83,10.63-6.34,18.83-17.28,22.54-7.62,2.59-17.63-.48-23.07-6.59-4.95-5.58-5.48-9.07-7-15.17-6.51-26-12.21-52.37-18.7-78.34-3.56-14.26-7.83-29.09-11.43-43.62C268.81,331.28,266.19,322.26,264.43,313.64Z" style="fill:#b88469"/></g><g id="Grupo_8430" data-name="Grupo 8430"><path id="Caminho_13708" data-name="Caminho 13708" d="M300.94,640.68a34.66,34.66,0,0,1,5.55-17.22c4.7-7,8.44-12,8.44-12s-4.09-41.6-9.56-75.35A271.79,271.79,0,0,1,302,500.77l-.32-38.35a46.13,46.13,0,0,1,.47-5.38c.87-8.57,10.86-18.17,23.72-17.69,10.14.38,21.5,7.74,22.46,20l.74,28.71c1.54,28.38-8.71,103.23-11.13,123.25a12.3,12.3,0,0,1,.78,3.74v.39s6.27,9.12,4.07,32.39c-2.86,30.06-18.92,42.81-28.66,41.26-7.68-1.22,4.5-18.45,4.85-34.37-.25-1.75-4.69-13.38-5-15.93l-5.91,19.94a4.49,4.49,0,0,1-4.86,1.75,4.21,4.21,0,0,1-3.21-4.25Z" style="fill:#b88469"/></g><g id="Grupo_8431" data-name="Grupo 8431"><path id="Caminho_13709" data-name="Caminho 13709" d="M315.81,690.18A11,11,0,0,1,314,690a3.74,3.74,0,0,1-2.74-1.7c-1.55-2.57,0-7.21,2.17-13.63,2-5.84,4.42-13.1,4.59-19.94-.15-.78-1.09-3.52-2-6.17-.74-2.17-1.5-4.39-2.07-6.21L309.05,659a.84.84,0,0,1-.13.27,5.48,5.48,0,0,1-5.91,2.16,5.2,5.2,0,0,1-3.94-5.26l.9-15.52a35.58,35.58,0,0,1,5.71-17.71c4-6,7.36-10.57,8.24-11.77-.42-4.23-4.39-43.27-9.51-74.92A271.93,271.93,0,0,1,301,500.79l-.33-38.36a29,29,0,0,1,.31-4.06l.17-1.43c.93-9.18,11.32-19.06,24.73-18.57,10.72.4,22.4,8.32,23.39,20.88L350,488c1.35,24.76-6.21,84.4-9.84,113.07-.52,4.08-1,7.51-1.27,10.08a13.09,13.09,0,0,1,.76,3.81v.13c1,1.64,6.12,11.22,4.07,32.79-1.61,17-7.8,30.81-17,37.93C323.14,688.67,319.31,690.18,315.81,690.18ZM314,637.79h.08a1,1,0,0,1,.88.85,86.63,86.63,0,0,0,2.9,9.32,66.5,66.5,0,0,1,2.09,6.6v.15c-.16,7.16-2.67,14.62-4.69,20.61-1.77,5.25-3.44,10.2-2.35,12a1.73,1.73,0,0,0,1.37.79c3.36.53,7.48-.86,11.29-3.82,8.76-6.79,14.68-20.12,16.24-36.57,2.14-22.54-3.84-31.66-3.9-31.75a1,1,0,0,1-.17-.5v-.39a11.23,11.23,0,0,0-.72-3.44.94.94,0,0,1-.06-.47c.32-2.59.76-6.11,1.29-10.32,3.63-28.61,11.18-88.14,9.84-112.75l-.74-28.74c-.9-11.43-11.65-18.67-21.52-19-12-.44-21.87,8.52-22.71,16.82-.05.46-.11,1-.17,1.48a28.06,28.06,0,0,0-.31,3.78L303,500.8A271.09,271.09,0,0,0,306.32,536c5.41,33.39,9.52,75,9.57,75.41a1,1,0,0,1-.19.68c0,.05-3.78,5.05-8.41,12a33.47,33.47,0,0,0-5.38,16.73h0L301,656.27a3.21,3.21,0,0,0,2.49,3.25,3.51,3.51,0,0,0,3.72-1.24l5.86-19.79A1,1,0,0,1,314,637.79Z" style="fill:#59316d"/></g><g id="Grupo_8432" data-name="Grupo 8432"><path id="Caminho_13710" data-name="Caminho 13710" d="M262,294.27c3.11-15.79,22.45-21.53,31.19-19.93,17.72,3.26,22.4,14.35,24.14,21.25,1,5.2,3.78,16.34,4.78,21.55l14.16,73.71q3.53,18.42,7.07,36.86c1.92,10,5.43,20.38,5.8,30.59v.35l.76,28.71c1.52,27.11,1.06,96.08,1.86,118.47-9.83,2.16-35.42,7.59-43-5.05-1.24-11.61-9.08-88.87-9.44-100.7L299,463.73c-.24-.91-.47-1.86-.74-2.89-6.7-26-10.45-52.37-17.14-78.34-3.68-14.26-8.08-29.09-11.79-43.62-2.11-8.29-4.8-17.31-6.62-25.93C261.23,305.83,260.78,300.61,262,294.27Z" style="fill:#fff"/></g><g id="Grupo_8435" data-name="Grupo 8435"><g id="Grupo_8433" data-name="Grupo 8433"><path id="Caminho_13711" data-name="Caminho 13711" d="M306.58,355.26c9.21-13.87,27.72-51.35,11.67-67.91-15.77-16.29-31-17.09-53.3-21.52-13.08-2.59-18.22-4.78-27.7-5.46,1,8.72-8.94,12.12-16.5,14.24-5.12,1.44-8.69,2.82-8.69,2.82-23.44-3.4-21.22-17-21.22-17-8.71.77-14,2.88-26.47,5.36-22.26,4.43-39.74,7.19-55.52,23.48-12.15,12.55.06,32,7.76,43.59,4.73,7.1,10.71,13.65,14.48,21.28,4.29,8.69,6.36,18.17,9.15,27.35,3.5,11.52-2.11,81.73-7.36,117.31-1.25,8.45-22.4,91-16.71,107.27,11.23,8,30.6,13.26,46,17.08,1.63.41-1.69,5,0,5.23,66,10.8,153.56-18.24,153.56-18.24,1.62-41.54-17.28-133-20.58-158.92C293.5,438.34,298.08,368.11,306.58,355.26Z" style="fill:#f7f7f7"/></g><g id="Grupo_8434" data-name="Grupo 8434"><path id="Caminho_13712" data-name="Caminho 13712" d="M267.89,294.27c3.12-15.79,22.45-21.53,31.19-19.93,17.73,3.26,22.41,14.34,24.15,21.25,1,5.2,3.78,16.34,4.77,21.54l14.16,73.72,7.08,36.85c1.91,10,5.42,20.39,5.8,30.6v.35l.76,28.71c1.51,27.11,1.06,96.08,1.85,118.47-9.82,2.16-35.42,7.58-43-5.05-1.25-11.61-9.09-88.87-9.45-100.7l-.32-36.35-.73-2.89c-6.71-26-10.46-52.37-17.15-78.34-3.67-14.26-8.07-29.09-11.78-43.62-2.12-8.29-4.81-17.31-6.63-25.93C267.09,305.83,266.64,300.61,267.89,294.27Z" style="fill:#f7f7f7"/></g></g><g id="Grupo_8436" data-name="Grupo 8436"><path id="Caminho_13713" data-name="Caminho 13713" d="M188.24,631.78a200.52,200.52,0,0,1-32.09-2.4,1.46,1.46,0,0,1-1.07-.71c-.5-.82-.12-1.94.29-3.13a10.72,10.72,0,0,0,.42-1.47c-17.59-4.37-35.3-9.49-46-17.16a1.05,1.05,0,0,1-.35-.48c-4.59-13.09,7.75-67.7,13.69-93.95,1.58-7,2.72-12,3-13.79,4.62-31.37,9.7-91.11,8.18-111.53l-.17.65c-3.34,13-6,26.25-8.56,39.1s-5.23,26.2-8.59,39.24l-.7,2.77L116,505.16c-.36,12-8.41,91.15-9.45,100.79a.94.94,0,0,1-.13.4c-8.09,13.4-34.24,7.66-44.09,5.5a1,1,0,0,1-.77-1c.33-9.15.45-26.49.57-44.84.19-27,.39-57.62,1.29-73.65l.8-29.1c.25-6.92,2-14,3.61-20.86.78-3.24,1.58-6.59,2.2-9.82L91.17,322c.5-2.62,1.46-6.78,2.39-10.8s1.89-8.17,2.38-10.75c2-8.11,6.25-13.9,12.86-17.75,13.5-10.7,28.71-13.7,46.31-17.19l3.22-.63c4.82-1,8.55-1.86,11.84-2.65a102.33,102.33,0,0,1,12.73-2.52l1.81-9.3a1,1,0,0,1,1.93.08c0,.3,1.17,7.64,15.52,9.88a4.59,4.59,0,0,1,3.89,4.37l.33,11.58c1.1-.4,3.78-1.36,7.35-2.39l.31-9.19a4.61,4.61,0,0,1,3.9-4.37c14.35-2.24,15.48-9.58,15.52-9.89a1,1,0,0,1,.94-.85h0a1,1,0,0,1,1,.78l1.88,9.65c3.4.53,6.55,1.3,10.17,2.17,3.29.79,7,1.69,11.84,2.65,2.92.58,5.72,1.1,8.41,1.59,11.34,2.1,21.13,3.91,30.26,8.68,10.18,3,16.84,9.36,19.81,18.88a29.08,29.08,0,0,1,1.71,7.36c.38,1.72.81,3.57,1.24,5.43.93,4,1.89,8.19,2.4,10.81l21.23,110.58c.62,3.22,1.43,6.58,2.21,9.82,1.64,6.85,3.35,13.94,3.61,20.92v.3L351,488c.9,16,1.11,46.62,1.29,73.62.13,18.36.24,35.7.57,44.85a1,1,0,0,1-.77,1c-8.65,1.9-30.82,6.76-41.1-2,0,1.69,0,3.29-.1,4.77a1,1,0,0,1-.66.88C309.44,611.35,247,631.78,188.24,631.78Zm-31.42-4.27c62,10,144-15.46,152.1-18,.06-2,.09-4.09.06-6.38a1,1,0,0,1,1-1,.93.93,0,0,1,.76.35c8.26,9.9,31.41,5.19,40.13,3.29-.31-9.37-.42-26.26-.54-44.1-.18-27-.39-57.56-1.29-73.54h0l-.79-29c-.25-6.85-1.94-13.83-3.56-20.59-.79-3.27-1.6-6.64-2.23-9.92L321.19,318c-.5-2.58-1.46-6.73-2.38-10.74-.44-1.88-.87-3.76-1.26-5.49v-.12a27.1,27.1,0,0,0-1.62-7c-2.82-9.08-8.9-14.85-18.6-17.68l-.18-.07c-8.89-4.67-18.58-6.46-29.79-8.54-2.7-.5-5.51-1-8.44-1.6-4.86-1-8.61-1.87-11.92-2.67-3.81-.92-7.1-1.71-10.68-2.24a1,1,0,0,1-.83-.87l-1.37-7c-1.8,2.86-6,6.78-15.85,8.32a2.66,2.66,0,0,0-2.26,2.51l-.33,9.89a1,1,0,0,1-.71.91c-4.89,1.38-8.36,2.72-8.4,2.73a.82.82,0,0,1-.49.06l-.46-.08-.31-.05a1,1,0,0,1-.83-.93l-.35-12.54a2.66,2.66,0,0,0-2.25-2.5C192,260.76,187.8,256.84,186,254l-1.33,6.8a1,1,0,0,1-.85.79,98.72,98.72,0,0,0-13.21,2.55c-3.3.8-7.05,1.71-11.91,2.67l-3.22.64C137.4,271,123.11,273.81,110,284.3l-.12.08c-6.16,3.57-10.08,9-12,16.51-.49,2.57-1.45,6.74-2.39,10.77s-1.88,8.15-2.37,10.73L71.85,433c-.63,3.27-1.44,6.65-2.22,9.91-1.63,6.76-3.31,13.75-3.56,20.53v.4l-.76,28.65c-.89,16-1.1,46.6-1.28,73.58-.12,17.84-.24,34.72-.55,44.09,9.24,2,33.81,7,41.1-4.6,1.51-14.1,9.07-89,9.41-100.4l.32-36.33a1,1,0,0,1,0-.24l.74-2.89c3.34-13,6-26.28,8.56-39.13s5.23-26.19,8.59-39.21q.69-2.69,1.42-5.42a1,1,0,0,1,1.89,0c3.21,13.47-2.41,82.48-7.51,117-.27,1.82-1.42,6.9-3,13.93-5.84,25.88-18,79.51-13.84,92.59,10.56,7.43,28.06,12.44,45.41,16.75a1.55,1.55,0,0,1,1,.75c.47.85.08,2-.32,3.17a10.81,10.81,0,0,0-.4,1.34ZM301,523.23a1,1,0,0,1-1-.82c-2.19-13.72-4.45-26.91-6.45-38.55-2.46-14.28-4.4-25.56-5.28-32.47-.57-4.48-.41-15.65.41-29.17a1,1,0,0,1,1.93-.13c2.58,12.9,5.23,26.2,8.58,39.19l.73,2.89a1,1,0,0,1,0,.24l.32,36.35c.09,2.9.65,10.11,1.67,21.41a1,1,0,0,1-.86,1.06Zm-10.75-72.09c.87,6.87,2.81,18.14,5.26,32.39.9,5.27,1.86,10.86,2.85,16.67L298,464.54l-.7-2.77c-2.71-10.52-5-21.21-7.08-31.71-.44,9.83-.46,17.59,0,21.08Z" style="fill:#59316d"/></g><g id="Grupo_8448" data-name="Grupo 8448"><g id="Grupo_8443" data-name="Grupo 8443"><path id="Caminho_13719" data-name="Caminho 13719" d="M213.65,202.26a3.38,3.38,0,0,0-.75-3c-1.67-1.85-3.94-2-6.28-1.74a25.26,25.26,0,0,1-7,.19,22.22,22.22,0,0,1-4.44-1.8c.12.09.12.81.14,1a8,8,0,0,0,.14,1.07l.21,1.87c.11,1.06.2,2.11.31,3.17a30.64,30.64,0,0,0,1.16,5.93,15.62,15.62,0,0,0,2.33,5.2,8.28,8.28,0,0,0,5.17,2.87c5.47.84,7-6.31,7.83-8.87C212.85,207.05,213.65,202.27,213.65,202.26Z" style="fill:#aa6550"/></g><g id="Grupo_8444" data-name="Grupo 8444"><path id="Caminho_13720" data-name="Caminho 13720" d="M213.09,202.07c.26,1.53-13.74-.19-17.89-6.13a3.08,3.08,0,0,1,.16,1c.06.37.11.74.16,1.11.09.66.17,1.32.25,2,.15,1.36.2,2.74.44,4.1.55,3.13,1.12,4.89,3.57,7.11a9.17,9.17,0,0,0,9.52,1.29,6,6,0,0,0,2.3-3.32,35.23,35.23,0,0,0,1.37-6Z" style="fill:#59316d"/></g><g id="Grupo_8445" data-name="Grupo 8445"><path id="Caminho_13721" data-name="Caminho 13721" d="M213.09,202.07c.26,1.53-13.74-.19-17.89-6.13.45,2.65.18,1.95.49,3.85,1.19,7.09,15.89,10.16,16.66,6.58C212.84,204.08,213.09,202.07,213.09,202.07Z" style="fill:#fff"/></g><g id="Grupo_8447" data-name="Grupo 8447"><path id="Caminho_13723" data-name="Caminho 13723" d="M206.2,213.71a10.89,10.89,0,0,1-7.43-3.19c-2.05-2.44-3.23-7.23-3.6-14.63a.49.49,0,0,1,.47-.51.5.5,0,0,1,.42.21c3.89,5.57,13.7,6.55,16.95,6a.5.5,0,0,1,.56.4.49.49,0,0,1,0,.17l-.52,3.07c-.35,2.06-.74,4.38-2.18,6.23a5.84,5.84,0,0,1-4.39,2.25Zm-10-16.36c.43,6.32,1.51,10.43,3.28,12.55a10,10,0,0,0,6.93,2.84,4.85,4.85,0,0,0,3.66-1.89c1.28-1.64,1.65-3.84,2-5.78l.41-2.44c-3.21.26-11.72-.41-16.27-5.28Z" style="fill:#59316d"/></g></g><g id="Grupo_8449" data-name="Grupo 8449"><path id="Caminho_13724" data-name="Caminho 13724" d="M329.14,610.55c-8.71,0-17.17-1.93-21.18-8.58a.84.84,0,0,1-.14-.4c-1-9.64-9.08-88.76-9.45-100.77l-.32-36.26-.7-2.77C292,441,286.71,402.29,282.85,374c-1-7.08-1.88-13.76-2.65-19.15a1,1,0,0,1,1.08-.91,1,1,0,0,1,.85.64h0c.78,5.39,1.69,12.08,2.66,19.15,3.85,28.21,9.12,66.83,14.45,87.51l.73,2.89a1,1,0,0,1,0,.24l.32,36.35c.35,11.4,7.91,86.29,9.42,100.38,7.29,11.61,31.86,6.61,41.09,4.6-.3-9.37-.42-26.25-.54-44.09-.18-27-.39-57.57-1.28-73.55l-.8-29c-.25-6.84-1.93-13.83-3.56-20.59-.79-3.26-1.6-6.64-2.23-9.91L321.19,318c-.5-2.59-1.45-6.73-2.38-10.74s-1.89-8.19-2.4-10.81c-2.46-9.76-8.41-16-18.17-19.18a1,1,0,0,1,.6-1.86c10.45,3.35,16.82,10.1,19.48,20.62.51,2.63,1.47,6.78,2.39,10.79s1.89,8.19,2.4,10.81L344.34,428.2c.62,3.23,1.43,6.58,2.21,9.82,1.65,6.85,3.35,13.94,3.61,20.92v.31L351,488c.89,16,1.1,46.61,1.28,73.61.13,18.36.25,35.7.57,44.86a1,1,0,0,1-.77,1C347.08,608.56,338,610.55,329.14,610.55Z" style="fill:#59316d"/></g><g id="Grupo_8461" data-name="Grupo 8461"><g id="Grupo_8450" data-name="Grupo 8450"><path id="Caminho_13725" data-name="Caminho 13725" d="M156.31,624.17h-.14a1,1,0,0,1-.83-1.11c14.39-98.41,6.52-312.46,5.58-336.54a4.7,4.7,0,0,1,4.52-4.87h.1c31.64-.54,48.79-7.84,49-7.91a1,1,0,0,1,.78,1.79c-.18.07-17.63,7.52-49.7,8.07a2.75,2.75,0,0,0-2.74,2.87c.94,24.1,8.81,238.32-5.6,336.9A1,1,0,0,1,156.31,624.17Z" style="fill:#59316d"/></g><g id="Grupo_8460" data-name="Grupo 8460"><g id="Grupo_8451" data-name="Grupo 8451"><circle id="Elipse_600" data-name="Elipse 600" cx="180.38" cy="303.28" r="4.53" style="fill:#59316d"/></g><g id="Grupo_8452" data-name="Grupo 8452"><circle id="Elipse_601" data-name="Elipse 601" cx="180.38" cy="339.93" r="4.53" style="fill:#59316d"/></g><g id="Grupo_8453" data-name="Grupo 8453"><circle id="Elipse_602" data-name="Elipse 602" cx="180.38" cy="376.57" r="4.53" style="fill:#59316d"/></g><g id="Grupo_8454" data-name="Grupo 8454"><circle id="Elipse_603" data-name="Elipse 603" cx="180.38" cy="413.22" r="4.53" style="fill:#59316d"/></g><g id="Grupo_8455" data-name="Grupo 8455"><circle id="Elipse_604" data-name="Elipse 604" cx="180.38" cy="449.87" r="4.53" style="fill:#59316d"/></g><g id="Grupo_8456" data-name="Grupo 8456"><circle id="Elipse_605" data-name="Elipse 605" cx="178.63" cy="486.52" r="4.53" style="fill:#59316d"/></g><g id="Grupo_8457" data-name="Grupo 8457"><circle id="Elipse_606" data-name="Elipse 606" cx="178.63" cy="523.16" r="4.53" style="fill:#59316d"/></g><g id="Grupo_8458" data-name="Grupo 8458"><circle id="Elipse_607" data-name="Elipse 607" cx="180.38" cy="559.81" r="4.53" style="fill:#59316d"/></g></g></g></g></g></svg>