<svg id="ariel" xmlns="http://www.w3.org/2000/svg" viewBox="0 0 450 450"><defs><style>.cls-1{fill:#f9afa1;}.cls-2{fill:#fff;}.cls-3{fill:#f7f7f7;}.cls-4{fill:#9c6151;}.cls-5{fill:#263238;}.cls-6{fill:#455a64;}.cls-7{fill:#754739;}.cls-8{fill:#59316d;}.cls-9{fill:#995037;}.cls-10{fill:#723628;}</style></defs><circle class="cls-1" cx="225" cy="225" r="189.9"/><path class="cls-2" d="M276.9,319.8a56.61,56.61,0,0,0-12.6-5.5c-5-1.77-31.52-8.22-40-9.7-11-1.21-43.9-3.73-53.8-4.2-13,.2-25.5,1.4-36.3,3.9-3.5,1.11-2.95,3.2-2.95,3.2l25.36,94.55s3.88,1.61,6.19,2.45,4.7,1.6,7.1,2.3a194.89,194.89,0,0,0,55.1,8.1c24.12,0,51.9-5.4,68.36-12.71,7.11-3.16,13.24-5.59,16.54-7.29C305.8,364.3,296.7,332.2,276.9,319.8Z"/><path class="cls-3" d="M309.9,394.9c-4.1-30.6-13.2-62.7-33-75.1a56.61,56.61,0,0,0-12.6-5.5,143,143,0,0,0-16.66-4.46l-.14,0c-.46-.11-.93-.19-1.4-.29l-1.75-.38h0c-1.6-.32-3.23-.63-4.9-.93h-.1c-4.8-.9-9.8-1.7-15-2.3-10.29-1.15-46.29-2.63-53.3-2a154.32,154.32,0,0,0-24.8,3.5c.7.3,3.73,2.12,4.2,2.4a36.21,36.21,0,0,1,16.8,26.1,21.76,21.76,0,0,1,.1,5.7c-.1,1.2-.2,2.4-.2,3.6v2.9c3.3,4.6,5.4,9,5.5,12.5.1,6.6-.9,25.1-2.7,46.2a190.75,190.75,0,0,0,123.46-4.61l.42-.15.54-.22.58-.22h0l3-1.2v0l1.9-.78C303.2,398.1,306.6,396.6,309.9,394.9Z"/><path class="cls-4" d="M160.1,403.5c2.2-19.8,4.2-39.8,4.2-58.4v-.6s0-2.24.1-3.3a12,12,0,0,0,.1-5c-1.7-11.4-8-20.4-17.7-25.5-.19-.1-3.33-1.6-5.1-2.2-7.37-2.49-13.85-1.87-20-.27a30,30,0,0,0-3.06,1h0c-.4.1-.7.3-1.1.4-.7.3-1.3.6-2,.9-12.6,6.3-19.8,19.4-19.8,35.9L95,363.5a190.05,190.05,0,0,0,21.5,17.4C128.37,390.34,145.06,397.67,160.1,403.5Z"/><path class="cls-4" d="M283.16,157.57a17.18,17.18,0,0,0-7.43-4.83,25.13,25.13,0,0,0-9.12-.57c-4.6.5-8.94,1.28-12.64-1.82-2-1.6-3-3.61-4.13-5.91-1.2-2.5-2.78-5.11-4.78-6.31-2.9-1.7-6.34-.92-10,.08-1.1.3-2.41.46-3.51.66A24.16,24.16,0,0,1,213.8,135c.1,4-1.57,12.72-1.57,12.72a50.7,50.7,0,0,1-3.75,11.39,146.56,146.56,0,0,1-11.93,12.59,19.32,19.32,0,0,1,1,6.3c.3,6.2-.45,11.32-2.45,15.62a11,11,0,0,1-4.17,5.33,6.42,6.42,0,0,1-3.59.91,6.73,6.73,0,0,1-4.58-1.73c-1.4-1.3-5.43-5.39-6.53-6.69a14.27,14.27,0,0,0-9.33,6.69.1.1,0,0,1-.1.1,13,13,0,0,0,.3,12.7,18.89,18.89,0,0,0,13.71,9.17h.3a.9.9,0,0,1,.9.9,307.83,307.83,0,0,1-10.63,79.41s-.06,2.41,3,5.9c5.84,5.29,18.39,6.87,34.41,5.63h0c.2,0,10.32-1.09,13.81-2.13.1-1.2.3-7.21.3-7.49.1-2.1.1-4.3.1-6.6.1-10.4.11-20.92,2.91-27.32.1-.3.69-.68.8-.6s3.18,1.52,4.68,2.22c6.9,3.2,14.14,6.61,22.54,6.41,2.26,0,9.12-1.38,11.89-3.88a43.91,43.91,0,0,0,13.73-24.49s.73-3.22.93-4.82c.2-2.4.4-4.7.6-7.1.4-7.3.9-14.8,1.4-22,.6-9.8,1-19.83,1.42-29.73.1-3,.38-5.91.38-8.91v-3.11A101.14,101.14,0,0,0,283.16,157.57Z"/><path class="cls-5" d="M331.39,150.4c-1.4-4.4-4.5-8.58-7.7-11.78-1.3-1.3-8-7.28-9.91-7.48a1,1,0,0,1-1.2.1,1,1,0,0,1-.3-1.4c4.5-7,1-17.82-5.4-24.72a35.6,35.6,0,0,0-24.79-9.82,101.61,101.61,0,0,0-26.76,4.19c-.4.1-1.05.05-1.25-.35-8.8-13-27.36-16.4-40.36-7.6-4.8,3.2-9.28,9.78-11.48,16a.88.88,0,0,1-1.13.64,26.34,26.34,0,0,0-7.89-1,22.28,22.28,0,0,0-16.76,11.07,15.91,15.91,0,0,0-2.48,6.58c-.1.4-.36.75-.76.75a31.85,31.85,0,0,0-26.86,18.14,37.34,37.34,0,0,0,1.55,34.39,63.62,63.62,0,0,1,3.87,8.38,1.13,1.13,0,0,1-.3,1.1,48.34,48.34,0,0,0-7.06,7.24,14.22,14.22,0,0,0-2.59,11.35c1.8,7.4,10.54,12.26,10.54,12.36a1,1,0,0,1,.5,1.1,9.09,9.09,0,0,0,1.28,7.08c2.5,3.7,8.29,4.92,12.49,5.72,3.9.7,5.48,5.88,7.18,11,1,3,3.07,7.12,4.37,8.32l3.28-30.75c-6.1-.9-12.52-4.8-15.12-9.6a14.19,14.19,0,0,1-.23-14.23s5.08-5.68,8.87-6.58c.3-.07.6-.15.92-.21.48-.14,1.2.4,1.4.7.7.8,4.44,5.14,5.74,6.44,2,1.5,5.66,2.07,8,.87a11.38,11.38,0,0,0,4-4.95c1.8-4,2.57-9.35,2.27-15.15a16.87,16.87,0,0,0-1-5.88,1.13,1.13,0,0,1,.3-1.1,76,76,0,0,0,11.56-12.47,52.59,52.59,0,0,0,4.08-12.14,103.58,103.58,0,0,0,.54-11.45v-.6c0-.77.3-.73,1.23-.48.5.4.32.09,1.19.75a20.28,20.28,0,0,0,15.62,3.53c1-.2,2-.49,3.06-.79,4-1.1,8.37-2.1,12,0,2.5,1.5,3.38,3.31,4.58,6,1.1,2.2,2.1,4.3,3.7,5.7,3,2.5,7.28,2.34,11.68,1.84,3.2-.3,6.6-.7,9.7.2a13.3,13.3,0,0,1,5.68,2.88,15.38,15.38,0,0,1,1.3,1.2c.5.56,1.19,1.16,1.2,1.2.1.2.4,2,.4,2s.2,1.1.2,1.1c1,7.8.42,15.77.12,24.07-.4,10-1,20.12-1.64,29.92,0,.3-.13,1.12-.2,1.7-.4,6.7-1,13.57-1.34,20.27-.1,2.4-.3,4.8-.6,7.1-.1,1-.13,3-.33,4,20.63-3.37,32.26-23.69,26.5-43-.65-2.17-.42-3-1.32-5a1.39,1.39,0,0,1,0-.9.75.75,0,0,1,.7-.5,34.91,34.91,0,0,0,22.64-15.11C334,173.92,335,162.4,331.39,150.4Z"/><path class="cls-6" d="M307.5,161.1a25.09,25.09,0,0,0-4.7-11.9,27.29,27.29,0,0,0-19-10.69,44.31,44.31,0,0,0-6.18.09c-.38,0-3.3.6-3.8.7l-1.5.5a10.87,10.87,0,0,0-1.5-6.1,20.3,20.3,0,0,0-1.3-1.9,18.27,18.27,0,0,0-3.5-3.3,15.5,15.5,0,0,0-1.67-.93,12.2,12.2,0,0,0-4.63-1.67,27.71,27.71,0,0,0-6.5-.5,111.43,111.43,0,0,0-11.6,1.5,60.89,60.89,0,0,1-8.8.8h-1.2a20.61,20.61,0,0,1-13.2-4.8,11.13,11.13,0,0,1-2.9-4.1c-.06.63,1.36,3.37,2.5,4.5a20.69,20.69,0,0,0,13.6,5.5c15.33-.83,2.7-.19,21.7-2a18.67,18.67,0,0,1,11.9,3.2,13.5,13.5,0,0,1,4.6,4.6,9.36,9.36,0,0,1,1.2,6.3l-.2,1.2,1.2-.4c.8-.3,1.6-.6,2.5-.9a37.18,37.18,0,0,1,4-.8A26.41,26.41,0,0,1,302,150.1a23.49,23.49,0,0,1,4.6,11.2,27,27,0,0,1-.9,10.6,27.76,27.76,0,0,1-8.3,13,24.94,24.94,0,0,1-4.7,3.3,24.38,24.38,0,0,0,4.7-2.8A27.92,27.92,0,0,0,307.5,161.1Z"/><path class="cls-6" d="M302.6,124.3a13.29,13.29,0,0,0-4.1-2.5,17.05,17.05,0,0,0-7.4-1,14.94,14.94,0,0,0-8,3.29.1.1,0,0,1-.07,0A22.16,22.16,0,0,0,258,107.4a44,44,0,0,0-8.6,2.4,92.93,92.93,0,0,1-9.9,3.3c-1.4.4-2.7.8-4.1,1.1a22,22,0,0,1-9.9-.2,34.23,34.23,0,0,1-3.4-1.3c0,.1.2.2.8.6a11.51,11.51,0,0,0,2.5,1.2,21.61,21.61,0,0,0,10.1.7,52,52,0,0,0,6.56-1.63l.24,0a60.25,60.25,0,0,0,7.5-2.6,28.15,28.15,0,0,1,17.4-1.7,21.63,21.63,0,0,1,14.8,16l.2,1.2.9-.9a13.64,13.64,0,0,1,8.1-3.8,16.56,16.56,0,0,1,7,.6,22.9,22.9,0,0,1,5.5,3.1A4.26,4.26,0,0,0,302.6,124.3Z"/><path class="cls-7" d="M198,242.4c7.8,18.5,9.2,38.1,10.2,57.9h0c0,.36.09.73.09,1v1h0c0,.59.1,1.32.1,1.9v.1h0c.1,2.47.2,4.93.4,7.4a67.84,67.84,0,0,0,13.3-2.3c.1-1.2.2-2.5.2-3.8v-.7a1.86,1.86,0,0,0,.1-.7h0v-1.9c.1-2.1.1-4.3.1-6.6.1-10.4.3-21.1,3.1-27.5a1.06,1.06,0,0,1,.7-.6C220.7,263.6,212.9,256.6,198,242.4Z"/><path class="cls-7" d="M185.2,210.3a10.23,10.23,0,0,0-3.5-9.8c-2.4-2-7.2-3.6-9.8-1.1a1.43,1.43,0,0,0-.2,2,1,1,0,0,0,.5.4c1.6.5,3.2.4,4.8,1.1a5.87,5.87,0,0,1,2.9,3.3c.7,1.9-.4,7.2,3.1,6.3A2.77,2.77,0,0,0,185.2,210.3Z"/><path class="cls-7" d="M268.3,215.6c-1.5-2.6-4.4-4.9-7.3-7.1a3.21,3.21,0,0,0-1.8-.4,6.1,6.1,0,0,0-2.8.7,3,3,0,0,0-1.4,2.6,11.61,11.61,0,0,0,2.7,8c-2.4.2-3.8,1.8-3,3.2s3.4,2.3,5.8,2.4h.5a10.27,10.27,0,0,0,5.9-1.8C269.7,221.2,269.8,218.2,268.3,215.6Z"/><path class="cls-8" d="M271.5,218c-.6-4.2-5.6-7.8-11-10.6-.7-.3-1.8.1-1.3.6,0,0,6.4,5.4,7.5,8.5a4.13,4.13,0,0,1-.7,4.5c-1.2,1.3-3.3,1.8-5.1,2.8-1.2.6-1.3,1.1.1,1.2h.4C267.7,225,271.8,221.1,271.5,218Z"/><path class="cls-9" d="M238.6,206.7c-.2,0-.3.4-.2.9s.3.9.5.9.3-.5.2-1S238.8,206.6,238.6,206.7Z"/><path class="cls-9" d="M230.5,206.2a.68.68,0,0,0,.6-.4.62.62,0,0,0-.1-.7c-.1-.1-.4.1-.6.4A.47.47,0,0,0,230.5,206.2Z"/><path class="cls-9" d="M234.4,211.6c.2,0,.4-.4.5-.9s.1-1-.2-1-.4.4-.5.9S234.2,211.6,234.4,211.6Z"/><path class="cls-9" d="M244.7,209.5c-.2.1-.2.5-.1,1.1s.3.9.6.9.2-.5.1-1.1S244.9,209.4,244.7,209.5Z"/><path class="cls-9" d="M274.4,207.3c-.1.3-.1.6.1.7a.68.68,0,0,0,.6-.4.62.62,0,0,0-.1-.7C274.8,206.8,274.6,207,274.4,207.3Z"/><path class="cls-9" d="M278.8,211.5c-.3,0-.4.4-.5.9s0,1,.2,1,.4-.4.5-.9S279,211.5,278.8,211.5Z"/><path class="cls-8" d="M244.9,170.5a11.21,11.21,0,0,0-15.1,0,1.35,1.35,0,0,0,1.8,2,8.58,8.58,0,0,1,11.5.1,1.4,1.4,0,0,0,.9.3v-.1a1.23,1.23,0,0,0,1-.5A1.27,1.27,0,0,0,244.9,170.5Z"/><path class="cls-8" d="M284.7,173.2l-1-.9a11.13,11.13,0,0,0-13.9-.4,1.35,1.35,0,1,0,1.7,2.1,8.46,8.46,0,0,1,11.3,1.1,1.8,1.8,0,0,0,.9.4,1.59,1.59,0,0,0,1-.41A1.38,1.38,0,0,0,284.7,173.2Z"/><circle class="cls-8" cx="238" cy="190.2" r="4.1"/><circle class="cls-8" cx="274.6" cy="190.4" r="4.1"/><path class="cls-10" d="M254.4,249.3c-.6-1.4-2.6-2.7-5.9-4.2-3.7-1.6-6.1-2.1-7.4-1a7.44,7.44,0,0,0-1,2.1c-.4,2.3.9,5.7,4.8,7.4,4.6,2,8.5-.2,9.5-2.5A2.48,2.48,0,0,0,254.4,249.3Z"/><path class="cls-8" d="M257.4,249c-.2-.3-1.28,0-2.86.29a15,15,0,0,1-7.64-.69,13,13,0,0,1-5.7-4.5h0c-1-1.2-1.5-2.2-1.8-2.1s-.5,1.4.3,3.4a3,3,0,0,0,.4.8h0a11.38,11.38,0,0,0,5.6,4.8,13.18,13.18,0,0,0,8.7.09h0l0,0h0C256.52,250.29,257.8,249.59,257.4,249Z"/><path class="cls-8" d="M332.1,150.7a31.38,31.38,0,0,0-7.6-12.6c-.1-.1-7.7-6.7-11.6-8.1,3.9-7.6,2.1-18.2-4.5-25.4a36.69,36.69,0,0,0-25.5-10.3h-.5a107.64,107.64,0,0,0-27,4.1,30.61,30.61,0,0,0-42-7.5c-4.9,3.3-9.8,9.8-12.2,16.1h0a28.77,28.77,0,0,0-7.8-1,23.52,23.52,0,0,0-20.6,18.2,33.35,33.35,0,0,0-27.6,19,38.45,38.45,0,0,0,1.7,35.8,75.88,75.88,0,0,1,3.5,7.7,58.72,58.72,0,0,0-6.9,7.2c-2.9,4.2-3.9,8.4-2.9,12.6,1.7,7.2,8.7,11.8,10.9,13.1a10.85,10.85,0,0,0,1.5,7.9c3,4.4,9.2,5.5,13.8,6.3,2.8.5,4.4,5.5,5.8,9.9,1.5,4.7,3,9.2,6.1,9.3h.7a384.18,384.18,0,0,1-8.49,45.28c-16.75.44-34.21,2.84-45.57,6.34a36.39,36.39,0,0,0-11,3.48c-13.6,6.8-21.3,20.8-21.2,38.3L92.4,361c.9.8,1.7,1.7,2.6,2.5l.7-17.1c-.1-16.5,7.1-29.6,19.8-35.9.7-.3,2-.9,2-.9a9.93,9.93,0,0,1,1.1-.5,29.71,29.71,0,0,1,3.52-1.1,36.51,36.51,0,0,1,19.53.58s3,1.12,4.55,1.92l.6.3c9.7,5.1,16,14.1,17.7,25.5a20.91,20.91,0,0,1,0,5c-.1,1.1-.2,2.2-.2,3.3l.1.5c0,18.6-2,38.7-4.2,58.4l2.7.9c2-18.9,4-38.2,4.2-56.3L167,348c.08-1,.09-1.94.09-2.78,0-1.2.1-2.4.2-3.6a18.17,18.17,0,0,0-.1-5.7,36.7,36.7,0,0,0-16.71-26.2h0l-.14-.09,0,0h0c-.72-.45-1.39-.83-2.22-1.29-.59-.29-1.92-.89-1.9-.9a39.6,39.6,0,0,0-11.93-3.12c10.24-2.36,23.79-3.55,36.23-3.84a8.22,8.22,0,0,0,.36,3.32h0l0,.08a.07.07,0,0,0,0,0h0a11.35,11.35,0,0,0,1.4,2.7c1.66,2.28,8.3,7.51,27.3,7.5,9.1,0,18.2-1.3,23.7-3a1,1,0,0,0,.7-.9c.1-1.37.2-2.74.29-4.3h0v-.7a4.38,4.38,0,0,0,.1-.6c8.44,1.49,16.28,3.27,22.94,5.16,7.18,2.09,13.07,4.45,16.86,6.84,21.4,13.3,30.09,50.85,33.59,83.85.27-.09,1.62-.64,2.11-.85-.1-1-.2-2-.3-3.1-5-43.1-16.5-70.6-34.2-81.6-.3-.2-1.17-.65-1.25-.68-7.91-4.46-22.4-8.72-39.65-11.6.1-2.18.1-4.45.1-6.82.1-9.7.3-19.6,2.6-25.8,1.2.5,2.4,1.1,3.7,1.7,7.1,3.3,14.4,6.6,23.2,6.4a21.22,21.22,0,0,0,12.8-4.3c7.2-5.8,11.9-14,14.1-25,0,0,.05-.11.05-.24A37.25,37.25,0,0,0,308.4,204a35,35,0,0,0-1.7-5.5c7.1-1.5,16.9-6.3,22.7-15.5C334.9,174.2,335.9,163.4,332.1,150.7Zm-51.8,85.4q-.15,3.6-.6,6.9c-.2,1.7-.5,3.3-.8,4.8v.2c-2.1,10.6-6.5,18.5-13.3,24a19,19,0,0,1-11.5,3.9H254c-8.4.3-15.4-3-22.3-6.2-1.6-.7-3.1-1.4-4.6-2.1a1.08,1.08,0,0,0-1.4.6c-2.8,6.5-3,17.2-3.1,27.5,0,2.3-.1,4.5-.1,6.6,0,.3-.1,2.43-.1,2.6s-.1,3.4-.2,4.5a66.53,66.53,0,0,1-13.3,2.3h-.1c-13.1,1.2-28.3-.2-34-5.5l-.1-.1a8.86,8.86,0,0,1-1.84-2.49c-.44-1-.12-4.42.13-5.34.56-2,12.44-59.14,10.11-77.87a.9.9,0,0,0-.9-.9h-.08a1.5,1.5,0,0,0-.32-.1c-5.9-.6-11.3-3.9-13.8-8.5a13.25,13.25,0,0,1-.3-12.8.1.1,0,0,1,.1-.1,12.31,12.31,0,0,1,8.25-5.89.15.15,0,0,0,.15.09h.19s4.68,5.27,6,6.6a8.22,8.22,0,0,0,5.2,1.8,9.4,9.4,0,0,0,4.2-1.1,11.07,11.07,0,0,0,4.4-5.4c2-4.3,2.8-9.6,2.5-15.8a21.85,21.85,0,0,0-1-6.3,71.79,71.79,0,0,0,11.4-12.6l.1-.1a52.08,52.08,0,0,0,4-11.4h0v0s0-.05,0-.07h0a60.91,60.91,0,0,0,1-12,21.62,21.62,0,0,0,17.2,3.8c1.1-.2,2.2-.5,3.3-.8,3.7-1,7.3-2,10.2-.3,2,1.2,3.1,3.5,4.3,6,1.1,2.3,2.3,4.7,4.2,6.3,3.6,3,8.4,2.6,13,2.1,3.1-.3,6.2-.6,8.9.1,2.95.79,5.52,3,7.22,4.82a98.93,98.93,0,0,1,1.18,14.38c0,.75,0,1.9-.1,3.2,0,2.9-.1,5.9-.2,8.9-.4,10-1.1,20.1-1.7,29.8C281.2,221.3,280.7,228.8,280.3,236.1Zm47.4-54.3c-5.8,9.2-15.8,13.7-22.6,14.8-.9.18-.84,1-.7,1.4a33.29,33.29,0,0,1,2.1,6.3,35.46,35.46,0,0,1-25.2,42c.15-1,.34-2.29.4-2.91.3-2.2.5-4.6.6-7.1.4-6.7.8-13.6,1.2-20.2,0-.21.06-1.21.1-1.7.82-9.8,1.25-19.91,1.89-29.89.53-8.22-.46-26.8-.84-27.4-.28-.36-1.44-1.57-1.45-1.61-.36-.36-.74-.73-1.17-1.09h0a13.42,13.42,0,0,0-6.12-3.3c-3.1-.9-6.4-.5-9.7-.2-4.4.5-8.5.9-11.5-1.6-1.6-1.4-2.6-3.4-3.7-5.7-1.3-2.7-2.6-5.4-5.1-6.9-3.6-2.1-7.8-1-11.7.1-1.1.3-2.2.58-3.2.8-8.49,1.86-13.83-1.58-17.3-4.4a1,1,0,0,0-1.6.8v.6a46.8,46.8,0,0,1-.9,12.2h0a48,48,0,0,1-3.9,11.6A66,66,0,0,1,195.7,171a1.13,1.13,0,0,0-.3,1.1,19.56,19.56,0,0,1,1.1,6.4,32.52,32.52,0,0,1-2.3,14.9,9.43,9.43,0,0,1-3.6,4.5,6.56,6.56,0,0,1-7-.5c-1.3-1.3-5.3-5.8-6-6.6a1.34,1.34,0,0,0-1.5-.6,14.32,14.32,0,0,0-10,6.9v.1a15.27,15.27,0,0,0,.2,14.8c2.7,4.9,8.09,8.4,14.29,9.4l-2.69,29.4c-1.3-1.2-2.4-4.5-3.4-7.5-1.7-5.2-3.4-10.5-7.4-11.2-4.2-.8-9.9-1.8-12.5-5.5-1.3-1.9-1.6-4.2-1.1-7.1a1,1,0,0,0-.5-1.1c-.1,0-8.8-4.7-10.5-12.2-.9-3.6,0-7.3,2.6-10.9a49.72,49.72,0,0,1,7.1-7.4,1.13,1.13,0,0,0,.3-1.1,67.9,67.9,0,0,0-3.9-8.7,36.55,36.55,0,0,1-1.6-34,31.22,31.22,0,0,1,26.6-17.9,1,1,0,0,0,.9-.8,26.36,26.36,0,0,1,2.5-6.6A21.52,21.52,0,0,1,193.5,108a50.11,50.11,0,0,1,7.9,1.1,1.51,1.51,0,0,0,1.14-.34.9.9,0,0,0,.16-.36c2.2-6.2,7-12.7,11.8-15.9a28.57,28.57,0,0,1,39.6,7.6,1,1,0,0,0,1.1.4,104.24,104.24,0,0,1,27.2-4.2,34.37,34.37,0,0,1,24.5,9.7c6.4,6.9,7.9,17.4,3.4,24.4a1,1,0,0,0,.3,1.4,1.06,1.06,0,0,0,1.2-.1c1.9.2,10,6.5,11.3,7.8a29.53,29.53,0,0,1,7.1,11.7C333.7,163.3,332.9,173.6,327.7,181.8Z"/></svg>