<svg xmlns="http://www.w3.org/2000/svg" xmlns:xlink="http://www.w3.org/1999/xlink" width="258" height="450" viewBox="0 0 258 450">
  <defs>
    <clipPath id="clip-path">
      <rect id="Rectangle_657" data-name="Rectangle 657" width="258" height="450" transform="translate(1662)" fill="#fff" stroke="#707070" stroke-width="1"/>
    </clipPath>
  </defs>
  <g id="Mask_Group_27" data-name="Mask Group 27" transform="translate(-1662)" clip-path="url(#clip-path)">
    <g id="Group_14C" data-name="Group 14C">
      <path id="Path_5525" data-name="Path 5525" d="M700.968,677.411c17.072,9.258,32.072,23.235,43.679,40.788,38.038,57.528,32.178,88.154,28.85,98.9-20.041,64.71-152.839,69.053-245.916,28.473-14.571-6.353-109.77-47.859-106.291-101.153,2.074-31.775,39.032-64.757,69.813-61.441,34.078,3.669,51.423,50.842,66.667,42.709,13.836-7.381,1.165-47.1,23.9-71.182,12.8-13.559,29.791-14.7,33.963-14.987,15.4-1.037,26.69,5.423,38.365,11.989C666.245,658.394,681.4,666.8,700.968,677.411Z" transform="matrix(0.719, 0.695, -0.695, 0.719, 1918.401, -862.963)" fill="#f9afa1"/>
      <path id="Path_5526" data-name="Path 5526" d="M974.139,595.722c-7.245-14.427-24.2-10.612-171.878-16.341-61.257-2.376-80.005-3.873-96.833,10.894-30.177,26.48-33.1,86.763-7.263,121.646,37.669,50.856,127.143,35.123,176.114,12.1C936.945,694.57,989.681,626.674,974.139,595.722Z" transform="matrix(-0.309, 0.951, -0.951, -0.309, 2742.267, -314.656)" fill="#d6e3f4"/>
      <path id="Path_5527" data-name="Path 5527" d="M700.968,677.411c17.072,9.258,32.072,23.235,43.679,40.788,38.038,57.528,32.178,88.154,28.85,98.9-20.041,64.71-152.839,69.053-245.916,28.473-14.571-6.353-109.77-47.859-106.291-101.153,2.074-31.775,39.032-64.757,69.813-61.441,34.078,3.669,51.423,50.842,66.667,42.709,13.836-7.381,1.165-47.1,23.9-71.182,12.8-13.559,29.791-14.7,33.963-14.987,15.4-1.037,26.69,5.423,38.365,11.989C666.245,658.394,681.4,666.8,700.968,677.411Z" transform="matrix(0.829, 0.559, -0.559, 0.829, 1749.381, -858.764)" fill="none" stroke="#59316d" stroke-width="5"/>
    </g>
  </g>
</svg>
