<svg xmlns="http://www.w3.org/2000/svg" width="28.197" height="31.722" viewBox="0 0 28.197 31.722">
  <g id="Group_878" data-name="Group 878" transform="translate(-2645.229 -12360.999)">
    <path id="Subtraction_1" data-name="Subtraction 1" d="M14.1,31.721a4.882,4.882,0,0,1-4.874-4.609H3.26a3.254,3.254,0,1,1,0-6.507c0-.02,0-6.442,0-6.507A10.849,10.849,0,0,1,10.3,3.936V3.794a3.8,3.8,0,0,1,7.592,0v.142a10.85,10.85,0,0,1,1.459.672,5.464,5.464,0,0,0-1.078,1.883,8.649,8.649,0,0,0-1.767-.729l-.784-.227V3.794a1.627,1.627,0,0,0-3.253,0V5.535l-.784.227A8.676,8.676,0,0,0,5.423,14.1v6.507a2.171,2.171,0,0,1-2.167,2.169,1.085,1.085,0,1,0,0,2.169H24.937a1.085,1.085,0,1,0,0-2.169,2.17,2.17,0,0,1-2.166-2.169V14.1c0-.14,0-.282-.01-.422a5.572,5.572,0,0,0,.733.048,5.514,5.514,0,0,0,1.432-.188c.01.2.014.385.014.562v6.507a3.254,3.254,0,1,1-.006,6.507H18.972A4.882,4.882,0,0,1,14.1,31.721Zm-2.7-4.609a2.712,2.712,0,0,0,5.4,0H11.4Z" transform="translate(2645.229 12360.999)" fill="#59316d"/>
    <circle id="Ellipse_75" data-name="Ellipse 75" cx="3.5" cy="3.5" r="3.5" transform="translate(2665.226 12365.724)" fill="#59316d"/>
  </g>
</svg>
