<svg xmlns="http://www.w3.org/2000/svg" xmlns:xlink="http://www.w3.org/1999/xlink" width="912" height="819" viewBox="0 0 912 819">
  <defs>
    <clipPath id="clip-path">
      <rect id="Rectangle_1363" data-name="Rectangle 1363" width="912" height="819" transform="translate(88 261)" fill="#fff" stroke="#707070" stroke-width="1"/>
    </clipPath>
    <clipPath id="clip-path-2">
      <path id="Path_8559" data-name="Path 8559" d="M751.585,547.14C797.789,454.764,800.9,331.691,769.007,233c-27.416-84.947-88.578-149.757-159.168-188.35C527.94-.1,430.318-13.428,342.422,14.821,319.3,22.25,296.8,29.062,275,41.271c-89.361,50.052-72.122,173.392-103.469,216.282C145.162,293.648,94.71,283,62.913,310.67c-85.847,74.637-86.03,263.3,12.992,322.266,91.484,54.5,491.957,222.114,658.662,87.362C758.953,700.588,736.82,576.658,751.585,547.14Z" transform="translate(684.24 1063.194) rotate(-150)" fill="#cbe7de"/>
    </clipPath>
  </defs>
  <g id="Mask_Group_34" data-name="Mask Group 34" transform="translate(-88 -261)" clip-path="url(#clip-path)">
    <g id="freepik--background-simple--inject-409" transform="translate(706.467 1230.992) rotate(-150)">
      <path id="Path_8490" data-name="Path 8490" d="M751.585,547.14C797.789,454.764,800.9,331.691,769.007,233c-27.416-84.947-88.578-149.757-159.168-188.35C527.94-.1,430.318-13.428,342.422,14.821,319.3,22.25,296.8,29.062,275,41.271c-89.361,50.052-72.122,173.392-103.469,216.282C145.162,293.648,94.71,283,62.913,310.67c-85.847,74.637-86.03,263.3,12.992,322.266C180.94,695.514,637.139,775.948,751.585,547.14Z" transform="translate(0 0)" fill="#cbe7de"/>
      <path id="Path_8491" data-name="Path 8491" d="M751.585,547.14C797.789,454.764,800.9,331.691,769.007,233c-27.416-84.947-88.578-149.757-159.168-188.35C527.94-.1,430.318-13.428,342.422,14.821,319.3,22.25,296.8,29.062,275,41.271,185.637,91.323,204.468,162.52,173.121,205.41c-20.856,28.55-57.777,60.483-88.088,86.32-7.944,6.771-15.474,13.158-22.12,18.941-85.847,74.637-86.03,263.3,12.992,322.266C180.94,695.514,637.139,775.948,751.585,547.14Z" transform="translate(0 0)" fill="#cbe7de" opacity="0.8"/>
    </g>
    <g id="freepik--background-simple--inject-409-2" data-name="freepik--background-simple--inject-409" transform="matrix(0.891, 0.454, -0.454, 0.891, 345.928, 239.761)">
      <path id="Path_8492" data-name="Path 8492" d="M751.585,547.14C797.789,454.764,800.9,331.691,769.007,233c-27.416-84.947-88.578-149.757-159.168-188.35C527.94-.1,430.318-13.428,342.422,14.821,319.3,22.25,296.8,29.062,275,41.271,185.637,91.323,204.468,162.52,173.121,205.41c-20.856,28.55-57.777,60.483-88.088,86.32-7.944,6.771-15.474,13.158-22.12,18.941-85.847,74.637-86.03,263.3,12.992,322.266C180.94,695.514,637.139,775.948,751.585,547.14Z" transform="translate(0 0)" fill="none" stroke="#59316d" stroke-width="4" opacity="0.8"/>
    </g>
    <g id="Mask_Group_33" data-name="Mask Group 33" transform="translate(13.017 160.89)" clip-path="url(#clip-path-2)">
      <g id="freepik--character-2--inject-72" transform="translate(167.756 140.757)">
        <path id="Path_8493" data-name="Path 8493" d="M-3418.495,26.993l-42.109,96.288s57.465,43.894,53.117,61.806l-183.927-54.9,43.459-148.1Z" transform="translate(3726.718 1731.8)" fill="#263238"/>
        <path id="Path_8494" data-name="Path 8494" d="M-3562.4,11.823c0,.918-4.441,1.3-8.593,4.2s-6.277,6.612-7.15,6.323,0-5.554,5.313-9.03S-3562.015,10.808-3562.4,11.823Z" transform="translate(3821.37 1837.172)" fill="#263238"/>
        <path id="Path_8495" data-name="Path 8495" d="M-3581.394,27.344c-.866,0-.819-4.827,3-9.124s8.546-4.832,8.69-4.105-3.234,2.749-6.277,6.277S-3580.477,27.54-3581.394,27.344Z" transform="translate(3844.609 1848.016)" fill="#263238"/>
        <path id="Path_8496" data-name="Path 8496" d="M-3495.074-7.692l-3.719,98.9s99.232,36.989,100.347,55.287l-191.992-.289-.531-154.52Z" transform="translate(3715.846 1766.918)" fill="#455a64"/>
        <path id="Path_8497" data-name="Path 8497" d="M-3561.617,14.938c0,.918-3.862,2.465-7.049,6.421s-4.1,8.164-5.069,8.113-1.5-5.312,2.558-10.186S-3561.663,14.02-3561.617,14.938Z" transform="translate(3801.899 1850.572)" fill="#263238"/>
        <path id="Path_8498" data-name="Path 8498" d="M-3577.326,32.514c-.871,0-2.175-4.487.238-9.655s6.812-7.148,7.2-6.374-2.32,3.523-4.2,7.772S-3576.407,32.421-3577.326,32.514Z" transform="translate(3829.005 1857.091)" fill="#263238"/>
        <path id="Path_8499" data-name="Path 8499" d="M-3613.891-314.032s34.961,23.419,44.136,65.767c7.241,33.27,27.04,208.94,27.04,208.94l34.669,67.6-22.647,53.843h0a82.84,82.84,0,0,1-54.224-15.647l-15.215-11.058-27.958-41.429Z" transform="translate(3998.408 648.094)" fill="#fff"/>
        <path id="Path_8500" data-name="Path 8500" d="M-3595.6-86.962l-28.487-4.828s60.118-165.964,95.854-182.189l25.977-11.929v-.48l42.831-17.483,50.119-18.4h0l3.819-1.4-1.594,1.547,100.438,6.421,7.824,5.941,51.522,26.942h0s22.934,7.633,43.75,34.719,51.183,165.484,51.183,165.484L-3219.729-54.9l-16.755,111.837,42.785,213.479-366.989-7,79.338-221.736-12.315-110.723Z" transform="translate(3624.089 612.822)" fill="#535c89"/>
        <g id="Group_1567" data-name="Group 1567" transform="translate(123.469 690.911)" opacity="0.3">
          <path id="Path_8501" data-name="Path 8501" d="M-3336.971-218.234a312.529,312.529,0,0,1-119.6,29.361c-14.489.578-30.278,0-42.642-7.968a97.179,97.179,0,0,0-15.451-10.191c-7.824-3.136-16.61-1.64-24.966-.722a168.656,168.656,0,0,1-58.186-3.816,15.435,15.435,0,0,1-7.871-3.667,5.6,5.6,0,0,1-.242-7.777,8.586,8.586,0,0,1,5.068-1.351l261.916-13.084Z" transform="translate(3607.385 237.45)"/>
        </g>
        <path id="Path_8502" data-name="Path 8502" d="M-3591.52-290.073c-.727,0-5.939,34.333-11.687,76.922s-9.9,77.262-9.221,77.262,5.937-34.332,11.686-76.922S-3590.844-289.975-3591.52-290.073Z" transform="translate(4009.162 735.777)" fill="#263238"/>
        <path id="Path_8503" data-name="Path 8503" d="M-3595.545-209.618a20.384,20.384,0,0,0,3.717-3.574c2.316-2.414,5.5-5.941,9.661-10.335l13.806-15.545c5.121-5.894,10.915-12.315,16.324-19.608a83.47,83.47,0,0,0,12.362-22.548,51.711,51.711,0,0,0,2.6-20.908,35.838,35.838,0,0,0-3.812-13.62,14.563,14.563,0,0,0-2.944-4.3A47.45,47.45,0,0,1-3539-301.992a53.7,53.7,0,0,1-3.044,19.99,86.307,86.307,0,0,1-12.218,21.826c-5.31,7.195-11.006,13.616-16.081,19.557l-13.372,15.936c-3.767,4.538-6.762,8.257-8.835,10.862A25.132,25.132,0,0,0-3595.545-209.618Z" transform="translate(3875.616 626.06)" fill="#263238"/>
        <path id="Path_8504" data-name="Path 8504" d="M-3582.955-321.6a25.13,25.13,0,0,0,.578,5.843,82.232,82.232,0,0,0,4.491,15.451,140.017,140.017,0,0,0,30.182,43.461c14.146,14.967,27.23,28.247,36.746,37.809l11.346,11.248a27.922,27.922,0,0,0,4.393,3.914,25.318,25.318,0,0,0-3.67-4.59l-10.817-11.78-36.167-38.34a150.1,150.1,0,0,1-30.373-42.3A175.537,175.537,0,0,1-3582.955-321.6Z" transform="translate(3775.289 620.409)" fill="#263238"/>
        <path id="Path_8505" data-name="Path 8505" d="M-3457.575-254.561l-11.64,64.947,154.86,22.8-8.933,71.27s-191.267,10.48-212.468,5.8c-26.7-5.894-47.128-37.907-46.452-84.648.243-18.494,8.84-55.436,19.753-98.459Z" transform="translate(3590.996 798.771)" fill="#fff"/>
        <path id="Path_8506" data-name="Path 8506" d="M-3558.279-314.457c0,.289,3.377.387,9.128,2.176A51.718,51.718,0,0,1-3528-298.763a62.509,62.509,0,0,1,16.173,33.223,92.716,92.716,0,0,1,1.063,22.162,149.587,149.587,0,0,1-3.817,23.662c-7.1,32.208-13.567,61.326-18.3,82.863-2.272,10.624-4.007,19.314-4.828,25.256-.531,2.992-.918,5.312-1.115,6.906a8.056,8.056,0,0,0,0,2.46s.821-3.28,2.223-9.175,3.377-14.776,5.8-25.06c4.828-21.151,11.976-50.269,19.021-82.719a150.308,150.308,0,0,0,3.815-24.142,92.812,92.812,0,0,0-1.252-22.744,63.135,63.135,0,0,0-17.19-34.044,50.352,50.352,0,0,0-22.651-13.136,40.305,40.305,0,0,0-6.951-1.156A13.207,13.207,0,0,0-3558.279-314.457Z" transform="translate(3672.819 646.442)" fill="#263238"/>
        <path id="Path_8507" data-name="Path 8507" d="M-3615.427-197.506c0,.722,82.332,2.656,183.882,4.3s183.976,2.512,183.976,1.785-82.087-2.6-183.925-4.3S-3615.427-198.182-3615.427-197.506Z" transform="translate(3678.924 1073.648)" fill="#263238"/>
        <path id="Path_8508" data-name="Path 8508" d="M-3385.169-182.679l81.749,431.645a257.342,257.342,0,0,1-14.966,146.123l-173.45,420.1-136.753-87.211,140.037-415.276-88.661-368.241,28.974-154.277Z" transform="translate(3791.61 1029.507)" fill="#535c89"/>
        <path id="Path_8509" data-name="Path 8509" d="M-3337.8-70.142l-62.533,496.349-10.814,402.48-155.583,2.414s5.6-407.694,5.6-432.274V-3.122a517.144,517.144,0,0,1-31.242-49.3c-8.933-17.865,0-107.149,0-107.149s33.175-67.943,158.531-47.128S-3337.8-70.142-3337.8-70.142Z" transform="translate(3677.263 1026.394)" fill="#535c89"/>
        <path id="Path_8510" data-name="Path 8510" d="M-3597.566,768.008a23.584,23.584,0,0,0,0-2.465,63.431,63.431,0,0,1,.342-7.339c.288-6.565.676-16.029,1.154-28.149.871-24.58,2.125-59.928,3.719-103.529s3.189-95.8,5.122-153.606c1.063-28.974,2.073-59.248,3.574-90.636s3.379-63.982,7.287-97.057c1.934-16.565,4.4-32.837,7.1-48.871s5.552-31.821,8.255-47.319c5.169-31.052,9.368-61.135,13.038-89.867,7.293-57.365,12.507-109.228,17.29-152.684s8.978-78.66,12.163-102.9c1.646-12.022,2.9-21.439,3.771-27.907.383-3.094.722-5.508.914-7.246a7.939,7.939,0,0,0,0-2.512,9.914,9.914,0,0,1-.481,2.465c-.483,1.64-.675,4.105-1.206,7.241-1.016,6.328-2.511,15.694-4.2,27.814-3.522,24.147-8.015,59.346-12.94,102.853s-10.428,95.272-17.819,152.591c-3.719,28.685-8.014,58.717-13.23,89.769-2.707,15.5-5.454,31.29-8.307,47.273s-5.116,32.4-7.049,49.011c-3.962,33.177-5.746,65.771-7.293,97.206s-2.459,61.806-3.425,90.682c-1.739,57.948-3.286,109.857-4.59,153.606s-2.221,79.047-2.9,103.575c-.29,12.171-.531,21.635-.676,28.2V765.5A6.136,6.136,0,0,0-3597.566,768.008Z" transform="translate(3863.681 1087.074)" fill="#263238"/>
        <path id="Path_8511" data-name="Path 8511" d="M-3579.941,735.923c.674,0,12.217-206.191,25.688-460.521s23.858-460.666,23.131-460.717-12.167,206.144-25.645,460.573S-3580.616,735.923-3579.941,735.923Z" transform="translate(3797.236 1119.158)" fill="#263238"/>
        <path id="Path_8512" data-name="Path 8512" d="M-3582.555-187.906a15.919,15.919,0,0,0,3.185,4.156,66.314,66.314,0,0,0,10.769,9.268,71.518,71.518,0,0,0,87.888-4.343,62.707,62.707,0,0,0,9.653-10.335,17.408,17.408,0,0,0,2.755-4.394,145.413,145.413,0,0,1-13.666,13.373,72.717,72.717,0,0,1-85.758,4.25A132.914,132.914,0,0,1-3582.555-187.906Z" transform="translate(3746.493 1089.01)" fill="#263238"/>
        <path id="Path_8513" data-name="Path 8513" d="M-3622.749,733.608l1.109-2.269,3.042-6.761,11.4-26.122c9.655-22.791,24.141-55.627,41.475-96.19s37.907-89.186,60.747-142.982,47.8-113.086,72.43-175.959c1.449-3.961,2.946-7.917,4.447-11.831a70.756,70.756,0,0,0,2.6-12.553,159.9,159.9,0,0,0,.775-24.967c-.628-16.514-2.51-32.641-4.538-48.288-4.441-31.579-10.191-61.759-16.081-90.393-11.877-57.319-24.581-108.454-35.492-151.333s-20.52-77.262-27.232-101.166l-7.87-27.376c-.918-3.043-1.646-5.363-2.125-7.05a18.427,18.427,0,0,0-.825-2.418,8.072,8.072,0,0,0,.583,2.465c.578,1.594,1.061,4.105,1.882,7.148,1.739,6.421,4.2,15.643,7.438,27.525,6.375,23.853,15.642,58.428,26.411,101.4s23.228,94.065,34.962,151.333c5.842,28.634,11.491,58.814,15.884,90.3,2.032,15.74,3.864,31.821,4.494,48.284a161.91,161.91,0,0,1-1.012,24.193,63.283,63.283,0,0,1-2.465,11.975c-1.5,3.914-2.944,7.87-4.442,11.784-24.581,62.775-49.689,122.023-72.435,175.959s-43.12,102.42-60.263,143.173l-40.753,96.577c-4.826,11.346-8.4,20.186-10.959,26.267l-2.8,6.859A13.761,13.761,0,0,1-3622.749,733.608Z" transform="translate(3890.025 1087.187)" fill="#263238"/>
        <path id="Path_8514" data-name="Path 8514" d="M-3595.965-59.132c.677.871,9.656-10,19.893-23.611a188.95,188.95,0,0,0,17.576-25.544,199.384,199.384,0,0,0-19.313,24.142c-5.169,6.808-9.657,13.089-12.941,17.628A57.8,57.8,0,0,0-3595.965-59.132Z" transform="translate(3899.166 1401.056)" fill="#263238"/>
        <g id="Group_1568" data-name="Group 1568" transform="translate(295.812 922.497)" opacity="0.3">
          <path id="Path_8515" data-name="Path 8515" d="M-3546.9-187.75l-22.5,385.627-20.329,33.8-7.389-30.518Z" transform="translate(3597.115 187.75)"/>
        </g>
        <g id="Group_1569" data-name="Group 1569" transform="translate(82.332 876.576)" opacity="0.3">
          <path id="Path_8516" data-name="Path 8516" d="M-3281.326-191.472l3.089,16.177h-333.955l1.688-22.309Z" transform="translate(3612.192 197.605)"/>
        </g>
        <path id="Path_8517" data-name="Path 8517" d="M-3250.6-255.005l-223.766,82.862-188.66,28.828,224.3-109.324Z" transform="translate(3903.738 864.115)" fill="#263238"/>
        <path id="Path_8518" data-name="Path 8518" d="M-3627.888-197.537a94.98,94.98,0,0,1,11.879-33.8,25.933,25.933,0,0,0,3.091-6.37,7.394,7.394,0,0,0-1.3-6.715c-2.854-3.089-8.114-1.738-11.642.629a41.18,41.18,0,0,0-15.064,21.1,123.365,123.365,0,0,0-4.827,25.885" transform="translate(4185.273 896.267)" fill="#ffbe9d"/>
        <path id="Path_8519" data-name="Path 8519" d="M-3603.418-209.242h10.965a21.664,21.664,0,0,1,9.653-5.6,7.688,7.688,0,0,1,7.345,2.9c-4.833-8.21-10.335-17.241-11.352-19.7-2.026-4.827,2.416-8.4,9.66-8.4s38.873,44.859,38.873,44.859-19.7-36.071-21.585-41.625c-4.833-13.76,10.284-14.776,15.741-8.113,6.808,8.21,34.235,49.738,34.235,49.738a19.308,19.308,0,0,1,1.644,16.416c-3.624,8.015-14.052,4.832-14.052,4.832a13.414,13.414,0,0,1-7.339,11.151c-8.015,4.445-18.592-.722-18.592-.722l-40.95,9.221-14.823-1.5a45.439,45.439,0,0,1-40.417-38.629h0Z" transform="translate(4073.545 886.388)" fill="#ffbe9d"/>
        <path id="Path_8520" data-name="Path 8520" d="M-3635.126-241.119A133.546,133.546,0,0,0-3623.1-221.8c3.574,5.121,6.812,9.659,9.272,13.038a34.772,34.772,0,0,0,4.1,5.168,34.441,34.441,0,0,0-3.383-5.7c-2.216-3.425-5.405-8.113-8.933-13.229s-6.757-9.66-9.124-13.084l-2.852-3.914C-3634.74-240.686-3635.028-241.119-3635.126-241.119Z" transform="translate(4132.877 914.933)" fill="#eb996e"/>
        <path id="Path_8521" data-name="Path 8521" d="M-3609.419-195.944a37.215,37.215,0,0,0-3.62-6.663c-2.415-4.054-5.842-9.66-9.659-15.647-1.882-3.038-3.667-5.937-5.168-8.592a10.114,10.114,0,0,1-.914-7.628,18.73,18.73,0,0,1,3.524-6.519,5.38,5.38,0,0,0-1.6,1.351,12.673,12.673,0,0,0-2.8,4.827,10.669,10.669,0,0,0,.725,8.4c1.5,2.8,3.282,5.7,5.166,8.742,3.771,6.132,7.339,11.542,9.949,15.452A61.7,61.7,0,0,0-3609.419-195.944Z" transform="translate(4109.584 915.391)" fill="#eb996e"/>
        <path id="Path_8522" data-name="Path 8522" d="M-3616.946-204.392a25.365,25.365,0,0,0-2.175-6.374l-2.948-6.663a54.279,54.279,0,0,1-2.988-8.3,9.651,9.651,0,0,1,1.3-7.968,6.854,6.854,0,0,1,2.9-2.078,7.919,7.919,0,0,1,3.043-.867,12.877,12.877,0,0,1,4.447,1.542c1.01.531,1.64.774,1.64.676s-.435-.48-1.4-1.109a17.581,17.581,0,0,0-1.83-1.109,7.372,7.372,0,0,0-2.853-.918,9.237,9.237,0,0,0-3.476.773,9.284,9.284,0,0,0-3.427,2.316,10.668,10.668,0,0,0-1.6,9.03A45.127,45.127,0,0,0-3623.13-217c1.159,2.512,2.268,4.832,3.141,6.617C-3618.107-206.708-3617.143-204.345-3616.946-204.392Z" transform="translate(4095.626 927.943)" fill="#eb996e"/>
        <path id="Path_8523" data-name="Path 8523" d="M-3608.585-238.756a4.549,4.549,0,0,0-1.739.531,20.355,20.355,0,0,0-4.25,2.512,23.225,23.225,0,0,0-6.616,29.65,18,18,0,0,0,2.8,4.1c.772.871,1.3,1.258,1.351,1.211a36.023,36.023,0,0,1-3.331-5.7A23.617,23.617,0,0,1-3614-235.038C-3610.907-237.647-3608.25-238.565-3608.585-238.756Z" transform="translate(4079.684 923.581)" fill="#eb996e"/>
        <path id="Path_8524" data-name="Path 8524" d="M-3643.635-243.813a233.971,233.971,0,0,0,19.608,28.974A243.388,243.388,0,0,0-3643.635-243.813Z" transform="translate(4186.822 905.074)" fill="#eb996e"/>
        <path id="Path_8525" data-name="Path 8525" d="M-3605.688-220.93l25.543-5.8,24.678-23.131a17.559,17.559,0,0,1,10.959-4.827l44.713-2.558a17.509,17.509,0,0,1,12.266,4.105l31.962,26.993-139.5,68.083-19.315,1.692Z" transform="translate(3882.043 855.826)" fill="#ffbe9d"/>
        <path id="Path_8526" data-name="Path 8526" d="M-3610.276-249.822s3.334-.387,8.645-1.062a37.459,37.459,0,0,1,20.232,2.078,53.818,53.818,0,0,1,9.657,6.034c2.8,2.125,5.361,4.105,7.583,5.6a45.311,45.311,0,0,0,5.551,3.234,7.184,7.184,0,0,0,2.175.774,54.459,54.459,0,0,1-7.2-4.828c-2.124-1.594-4.83-3.62-7.434-5.8a49.753,49.753,0,0,0-9.661-6.277,29.653,29.653,0,0,0-11.444-2.558,50.359,50.359,0,0,0-9.652.722,63.475,63.475,0,0,0-6.23,1.3A7.519,7.519,0,0,0-3610.276-249.822Z" transform="translate(3963.79 872.79)" fill="#eb996e"/>
        <path id="Path_8527" data-name="Path 8527" d="M-3603.446-245.062a26.23,26.23,0,0,1,4.827-.871,25.328,25.328,0,0,1,11.5,1.594,58.835,58.835,0,0,1,10.524,5.41,21.608,21.608,0,0,0,4.341,2.414,17.245,17.245,0,0,0-3.812-3.187,44.153,44.153,0,0,0-10.622-5.843,22.822,22.822,0,0,0-12.022-1.3A10.062,10.062,0,0,0-3603.446-245.062Z" transform="translate(3947.786 892.898)" fill="#eb996e"/>
        <path id="Path_8528" data-name="Path 8528" d="M-3588.1-227.676c.29,0,3.911-5.168,8.646-11.491a143.292,143.292,0,0,0,8.546-11.589A86.341,86.341,0,0,0-3588.1-227.676Z" transform="translate(3874.931 879.665)" fill="#eb996e"/>
        <path id="Path_8529" data-name="Path 8529" d="M-3544.766-207.852l-56.688-52.775a5.4,5.4,0,0,1-.29-7.642,5.315,5.315,0,0,1,.675-.615h0a5.406,5.406,0,0,1,6.906.242l66.489,59.583" transform="translate(3902.001 809.185)" fill="#535c89"/>
        <g id="Group_1570" data-name="Group 1570" transform="translate(298.813 539.17)" opacity="0.3">
          <path id="Path_8530" data-name="Path 8530" d="M-3544.766-207.852l-56.688-52.775a5.4,5.4,0,0,1-.29-7.642,5.315,5.315,0,0,1,.675-.615h0a5.406,5.406,0,0,1,6.906.242l66.489,59.583" transform="translate(3603.187 270.014)"/>
        </g>
        <path id="Path_8531" data-name="Path 8531" d="M-3438.73-294.462a67.6,67.6,0,0,0-14.922-60.068,88.133,88.133,0,0,0-41.143-24.482,95.226,95.226,0,0,0-63.833,1.449c-20.043,8.448-36.315,27.138-38.633,48.722-1.013,9.66.773,20.042-2.363,29.408a21.847,21.847,0,0,0-2.465,12.362,10.182,10.182,0,0,0,8.834,6.71,22.947,22.947,0,0,0,11.4-2.316,123.236,123.236,0,0,0,32.4-23.275" transform="translate(3806.587 392.685)" fill="#263238"/>
        <path id="Path_8532" data-name="Path 8532" d="M-3438.384-311.343c-1.98-30.614-22.357-68.083-52.827-64.8L-3586.337-352a17.961,17.961,0,0,0-15.982,18.2l10.669,229.513h0l62.3,73.931s39.787-46.308,42.3-60.362h0a39.13,39.13,0,0,0,.676-4.827,150.148,150.148,0,0,0,.381-31.486h0v-25.978c0,.145,39.068-6.566,47.035-57.556C-3434.812-235.772-3436.16-277.345-3438.384-311.343Z" transform="translate(3806.577 420.044)" fill="#ffbe9d"/>
        <path id="Path_8533" data-name="Path 8533" d="M-3585.555-349.817a6.611,6.611,0,0,1-6.321,6.617,6.327,6.327,0,0,1-6.761-5.862v-.028a6.563,6.563,0,0,1,6.321-6.617,6.271,6.271,0,0,1,6.751,5.764Z" transform="translate(3938.682 495.507)" fill="#263238"/>
        <path id="Path_8534" data-name="Path 8534" d="M-3574-352.366c-.774.867-5.747-2.8-12.8-2.754s-12.17,3.574-12.945,2.7.438-1.929,2.708-3.569a17.7,17.7,0,0,1,10.33-3.238,17.467,17.467,0,0,1,10.192,3.285C-3574.336-354.3-3573.563-352.752-3574-352.366Z" transform="translate(3933.212 482.702)" fill="#263238"/>
        <path id="Path_8535" data-name="Path 8535" d="M-3570.748-349.813a6.573,6.573,0,0,1-6.28,6.617,6.276,6.276,0,0,1-6.75-5.764l-.01-.126a6.519,6.519,0,0,1,6.277-6.617,6.228,6.228,0,0,1,6.747,5.666Z" transform="translate(3854.684 495.504)" fill="#263238"/>
        <path id="Path_8536" data-name="Path 8536" d="M-3559.108-352.048c-.819.82-5.79-2.8-12.794-2.8s-12.218,3.574-12.99,2.7.437-1.929,2.707-3.574a18.367,18.367,0,0,1,10.38-3.182,17.1,17.1,0,0,1,10.187,3.234C-3559.442-353.977-3558.72-352.435-3559.108-352.048Z" transform="translate(3849.171 483.88)" fill="#263238"/>
        <path id="Path_8537" data-name="Path 8537" d="M-3591.028-300.2a47.307,47.307,0,0,1,11.444-2.078c1.785,0,3.477-.578,3.765-1.785a9.024,9.024,0,0,0-1.207-5.312c-1.693-4.348-3.476-8.886-5.313-13.667-7.436-19.315-12.794-35.493-12.021-35.782s7.436,15.26,14.874,34.719l5.115,13.76a10.391,10.391,0,0,1,.918,7.05,4.4,4.4,0,0,1-2.944,2.609,10.678,10.678,0,0,1-3.043.433A44.872,44.872,0,0,1-3591.028-300.2Z" transform="translate(3906.736 484.141)" fill="#263238"/>
        <path id="Path_8538" data-name="Path 8538" d="M-3523.365-314.2a129.412,129.412,0,0,1-68.33-18.056s17.24,35.246,68.232,30.372Z" transform="translate(3844.142 581.386)" fill="#eb996e"/>
        <path id="Path_8539" data-name="Path 8539" d="M-3569.17-338.764a12.652,12.652,0,0,0-11.349-4.827,11.635,11.635,0,0,0-8.016,4.343,7.294,7.294,0,0,0-.531,8.355,8.455,8.455,0,0,0,9.227,2.321,26.675,26.675,0,0,0,8.978-5.363,7.6,7.6,0,0,0,2.028-2.125,2.314,2.314,0,0,0,0-2.6" transform="translate(3881.933 539.648)" fill="#eb996e"/>
        <path id="Path_8540" data-name="Path 8540" d="M-3589.824-345.192c1.107,0,1.155,7.581,7.675,12.987s14.485,4.538,14.775,5.6-1.837,1.5-5.261,1.594a19.322,19.322,0,0,1-12.315-4.25,16.891,16.891,0,0,1-5.989-10.913C-3591.227-343.361-3590.356-345.243-3589.824-345.192Z" transform="translate(3884.867 534.054)" fill="#263238"/>
        <path id="Path_8541" data-name="Path 8541" d="M-3553.66-356.048c-.676,1.929-7.727,1.011-15.982,2.027s-14.927,3.285-16.036,1.594c-.483-.82.676-2.609,3.384-4.492a27.912,27.912,0,0,1,24.141-2.754C-3554.92-358.271-3553.372-356.775-3553.66-356.048Z" transform="translate(3846.868 475.327)" fill="#263238"/>
        <path id="Path_8542" data-name="Path 8542" d="M-3575.453-356.493c-1.254,1.594-6.082,0-11.926,0s-10.768,1.109-11.883-.578c-.53-.773.243-2.414,2.413-3.914a16.681,16.681,0,0,1,9.662-2.656,16.966,16.966,0,0,1,9.659,3.187C-3575.6-358.953-3574.924-357.313-3575.453-356.493Z" transform="translate(3932.058 466.499)" fill="#263238"/>
        <path id="Path_8543" data-name="Path 8543" d="M-3595.37-205.328c13.229,5.457,25.012-35.3,37.132-42.883s24.141,18.257,25.3,3.961c.821-12.553-3.383-26.364,3.135-37.18,8.646-14.487,31.1-14.827,39.843-28.974,4.826-8.257,4.053-19.315,9.654-27.283s14.487-10.624,23.714-12.022,18.444-1.738,26.605-5.895,14.484-13.616,11.493-22.213a484.03,484.03,0,0,0-114.542,5.312c-8.786,1.5-18.059,3.476-24.141,9.659s-8.257,16.658-9.659,25.978c-6.663,45.343-21.683,86.148-28.294,131.487" transform="translate(3755.64 410.028)" fill="#263238"/>
        <path id="Path_8544" data-name="Path 8544" d="M-3374.01-270.308c-2.557-29.892-20.52-67.6-47.705-80.547s-59.2-14.193-83.972,2.852c-26.75,18.4-33.8,49.4-37.231,81.7s1.692,43.941,9.223,75.571l3.238,69.583c-18.69,21.295-43.121-2.8-46.7-4.492s-16.755-24.147-18.636-27.525c-19.315-36.411,10.526-41.769,5.405-62.244a99.251,99.251,0,0,1,3.815-62.048c3.862-9.175,9.319-17.721,12.409-27.138,3.431-10.335,3.916-21.537,8.21-31.532a57.6,57.6,0,0,1,24.628-26.267,119.047,119.047,0,0,1,34.331-12.315c27.573-6.179,45.876-16.8,72.431-7.1s45.053,23.662,57.417,58.283a125.584,125.584,0,0,1,3.186,53.116" transform="translate(3743.024 385.724)" fill="#535c89"/>
        <path id="Path_8545" data-name="Path 8545" d="M-3431.657-341.607a13.913,13.913,0,0,0-1.644-2.852,62.858,62.858,0,0,0-5.744-7.53,87.821,87.821,0,0,0-27.475-21.295,86.363,86.363,0,0,0-50.609-8.355,89.761,89.761,0,0,0-55,29.794,116.856,116.856,0,0,0-24.824,57.943,190.833,190.833,0,0,0-1.882,51.573,108.279,108.279,0,0,0,8.84,33.8,68.178,68.178,0,0,0,4.393,8.4,13.4,13.4,0,0,0,1.882,2.7,111.794,111.794,0,0,1-5.408-11.491,116.525,116.525,0,0,1-7.971-33.415,196.758,196.758,0,0,1,2.415-50.991,115.527,115.527,0,0,1,24.481-56.5,88.333,88.333,0,0,1,53.41-28.974,85.222,85.222,0,0,1,49.5,7.679,90.862,90.862,0,0,1,27.525,20.33C-3434.507-345.325-3431.852-341.462-3431.657-341.607Z" transform="translate(3790.05 397.677)" fill="#263238"/>
        <path id="Path_8546" data-name="Path 8546" d="M-3567.532-327.869c0,.242,1.739,2.6,6.035,4.827a32.4,32.4,0,0,0,18.592,3.863,32.773,32.773,0,0,0,17.478-7.339c3.719-3.187,5.214-5.89,4.828-6.086s-2.27,1.981-6.08,4.828a34.045,34.045,0,0,1-34.143,3.336C-3564.972-326.327-3567.294-328.158-3567.532-327.869Z" transform="translate(3728.721 580.085)" fill="#263238"/>
        <path id="Path_8547" data-name="Path 8547" d="M-3566.9-322.912a112.421,112.421,0,0,0,11.253-9.659,111.062,111.062,0,0,0,11.543-9.077,28.4,28.4,0,0,0-13.135,7.143A27.972,27.972,0,0,0-3566.9-322.912Z" transform="translate(3749.33 547.025)" fill="#263238"/>
        <path id="Path_8548" data-name="Path 8548" d="M-3563.456-330.207a32.04,32.04,0,0,1,4.827-12.12,31.662,31.662,0,0,1,10.821-7.483c0-.289-1.692-.582-4.3,0a17.318,17.318,0,0,0-8.5,5.745,17.588,17.588,0,0,0-3.864,9.655C-3564.374-331.7-3563.746-330.161-3563.456-330.207Z" transform="translate(3741.736 515.929)" fill="#263238"/>
        <path id="Path_8549" data-name="Path 8549" d="M-3563.562-343.418c.63.336,2.415-2.172,5.359-4.249s5.751-3.141,5.653-3.863-3.672-.773-7.15,1.836S-3564.19-343.66-3563.562-343.418Z" transform="translate(3743.049 509.294)" fill="#263238"/>
        <path id="Path_8550" data-name="Path 8550" d="M-3569.632-376.951c-.242.68,1.785,1.98,4.1,3.718s4.155,3.332,4.832,2.9-.582-2.9-3.24-4.827S-3569.44-377.575-3569.632-376.951Z" transform="translate(3778.577 416.889)" fill="#263238"/>
        <path id="Path_8551" data-name="Path 8551" d="M-3570.448-377.5c-.438.531.479,2.125,2.125,3.523s3.33,2.176,3.763,1.645-.483-2.125-2.124-3.527S-3569.969-378.028-3570.448-377.5Z" transform="translate(3786.732 415.217)" fill="#263238"/>
        <path id="Path_8552" data-name="Path 8552" d="M-3533.47-338.012c0-3.816-4.441-12.749-8.158-13.331-10.047-1.543-28.1-.676-28.2,24.724,0,34.766,34.766,27.767,34.863,26.751S-3533.42-324.927-3533.47-338.012Z" transform="translate(3752.359 509.829)" fill="#ffbe9d"/>
        <path id="Path_8553" data-name="Path 8553" d="M-3551.785-321.653s-.628.387-1.645.871a5.977,5.977,0,0,1-4.538,0,15.071,15.071,0,0,1-6.856-13.476,20.636,20.636,0,0,1,1.738-8.644,6.951,6.951,0,0,1,4.586-4.827,3.044,3.044,0,0,1,3.572,1.691c.435.965.243,1.64.388,1.691s.772-.531.479-1.98a3.566,3.566,0,0,0-1.35-2.176,4.357,4.357,0,0,0-3.332-.918,8.472,8.472,0,0,0-6.375,5.363,20.334,20.334,0,0,0-2.123,9.655c0,7.05,3.769,13.62,8.741,15.069a6.4,6.4,0,0,0,5.554-.871C-3551.835-320.833-3551.64-321.606-3551.785-321.653Z" transform="translate(3758.603 518.432)" fill="#eb996e"/>
        <path id="Path_8554" data-name="Path 8554" d="M-3592.383-344.333s40.8,36.649,80.154,31.243,53.115-31.243,53.115-31.243,6.23,37.613-11.2,56.256c-19.314,20.666-28.149,26.365-69.145,19.315s-63.162-53.5-63.162-53.5Z" transform="translate(3829.721 537.203)" fill="#fff"/>
        <path id="Path_8555" data-name="Path 8555" d="M-3573.882-350.8a71.269,71.269,0,0,0,9.659,16.276,71.977,71.977,0,0,0,11.734,14.869,75.051,75.051,0,0,0-9.657-16.272A72.348,72.348,0,0,0-3573.882-350.8Z" transform="translate(3790.259 513.535)" fill="#f5f5f5"/>
        <path id="Path_8556" data-name="Path 8556" d="M-3571.6-339.948c0,.727,3.812,1.449,8.4,2.512s8.3,2.125,8.593,1.449-3.189-2.754-8.062-3.863S-3571.6-340.623-3571.6-339.948Z" transform="translate(3781.757 550.971)" fill="#f5f5f5"/>
        <path id="Path_8557" data-name="Path 8557" d="M-3602.379-340.488a26.483,26.483,0,0,0,3.766,4.394,110.269,110.269,0,0,0,11.829,10.382,91.379,91.379,0,0,0,47.758,19.7,65.181,65.181,0,0,0,48.578-16.323,45.013,45.013,0,0,0,9.654-12.455,20.355,20.355,0,0,0,2.221-5.359,70.485,70.485,0,0,1-13.083,16.514,65.486,65.486,0,0,1-47.226,15.111,95.752,95.752,0,0,1-46.937-18.587C-3596.392-334.789-3602.043-340.828-3602.379-340.488Z" transform="translate(3849.134 551.223)" fill="#263238"/>
        <path id="Path_8558" data-name="Path 8558" d="M-3596.8-334.934a33.791,33.791,0,0,0,9.653,6.808,77.621,77.621,0,0,0,56.159,6.328,35.168,35.168,0,0,0,11.01-4.492c0-.387-4.393,1.253-11.443,2.749a87.48,87.48,0,0,1-54.855-6.179C-3592.85-332.763-3596.568-335.321-3596.8-334.934Z" transform="translate(3864.563 571.456)" fill="#263238"/>
      </g>
    </g>
  </g>
</svg>
