<?xml version="1.0" encoding="utf-8"?>
<svg xmlns="http://www.w3.org/2000/svg" width="310.748" height="288.056" viewBox="0 0 310.748 288.056">
  <g id="Grupo_3729" data-name="Grupo 3729" transform="translate(-912.253 -2095.794) rotate(-17)">
    <g id="Grupo_3698" data-name="Grupo 3698">
      <path id="Caminho_10934" data-name="Caminho 10934" d="M371.308,2523.888c-51.323.033-70.918,12.8-70.918,20.223h-1.118c0,11.172,32.9,20.229,73.482,20.229s73.482-9.057,73.482-20.229C446.236,2536.688,418.609,2523.857,371.308,2523.888Z" fill="#fff"/>
    </g>
    <g id="Grupo_3699" data-name="Grupo 3699">
      <path id="Caminho_10935" data-name="Caminho 10935" d="M412.722,2368.341c-48.472-25.383-131.16-42.047-163.665,10.276-31.522,50.74,13.109,80.11,47.071,84.076-.073-5.13-.1-10.287-.065-15.281q.02-2.726.067-5.374c.056-3.174.144-6.246.268-9.166.1-2.427.232-4.745.389-6.928.085-1.176.177-2.318.279-3.41,0,0,1.309-.872,3.84-2.213.581-.308,1.22-.638,1.93-.991q.949-.473,2.052-.99c1.423-.665,3.039-1.378,4.835-2.112l.172-.072q1.4-.57,2.947-1.153t3.237-1.168c.985-.34,2.013-.679,3.071-1.015,2.572-.817,5.351-1.616,8.345-2.363q2.152-.539,4.449-1.036,1.082-.234,2.194-.458,3.475-.7,7.251-1.269,1.2-.182,2.435-.346l.115-.016q4.185-.558,8.718-.914c.706-.054,1.412-.109,2.13-.156,4.763-.307,9.8-.423,15.085-.294,2.671.065,5.415.2,8.217.4,1.577.111,3.168.237,4.787.393,2.682.26,5.427.592,8.219.986q3.584.505,7.286,1.168a227.887,227.887,0,0,1,46.1,13.621s1.425,13.6,2.268,32.8q.075,1.693.142,3.444t.128,3.551q.06,1.8.111,3.648c.033,1.231-.043,2.047-.016,3.305,0,.2.1,1.03.1,1.03,19.728-2.872,37.929-10.1,43.643-26.318C505.105,2403.531,461.2,2393.724,412.722,2368.341Z" fill="#fff"/>
    </g>
    <g id="Grupo_3700" data-name="Grupo 3700">
      <path id="Caminho_10936" data-name="Caminho 10936" d="M447.312,2475.978c-.014-1.172-.035-2.321-.056-3.475.031,0,.063-.006.094-.011,0-.2-.129-2.056-.133-2.259q-.041-1.887-.091-3.734t-.111-3.648q-.06-1.8-.128-3.551t-.142-3.445c-.843-19.2-2.268-32.794-2.268-32.794a227.88,227.88,0,0,0-46.1-13.622q-3.7-.663-7.286-1.168-4.189-.59-8.219-.985c-1.619-.157-3.21-.283-4.787-.394-2.8-.2-5.546-.332-8.217-.4-5.29-.129-10.322-.013-15.085.3-.718.046-1.424.1-2.13.156q-4.525.352-8.718.913l-.115.017q-1.232.165-2.435.345-3.775.567-7.251,1.27-1.113.223-2.194.458-2.295.5-4.449,1.035c-2.994.747-5.773,1.546-8.345,2.364-1.058.336-2.086.675-3.071,1.015q-1.691.583-3.237,1.167t-2.947,1.154l-.172.071c-1.8.735-3.412,1.448-4.835,2.113q-1.1.516-2.052.989c-.71.353-1.349.683-1.93.991-2.531,1.342-3.84,2.214-3.84,2.214-.1,1.091-.194,2.233-.279,3.409-.157,2.183-.286,4.5-.389,6.928-.124,2.92-.212,5.992-.268,9.166q-.048,2.646-.067,5.375c-.036,4.993-.008,10.15.065,15.281.366,25.867,1.861,51.05,1.861,51.05h0c.006-.008,15.6-18.055,77.175-15.527s71.067,15.519,71.072,15.527h0q.087-1.144.166-2.293.123-1.766.227-3.538l.028-.476q.105-1.819.193-3.643.057-1.2.108-2.408.124-2.948.206-5.891l0-.115q.084-3.011.127-6v-.06q.044-3.015.052-6,0-1.992,0-3.962T447.312,2475.978Zm-73.063,15.57-.258-.009Zm63.524-18.983v0Zm-1.48,10.518h0Zm.485-1.725,0-.018Zm.387-1.907.006-.027Zm.293-2.093,0-.033Zm.2-2.292,0-.027Z" fill="#fff"/>
    </g>
    <g id="Grupo_3701" data-name="Grupo 3701">
      <path id="Caminho_10937" data-name="Caminho 10937" d="M446.52,2514.993l-.284-.723c-.005-.008-9.5-13-71.072-15.527s-77.169,15.519-77.176,15.527h0c-2.661,14.225,1.284,29.841,1.284,29.841,0-11.172,32.9-20.228,73.482-20.228s73.482,9.056,73.482,20.228C450.066,2527.171,447.438,2517.585,446.52,2514.993Z" fill="#fff"/>
    </g>
    <g id="Grupo_3702" data-name="Grupo 3702">
      <path id="Caminho_10938" data-name="Caminho 10938" d="M377.308,2523.888c-75.261,2.429-72.036,20.223-72.036,20.223,0,11.172,32.9,20.229,73.482,20.229s73.482-9.057,73.482-20.229C453.35,2532.828,424.584,2522.361,377.308,2523.888Z" fill="#e0e0e0"/>
    </g>
    <g id="Grupo_3703" data-name="Grupo 3703">
      <path id="Caminho_10939" data-name="Caminho 10939" d="M447.168,2495.906l0,.115Z" fill="#fff"/>
    </g>
    <g id="Grupo_3704" data-name="Grupo 3704">
      <path id="Caminho_10940" data-name="Caminho 10940" d="M446.959,2501.912q-.051,1.2-.108,2.408Q446.908,2503.116,446.959,2501.912Z" fill="#fff"/>
    </g>
    <g id="Grupo_3705" data-name="Grupo 3705">
      <path id="Caminho_10941" data-name="Caminho 10941" d="M447.3,2489.846v0Z" fill="#fff"/>
    </g>
    <g id="Grupo_3706" data-name="Grupo 3706">
      <path id="Caminho_10942" data-name="Caminho 10942" d="M446.236,2514.27h0q.089-1.144.167-2.293-.08,1.147-.167,2.293Z" fill="#fff"/>
    </g>
    <g id="Grupo_3707" data-name="Grupo 3707">
      <path id="Caminho_10943" data-name="Caminho 10943" d="M446.658,2507.963l-.028.476Z" fill="#fff"/>
    </g>
    <g id="Grupo_3708" data-name="Grupo 3708">
      <path id="Caminho_10944" data-name="Caminho 10944" d="M444.477,2423.061s1.425,13.595,2.268,32.794c-.843-19.2-2.268-32.794-2.268-32.794a227.9,227.9,0,0,0-46.1-13.622h0A227.9,227.9,0,0,1,444.477,2423.061Z" fill="#fff"/>
    </g>
    <g id="Grupo_3709" data-name="Grupo 3709">
      <path id="Caminho_10945" data-name="Caminho 10945" d="M447.348,2483.85q-.009,2.977-.052,6Q447.34,2486.829,447.348,2483.85Z" fill="#dddfe0"/>
    </g>
    <g id="Grupo_3710" data-name="Grupo 3710">
      <path id="Caminho_10946" data-name="Caminho 10946" d="M447.3,2489.906q-.044,2.986-.127,6Q447.252,2492.9,447.3,2489.906Z" fill="#dddfe0"/>
    </g>
    <g id="Grupo_3711" data-name="Grupo 3711">
      <path id="Caminho_10947" data-name="Caminho 10947" d="M446.63,2508.439q-.105,1.773-.227,3.538Q446.526,2510.212,446.63,2508.439Z" fill="#dddfe0"/>
    </g>
    <g id="Grupo_3712" data-name="Grupo 3712">
      <path id="Caminho_10948" data-name="Caminho 10948" d="M447.165,2496.021q-.083,2.941-.206,5.891Q447.083,2498.964,447.165,2496.021Z" fill="#dddfe0"/>
    </g>
    <g id="Grupo_3713" data-name="Grupo 3713">
      <path id="Caminho_10949" data-name="Caminho 10949" d="M446.851,2504.32q-.089,1.822-.193,3.643Q446.763,2506.144,446.851,2504.32Z" fill="#dddfe0"/>
    </g>
    <g id="Grupo_3714" data-name="Grupo 3714">
      <path id="Caminho_10950" data-name="Caminho 10950" d="M418.722,2368.341c-48.472-25.383-131.16-42.047-163.665,10.276-31.522,50.74,13.109,80.11,47.071,84.076-.073-5.13-.1-10.287-.065-15.281q.02-2.726.067-5.374c.056-3.174.144-6.246.268-9.166.1-2.427.232-4.745.389-6.928.085-1.176.177-2.318.279-3.41,0,0,1.309-.872,3.84-2.213.581-.308,1.22-.638,1.93-.991q.949-.473,2.052-.99c1.423-.665,3.039-1.378,4.835-2.112l.172-.072q1.4-.57,2.947-1.153t3.237-1.168c.985-.34,2.013-.679,3.071-1.015,2.572-.817,5.351-1.616,8.345-2.363q2.152-.539,4.449-1.036,1.082-.234,2.194-.458,3.475-.7,7.251-1.269,1.2-.182,2.435-.346l.115-.016q4.185-.558,8.718-.914c.706-.054,1.412-.109,2.13-.156,4.763-.307,9.8-.423,15.085-.294,2.671.065,5.415.2,8.217.4,1.577.111,3.168.237,4.787.393,2.682.26,5.427.592,8.219.986q3.584.505,7.286,1.168a227.887,227.887,0,0,1,46.1,13.621s1.425,13.6,2.268,32.8q.075,1.693.142,3.444t.128,3.551q.06,1.8.111,3.648c.033,1.231-.043,2.047-.016,3.305,0,.2.1,1.03.1,1.03,19.728-2.872,37.929-10.1,43.643-26.318C511.105,2403.531,467.2,2393.724,418.722,2368.341Z" fill="#f7f7f7"/>
    </g>
    <g id="Grupo_3715" data-name="Grupo 3715">
      <path id="Caminho_10951" data-name="Caminho 10951" d="M453.312,2475.978c-.014-1.172-.035-2.321-.056-3.475.031,0,.063-.006.094-.011,0-.2-.129-2.056-.133-2.259q-.041-1.887-.091-3.734t-.111-3.648q-.06-1.8-.128-3.551t-.142-3.445c-.843-19.2-2.268-32.794-2.268-32.794a227.88,227.88,0,0,0-46.1-13.622q-3.7-.663-7.286-1.168-4.189-.59-8.219-.985c-1.619-.157-3.21-.283-4.787-.394-2.8-.2-5.546-.332-8.217-.4-5.29-.129-10.322-.013-15.085.3-.718.046-1.424.1-2.13.156q-4.525.352-8.718.913l-.115.017q-1.232.165-2.435.345-3.775.567-7.251,1.27-1.113.223-2.194.458-2.295.5-4.449,1.035c-2.994.747-5.773,1.546-8.345,2.364-1.058.336-2.086.675-3.071,1.015q-1.691.583-3.237,1.167t-2.947,1.154l-.172.071c-1.8.735-3.412,1.448-4.835,2.113q-1.1.516-2.052.989c-.71.353-1.349.683-1.93.991-2.531,1.342-3.84,2.214-3.84,2.214-.1,1.091-.194,2.233-.279,3.409-.157,2.183-.286,4.5-.389,6.928-.124,2.92-.212,5.992-.268,9.166q-.048,2.646-.067,5.375c-.036,4.993-.008,10.15.065,15.281.366,25.867,1.861,51.05,1.861,51.05h0c.006-.008,15.6-18.055,77.175-15.527s71.067,15.519,71.072,15.527h0q.087-1.144.166-2.293.123-1.766.227-3.538l.028-.476q.105-1.819.193-3.643.057-1.2.108-2.408.124-2.948.206-5.891l0-.115q.084-3.011.127-6v-.06q.044-3.015.052-6,0-1.992,0-3.962T453.312,2475.978Zm-73.063,15.57-.258-.009Zm63.524-18.983v0Zm-1.48,10.518h0Zm.485-1.725,0-.018Zm.387-1.907.006-.027Zm.293-2.093,0-.033Zm.2-2.292,0-.027Z" fill="#f7f7f7"/>
    </g>
    <g id="Grupo_3716" data-name="Grupo 3716">
      <rect id="Retângulo_2072" data-name="Retângulo 2072" width="148.248" transform="translate(297.988 2514.27)" fill="#fff"/>
    </g>
    <g id="Grupo_3717" data-name="Grupo 3717">
      <path id="Caminho_10952" data-name="Caminho 10952" d="M452.52,2514.993l-.284-.723c-.005-.008-9.5-13-71.072-15.527s-77.169,15.519-77.176,15.527h0c-2.661,14.225,1.284,29.841,1.284,29.841,0-11.172,32.9-20.228,73.482-20.228s73.482,9.056,73.482,20.228C456.066,2527.171,453.438,2517.585,452.52,2514.993Z" fill="#f7f7f7"/>
    </g>
    <g id="Grupo_3718" data-name="Grupo 3718">
      <path id="Caminho_10953" data-name="Caminho 10953" d="M299.271,2545.111a1,1,0,0,1-.969-.755c-.163-.646-3.968-15.993-1.3-30.27a1,1,0,0,1,.233-.479c.739-.846,16.849-18.385,77.966-15.863,61.935,2.542,71.764,15.825,71.856,15.959a1.033,1.033,0,0,1,.107.2l.283.724.011.03c.925,2.61,3.64,12.462-.25,29.673a1.017,1.017,0,0,1-1.086.774,1,1,0,0,1-.889-.995c0-9.286-29.126-19.228-72.483-19.228s-72.482,9.942-72.482,19.228a1,1,0,0,1-.877.993C299.353,2545.108,299.312,2545.111,299.271,2545.111Zm-.353-30.366c-1.747,9.683-.4,20.083.567,25.449,6.277-9.969,36.212-17.311,73.269-17.311s66.979,7.338,73.265,17.3c2.624-14.35.38-22.534-.436-24.846l-.222-.566c-.846-.944-12.5-12.664-70.238-15.034C318.248,2497.4,300.8,2512.883,298.918,2514.745Z" fill="#59316d"/>
    </g>
    <g id="Grupo_3719" data-name="Grupo 3719">
      <path id="Caminho_10954" data-name="Caminho 10954" d="M372.754,2565.34c-41.618,0-74.251-9.258-74.481-21.1-.387-1.575-3.827-16.278-1.29-30.031-.112-1.916-1.473-25.726-1.843-50.1-19.965-2.574-44.059-13.922-53.632-33.775-7.27-15.076-4.954-32.959,6.7-51.716,14.7-23.654,41.23-35.692,76.72-34.749,27.8.721,60.8,9.736,88.259,24.115,9.081,4.755,17.9,8.914,26.423,12.935,18.342,8.652,34.183,16.124,44.109,25.653,10.992,10.554,13.557,22.716,8.073,38.278-5,14.188-19.647,23.224-43.545,26.865l.041,2.345q.029,1.9.044,3.841c.028,3.406.024,6.743-.01,9.952-.014,1.367-.034,2.7-.059,4.031-.039,2.072-.09,4.077-.155,6.085l0,.135q-.1,2.941-.235,5.885l-.018.379q-.089,1.831-.193,3.656l-.029.48q-.1,1.775-.228,3.545-.07,1.028-.148,2.055c.7,1.695,4.169,11.514-.017,30.127C447.025,2556.076,414.385,2565.34,372.754,2565.34Zm-51.495-219.522c-23.778,0-54.172,6.2-71.353,33.852-11.434,18.406-13.654,35.158-6.6,49.792,9.384,19.459,33.348,30.477,52.934,32.765a1,1,0,0,1,.884.978c.362,25.55,1.844,50.755,1.859,51.006a.989.989,0,0,1-.015.243c-2.591,13.849,1.231,29.259,1.27,29.412a1.01,1.01,0,0,1,.03.245c0,9.286,29.126,19.229,72.483,19.229s72.482-9.943,72.482-19.229a1.015,1.015,0,0,1,.025-.22c4.4-19.445.112-29.105.068-29.2a1.006,1.006,0,0,1-.09-.5q.087-1.14.166-2.287.123-1.76.227-3.526l.028-.477q.105-1.813.192-3.632l.018-.378q.138-2.931.234-5.858l0-.135q.1-3,.153-5.982c.027-1.405.046-2.73.06-4.048.034-3.239.038-6.563.011-9.926-.011-1.316-.026-2.593-.045-3.859l-.057-3.167a1.048,1.048,0,0,1,.855-1.056c23.62-3.437,38.026-12.078,42.82-25.68,11.28-32.012-14.906-44.363-51.149-61.457-8.545-4.031-17.38-8.2-26.5-12.973-27.2-14.244-59.868-23.174-87.382-23.888Q323.1,2345.818,321.259,2345.818Z" fill="#59316d"/>
    </g>
    <g id="Grupo_3720" data-name="Grupo 3720">
      <path id="Caminho_10955" data-name="Caminho 10955" d="M447.228,2471.853a1,1,0,0,1-1-.943l-2.718-47.183c-6.747-2.949-74.605-31.167-137.549-3.943a1,1,0,1,1-.794-1.836c34.934-15.111,71.064-13.163,95.222-8.868,26.154,4.651,44.325,12.989,44.505,13.073a1,1,0,0,1,.578.85l2.752,47.792a1,1,0,0,1-.94,1.056Z" fill="#59316d"/>
    </g>
    <g id="Grupo_3721" data-name="Grupo 3721">
      <path id="Caminho_10956" data-name="Caminho 10956" d="M296.128,2464.22H296.1a1,1,0,0,1-.976-1.024l.938-40.159a1,1,0,0,1,.528-.857l7.822-4.195a1,1,0,1,1,.945,1.762l-7.309,3.919-.925,39.577A1,1,0,0,1,296.128,2464.22Z" fill="#59316d"/>
    </g>
    <g id="Grupo_3722" data-name="Grupo 3722">
      <path id="Caminho_10957" data-name="Caminho 10957" d="M396.2,2403.784a1,1,0,0,1-.664-.254c-.293-.26-7.174-6.549-7.007-19.509a1.037,1.037,0,0,1,1.012-.988,1,1,0,0,1,.988,1.013c-.155,12,6.275,17.935,6.34,17.994a1,1,0,0,1-.669,1.744Z" fill="#59316d"/>
    </g>
    <g id="Grupo_3723" data-name="Grupo 3723">
      <path id="Caminho_10958" data-name="Caminho 10958" d="M369.348,2401.675a1,1,0,0,1-.786-.383c-.241-.307-5.9-7.682-6.841-22.595a1,1,0,0,1,.936-1.06,1.016,1.016,0,0,1,1.061.935c.9,14.241,6.363,21.416,6.419,21.488a1,1,0,0,1-.174,1.4A.989.989,0,0,1,369.348,2401.675Z" fill="#59316d"/>
    </g>
    <g id="Grupo_3724" data-name="Grupo 3724">
      <path id="Caminho_10959" data-name="Caminho 10959" d="M346.8,2403.784a1,1,0,0,1-.7-.286c-.5-.493-12.353-12.268-16.091-28.642a1,1,0,0,1,1.95-.445c3.6,15.786,15.423,27.543,15.542,27.659a1,1,0,0,1-.7,1.714Z" fill="#59316d"/>
    </g>
    <g id="Grupo_3725" data-name="Grupo 3725">
      <path id="Caminho_10960" data-name="Caminho 10960" d="M322.14,2408.835a.983.983,0,0,1-.42-.093c-.221-.1-22.161-10.553-26.659-36.8a1,1,0,0,1,1.972-.337c4.315,25.182,25.318,35.224,25.529,35.323a1,1,0,0,1-.422,1.907Z" fill="#59316d"/>
    </g>
    <g id="Grupo_3726" data-name="Grupo 3726">
      <path id="Caminho_10961" data-name="Caminho 10961" d="M304.888,2419.866c-.928,0-22.934-.284-40.864-25.031a1,1,0,0,1,1.62-1.174c17.337,23.929,39.027,24.205,39.244,24.205a1,1,0,0,1,0,2Z" fill="#59316d"/>
    </g>
    <g id="Grupo_3727" data-name="Grupo 3727">
      <path id="Caminho_10962" data-name="Caminho 10962" d="M286.895,2432.261c-5.513,0-13.643-1.819-25.185-8.218a1,1,0,0,1,.97-1.75c24.806,13.755,32.631,5.565,32.707,5.481a1,1,0,0,1,1.485,1.34C296.674,2429.334,293.888,2432.261,286.895,2432.261Z" fill="#59316d"/>
    </g>
    <g id="Grupo_3728" data-name="Grupo 3728">
      <path id="Caminho_10963" data-name="Caminho 10963" d="M288.644,2451.03c-3.408,0-8.093-.734-14.436-3.007a1,1,0,1,1,.675-1.882c16.012,5.735,20.383,1.187,20.425,1.141a1.01,1.01,0,0,1,1.4-.09.993.993,0,0,1,.117,1.388C296.7,2448.731,294.672,2451.03,288.644,2451.03Z" fill="#59316d"/>
    </g>
  </g>
</svg>
