<?xml version="1.0" encoding="utf-8"?>
<svg xmlns="http://www.w3.org/2000/svg" width="227.743" height="129.219" viewBox="0 0 227.743 129.219">
  <g id="Componente_34_17" data-name="Componente 34 – 17" transform="translate(2 2)">
    <path id="Caminho_16760" data-name="Caminho 16760" d="M134.594,60.2a94.235,94.235,0,0,0-94.235,94.235H228.828A94.235,94.235,0,0,0,134.594,60.2Z" transform="translate(-22.722 -43.507)" fill="#ede6f0"/>
    <path id="Caminho_16761" data-name="Caminho 16761" d="M239.3,60.2a94.893,94.893,0,0,0-12.961.893,94.246,94.246,0,0,1,81.271,93.342h25.925A94.235,94.235,0,0,0,239.3,60.2Z" transform="translate(-127.43 -43.507)" fill="#d4c3db"/>
    <path id="Caminho_16762" data-name="Caminho 16762" d="M134.594,60.2a94.235,94.235,0,0,0-94.235,94.235H228.828A94.235,94.235,0,0,0,134.594,60.2Z" transform="translate(-22.722 -43.507)" fill="none" stroke="#59316d" stroke-miterlimit="10" stroke-width="4"/>
    <path id="Caminho_16763" data-name="Caminho 16763" d="M217.278,286.588H6.465A6.464,6.464,0,0,1,0,280.123v-4.116a6.464,6.464,0,0,1,6.465-6.465H217.28a6.464,6.464,0,0,1,6.463,6.465v4.116A6.464,6.464,0,0,1,217.278,286.588Z" transform="translate(0 -161.368)" fill="#d4c3db"/>
    <path id="Caminho_16764" data-name="Caminho 16764" d="M252.23,27.418a13.076,13.076,0,0,1-26.152,0C226.078,20.2,252.23,20.2,252.23,27.418Z" transform="translate(-127.282 -22.002)" fill="#d4c3db"/>
    <path id="Caminho_16765" data-name="Caminho 16765" d="M217.278,286.588H6.465A6.464,6.464,0,0,1,0,280.123v-4.116a6.464,6.464,0,0,1,6.465-6.465H217.28a6.464,6.464,0,0,1,6.463,6.465v4.116A6.464,6.464,0,0,1,217.278,286.588Z" transform="translate(0 -161.368)" fill="none" stroke="#59316d" stroke-miterlimit="10" stroke-width="4"/>
    <path id="Caminho_16766" data-name="Caminho 16766" d="M252.23,27.418a13.076,13.076,0,0,1-26.152,0C226.078,20.2,252.23,20.2,252.23,27.418Z" transform="translate(-127.282 -22.002)" fill="none" stroke="#59316d" stroke-miterlimit="10" stroke-width="4"/>
  </g>
</svg>
