<?xml version="1.0" encoding="utf-8"?>
<svg xmlns="http://www.w3.org/2000/svg" width="213.49" height="277.585" viewBox="0 0 213.49 277.585">
  <g id="Grupo_9662" data-name="Grupo 9662" transform="translate(-1396.624 -438.584)">
    <g id="Grupo_9624" data-name="Grupo 9624" transform="translate(1396.622 438.584)">
      <g id="Camada_2" data-name="Camada 2" transform="matrix(0.978, 0.208, -0.208, 0.978, 67.023, 0)">
        <g id="Camada_1" data-name="Camada 1" transform="translate(0 0)">
          <g id="Faca" transform="translate(0 0)">
            <path id="Caminho_1122" data-name="Caminho 1122" d="M117.9,78.8c-.244-.264,0-.463.1-.662q5.719-11.438,11.1-23.011c2.947-6.307,5.281-12.852,7.72-19.358,2.4-6.4,3.922-12.872,6.4-19.248a26.48,26.48,0,0,0,1.608-5.938A9.109,9.109,0,0,0,138.272.335c-3.873-1.19-8.228.866-10.164,5.017-6.695,14.35-11.025,29.99-18.606,43.862-4.674,8.566-9.278,17.168-14.027,25.694C89,86.511,82.035,97.352,74.907,108.556c-.911,1.438-1.827,2.872-2.787,4.276a6.122,6.122,0,0,1-2.9,2.25c-1.762.7-2.578,1.847-2.334,3.693.294,2.24-2.827,2.817-3.932,4.724-11.7,20.124-20.119,39.562-31.817,59.676-8.168,14.052-19.622,28.78-27.825,42.807a22.3,22.3,0,0,0-1.543,3.036c-.866,2.145-2.733,6.391-1.165,8.123a11.949,11.949,0,0,0,2.16,2.18c.209.154,1.08.737,1.493,1.09l5.007,2.827a8.074,8.074,0,0,0,2.205.5c3.435.737,7.855-2.285,9.522-5.475,2.225-4.241,4.43-8.507,6.969-12.583,14.435-23.424,28.721-46.923,40.119-72.573q5.794-10.612,11.613-21.194c.936-1.707,4.345-.791,6.242-.438.453.085.906.169,1.359.234,2.046.289,2.713-.025,3.728-1.837s1.847-3.6,2.9-5.331c4.9-8.064,7.347-17.451,12.285-25.495.114-.189.154-.5.5-.443Z" fill="#c1d0e0"/>
            <path id="Caminho_1123" data-name="Caminho 1123" d="M8.486,4.936C8.133,3.772,8.342,2.01,5.7.875S.542-.295.074.8,1.408,3.6,4.006,4.822C6.321,5.9,8.969,6.519,8.486,4.936Z" transform="translate(74.171 129.832)" fill="#a6b5bf"/>
            <path id="Caminho_1124" data-name="Caminho 1124" d="M117.665,79.5a1.209,1.209,0,0,1-.095-.169.2.2,0,0,1,0-.119,2.137,2.137,0,0,1,.179-.3l.338-.652.682-1.294,1.334-2.608,2.638-5.236q2.613-5.241,5.172-10.518c3.544-6.969,6.257-14.37,9.039-21.657,1.394-3.654,2.832-7.267,4.276-10.911l2.17-5.44,1.075-2.728c.363-.916.707-1.862,1-2.822a24.516,24.516,0,0,0,.687-2.942,11.8,11.8,0,0,0,.154-3.116,9.7,9.7,0,0,0-2.489-5.734,9.98,9.98,0,0,0-2.489-1.961A10.7,10.7,0,0,0,138.347.16a8.925,8.925,0,0,0-6.222,1.08,10.348,10.348,0,0,0-4.186,4.669q-1.249,2.643-2.529,5.266c-1.712,3.484-3.484,6.969-5.271,10.453-3.574,6.939-7.292,13.8-10.99,20.682s-7.357,13.748-11.04,20.657S90.751,76.74,86.774,83.435q-2.987,5.047-6.043,10.03L74.5,103.39l-3.126,4.978c-.523.826-1.045,1.648-1.578,2.459l-.811,1.215a5.634,5.634,0,0,1-.916,1.03,6.2,6.2,0,0,1-1.145.781c-.209.1-.418.2-.637.294a6.743,6.743,0,0,0-.7.324,4.041,4.041,0,0,0-1.224,1,3.106,3.106,0,0,0-.627,1.493,5.789,5.789,0,0,0,.035,1.533,7.4,7.4,0,0,1,0,1.409,8.586,8.586,0,0,1-.707,2.733,23.4,23.4,0,0,1-1.374,2.539L60.2,127.7l-2.947,5.037-5.9,10.124L39.492,163.075,15.64,203.428,3.728,223.607l-1.493,2.529a26.669,26.669,0,0,0-1.424,2.673A7.765,7.765,0,0,0,0,232a5.839,5.839,0,0,0,1,3.28,10.147,10.147,0,0,0,1,1.259c.329.363.667.732,1.025,1.1a15.4,15.4,0,0,0,1.13,1.065c.2.169.4.334.617.5a5.807,5.807,0,0,0,.767.443l5.062,2.877.095.055.1.03a14.659,14.659,0,0,0,1.448.368l1.379.269a9.229,9.229,0,0,0,3.106.09,5.808,5.808,0,0,0,2.987-1.409,8.805,8.805,0,0,0,1.877-2.489c1.727-3.265,3.539-6.5,5.366-9.721Q32.479,220.048,37.9,210.3t10.781-19.492l10.667-19.552L69.94,151.627l5.3-9.791,2.648-4.9,1.329-2.449.662-1.219a6.683,6.683,0,0,1,.657-1.065,1.807,1.807,0,0,1,.772-.607,2.489,2.489,0,0,1,1.045-.11,3.961,3.961,0,0,1,.622.085l.7.114a12.761,12.761,0,0,0,1.448.189,3.888,3.888,0,0,0,1.672-.2,3.116,3.116,0,0,0,1.359-1.11,9.891,9.891,0,0,0,.772-1.274l.652-1.244c.428-.826.846-1.653,1.279-2.459s.9-1.583,1.384-2.384l2.842-4.749,5.764-9.542,2.862-4.773,1.429-2.389.717-1.195.363-.622c.07-.144.11-.234.114-.234h.239l.114-.209Zm-.194,0L106.037,99.164l.388-.184a.787.787,0,0,0-.338,0,.7.7,0,0,0-.329.209,1.812,1.812,0,0,0-.219.373l-.353.567-.742,1.18-1.493,2.359L100,108.392l-5.893,9.457-2.947,4.724c-.5.781-1,1.583-1.453,2.409s-.891,1.648-1.329,2.459a20.777,20.777,0,0,1-1.344,2.31,1.8,1.8,0,0,1-.762.632,2.563,2.563,0,0,1-1.07.085,10.814,10.814,0,0,1-1.309-.194l-.667-.119c-.244-.045-.5-.085-.757-.114a3.937,3.937,0,0,0-1.7.174,3.32,3.32,0,0,0-1.419,1.055,8.152,8.152,0,0,0-.826,1.284l-.672,1.22L76.52,136.2l-2.7,4.868-5.4,9.741L57.64,170.293,46.869,189.78,36.053,209.242l-10.9,19.412c-1.817,3.24-3.619,6.5-5.346,9.8a6.73,6.73,0,0,1-1.419,1.946c-.134.134-.294.229-.438.348a4.028,4.028,0,0,1-.5.264,3.719,3.719,0,0,1-1.06.334,7.213,7.213,0,0,1-2.434-.075l-1.354-.254a12.017,12.017,0,0,1-1.249-.309l.2.085-5.142-2.882a5.011,5.011,0,0,1-.5-.279c-.174-.129-.353-.269-.523-.418a11.774,11.774,0,0,1-1-.936l-1-1.04a7.8,7.8,0,0,1-.831-1,3.952,3.952,0,0,1-.7-2.235,4.6,4.6,0,0,1,.169-1.2,9.046,9.046,0,0,1,.458-1.239,26.23,26.23,0,0,1,1.319-2.489l1.493-2.539,11.722-20.3,11.7-20.308,11.593-20.353L51.976,143.23l5.859-10.149,2.927-5.072,1.463-2.539a23.4,23.4,0,0,0,1.4-2.618,9.354,9.354,0,0,0,.742-2.922,9.04,9.04,0,0,0,0-1.493c-.025-.259-.055-.5-.065-.717a3.7,3.7,0,0,1,.035-.667,2.489,2.489,0,0,1,.5-1.19,3.341,3.341,0,0,1,1.04-.826,6.623,6.623,0,0,1,.632-.289,7.305,7.305,0,0,0,.7-.319,6.417,6.417,0,0,0,1.274-.856,5.929,5.929,0,0,0,1.03-1.145l.826-1.219q.811-1.224,1.6-2.459l3.156-4.938,6.317-9.925q3.156-4.943,6.212-9.955c4.1-6.67,7.889-13.519,11.682-20.348l11.339-20.468c3.783-6.839,7.506-13.713,11.1-20.667q2.713-5.216,5.241-10.518,1.269-2.643,2.489-5.306a8.676,8.676,0,0,1,3.484-3.952,7.262,7.262,0,0,1,5.082-.921,9.338,9.338,0,0,1,2.489.941,8.537,8.537,0,0,1,2.105,1.633,8.123,8.123,0,0,1,2.13,4.8,9.87,9.87,0,0,1-.124,2.723,23.524,23.524,0,0,1-.627,2.763c-.264.911-.582,1.807-.936,2.708l-1.045,2.733-2.091,5.475c-1.389,3.654-2.772,7.307-4.116,10.98s-2.653,7.347-4.062,10.985-2.932,7.2-4.574,10.751-3.26,7.1-4.923,10.632l-2.489,5.3-1.254,2.648-.632,1.324-.314.657a2.785,2.785,0,0,0-.184.334.408.408,0,0,0,0,.244c.01.07.06.169.095.139Z" transform="translate(3.747 1.683)" fill="#59316d"/>
            <path id="Caminho_1125" data-name="Caminho 1125" d="M.184.549A.358.358,0,0,1,.418.773c0,.055.1.1.189.144.169.085.338.179.5.254q.5.234,1,.418a11.134,11.134,0,0,0,1.892.637,4.891,4.891,0,0,1,1,.264,1.683,1.683,0,0,1,.782.627,1.857,1.857,0,0,1,.05,1.862l1.105-.453A8.806,8.806,0,0,0,5.485,3.078a9.666,9.666,0,0,0-1.608-1.16,15.248,15.248,0,0,0-1.772-.851C1.8.948,1.493.828,1.17.724,1.01.664.841.619.672.569c-.045,0-.1.03-.179.04A.5.5,0,0,1,.184.549ZM0,.48A.868.868,0,0,0,.075.724a1.524,1.524,0,0,0,.2.343c.1.149.189.3.294.438a9.441,9.441,0,0,0,.657.806A11.072,11.072,0,0,0,2.723,3.66,11.814,11.814,0,0,0,4.365,4.7c.567.309,1.105.632,1.707.891l1.215.523-.109-1a5.39,5.39,0,0,0-.9-2.344A9.176,9.176,0,0,0,4.719.833,3.942,3.942,0,0,0,2.464.017a5.591,5.591,0,0,0-1.19.035A4.9,4.9,0,0,0,.692.181,2.838,2.838,0,0,0,.329.276,1,1,0,0,0,0,.48Z" transform="translate(70.9 116.643)" fill="#59316d"/>
            <path id="Caminho_1126" data-name="Caminho 1126" d="M.077,1.17C2.4.732,5.019,1.523,7.095.035c.179-.124.343.11.274.269C6.831,1.538,5.577,1.837,4.342,1.937c-.264,0-.548.05-.841.065.473.065.956.234,1.394.319a9.675,9.675,0,0,0,3.191.114c.189-.03.354.239.144.343a5.032,5.032,0,0,1-2.867.443c-.876-.109-2.18-.249-2.782-.961a.129.129,0,0,1,.055-.214.283.283,0,0,1,.07,0A3.9,3.9,0,0,1,.047,1.29a.062.062,0,0,1,.03-.119Z" transform="translate(6.702 237.44)" fill="#59316d"/>
            <path id="Caminho_1127" data-name="Caminho 1127" d="M.117.363a.089.089,0,0,1,.09-.04c2.016.463,4.569.8,6.446-.3a.169.169,0,0,1,.229.229c-.632,1.17-2.036,1.414-3.27,1.433-1.04,0-2.937.035-3.574-.931a.259.259,0,0,1,0-.269Z" transform="translate(6.134 236.434)" fill="#59316d"/>
            <path id="Caminho_1128" data-name="Caminho 1128" d="M.144.428a.154.154,0,0,1,.214,0,2.986,2.986,0,0,0,.871.085,10.066,10.066,0,0,0,1.448,0,20.384,20.384,0,0,0,2.9-.5.19.19,0,0,1,.149.349,6.421,6.421,0,0,1-4.047,1C1.3,1.329-.518,1.23.144.428Z" transform="translate(4.729 235.205)" fill="#59316d"/>
            <path id="Caminho_1129" data-name="Caminho 1129" d="M.029,1.109c.906-.5,2.041-.06,3.016-.05A7.738,7.738,0,0,0,6.6.024c.2-.1.5.124.343.339A4.325,4.325,0,0,1,3.862,2.085C2.732,2.2.835,2.06.019,1.209A.064.064,0,0,1,0,1.157.065.065,0,0,1,.029,1.109Z" transform="translate(4.346 233.165)" fill="#59316d"/>
            <path id="Caminho_1130" data-name="Caminho 1130" d="M.221.242c.732,0,1.453.12,2.19.085A16.032,16.032,0,0,0,4.746,0,.179.179,0,0,1,4.88.326,4.729,4.729,0,0,1,.112.675.234.234,0,0,1,.221.242Z" transform="translate(4.377 232.031)" fill="#59316d"/>
            <path id="Caminho_1131" data-name="Caminho 1131" d="M.117.059A3.178,3.178,0,0,1,1.451.084c.458.045.926.055,1.374.129a.219.219,0,0,1,.06.4C2.138.945.61,1.069.048.338A.169.169,0,0,1,.117.059Z" transform="translate(5.681 230.522)" fill="#59316d"/>
            <path id="Caminho_1132" data-name="Caminho 1132" d="M.135.066h0A1,1,0,0,1,.757.036c.254.04.523,0,.772.06a.179.179,0,0,1,.109.259A1,1,0,0,1,.722.763a.871.871,0,0,1-.5-.194A.437.437,0,0,1,.065.384.508.508,0,0,0,.02.21.095.095,0,0,1,.135.066Z" transform="translate(7.062 228.444)" fill="#59316d"/>
            <path id="Caminho_1133" data-name="Caminho 1133" d="M.4.008C.9.092,1.289.47,1.792.59a6.673,6.673,0,0,0,1.6.139.164.164,0,0,1,.085.3A2.649,2.649,0,0,1,1.7,1.351C1.145,1.257.309,1.023.04.485A.328.328,0,0,1,.4.008Z" transform="translate(67.675 120.54)" fill="#59316d"/>
            <path id="Caminho_1134" data-name="Caminho 1134" d="M.26.014c.7.259,1.349.607,2.066.841a.164.164,0,0,1-.04.319A2.489,2.489,0,0,1,.051.388C-.069.238.031-.07.26.014Z" transform="translate(67.589 121.887)" fill="#59316d"/>
            <path id="Caminho_1135" data-name="Caminho 1135" d="M.1,0A7.393,7.393,0,0,1,1.828.5a12.524,12.524,0,0,0,2.19.338.159.159,0,0,1,.045.309C2.933,1.538.533,1.468.006.119-.019.065.041.005.1,0Z" transform="translate(67.221 123.633)" fill="#59316d"/>
            <path id="Caminho_1136" data-name="Caminho 1136" d="M.078.028C.357-.067.605.1.854.207s.617.224.911.358c.169.075.095.3-.04.353A1.493,1.493,0,0,1,.561.834C.277.695-.057.456.008.1A.1.1,0,0,1,.078.028Z" transform="translate(66.566 125.064)" fill="#59316d"/>
            <path id="Caminho_1137" data-name="Caminho 1137" d="M.22.023c.11.065.249.09.358.144S.842.331.981.4a6.469,6.469,0,0,0,.707.329c.114.045.164.214.04.279a1.135,1.135,0,0,1-1.065.055A1.239,1.239,0,0,1,.165.7,1,1,0,0,1,0,.2C-.009.072.11-.052.22.023Z" transform="translate(66.126 126.035)" fill="#59316d"/>
            <path id="Caminho_1138" data-name="Caminho 1138" d="M.315.021c.6.388,1.329.552,1.956.9a.184.184,0,0,1-.085.339A2.648,2.648,0,0,1,.2.762.5.5,0,0,1,.041.17C.086.09.22-.054.315.021Z" transform="translate(65.543 126.982)" fill="#59316d"/>
            <path id="Caminho_1139" data-name="Caminho 1139" d="M1.452.678c.035.114-.085.254-.2.209C1.034.808.844.7.62.638A1.215,1.215,0,0,1,.013.35a.06.06,0,0,1,0-.075C.312-.327,1.307.175,1.452.678Z" transform="translate(71.644 115.225)" fill="#59316d"/>
            <path id="Caminho_1140" data-name="Caminho 1140" d="M.226.024A1,1,0,0,1,1.411.761.144.144,0,0,1,1.242.94L.714.821a1.493,1.493,0,0,1-.557-.2A.329.329,0,0,1,.226.024Z" transform="translate(72.301 114.63)" fill="#59316d"/>
            <path id="Caminho_1141" data-name="Caminho 1141" d="M5.951.479C7.559,1.042,10.336,2.032,10.5,4a.085.085,0,0,1-.124.075C7.439,2.082,3.811-1.118.187,1.644c-.119.095-.249-.095-.154-.2C1.611-.3,3.87-.252,5.951.479Z" transform="translate(136.457 5.778)" fill="#59316d"/>
            <path id="Caminho_1142" data-name="Caminho 1142" d="M0,0H0" transform="translate(149.312 14.934)" fill="none" stroke="#59316d" stroke-linecap="round" stroke-linejoin="round" stroke-width="0"/>
            <path id="Caminho_1143" data-name="Caminho 1143" d="M.093,1.031a8.806,8.806,0,0,1,4.51-1c.139,0,.134.209.04.274A8.532,8.532,0,0,1,.192,1.385C.028,1.4-.091,1.121.093,1.031Z" transform="translate(118.716 77.366)" fill="#59316d"/>
            <path id="Caminho_1144" data-name="Caminho 1144" d="M.189.1H1.418A5.741,5.741,0,0,0,2,.05c.095,0,.2-.05.294-.05s.239.11.363.124a.139.139,0,0,1,.1.234C2.662.473,2.652.6,2.538.7a.8.8,0,0,1-.314.134,2.375,2.375,0,0,1-.791.124A2.031,2.031,0,0,1,.054.428.194.194,0,0,1,.189.1Z" transform="translate(122.269 72.041)" fill="#59316d"/>
            <path id="Caminho_1145" data-name="Caminho 1145" d="M.088.947A10.163,10.163,0,0,1,1.721.271c.274-.08.553-.144.831-.2A4.8,4.8,0,0,1,3.478,0a.219.219,0,0,1,.11.4,5.4,5.4,0,0,1-.737.378c-.3.1-.607.189-.916.264a9.889,9.889,0,0,1-1.752.234A.179.179,0,0,1,.088.947Z" transform="translate(124.49 65.509)" fill="#59316d"/>
            <path id="Caminho_1146" data-name="Caminho 1146" d="M.084.72A8.834,8.834,0,0,1,2.075.257c.662-.124,1.3-.428,1.936-.129a.085.085,0,0,1,.03.114C3.678.889,2.886.959,2.2,1.078a4.166,4.166,0,0,1-2.086-.05C.009.984-.065.784.084.72Z" transform="translate(126.674 60.047)" fill="#59316d"/>
            <path id="Caminho_1147" data-name="Caminho 1147" d="M.142.485A7.874,7.874,0,0,1,2.024.057,5.116,5.116,0,0,1,2.94,0a7.466,7.466,0,0,1,.936.2c.07,0,.055.1,0,.124A5.973,5.973,0,0,1,2.93.759a6.779,6.779,0,0,1-.9.134,7.965,7.965,0,0,1-1.886,0C-.072.858-.022.545.142.485Z" transform="translate(129.911 54.393)" fill="#59316d"/>
            <path id="Caminho_1148" data-name="Caminho 1148" d="M.093.438A7.7,7.7,0,0,1,2.462,0a.234.234,0,0,1,.065.453A7.616,7.616,0,0,1,.133.717.144.144,0,0,1,.093.438Z" transform="translate(133.351 49.06)" fill="#59316d"/>
            <path id="Caminho_1149" data-name="Caminho 1149" d="M.142.533A10.692,10.692,0,0,1,3.184,0c.393,0,.5.612.1.687A10.748,10.748,0,0,1,.192.9.184.184,0,0,1,.142.533Z" transform="translate(136.103 41.504)" fill="#59316d"/>
            <path id="Caminho_1150" data-name="Caminho 1150" d="M.184.382A12.3,12.3,0,0,1,1.543.317a6.47,6.47,0,0,0,1.443-.3A.418.418,0,0,1,3.31.775c-.886.5-2.4.811-3.235.025A.249.249,0,0,1,.184.382Z" transform="translate(136.868 35.955)" fill="#59316d"/>
            <path id="Caminho_1151" data-name="Caminho 1151" d="M.118.361A9.423,9.423,0,0,1,3.184.012c.169,0,.338.249.164.383A3.23,3.23,0,0,1,.083.674.174.174,0,0,1,.118.361Z" transform="translate(139.791 30.964)" fill="#59316d"/>
            <path id="Caminho_1152" data-name="Caminho 1152" d="M.078.662A6.01,6.01,0,0,1,4.03.165a.184.184,0,0,1,0,.358A24.606,24.606,0,0,1,.153.971C.008.971-.066.712.078.662Z" transform="translate(140.369 27.163)" fill="#59316d"/>
            <path id="Caminho_1153" data-name="Caminho 1153" d="M.055,1.045A9.025,9.025,0,0,1,1.468.408C2.006.229,2.563.129,3.116,0c.1,0,.174.124.075.174C2.718.388,2.26.617,1.777.806a9.379,9.379,0,0,1-1.643.428C.025,1.229-.06,1.075.055,1.045Z" transform="translate(143.852 20.857)" fill="#59316d"/>
            <path id="Caminho_1154" data-name="Caminho 1154" d="M.078.48A7.964,7.964,0,0,1,1.228.246,8.341,8.341,0,0,0,2.392,0a.124.124,0,0,1,.095.224,3.065,3.065,0,0,1-2.409.5.134.134,0,0,1,0-.244Z" transform="translate(145.282 17.012)" fill="#59316d"/>
            <path id="Caminho_1155" data-name="Caminho 1155" d="M.066.438C.349.324.618.18.927.08A4.226,4.226,0,0,1,1.718,0a.06.06,0,0,1,.03.114,2.4,2.4,0,0,0-.343.2,1.235,1.235,0,0,1-.4.144c-.294.06-.6.1-.891.149A.091.091,0,0,1,.066.438Z" transform="translate(147.494 13.759)" fill="#59316d"/>
            <path id="Caminho_1156" data-name="Caminho 1156" d="M.067.924a6.966,6.966,0,0,1,.881-.5,9.181,9.181,0,0,1,.9-.4c.388-.154.557.5.174.627A7.766,7.766,0,0,1,.142,1.2C-.032,1.208-.032,1,.067.924Z" transform="translate(119.275 80.952)" fill="#59316d"/>
            <path id="Caminho_1157" data-name="Caminho 1157" d="M.073.994A9.516,9.516,0,0,0,1.342.566,13.79,13.79,0,0,0,2.656.018c.139-.08.309.119.174.229A3.305,3.305,0,0,1,.1,1.2a.1.1,0,0,1-.03-.2Z" transform="translate(116.452 84.168)" fill="#59316d"/>
            <path id="Caminho_1158" data-name="Caminho 1158" d="M.711.017a.718.718,0,0,1,.309,0,.79.79,0,0,0,.358,0c.07,0,.129.09.05.124a1,1,0,0,0-.3.189A.732.732,0,0,1,.85.52a1.558,1.558,0,0,1-.722.1A.174.174,0,0,1,.049.335,1.494,1.494,0,0,1,.711.017Z" transform="translate(116.118 87.036)" fill="#59316d"/>
          </g>
        </g>
      </g>
      <g id="Camada_2-2" data-name="Camada 2" transform="translate(0 49.216) rotate(-19)">
        <g id="Camada_1-2" data-name="Camada 1" transform="translate(0 0)">
          <g id="Garfo" transform="translate(0 0)">
            <path id="Caminho_1159" data-name="Caminho 1159" d="M34.995,56.75a.314.314,0,0,0,.378-.114,3.559,3.559,0,0,0,.363-3.484c-3.9-10.318-7.72-20.67-11.562-31.013-2.3-6.192-2.558-6.968-4.843-13.185a26.29,26.29,0,0,1-.861-2.8A1.941,1.941,0,0,1,19.74,3.539c1.145-.393,1.837,0,2.409,1.384,2.553,6.047,3.031,6.719,5.589,12.772,4.539,10.776,7,16.211,11.074,27.2.652,1.752,3.678,8.083,5.321,8.506a.314.314,0,0,0,.338-.129,3.822,3.822,0,0,0,.368-3.678q-7.2-19.63-14.295-39.265c-1.359-3.743-.682-2.08-2.031-5.828a4.108,4.108,0,0,1-.309-3.056c.269-.662.612-1.4,1.419-1.443a1.886,1.886,0,0,1,1.717,1.095c.771,1.374,1.553,2.747,2.21,4.176q3.036,6.59,5.973,13.234c4.694,10.606,7.331,15.818,11.945,26.444,1.8,4.131,1.652,2.822,3.25,7.038a22.4,22.4,0,0,1,1.468,6.565,11.871,11.871,0,0,1-1.209,6.217,32.8,32.8,0,0,0-1.135,28.2c3.693,9.148,7.615,18.207,11.448,27.3q5.117,12.075,10.288,24.13c5.724,13.309,11.5,26.593,17.191,39.912,3.832,8.959,10.9,29.674,14.29,38.822.627,1.692-.164,3.235,0,5.042.289,3.121-.831,5.535-3.688,6.968-2.523,1.249-3.912,2.523-6.684,3.1a6.833,6.833,0,0,1-6.938-2.459,17.984,17.984,0,0,1-3.235-5.888c-2.877-8.257-9.143-28.176-11.945-36.453q-3.867-11.348-7.58-22.751-5.46-16.793-10.88-33.636-3.484-10.716-6.9-21.432c-2.071-6.431-4.091-12.881-6.222-19.292-3.036-9.153-5.146-7.466-13.936-11.816-3.982-1.991-8.207-8.4-9.676-12.577-2.329-6.689-6.6-18.819-8.855-25.548-2.563-7.65-3.056-9.915-5.6-17.57C2.693,22.149,2.523,20.854.319,14.2A5.9,5.9,0,0,1,0,12.274a1.694,1.694,0,0,1,.961-1.8,2.13,2.13,0,0,1,2.389.831,10.517,10.517,0,0,1,1.493,2.653C8.675,23.338,10.452,27.33,14.3,36.717q4.48,11.164,9.054,22.308a1.86,1.86,0,0,0,1.926,1.414,1.543,1.543,0,0,0,1.394-1.219,3.713,3.713,0,0,0-.06-2.518C20.272,39.584,15.972,27.857,9.636,10.736a3.912,3.912,0,0,1-.289-1.075,2.383,2.383,0,0,1,1.618-2.324c1.13-.209,1.752.5,2.16,1.4,1.866,4.181,1.727,2.951,3.484,7.172,5.44,12.906,10.557,25.936,15.609,39a1.817,1.817,0,0,0,1,1.125C33.8,56.277,34.388,56.511,34.995,56.75Z" transform="translate(5.115 4.879)" fill="#c1d0e0"/>
            <path id="Caminho_1160" data-name="Caminho 1160" d="M20,2.513c-.876,2.8-.5,7.152-6.689,9.516S1.2,14.085.157,11.337,3.4,4.663,9.529,2.085C14.979-.21,21.2-1.3,20,2.513Z" transform="translate(38.942 69.683)" fill="#a6b5bf"/>
            <path id="Caminho_1161" data-name="Caminho 1161" d="M37.783,62.788a.3.3,0,0,0,.309-.05.743.743,0,0,0,.1-.154l.1-.184a3.947,3.947,0,0,0,.319-.786,3.25,3.25,0,0,0,0-1.677c-.134-.543-.378-1.085-.572-1.633l-.617-1.633-2.454-6.545-4.9-13.08-9.79-26.18a34.342,34.342,0,0,1-1.13-3.325,4.365,4.365,0,0,1-.244-1.817,1.951,1.951,0,0,1,.383-.906,2.125,2.125,0,0,1,.766-.6,3.046,3.046,0,0,1,.906-.279,1.667,1.667,0,0,1,1,.159A2.837,2.837,0,0,1,23.13,5.6l1.364,3.215,5.445,12.856c3.633,8.576,7.267,17.156,10.691,25.827q1.284,3.255,2.528,6.52l.642,1.633a11.378,11.378,0,0,0,.662,1.553,4.041,4.041,0,0,0,1,1.219,4.121,4.121,0,0,0,1.423.692l.11.03h0s-.03.04,0-.03l.1-.169a3.409,3.409,0,0,0,.314-.722,3.255,3.255,0,0,0,.07-1.533,4.808,4.808,0,0,0-.214-.771l-.3-.816-.607-1.642-2.419-6.55L34.219,20.7,29.367,7.591l-.6-1.618a16.744,16.744,0,0,1-.587-1.732,3.683,3.683,0,0,1,.045-2.135c.07-.194.119-.309.184-.463a5.056,5.056,0,0,1,.234-.463A2.414,2.414,0,0,1,29.506.25a1.871,1.871,0,0,1,.677-.224,2.235,2.235,0,0,1,.677,0A2.459,2.459,0,0,1,32,.523a3.146,3.146,0,0,1,.747.866l.443.776c.552,1.03,1.15,2.061,1.647,3.136L40.69,18.023,46.4,30.78,57.812,56.293c.946,2.135,1.881,4.29,2.737,6.47a23.99,23.99,0,0,1,1.7,7.1,13.937,13.937,0,0,1-.2,3.8,12.747,12.747,0,0,1-.5,1.861c-.11.3-.234.6-.363.9l-.388.821a34.257,34.257,0,0,0-2.359,6.306,30.416,30.416,0,0,0-.5,13.289,35.378,35.378,0,0,0,1.852,6.47c.189.5.413,1.055.647,1.588l.687,1.608,1.369,3.21,10.95,25.692c3.678,8.556,7.317,17.122,11.035,25.668l11.084,25.648c3.713,8.536,7.416,17.117,10.86,25.8q1.294,3.255,2.548,6.53l1.239,3.28a23.3,23.3,0,0,1,1.045,3.623c.124.622.224,1.249.294,1.881a11.613,11.613,0,0,1,.055,2.051,9.079,9.079,0,0,1-.393,2.14,7.789,7.789,0,0,1-1,2.031,8.038,8.038,0,0,1-1.533,1.642,10.487,10.487,0,0,1-1.8,1.14c-1.075.532-2.175,1.04-3.315,1.493a30.526,30.526,0,0,1-3.484,1.17c-.3.085-.607.154-.911.229s-.6.134-.966.194a9.6,9.6,0,0,1-2.15.109,8.153,8.153,0,0,1-4.136-1.463,10.256,10.256,0,0,1-1.6-1.389,15.278,15.278,0,0,1-1.249-1.543,19.018,19.018,0,0,1-1.876-3.35c-.254-.577-.5-1.16-.692-1.747l-.577-1.662-2.309-6.61-4.539-13.229-1.135-3.31-1.1-3.315-2.185-6.63L70.27,182.51l-4.29-13.284-8.551-26.613c-2.852-8.869-5.629-17.764-8.461-26.633l-2.09-6.679c-.174-.557-.348-1.115-.538-1.638s-.368-1.07-.582-1.588-.408-1.055-.647-1.563-.448-1.03-.707-1.528a31.76,31.76,0,0,0-8.2-10.517,32.307,32.307,0,0,0-5.589-3.723l-.752-.4c-.269-.144-.547-.279-.816-.438-.538-.309-1.065-.637-1.573-1a17.455,17.455,0,0,1-2.817-2.489,17.256,17.256,0,0,1-3.673-6.426l-2.2-6.635L14.37,58.09,10.02,44.826,1.35,18.252.265,14.9A6.535,6.535,0,0,1,0,12.942,3.793,3.793,0,0,1,.18,11.867,2.115,2.115,0,0,1,.957,10.8a2.08,2.08,0,0,1,.6-.289,2.9,2.9,0,0,1,.592-.114,2.633,2.633,0,0,1,1.18.189,3.066,3.066,0,0,1,.961.607,3.982,3.982,0,0,1,.368.4c.1.129.2.254.294.388a15.429,15.429,0,0,1,1.6,3.28l5.216,12.966L22.185,54.158l2.6,6.47,1.3,3.24.329.811a5.575,5.575,0,0,0,.328.747,1.334,1.334,0,0,0,1.06.771,1.09,1.09,0,0,0,1.125-.5,2.986,2.986,0,0,0,.373-1.493,3.484,3.484,0,0,0-.09-.781,5.326,5.326,0,0,0-.254-.786L28.371,61l-2.414-6.555-9.666-26.23L11.449,15.1l-1.2-3.275c-.1-.274-.209-.547-.294-.846a2.319,2.319,0,0,1-.075-.966,2.917,2.917,0,0,1,.881-1.652,1.906,1.906,0,0,1,.861-.5,2.046,2.046,0,0,1,1,0,2.309,2.309,0,0,1,1.374,1.284c.5,1.08.946,2.14,1.419,3.21l2.812,6.426,1.4,3.2,1.339,3.225q2.673,6.47,5.251,12.941t5.112,13.02l2.523,6.52,1.249,3.26C35.379,62.161,36.768,62.291,37.783,62.788Zm-.075.184-1.618-.652a1.8,1.8,0,0,1-.757-.5,2.693,2.693,0,0,1-.438-.791l-1.259-3.255L31.1,51.266q-2.548-6.5-5.141-12.991T20.681,25.335L19.338,22.11l-1.419-3.2-2.822-6.4c-.473-1.065-.936-2.14-1.414-3.185a1.956,1.956,0,0,0-1.165-1.1,1.657,1.657,0,0,0-.811,0,1.518,1.518,0,0,0-.7.4,2.558,2.558,0,0,0-.771,1.443,3.39,3.39,0,0,0,.353,1.633l1.214,3.28,4.858,13.09L26.38,54.277l2.429,6.55.607,1.638a4.6,4.6,0,0,1,.378,1.742,3.4,3.4,0,0,1-.433,1.737,1.523,1.523,0,0,1-.687.637,1.946,1.946,0,0,1-.916.139,1.7,1.7,0,0,1-.876-.314,2.289,2.289,0,0,1-.6-.7c-.289-.543-.463-1.08-.7-1.623l-1.324-3.23-2.638-6.47L11.055,28.505,5.775,15.565a14.673,14.673,0,0,0-1.523-3.1A2.742,2.742,0,0,0,3.022,11.4a1.687,1.687,0,0,0-1.543.124,1.742,1.742,0,0,0-.567,1.448,5.475,5.475,0,0,0,.224,1.677l1.095,3.315,8.825,26.519,4.42,13.254,4.48,13.234L22.2,77.586a15.509,15.509,0,0,0,6.042,8.207,16.422,16.422,0,0,0,1.463.921c.5.274,1.025.538,1.543.811A33.846,33.846,0,0,1,37.1,91.373a33.293,33.293,0,0,1,8.636,10.95,44.621,44.621,0,0,1,2.593,6.505l2.155,6.645,8.576,26.6,8.631,26.583L72,181.943l4.42,13.259,2.22,6.625,1.1,3.315,1.145,3.3,4.574,13.2,2.29,6.6c.383,1.1.742,2.2,1.214,3.255a17.139,17.139,0,0,0,1.692,2.986,9.815,9.815,0,0,0,2.369,2.449,6.182,6.182,0,0,0,3.156,1.115,10.218,10.218,0,0,0,3.375-.5,29.36,29.36,0,0,0,3.29-1.1c1.075-.428,2.13-.916,3.17-1.428a8.726,8.726,0,0,0,1.438-.9,6.281,6.281,0,0,0,1.155-1.229,6.132,6.132,0,0,0,1.05-3.175,13.672,13.672,0,0,0-.3-3.414,43.535,43.535,0,0,0-2.18-6.595c-.791-2.19-1.667-4.35-2.523-6.515-3.439-8.626-7.1-17.186-10.806-25.737L82.8,161.76c-3.693-8.551-7.312-17.137-10.975-25.7S64.6,118.882,60.987,110.3c-.891-2.155-1.827-4.28-2.678-6.47a36.527,36.527,0,0,1-1.886-6.749A31.854,31.854,0,0,1,57.04,83.14,36.114,36.114,0,0,1,59.529,76.6,12.309,12.309,0,0,0,60.7,73.36a12.806,12.806,0,0,0,.2-3.434A22.607,22.607,0,0,0,59.325,63.2c-.831-2.17-1.742-4.315-2.678-6.445L45.393,31.223,39.759,18.417,34.005,5.7c-.5-1.045-1.065-2.066-1.633-3.081a4.415,4.415,0,0,0-.951-1.379,1.369,1.369,0,0,0-1.493-.214,2.523,2.523,0,0,0-.886,1.349,2.737,2.737,0,0,0-.03,1.638,17.164,17.164,0,0,0,.547,1.642l.6,1.642,4.773,13.13L44.488,46.7l2.4,6.56.6,1.642a10.507,10.507,0,0,1,.533,1.682,3.832,3.832,0,0,1-.095,1.792,4.165,4.165,0,0,1-.363.821l-.114.194a.592.592,0,0,1-.189.2.538.538,0,0,1-.274.075.931.931,0,0,1-.249-.055,4.534,4.534,0,0,1-1.6-.791A4.39,4.39,0,0,1,44,57.438a11.483,11.483,0,0,1-.7-1.618l-.612-1.638q-1.229-3.265-2.489-6.515C36.788,39,33.179,30.407,29.566,21.821L24.156,8.96,22.807,5.74a2.518,2.518,0,0,0-1-1.294,1.792,1.792,0,0,0-1.578.119A1.608,1.608,0,0,0,19.273,5.8a3.982,3.982,0,0,0,.219,1.662,33.345,33.345,0,0,0,1.11,3.3l9.726,26.185,4.878,13.1,2.439,6.545.612,1.642c.189.552.428,1.08.577,1.662a3.524,3.524,0,0,1,0,1.777,4.435,4.435,0,0,1-.338.826c-.035.065-.075.129-.114.194a.762.762,0,0,1-.144.2A.5.5,0,0,1,37.709,62.973Z" transform="translate(0.002 0)" fill="#59316d"/>
            <path id="Caminho_1162" data-name="Caminho 1162" d="M0,.2C0,.1-.028-.018.127,0a1.04,1.04,0,0,1,0,.264Z" transform="translate(59.668 67.49)" fill="#fafafa"/>
            <path id="Caminho_1163" data-name="Caminho 1163" d="M4.337,4.516a2.578,2.578,0,0,0-.791-.707,8.729,8.729,0,0,1-1.18-1.13A13.494,13.494,0,0,1,.754.191.4.4,0,0,0,.032.285a3.982,3.982,0,0,0,1.2,3.384C1.9,4.337,3.3,5.282,4.268,4.815a.209.209,0,0,0,.07-.274Z" transform="translate(94.787 233.625)" fill="#59316d"/>
            <path id="Caminho_1164" data-name="Caminho 1164" d="M5.067,2.95c-.408-.682-1.443-.811-2.1-1.165A14.005,14.005,0,0,1,.478.083.279.279,0,0,0,.04.422,5.475,5.475,0,0,0,2.329,2.91c.757.4,1.941,1,2.708.358a.254.254,0,0,0,.04-.3Z" transform="translate(97.791 234.175)" fill="#59316d"/>
            <path id="Caminho_1165" data-name="Caminho 1165" d="M4.349,3.935A9.963,9.963,0,0,0,2.543,2.078C1.945,1.491,1.269.67.552.088A.328.328,0,0,0,.009.406C.388,2.039,2.408,4.229,4.2,4.2a.174.174,0,0,0,.149-.264Z" transform="translate(100.34 232.797)" fill="#59316d"/>
            <path id="Caminho_1166" data-name="Caminho 1166" d="M5.556,2.7A7.4,7.4,0,0,0,3.212,1.373C2.3.935,1.385.5.484.034.231-.1-.143.188.056.462A6.684,6.684,0,0,0,2.639,2.687a3.742,3.742,0,0,0,2.872.348A.214.214,0,0,0,5.556,2.7Z" transform="translate(101.458 232.423)" fill="#59316d"/>
            <path id="Caminho_1167" data-name="Caminho 1167" d="M5.784,2.54C4.957,2.147,4.136,1.8,3.3,1.435,2.354,1.032,1.523.5.622.046.279-.133-.169.24.065.6a5.161,5.161,0,0,0,5.689,2.17.129.129,0,0,0,.03-.234Z" transform="translate(102.962 231.017)" fill="#59316d"/>
            <path id="Caminho_1168" data-name="Caminho 1168" d="M3.512,1.436C3.408.888,2.721.719,2.263.565A8.863,8.863,0,0,0,.382,0C.043-.033-.066.356.038.6A2.887,2.887,0,0,0,2.069,2.008C2.417,2.063,3.642,2.113,3.512,1.436Z" transform="translate(106.07 230.528)" fill="#59316d"/>
            <path id="Caminho_1169" data-name="Caminho 1169" d="M2.412,1.067A1.9,1.9,0,0,0,1.452.24,6.82,6.82,0,0,0,.277.006.224.224,0,0,0,.063.38a7.708,7.708,0,0,0,.876.881,1.852,1.852,0,0,0,1.175.328.348.348,0,0,0,.3-.523Z" transform="translate(108.215 228.762)" fill="#59316d"/>
            <path id="Caminho_1170" data-name="Caminho 1170" d="M1.578.742A1,1,0,0,0,.264.065L.513,0H.438A.443.443,0,0,0,.015.557,1.853,1.853,0,0,0,.139.921a.827.827,0,0,0,.279.309,1,1,0,0,0,.781.189A.557.557,0,0,0,1.578.747Z" transform="translate(108.104 226.355)" fill="#59316d"/>
            <path id="Caminho_1171" data-name="Caminho 1171" d="M.1,4.418a4,4,0,0,0,3.758-.542A3.778,3.778,0,0,0,5.464.272.373.373,0,0,0,4.842.108C3.493,1.6,2.418,3.866.139,4.145-.006,4.145-.065,4.379.1,4.418Z" transform="translate(32.187 85.307)" fill="#59316d"/>
            <path id="Caminho_1172" data-name="Caminho 1172" d="M.1,2.964c.677.791,2.051.264,2.792-.154S4.677,1.381,4.583.4a.418.418,0,0,0-.5-.393A4.687,4.687,0,0,0,3.03.545c-.368.194-.7.448-1.06.657C1.353,1.566.382,1.795.058,2.486a.408.408,0,0,0,.06.5Z" transform="translate(34.965 87.975)" fill="#59316d"/>
            <path id="Caminho_1173" data-name="Caminho 1173" d="M.312,1.736a1.777,1.777,0,0,0,1.747,0A1.593,1.593,0,0,0,2.935.467.383.383,0,0,0,2.383.044C2.1.169,1.761.208,1.462.313S.8.447.467.557A.662.662,0,0,0,.312,1.751Z" transform="translate(36.677 91.154)" fill="#59316d"/>
            <path id="Caminho_1174" data-name="Caminho 1174" d="M.377,1.995A3.947,3.947,0,0,0,2.9.208C2.976.078,2.821-.041,2.7.014A15.135,15.135,0,0,0,.144,1.442a.3.3,0,0,0,.234.552Z" transform="translate(38.284 92.076)" fill="#59316d"/>
            <path id="Caminho_1175" data-name="Caminho 1175" d="M.144,2.474c.647.577,1.493.284,2.225,0A2.693,2.693,0,0,0,4.056.757.6.6,0,0,0,3.319.02,13.24,13.24,0,0,0,1.607.951c-.547.309-1.175.383-1.538.941a.5.5,0,0,0,.075.6Z" transform="translate(30.32 85.494)" fill="#59316d"/>
            <path id="Caminho_1176" data-name="Caminho 1176" d="M.457,1.608a1.593,1.593,0,0,0,.682.055,1.493,1.493,0,0,0,.5-.274,1.14,1.14,0,0,0,.4-.5.752.752,0,0,0,.1-.562A.5.5,0,0,0,1.741,0c-.08,0-.214.055-.279,0H1.209A3.215,3.215,0,0,0,.631.219,2.13,2.13,0,0,0,.183.587a.587.587,0,0,0,.259,1Z" transform="translate(27.971 84.808)" fill="#59316d"/>
            <path id="Caminho_1177" data-name="Caminho 1177" d="M.075.207c0,.149-.1.229-.07.388a1.931,1.931,0,0,0,.214.5,3.812,3.812,0,0,0,.657.951A2.892,2.892,0,0,0,2.8,3.029a.2.2,0,0,0,.1-.368A9.606,9.606,0,0,1,1.439,1.422,4.121,4.121,0,0,1,.9.65,1.583,1.583,0,0,0,.712.272C.633.183.533.153.463.068.319-.1.09.068.075.232Z" transform="translate(9.788 9.414)" fill="#59316d"/>
            <path id="Caminho_1178" data-name="Caminho 1178" d="M0,.353A1.638,1.638,0,0,0,1.992,1.742a.159.159,0,0,0,0-.3A2.255,2.255,0,0,1,1.23.94,3.449,3.449,0,0,1,.683.169C.5-.12-.024-.025,0,.353Z" transform="translate(10.768 11.962)" fill="#59316d"/>
            <path id="Caminho_1179" data-name="Caminho 1179" d="M.005.319a1.145,1.145,0,0,0,.762.742A1.837,1.837,0,0,0,1.822,1.2a.2.2,0,0,0,.05-.373,2.877,2.877,0,0,0-.413-.2C1.319.552,1.19.458,1.055.373A1.961,1.961,0,0,0,.249,0,.264.264,0,0,0,.005.319Z" transform="translate(11.341 14.46)" fill="#59316d"/>
            <path id="Caminho_1180" data-name="Caminho 1180" d="M.152.181c-.5.856.333,2.031.911,2.653a3.713,3.713,0,0,0,2.822,1.19.27.27,0,0,0,.129-.5A5.853,5.853,0,0,1,.839.256.383.383,0,0,0,.152.181Z" transform="translate(0 11.297)" fill="#59316d"/>
            <path id="Caminho_1181" data-name="Caminho 1181" d="M0,.193c-.04.766.727,1.394,1.334,1.742a3.38,3.38,0,0,0,2.3.373.179.179,0,0,0,0-.338,5.515,5.515,0,0,1-1.852-.781C1.264.855.886.277.3.023A.2.2,0,0,0,0,.193Z" transform="translate(0.202 14.496)" fill="#59316d"/>
            <path id="Caminho_1182" data-name="Caminho 1182" d="M.115.091C-.706,1.584,3.1,2.047,3.943,1.982A.2.2,0,0,0,4,1.589c-.632-.2-1.259-.408-1.886-.622C1.872.882.5.469.474.186A.194.194,0,0,0,.115.091Z" transform="translate(1.262 17.265)" fill="#59316d"/>
            <path id="Caminho_1183" data-name="Caminho 1183" d="M.009.291c.5,1.553,2.638,1.762,3.942,1.438a.234.234,0,0,0-.06-.458A5.649,5.649,0,0,1,1.875.8,15.249,15.249,0,0,0,.287.008.229.229,0,0,0,.009.291Z" transform="translate(2.17 19.713)" fill="#59316d"/>
            <path id="Caminho_1184" data-name="Caminho 1184" d="M.094.547a1.965,1.965,0,0,0,2.2.732.169.169,0,0,0,0-.294A6.067,6.067,0,0,1,.547.094.32.32,0,0,0,.094.547Z" transform="translate(3.299 22.728)" fill="#59316d"/>
            <path id="Caminho_1185" data-name="Caminho 1185" d="M0,.148C0,.88,1.185,1.6,1.8,1.109a.214.214,0,0,0,0-.3A2.225,2.225,0,0,0,1.005.377,3.558,3.558,0,0,0,.189,0,.154.154,0,0,0,0,.148Z" transform="translate(3.89 24.773)" fill="#59316d"/>
            <path id="Caminho_1186" data-name="Caminho 1186" d="M.017.213a1.14,1.14,0,0,0,1.3.657C1.674.775,1.56.293,1.231.258A2.329,2.329,0,0,1,.206.024C.087-.061-.048.1.017.213Z" transform="translate(4.575 26.053)" fill="#59316d"/>
            <path id="Caminho_1187" data-name="Caminho 1187" d="M.073.244C.207.354.282.458.451.5A.209.209,0,0,0,.695.4V.349A.234.234,0,0,0,.6.1a.8.8,0,0,0-.4-.1C.068,0-.077.14.048.244Z" transform="translate(4.525 27.44)" fill="#59316d"/>
          </g>
        </g>
      </g>
    </g>
  </g>
</svg>
