<svg xmlns="http://www.w3.org/2000/svg" xmlns:xlink="http://www.w3.org/1999/xlink" width="207.678" height="412.293" viewBox="0 0 207.678 412.293">
  <defs>
    <filter id="Retângulo_1742" x="0" y="0" width="207.678" height="412.293" filterUnits="userSpaceOnUse">
      <feOffset dx="7" dy="-7" input="SourceAlpha"/>
      <feGaussianBlur result="blur"/>
      <feFlood flood-opacity="0.161"/>
      <feComposite operator="in" in2="blur"/>
      <feComposite in="SourceGraphic"/>
    </filter>
    <clipPath id="clip-path">
      <circle id="Elipse_221" data-name="Elipse 221" cx="49" cy="49" r="49" transform="translate(-0.044 0.245)" fill="none" stroke="#59316d" stroke-width="1"/>
    </clipPath>
  </defs>
  <g id="celular" transform="translate(0 7)">
    <g id="Componente_79_1" data-name="Componente 79 – 1">
      <g transform="matrix(1, 0, 0, 1, 0, -7)" filter="url(#Retângulo_1742)">
        <rect id="Retângulo_1742-2" data-name="Retângulo 1742" width="200.678" height="405.293" rx="31" transform="translate(0 7)" fill="#59316d"/>
      </g>
      <g id="Grupo_3370" data-name="Grupo 3370" transform="translate(8.285 8.938)">
        <path id="Caminho_9501" data-name="Caminho 9501" d="M-504.729,3899.877h-27.26a6.758,6.758,0,0,0-6.645,6.87v4.925a6.744,6.744,0,0,1-6.63,6.857h-.016l-53.138-.238a6.77,6.77,0,0,1-6.6-6.928v-4.923a6.772,6.772,0,0,0-6.59-6.927H-621.2l-23.866-.113a21.417,21.417,0,0,0-21.584,21.163l-1.408,342.773a21.4,21.4,0,0,0,21.345,21.457l140.35.646a21.417,21.417,0,0,0,21.557-21.274h0l1.409-342.775A21.429,21.429,0,0,0-504.729,3899.877Z" transform="translate(668.058 -3899.4)" fill="#fff"/>
      </g>
    </g>
    <g id="Grupo_2975" data-name="Grupo 2975" transform="translate(48.911 48.305)">
      <g id="Grupo_de_máscara_42" data-name="Grupo de máscara 42" transform="translate(4 0.001)" clip-path="url(#clip-path)">
        <ellipse id="Elipse_219" data-name="Elipse 219" cx="38.5" cy="39.5" rx="38.5" ry="39.5" transform="translate(8.956 52.245)" fill="#59316d"/>
        <g id="Elipse_220" data-name="Elipse 220" transform="translate(28.956 9.245)" fill="#59316d" stroke="#59316d" stroke-width="1">
          <ellipse cx="19.5" cy="20" rx="19.5" ry="20" stroke="none"/>
          <ellipse cx="19.5" cy="20" rx="19" ry="19.5" fill="none"/>
        </g>
      </g>
      <g id="Caminho_9698" data-name="Caminho 9698" transform="translate(3.956 0.246)" fill="none">
        <path d="M49,0A49,49,0,1,1,0,49,49,49,0,0,1,49,0Z" stroke="none"/>
        <path d="M 49 3 C 42.78872299194336 3 36.76481628417969 4.215812683105469 31.09564971923828 6.613677978515625 C 25.61835479736328 8.930366516113281 20.69861602783203 12.24755096435547 16.47309112548828 16.47309112548828 C 12.24755096435547 20.69861602783203 8.930366516113281 25.61835479736328 6.613677978515625 31.09564971923828 C 4.215812683105469 36.76481628417969 3 42.78872299194336 3 49 C 3 55.21127700805664 4.215812683105469 61.23518371582031 6.613677978515625 66.90435791015625 C 8.930366516113281 72.38164520263672 12.24755096435547 77.30138397216797 16.47309112548828 81.52690887451172 C 20.69861602783203 85.75244903564453 25.61835479736328 89.06963348388672 31.09564971923828 91.38632202148438 C 36.76481628417969 93.78418731689453 42.78872299194336 95 49 95 C 55.21127700805664 95 61.23518371582031 93.78418731689453 66.90435791015625 91.38632202148438 C 72.38164520263672 89.06963348388672 77.30138397216797 85.75244903564453 81.52690887451172 81.52690887451172 C 85.75244903564453 77.30138397216797 89.06963348388672 72.38164520263672 91.38632202148438 66.90435791015625 C 93.78418731689453 61.23518371582031 95 55.21127700805664 95 49 C 95 42.78872299194336 93.78418731689453 36.76481628417969 91.38632202148438 31.09564971923828 C 89.06963348388672 25.61835479736328 85.75244903564453 20.69861602783203 81.52690887451172 16.47309112548828 C 77.30138397216797 12.24755096435547 72.38164520263672 8.930366516113281 66.90435791015625 6.613677978515625 C 61.23518371582031 4.215812683105469 55.21127700805664 3 49 3 M 49 0 C 76.06195068359375 0 98 21.93804931640625 98 49 C 98 76.06195068359375 76.06195068359375 98 49 98 C 21.93804931640625 98 0 76.06195068359375 0 49 C 0 21.93804931640625 21.93804931640625 0 49 0 Z" stroke="none" fill="#f9afa1"/>
      </g>
      <g id="Grupo_3371" data-name="Grupo 3371" transform="translate(2 -5)">
        <g id="Elipse_223" data-name="Elipse 223" transform="translate(-0.044 70.246)" fill="#f9afa1" stroke="#fff" stroke-width="1">
          <circle cx="18" cy="18" r="18" stroke="none"/>
          <circle cx="18" cy="18" r="17.5" fill="none"/>
        </g>
        <g id="ic_expand_close" transform="translate(18.17 106.551) rotate(-135)">
          <rect id="rectangle" width="25.661" height="25.661" fill="none"/>
          <path id="path" d="M14.969,1.5,13.472,0,7.484,5.988,1.5,0,0,1.5,5.988,7.484,0,13.472l1.5,1.5L7.484,8.981l5.988,5.988,1.5-1.5L8.981,7.484Z" transform="translate(5.346 5.346)" fill="#fff" fill-rule="evenodd"/>
        </g>
      </g>
    </g>
  </g>
</svg>
