<svg id="Base" xmlns="http://www.w3.org/2000/svg" viewBox="0 0 1142.04 1109.04"><defs><style>.cls-1{opacity:0.2;}.cls-2{opacity:0.7;}.cls-3{fill:#ffccbc;}.cls-4{opacity:0.4;}.cls-5{fill:#ffac90;}.cls-6{fill:#59316d;}</style></defs><g id="Grupo_2936" data-name="Grupo 2936" class="cls-1"><g id="Grupo_2935" data-name="Grupo 2935" class="cls-2"><path id="Caminho_9490" data-name="Caminho 9490" d="M733.31,947.73s-27,137.19-192.83,168.29c0,0-43.3,34.53-57.71,55s-91.16,55.18-169.34,163.58-194.58-235.84-194.58-235.84L376.12,764.61Z"/></g></g><g id="Grupo_2937" data-name="Grupo 2937"><path id="Caminho_9491" data-name="Caminho 9491" class="cls-3" d="M880.67,303.58s89.4-43.72,109.06-36.18,38.57,52.77-36.63,96.07-52.77,124-52.77,124H954s32.19,13.11,44.71,30,21.46,74.36,28.6,93.86,3.51,39-16.09,45.36c0,0-12.52,54.55-9,78.75s1.79,39.75-21.45,42.7a40.56,40.56,0,0,1-44.54-36.14,39.92,39.92,0,0,1-.15-6.56l-17.88,64.79,12.52,24.89A162,162,0,0,1,979,854.3c25,21.45,50.06,27.3,42.91,51.22s-21.46,49.68-96.55,19.81S787.69,778.08,787.69,778.08L742.56,368.79Z"/></g><g id="Grupo_2938" data-name="Grupo 2938" class="cls-4"><path id="Caminho_9492" data-name="Caminho 9492" class="cls-5" d="M974.76,538.7c-40.53,55.25,4.31,118.88,4.31,118.88s-28,15.63-28.85,55.53c-.32,16.58,3.86,39.76,8.83,61.22a40.21,40.21,0,0,1-22.93-39l-17.91,64.79L930.73,825a153.69,153.69,0,0,1,36.88,20.3c-11.12,25.53-14.52,57.08-13.53,89.61a239.5,239.5,0,0,1-28.72-9.6c-75.1-29.91-137.68-147.25-137.68-147.25L742.56,368.76l138.1-65.18s48.84-23.87,82.28-33.3c-2.59,31.27,3.51,63.63,7.93,81.65a188.18,188.18,0,0,1-17.78,11.53c-75.1,43.3-52.76,124-52.76,124H954s30.57,12.49,43.69,28.72A87.53,87.53,0,0,0,974.76,538.7Z"/></g><g id="Grupo_2939" data-name="Grupo 2939"><path id="Caminho_9493" data-name="Caminho 9493" class="cls-3" d="M741,881.78s-97.26,190.69-272.56,234c0,0-6.69,37.73-36.35,53.92-15.85,8.63-79.8,104.45-135.93,191.92L-14.76,1170.85c19.15-18.93,41-40.74,63.11-63.49,64.86-66.13,134.07-140.24,155.24-176.91,18.94-32.61,42.88-89.19,63.74-142.37,26.71-68,48.45-130.5,48.45-130.5l103.64-115.2L582.34,361.22l7,23.18Z"/></g><g id="Grupo_2940" data-name="Grupo 2940" class="cls-4"><path id="Caminho_9494" data-name="Caminho 9494" class="cls-5" d="M582.48,361.22,741,881.79s-97.26,190.68-272.55,233.94c0,0-6.7,37.73-36.36,53.92-14.24,7.76-67.21,85.76-118.47,164.78,19-65.21,74-169.16,74-169.16-35.3-41.82-25-85.89-10.87-73.34s49.65,47.81,51.89,50c-15.6-18.37-19.21-47.16-19.21-47.16s43.76,29.1,47.29-17.53S430.5,916.7,430.5,916.7L352.35,617.09Z"/></g><g id="Grupo_2941" data-name="Grupo 2941"><path id="Caminho_9495" data-name="Caminho 9495" class="cls-6" d="M980.77,941.1c-14.75,0-33.37-4.53-56.26-13.63-21.68-8.62-56.28-30.47-98-85.58a532,532,0,0,1-40.88-62.73,2.31,2.31,0,1,1,4.08-2.16c.62,1.16,63,117,136.49,146.19,34.49,13.71,58.64,16.81,73.83,9.47,11.66-5.65,16.34-16.69,19.66-27.8,4.66-15.59-5.8-22.73-21.64-33.53a227.08,227.08,0,0,1-20.56-15.28,159.21,159.21,0,0,0-47.61-28.84,2.3,2.3,0,0,1-1.23-1.11l-12.52-24.9a2.27,2.27,0,0,1-.16-1.64l17.88-64.79a2.31,2.31,0,0,1,4.53.74,38.77,38.77,0,0,0,.14,6.19,38.28,38.28,0,0,0,42,34.09c7.91-1,13.35-3.58,16.6-7.85,4.5-5.94,5.32-15.28,2.81-32.23-3.6-24.33,8.46-77.35,9-79.59a2.3,2.3,0,0,1,1.53-1.68c7.12-2.31,12.21-6.51,15.13-12.51,3.85-7.91,3.67-18.51-.49-29.87-2.57-7-5.28-18.44-8.4-31.67-5.38-22.76-12.08-51.08-19.9-61.6-11.23-15.14-39.56-27.46-43.31-29H900.33a2.31,2.31,0,0,1-2.22-1.68c-.23-.83-22-82.91,53.84-126.59,48.47-27.91,54-54.17,52.95-67.34s-9-21.9-16-24.57c-15.37-5.87-82.62,24.06-107.23,36.1L743.55,370.88a2.31,2.31,0,0,1-3.07-1.1h0a2.31,2.31,0,0,1,1.1-3.07l138.1-65.21c9.22-4.51,90.85-43.94,110.88-36.25,8.57,3.28,17.75,13.38,18.94,28.52,1.12,14.25-4.58,42.52-55.25,71.69-66.78,38.46-54.68,108-52.1,119.67H954a2.32,2.32,0,0,1,.87.17c1.34.55,32.93,13.55,45.69,30.74,8.37,11.29,14.91,38.91,20.67,63.29,3,12.54,5.77,24.39,8.25,31.14,4.6,12.55,4.71,24.43.3,33.49a28.77,28.77,0,0,1-16.59,14.44c-1.82,8.24-11.8,55.16-8.63,76.64,2,13.39,2.9,27-3.7,35.69-4,5.31-10.49,8.46-19.75,9.64A42.88,42.88,0,0,1,935,748.09l-14.31,51.84,11.72,23.3a163.52,163.52,0,0,1,48.13,29.34,224.12,224.12,0,0,0,20.14,14.94c16.25,11.09,29.09,19.86,23.47,38.67-3.45,11.54-8.77,24.19-22.08,30.63C996.14,939.67,989.07,941.1,980.77,941.1Z"/></g><g id="Grupo_2942" data-name="Grupo 2942"><path id="Caminho_9496" data-name="Caminho 9496" class="cls-6" d="M992.57,661.58A49.72,49.72,0,0,1,967,655c-13.28-7.83-22.61-22.43-27.75-43.39C927.35,563.22,951,511.12,967.6,506a2.31,2.31,0,0,1,1.35,4.41c-13.05,4-37,52.29-25.26,100.08,4.83,19.7,13.45,33.33,25.62,40.51,14,8.25,30.16,6.39,41.27,3.39a2.29,2.29,0,0,1,2.83,1.59v0a2.31,2.31,0,0,1-1.63,2.83A73.9,73.9,0,0,1,992.57,661.58Z"/></g><g id="Grupo_2943" data-name="Grupo 2943"><path id="Caminho_9497" data-name="Caminho 9497" class="cls-6" d="M936.09,737.68a2.31,2.31,0,0,1-2.31-2.24c-.07-2.54-1.56-62.49,21.6-78.09a2.3,2.3,0,0,1,3.2.62h0a2.31,2.31,0,0,1-.62,3.2c-21.06,14.19-19.58,73.54-19.57,74.14a2.3,2.3,0,0,1-2.23,2.37Z"/></g><g id="Grupo_2944" data-name="Grupo 2944"><path id="Caminho_9498" data-name="Caminho 9498" class="cls-6" d="M296.12,1363.88a2.31,2.31,0,0,1-1.94-3.56c77.51-120.64,123.54-185.48,136.8-192.69,28.3-15.45,35.08-51.93,35.15-52.3a2.31,2.31,0,0,1,1.71-1.83C640.16,1071,738,882.64,738.93,880.74a2.32,2.32,0,0,1,3.1-1h0a2.3,2.3,0,0,1,1,3.1c-.25.48-25,48.54-70.86,101.23-42.18,48.42-111.35,110.77-201.81,133.57-1.59,7.35-9.92,39.17-37.19,54.06-8.64,4.7-39.1,41.68-135.13,191.14A2.3,2.3,0,0,1,296.12,1363.88Z"/></g><g id="Grupo_2945" data-name="Grupo 2945"><path id="Caminho_9499" data-name="Caminho 9499" class="cls-6" d="M-14.76,1172.6a1.72,1.72,0,0,1-1.24-.52,1.75,1.75,0,0,1,0-2.48c69.06-68.25,189.24-190.18,218.21-240C244.76,856.34,313.58,659,314.27,657a1.75,1.75,0,0,1,.36-.6L581.08,360.05a1.75,1.75,0,0,1,2.61,2.34L317.46,658.46c-3.24,9.28-70.33,200.78-112.21,272.87-29.17,50.2-149.59,172.4-218.78,240.77A1.75,1.75,0,0,1-14.76,1172.6Z"/></g><g id="Grupo_2946" data-name="Grupo 2946"><path id="Caminho_9500" data-name="Caminho 9500" class="cls-6" d="M482.92,660a2.31,2.31,0,0,1-2.18-1.55c-11.32-32.51-51.55-68.8-51.95-69.16a2.31,2.31,0,0,1,3.07-3.44h0c1.69,1.52,41.53,37.46,53.23,71.08a2.31,2.31,0,0,1-1.41,2.94h0A2.41,2.41,0,0,1,482.92,660Z"/></g><g id="Grupo_2952" data-name="Grupo 2952"><path id="Caminho_9505" data-name="Caminho 9505" class="cls-6" d="M411.81,1137.47a2.32,2.32,0,0,1-2-1.12c-26.26-43.82-71.66-72.08-72.12-72.36a2.3,2.3,0,0,1-.75-3.17h0a2.3,2.3,0,0,1,3.17-.75h0c.47.29,46.82,29.14,73.66,73.91a2.32,2.32,0,0,1-.79,3.17h0A2.37,2.37,0,0,1,411.81,1137.47Z"/></g><g id="Grupo_2953" data-name="Grupo 2953"><path id="Caminho_9506" data-name="Caminho 9506" class="cls-6" d="M463.14,1118.21c-12.3,0-43.32-3.81-72.17-38.33-7.09-8.47-18.85-15.5-32.48-23.64-29.22-17.46-65.59-39.18-76.69-89a2.31,2.31,0,0,1,4.51-1c10.66,47.89,46.08,69,74.55,86,14,8.35,26.06,15.56,33.65,24.64,18.05,21.59,37,30.34,49.78,33.88,13.82,3.84,23.51,2.56,23.61,2.55a2.31,2.31,0,0,1,.64,4.57A42.39,42.39,0,0,1,463.14,1118.21Z"/></g></svg>