<?xml version="1.0" encoding="utf-8"?>
<!-- Generator: Adobe Illustrator 25.2.1, SVG Export Plug-In . SVG Version: 6.00 Build 0)  -->
<svg version="1.1" id="Camada_1" xmlns="http://www.w3.org/2000/svg" xmlns:xlink="http://www.w3.org/1999/xlink" x="0px" y="0px"
	 viewBox="0 0 297 265" style="enable-background:new 0 0 297 265;" xml:space="preserve">
<style type="text/css">
	.st0{fill:#FFDEA9;}
	.st1{enable-background:new    ;}
	.st2{fill:#59316D;}
	.st3{fill:none;}
</style>
<g id="Grupo_3369" transform="translate(-791 -20)">
	<g id="Polígono_10">
		<path class="st0" d="M917.9,47c5-8.6,16-11.6,24.6-6.6c2.7,1.6,5,3.9,6.6,6.6l111.3,193c5,8.6,2,19.6-6.6,24.6
			c-2.7,1.6-5.8,2.4-9,2.4H822.2c-9.9,0-18-8.1-18-18c0-3.2,0.8-6.3,2.4-9L917.9,47z"/>
	</g>
	<g class="st1">
		<path class="st2" d="M945.8,212.4c7,0,12.3,3.5,12.3,11.8c0,7.4-4.3,12.3-12,12.3c-9.3,0-12.3-6.1-12.3-12
			C933.8,217.9,938.1,212.4,945.8,212.4z M944.5,192.8c0-25.1-10.4-42.6-10.4-58.6c0-10.1,6.7-13,13-13c6.1,0,12.2,2.6,12.2,13
			c0,17.1-11.2,33.3-11.2,58.7v13.6h-3.5V192.8z"/>
	</g>
	<g id="Polígono_11" transform="translate(803 20)">
		<g>
			<path class="st3" d="M126.9,27c5-8.6,16-11.6,24.6-6.6c2.7,1.6,5,3.9,6.6,6.6l111.3,193c5,8.6,2,19.6-6.6,24.6
				c-2.7,1.6-5.8,2.4-9,2.4H31.2c-9.9,0-18-8.1-18-18c0-3.2,0.8-6.3,2.4-9L126.9,27z"/>
		</g>
		<g>
			<path class="st2" d="M142.5,21c-2.6,0-5.1,0.6-7.3,1.9c-2.4,1.3-4.3,3.2-5.7,5.6l-111.3,193c-1.4,2.4-2.1,5-2,7.7
				c0,2.5,0.7,5,2,7.3s3.1,4.1,5.3,5.4c2.3,1.4,4.9,2.1,7.7,2.1h222.7c2.8,0,5.4-0.7,7.7-2.1c2.2-1.3,4-3.2,5.3-5.4
				c1.3-2.2,2-4.7,2-7.3c0-2.7-0.6-5.3-2-7.7l-111.3-193c-1.4-2.4-3.3-4.3-5.7-5.6C147.6,21.7,145.1,21,142.5,21 M142.5,18
				c6.1,0,12.1,3,15.6,9l111.3,193c6.9,12-1.7,27-15.6,27H31.2c-13.9,0-22.5-15-15.6-27L126.9,27C130.4,21,136.4,18,142.5,18z"/>
		</g>
	</g>
</g>
</svg>
