<svg xmlns="http://www.w3.org/2000/svg" viewBox="0 0 121.51 121.51"><defs><style>.cls-1{fill:#ffdea9;}.cls-2{fill:none;stroke:#59316d;stroke-miterlimit:10;}.cls-3{fill:#fff;}.cls-4{fill:#fafafa;}.cls-5{fill:#59316d;}.cls-6{fill:#f9afa1;}.cls-7{fill:#e0e0e0;}.cls-8{fill:#424242;}</style></defs><g id="Layer_2" data-name="Layer 2"><g id="Layer_2-2" data-name="Layer 2"><g id="Group_11471" data-name="Group 11471"><g id="Group_9650" data-name="Group 9650"><g id="Group_9647" data-name="Group 9647"><g id="Group_3660" data-name="Group 3660"><circle id="Ellipse_3" data-name="Ellipse 3" class="cls-1" cx="62" cy="63.22" r="50.73"/></g></g><g id="Group_9648" data-name="Group 9648"><path id="Path_58" data-name="Path 58" class="cls-2" d="M60.76.72l8.16,8.5L79.31,3.66l5.13,10.6L96,12.19l1.61,11.67,11.67,1.61-2.07,11.6,10.6,5.14L112.29,52.6l8.5,8.16-8.5,8.16,5.56,10.39-10.6,5.14,2.07,11.6L97.65,97.66,96,109.33l-11.6-2.08-5.14,10.6-10.38-5.56-8.17,8.5-8.16-8.5L42.2,117.85l-5.13-10.6-11.6,2.08L23.86,97.66,12.19,96.05l2.07-11.6L3.66,79.31,9.22,68.92.72,60.76l8.5-8.16L3.66,42.21l10.6-5.14-2.07-11.6,11.67-1.61,1.61-11.67,11.6,2.07,5.14-10.6L52.6,9.22Z"/></g></g></g><g id="Component_170_71" data-name="Component 170 71"><g id="Group_10613" data-name="Group 10613"><g id="Group_10418" data-name="Group 10418"><path id="Path_18086" data-name="Path 18086" class="cls-3" d="M85.82,53.62H31.07v37.5a2.81,2.81,0,0,0,2.81,2.81H86.74a2.81,2.81,0,0,0,2.81-2.81h0V53.62Z"/></g><g id="Group_10419" data-name="Group 10419"><path id="Path_18087" data-name="Path 18087" class="cls-4" d="M88.38,53.62H33.63v37.5a2.81,2.81,0,0,0,2.81,2.81H89.3a2.81,2.81,0,0,0,2.82-2.81h0V53.62Z"/></g><g id="Group_10420" data-name="Group 10420"><path id="Path_18088" data-name="Path 18088" class="cls-5" d="M86.75,94.68H33.89a3.56,3.56,0,0,1-3.56-3.56V53.62a.75.75,0,0,1,.75-.75H89.56a.76.76,0,0,1,.75.75h0v37.5A3.57,3.57,0,0,1,86.75,94.68ZM31.82,54.37V91.12a2.07,2.07,0,0,0,2.07,2.07H86.75a2.07,2.07,0,0,0,2.06-2.07V54.37Z"/></g><g id="Group_10421" data-name="Group 10421"><path id="Path_18089" data-name="Path 18089" class="cls-3" d="M86.75,39.18H33.89A2.81,2.81,0,0,0,31.08,42h0V55.56H89.56V42A2.81,2.81,0,0,0,86.75,39.18Z"/></g><g id="Group_10422" data-name="Group 10422"><rect id="Rectangle_2453" data-name="Rectangle 2453" class="cls-3" x="56.39" y="60.95" width="6.81" height="6.81" rx="3.4"/></g><g id="Group_10423" data-name="Group 10423"><rect id="Rectangle_2454" data-name="Rectangle 2454" class="cls-3" x="45.69" y="60.95" width="6.81" height="6.81" rx="3.4"/></g><g id="Group_10424" data-name="Group 10424"><rect id="Rectangle_2455" data-name="Rectangle 2455" class="cls-3" x="67.09" y="60.95" width="6.81" height="6.81" rx="3.4"/></g><g id="Group_10425" data-name="Group 10425"><rect id="Rectangle_2456" data-name="Rectangle 2456" class="cls-3" x="77.8" y="60.95" width="6.81" height="6.81" rx="3.4"/></g><g id="Group_10426" data-name="Group 10426"><rect id="Rectangle_2457" data-name="Rectangle 2457" class="cls-3" x="45.69" y="71.43" width="6.81" height="6.81" rx="3.4"/></g><g id="Group_10427" data-name="Group 10427"><rect id="Rectangle_2458" data-name="Rectangle 2458" class="cls-3" x="56.39" y="71.43" width="6.81" height="6.81" rx="3.4"/></g><g id="Group_10428" data-name="Group 10428"><rect id="Rectangle_2459" data-name="Rectangle 2459" class="cls-3" x="67.09" y="71.43" width="6.81" height="6.81" rx="3.4"/></g><g id="Group_10429" data-name="Group 10429"><rect id="Rectangle_2460" data-name="Rectangle 2460" class="cls-3" x="67.09" y="81.91" width="6.81" height="6.81" rx="3.4"/></g><g id="Group_10430" data-name="Group 10430"><rect id="Rectangle_2461" data-name="Rectangle 2461" class="cls-3" x="77.8" y="71.43" width="6.81" height="6.81" rx="3.4"/></g><g id="Group_10431" data-name="Group 10431"><rect id="Rectangle_2462" data-name="Rectangle 2462" class="cls-3" x="45.69" y="81.91" width="6.81" height="6.81" rx="3.4"/></g><g id="Group_10432" data-name="Group 10432"><rect id="Rectangle_2463" data-name="Rectangle 2463" class="cls-3" x="34.99" y="71.43" width="6.81" height="6.81" rx="3.4"/></g><g id="Group_10433" data-name="Group 10433"><rect id="Rectangle_2464" data-name="Rectangle 2464" class="cls-3" x="34.99" y="81.91" width="6.81" height="6.81" rx="3.4"/></g><g id="Group_10434" data-name="Group 10434"><path id="Path_18090" data-name="Path 18090" class="cls-6" d="M89.31,39.18H36.45A2.81,2.81,0,0,0,33.64,42h0V55.56H92.12V42A2.81,2.81,0,0,0,89.31,39.18Z"/></g><g id="Group_10435" data-name="Group 10435"><rect id="Rectangle_2465" data-name="Rectangle 2465" class="cls-7" x="58.53" y="60.95" width="6.81" height="6.81" rx="1"/></g><g id="Group_10436" data-name="Group 10436"><rect id="Rectangle_2466" data-name="Rectangle 2466" class="cls-7" x="47.83" y="60.95" width="6.81" height="6.81" rx="1"/></g><g id="Group_10437" data-name="Group 10437"><rect id="Rectangle_2467" data-name="Rectangle 2467" class="cls-7" x="69.23" y="60.95" width="6.81" height="6.81" rx="1"/></g><g id="Group_10438" data-name="Group 10438"><rect id="Rectangle_2468" data-name="Rectangle 2468" class="cls-6" x="79.93" y="60.95" width="6.81" height="6.81" rx="1"/></g><g id="Group_10439" data-name="Group 10439"><rect id="Rectangle_2469" data-name="Rectangle 2469" class="cls-7" x="47.83" y="71.43" width="6.81" height="6.81" rx="1"/></g><g id="Group_10440" data-name="Group 10440"><rect id="Rectangle_2470" data-name="Rectangle 2470" class="cls-7" x="58.53" y="71.43" width="6.81" height="6.81" rx="1"/></g><g id="Group_10441" data-name="Group 10441"><rect id="Rectangle_2471" data-name="Rectangle 2471" class="cls-7" x="69.23" y="71.43" width="6.81" height="6.81" rx="1"/></g><g id="Group_10442" data-name="Group 10442"><rect id="Rectangle_2472" data-name="Rectangle 2472" class="cls-7" x="69.23" y="81.91" width="6.81" height="6.81" rx="1"/></g><g id="Group_10443" data-name="Group 10443"><rect id="Rectangle_2473" data-name="Rectangle 2473" class="cls-6" x="79.93" y="71.43" width="6.81" height="6.81" rx="1"/></g><g id="Group_10444" data-name="Group 10444"><rect id="Rectangle_2474" data-name="Rectangle 2474" class="cls-7" x="47.83" y="81.91" width="6.81" height="6.81" rx="1"/></g><g id="Group_10445" data-name="Group 10445"><rect id="Rectangle_2475" data-name="Rectangle 2475" class="cls-7" x="37.12" y="71.43" width="6.81" height="6.81" rx="1"/></g><g id="Group_10446" data-name="Group 10446"><rect id="Rectangle_2476" data-name="Rectangle 2476" class="cls-7" x="37.12" y="81.91" width="6.81" height="6.81" rx="1"/></g><g id="Group_10447" data-name="Group 10447"><rect id="Rectangle_2477" data-name="Rectangle 2477" class="cls-7" x="58.53" y="81.91" width="6.81" height="6.81" rx="1"/></g><g id="Group_10448" data-name="Group 10448"><path id="Path_18091" data-name="Path 18091" class="cls-5" d="M89.56,56.31H31.07a.75.75,0,0,1-.74-.75h0V42a3.57,3.57,0,0,1,3.56-3.56H86.74A3.57,3.57,0,0,1,90.3,42V55.56A.75.75,0,0,1,89.56,56.31Zm-57.74-1.5h57V42a2.06,2.06,0,0,0-2.06-2.06H33.89A2.07,2.07,0,0,0,31.82,42Z"/></g><g id="Group_10449" data-name="Group 10449"><path id="Path_18092" data-name="Path 18092" class="cls-5" d="M62.19,68.51H57.4a1.76,1.76,0,0,1-1.75-1.76V62A1.75,1.75,0,0,1,57.4,60.2h4.79A1.76,1.76,0,0,1,64,62v4.79A1.77,1.77,0,0,1,62.19,68.51ZM57.4,61.7a.26.26,0,0,0-.26.26h0v4.79a.26.26,0,0,0,.26.26h4.79a.26.26,0,0,0,.26-.26h0V62a.25.25,0,0,0-.26-.26H57.4Z"/></g><g id="Group_10450" data-name="Group 10450"><path id="Path_18093" data-name="Path 18093" class="cls-5" d="M51.49,68.51H46.7a1.78,1.78,0,0,1-1.76-1.76V62A1.77,1.77,0,0,1,46.7,60.2h4.79A1.76,1.76,0,0,1,53.25,62v4.79A1.77,1.77,0,0,1,51.49,68.51ZM46.7,61.7a.26.26,0,0,0-.26.26h0v4.79a.26.26,0,0,0,.26.26h4.79a.26.26,0,0,0,.26-.26h0V62a.25.25,0,0,0-.26-.26H46.7Z"/></g><g id="Group_10451" data-name="Group 10451"><path id="Path_18094" data-name="Path 18094" class="cls-5" d="M72.89,68.51H68.11a1.77,1.77,0,0,1-1.76-1.76V62a1.76,1.76,0,0,1,1.76-1.76h4.78A1.76,1.76,0,0,1,74.65,62v4.79A1.77,1.77,0,0,1,72.89,68.51ZM68.11,61.7a.26.26,0,0,0-.27.26h0v4.79a.27.27,0,0,0,.27.26h4.78a.27.27,0,0,0,.27-.26h0V62a.26.26,0,0,0-.27-.26H68.11Z"/></g><g id="Group_10452" data-name="Group 10452"><path id="Path_18095" data-name="Path 18095" class="cls-5" d="M83.59,68.51H78.81a1.77,1.77,0,0,1-1.76-1.76V62a1.76,1.76,0,0,1,1.76-1.76h4.78A1.76,1.76,0,0,1,85.35,62v4.79A1.77,1.77,0,0,1,83.59,68.51ZM78.81,61.7a.26.26,0,0,0-.27.26h0v4.79a.27.27,0,0,0,.27.26h4.78a.27.27,0,0,0,.27-.26h0V62a.26.26,0,0,0-.27-.26H78.81Z"/></g><g id="Group_10453" data-name="Group 10453"><path id="Path_18096" data-name="Path 18096" class="cls-5" d="M51.49,79H46.7a1.78,1.78,0,0,1-1.76-1.76V72.44a1.77,1.77,0,0,1,1.76-1.76h4.79a1.76,1.76,0,0,1,1.76,1.76v4.79A1.77,1.77,0,0,1,51.49,79ZM46.7,72.18a.26.26,0,0,0-.26.26h0v4.79a.26.26,0,0,0,.26.26h4.79a.26.26,0,0,0,.26-.26h0V72.44a.25.25,0,0,0-.26-.26H46.7Z"/></g><g id="Group_10454" data-name="Group 10454"><path id="Path_18097" data-name="Path 18097" class="cls-5" d="M62.19,79H57.4a1.76,1.76,0,0,1-1.75-1.76V72.44a1.75,1.75,0,0,1,1.75-1.76h4.79A1.76,1.76,0,0,1,64,72.44v4.79A1.77,1.77,0,0,1,62.19,79ZM57.4,72.18a.26.26,0,0,0-.26.26h0v4.79a.26.26,0,0,0,.26.26h4.79a.26.26,0,0,0,.26-.26h0V72.44a.25.25,0,0,0-.26-.26H57.4Z"/></g><g id="Group_10455" data-name="Group 10455"><path id="Path_18098" data-name="Path 18098" class="cls-5" d="M72.89,79H68.11a1.77,1.77,0,0,1-1.76-1.76V72.44a1.76,1.76,0,0,1,1.76-1.76h4.78a1.76,1.76,0,0,1,1.76,1.76v4.79A1.77,1.77,0,0,1,72.89,79Zm-4.78-6.81a.26.26,0,0,0-.27.26h0v4.79a.27.27,0,0,0,.27.26h4.78a.27.27,0,0,0,.27-.26h0V72.44a.26.26,0,0,0-.27-.26H68.11Z"/></g><g id="Group_10456" data-name="Group 10456"><path id="Path_18099" data-name="Path 18099" class="cls-5" d="M72.89,89.47H68.11a1.77,1.77,0,0,1-1.76-1.76V82.92a1.76,1.76,0,0,1,1.76-1.76h4.78a1.76,1.76,0,0,1,1.76,1.76v4.79A1.77,1.77,0,0,1,72.89,89.47Zm-4.78-6.81a.26.26,0,0,0-.27.26h0v4.79a.27.27,0,0,0,.27.26h4.78a.27.27,0,0,0,.27-.26h0V82.92a.26.26,0,0,0-.27-.26H68.11Z"/></g><g id="Group_10457" data-name="Group 10457"><path id="Path_18100" data-name="Path 18100" class="cls-5" d="M83.59,79H78.81a1.77,1.77,0,0,1-1.76-1.76V72.44a1.76,1.76,0,0,1,1.76-1.76h4.78a1.76,1.76,0,0,1,1.76,1.76v4.79A1.77,1.77,0,0,1,83.59,79Zm-4.78-6.81a.26.26,0,0,0-.27.26v4.79a.27.27,0,0,0,.27.26h4.78a.27.27,0,0,0,.27-.26h0V72.44a.26.26,0,0,0-.27-.26H78.81Z"/></g><g id="Group_10458" data-name="Group 10458"><path id="Path_18101" data-name="Path 18101" class="cls-5" d="M51.49,89.46H46.7a1.76,1.76,0,0,1-1.76-1.75V82.92a1.77,1.77,0,0,1,1.76-1.76h4.79a1.76,1.76,0,0,1,1.76,1.76v4.79A1.75,1.75,0,0,1,51.49,89.46Zm-4.79-6.8a.26.26,0,0,0-.26.26h0v4.79a.26.26,0,0,0,.26.26h4.79a.26.26,0,0,0,.26-.26h0V82.92a.25.25,0,0,0-.26-.26H46.7Z"/></g><g id="Group_10459" data-name="Group 10459"><path id="Path_18102" data-name="Path 18102" class="cls-5" d="M40.79,79H36a1.77,1.77,0,0,1-1.76-1.76V72.44A1.76,1.76,0,0,1,36,70.68h4.79a1.77,1.77,0,0,1,1.76,1.76v4.79A1.78,1.78,0,0,1,40.79,79ZM36,72.18a.25.25,0,0,0-.26.26h0v4.79a.26.26,0,0,0,.26.26h4.79a.26.26,0,0,0,.26-.26h0V72.44a.26.26,0,0,0-.26-.26H36Z"/></g><g id="Group_10460" data-name="Group 10460"><path id="Path_18103" data-name="Path 18103" class="cls-5" d="M40.79,89.46H36a1.75,1.75,0,0,1-1.76-1.75V82.92A1.76,1.76,0,0,1,36,81.16h4.79a1.77,1.77,0,0,1,1.76,1.76v4.79A1.76,1.76,0,0,1,40.79,89.46ZM36,82.66a.25.25,0,0,0-.26.26h0v4.79A.26.26,0,0,0,36,88h4.79a.26.26,0,0,0,.26-.26h0V82.92a.26.26,0,0,0-.26-.26H36Z"/></g><g id="Group_10461" data-name="Group 10461"><path id="Path_18104" data-name="Path 18104" class="cls-3" d="M43.1,31.43a3,3,0,0,0-3,3V44a3,3,0,0,0,5.94,0V34.4A3,3,0,0,0,43.1,31.43Z"/></g><g id="Group_10462" data-name="Group 10462"><path id="Path_18105" data-name="Path 18105" class="cls-8" d="M45.23,31.43a3,3,0,0,0-3,3V44a3,3,0,0,0,5.94,0V34.4A3,3,0,0,0,45.23,31.43Z"/></g><g id="Group_10463" data-name="Group 10463"><path id="Path_18106" data-name="Path 18106" class="cls-5" d="M43.1,47.68A3.71,3.71,0,0,1,39.38,44V34.4a3.72,3.72,0,1,1,7.43,0V44A3.71,3.71,0,0,1,43.1,47.68Zm0-15.5a2.23,2.23,0,0,0-2.23,2.22V44a2.23,2.23,0,0,0,4.45,0V34.4A2.22,2.22,0,0,0,43.1,32.18Z"/></g><g id="Group_10464" data-name="Group 10464"><path id="Path_18107" data-name="Path 18107" class="cls-3" d="M73.8,31.43a3,3,0,0,0-3,3V44a3,3,0,0,0,5.94,0V34.4A3,3,0,0,0,73.8,31.43Z"/></g><g id="Group_10465" data-name="Group 10465"><path id="Path_18108" data-name="Path 18108" class="cls-8" d="M75.94,31.43a3,3,0,0,0-3,3V44a3,3,0,0,0,5.94,0V34.4A3,3,0,0,0,75.94,31.43Z"/></g><g id="Group_10466" data-name="Group 10466"><path id="Path_18109" data-name="Path 18109" class="cls-5" d="M73.8,47.68A3.71,3.71,0,0,1,70.09,44V34.4a3.72,3.72,0,1,1,7.43,0V44A3.71,3.71,0,0,1,73.8,47.68Zm0-15.5a2.22,2.22,0,0,0-2.22,2.22V44A2.23,2.23,0,0,0,76,44V34.4A2.22,2.22,0,0,0,73.8,32.18Z"/></g><g id="Group_10467" data-name="Group 10467"><path id="Path_18110" data-name="Path 18110" class="cls-5" d="M62.19,89.46H57.4a1.75,1.75,0,0,1-1.75-1.75V82.92a1.75,1.75,0,0,1,1.75-1.76h4.79A1.76,1.76,0,0,1,64,82.92v4.79A1.75,1.75,0,0,1,62.19,89.46Zm-4.79-6.8a.26.26,0,0,0-.26.26h0v4.79a.26.26,0,0,0,.26.26h4.79a.26.26,0,0,0,.26-.26h0V82.92a.25.25,0,0,0-.26-.26H57.4Z"/></g><g id="Group_10468" data-name="Group 10468"><path id="Path_18111" data-name="Path 18111" class="cls-5" d="M62.19,89.14H57.4A1.44,1.44,0,0,1,56,87.71V82.92a1.44,1.44,0,0,1,1.44-1.44h4.79a1.44,1.44,0,0,1,1.44,1.44v4.79A1.44,1.44,0,0,1,62.19,89.14Zm-4.79-6.8a.58.58,0,0,0-.58.58v4.79a.58.58,0,0,0,.58.58h4.79a.58.58,0,0,0,.58-.58V82.92a.58.58,0,0,0-.58-.58Z"/></g></g></g></g></g></svg>