<svg xmlns="http://www.w3.org/2000/svg" viewBox="0 0 121.51 121.51"><defs><style>.cls-1{fill:#ffdea9;}.cls-2{fill:none;stroke:#59316d;stroke-miterlimit:10;}.cls-3{fill:#fff;}.cls-4{fill:#e8e8e8;}.cls-5{fill:#59316d;}.cls-6{opacity:0.55;}.cls-7{fill:#dbdbdb;}.cls-8{fill:#9ce5cb;}.cls-9{fill:#a2c8f2;}.cls-10{opacity:0.3;}.cls-11{fill:#9cadb7;}.cls-12{fill:#ffcca9;}</style></defs><g id="Layer_2" data-name="Layer 2"><g id="Layer_2-2" data-name="Layer 2"><g id="Group_9658" data-name="Group 9658"><g id="Group_9650" data-name="Group 9650"><g id="Group_9647" data-name="Group 9647"><g id="Group_3660" data-name="Group 3660"><circle id="Ellipse_3" data-name="Ellipse 3" class="cls-1" cx="62" cy="63.22" r="50.73"/></g></g><g id="Group_9648" data-name="Group 9648"><path id="Path_58" data-name="Path 58" class="cls-2" d="M60.76.72l8.16,8.5L79.31,3.66l5.13,10.6L96,12.19l1.61,11.67,11.67,1.61-2.07,11.6,10.6,5.14L112.29,52.6l8.5,8.16-8.5,8.16,5.56,10.39-10.6,5.14,2.07,11.6L97.65,97.66,96,109.33l-11.6-2.08-5.14,10.6-10.38-5.56-8.17,8.5-8.16-8.5L42.2,117.85l-5.13-10.6-11.6,2.08L23.86,97.66,12.19,96.05l2.07-11.6L3.66,79.31,9.22,68.92.72,60.76l8.5-8.16L3.66,42.21l10.6-5.14-2.07-11.6,11.67-1.61,1.61-11.67,11.6,2.07,5.14-10.6L52.6,9.22Z"/></g></g></g><g id="Group_10615" data-name="Group 10615"><path id="Path_18176" data-name="Path 18176" class="cls-3" d="M32,38.89a3.32,3.32,0,0,0-3.58,3V84.07c0-.08,0-.17,0-.25a.07.07,0,0,1,0,0,1.72,1.72,0,0,1,0-.24v0a1.55,1.55,0,0,1,.07-.23v0l.09-.23,0,0a2.12,2.12,0,0,1,.11-.21l0,0a2.14,2.14,0,0,1,.13-.19l0,0a1.46,1.46,0,0,1,.16-.19l0-.05.18-.18,0,0a3.83,3.83,0,0,1,2.29-.94l.33,0a4,4,0,0,1,2.14.6V39.48A4,4,0,0,0,32,38.89Z"/><g id="Group_10564" data-name="Group 10564"><path id="Path_18177" data-name="Path 18177" class="cls-3" d="M85.12,50.59V85.12a2,2,0,0,1-2,1.95H32a1.83,1.83,0,0,1-.33,0,3,3,0,1,1,0-6H32a4,4,0,0,1,2.14.59V41H74.6Z"/></g><g id="Group_10610" data-name="Group 10610"><g id="Group_10565" data-name="Group 10565"><rect id="Rectangle_2484" data-name="Rectangle 2484" class="cls-3" x="32.6" y="44.52" width="56.79" height="46.21" rx="5" transform="translate(-8.92 9.27) rotate(-8.1)"/></g><g id="Group_10566" data-name="Group 10566"><rect id="Rectangle_2485" data-name="Rectangle 2485" class="cls-4" x="34.92" y="44.52" width="56.79" height="46.21" rx="3" transform="translate(-8.9 9.6) rotate(-8.1)"/></g><g id="Group_10567" data-name="Group 10567"><path id="Path_18178" data-name="Path 18178" class="cls-5" d="M38.93,94.68a3.92,3.92,0,0,1-3.87-3.36L29.48,52.1a3.91,3.91,0,0,1,3.32-4.42L82.49,40.6a3.93,3.93,0,0,1,4.43,3.32L92.5,83.14a3.91,3.91,0,0,1-3.32,4.43l-49.7,7.07A3.31,3.31,0,0,1,38.93,94.68ZM83.05,41.79a2.34,2.34,0,0,0-.38,0L33,48.89a2.69,2.69,0,0,0-2.27,3l5.58,39.22a2.68,2.68,0,0,0,3,2.27L89,86.35a2.66,2.66,0,0,0,1.76-1,2.63,2.63,0,0,0,.51-2L85.7,44.09A2.68,2.68,0,0,0,83.05,41.79Z"/></g><g id="Group_10570" data-name="Group 10570"><g id="Group_10568" data-name="Group 10568"><path id="Path_18179" data-name="Path 18179" class="cls-3" d="M33.72,39.48v42.2a4,4,0,0,0-2.14-.59h-.33a3.26,3.26,0,0,0-3.25,3V41.88a3.32,3.32,0,0,1,3.58-3A3.93,3.93,0,0,1,33.72,39.48Z"/></g><g id="Group_10569" data-name="Group 10569" class="cls-6"><path id="Path_18180" data-name="Path 18180" class="cls-3" d="M33.72,39.48V40a4.36,4.36,0,0,0-.81-.08,3.32,3.32,0,0,0-3.58,3V81.75A2.86,2.86,0,0,0,28,84.08V41.88a3.32,3.32,0,0,1,3.58-3A4,4,0,0,1,33.72,39.48Z"/></g></g><g id="Group_10601" data-name="Group 10601"><g id="Group_10573" data-name="Group 10573"><g id="Group_10571" data-name="Group 10571"><path id="Path_18181" data-name="Path 18181" class="cls-7" d="M36,39.48v42.2a4,4,0,0,0-2.14-.59h-.33a3.26,3.26,0,0,0-3.25,3V41.88a3.32,3.32,0,0,1,3.58-3A3.93,3.93,0,0,1,36,39.48Z"/></g><g id="Group_10572" data-name="Group 10572" class="cls-6"><path id="Path_18182" data-name="Path 18182" class="cls-3" d="M36,39.48V40a4.36,4.36,0,0,0-.81-.08,3.32,3.32,0,0,0-3.58,3V81.75a2.86,2.86,0,0,0-1.33,2.33V41.88a3.32,3.32,0,0,1,3.58-3A4,4,0,0,1,36,39.48Z"/></g></g><g id="Group_10600" data-name="Group 10600"><g id="Group_10574" data-name="Group 10574"><path id="Path_18183" data-name="Path 18183" class="cls-4" d="M87.05,50.59V85.12a2,2,0,0,1-1.94,1.95H33.9a1.83,1.83,0,0,1-.33,0,3,3,0,1,1,0-6h.33a4.07,4.07,0,0,1,2.15.59V41H76.54Z"/></g><g id="Group_10599" data-name="Group 10599"><g id="Group_10575" data-name="Group 10575"><path id="Path_18184" data-name="Path 18184" class="cls-8" d="M41.92,66.83H47.3l6,3.89,3.08,3.13L44,79.07Z"/></g><g id="Group_10576" data-name="Group 10576"><path id="Path_18185" data-name="Path 18185" class="cls-8" d="M73.53,56l4.66-5.43h8.86l-.14,15.08Z"/></g><g id="Group_10578" data-name="Group 10578"><g id="Group_10577" data-name="Group 10577"><path id="Path_18186" data-name="Path 18186" class="cls-9" d="M71,87.07H66.44L65,85.28a11.2,11.2,0,0,1-2.59-7.16,7.65,7.65,0,0,0-3.57-6.5l-8-5.1a11.12,11.12,0,0,1-5.19-9.44V41H49V57.08a7.64,7.64,0,0,0,3.57,6.5l8,5.1a11.12,11.12,0,0,1,5.19,9.44,7.74,7.74,0,0,0,1.79,4.93Z"/></g></g><g id="Group_10579" data-name="Group 10579" class="cls-10"><path id="Path_18187" data-name="Path 18187" class="cls-5" d="M87,53.32H80.35a2.46,2.46,0,0,1-2.45-2.46v-.52a2.56,2.56,0,0,0,1.09.25h8Z"/><path id="Path_18188" data-name="Path 18188" class="cls-5" d="M87.13,53.43H80.36a2.57,2.57,0,0,1-2.56-2.57v-.69l.14.07a2.42,2.42,0,0,0,1,.25H87ZM78,50.5v.36a2.36,2.36,0,0,0,2.36,2.36h6.56l-.08-2.53H79a2.57,2.57,0,0,1-1-.19Z"/></g><g id="Group_10581" data-name="Group 10581"><g id="Group_10580" data-name="Group 10580"><path id="Path_18189" data-name="Path 18189" class="cls-3" d="M80.39,87.07H78.14V75.71l-22.7-19L54.17,41.05l2.25-.18,1.19,14.69L80.39,74.65Z"/></g></g><g id="Group_10583" data-name="Group 10583"><g id="Group_10582" data-name="Group 10582"><path id="Path_18190" data-name="Path 18190" class="cls-3" d="M45.35,87.07H43.1V78.55l16-7.16,7.39-7.07L68.06,66l-7.67,7.34L45.35,80Z"/></g></g><g id="Group_10584" data-name="Group 10584"><path id="Path_18191" data-name="Path 18191" class="cls-8" d="M66.77,41l1.15,7,5-.36L72.4,41Z"/></g><g id="Group_10586" data-name="Group 10586"><g id="Group_10585" data-name="Group 10585"><path id="Path_18192" data-name="Path 18192" class="cls-3" d="M43.11,79.47,40,60.74H36V58.48H41.9L45.34,79.1Z"/></g></g><g id="Group_10587" data-name="Group 10587"><path id="Path_18193" data-name="Path 18193" class="cls-11" d="M43.1,41l-2,10.86-5.11,3V41Z"/></g><g id="Group_10589" data-name="Group 10589"><g id="Group_10588" data-name="Group 10588"><path id="Path_18194" data-name="Path 18194" class="cls-3" d="M41.19,60.71l-.49-2.2,15.39-3.44,8.21-5-1.51-8.88L65,40.77l1.77,10.38-9.83,6Z"/></g></g><g id="Group_10591" data-name="Group 10591"><g id="Group_10590" data-name="Group 10590"><path id="Path_18195" data-name="Path 18195" class="cls-3" d="M86.75,66.22,82.44,65,64.85,51.48l1.37-1.78L83.47,63l3.88,1.06Z"/></g></g><g id="Group_10593" data-name="Group 10593"><g id="Group_10592" data-name="Group 10592"><rect id="Rectangle_2486" data-name="Rectangle 2486" class="cls-3" x="79.26" y="80.2" width="7.79" height="2.25"/></g></g><g id="Group_10594" data-name="Group 10594"><path id="Path_18196" data-name="Path 18196" class="cls-11" d="M69.87,72.29l6.23,4.33v5.83l-2.78.31-5.26-8.47Z"/></g><g id="Group_10595" data-name="Group 10595"><path id="Path_18197" data-name="Path 18197" class="cls-11" d="M62.92,55.46l2.62-1.79,7.37,5.89L71,62Z"/></g><g id="Group_10596" data-name="Group 10596"><path id="Path_18198" data-name="Path 18198" class="cls-11" d="M46.75,81.11v4.61L59.41,83l-.77-7.06Z"/></g><g id="Group_10597" data-name="Group 10597" class="cls-10"><path id="Path_18199" data-name="Path 18199" class="cls-5" d="M38.63,41v46.1H33.57a3,3,0,1,1,0-6l.33,0a4,4,0,0,1,2.14.6V41Z"/></g><g id="Group_10598" data-name="Group 10598" class="cls-10"><path id="Path_18200" data-name="Path 18200" class="cls-5" d="M37.92,89.32c.5,0,42.83-.9,42.83-.9l1.71-1.11H37.05Z"/></g></g></g></g><g id="Group_10602" data-name="Group 10602"><path id="Path_18201" data-name="Path 18201" class="cls-5" d="M28.39,84.69a.61.61,0,0,1-.62-.61V41.88A3.39,3.39,0,0,1,29,39.29a4.58,4.58,0,0,1,2.93-1,4.64,4.64,0,0,1,2.46.69.61.61,0,0,1,.29.52v42.2a.61.61,0,0,1-.94.52A3.47,3.47,0,0,0,32,81.7a1.27,1.27,0,0,0-.28,0h0A2.67,2.67,0,0,0,29,84.08.61.61,0,0,1,28.39,84.69ZM32,39.5a2.73,2.73,0,0,0-3,2.37V81.53a4.49,4.49,0,0,1,2.59-1l.38,0a4.61,4.61,0,0,1,1.52.25V39.84A3.32,3.32,0,0,0,32,39.5Z"/></g><g id="Group_10603" data-name="Group 10603"><path id="Path_18202" data-name="Path 18202" class="cls-7" d="M85.12,50.59H77.06a2.46,2.46,0,0,1-2.46-2.46V41Z"/></g><g id="Group_10604" data-name="Group 10604"><path id="Path_18203" data-name="Path 18203" class="cls-5" d="M85.12,51.21H77.06A3.08,3.08,0,0,1,74,48.13V41a.61.61,0,0,1,1-.45l10.51,9.63a.61.61,0,0,1,.16.67A.61.61,0,0,1,85.12,51.21Zm-9.9-8.85v5.77A1.84,1.84,0,0,0,77.06,50h6.48Z"/></g><g id="Group_10605" data-name="Group 10605"><path id="Path_18204" data-name="Path 18204" class="cls-5" d="M83.17,87.68H32a2.3,2.3,0,0,1-.38,0,4.41,4.41,0,0,1-2.67-1.11,3.33,3.33,0,0,1-1.14-2.47,3.37,3.37,0,0,1,1.14-2.48,4.53,4.53,0,0,1,2.67-1.11l.38,0a4.67,4.67,0,0,1,1.53.25V41a.61.61,0,0,1,.61-.61h40.5a.57.57,0,0,1,.41.16l10.52,9.63a.59.59,0,0,1,.2.45V85.12a2.57,2.57,0,0,1-2.57,2.56ZM32,81.7h-.28a2.38,2.38,0,1,0,0,4.73H83.17a1.33,1.33,0,0,0,1.33-1.33V50.86L74.36,41.57H34.72V81.68a.62.62,0,0,1-.32.54.6.6,0,0,1-.62,0A3.5,3.5,0,0,0,32,81.7Z"/></g><g id="Group_10606" data-name="Group 10606"><path id="Path_18205" data-name="Path 18205" class="cls-3" d="M47.24,27.44A9.22,9.22,0,0,0,38,36.66c0,3.71,4.9,10.61,7.56,14.08a2.09,2.09,0,0,0,2.94.39,1.8,1.8,0,0,0,.39-.39c2.66-3.47,7.56-10.37,7.56-14.08a9.22,9.22,0,0,0-9.22-9.22Zm0,12.9a3.89,3.89,0,1,1,3.89-3.9h0a3.89,3.89,0,0,1-3.89,3.89Z"/></g><g id="Group_10607" data-name="Group 10607"><path id="Path_18206" data-name="Path 18206" class="cls-12" d="M49.17,27.44A9.22,9.22,0,0,0,40,36.66h0c0,3.71,4.9,10.61,7.55,14.08a2.1,2.1,0,0,0,3,.39,2.4,2.4,0,0,0,.39-.39c2.65-3.47,7.55-10.37,7.55-14.08a9.22,9.22,0,0,0-9.22-9.22Zm0,12.9a3.89,3.89,0,0,1,0-7.78h0a3.88,3.88,0,0,1,3.89,3.88h0a3.89,3.89,0,0,1-3.89,3.89Z"/></g><g id="Group_10608" data-name="Group 10608"><path id="Path_18207" data-name="Path 18207" class="cls-5" d="M47.24,52.18a2.71,2.71,0,0,1-2.16-1.06,77.63,77.63,0,0,1-4.81-7c-1.9-3.21-2.87-5.71-2.87-7.45a9.84,9.84,0,0,1,19.67,0c0,1.74-1,4.24-2.86,7.45a77.74,77.74,0,0,1-4.82,7A2.7,2.7,0,0,1,47.24,52.18Zm0-24.12a8.61,8.61,0,0,0-8.61,8.6c0,2.55,2.71,7.54,7.43,13.71a1.46,1.46,0,0,0,1.18.58,1.44,1.44,0,0,0,1.17-.58c4.72-6.17,7.43-11.16,7.43-13.71A8.6,8.6,0,0,0,47.24,28.06Z"/></g><g id="Group_10609" data-name="Group 10609"><path id="Path_18208" data-name="Path 18208" class="cls-5" d="M47.24,41a4.51,4.51,0,1,1,4.5-4.5A4.51,4.51,0,0,1,47.24,41Zm0-7.78a3.28,3.28,0,1,0,3.28,3.28A3.28,3.28,0,0,0,47.24,33.17Z"/></g></g></g></g></g></svg>