<svg xmlns="http://www.w3.org/2000/svg" viewBox="0 0 121.51 121.51"><defs><style>.cls-1{fill:#ffdea9;}.cls-2,.cls-6,.cls-7{fill:none;}.cls-2{stroke:#59316d;stroke-miterlimit:10;}.cls-3{fill:#535c89;}.cls-4{fill:#f0edf5;}.cls-5{fill:#e3dae6;}.cls-6,.cls-7{stroke:#5a316b;stroke-linecap:round;stroke-linejoin:round;}.cls-7{stroke-width:2px;}.cls-8{fill:#f9afa1;}</style></defs><g id="Layer_2" data-name="Layer 2"><g id="Layer_2-2" data-name="Layer 2"><g id="Group_11470" data-name="Group 11470"><g id="Group_9650" data-name="Group 9650"><g id="Group_9647" data-name="Group 9647"><g id="Group_3660" data-name="Group 3660"><circle id="Ellipse_3" data-name="Ellipse 3" class="cls-1" cx="62" cy="63.22" r="50.73"/></g></g><g id="Group_9648" data-name="Group 9648"><path id="Path_58" data-name="Path 58" class="cls-2" d="M60.76.72l8.16,8.5L79.31,3.66l5.13,10.6L96,12.19l1.61,11.67,11.67,1.61-2.07,11.6,10.6,5.14L112.29,52.6l8.5,8.16-8.5,8.16,5.56,10.39-10.6,5.14,2.07,11.6L97.65,97.66,96,109.33l-11.6-2.08-5.14,10.6-10.38-5.56-8.17,8.5-8.16-8.5L42.2,117.85l-5.13-10.6-11.6,2.08L23.86,97.66,12.19,96.05l2.07-11.6L3.66,79.31,9.22,68.92.72,60.76l8.5-8.16L3.66,42.21l10.6-5.14-2.07-11.6,11.67-1.61,1.61-11.67,11.6,2.07,5.14-10.6L52.6,9.22Z"/></g></g></g><g id="Group_11473" data-name="Group 11473"><g id="Group_10789" data-name="Group 10789"><g id="Group_10787" data-name="Group 10787"><path id="Path_19762" data-name="Path 19762" class="cls-3" d="M47.08,53.09,31.76,80l2.93,5.09L55.91,66.75"/><path id="Path_19763" data-name="Path 19763" class="cls-3" d="M59.89,45.69l31,.21L93.83,51,67.31,60.17"/></g><g id="Group_10788" data-name="Group 10788"><path id="Path_19764" data-name="Path 19764" class="cls-3" d="M68.5,82.83l-5.76,9.56,1.41,2.45L73,87.38"/><path id="Path_19765" data-name="Path 19765" class="cls-3" d="M74.94,79.11l11.16-.2,1.41,2.44-10.87,3.9"/></g></g><g id="Group_10790" data-name="Group 10790"><path id="Path_19766" data-name="Path 19766" class="cls-4" d="M59.79,46.12C69,62.14,79.31,87.76,76.5,89.38S56.25,69.19,47,53.18,40.21,33,43,31.39,50.55,30.11,59.79,46.12Z"/><path id="Path_19767" data-name="Path 19767" class="cls-4" d="M37,70.86a9.61,9.61,0,0,1-2.39-4.61l3.47-2c.52.7,1,1.42,1.45,2.16"/><path id="Path_19768" data-name="Path 19768" class="cls-4" d="M41.87,62.13a9.57,9.57,0,0,1-2.39-4.61l3.47-2a24.66,24.66,0,0,1,1.45,2.16"/><path id="Path_19769" data-name="Path 19769" class="cls-4" d="M80.16,45.92a9.67,9.67,0,0,0-2.8-4.37l-3.47,2A23.92,23.92,0,0,0,75,45.88"/><path id="Path_19770" data-name="Path 19770" class="cls-4" d="M70.13,45.81a9.51,9.51,0,0,0-2.8-4.37l-3.46,2A23.92,23.92,0,0,0,65,45.77"/><path id="Path_19771" data-name="Path 19771" class="cls-5" d="M43,31.39a5,5,0,0,0-1.43,1.19c2.93-.42,7.48,2.13,15.1,15.33s15.87,32.76,17,40.27c1.3,1,2.27,1.49,2.77,1.2C79.31,87.76,69,62.14,59.8,46.12S45.83,29.77,43,31.39Z"/></g><path id="Path_19772" data-name="Path 19772" class="cls-6" d="M61.71,46.87C71,62.88,81.23,88.5,78.42,90.12s-20.25-20.18-29.5-36.2-6.79-20.16-4-21.79S52.47,30.85,61.71,46.87Z"/><path id="Path_19773" data-name="Path 19773" class="cls-6" d="M48.92,53.92l-15.32,27L36.53,86,57.75,67.58"/><path id="Path_19774" data-name="Path 19774" class="cls-6" d="M70.34,83.66l-5.76,9.57L66,95.67l8.81-7.46"/><path id="Path_19775" data-name="Path 19775" class="cls-6" d="M38.87,71.61A9.61,9.61,0,0,1,36.48,67L40,65c.52.69,1,1.41,1.45,2.15"/><path id="Path_19776" data-name="Path 19776" class="cls-6" d="M43.79,62.87a9.57,9.57,0,0,1-2.39-4.61l3.47-2a22.52,22.52,0,0,1,1.44,2.16"/><path id="Path_19777" data-name="Path 19777" class="cls-6" d="M61.73,46.53l31,.2,2.93,5.09L69.14,61"/><path id="Path_19778" data-name="Path 19778" class="cls-7" d="M76.77,79.94l11.17-.2,1.41,2.44-10.87,3.9"/><path id="Path_19779" data-name="Path 19779" class="cls-6" d="M82.07,46.66a9.51,9.51,0,0,0-2.8-4.37l-3.46,2A23.92,23.92,0,0,0,77,46.62"/><path id="Path_19780" data-name="Path 19780" class="cls-6" d="M72.05,46.55a9.56,9.56,0,0,0-2.8-4.37l-3.46,2a23,23,0,0,0,1.14,2.34"/><path id="Path_19781" data-name="Path 19781" class="cls-8" d="M49.68,40.63c1.4-.81,3.67.41,5.46,2.77a14.36,14.36,0,0,0-.76-1.52c-2-3.44-4.93-5.46-6.58-4.51s-1.37,4.51.61,8a16.77,16.77,0,0,0,.94,1.43C48.2,44,48.28,41.44,49.68,40.63Z"/><path id="Path_19782" data-name="Path 19782" class="cls-6" d="M49.68,40.63c1.4-.81,3.67.41,5.46,2.77a14.36,14.36,0,0,0-.76-1.52c-2-3.44-4.93-5.46-6.58-4.51s-1.37,4.51.61,8a16.77,16.77,0,0,0,.94,1.43C48.2,44,48.28,41.44,49.68,40.63Z"/></g></g></g></svg>