<svg xmlns="http://www.w3.org/2000/svg" width="176.653" height="157.087" viewBox="0 0 176.653 157.087">
  <g id="Componente_25_11" data-name="Componente 25 – 11" transform="translate(1.51 1.511)">
    <g id="Grupo_7991" data-name="Grupo 7991" transform="translate(8.483)">
      <g id="Grupo_7990" data-name="Grupo 7990">
        <path id="Caminho_13505" data-name="Caminho 13505" d="M143.243,10576.9,33.9,10656.947a6.763,6.763,0,0,1-9.449-1.493l-43.8-60.441a6.84,6.84,0,0,1,1.485-9.5l109.343-80.043a6.763,6.763,0,0,1,9.449,1.492l43.8,60.441A6.84,6.84,0,0,1,143.243,10576.9Z" transform="translate(20.642 -10504.178)" fill="#8fd8be"/>
        <path id="Caminho_13506" data-name="Caminho 13506" d="M127.7,10580.462l-85.312,62.363a13.2,13.2,0,0,0-18.431-2.906l-27.186-37.46a13.311,13.311,0,0,0,2.9-18.5l85.312-62.368a13.2,13.2,0,0,0,18.431,2.909l27.186,37.461A13.313,13.313,0,0,0,127.7,10580.462Z" transform="translate(19.642 -10505.177)" fill="#cbe7de"/>
        <ellipse id="Elipse_584" data-name="Elipse 584" cx="28.909" cy="28.522" rx="28.909" ry="28.522" transform="translate(38.499 77.295) rotate(-45.024)" fill="#8fd8be"/>
      </g>
      <circle id="Elipse_585" data-name="Elipse 585" cx="7.543" cy="7.543" r="7.543" transform="translate(40.952 94.489)" fill="#8fd8be"/>
      <circle id="Elipse_586" data-name="Elipse 586" cx="7.543" cy="7.543" r="7.543" transform="translate(110.622 43.945)" fill="#8fd8be"/>
    </g>
    <g id="Grupo_7992" data-name="Grupo 7992">
      <path id="Caminho_13507" data-name="Caminho 13507" d="M134.243,10576.9,24.9,10656.947a6.763,6.763,0,0,1-9.449-1.493l-43.8-60.441a6.84,6.84,0,0,1,1.485-9.5l109.343-80.043a6.763,6.763,0,0,1,9.449,1.492l43.8,60.441A6.84,6.84,0,0,1,134.243,10576.9Z" transform="translate(29.642 -10504.178)" fill="none" stroke="#59316d" stroke-miterlimit="10" stroke-width="3"/>
      <path id="Caminho_13508" data-name="Caminho 13508" d="M118.7,10580.462l-85.312,62.363a13.2,13.2,0,0,0-18.431-2.906l-27.186-37.46a13.311,13.311,0,0,0,2.9-18.5l85.312-62.368a13.2,13.2,0,0,0,18.431,2.909l27.186,37.461A13.313,13.313,0,0,0,118.7,10580.462Z" transform="translate(28.642 -10505.177)" fill="none" stroke="#59316d" stroke-miterlimit="10" stroke-width="3"/>
      <ellipse id="Elipse_587" data-name="Elipse 587" cx="28.909" cy="28.522" rx="28.909" ry="28.522" transform="translate(38.499 77.295) rotate(-45.024)" fill="none" stroke="#59316d" stroke-miterlimit="10" stroke-width="3"/>
      <circle id="Elipse_588" data-name="Elipse 588" cx="7.543" cy="7.543" r="7.543" transform="translate(40.952 94.489)" fill="none" stroke="#59316d" stroke-miterlimit="10" stroke-width="3"/>
      <circle id="Elipse_589" data-name="Elipse 589" cx="7.543" cy="7.543" r="7.543" transform="translate(110.622 43.945)" fill="none" stroke="#59316d" stroke-miterlimit="10" stroke-width="3"/>
      <path id="Caminho_13509" data-name="Caminho 13509" d="M68.627,10588.346l-6.1,4.44a3.772,3.772,0,1,1-4.44-6.1l9.145-6.66a3.771,3.771,0,0,0-4.44-6.1l-3.048,2.221a3.771,3.771,0,1,0-6.1,4.439,11.314,11.314,0,1,0,13.322,18.291l6.1-4.44a3.771,3.771,0,0,1,4.44,6.1l-9.146,6.661a3.771,3.771,0,1,0,4.441,6.1l3.048-2.221a3.771,3.771,0,1,0,6.1-4.44,11.314,11.314,0,1,0-13.322-18.29Z" transform="translate(15.531 -10516.582)" fill="#59316d"/>
    </g>
  </g>
</svg>
