<svg id="Grupo_9568" data-name="Grupo 9568" xmlns="http://www.w3.org/2000/svg" width="107.139" height="199.697" viewBox="0 0 107.139 199.697">
  <path id="Caminho_100" data-name="Caminho 100" d="M238.987,288.847c-.552-.331,8.374-23.835,16.1-28.344s40.583,8.374,49.6,28.344v3.037S267.975,306.239,238.987,288.847Z" transform="translate(-219.319 -130.378)" fill="#f9afa1"/>
  <path id="Caminho_101" data-name="Caminho 101" d="M311.236,73.494c0-8-22.64-14.494-50.568-14.494-21.737,0-40.27,3.931-47.419,9.448-2.037,1.572-3.149,3.272-3.149,5.047,0,.108.02.214.028.322H210.1l-.084,16.892a66.077,66.077,0,0,0,9.1,4.406v117.94c-3.7.385-6.226.979-7.086,1.838-6.5,6.5-2.526,19.583-.419,25.124,2.362,10.478,23.706,18.681,49.7,18.681,27.572,0,49.924-9.229,49.924-20.614a8.986,8.986,0,0,0-.568-3.115l-3.3-18.1V91.913c2.478-.818,3.865-1.348,3.865-1.348V73.816h-.028C311.216,73.709,311.236,73.6,311.236,73.494Zm-62.486,155.3c-7.164-.17-13.939-.984-18.7-6.777-.19.063-.376.128-.564.193a20.051,20.051,0,0,1-3.284-6.046V97.51a97.1,97.1,0,0,0,22.546,3.428Zm51.535-13.281-1.364-.1a3.375,3.375,0,0,1,.129.991,12.911,12.911,0,0,1-2.358,7.139l-.038-.016c-10.541,2.963-24.2,6.544-37.6,5.54-1.067-.08-2.143-.128-3.221-.159V101.023c4.391-.068,8.71-.352,12.884-.785v7.75c.027,0,.057-.007.083-.006a42.4,42.4,0,0,1,7,1.11V99.351a193.858,193.858,0,0,0,24.479-5.272Z" transform="translate(-208.47 -59)" fill="#d6e3f4"/>
  <path id="Caminho_102" data-name="Caminho 102" d="M307.365,193.806c-.121.055-.242.108-.363.161a38.124,38.124,0,0,1-4.455,4.128,4.127,4.127,0,0,1-.547.363v38.31a45.86,45.86,0,0,1,7.086,4.358V192.815A10.819,10.819,0,0,1,307.365,193.806Z" transform="translate(-241.749 -106.614)" fill="#d6e3f4"/>
  <g id="iasebp" transform="translate(1.546 2.441)">
    <g id="Grupo_47" data-name="Grupo 47">
      <path id="Caminho_103" data-name="Caminho 103" d="M260.419,62.789h7.086c1.328.2,2.653.422,3.987.581,10.809,1.288,21.652,2.334,32.415,3.93,6.25.927,11.783,3.4,12.556,10.949V83.4a12.468,12.468,0,0,0-.613,2.392c-.22,3.781-1.369,6.828-5.273,8.4-.749.3-1.316,2-1.324,3.055-.091,11.593-.054,23.187-.054,34.781q0,41.867.028,83.733c0,1.108.068,2.912.681,3.211,4,1.949,5.494,5.47,6.556,9.371v7.086a13.813,13.813,0,0,1-9.089,11.338c-1.29.512-2.55,1.1-3.85,1.589-15.611,5.849-31.8,7.449-48.316,6.422-11.828-.736-23.4-2.84-34.272-7.756-8.738-3.95-10.984-8.93-9.757-18.563.633-4.968,2.9-8.2,7.394-9.888,2.086-.784,2.537-2.009,2.534-4.1q-.094-57.78.012-115.56c0-2.365-.765-3.372-2.955-4.04-3.916-1.194-6.522-3.625-6.3-8.151.037-.738-.16-1.485-.2-2.231-.644-12.788.321-14.6,11.371-16.968,10.608-2.275,21.583-2.835,32.4-4.147C257.1,63.174,258.758,62.984,260.419,62.789Zm3.577,1c-10.751.962-21.556,1.551-32.234,3.041-5.518.77-10.936,2.831-16.16,4.911-2.957,1.178-2.851,3.312-.059,4.925a25.283,25.283,0,0,0,6.8,2.794c26.154,6.08,52.43,5.865,78.713,1a43.7,43.7,0,0,0,11.068-4.021c2.552-1.254,2.5-3.187.033-4.609a31.989,31.989,0,0,0-7.668-3.178C291.243,65.138,277.671,64.526,264,63.787Zm51.168,13.291c-7.833,4.174-15.6,5.215-23.332,6.312a208.491,208.491,0,0,1-43.286,1.234c-12.1-.81-24.358-1.5-35.38-7.666-.835,15.158-.745,15.327,12.136,18.854.722.2,1.458.35,2.193.488a193.108,193.108,0,0,0,60.1,1.67c7.479-.939,14.824-3.113,22.138-5.068,1.609-.43,3.726-2.114,4.056-3.571C314.69,85.347,314.763,81.175,315.164,77.078Zm-.65,150.888c-4.733,4.08-9.778,6.267-17.849,8.152-14.858,3.472-29.954,4.126-45.046,3.008-13.589-1.007-27.291-2.354-38.938-10.8-1.654,9,.624,13.7,8.454,17.446a47.187,47.187,0,0,0,4.743,1.963c16.347,5.733,33.2,7.219,50.335,5.544,10.475-1.024,20.751-3.108,30.415-7.554C313.831,242.416,316.833,235.868,314.514,227.966Zm-53.838-69.13c3.423-.089,1.77-3.357,2.735-4.878a18.15,18.15,0,0,0,5.309-2.878,73.839,73.839,0,0,0,8.458-7.864c5.86-6.787,11.5-13.771,17.063-20.8.943-1.191,1.877-3.307,1.431-4.461a7.978,7.978,0,0,0-3.959-4.1c-10.961-4.542-22.508-4.3-34.412-3.991a55.791,55.791,0,0,0,.078,7.628c.32,2.222-.952,4.438.943,6.859.953,1.218-.774,4.382-.973,6.694a50.442,50.442,0,0,0-.013,7.4c.129,2.108.565,4.2.938,6.805l9.167.47-1.72-2.872,7.161,2.413c-2.9,2.3-5.045,4.515-7.637,5.9-2.254,1.207-4.48,0-6.151-1.975a1.426,1.426,0,0,0-1.375.1,1.567,1.567,0,0,0-.216,1.387C258.449,153.247,259.482,155.795,260.675,158.835ZM258.3,189.128a18.874,18.874,0,0,0-.966,3.714c-.077,5.25-.057,10.5-.028,15.752.032,5.845.11,11.691.171,17.915a24.919,24.919,0,0,0,3.144-.433c.451-.12.873-1.007,1.169-.939,1.386.32,2.725,1.243,4.08,1.242,9.026,0,18.008-.626,26.314-4.6,5.593-2.673,6.188-5.358,2.344-10.252a82.357,82.357,0,0,0-25.224-21.022,33.039,33.039,0,0,0-5.9-2.063c-.2-.064-.492.168-.949.343.651.521,1.127.9,1.6,1.288C262.144,193.416,260.614,194.407,258.3,189.128Zm-8.566-88.833v4.789q0,43.115,0,86.231c0,13.194-.055,26.388.069,39.581a4.348,4.348,0,0,0,1.847,3.348c3.1,1.37,4.645.076,4.645-3.475q.009-63.238.007-126.476c0-1.144,0-2.288,0-3.642Zm50.361,91.6V122.433a9.186,9.186,0,0,0-.962,1.4,49.606,49.606,0,0,1-14.157,20.335,25.981,25.981,0,0,0-4.561,5.758c-3.558,5.7-3.29,11.4.807,16.717a50.021,50.021,0,0,0,5.6,5.688C292.7,177.846,296.765,184.546,300.1,191.892ZM303,96.641c0,2.932.167,5.716-.038,8.473-.333,4.478-1.3,8.935-1.319,13.4-.127,26.084-.058,52.169-.048,78.253a15.5,15.5,0,0,0,.138,2.889c1.386,7.258,2.17,14.522.318,21.8,5.127,1.368,6.019.733,6.019-4.069q0-59.254,0-118.508V95.19ZM230.333,130.33v54.436c3.572-4.21,7.05-9.142,11.352-13.2,8.488-8.005,9.086-18.672,1.1-27.218C238.431,139.692,234.308,134.821,230.333,130.33Zm-6.884-33.9-1.055.282v3.478q0,50.058,0,100.115c0,5.794.032,11.589-.022,17.383-.018,1.942.5,3.088,2.5,2.769,0-5.273-.492-10.419.138-15.425.634-5.041,2.407-9.937,3.621-14.91a12.231,12.231,0,0,0,.226-2.869q.018-29.777-.012-59.553a10.375,10.375,0,0,0-.476-3.459,64.288,64.288,0,0,1-3.96-25.223C224.448,98.174,223.786,97.295,223.449,96.431Zm76.8,119.594c0-3.976-.18-7.176.033-10.348.73-10.857-3.671-19.889-10.2-27.98-3.7-4.583-8.115-8.587-12.337-12.986,0,8.663.118,17.323-.07,25.977a6.367,6.367,0,0,0,2.919,5.847c6.6,4.978,12.927,10.263,17.057,17.667C298.008,214.854,298.982,215.165,300.246,216.026ZM230.12,213.99c3.689-4.393,6.757-9.556,11.184-12.947,5.985-4.585,8.372-9.64,7.558-17.088-.676-6.187-.138-12.507-.138-18.627-3.156,3.336-6.537,6.292-9.143,9.819-3.47,4.695-8,9.5-9.066,14.863C228.972,197.791,230.12,206.106,230.12,213.99ZM299.769,97.608l-21.838,2.864V108.5c5.34,1.621,10.483,2.787,15.295,4.762,4.106,1.685,4.727,4.123,2.951,8.01-3.54,7.745-9.088,14.062-15.2,19.765-3.214,3-3.607,6.1-3,10.3,1.151-1.718,2.009-3.156,3.026-4.473a25.563,25.563,0,0,1,3.4-3.847C298.45,130.955,302.342,115.449,299.769,97.608Zm-51.027,99.334-.832-.582c-3.194,3.079-6.66,5.93-9.506,9.3a83.122,83.122,0,0,0-7.159,10.587c-1.317,2.166-.8,4.421,1.685,5.277,4.772,1.645,9.674,2.914,15.639,4.668C248.87,215.658,248.641,206.294,248.742,196.943Zm-.273-73.609V110.04c-4.612,1.346-8.9,2.33-12.971,3.865-3.71,1.4-4.558,3.663-2.967,7.279,3.553,8.08,9.433,14.408,15.846,20.839.131-3.23.29-5.947.339-8.666.056-3.068.013-6.138.013-9.159l-4.936-1.111.055-.325Zm3.76,112.351a38.325,38.325,0,0,0,4.985.864c11.273.321,22.564.036,33.561-2.516a104.412,104.412,0,0,0,18.634-6.576c3.447-1.534,3.238-3.5.212-6.238-2.073,2.478-4.8,2.231-7.607,1.717a2.98,2.98,0,0,0-2.014.151c-8.222,5.863-17.781,7.11-27.429,7.932-4.976.424-9.982.505-15.286.756C258.119,235.7,255.517,235.744,252.23,235.685Zm5.137-82.8v31.281c4.156-.493,4.825.092,4.466,3.716l2.6-3.8c3.368-.591.286,5.306,4.255,4.118V153.7l-4.205,1.288.66.64c-1.353,1.5-2.627,4.184-4.075,4.282C256.232,160.234,259.528,155.453,257.367,152.884Zm18.973,40.184V145.979c-1.861,1.671-3.453,2.916-4.8,4.386a4.947,4.947,0,0,0-1.386,2.923q-.144,17.2-.017,34.41a3.29,3.29,0,0,0,1.1,2.323A55.153,55.153,0,0,0,276.339,193.069Zm-56.588,25.665c-1.61,1.937-4.213,3.7-4.245,5.518-.028,1.574,2.574,3.774,4.495,4.708,9.5,4.62,19.781,6.047,29.82,7.043a28.628,28.628,0,0,0-1.129-3.581c-.34-.739-1.018-1.858-1.58-1.88-9.216-.359-16.42-5.977-24.5-9.279C221.806,220.931,221.218,220.055,219.752,218.733Zm10.422-102.167c5.113-5.809,12.075-5.807,18.358-7.482v-8.705l-18.358-2.092ZM257.7,228l-.689.866c.83.47,1.7,1.406,2.486,1.34,9.134-.773,18.325-1.281,27.351-2.767,4.149-.683,8.1-3.122,11.886-5.226,2.246-1.248,1.936-3.5.345-6.384-1.786,5.159-5.471,7.168-9.445,8.4a67.109,67.109,0,0,1-12.792,2.744C270.5,227.626,264.086,227.682,257.7,228Zm-9.1-78.409c.781-3.352-.481-6.01-3.135-8.763a146.922,146.922,0,0,1-11.3-13.95,54.261,54.261,0,0,1-3.737-6.685c-.332,2.38-.457,4.827.547,6.652a89.875,89.875,0,0,0,7.864,12.034C241.835,142.695,245.375,146.084,248.6,149.586Zm20.214-48.707H257.486v7.453h11.332Zm-39.961,94.151c-2.861,8.316-4.506,16.687-1.585,25.417.816-.6,1.527-1.317,1.534-2.041C228.888,210.614,228.858,202.822,228.858,195.029Zm-1.3-75.191,1.305-.124c0-6.613-.047-13.226.025-19.838.026-2.42-1.3-2.446-3.841-2.183C225.9,105.209,226.732,112.524,227.561,119.838Zm42.651-11.351,6.23.3v-8.2h-6.23ZM228.379,221.531c3.008,4.107,13.406,7.869,20.253,7.388,0-.51.153-1.42-.022-1.488-6.178-2.4-13.373-1.835-18.813-6.471C229.622,220.812,228.89,221.315,228.379,221.531Zm-14.81,2.622c-.05,4.217,6.432,8.663,12.988,9.063C221.748,230.836,215.9,230.173,213.569,224.153Zm99.991.21c-1.833,5.167-6.894,5.98-11.225,8.324C308.851,231.74,313.488,228.313,313.56,224.363Z" transform="translate(-210.869 -62.789)" fill="#59316d"/>
      <path id="Caminho_104" data-name="Caminho 104" d="M287.233,214.14c.919,1.683,1.7,2.577,1.806,3.546.049.43-1.255,1.42-1.934,1.41-.644-.01-1.855-1.078-1.789-1.533C285.454,216.611,286.267,215.756,287.233,214.14Z" transform="translate(-237.358 -116.642)" fill="#59316d"/>
    </g>
  </g>
</svg>
