<svg xmlns="http://www.w3.org/2000/svg" width="1084.966" height="1231.532" viewBox="0 0 1084.966 1231.532">
  <g id="Grupo_9570" data-name="Grupo 9570" transform="translate(5949.427 -7422.234)">
    <rect id="Retângulo_2133" data-name="Retângulo 2133" width="1025.307" height="765.487" rx="53" transform="translate(-5946.541 8379.44) rotate(-69)" fill="#fff"/>
    <g id="Linha_193" data-name="Linha 193" transform="translate(-5652.063 7576.827)">
      <rect id="Retângulo_2135" data-name="Retângulo 2135" width="0.848" height="765.022" transform="translate(0 0.791) rotate(-69)" fill="#ede6f0"/>
    </g>
    <g id="Linha_207" data-name="Linha 207" transform="translate(-5636.267 7535.676)">
      <rect id="Retângulo_2136" data-name="Retângulo 2136" width="0.848" height="765.022" transform="translate(0 0.791) rotate(-69)" fill="#ede6f0"/>
    </g>
    <g id="Linha_194" data-name="Linha 194" transform="translate(-5668.163 7618.768)">
      <rect id="Retângulo_2137" data-name="Retângulo 2137" width="0.848" height="765.023" transform="translate(0 0.791) rotate(-69)" fill="#ede6f0"/>
    </g>
    <g id="Linha_195" data-name="Linha 195" transform="translate(-5715.854 7743.009)">
      <rect id="Retângulo_2138" data-name="Retângulo 2138" width="0.848" height="765.023" transform="translate(0 0.791) rotate(-69)" fill="#ede6f0"/>
    </g>
    <g id="Linha_196" data-name="Linha 196" transform="translate(-5731.651 7784.159)">
      <rect id="Retângulo_2139" data-name="Retângulo 2139" width="0.848" height="765.023" transform="translate(0 0.791) rotate(-69)" fill="#ede6f0"/>
    </g>
    <g id="Linha_197" data-name="Linha 197" transform="translate(-5747.75 7826.1)">
      <rect id="Retângulo_2140" data-name="Retângulo 2140" width="0.848" height="765.023" transform="translate(0 0.791) rotate(-69)" fill="#ede6f0"/>
    </g>
    <g id="Linha_198" data-name="Linha 198" transform="translate(-5763.112 7867.417)">
      <rect id="Retângulo_2141" data-name="Retângulo 2141" width="0.848" height="765.021" transform="translate(0 0.791) rotate(-69)" fill="#ede6f0"/>
    </g>
    <g id="Linha_199" data-name="Linha 199" transform="translate(-5779.342 7908.4)">
      <rect id="Retângulo_2142" data-name="Retângulo 2142" width="0.848" height="765.023" transform="translate(0 0.791) rotate(-69)" fill="#ede6f0"/>
    </g>
    <g id="Linha_200" data-name="Linha 200" transform="translate(-5795.442 7950.341)">
      <rect id="Retângulo_2143" data-name="Retângulo 2143" width="0.848" height="765.023" transform="translate(0 0.791) rotate(-69)" fill="#ede6f0"/>
    </g>
    <g id="Linha_201" data-name="Linha 201" transform="translate(-5811.238 7991.491)">
      <rect id="Retângulo_2144" data-name="Retângulo 2144" width="0.848" height="765.022" transform="translate(0 0.791) rotate(-69)" fill="#ede6f0"/>
    </g>
    <g id="Linha_202" data-name="Linha 202" transform="translate(-5827.034 8032.641)">
      <rect id="Retângulo_2145" data-name="Retângulo 2145" width="0.848" height="765.023" transform="translate(0 0.791) rotate(-69)" fill="#ede6f0"/>
    </g>
    <g id="Linha_203" data-name="Linha 203" transform="translate(-5842.699 8074.749)">
      <rect id="Retângulo_2146" data-name="Retângulo 2146" width="0.848" height="765.021" transform="translate(0 0.791) rotate(-69)" fill="#ede6f0"/>
    </g>
    <g id="Linha_206" data-name="Linha 206" transform="translate(-5858.495 8115.898)">
      <rect id="Retângulo_2147" data-name="Retângulo 2147" width="0.848" height="765.021" transform="translate(0 0.791) rotate(-69)" fill="#ede6f0"/>
    </g>
    <g id="Linha_208" data-name="Linha 208" transform="translate(-5874.292 8157.048)">
      <rect id="Retângulo_2148" data-name="Retângulo 2148" width="0.848" height="765.021" transform="translate(0 0.791) rotate(-69)" fill="#ede6f0"/>
    </g>
    <g id="Linha_210" data-name="Linha 210" transform="translate(-5890.391 8198.99)">
      <rect id="Retângulo_2149" data-name="Retângulo 2149" width="0.848" height="765.021" transform="translate(0 0.791) rotate(-69)" fill="#ede6f0"/>
    </g>
    <g id="Linha_211" data-name="Linha 211" transform="translate(-5906.187 8240.14)">
      <rect id="Retângulo_2150" data-name="Retângulo 2150" width="0.848" height="765.021" transform="translate(0 0.791) rotate(-69)" fill="#ede6f0"/>
    </g>
    <g id="Linha_212" data-name="Linha 212" transform="translate(-5921.983 8281.289)">
      <rect id="Retângulo_2151" data-name="Retângulo 2151" width="0.848" height="765.021" transform="translate(0 0.791) rotate(-69)" fill="#ede6f0"/>
    </g>
    <g id="Linha_213" data-name="Linha 213" transform="translate(-5938.083 8323.23)">
      <rect id="Retângulo_2152" data-name="Retângulo 2152" width="0.848" height="765.022" transform="translate(0 0.791) rotate(-69)" fill="#ede6f0"/>
    </g>
    <g id="Linha_204" data-name="Linha 204" transform="translate(-5683.959 7659.917)">
      <rect id="Retângulo_2153" data-name="Retângulo 2153" width="0.848" height="765.023" transform="translate(0 0.791) rotate(-69)" fill="#ede6f0"/>
    </g>
    <g id="Linha_205" data-name="Linha 205" transform="translate(-5699.755 7701.068)">
      <rect id="Retângulo_2154" data-name="Retângulo 2154" width="0.848" height="765.022" transform="translate(0 0.791) rotate(-69)" fill="#ede6f0"/>
    </g>
    <g id="Ingredientes:_" data-name="Ingredientes: " transform="translate(-5525.982 7546.023)" style="isolation: isolate">
      <g id="Grupo_8477" data-name="Grupo 8477" style="isolation: isolate">
        <path id="Caminho_13728" data-name="Caminho 13728" d="M3839.671,2535.437a.344.344,0,0,1-.007-.273l7.187-18.723a.342.342,0,0,1,.188-.2.337.337,0,0,1,.272-.007l3.933,1.511a.34.34,0,0,1,.2.187.344.344,0,0,1,.007.273l-7.187,18.723a.355.355,0,0,1-.46.206l-3.933-1.511A.342.342,0,0,1,3839.671,2535.437Z" transform="translate(-3839.639 -2516.21)"/>
        <path id="Caminho_13729" data-name="Caminho 13729" d="M3864.628,2530.928a5.358,5.358,0,0,1-.045,4.257l-3.5,9.112a.342.342,0,0,1-.187.2.338.338,0,0,1-.272.007l-3.933-1.51a.353.353,0,0,1-.2-.46l3.115-8.115a2.45,2.45,0,0,0,.069-1.753,1.832,1.832,0,0,0-1.123-1.131,1.887,1.887,0,0,0-1.614.063,2.443,2.443,0,0,0-1.126,1.363l-3.115,8.115a.347.347,0,0,1-.187.2.339.339,0,0,1-.273.007l-3.932-1.509a.355.355,0,0,1-.205-.46l5.241-13.655a.35.35,0,0,1,.187-.2.346.346,0,0,1,.273-.006l3.933,1.51a.354.354,0,0,1,.2.459l-.394,1.025c-.028.074-.03.121,0,.141s.064.009.123-.031a3.923,3.923,0,0,1,3.951-.358A5.169,5.169,0,0,1,3864.628,2530.928Z" transform="translate(-3840.924 -2517.614)"/>
        <path id="Caminho_13730" data-name="Caminho 13730" d="M3880.308,2535.937a.343.343,0,0,1,.272-.006l3.934,1.51a.352.352,0,0,1,.2.459l-4.752,12.381q-1.457,3.794-4.272,4.588a9.645,9.645,0,0,1-6.167-.492,18.026,18.026,0,0,1-2.547-1.23c-.178-.09-.224-.245-.138-.467l1.456-3.381c.05-.131.12-.2.213-.22a.335.335,0,0,1,.282.092,10.559,10.559,0,0,0,2.008,1.057,4.2,4.2,0,0,0,2.77.238,2.905,2.905,0,0,0,1.786-1.92l-.269.119a4.178,4.178,0,0,1-3.263-.108,7.582,7.582,0,0,1-3.043-2.09,4.97,4.97,0,0,1-1.1-3.664,11.172,11.172,0,0,1,.812-3.439,10.47,10.47,0,0,1,1.865-3.288,6.235,6.235,0,0,1,3.089-1.96,5.741,5.741,0,0,1,3.648.226,4.169,4.169,0,0,1,2.605,2.4.122.122,0,0,0,.095.084c.041.005.072-.02.094-.075l.233-.609A.345.345,0,0,1,3880.308,2535.937Zm-2.75,6.873a10.169,10.169,0,0,0,.4-1.2,3.3,3.3,0,0,0,.092-.9,2.031,2.031,0,0,0-1.383-2.026,2.04,2.04,0,0,0-2.356.59,4.64,4.64,0,0,0-1.2,1.89,4.491,4.491,0,0,0-.405,2.131,2.363,2.363,0,0,0,.386,1.23,2.117,2.117,0,0,0,1.053.817,1.961,1.961,0,0,0,2.373-.552A6.648,6.648,0,0,0,3877.558,2542.809Z" transform="translate(-3843.778 -2518.908)"/>
        <path id="Caminho_13731" data-name="Caminho 13731" d="M3898.935,2542.969a.388.388,0,0,1,.007.479l-2.115,3.606c-.1.215-.258.23-.462.044a4.786,4.786,0,0,0-.9-.471,3.841,3.841,0,0,0-.741-.221,2.735,2.735,0,0,0-1.71.107,2.045,2.045,0,0,0-1.16,1.239l-2.8,7.284a.354.354,0,0,1-.459.205l-3.933-1.51a.354.354,0,0,1-.2-.46l5.241-13.655a.354.354,0,0,1,.46-.2l3.932,1.51a.347.347,0,0,1,.2.186.342.342,0,0,1,.006.273l-.34.887a.117.117,0,0,0,.013.131c.03.034.064.025.1-.024a3.7,3.7,0,0,1,3.444-.362A3.053,3.053,0,0,1,3898.935,2542.969Z" transform="translate(-3846.465 -2519.741)"/>
        <path id="Caminho_13732" data-name="Caminho 13732" d="M3912.61,2557.474a.346.346,0,0,1-.488.194l-8.447-3.243a.21.21,0,0,0-.127,0,.075.075,0,0,0-.064.086,3.954,3.954,0,0,0-.032.91,2.638,2.638,0,0,0,.636,1.325,3.65,3.65,0,0,0,1.5.988,3.706,3.706,0,0,0,3.178-.083.339.339,0,0,1,.3-.043.283.283,0,0,1,.179.2l1.2,3.257a.283.283,0,0,1,.026.264.347.347,0,0,1-.2.179,6.736,6.736,0,0,1-3.012.686,9.162,9.162,0,0,1-3.33-.641,8.51,8.51,0,0,1-3.858-2.738,6.609,6.609,0,0,1-1.36-4.033,9.627,9.627,0,0,1,.748-3.686,9.331,9.331,0,0,1,1.505-2.6,6.833,6.833,0,0,1,7.979-1.99,7.153,7.153,0,0,1,2.965,2.045,6.866,6.866,0,0,1,1.5,3.085,8.674,8.674,0,0,1-.041,3.625A11.826,11.826,0,0,1,3912.61,2557.474Zm-7.621-6.39a2.574,2.574,0,0,0-.362.529q-.109.117.058.181l3.933,1.51a.1.1,0,0,0,.153-.068,1.945,1.945,0,0,0,.1-.6,1.977,1.977,0,0,0-.3-1.324,2.343,2.343,0,0,0-1.148-.854A1.988,1.988,0,0,0,3904.989,2551.084Z" transform="translate(-3848.639 -2520.743)"/>
        <path id="Caminho_13733" data-name="Caminho 13733" d="M3931.167,2549.042a.34.34,0,0,1,.272-.007l3.934,1.51a.354.354,0,0,1,.2.46l-7.187,18.723a.352.352,0,0,1-.459.205l-3.933-1.51a.354.354,0,0,1-.2-.46l.351-.914c.021-.054.014-.094-.019-.119a.126.126,0,0,0-.127,0,3.963,3.963,0,0,1-3.77.3,5.64,5.64,0,0,1-2.9-2.418,6.531,6.531,0,0,1-.873-3.893,12.07,12.07,0,0,1,.79-3.384,10.6,10.6,0,0,1,1.922-3.266,6.415,6.415,0,0,1,3.1-1.989,5.874,5.874,0,0,1,3.8.251,3.866,3.866,0,0,1,2.519,2.46c.016.07.046.1.09.1a.119.119,0,0,0,.1-.09l2.211-5.76A.339.339,0,0,1,3931.167,2549.042Zm-4.76,12.108a5.259,5.259,0,0,0,.431-2.695,2.031,2.031,0,0,0-3.334-1.248,5.16,5.16,0,0,0-1.5,2.252,5.319,5.319,0,0,0-.416,2.574,2.01,2.01,0,0,0,1.341,1.721,1.963,1.963,0,0,0,2.1-.43A5.392,5.392,0,0,0,3926.408,2561.149Z" transform="translate(-3851.34 -2521.207)"/>
        <path id="Caminho_13734" data-name="Caminho 13734" d="M3933.448,2571.356a.345.345,0,0,1-.006-.274l5.242-13.654a.34.34,0,0,1,.187-.2.345.345,0,0,1,.272-.006l3.933,1.51a.352.352,0,0,1,.2.459l-5.241,13.654a.355.355,0,0,1-.46.206l-3.932-1.51A.341.341,0,0,1,3933.448,2571.356Zm6.707-15.985a2.749,2.749,0,0,1,1.335-3.475,2.772,2.772,0,0,1,3.463,1.329,2.5,2.5,0,0,1,.008,2,2.53,2.53,0,0,1-1.338,1.458,2.478,2.478,0,0,1-2,.027A2.511,2.511,0,0,1,3940.156,2555.371Z" transform="translate(-3853.927 -2521.616)"/>
        <path id="Caminho_13735" data-name="Caminho 13735" d="M3957.6,2574.745a.345.345,0,0,1-.487.194l-8.448-3.242a.2.2,0,0,0-.127,0,.075.075,0,0,0-.064.085,4.006,4.006,0,0,0-.032.91,2.631,2.631,0,0,0,.636,1.324,3.639,3.639,0,0,0,1.5.988,3.7,3.7,0,0,0,3.178-.082.336.336,0,0,1,.3-.043.281.281,0,0,1,.179.195l1.2,3.257a.279.279,0,0,1,.026.264.346.346,0,0,1-.2.178,6.727,6.727,0,0,1-3.012.687,9.111,9.111,0,0,1-3.329-.641,8.523,8.523,0,0,1-3.86-2.737,6.612,6.612,0,0,1-1.36-4.033,9.629,9.629,0,0,1,.748-3.687,9.323,9.323,0,0,1,1.506-2.6,6.948,6.948,0,0,1,3.606-2.318,7.039,7.039,0,0,1,4.371.327,7.169,7.169,0,0,1,2.965,2.045,6.87,6.87,0,0,1,1.5,3.086,8.678,8.678,0,0,1-.041,3.624A11.8,11.8,0,0,1,3957.6,2574.745Zm-7.621-6.39a2.538,2.538,0,0,0-.362.529c-.072.078-.053.138.058.181l3.933,1.51a.106.106,0,0,0,.154-.069,2.006,2.006,0,0,0,.1-.6,1.978,1.978,0,0,0-.3-1.323,2.337,2.337,0,0,0-1.148-.854A1.989,1.989,0,0,0,3949.982,2568.356Z" transform="translate(-3855.494 -2523.375)"/>
        <path id="Caminho_13736" data-name="Caminho 13736" d="M3976.181,2573.749a5.367,5.367,0,0,1-.046,4.257l-3.5,9.112a.355.355,0,0,1-.46.205l-3.932-1.51a.354.354,0,0,1-.205-.46l3.115-8.115a2.454,2.454,0,0,0,.069-1.754,1.831,1.831,0,0,0-1.122-1.13,1.889,1.889,0,0,0-1.614.063,2.44,2.44,0,0,0-1.127,1.364l-3.115,8.115a.354.354,0,0,1-.46.205l-3.932-1.51a.342.342,0,0,1-.2-.187.346.346,0,0,1-.006-.273l5.242-13.654a.343.343,0,0,1,.187-.2.349.349,0,0,1,.272-.006l3.933,1.511a.341.341,0,0,1,.2.186.349.349,0,0,1,.007.274l-.393,1.025c-.029.073-.031.119-.007.14s.066.008.124-.031a3.925,3.925,0,0,1,3.951-.359A5.169,5.169,0,0,1,3976.181,2573.749Z" transform="translate(-3857.92 -2524.138)"/>
        <path id="Caminho_13737" data-name="Caminho 13737" d="M3990.769,2581.4a.342.342,0,0,1-.272.007l-2.521-.968a.132.132,0,0,0-.192.086l-1.934,5.041q-.6,1.577.668,2.067l1.025.393a.355.355,0,0,1,.205.46l-1.233,3.213a.366.366,0,0,1-.471.233q-1.349-.456-1.96-.688a7.1,7.1,0,0,1-3.28-2.133,3.5,3.5,0,0,1-.081-3.351l2.658-6.924a.132.132,0,0,0-.085-.193l-1.578-.606a.352.352,0,0,1-.205-.459l1.159-3.018a.354.354,0,0,1,.46-.205l1.578.607a.132.132,0,0,0,.192-.086l1.287-3.351a.354.354,0,0,1,.46-.206l3.739,1.436a.342.342,0,0,1,.2.186.347.347,0,0,1,.007.274l-1.287,3.351a.131.131,0,0,0,.085.191l2.521.968a.353.353,0,0,1,.2.459l-1.159,3.019A.342.342,0,0,1,3990.769,2581.4Z" transform="translate(-3861.077 -2524.602)"/>
        <path id="Caminho_13738" data-name="Caminho 13738" d="M4006.027,2593.333a.346.346,0,0,1-.488.195l-8.447-3.242a.193.193,0,0,0-.127,0,.076.076,0,0,0-.064.086,4.021,4.021,0,0,0-.032.911,2.646,2.646,0,0,0,.636,1.323,3.659,3.659,0,0,0,1.5.988,3.706,3.706,0,0,0,3.178-.083.338.338,0,0,1,.3-.042.283.283,0,0,1,.179.2l1.2,3.256a.28.28,0,0,1,.025.263.341.341,0,0,1-.2.18,6.755,6.755,0,0,1-3.012.687,9.139,9.139,0,0,1-3.329-.642,8.525,8.525,0,0,1-3.859-2.737,6.612,6.612,0,0,1-1.36-4.033,9.623,9.623,0,0,1,.748-3.686,9.327,9.327,0,0,1,1.506-2.6,6.948,6.948,0,0,1,3.607-2.318,7.038,7.038,0,0,1,4.371.328,7.165,7.165,0,0,1,2.965,2.044,6.876,6.876,0,0,1,1.5,3.087,8.684,8.684,0,0,1-.04,3.623A11.866,11.866,0,0,1,4006.027,2593.333Zm-7.621-6.39a2.567,2.567,0,0,0-.361.529c-.073.079-.053.138.058.18l3.932,1.51a.1.1,0,0,0,.153-.068,1.912,1.912,0,0,0,.1-.6,1.972,1.972,0,0,0-.3-1.323,2.344,2.344,0,0,0-1.149-.855A1.989,1.989,0,0,0,3998.406,2586.944Z" transform="translate(-3862.871 -2526.207)"/>
        <path id="Caminho_13739" data-name="Caminho 13739" d="M4010.676,2601.908a5.4,5.4,0,0,1-1.672-2.39,3.75,3.75,0,0,1,.077-2.56l.117-.306a.358.358,0,0,1,.46-.2l3.739,1.435a.355.355,0,0,1,.2.459,1.083,1.083,0,0,0,.247,1.1,3.026,3.026,0,0,0,1.335.911,2.648,2.648,0,0,0,1.334.209.851.851,0,0,0,.728-.531.736.736,0,0,0-.235-.837,8.469,8.469,0,0,0-1.41-1,14.644,14.644,0,0,1-2.518-1.888,6.886,6.886,0,0,1-1.685-2.316,3.566,3.566,0,0,1,.089-2.714,4.342,4.342,0,0,1,2.988-2.778,7.684,7.684,0,0,1,4.9.436,8.839,8.839,0,0,1,3.026,1.845,5.382,5.382,0,0,1,1.531,2.51,4.46,4.46,0,0,1-.181,2.791.356.356,0,0,1-.46.206l-3.628-1.394a.344.344,0,0,1-.2-.188.34.34,0,0,1-.007-.273,1.069,1.069,0,0,0-.169-1.05,2.6,2.6,0,0,0-1.229-.853,2.826,2.826,0,0,0-1.362-.22.869.869,0,0,0-.766.548.762.762,0,0,0,.266.881,12.337,12.337,0,0,0,1.6,1.136q1.479.95,2.042,1.388a7.151,7.151,0,0,1,2.1,2.521,3.627,3.627,0,0,1-.012,2.888,4.1,4.1,0,0,1-2.985,2.684,8.493,8.493,0,0,1-5.036-.582A10.626,10.626,0,0,1,4010.676,2601.908Z" transform="translate(-3865.414 -2527.188)"/>
        <path id="Caminho_13740" data-name="Caminho 13740" d="M4027.285,2607.786a2.749,2.749,0,0,1,1.334-3.476,2.542,2.542,0,0,1,1.986,0,2.488,2.488,0,0,1,1.462,1.324,2.767,2.767,0,0,1-1.348,3.47,2.48,2.48,0,0,1-1.964.026A2.515,2.515,0,0,1,4027.285,2607.786Zm3.445-8.974a2.746,2.746,0,0,1,1.334-3.476,2.544,2.544,0,0,1,1.986,0,2.49,2.49,0,0,1,1.463,1.324,2.77,2.77,0,0,1-1.349,3.47,2.477,2.477,0,0,1-1.965.025A2.51,2.51,0,0,1,4030.73,2598.812Z" transform="translate(-3868.196 -2528.235)"/>
      </g>
    </g>
    <g id="Linha_209" data-name="Linha 209" transform="translate(-5879.977 7460.657)">
      <rect id="Retângulo_2155" data-name="Retângulo 2155" width="1025.649" height="0.847" transform="matrix(0.358, -0.934, 0.934, 0.358, 0, 957.852)" fill="#ede6f0"/>
    </g>
    <g id="Retângulo_2132" data-name="Retângulo 2132" transform="translate(-5962.541 7429.234)">
      <g id="Grupo_8490" data-name="Grupo 8490" transform="translate(13.114 13.092)">
        <path id="Caminho_14726" data-name="Caminho 14726" d="M4015.79,3599.223a44.912,44.912,0,0,1-16.116-3.008l-630.762-242.126a44.976,44.976,0,0,1-25.841-58.041l335.238-873.324a44.924,44.924,0,0,1,58.041-25.841l630.761,242.126a44.978,44.978,0,0,1,25.842,58.042l-335.238,873.323a45.02,45.02,0,0,1-41.925,28.85ZM3720.233,2395.57a43.321,43.321,0,0,0-40.342,27.761l-335.238,873.324a43.278,43.278,0,0,0,24.866,55.85l630.761,242.126a43.228,43.228,0,0,0,55.851-24.866l335.237-873.323a43.278,43.278,0,0,0-24.867-55.851l-630.76-242.127A43.219,43.219,0,0,0,3720.233,2395.57Z" transform="translate(-3340.085 -2393.874)" fill="#5a316b"/>
      </g>
    </g>
  </g>
</svg>
