<svg id="Layer_1" data-name="Layer 1"
	xmlns="http://www.w3.org/2000/svg"
	xmlns:xlink="http://www.w3.org/1999/xlink" viewBox="0 0 821.89 1035.07">
	<defs>
		<clipPath id="clip-path">
			<rect x="-52.25" width="915" height="1099" fill="none"/>
		</clipPath>
	</defs>
	<g clip-path="url(#clip-path)">
		<g id="Grupo_de_máscara_54" data-name="Grupo de máscara 54">
			<g id="Grupo_8474" data-name="Grupo 8474">
				<g id="Grupo_8532" data-name="Grupo 8532">
					<g id="Retângulo_2129-2" data-name="Retângulo 2129-2">
						<g id="Grupo_8530" data-name="Grupo 8530">
							<rect id="Retângulo_2189" data-name="Retângulo 2189" x="11" y="-92.2" width="810.88" height="1118.27" rx="53" fill="#fff"/>
						</g>
						<g id="Grupo_8531" data-name="Grupo 8531">
							<path id="Caminho_15737" data-name="Caminho 15737" d="M763.3,1035.07H47.59c-26.24,0-47.59-22-47.59-49V-34.2c0-27,21.35-49,47.59-49H763.3c26.24,0,47.59,22,47.59,49V986.07C810.89,1013.09,789.54,1035.07,763.3,1035.07ZM47.59-81.35C22.34-81.35,1.8-60.2,1.8-34.2V986.07c0,26,20.54,47.15,45.79,47.15H763.3c25.25,0,45.79-21.15,45.79-47.15V-34.2c0-26-20.54-47.15-45.79-47.15Z" fill="#5a316b"/>
						</g>
					</g>
				</g>
				<g id="Linha_193" data-name="Linha 193">
					<rect id="Retângulo_2190" data-name="Retângulo 2190" x="11" y="151.1" width="810.39" height="0.9" fill="#ede6f0"/>
				</g>
				<g id="Linha_207" data-name="Linha 207">
					<rect id="Retângulo_2191" data-name="Retângulo 2191" x="11" y="104.41" width="810.39" height="0.9" fill="#ede6f0"/>
				</g>
				<g id="Linha_194" data-name="Linha 194">
					<rect id="Retângulo_2192" data-name="Retângulo 2192" x="11" y="198.69" width="810.39" height="0.9" fill="#ede6f0"/>
				</g>
				<g id="Linha_195" data-name="Linha 195">
					<rect id="Retângulo_2193" data-name="Retângulo 2193" x="11" y="339.66" width="810.39" height="0.9" fill="#ede6f0"/>
				</g>
				<g id="Linha_196" data-name="Linha 196">
					<rect id="Retângulo_2194" data-name="Retângulo 2194" x="11" y="386.35" width="810.39" height="0.9" fill="#ede6f0"/>
				</g>
				<g id="Linha_197" data-name="Linha 197">
					<rect id="Retângulo_2195" data-name="Retângulo 2195" x="11" y="433.94" width="810.39" height="0.9" fill="#ede6f0"/>
				</g>
				<g id="Linha_198" data-name="Linha 198">
					<rect id="Retângulo_2196" data-name="Retângulo 2196" x="11.49" y="480.63" width="810.39" height="0.9" fill="#ede6f0"/>
				</g>
				<g id="Linha_199" data-name="Linha 199">
					<rect id="Retângulo_2197" data-name="Retângulo 2197" x="11" y="527.32" width="810.39" height="0.9" fill="#ede6f0"/>
				</g>
				<g id="Linha_200" data-name="Linha 200">
					<rect id="Retângulo_2198" data-name="Retângulo 2198" x="11" y="574.91" width="810.39" height="0.9" fill="#ede6f0"/>
				</g>
				<g id="Linha_201" data-name="Linha 201">
					<rect id="Retângulo_2199" data-name="Retângulo 2199" x="11" y="621.6" width="810.39" height="0.9" fill="#ede6f0"/>
				</g>
				<g id="Linha_202" data-name="Linha 202">
					<rect id="Retângulo_2200" data-name="Retângulo 2200" x="11" y="668.3" width="810.39" height="0.9" fill="#ede6f0"/>
				</g>
				<g id="Linha_203" data-name="Linha 203">
					<rect id="Retângulo_2201" data-name="Retângulo 2201" x="11.49" y="715.89" width="810.39" height="0.9" fill="#ede6f0"/>
				</g>
				<g id="Linha_206" data-name="Linha 206">
					<rect id="Retângulo_2202" data-name="Retângulo 2202" x="11.49" y="762.58" width="810.39" height="0.9" fill="#ede6f0"/>
				</g>
				<g id="Linha_208" data-name="Linha 208">
					<rect id="Retângulo_2203" data-name="Retângulo 2203" x="11.49" y="809.27" width="810.39" height="0.9" fill="#ede6f0"/>
				</g>
				<g id="Linha_210" data-name="Linha 210">
					<rect id="Retângulo_2204" data-name="Retângulo 2204" x="11.49" y="856.86" width="810.39" height="0.9" fill="#ede6f0"/>
				</g>
				<g id="Linha_211" data-name="Linha 211">
					<rect id="Retângulo_2205" data-name="Retângulo 2205" x="11.49" y="903.55" width="810.39" height="0.9" fill="#ede6f0"/>
				</g>
				<g id="Linha_212" data-name="Linha 212">
					<rect id="Retângulo_2206" data-name="Retângulo 2206" x="11.49" y="950.24" width="810.39" height="0.9" fill="#ede6f0"/>
				</g>
				<g id="Linha_204" data-name="Linha 204">
					<rect id="Retângulo_2208" data-name="Retângulo 2208" x="11" y="245.38" width="810.39" height="0.9" fill="#ede6f0"/>
				</g>
				<g id="Linha_205" data-name="Linha 205">
					<rect id="Retângulo_2209" data-name="Retângulo 2209" x="11" y="292.07" width="810.39" height="0.9" fill="#ede6f0"/>
				</g>
				<g id="Ingredientes:_" data-name="Ingredientes: ">
					<g id="Grupo_8533" data-name="Grupo 8533">
						<path id="Caminho_15738" data-name="Caminho 15738" d="M91.81,91.89a.39.39,0,0,1-.11-.27V70.38a.38.38,0,0,1,.38-.38h4.46a.37.37,0,0,1,.38.37h0V91.62a.38.38,0,0,1-.37.38H92.08A.4.4,0,0,1,91.81,91.89Z"/>
						<path id="Caminho_15739" data-name="Caminho 15739" d="M113,77.05a5.69,5.69,0,0,1,1.57,4.23V91.62a.37.37,0,0,1-.37.38h-4.47a.38.38,0,0,1-.37-.37h0V82.41a2.63,2.63,0,0,0-.6-1.76A2,2,0,0,0,107.2,80a2,2,0,0,0-1.58.68,2.59,2.59,0,0,0-.6,1.77v9.21a.37.37,0,0,1-.37.38h-4.47a.38.38,0,0,1-.37-.37h0V76.13a.37.37,0,0,1,.37-.38h4.47a.38.38,0,0,1,.37.37h0v1.16c0,.09,0,.13,0,.14s.07,0,.11-.07A4.15,4.15,0,0,1,109,75.5,5.52,5.52,0,0,1,113,77.05Z"/>
						<path id="Caminho_15740" data-name="Caminho 15740" d="M127.07,75.86a.4.4,0,0,1,.27-.11h4.46a.38.38,0,0,1,.38.37h0V90.18c0,2.86-.83,4.92-2.48,6.16a10.22,10.22,0,0,1-6.29,1.85,18.63,18.63,0,0,1-3-.25c-.21,0-.32-.16-.32-.41l.16-3.9a.33.33,0,0,1,.13-.3.37.37,0,0,1,.31,0,11.32,11.32,0,0,0,2.39.29,4.48,4.48,0,0,0,2.83-.82,3.08,3.08,0,0,0,1-2.58l-.22.22a4.36,4.36,0,0,1-3.26,1.13,7.84,7.84,0,0,1-3.8-.91,5.26,5.26,0,0,1-2.49-3.2,12,12,0,0,1-.5-3.71,11.31,11.31,0,0,1,.6-4,6.64,6.64,0,0,1,2.31-3.11,6.15,6.15,0,0,1,3.7-1.17,4.42,4.42,0,0,1,3.49,1.39.13.13,0,0,0,.12.05s.06-.05.06-.12v-.69A.42.42,0,0,1,127.07,75.86ZM127,83.7a9.87,9.87,0,0,0-.06-1.33,3.37,3.37,0,0,0-.25-.93,2.26,2.26,0,0,0-4.24,0,4.79,4.79,0,0,0-.47,2.32,4.9,4.9,0,0,0,.4,2.27,2.55,2.55,0,0,0,.85,1.07,2.26,2.26,0,0,0,1.36.4,2.06,2.06,0,0,0,2.13-1.44A7.25,7.25,0,0,0,127,83.7Z"/>
						<path id="Caminho_15741" data-name="Caminho 15741" d="M145.19,75.94a.41.41,0,0,1,.19.47l-.72,4.37c0,.25-.17.33-.44.22a4.81,4.81,0,0,0-1.07-.12,3.78,3.78,0,0,0-.82.06,3,3,0,0,0-1.65.75,2.17,2.17,0,0,0-.67,1.67v8.26a.38.38,0,0,1-.37.38h-4.47a.37.37,0,0,1-.38-.37h0V76.13a.38.38,0,0,1,.37-.38h4.47a.38.38,0,0,1,.38.37h0v1a.1.1,0,0,0,.06.12s.07,0,.09-.06a3.94,3.94,0,0,1,3.27-1.67A3.25,3.25,0,0,1,145.19,75.94Z"/>
						<path id="Caminho_15742" data-name="Caminho 15742" d="M161.69,84.93a.37.37,0,0,1-.35.38H151.7a.29.29,0,0,0-.13,0,.08.08,0,0,0,0,.11h0a4.36,4.36,0,0,0,.32.92A2.75,2.75,0,0,0,153,87.44a3.83,3.83,0,0,0,1.85.41A3.9,3.9,0,0,0,158,86.56a.36.36,0,0,1,.29-.15.28.28,0,0,1,.25.12l2.42,2.77a.3.3,0,0,1,.12.25.37.37,0,0,1-.12.25,7.25,7.25,0,0,1-2.72,1.82,9.51,9.51,0,0,1-3.54.63A8.9,8.9,0,0,1,149.8,91a7,7,0,0,1-2.88-3.47,10.32,10.32,0,0,1-.66-3.93,10.11,10.11,0,0,1,.5-3.14,7.32,7.32,0,0,1,2.69-3.66,7.43,7.43,0,0,1,4.45-1.34,7.58,7.58,0,0,1,3.7.9,7.28,7.28,0,0,1,2.66,2.48,9.18,9.18,0,0,1,1.33,3.6A12.09,12.09,0,0,1,161.69,84.93Zm-10-3.43a3,3,0,0,0-.16.66c0,.1,0,.16.13.16h4.46a.11.11,0,0,0,.13-.1v0a2.7,2.7,0,0,0-.93-1.82A2.44,2.44,0,0,0,153.9,80a2.12,2.12,0,0,0-2.17,1.54Z"/>
						<path id="Caminho_15743" data-name="Caminho 15743" d="M174,70.11a.36.36,0,0,1,.26-.11h4.47a.38.38,0,0,1,.37.38h0V91.62a.38.38,0,0,1-.37.38h-4.47a.37.37,0,0,1-.37-.37h0v-1c0-.07,0-.1-.07-.11a.12.12,0,0,0-.12,0,4.19,4.19,0,0,1-3.62,1.72A5.89,5.89,0,0,1,166.3,91,6.88,6.88,0,0,1,164,87.44a12.12,12.12,0,0,1-.5-3.64,11.35,11.35,0,0,1,.65-4,6.82,6.82,0,0,1,2.31-3.14,6.2,6.2,0,0,1,3.85-1.2A4.13,4.13,0,0,1,173.7,77c0,.06.08.08.13.06a.11.11,0,0,0,.06-.12V70.38A.35.35,0,0,1,174,70.11Zm-.11,13.78a5.58,5.58,0,0,0-.61-2.83,2.14,2.14,0,0,0-2.92-.82,2.17,2.17,0,0,0-.85.85,5.49,5.49,0,0,0-.62,2.81,5.55,5.55,0,0,0,.56,2.69,2.13,2.13,0,0,0,2,1.2,2.07,2.07,0,0,0,1.92-1.23,5.84,5.84,0,0,0,.54-2.67Z"/>
						<path id="Caminho_15744" data-name="Caminho 15744" d="M182.58,73.54a2.78,2.78,0,0,1,3.92-4,2.78,2.78,0,0,1-3.92,4ZM182,91.89a.39.39,0,0,1-.11-.27V76.13a.38.38,0,0,1,.37-.38h4.47a.38.38,0,0,1,.38.37h0V91.62a.38.38,0,0,1-.38.38h-4.46A.39.39,0,0,1,182,91.89Z"/>
						<path id="Caminho_15745" data-name="Caminho 15745" d="M205,84.93a.37.37,0,0,1-.35.38H195a.26.26,0,0,0-.12,0,.08.08,0,0,0,0,.11h0a3.84,3.84,0,0,0,.31.92,2.81,2.81,0,0,0,1.13,1.06,3.86,3.86,0,0,0,1.86.41,3.92,3.92,0,0,0,3.11-1.29.35.35,0,0,1,.28-.15.28.28,0,0,1,.25.12l2.42,2.77a.31.31,0,0,1,.13.25.38.38,0,0,1-.13.25,7.09,7.09,0,0,1-2.72,1.82,9.7,9.7,0,0,1-3.53.63A8.91,8.91,0,0,1,193.07,91a7,7,0,0,1-2.87-3.47,11,11,0,0,1-.17-7.07,7.32,7.32,0,0,1,2.69-3.66,7.43,7.43,0,0,1,4.45-1.34,7.62,7.62,0,0,1,3.71.9,7.25,7.25,0,0,1,2.65,2.48,9.2,9.2,0,0,1,1.34,3.6A12.84,12.84,0,0,1,205,84.93ZM195,81.5a2.55,2.55,0,0,0-.16.66c0,.1,0,.16.12.16h4.47a.1.1,0,0,0,.12-.09v0a2.64,2.64,0,0,0-.92-1.82,2.49,2.49,0,0,0-1.47-.41A2.11,2.11,0,0,0,195,81.5Z"/>
						<path id="Caminho_15746" data-name="Caminho 15746" d="M220.27,77.05a5.65,5.65,0,0,1,1.57,4.23V91.62a.37.37,0,0,1-.37.38H217a.38.38,0,0,1-.37-.37h0V82.41a2.63,2.63,0,0,0-.6-1.76,2,2,0,0,0-1.54-.69,2,2,0,0,0-1.57.68,2.54,2.54,0,0,0-.6,1.77v9.21a.38.38,0,0,1-.38.38h-4.46a.38.38,0,0,1-.38-.37h0V76.13a.37.37,0,0,1,.37-.38h4.47a.39.39,0,0,1,.38.37h0v1.16c0,.09,0,.13,0,.14s.07,0,.11-.07a4.15,4.15,0,0,1,3.77-1.86A5.52,5.52,0,0,1,220.27,77.05Z"/>
						<path id="Caminho_15747" data-name="Caminho 15747" d="M234.3,79.82a.37.37,0,0,1-.27.11h-2.86a.13.13,0,0,0-.15.12v5.76c0,1.19.48,1.79,1.44,1.79h1.17A.38.38,0,0,1,234,88h0v3.64a.38.38,0,0,1-.36.41h0c-1,0-1.74.07-2.2.07a7.64,7.64,0,0,1-4.06-.87c-.88-.58-1.33-1.67-1.35-3.28V80.09a.14.14,0,0,0-.12-.16h-1.83a.37.37,0,0,1-.37-.37h0V76.13a.34.34,0,0,1,.1-.27.39.39,0,0,1,.27-.11h1.79a.14.14,0,0,0,.16-.12V71.8a.38.38,0,0,1,.38-.38h4.24a.37.37,0,0,1,.38.37h0v3.8a.13.13,0,0,0,.12.15H234a.38.38,0,0,1,.38.37h0v3.43A.36.36,0,0,1,234.3,79.82Z"/>
						<path id="Caminho_15748" data-name="Caminho 15748" d="M251.54,84.93a.37.37,0,0,1-.35.38h-9.64a.29.29,0,0,0-.13,0,.08.08,0,0,0,0,.11h0a4.36,4.36,0,0,0,.32.92,2.75,2.75,0,0,0,1.13,1.06,3.83,3.83,0,0,0,1.85.41,3.9,3.9,0,0,0,3.11-1.29.36.36,0,0,1,.29-.15.29.29,0,0,1,.25.12l2.42,2.77a.3.3,0,0,1,.12.25.33.33,0,0,1-.12.25A7.25,7.25,0,0,1,248,91.62a9.51,9.51,0,0,1-3.54.63A8.88,8.88,0,0,1,239.65,91a7,7,0,0,1-2.88-3.47,11.1,11.1,0,0,1-.16-7.07,7.32,7.32,0,0,1,2.69-3.66,7.43,7.43,0,0,1,4.45-1.34,7.58,7.58,0,0,1,3.7.9,7.28,7.28,0,0,1,2.66,2.48,9.18,9.18,0,0,1,1.33,3.6A12.09,12.09,0,0,1,251.54,84.93Zm-10-3.43a3,3,0,0,0-.16.66c0,.1,0,.16.13.16H246a.11.11,0,0,0,.13-.1v0a2.7,2.7,0,0,0-.93-1.82,2.44,2.44,0,0,0-1.46-.41,2.1,2.1,0,0,0-2.17,1.54Z"/>
						<path id="Caminho_15749" data-name="Caminho 15749" d="M256.51,91.64a5.73,5.73,0,0,1-2.57-1.73,4,4,0,0,1-.9-2.56V87a.38.38,0,0,1,.38-.38h4.24A.38.38,0,0,1,258,87h0a1.14,1.14,0,0,0,.66,1,3.14,3.14,0,0,0,1.67.39,2.75,2.75,0,0,0,1.4-.3.87.87,0,0,0,.51-.8.77.77,0,0,0-.55-.74,9,9,0,0,0-1.77-.45,15.66,15.66,0,0,1-3.21-.91,7.38,7.38,0,0,1-2.54-1.65,3.83,3.83,0,0,1-1-2.72,4.63,4.63,0,0,1,1.9-3.88,8.08,8.08,0,0,1,5-1.43,9.32,9.32,0,0,1,3.69.67,5.78,5.78,0,0,1,2.47,1.9,4.79,4.79,0,0,1,.88,2.83.38.38,0,0,1-.38.38h-4.12a.37.37,0,0,1-.37-.38h0a1.14,1.14,0,0,0-.57-1,2.68,2.68,0,0,0-1.54-.38,3,3,0,0,0-1.43.3.94.94,0,0,0-.55.83.79.79,0,0,0,.6.77,12.91,12.91,0,0,0,2,.52q1.83.38,2.55.6a7.64,7.64,0,0,1,3,1.7,3.85,3.85,0,0,1,1.09,2.86,4.33,4.33,0,0,1-1.94,3.79,9,9,0,0,1-5.2,1.34A11.44,11.44,0,0,1,256.51,91.64Z"/>
						<path id="Caminho_15750" data-name="Caminho 15750" d="M272,81A2.92,2.92,0,0,1,272,77a2.73,2.73,0,0,1,2-.76,2.68,2.68,0,0,1,1.95.76,2.93,2.93,0,0,1,0,3.94,2.59,2.59,0,0,1-1.93.77A2.64,2.64,0,0,1,272,81Zm0,10.19a2.93,2.93,0,0,1,0-4,2.68,2.68,0,0,1,2-.75,2.63,2.63,0,0,1,1.95.75,2.94,2.94,0,0,1,0,4,2.58,2.58,0,0,1-1.93.76A2.67,2.67,0,0,1,272,91.17Z"/>
					</g>
				</g>
				<g id="Linha_209" data-name="Linha 209">
					<rect id="Retângulo_2219" data-name="Retângulo 2219" x="81.9" y="-16.36" width="0.9" height="1042.43" fill="#ede6f0"/>
				</g>
				<g id="Retângulo_2132" data-name="Retângulo 2132">
					<g id="Grupo_8563" data-name="Grupo 8563">
						<rect id="Retângulo_2220" data-name="Retângulo 2220" y="-83.2" width="810.88" height="1118.27" rx="53" fill="none"/>
					</g>
					<g id="Grupo_8564" data-name="Grupo 8564">
						<path id="Caminho_16745" data-name="Caminho 16745" d="M763.3,1035.07H47.59c-26.24,0-47.59-22-47.59-49V-34.2c0-27,21.35-49,47.59-49H763.3c26.24,0,47.58,22,47.58,49V986.07C810.88,1013.09,789.54,1035.07,763.3,1035.07ZM47.59-81.35C22.34-81.35,1.8-60.2,1.8-34.2V986.07c0,26,20.54,47.15,45.79,47.15H763.3c25.25,0,45.79-21.15,45.79-47.15V-34.2c0-26-20.54-47.15-45.79-47.15Z" fill="#5a316b"/>
					</g>
				</g>
			</g>
		</g>
	</g>
</svg>