<svg width="778" height="1038" viewBox="0 0 778 1038" fill="none" xmlns="http://www.w3.org/2000/svg">
<g clip-path="url(#clip0)">
<path d="M12.3267 972.466L12.127 53.166C12.127 23.866 35.827 0.166016 65.127 0.166016L724.627 0.065918C753.927 0.065918 777.627 23.7659 777.627 53.0659L777.827 972.366C777.827 1001.67 754.127 1025.37 724.827 1025.37L65.3267 1025.47C36.1267 1025.47 12.3267 1001.77 12.3267 972.466Z" fill="white"/>
<path d="M764.764 170.393H-0.236328V171.193H764.764V170.393Z" fill="#EDE6F0"/>
<path d="M764.76 126.342H-0.240234V127.142H764.76V126.342Z" fill="#EDE6F0"/>
<path d="M764.764 215.334H-0.236328V216.134H764.764V215.334Z" fill="#EDE6F0"/>
<path d="M764.773 348.475H-0.227051V349.275H764.773V348.475Z" fill="#EDE6F0"/>
<path d="M764.776 392.525H-0.224121V393.325H764.776V392.525Z" fill="#EDE6F0"/>
<path d="M764.877 437.466H-0.123047V438.266H764.877V437.466Z" fill="#EDE6F0"/>
<path d="M765.315 481.483H0.314941V482.283H765.315V481.483Z" fill="#EDE6F0"/>
<path d="M764.885 525.566H-0.115234V526.366H764.885V525.566Z" fill="#EDE6F0"/>
<path d="M764.885 570.507H-0.115234V571.307H764.885V570.507Z" fill="#EDE6F0"/>
<path d="M764.889 614.557H-0.11084V615.357H764.889V614.557Z" fill="#EDE6F0"/>
<path d="M764.893 658.707H-0.107422V659.507H764.893V658.707Z" fill="#EDE6F0"/>
<path d="M765.328 703.615H0.327637V704.415H765.328V703.615Z" fill="#EDE6F0"/>
<path d="M765.332 747.665H0.331543V748.465H765.332V747.665Z" fill="#EDE6F0"/>
<path d="M765.335 791.714H0.334961V792.514H765.335V791.714Z" fill="#EDE6F0"/>
<path d="M765.335 836.657H0.335449V837.457H765.335V836.657Z" fill="#EDE6F0"/>
<path d="M765.34 880.806H0.339844V881.606H765.34V880.806Z" fill="#EDE6F0"/>
<path d="M765.344 924.855H0.34375V925.655H765.344V924.855Z" fill="#EDE6F0"/>
<path d="M765.444 969.796H0.443848V970.596H765.444V969.796Z" fill="#EDE6F0"/>
<path d="M764.768 259.483H-0.232422V260.283H764.768V259.483Z" fill="#EDE6F0"/>
<path d="M764.772 303.534H-0.228027V304.334H764.772V303.534Z" fill="#EDE6F0"/>
<path d="M113.045 114.589C112.945 114.489 112.945 114.389 112.945 114.289V94.1891C112.945 94.0891 112.945 93.9891 113.045 93.8891C113.145 93.7891 113.245 93.7891 113.345 93.7891H117.545C117.645 93.7891 117.745 93.7891 117.845 93.8891C117.945 93.9891 117.945 94.0891 117.945 94.1891V114.289C117.945 114.489 117.745 114.689 117.545 114.689H113.345C113.245 114.689 113.145 114.689 113.045 114.589Z" fill="black"/>
<path d="M133.045 100.589C134.045 101.689 134.645 103.089 134.545 104.589V114.389C134.545 114.489 134.545 114.589 134.445 114.689C134.345 114.789 134.245 114.789 134.145 114.789H129.945C129.745 114.789 129.545 114.589 129.545 114.389V105.689C129.545 105.089 129.345 104.489 128.945 103.989C128.545 103.589 128.045 103.289 127.445 103.289C126.845 103.289 126.345 103.489 125.945 103.889C125.545 104.389 125.345 104.989 125.345 105.589V114.289C125.345 114.389 125.345 114.489 125.245 114.589C125.145 114.689 125.045 114.689 124.945 114.689H120.745C120.545 114.689 120.345 114.489 120.345 114.289V99.6891C120.345 99.5891 120.345 99.4891 120.445 99.3891C120.545 99.2891 120.645 99.2891 120.745 99.2891H124.945C125.145 99.2891 125.345 99.4891 125.345 99.6891V100.789C125.345 100.889 125.345 100.889 125.445 100.889C125.445 100.889 125.545 100.889 125.545 100.789C126.345 99.5891 127.645 98.8891 129.145 98.9891C130.645 99.0891 132.045 99.5891 133.045 100.589Z" fill="black"/>
<path d="M146.345 99.4891C146.445 99.3891 146.545 99.3891 146.645 99.3891H150.845C151.045 99.3891 151.245 99.5891 151.245 99.7891V113.089C151.245 115.789 150.445 117.689 148.945 118.889C147.245 120.089 145.145 120.689 143.045 120.689C142.145 120.689 141.145 120.589 140.245 120.489C140.045 120.489 139.945 120.389 139.945 120.089L140.045 116.389C140.045 116.289 140.045 116.189 140.145 116.089C140.245 115.989 140.345 115.989 140.445 116.089C141.145 116.289 141.945 116.389 142.745 116.389C143.745 116.489 144.645 116.189 145.445 115.589C146.145 114.989 146.545 114.089 146.445 113.189L146.245 113.389C145.445 114.189 144.245 114.489 143.145 114.489C141.945 114.489 140.645 114.189 139.545 113.589C138.345 112.889 137.545 111.889 137.245 110.589C136.945 109.489 136.745 108.289 136.745 107.089C136.745 105.789 136.845 104.589 137.345 103.389C137.745 102.189 138.545 101.189 139.545 100.489C140.545 99.7891 141.745 99.3891 143.045 99.3891C144.245 99.2891 145.445 99.7891 146.345 100.689C146.345 100.689 146.445 100.789 146.445 100.689C146.445 100.689 146.545 100.689 146.545 100.589V99.8891C146.245 99.5891 146.245 99.4891 146.345 99.4891ZM146.245 106.889C146.245 106.489 146.245 106.089 146.145 105.589C146.145 105.289 146.045 104.989 145.945 104.689C145.645 103.789 144.845 103.289 143.945 103.289C143.045 103.289 142.245 103.789 141.945 104.689C141.645 105.389 141.445 106.089 141.545 106.889C141.545 107.589 141.645 108.389 141.945 108.989C142.145 109.389 142.345 109.789 142.745 109.989C143.145 110.289 143.545 110.389 144.045 110.389C144.945 110.489 145.745 109.889 146.045 108.989C146.245 108.389 146.345 107.589 146.245 106.889Z" fill="black"/>
<path d="M163.445 99.4891C163.645 99.5891 163.645 99.7891 163.645 99.8891L162.945 103.989C162.945 104.189 162.745 104.289 162.545 104.189C162.245 104.089 161.845 104.089 161.545 104.089C161.245 104.089 161.045 104.089 160.745 104.189C160.145 104.289 159.645 104.489 159.145 104.889C158.745 105.289 158.445 105.889 158.545 106.489V114.289C158.545 114.489 158.345 114.689 158.145 114.689H153.945C153.745 114.689 153.545 114.489 153.545 114.289V99.6891C153.545 99.4891 153.745 99.2891 153.945 99.2891H158.145C158.245 99.2891 158.345 99.2891 158.445 99.3891C158.545 99.4891 158.545 99.5891 158.545 99.6891V100.589C158.545 100.589 158.545 100.689 158.645 100.689C158.645 100.689 158.745 100.689 158.745 100.589C159.445 99.5891 160.645 98.9891 161.845 98.9891C162.345 99.0891 162.945 99.2891 163.445 99.4891Z" fill="black"/>
<path d="M179.045 107.989C179.045 108.189 178.945 108.389 178.745 108.389C178.745 108.389 178.745 108.389 178.645 108.389H169.645H169.545V108.489C169.645 108.789 169.745 109.089 169.845 109.389C170.145 109.789 170.445 110.189 170.945 110.389C171.445 110.689 172.045 110.789 172.745 110.789C173.845 110.889 174.945 110.389 175.645 109.589C175.745 109.489 175.845 109.489 175.945 109.489C176.045 109.489 176.145 109.489 176.145 109.589L178.445 112.189C178.545 112.289 178.545 112.289 178.545 112.389C178.545 112.489 178.445 112.589 178.445 112.589C177.745 113.389 176.845 113.989 175.845 114.289C174.745 114.689 173.645 114.889 172.545 114.889C170.945 114.889 169.345 114.489 167.945 113.689C166.745 112.889 165.745 111.789 165.245 110.389C164.845 109.189 164.545 107.989 164.645 106.689C164.645 105.689 164.845 104.689 165.145 103.689C166.045 100.789 168.845 98.8891 171.845 98.9891C173.045 98.9891 174.245 99.2891 175.345 99.7891C176.345 100.389 177.245 101.189 177.845 102.089C178.545 103.089 178.945 104.289 179.145 105.489C179.045 106.489 179.045 107.189 179.045 107.989ZM169.645 104.789C169.545 104.989 169.545 105.189 169.545 105.389C169.545 105.489 169.545 105.489 169.645 105.489H173.845C173.945 105.489 173.945 105.489 173.945 105.389C173.945 105.189 173.845 104.989 173.845 104.789C173.745 104.289 173.445 103.889 173.045 103.689C172.645 103.389 172.145 103.289 171.645 103.289C170.745 103.289 169.845 103.889 169.645 104.789Z" fill="black"/>
<path d="M190.645 93.9891C190.745 93.8891 190.845 93.8891 190.945 93.8891H195.145C195.345 93.8891 195.545 94.0891 195.545 94.2891V114.389C195.545 114.589 195.345 114.789 195.245 114.789H191.045C190.845 114.789 190.645 114.589 190.645 114.389V113.389C190.645 113.289 190.645 113.289 190.545 113.289H190.445C189.645 114.389 188.345 114.989 187.045 114.889C185.745 114.889 184.445 114.489 183.445 113.689C182.345 112.889 181.645 111.689 181.245 110.389C180.945 109.289 180.745 108.089 180.745 106.989C180.745 105.689 180.945 104.489 181.345 103.289C181.745 102.089 182.545 101.089 183.545 100.289C184.645 99.4891 185.845 99.0891 187.145 99.1891C188.345 99.0891 189.545 99.5891 190.345 100.589C190.345 100.689 190.445 100.689 190.445 100.689L190.545 100.589V94.3891C190.545 94.1891 190.545 94.0891 190.645 93.9891ZM190.545 106.989C190.645 106.089 190.445 105.189 189.945 104.289C189.445 103.289 188.145 102.989 187.145 103.489C186.845 103.689 186.545 103.989 186.345 104.289C185.945 105.089 185.745 105.989 185.745 106.889C185.745 107.789 185.845 108.689 186.245 109.489C186.545 110.189 187.345 110.689 188.145 110.589C188.945 110.589 189.645 110.189 189.945 109.389C190.445 108.789 190.545 107.889 190.545 106.989Z" fill="black"/>
<path d="M198.245 114.589C198.145 114.489 198.145 114.389 198.145 114.289V99.6891C198.145 99.5891 198.145 99.4891 198.245 99.3891C198.345 99.2891 198.445 99.2891 198.545 99.2891H202.745C202.945 99.2891 203.145 99.4891 203.145 99.6891V114.289C203.145 114.489 202.945 114.689 202.745 114.689H198.545C198.345 114.689 198.245 114.689 198.245 114.589ZM198.745 97.2891C197.745 96.1891 197.745 94.5891 198.745 93.5891C199.845 92.6891 201.445 92.6891 202.445 93.5891C202.945 94.0891 203.245 94.7891 203.145 95.4891C203.145 96.1891 202.945 96.8891 202.445 97.2891C201.945 97.7891 201.245 98.0891 200.545 97.9891C199.945 97.9891 199.245 97.6891 198.745 97.2891Z" fill="black"/>
<path d="M219.845 107.989C219.845 108.189 219.745 108.389 219.545 108.389C219.545 108.389 219.545 108.389 219.445 108.389H210.445H210.345V108.489C210.445 108.789 210.545 109.089 210.645 109.389C210.945 109.789 211.245 110.189 211.745 110.389C212.245 110.689 212.845 110.789 213.545 110.789C214.645 110.889 215.745 110.389 216.445 109.589C216.545 109.489 216.645 109.489 216.745 109.489C216.845 109.489 216.945 109.489 216.945 109.589L219.245 112.189C219.345 112.289 219.345 112.289 219.345 112.389C219.345 112.489 219.245 112.589 219.245 112.589C218.545 113.389 217.645 113.989 216.645 114.289C215.545 114.689 214.445 114.889 213.345 114.889C211.745 114.989 210.145 114.489 208.745 113.689C207.545 112.889 206.545 111.789 206.045 110.389C205.645 109.189 205.345 107.989 205.445 106.689C205.445 105.689 205.645 104.689 205.945 103.689C206.445 102.289 207.245 101.089 208.445 100.189C209.645 99.2891 211.145 98.8891 212.645 98.8891C213.845 98.8891 215.045 99.1891 216.145 99.6891C217.145 100.289 218.045 101.089 218.645 101.989C219.345 102.989 219.745 104.189 219.945 105.389C219.945 106.389 219.945 107.189 219.845 107.989ZM210.445 104.789C210.345 104.989 210.345 105.189 210.345 105.389C210.345 105.489 210.345 105.489 210.445 105.489H214.645C214.745 105.489 214.745 105.489 214.745 105.389C214.745 105.189 214.645 104.989 214.645 104.789C214.545 104.289 214.245 103.889 213.845 103.689C213.445 103.389 212.945 103.289 212.445 103.289C211.545 103.289 210.745 103.889 210.445 104.789Z" fill="black"/>
<path d="M234.345 100.589C235.345 101.689 235.945 103.089 235.845 104.589V114.389C235.845 114.589 235.645 114.789 235.445 114.789H231.245C231.045 114.789 230.845 114.589 230.845 114.389V105.689C230.845 105.089 230.645 104.489 230.245 103.989C229.845 103.589 229.345 103.289 228.745 103.289C228.145 103.289 227.645 103.489 227.245 103.889C226.845 104.389 226.645 104.989 226.645 105.589V114.289C226.645 114.489 226.445 114.689 226.245 114.689H222.045C221.945 114.689 221.845 114.689 221.745 114.589C221.645 114.489 221.645 114.389 221.645 114.289V99.6891C221.645 99.5891 221.645 99.4891 221.745 99.3891C221.845 99.2891 221.945 99.2891 222.045 99.2891H226.245C226.345 99.2891 226.445 99.2891 226.545 99.3891C226.645 99.4891 226.645 99.5891 226.645 99.6891V100.789C226.645 100.889 226.645 100.889 226.645 100.889C226.645 100.889 226.745 100.889 226.745 100.789C227.545 99.5891 228.845 98.8891 230.345 98.9891C231.945 99.0891 233.345 99.5891 234.345 100.589Z" fill="black"/>
<path d="M247.545 103.189C247.445 103.289 247.345 103.289 247.245 103.289H244.545C244.445 103.289 244.445 103.289 244.445 103.389V108.789C244.445 109.889 244.945 110.489 245.845 110.489H246.945C247.145 110.489 247.345 110.689 247.345 110.889V114.289C247.345 114.489 247.245 114.689 247.045 114.689C246.145 114.689 245.445 114.789 244.945 114.789C243.645 114.889 242.245 114.589 241.145 113.989C240.245 113.289 239.745 112.089 239.845 110.889V103.489C239.845 103.389 239.845 103.389 239.745 103.389H238.045C237.845 103.389 237.645 103.189 237.645 103.089V99.8891C237.645 99.6891 237.845 99.4891 238.045 99.4891H239.745C239.845 99.4891 239.845 99.4891 239.845 99.3891V95.7891C239.845 95.5891 240.045 95.3891 240.245 95.3891H244.245C244.345 95.3891 244.445 95.3891 244.545 95.4891C244.645 95.5891 244.645 95.6891 244.645 95.7891V99.3891C244.645 99.4891 244.645 99.4891 244.745 99.4891H247.445C247.645 99.4891 247.845 99.6891 247.845 99.8891V103.089C247.645 102.989 247.645 103.089 247.545 103.189Z" fill="black"/>
<path d="M263.845 107.989C263.845 108.189 263.745 108.389 263.545 108.389C263.545 108.389 263.545 108.389 263.445 108.389H254.445H254.345V108.489C254.445 108.789 254.545 109.089 254.645 109.389C254.945 109.789 255.245 110.189 255.745 110.389C256.245 110.689 256.845 110.789 257.545 110.789C258.645 110.889 259.745 110.389 260.445 109.589C260.545 109.489 260.645 109.489 260.745 109.489C260.845 109.489 260.945 109.489 260.945 109.589L263.245 112.189C263.345 112.289 263.345 112.289 263.345 112.389C263.345 112.489 263.245 112.589 263.245 112.589C262.545 113.389 261.645 113.989 260.645 114.289C259.545 114.689 258.445 114.889 257.345 114.889C255.745 114.889 254.145 114.489 252.745 113.689C251.545 112.889 250.545 111.789 250.045 110.389C249.645 109.189 249.345 107.989 249.445 106.689C249.445 105.689 249.645 104.689 249.945 103.689C250.445 102.289 251.245 101.089 252.445 100.189C253.645 99.2891 255.145 98.8891 256.645 98.8891C257.845 98.8891 259.045 99.1891 260.145 99.6891C261.145 100.289 262.045 101.089 262.645 101.989C263.345 102.989 263.745 104.189 263.945 105.389C263.845 106.389 263.945 107.189 263.845 107.989ZM254.445 104.789C254.345 104.989 254.345 105.189 254.345 105.389C254.345 105.489 254.345 105.489 254.445 105.489H258.645C258.745 105.489 258.745 105.489 258.745 105.389C258.745 105.189 258.745 104.989 258.645 104.789C258.545 104.289 258.245 103.889 257.845 103.689C257.445 103.389 256.945 103.289 256.445 103.289C255.545 103.289 254.745 103.889 254.445 104.789Z" fill="black"/>
<path d="M268.545 114.289C267.645 113.989 266.745 113.389 266.145 112.689C265.545 111.989 265.245 111.189 265.345 110.289V109.989C265.345 109.789 265.545 109.589 265.745 109.589H269.745C269.945 109.589 270.145 109.789 270.145 109.989C270.145 110.389 270.445 110.789 270.745 110.889C271.245 111.189 271.745 111.289 272.345 111.289C272.845 111.289 273.245 111.189 273.645 110.989C273.945 110.889 274.145 110.589 274.145 110.189C274.145 109.889 273.945 109.589 273.645 109.489C273.145 109.289 272.545 109.189 271.945 109.089C270.945 108.889 269.845 108.589 268.945 108.189C268.045 107.889 267.245 107.289 266.545 106.589C265.945 105.889 265.645 104.989 265.645 103.989C265.645 102.589 266.245 101.189 267.445 100.289C268.845 99.2891 270.445 98.8891 272.145 98.9891C273.345 98.9891 274.545 99.1891 275.645 99.5891C276.545 99.9891 277.345 100.589 277.945 101.389C278.545 102.189 278.745 103.089 278.745 104.089C278.745 104.289 278.545 104.489 278.345 104.489H274.445C274.345 104.489 274.245 104.489 274.145 104.389C274.045 104.289 274.045 104.189 274.045 104.089C274.045 103.689 273.845 103.389 273.545 103.189C273.145 102.889 272.645 102.789 272.045 102.789C271.545 102.789 271.145 102.889 270.645 103.089C270.345 103.189 270.145 103.489 270.145 103.889C270.145 104.189 270.345 104.489 270.745 104.589C271.345 104.789 272.045 104.989 272.645 105.089C273.745 105.289 274.545 105.489 275.045 105.689C276.145 105.989 277.045 106.589 277.945 107.289C278.645 107.989 279.045 108.989 278.945 109.989C279.045 111.389 278.345 112.789 277.145 113.589C275.645 114.489 273.945 114.989 272.245 114.889C270.945 114.889 269.745 114.689 268.545 114.289Z" fill="black"/>
<path d="M283.145 113.889C282.145 112.789 282.145 111.189 283.145 110.189C283.645 109.689 284.345 109.489 285.045 109.489C285.745 109.489 286.445 109.689 286.845 110.189C287.845 111.289 287.745 112.889 286.845 113.889C286.345 114.389 285.745 114.589 285.045 114.589C284.345 114.589 283.645 114.389 283.145 113.889ZM283.145 104.289C282.145 103.189 282.145 101.589 283.145 100.589C283.645 100.089 284.345 99.7891 285.045 99.7891C285.745 99.7891 286.445 99.9891 286.845 100.489C287.845 101.589 287.745 103.189 286.845 104.189C286.345 104.689 285.745 104.889 285.045 104.889C284.345 104.989 283.645 104.789 283.145 104.289Z" fill="black"/>
<path d="M88.9499 12.1235H88.1499V1038.02H88.9499V12.1235Z" fill="#EDE6F0"/>
<path d="M736.6 1034.59C731.5 1036.59 726 1037.59 720.5 1037.59L44.8998 1037.69C20.0998 1037.69 -0.000198364 1017.59 -0.000198364 992.792L-0.200195 57.292C-0.200195 32.492 19.8998 12.392 44.6998 12.392L720.3 12.292C745.1 12.292 765.2 32.392 765.2 57.192L765.4 992.692C765.4 1011.29 754 1027.89 736.6 1034.59ZM29.1998 16.992C12.4998 23.392 1.4998 39.492 1.4998 57.392L1.6998 992.892C1.6998 1016.79 21.0998 1036.09 44.8998 1036.09L720.5 1035.99C744.4 1035.99 763.7 1016.59 763.7 992.792L763.5 57.292C763.5 33.392 744.1 14.092 720.3 14.092H44.6998C39.3998 14.092 34.0998 15.092 29.1998 16.992Z" fill="#5A316B"/>
</g>
<defs>
<clipPath id="clip0">
<rect width="778" height="1038" fill="white"/>
</clipPath>
</defs>
</svg>
