<svg xmlns="http://www.w3.org/2000/svg" xmlns:xlink="http://www.w3.org/1999/xlink" width="1920" height="1080" viewBox="0 0 1920 1080">
  <defs>
    <clipPath id="clip-Instruçao_7">
      <rect width="1920" height="1080"/>
    </clipPath>
  </defs>
  <g id="Instruçao_7" data-name="Instruçao – 7" clip-path="url(#clip-Instruçao_7)">
    <g id="Grupo_3689" data-name="Grupo 3689" transform="translate(-10415.1 -863)">
      <path id="Caminho_11081" data-name="Caminho 11081" d="M0,0H1919.979V67.553H0Z" transform="translate(10415.1 1550)" fill="#ebebeb" opacity="0.38"/>
      <path id="Caminho_10936" data-name="Caminho 10936" d="M47.48,250.477l240-.468,240-.17,480-.319,480,.319,240,.17,240,.468-240,.489-240,.17-480,.319-480-.319-240-.17Z" transform="translate(10367.619 1124.48)" fill="#ebebeb"/>
      <path id="Caminho_10937" data-name="Caminho 10937" d="M47.48,218.757l240-.468,240-.17,480-.319,480,.319,240,.17,240,.468-240,.489-240,.17-480,.319-480-.319-240-.17Z" transform="translate(10367.619 1069.2)" fill="#ebebeb"/>
      <path id="Caminho_10938" data-name="Caminho 10938" d="M47.48,187.059l240-.489,240-.17,480-.319,480,.319,240,.17,240,.489-240,.468-240,.17-480,.319-480-.319-240-.17Z" transform="translate(10367.619 1012.92)" fill="#ebebeb"/>
      <path id="Caminho_10939" data-name="Caminho 10939" d="M47.48,155.339l240-.489,240-.17,480-.319,480,.319,240,.17,240,.489-240,.468-240,.17-480,.34-480-.34-240-.17Z" transform="translate(10367.619 956.64)" fill="#ebebeb"/>
      <path id="Caminho_10940" data-name="Caminho 10940" d="M47.48,123.619l240-.468,240-.191,480-.319,480,.319,240,.17,240,.489-240,.468-240,.17-480,.34-480-.34-240-.17Z" transform="translate(10367.619 901.36)" fill="#ebebeb"/>
      <path id="Caminho_10941" data-name="Caminho 10941" d="M47.48,91.9l240-.468,240-.17,480-.34,480,.319,240,.191,240,.468-240,.468-240,.191-480,.319-480-.34-240-.17Z" transform="translate(10367.619 845.08)" fill="#ebebeb"/>
      <path id="Caminho_10942" data-name="Caminho 10942" d="M47.48,282.239l240-.468,240-.17,480-.34,480,.34,240,.17,240,.468-240,.468-240,.191-480,.319-480-.34-240-.17Z" transform="translate(10367.619 1180.74)" fill="#ebebeb"/>
      <path id="Caminho_10943" data-name="Caminho 10943" d="M47.48,313.989l240-.468,240-.191,480-.319,480,.319,240,.17,240,.489-240,.468-240,.17-480,.34-480-.34-240-.17Z" transform="translate(10367.619 1389.99)" fill="#ebebeb"/>
      <path id="Caminho_10944" data-name="Caminho 10944" d="M47.48,345.717l240-.468,240-.17,480-.319,480,.319,240,.17,240,.468-240,.489-240,.17-480,.319-480-.319-240-.17Z" transform="translate(10367.619 1446.24)" fill="#ebebeb"/>
      <path id="Caminho_10945" data-name="Caminho 10945" d="M47.48,377.479l240-.468,240-.17,480-.34,480,.34,240,.17,240,.468-240,.489-240,.17-480,.319-480-.319-240-.17Z" transform="translate(10367.619 1501.5)" fill="#ebebeb"/>
      <path id="Caminho_10946" data-name="Caminho 10946" d="M285.144,56.67l.532,113.405.192,85.131.34,541-.34,170.231-.192,85.131-.532,85.1-.511-85.1-.191-85.131-.362-170.231.362-541,.191-85.131Z" transform="translate(11171.02 806.33)" fill="#ebebeb"/>
      <path id="Caminho_10947" data-name="Caminho 10947" d="M250.564,56.67l.511,113.405.191,85.131.362,541-.362,170.231-.17,85.131-.532,85.1-.532-85.1-.17-85.131L249.5,796.208l.362-541,.191-85.131Z" transform="translate(11042.6 806.33)" fill="#ebebeb"/>
      <path id="Caminho_10948" data-name="Caminho 10948" d="M215.984,56.67l.511,113.405.191,85.131.34,541-.34,170.231-.191,85.131-.511,85.1-.532-85.1-.191-85.131-.34-170.231.34-541,.191-85.131Z" transform="translate(10914.18 806.33)" fill="#ebebeb"/>
      <path id="Caminho_10949" data-name="Caminho 10949" d="M181.394,56.67l.511,113.405.191,85.131.362,541L182.1,966.439l-.17,85.131-.532,85.1-.511-85.1-.191-85.131-.362-170.231.362-541,.191-85.131Z" transform="translate(10785.77 806.33)" fill="#ebebeb"/>
      <path id="Caminho_10950" data-name="Caminho 10950" d="M388.9,56.67l.511,113.405.192,85.131.362,541-.362,170.231-.192,85.131-.511,85.1-.532-85.1-.191-85.131-.34-170.231.362-541,.17-85.131Z" transform="translate(11557.26 806.33)" fill="#ebebeb"/>
      <path id="Caminho_10951" data-name="Caminho 10951" d="M354.314,56.67l.532,113.405.17,85.131.362,541-.362,170.231-.17,85.131-.532,85.1-.511-85.1-.191-85.131-.362-170.231.362-541,.191-85.131Z" transform="translate(11428.85 806.33)" fill="#ebebeb"/>
      <path id="Caminho_10952" data-name="Caminho 10952" d="M319.734,56.67l.511,113.405.191,85.131.362,541-.362,170.231-.191,85.131-.511,85.1-.532-85.1-.17-85.131-.362-170.231.362-541,.191-85.131Z" transform="translate(11300.43 806.33)" fill="#ebebeb"/>
      <path id="Caminho_10953" data-name="Caminho 10953" d="M423.484,56.67l.511,113.405.191,85.131.362,541-.362,170.231-.17,85.131-.532,85.1-.511-85.1-.192-85.131-.362-170.231.362-541,.192-85.131Z" transform="translate(11848.68 806.33)" fill="#ebebeb"/>
      <path id="Caminho_10954" data-name="Caminho 10954" d="M388.9,56.67l.511,113.405.192,85.131.362,541-.362,170.231-.192,85.131-.511,85.1-.532-85.1-.191-85.131-.34-170.231.362-541,.17-85.131Z" transform="translate(11720.26 806.33)" fill="#ebebeb"/>
      <path id="Caminho_10955" data-name="Caminho 10955" d="M146.814,56.67l.511,113.405.191,85.131.362,541-.362,170.231-.191,85.131-.511,85.1-.532-85.1-.191-85.131-.34-170.231.362-541,.17-85.131Z" transform="translate(10657.35 806.33)" fill="#ebebeb"/>
      <path id="Caminho_10956" data-name="Caminho 10956" d="M112.224,56.67l.532,113.405.17,85.131.362,541-.34,170.231-.191,85.131-.532,85.1-.511-85.1-.191-85.131-.362-170.231.362-541,.191-85.131Z" transform="translate(10528.939 806.33)" fill="#ebebeb"/>
      <path id="Caminho_10957" data-name="Caminho 10957" d="M77.644,56.67l.511,113.405.191,85.131.362,541-.362,170.231-.191,85.131-.511,85.1-.532-85.1-.17-85.131L76.58,796.208l.362-541,.17-85.131Z" transform="translate(10400.52 806.33)" fill="#ebebeb"/>
    </g>
    <g id="freepik--Shelf--inject-10" transform="translate(1356.236 178.333)">
      <rect id="Retângulo_2047" data-name="Retângulo 2047" width="361.022" height="27.776" transform="translate(0.203 112.12)" fill="#cfd8dc"/>
      <rect id="Retângulo_2048" data-name="Retângulo 2048" width="10.718" height="135.473" transform="translate(175.344 190.123)" fill="#c7c7c7"/>
      <path id="Caminho_10968" data-name="Caminho 10968" d="M391.923,215.19H333.979L331,296.172h63.969Zm-41.179,71.482h-6.025V226.765h6.025Zm15.163,0h-6V226.765h6Zm15.163,0h-6V226.765h6Z" transform="translate(-182.282 104.495)" fill="#c7c7c7"/>
      <path id="Caminho_10969" data-name="Caminho 10969" d="M364.093,210.4H341.6L339.34,126.49h27.009Z" transform="translate(-171.803 -6.947)" fill="#263238"/>
      <ellipse id="Elipse_284" data-name="Elipse 284" cx="3.655" cy="3.655" rx="3.655" ry="3.655" transform="translate(177.397 126.832)" fill="#cfd8dc"/>
      <rect id="Retângulo_2049" data-name="Retângulo 2049" width="10.718" height="109.029" transform="translate(288.772 190.123)" fill="#c7c7c7"/>
      <path id="Caminho_10970" data-name="Caminho 10970" d="M443.236,238.981c0,22.744-14.824,43.661-30.687,43.661s-30.709-20.917-30.709-43.661S400,205,412.55,205,443.236,216.282,443.236,238.981Z" transform="translate(-118.407 91.692)" fill="#c7c7c7"/>
      <path id="Caminho_10971" data-name="Caminho 10971" d="M414.363,210.4h-22.5L389.61,126.49h27.009Z" transform="translate(-108.645 -6.947)" fill="#263238"/>
      <ellipse id="Elipse_285" data-name="Elipse 285" cx="3.655" cy="3.655" rx="3.655" ry="3.655" transform="translate(290.826 126.832)" fill="#cfd8dc"/>
      <path id="Caminho_10972" data-name="Caminho 10972" d="M265.09,204.463V337.589H346.5V157.62H329.623v46.843Zm11.508,18.5a4.851,4.851,0,1,1,4.851,4.829,4.851,4.851,0,0,1-4.851-4.829Z" transform="translate(-265.09 32.165)" fill="#c7c7c7"/>
      <path id="Caminho_10973" data-name="Caminho 10973" d="M293.706,210.4h22.5l2.256-83.915H291.45Z" transform="translate(-231.972 -6.947)" fill="#263238"/>
      <ellipse id="Elipse_286" data-name="Elipse 286" cx="3.655" cy="3.655" rx="3.655" ry="3.655" transform="translate(69.339 126.832)" fill="#cfd8dc"/>
      <rect id="Retângulo_2050" data-name="Retângulo 2050" width="112.12" height="175.276" transform="translate(116.362 112.12) rotate(-90)" fill="#cfd8dc"/>
      <rect id="Retângulo_2051" data-name="Retângulo 2051" width="112.12" height="175.276" transform="translate(116.362 112.12) rotate(-90)" opacity="0.2"/>
      <path id="Caminho_10974" data-name="Caminho 10974" d="M440.8,91.72c-8.732,0-16.81,7.469-24.978,7.469H394.34v15h21.481c8.168,0,16.246,7.514,24.978,7.514,10.334,0,18.051-5.776,18.051-15S451.133,91.72,440.8,91.72Zm2.369,20.6a5.6,5.6,0,1,1,.045,0Z" transform="translate(-102.702 -50.631)" fill="#cfd8dc"/>
      <g id="Grupo_3655" data-name="Grupo 3655" transform="translate(291.638 41.089)" opacity="0.2">
        <path id="Caminho_10975" data-name="Caminho 10975" d="M440.8,91.72c-8.732,0-16.81,7.469-24.978,7.469H394.34v15h21.481c8.168,0,16.246,7.514,24.978,7.514,10.334,0,18.051-5.776,18.051-15S451.133,91.72,440.8,91.72Zm2.369,20.6a5.6,5.6,0,1,1,.045,0Z" transform="translate(-394.34 -91.72)"/>
      </g>
      <path id="Caminho_10976" data-name="Caminho 10976" d="M423.672,99.08S400.59,142.245,396.1,148.111s-15.389,5.393-22.135,5.393H318.818c-6.769,0-17.645.5-22.135-5.393S269.11,99.08,269.11,99.08Z" transform="translate(-260.039 -41.384)" fill="#455a64"/>
    </g>
    <g id="Grupo_3687" data-name="Grupo 3687" transform="translate(-10212.616 -756.585)">
      <path id="Caminho_10958" data-name="Caminho 10958" d="M65.641,484.572H629.457L647.583,61.71H47.48Z" transform="translate(10367.619 812.013)" fill="#ebebeb"/>
      <path id="Caminho_10959" data-name="Caminho 10959" d="M303.4,416.624H75.388L60.52,73.51H303.4ZM78.715,413.158H299.937V76.976H64.263Z" transform="translate(10399.773 841.11)" fill="#dbdbdb"/>
      <path id="Caminho_10960" data-name="Caminho 10960" d="M141.5,227.868H117.83V104H141.5ZM121.3,224.4h16.74V107.466H121.3Z" transform="translate(10541.088 916.292)" fill="#dbdbdb"/>
      <path id="Caminho_10961" data-name="Caminho 10961" d="M365.525,416.624H137.51V73.51H380.393Zm-224.549-3.466H362.2L376.754,76.976H141.08Z" transform="translate(10589.615 841.11)" fill="#dbdbdb"/>
      <path id="Caminho_10962" data-name="Caminho 10962" d="M167.121,227.868H143.45V104h23.671ZM146.916,224.4h16.74V107.466h-16.74Z" transform="translate(10604.262 916.292)" fill="#dbdbdb"/>
    </g>
  </g>
</svg>
