<svg xmlns="http://www.w3.org/2000/svg" width="180.386" height="200.021" viewBox="0 0 180.386 200.021">
  <g id="Componente_34_6" data-name="Componente 34 – 6" transform="matrix(0.995, -0.105, 0.105, 0.995, 0, 16.937)">
    <g id="Grupo_8013" data-name="Grupo 8013" transform="translate(0 39.868) rotate(-20)">
      <g id="Retângulo_2115" data-name="Retângulo 2115" transform="translate(0 5.496)" fill="#59316d" stroke="#59316d" stroke-width="2">
        <rect width="116.567" height="147.985" rx="4" stroke="none"/>
        <rect x="1" y="1" width="114.567" height="145.985" rx="3" fill="none"/>
      </g>
      <rect id="Retângulo_2092" data-name="Retângulo 2092" width="136.891" height="106.593" transform="translate(113.656 9.195) rotate(90.242)" fill="#fff"/>
      <rect id="Retângulo_2112" data-name="Retângulo 2112" width="137.412" height="106.905" transform="translate(113.672 9.083) rotate(90.242)" fill="none" stroke="#59316d" stroke-linejoin="round" stroke-width="2"/>
      <g id="Grupo_7966" data-name="Grupo 7966" transform="translate(106.27 12.902) rotate(90)">
        <path id="Caminho_13407" data-name="Caminho 13407" d="M5.739,2.886A2.87,2.87,0,1,0,2.853,5.739h.008A2.863,2.863,0,0,0,5.739,2.892Z" transform="translate(0 84.333)" fill="#59316d"/>
        <path id="Caminho_13408" data-name="Caminho 13408" d="M5.726,2.866a2.854,2.854,0,1,0,0,.013Z" transform="translate(0.101 63.266)" fill="#59316d"/>
        <path id="Caminho_13409" data-name="Caminho 13409" d="M5.74,2.885A2.87,2.87,0,1,0,2.854,5.74h.013A2.87,2.87,0,0,0,5.74,2.885Z" transform="translate(0.181 42.168)" fill="#59316d"/>
        <path id="Caminho_13410" data-name="Caminho 13410" d="M5.74,2.88A2.87,2.87,0,1,0,2.86,5.74h0A2.863,2.863,0,0,0,5.74,2.893Z" transform="translate(0.268 21.087)" fill="#59316d"/>
        <path id="Caminho_13411" data-name="Caminho 13411" d="M5.74,2.887A2.87,2.87,0,1,0,2.853,5.74h0A2.876,2.876,0,0,0,5.74,2.887Z" transform="translate(0.362 0)" fill="#59316d"/>
      </g>
      <g id="Grupo_7972" data-name="Grupo 7972" transform="translate(11.202 30.377)">
        <path id="Caminho_13484" data-name="Caminho 13484" d="M0,.669,94.713.862V.193L0,0Z" transform="translate(96.489 1.261) rotate(-179.758)" fill="#e0e0e0"/>
        <path id="Caminho_13483" data-name="Caminho 13483" d="M0,.669l93.79.193V.193L0,0Z" transform="translate(95.565 10.711) rotate(-179.758)" fill="#e0e0e0"/>
        <path id="Caminho_13485" data-name="Caminho 13485" d="M0,.669,94.713.862V.193L0,0Z" transform="translate(95.522 20.154) rotate(-179.758)" fill="#e0e0e0"/>
        <rect id="Retângulo_2096" data-name="Retângulo 2096" width="94.499" height="0.668" transform="translate(0.165 29.322)" fill="#e0e0e0"/>
        <rect id="Retângulo_2097" data-name="Retângulo 2097" width="94.499" height="0.668" transform="translate(0.147 38.809)" fill="#e0e0e0"/>
        <rect id="Retângulo_2098" data-name="Retângulo 2098" width="94.499" height="0.668" transform="translate(0.129 48.289)" fill="#e0e0e0"/>
        <rect id="Retângulo_2099" data-name="Retângulo 2099" width="94.499" height="0.668" transform="translate(0.104 57.774)" fill="#e0e0e0"/>
        <path id="Caminho_13486" data-name="Caminho 13486" d="M0,.669,94.713.862V.193L0,0Z" transform="translate(95.324 67.398) rotate(-179.758)" fill="#e0e0e0"/>
        <path id="Caminho_13487" data-name="Caminho 13487" d="M0,.669,94.713.862V.193L0,0Z" transform="translate(95.28 76.849) rotate(-179.758)" fill="#e0e0e0"/>
        <rect id="Retângulo_2102" data-name="Retângulo 2102" width="94.499" height="0.668" transform="translate(0.036 86.233)" fill="#e0e0e0"/>
        <rect id="Retângulo_2103" data-name="Retângulo 2103" width="94.499" height="0.668" transform="translate(0.018 95.713)" fill="#e0e0e0"/>
        <rect id="Retângulo_2104" data-name="Retângulo 2104" width="94.499" height="0.668" transform="translate(0 105.199)" fill="#e0e0e0"/>
      </g>
      <g id="Grupo_7974" data-name="Grupo 7974" transform="translate(107.693 0) rotate(90)">
        <path id="Caminho_13416" data-name="Caminho 13416" d="M6.328,13.747l-.318.042a5.612,5.612,0,0,1-.886-.12,6.393,6.393,0,0,1-1.341-.5,5.967,5.967,0,0,1-1.562-1.1,6.786,6.786,0,0,1-1.356-1.9A8.458,8.458,0,0,1,.09,7.618a6.441,6.441,0,0,1,.206-3A6.569,6.569,0,0,1,2.132,1.958,7.6,7.6,0,0,1,4.929.389,9.083,9.083,0,0,1,7.854,0,11.959,11.959,0,0,1,12.585,1.2a16.412,16.412,0,0,1,2.782,1.658c.614.459.916.757.876.809s-.421-.12-1.087-.464a28.929,28.929,0,0,0-2.875-1.336A12.379,12.379,0,0,0,7.823.953a8.482,8.482,0,0,0-2.6.4A6.727,6.727,0,0,0,2.813,2.719a5.732,5.732,0,0,0-1.569,2.23A5.532,5.532,0,0,0,1.03,7.48a8.156,8.156,0,0,0,.6,2.309,6.722,6.722,0,0,0,1.106,1.744A6.017,6.017,0,0,0,4.05,12.643a7.972,7.972,0,0,0,1.18.607c.336.145.622.215.8.3S6.33,13.713,6.328,13.747Z" transform="translate(0 0)" fill="#59316d" stroke="#59316d" stroke-width="1"/>
        <path id="Caminho_13417" data-name="Caminho 13417" d="M6.326,13.7c0,.033-.108.048-.312.041a5.247,5.247,0,0,1-.885-.113,6.428,6.428,0,0,1-2.909-1.6A7.046,7.046,0,0,1,.864,10.137,8.458,8.458,0,0,1,.09,7.587a6.366,6.366,0,0,1,.212-3A6.53,6.53,0,0,1,2.138,1.92,7.458,7.458,0,0,1,4.953.389,9.093,9.093,0,0,1,7.878,0,12.1,12.1,0,0,1,12.616,1.2,16.424,16.424,0,0,1,15.4,2.855c.607.46.909.758.87.817s-.421-.12-1.088-.471a29.461,29.461,0,0,0-2.874-1.336A12.333,12.333,0,0,0,7.848.96a8.489,8.489,0,0,0-2.6.389,6.85,6.85,0,0,0-2.41,1.376A5.037,5.037,0,0,0,1.055,7.487a8.077,8.077,0,0,0,.606,2.3,6.489,6.489,0,0,0,1.1,1.751,6.367,6.367,0,0,0,1.32,1.108,7.276,7.276,0,0,0,1.172.6c.344.15.622.215.809.3A.745.745,0,0,1,6.326,13.7Z" transform="translate(0.086 21.104)" fill="#59316d" stroke="#59316d" stroke-width="1"/>
        <path id="Caminho_13418" data-name="Caminho 13418" d="M6.333,13.754c.005.04-.115.049-.318.042a5.609,5.609,0,0,1-.886-.12,6.043,6.043,0,0,1-1.341-.5,6.121,6.121,0,0,1-1.57-1.109A6.88,6.88,0,0,1,.869,10.174,8.534,8.534,0,0,1,.094,7.618a6.286,6.286,0,0,1,.206-3A6.62,6.62,0,0,1,2.137,1.958,7.562,7.562,0,0,1,4.933.389,9.083,9.083,0,0,1,7.858,0,11.96,11.96,0,0,1,12.589,1.2a16.417,16.417,0,0,1,2.782,1.658c.614.459.916.757.876.816s-.428-.126-1.094-.47a27.745,27.745,0,0,0-2.875-1.336A12.375,12.375,0,0,0,7.821.954a8.531,8.531,0,0,0-2.606.4A6.69,6.69,0,0,0,2.81,2.72,5.733,5.733,0,0,0,1.241,4.95a5.553,5.553,0,0,0-.214,2.531,8.16,8.16,0,0,0,.6,2.309,6.5,6.5,0,0,0,1.107,1.75,5.951,5.951,0,0,0,1.312,1.1,7.915,7.915,0,0,0,1.231.641c.336.145.622.215.8.3S6.335,13.719,6.333,13.754Z" transform="translate(0.176 42.159)" fill="#59316d" stroke="#59316d" stroke-width="1"/>
        <path id="Caminho_13419" data-name="Caminho 13419" d="M6.327,13.74c0,.033-.115.049-.318.042a4.737,4.737,0,0,1-.879-.114,6.615,6.615,0,0,1-1.347-.5,6.29,6.29,0,0,1-1.563-1.11A6.739,6.739,0,0,1,.864,10.167,8.454,8.454,0,0,1,.09,7.618a6.369,6.369,0,0,1,.212-3A6.516,6.516,0,0,1,2.131,1.951,7.624,7.624,0,0,1,4.929.389,9.086,9.086,0,0,1,7.853,0,12.106,12.106,0,0,1,12.592,1.2a16.3,16.3,0,0,1,2.775,1.659c.614.459.916.757.877.816s-.421-.12-1.088-.471a30.407,30.407,0,0,0-2.874-1.336A12.333,12.333,0,0,0,7.824.96a8.486,8.486,0,0,0-2.6.4,6.734,6.734,0,0,0-2.411,1.37A5.735,5.735,0,0,0,1.244,4.956a5.624,5.624,0,0,0-.214,2.531,7.855,7.855,0,0,0,.606,2.3,6.487,6.487,0,0,0,1.1,1.751,6.356,6.356,0,0,0,1.313,1.109,8.351,8.351,0,0,0,1.18.607c.336.145.621.209.8.293S6.335,13.705,6.327,13.74Z" transform="translate(0.27 63.259)" fill="#59316d" stroke="#59316d" stroke-width="1"/>
        <path id="Caminho_13420" data-name="Caminho 13420" d="M6.327,13.747c.005.04-.108.048-.312.041a4.764,4.764,0,0,1-.886-.12,5.921,5.921,0,0,1-1.347-.5,6.241,6.241,0,0,1-1.562-1.1A7.045,7.045,0,0,1,.864,10.174,8.913,8.913,0,0,1,.089,7.618a6.378,6.378,0,0,1,.212-3A6.621,6.621,0,0,1,2.139,1.957,7.573,7.573,0,0,1,4.928.389,9.089,9.089,0,0,1,7.853,0,11.95,11.95,0,0,1,12.591,1.2a16.432,16.432,0,0,1,2.782,1.658c.607.46.909.758.87.817s-.421-.127-1.087-.471a28.622,28.622,0,0,0-2.875-1.336A12.361,12.361,0,0,0,7.816.954a8.484,8.484,0,0,0-2.6.4A6.727,6.727,0,0,0,2.806,2.72a5.647,5.647,0,0,0-1.562,2.23,5.578,5.578,0,0,0-.22,2.532A8.383,8.383,0,0,0,1.63,9.79a6.692,6.692,0,0,0,1.1,1.751,6.141,6.141,0,0,0,1.319,1.1,7.343,7.343,0,0,0,1.18.607c.337.151.615.216.8.3S6.336,13.712,6.327,13.747Z" transform="translate(0.356 84.333)" fill="#59316d" stroke="#59316d" stroke-width="1"/>
      </g>
    </g>
  </g>
</svg>
