<?xml version="1.0" encoding="utf-8"?>
<!-- Generator: Adobe Illustrator 16.0.0, SVG Export Plug-In . SVG Version: 6.00 Build 0)  -->
<!DOCTYPE svg PUBLIC "-//W3C//DTD SVG 1.1//EN" "http://www.w3.org/Graphics/SVG/1.1/DTD/svg11.dtd">
<svg version="1.1" id="Layer_1" xmlns="http://www.w3.org/2000/svg" xmlns:xlink="http://www.w3.org/1999/xlink" x="0px" y="0px"
	 width="466.001px" height="463.895px" viewBox="0 0 466.001 463.895" enable-background="new 0 0 466.001 463.895"
	 xml:space="preserve">
<path fill="#ECE5EF" d="M236.855,229.573l229.146-0.26c-0.151-22.91-3.608-45.031-9.918-65.918L236.776,228.32
	c-0.06-0.263-0.142-0.517-0.249-0.759l191.55-124.15c-12.222-18.666-27.047-35.471-43.966-49.898L235.476,226.134
	c-0.229-0.205-0.48-0.381-0.751-0.532l94.238-207.126C308.862,9.38,287.236,3.07,264.582,0l-31.833,225.061
	c-0.02,0-0.039-0.006-0.059-0.006c-0.056,0-0.108,0.014-0.163,0.017L200.444,0.137c-22.63,3.165-44.219,9.571-64.279,18.75
	l94.383,206.774c-0.247,0.147-0.477,0.316-0.688,0.51L80.938,54.323c-16.749,14.439-31.415,31.223-43.501,49.838l191.454,123.332
	c-0.107,0.231-0.19,0.474-0.254,0.725L9.712,164.112C3.486,184.965,0.095,207.04,0,229.896l228.534-0.246
	c0.031,0.328,0.097,0.643,0.199,0.945L9.104,295.598c6.339,21.97,15.82,42.605,27.932,61.388l192.553-124.928
	c0.129,0.143,0.269,0.272,0.417,0.396L80.021,406.637c16.704,14.552,35.503,26.756,55.882,36.111l95.351-209.567
	c0.111,0.041,0.226,0.074,0.341,0.105l-32.301,228.172c11.008,1.596,22.26,2.437,33.71,2.437c11.291,0,22.388-0.82,33.249-2.372
	l-32.558-228.208c0.125-0.031,0.247-0.072,0.368-0.114l95.76,209.678c20.582-9.414,39.554-21.736,56.393-36.443l-150.81-174.007
	c0.157-0.134,0.303-0.277,0.438-0.433l193.418,124.55c12.027-18.744,21.437-39.325,27.726-61.227l-220.404-64.514
	C236.737,230.42,236.822,230.004,236.855,229.573z"/>
</svg>
