<?xml version="1.0" encoding="utf-8"?>
<!-- Generator: Adobe Illustrator 25.4.1, SVG Export Plug-In . SVG Version: 6.00 Build 0)  -->
<svg version="1.1" id="Ãcone_casa" xmlns="http://www.w3.org/2000/svg" xmlns:xlink="http://www.w3.org/1999/xlink" x="0px"
	 y="0px" viewBox="0 0 200 200" style="enable-background:new 0 0 200 200;" xml:space="preserve">
<style type="text/css">
	.st0{fill:#FFFFFF;}
	.st1{fill:#FEEBD7;}
	.st2{fill:#FDD4A3;}
	.st3{opacity:0.6;}
	.st4{fill:#F4CEAE;}
	.st5{fill:#E5656F;}
	.st6{fill:#59316D;}
	.st7{fill:#F7A776;}
	.st8{fill:#E28450;}
	.st9{fill:#63849C;}
	.st10{fill:#95B3C6;}
	.st11{fill:#C9BEB1;}
	.st12{fill:#DDD3C7;}
</style>
<g>
	<g id="Objects">
		<rect x="29.8" y="80.1" class="st0" width="144.4" height="101.8"/>
		<polygon class="st0" points="182.6,86.8 21.4,86.8 22.9,82.1 30.1,60.8 39.2,33.6 164.7,33.6 167.8,42.8 181,82.1 		"/>
		<rect x="25.1" y="80.1" class="st1" width="144.4" height="101.8"/>
		<rect x="25.1" y="161" class="st2" width="144.4" height="20.9"/>
		<g class="st3">
			<polygon class="st4" points="177.9,86.8 172.8,86.8 169.4,86.8 169.4,93.1 169.4,97.3 25.1,105.7 25.1,93.1 25.1,86.8 21.7,86.8 
				16.6,86.8 18.2,82.1 176.3,82.1 			"/>
		</g>
		<polygon class="st5" points="177.9,86.8 16.6,86.8 18.2,82.1 25.4,60.8 34.5,33.6 160,33.6 163.1,42.8 176.3,82.1 		"/>
		<rect x="56.7" y="15.4" class="st0" width="19.7" height="18.2"/>
		<rect x="54.2" y="12.8" class="st0" width="24.7" height="5.2"/>
		<rect x="53.5" y="15.4" class="st1" width="19.7" height="18.2"/>
		<g class="st3">
			<polygon class="st4" points="73.2,15.4 73.2,20.7 53.5,21.9 53.5,15.4 			"/>
		</g>
		<rect x="51" y="12.8" class="st5" width="24.7" height="5.2"/>
		<path class="st6" d="M78.9,18.8H54.2c-0.4,0-0.8-0.3-0.8-0.8c0,0,0,0,0,0v-5.2c0-0.4,0.3-0.8,0.8-0.8c0,0,0,0,0,0h24.7
			c0.4,0,0.8,0.3,0.8,0.8V18C79.7,18.4,79.3,18.8,78.9,18.8z M55,17.2h23.1v-3.6H55V17.2z"/>
		<path class="st6" d="M174.2,182.7H29.8c-0.4,0-0.8-0.4-0.8-0.8V87.6h-7.6c-0.3,0-0.5-0.1-0.6-0.3c-0.1-0.2-0.2-0.5-0.1-0.7
			l17.9-53.2c0.1-0.3,0.4-0.5,0.7-0.5h16.7v-14h-1.7c-0.4,0-0.8-0.3-0.8-0.8c0,0,0,0,0,0v-5.2c0-0.4,0.4-0.8,0.8-0.8l0,0h24.7
			c0.4,0,0.8,0.4,0.8,0.8V18c0,0.4-0.4,0.8-0.8,0.8h-1.7v14h87.5c0.3,0,0.6,0.2,0.7,0.5l16.3,48.5l0,0l1.6,4.7
			c0.1,0.2,0,0.5-0.1,0.7c-0.1,0.2-0.4,0.3-0.6,0.3h-7.6v94.4C175,182.4,174.6,182.7,174.2,182.7
			C174.2,182.7,174.2,182.7,174.2,182.7z M30.6,181.1h142.8V86.8c0-0.4,0.3-0.8,0.8-0.8c0,0,0,0,0,0h7.3l-17.3-51.6H76.4
			c-0.4,0-0.8-0.3-0.8-0.8V18c0-0.4,0.4-0.8,0.8-0.8l0,0h1.7v-3.6H55v3.6h1.7c0.4,0,0.8,0.3,0.8,0.8c0,0,0,0,0,0v15.6
			c0,0.4-0.3,0.8-0.8,0.8H39.8L22.4,86h7.3c0.4,0,0.8,0.3,0.8,0.8L30.6,181.1z"/>
		<rect x="44.5" y="118.9" class="st7" width="30.4" height="57.5"/>
		<path class="st0" d="M74.9,118.9v57.5H44.5v-57.5H74.9 M78,115.8H41.5v63.7H78V115.8z"/>
		<path class="st8" d="M54.1,149.1c0,1-0.8,1.8-1.8,1.8c-1,0-1.8-0.8-1.8-1.8c0-1,0.8-1.8,1.8-1.8C53.3,147.3,54.1,148.1,54.1,149.1
			C54.1,149.1,54.1,149.1,54.1,149.1z"/>
		<path class="st0" d="M54.1,149.1c0,1-0.8,1.8-1.8,1.8c-1,0-1.8-0.8-1.8-1.8c0-1,0.8-1.8,1.8-1.8C53.3,147.3,54.1,148.1,54.1,149.1
			C54.1,149.1,54.1,149.1,54.1,149.1z"/>
		<path class="st6" d="M78.1,177.2H47.7c-0.4,0-0.8-0.3-0.8-0.8c0,0,0,0,0,0v-57.5c0-0.4,0.3-0.8,0.8-0.8c0,0,0,0,0,0h30.4
			c0.4,0,0.8,0.4,0.8,0.8l0,0v57.5C78.9,176.9,78.5,177.2,78.1,177.2L78.1,177.2z M48.4,175.6h28.8v-56H48.5L48.4,175.6z"/>
		<path class="st6" d="M81.1,180.3H44.6c-0.4,0-0.8-0.3-0.8-0.8v-63.7c0-0.4,0.3-0.8,0.8-0.8c0,0,0,0,0,0h36.5
			c0.4,0,0.8,0.4,0.8,0.8l0,0v63.7C81.9,179.9,81.6,180.3,81.1,180.3C81.1,180.3,81.1,180.3,81.1,180.3z M45.4,178.7h35v-62.1h-35
			V178.7z M78.1,177.2H47.7c-0.4,0-0.8-0.3-0.8-0.8c0,0,0,0,0,0v-57.5c0-0.4,0.3-0.8,0.8-0.8c0,0,0,0,0,0h30.4
			c0.4,0,0.8,0.4,0.8,0.8l0,0v57.5C78.9,176.9,78.5,177.2,78.1,177.2L78.1,177.2L78.1,177.2z M48.4,175.6h28.8v-56H48.5L48.4,175.6z
			"/>
		<path class="st6" d="M53.9,151.7c-1.4,0-2.5-1.1-2.5-2.6s1.1-2.6,2.5-2.6c1.4,0,2.5,1.1,2.5,2.6C56.4,150.5,55.3,151.7,53.9,151.7
			z M53.9,148.1c-0.6,0-1,0.4-1,1s0.4,1,1,1s1-0.4,1-1S54.4,148.1,53.9,148.1z"/>
		<rect x="94" y="122.9" class="st1" width="72.7" height="64.3"/>
		<path class="st6" d="M166.7,187.9H94c-0.4,0-0.8-0.3-0.8-0.8l0,0v-61.9c0-0.4,0.3-0.8,0.8-0.8h72.7c0.4,0,0.8,0.4,0.8,0.8v61.9
			C167.5,187.6,167.1,187.9,166.7,187.9C166.7,187.9,166.7,187.9,166.7,187.9z M94.8,186.4h71.2v-60.3H94.8V186.4z"/>
		<rect x="154.2" y="103.9" class="st2" width="13.9" height="3.6"/>
		<polygon class="st5" points="167.6,125.3 85.5,125.3 88.8,115.5 164.2,115.5 166.1,121 		"/>
		<path class="st6" d="M170.7,126.1h-82c-0.3,0-0.5-0.1-0.6-0.3c-0.2-0.2-0.2-0.5-0.1-0.7l3.3-9.8c0.1-0.3,0.4-0.5,0.8-0.5h75.4
			c0.3,0,0.6,0.2,0.8,0.5l3.3,9.8c0.1,0.4-0.1,0.9-0.6,1C170.9,126,170.8,126,170.7,126.1L170.7,126.1z M89.8,124.5h79.9l-2.8-8.3
			H92.5L89.8,124.5z"/>
		<rect x="102.9" y="133.2" class="st9" width="48.5" height="30.8"/>
		<path class="st0" d="M151.4,133.2V164H103v-30.8L151.4,133.2 M154.6,130.1H99.9v36.9h54.6L154.6,130.1L154.6,130.1z"/>
		<polygon class="st10" points="130.2,133.2 106.1,157.3 106.1,141.5 114.4,133.2 		"/>
		<polygon class="st10" points="141.6,133.2 110.8,164 106.1,164 106.1,161.2 134.1,133.2 		"/>
		<rect x="107.7" y="173.5" class="st2" width="13.9" height="3.6"/>
		<rect x="114.7" y="177.7" class="st2" width="13.9" height="3.6"/>
		<path class="st6" d="M182.6,87.6H21.4c-0.3,0-0.5-0.1-0.6-0.3c-0.1-0.2-0.2-0.5-0.1-0.7l17.9-53.2c0.1-0.3,0.4-0.5,0.7-0.5h125.5
			c0.3,0,0.6,0.2,0.7,0.5l17.9,53.2c0.1,0.2,0,0.5-0.1,0.7C183.1,87.4,182.8,87.6,182.6,87.6z M22.4,86h159l-17.3-51.6H39.8L22.4,86
			z"/>
		<rect x="39.4" y="176.2" class="st11" width="40.7" height="5.5"/>
		<rect x="36.3" y="181.7" class="st12" width="46.8" height="5.5"/>
		<path class="st6" d="M83.2,182.4H42.5c-0.4,0-0.8-0.3-0.8-0.8v-5.5c0-0.4,0.3-0.8,0.8-0.8c0,0,0,0,0,0h40.7c0.4,0,0.8,0.4,0.8,0.8
			v5.5C84,182.1,83.6,182.5,83.2,182.4C83.2,182.5,83.2,182.5,83.2,182.4z M43.3,180.9h39.1V177H43.3V180.9z"/>
		<path class="st6" d="M86.2,188H39.5c-0.4,0-0.8-0.4-0.8-0.8v-5.5c0-0.4,0.4-0.8,0.8-0.8h46.8c0.4,0,0.8,0.4,0.8,0.8v5.5
			C87,187.6,86.7,188,86.2,188z M40.2,186.4h45.2v-3.9H40.2V186.4z"/>
		<path class="st6" d="M154.6,164.8h-48.5c-0.4,0-0.8-0.4-0.8-0.8v-30.8c0-0.4,0.4-0.8,0.8-0.8h48.5c0.4,0,0.8,0.3,0.8,0.8V164
			C155.4,164.4,155,164.8,154.6,164.8C154.6,164.8,154.6,164.8,154.6,164.8z M106.9,163.2h46.9V134h-46.9L106.9,163.2z"/>
		<path class="st6" d="M157.6,167.9H103c-0.4,0-0.8-0.4-0.8-0.8v-36.9c0-0.4,0.3-0.8,0.8-0.8c0,0,0,0,0,0h54.6
			c0.4,0,0.8,0.3,0.8,0.8c0,0,0,0,0,0v36.9C158.4,167.5,158.1,167.8,157.6,167.9z M103.8,166.3h53.1v-35.3h-53.1V166.3z
			 M154.6,164.8h-48.5c-0.4,0-0.8-0.4-0.8-0.8v-30.8c0-0.4,0.4-0.8,0.8-0.8h48.5c0.4,0,0.8,0.3,0.8,0.8V164
			C155.4,164.4,155,164.8,154.6,164.8C154.6,164.8,154.6,164.8,154.6,164.8L154.6,164.8z M106.9,163.2h46.9V134h-46.9L106.9,163.2z"
			/>
	</g>
</g>
</svg>
