<?xml version="1.0" encoding="utf-8"?>
<!-- Generator: Adobe Illustrator 25.4.1, SVG Export Plug-In . SVG Version: 6.00 Build 0)  -->
<svg version="1.1" id="Cliente_10" xmlns="http://www.w3.org/2000/svg" xmlns:xlink="http://www.w3.org/1999/xlink" x="0px" y="0px"
	 viewBox="0 0 432 589" style="enable-background:new 0 0 432 589;" xml:space="preserve">
<style type="text/css">
	.st0{fill:#263238;}
	.st1{fill:#59316D;}
	.st2{fill:#455A64;}
	.st3{fill:#8F5646;}
	.st4{fill:#FFFFFF;}
	.st5{fill:#FFCCA9;}
	.st6{fill:#754739;}
	.st7{fill:#603930;}
</style>
<path class="st0" d="M289.6,101.3c-4.2,0.1-7.3-0.7-5.3-6.4c1.1-3.2,4-2.9,6-5.4c1.8-2.4,6.2-6.7,4-9.8c-2.7,0.8-10,2.5-12.7-0.6
	c-3.2-3.6,2.5-11.5,1.9-15.6c-0.1-1-1.4-1.2-1.5-2.4s0.5-2,0.6-3.2s1.4-5.5,0.7-6.5c-1.9-2.8-2.4,0.6-3.3,1.2
	c-1.2,0.8-3,0.9-4.2,2.2c-1.4,1.5-2.9,10.5-6.5,6.5c-3-3.3,1.3-10,1.3-13.5c-0.1-5.1-0.9-8.4-5.4-3.3c-1.9,2.2-2.3,4.1-3.9,6.6
	c-1.3,2-3.8,5-5.3,1c-0.7-2,1.1-4.1,0.7-6.1c-0.2-0.8-1.6-1-1.8-1.8c-0.3-1.4,1.5-2.6,1-4.2c-0.5-1.9-3.3-2.2-4.4-4.2
	c-1.6-2.9,0.5-4.2,0.8-7.3c-2.6-0.6-3.9,0.4-5.6,1.7c-1.5,1.1-2.8,3.3-4.9,2c-1.8-1.1-0.5-4.5-3.5-2.6c-1.4,0.9-2.7,4.3-3.9,5.8
	c-1.4,1.8-3.1,4.4-5,1.1c-1-1.8,0.2-5,0-6.9c-0.2-1.3-1-2.4-1.1-3.6c-0.1-0.9,0.3-2.5,0.1-3.2c-0.2-1.5-1.1-2.7-2.5-3.3
	c-2,1.9-4,3.6-6.2,5.2c-1.7,1.3-3.4,1.7-4.4,3.5s0,3.7-0.7,5.2s-0.9,3.4-3.2,2.5c-1.5-0.6-0.9-1.9-1.6-3.4c-1.5-3.5-2.2-4.6-2.6-8.6
	c-0.2-1.7-0.2-3.1-1.5-4.3c-1.8-1.6-8.2-2-10.2,0c-1.1,1.1-1.9,5-2.1,6.5c-0.2,1.7,1.2,5.1,0,6.4c-1.5,1.7-4.8-0.3-4.4,4.1
	c-1.4,0.4-7.2-0.7-8.5-2s-2-8.1-2.7-10.2s-3.1-9.2-4.7-4.8c-0.7,1.9,1,3.3-0.2,5.3c-1.1,1.7-4.7,1.8-5.5,3.9
	c-1.3,3.2,6.9,11.5,2.1,14.2c-2.3,1.3-8.3-4.2-10-5.7c-1.1-0.9-1.9-4.1-4-1.2c-0.8,1.1,0,4.2,0.7,5.3c1.4,2.1,5.1,2.9,6,5.1
	c1.2,3-0.7,3.7-2.9,3.3c-1.9-0.3-2.4-1.6-3.8-2.3c-0.9-0.4-1.8,0.4-2.6-0.3c-0.7-0.5-0.7-2.6-1.4-3.3s-1.8-0.1-2.6-0.6
	c-1-0.7-0.6-1.8-2.1-2.3c-2.8-0.9-3.5,0.9-3.5,2.9c0.1,3.5,4.3,4.1,4.9,6.9s-3.7,2.9-5.3,4.5c1.5,2.1,4.2,3.6,5.7,5.9
	c-2.4,4.1,3.9,5.2,5.5,7c-1.1,2.6-4,2.3-5.4,2.3s-2-1.4-4.4-0.3c-1.9,0.8-3.2,2.7-4.9,3.8c-1.6-1.8-5-5.6-6.7-1.2
	c-1.2,3.3,1.2,5.4,3.1,7c1.1,1,2.4,1.8,3.8,2.3c0.9,0.3,4.3,0.2,4.3,2c0,1.6-5.9,4.6-7.1,5.3c-2.1,1.2-4.4,0.5-5.7,2.2
	c-2,2.6,0.4,5.1,2.8,5.8c1.5,0.5,7.4-0.3,5.4,3.2c-0.3,0.6-5.4,2.3-6.2,2.8c0.3,0.4,0.6,0.7,1,1c0.1-0.3,0.3-0.6,0.5-0.9
	c0.2,3-2.5,4.1-4.9,4.2c4.8,3.5,1.6,3.1,0.5,7c-0.3,1.6-0.3,3.3,0,4.9c0.8,2,0.2,0.5,1.8,1.7c1.3,1,2.8,1,3.9,2.4
	c0.9,1.1,1.1,2.6,1.8,3.8c0.7,1.2,6.4,6.5,1.9,5.9c-0.3,3.2,1.4,6.1,0.7,9.5c2.6,1.2,4.3,2.4,3.7,5.8c-0.3,1.8-0.7,2.1-1.9,3.1
	c-0.6,0.5-1.8,0-2.2,0.6c-0.6,0.7,0.3,1.7-0.1,2.4c-1.4,2.1-3.9,3.7,0.4,4.8c3.4,0.9,4.7-2.5,7.5-2.7c1.3,0.1,2.6,0.7,3.5,1.7
	c1.2,2.2-0.8,2-0.6,3.8c0.4,4,3.4,4.8,6.4,3.6s3.8-1.5,3.9,2.8c0.1,2.8-1.5,5,1,7.1c1,0.9,2.6,0.9,3.6,1.7s1.3,1.8,2,2.5
	c1.9,1.9,4.2,3,6.9,2.5c0.7,0.3,1.3,0.7,1.9,1.2c3.2,2.7,3.7,3.2,7.5,4.3c2.1,0.6,4.1,2.5,6.4,2.2c1.4-0.1,2.8-1.6,4.1-2.1
	c4.4-1.5,9,0,13.5-0.3c2.8-0.2,4.9-1.5,7.8-1.2c1.3,0.3,2.5,0.5,3.8,0.6c2.5,0,4.4-0.3,6.9,0.2c2.2,0.5,3.8,1.3,6.2,1
	c2.6-0.3,7.5-1.1,9.4-2.9s1.6-3.6,3.8-4.8c2.8-1.5,2.2-0.7,4.5,1.5c1.5,1.5,4.8,3.7,6.1,0.2c0.9-2.3-2-4.6-0.5-7.6
	c0.5-1.1,1.3-2,2.4-2.5c1-0.3,1.9,1,2.6,0.8c2.7-0.7,1.5-2.1,1.7-5.3c0-1.4-0.4-3.4,0-4.8c1.4-4.3,3.1-3.5,6.6-3.9
	c3.8-0.4,2.5-2.3,4.4-5.4c0.7-1.1,2-1.8,2.6-2.9c0.4-0.7,0.3-3.3,0.9-3.7c1-0.7,2.2,0.5,3.1,0s0.7-1.2,1.2-1.7
	c4.5-3.9,4.8-6.4-2.1-5.8c0.3-1.6-0.5-2.6-0.4-4.2c0.2-3.1,0.5-1.5,2.7-3.1c2.1-1.6,4.3-3,6.6-4.2c2.1-1,5.6-3.4,3-6
	s-9.8,0.6-6.4-6.7c0.7-1.6,2-2.6,3-4c1.3-1.9,1.6-4.8,3.1-6.4c1.1-1.2,4.4-1.1,2.5-3.6C292.1,100.3,291.2,101.3,289.6,101.3z
	 M170.5,181.6c0.8,0.1,1.6,0.2,2.4,0.4L170.5,181.6z"/>
<path class="st1" d="M189.6,191.2c-1.5-0.1-3-0.6-4.2-1.4c-0.7-0.4-1.4-0.7-2.1-0.9c-3.8-1.1-4.6-1.8-7.4-4.1l-0.5-0.4
	c-0.4-0.3-0.9-0.6-1.3-0.9c-2.7,0.4-5.2-0.5-7.5-2.8c-0.4-0.4-0.7-0.8-1-1.2c-0.2-0.4-0.6-0.8-0.9-1.1c-0.4-0.3-0.9-0.5-1.4-0.6
	c-0.8-0.2-1.6-0.6-2.2-1.1c-2.2-1.9-1.8-3.9-1.6-5.7c0.1-0.7,0.2-1.5,0.2-2.2c0-0.8-0.1-1.7-0.3-2.4c-0.7,0.2-1.4,0.4-2,0.6h-0.1
	c-1.8,0.8-3.9,0.8-5.6-0.1c-1.5-1-2.3-2.6-2.4-4.4c-0.1-0.8,0.2-1.7,0.8-2.3c0.3-0.4,0.3-0.4,0-1.1c-0.7-0.6-1.5-1-2.4-1.1
	c-0.9,0.2-1.8,0.6-2.5,1.2c-1.3,0.9-2.9,2.1-5.4,1.4c-1.2-0.3-2.7-0.8-3.1-2.1s0.4-2.3,1.2-3.4c0.2-0.3,0.5-0.6,0.7-1l-0.1-0.3
	c-0.5-1.1,0-2.4,1.1-2.8c0.4-0.2,0.8-0.2,1.2-0.2c0.1,0,0.3,0,0.4,0l0.2-0.2c0.7-0.5,1.2-1.3,1.2-2.2c0.4-2.6-0.6-3.4-3.1-4.6
	c-0.5-0.2-0.7-0.7-0.6-1.2c0.3-1.6,0.2-3.3-0.3-4.9c-0.4-1.5-0.5-2.9-0.4-4.4c0-0.3,0.2-0.6,0.4-0.8c0.2-0.2,0.6-0.3,0.9-0.2h0.3
	c-0.7-1-1.4-2-2.2-2.9c-0.4-0.4-0.8-0.9-1.1-1.4c-0.3-0.6-0.6-1.2-0.8-1.8c-0.2-0.6-0.5-1.2-0.9-1.8c-0.5-0.5-1.1-0.9-1.8-1.2
	c-0.7-0.2-1.3-0.6-1.9-1c-0.1-0.1-0.3-0.2-0.5-0.3c-0.9,0-1.1-0.6-1.6-1.8l-0.1-0.2c-0.3-1.7-0.3-3.5,0-5.2v-0.1
	c0.3-1.1,0.8-2.1,1.5-3.1c0.2-0.2,0.4-0.5,0.5-0.8c0-0.1-0.1-0.5-2.1-1.9c-0.5-0.4-0.6-1.1-0.2-1.6c0.2-0.2,0.5-0.4,0.8-0.4
	c1.4-0.1,2.9-0.4,3.5-1.5c-0.2-0.2-0.5-0.4-0.9-0.9c-0.2-0.3-0.3-0.6-0.3-0.9c0-0.3,0.3-0.6,0.6-0.8c0.7-0.3,1.5-0.7,2.2-0.9
	c1.2-0.5,2.5-1,3.7-1.6c0.2-0.4,0.2-0.6,0.2-0.6c-0.2-0.4-2.3-0.6-3.1-0.6c-0.7,0-1.3-0.1-2-0.2c-1.9-0.5-3.4-1.9-4.1-3.7
	c-0.4-1.3-0.2-2.8,0.7-3.9c1-1.1,2.3-1.8,3.7-1.8c0.8-0.1,1.6-0.3,2.3-0.7l0.4-0.2c5.4-2.8,6.1-3.9,6.2-4.2
	c-0.2-0.3-1.7-0.5-2.2-0.6c-0.4,0-0.8-0.1-1.3-0.2c-1.5-0.6-2.9-1.4-4.1-2.5c-1.7-1.4-4.9-4-3.4-8.2c0.6-1.6,1.5-2.6,2.7-2.8
	c1.9-0.3,3.9,1.4,5.1,2.8c0.3-0.2,0.6-0.5,0.9-0.8c1-1,2.1-1.9,3.4-2.5c1.3-0.6,2.7-0.6,4,0c0.3,0.1,0.6,0.2,0.9,0.3h0.1
	c1.4,0.1,2.9,0.1,3.8-0.9c-0.4-0.3-0.9-0.5-1.4-0.8c-1.7-0.9-3.6-2-4.2-3.8c-0.2-0.8-0.1-1.7,0.2-2.5c-0.8-0.9-1.6-1.7-2.5-2.5
	c-1-0.8-2-1.8-2.8-2.9c-0.3-0.4-0.3-1,0.1-1.4c0.8-0.7,1.8-1.3,2.8-1.7c1.9-0.8,2.3-1.2,2.2-1.9s-1-1.5-1.9-2.3
	c-1.3-1-2.9-2.4-3-4.8c0-1.8,0.5-3,1.5-3.8c1.1-0.7,2.4-0.8,3.5-0.3c0.9,0.3,1.7,1,2,1.9c0.2,0.4,0.2,0.5,0.4,0.6c0.2,0,0.3,0,0.5,0
	c0.8-0.1,1.7,0.2,2.3,0.7c0.5,0.6,0.8,1.4,1,2.2c0.1,0.4,0.2,0.7,0.4,1.1c0,0,0.1,0,0.6,0c0.6-0.1,1.3-0.1,1.9,0.2
	c0.6,0.3,1.1,0.7,1.6,1.2c0.5,0.5,1.1,0.9,1.9,1.1c1,0.2,1.7,0,1.9-0.2s0.2-0.7-0.2-1.6s-1.4-1.5-2.6-2.2c-1.3-0.6-2.4-1.6-3.3-2.7
	c-0.8-1.2-1.9-4.8-0.7-6.6c0.5-0.9,1.5-1.5,2.5-1.7l0,0c1.2,0,2,1,2.6,1.9c0.2,0.3,0.4,0.5,0.6,0.8l0.4,0.4c6.4,5.6,8,5.4,8.3,5.2
	c1.8-1,0.8-3.5-0.9-7c-1.2-2.5-2.4-4.9-1.6-6.7c0.6-1.5,2.1-2.2,3.5-2.8c0.8-0.2,1.5-0.7,2.1-1.3c0.3-0.6,0.4-1.4,0.1-2.1
	c-0.3-1-0.3-2,0-3c0.5-1.4,1.3-2.1,2.2-2.1l0,0c1.8,0,2.9,2.4,4.4,6.5l0.1,0.4c0.4,1.3,0.7,2.6,0.9,3.9c0.4,1.9,1,5.3,1.6,5.9
	c0.8,0.8,4.7,1.7,6.6,1.7c0.2-2.8,2.1-3.1,3.3-3.3c0.7-0.1,1.2-0.2,1.4-0.5s0.1-2.1-0.1-3c-0.2-0.9-0.3-1.8-0.2-2.8
	c0.1-0.6,0.8-5.5,2.4-7.1c2.4-2.4,9.4-2.1,11.8-0.1c1.6,1.4,1.7,3,1.8,4.6l0.1,0.5c0.2,2.5,0.9,4.9,2,7.1l0.5,1.2
	c0.3,0.6,0.4,1.2,0.5,1.8c0.1,0.9,0.2,0.9,0.5,1c0.2,0.1,0.5,0.2,0.8,0.1c0.2-0.1,0.5-0.8,0.7-1.3c0.1-0.3,0.2-0.5,0.3-0.8
	c0.2-0.5,0.2-1.1,0.1-1.7c-0.2-1.2,0-2.5,0.6-3.6c0.8-1.2,1.8-2.2,3.1-2.8c0.5-0.3,1.1-0.6,1.6-1c2.2-1.6,4.2-3.3,6.1-5.1
	c0.3-0.3,0.8-0.4,1.2-0.2c1.7,0.7,2.9,2.3,3.2,4.1c0.1,0.7,0.1,1.3-0.1,2c-0.1,0.4-0.1,0.9-0.1,1.3c0.1,0.5,0.3,1,0.5,1.4
	c0.3,0.7,0.6,1.5,0.7,2.2c0.1,1,0,2-0.2,3c-0.2,1.3-0.4,2.8,0,3.5s0.8,1,0.9,1l0,0c0.5,0,1.4-1.2,2-1.9l0.3-0.3
	c0.5-0.7,0.9-1.4,1.3-2.2c0.9-1.6,1.7-3.2,2.9-3.9c0.7-0.6,1.7-0.9,2.6-0.6c0.8,0.4,1.3,1.1,1.4,2c0.2,0.6,0.3,1.1,0.7,1.3
	c0.8,0.5,1.2,0.2,2.5-1c0.3-0.3,0.7-0.6,1.1-0.9c1.9-1.4,3.4-2.6,6.5-1.9c0.5,0.1,0.9,0.6,0.9,1.2c-0.1,1.1-0.4,2.2-0.8,3.2
	c-0.5,1.3-0.8,2.1-0.1,3.5c0.5,0.7,1.1,1.2,1.8,1.6c1.2,0.5,2.2,1.4,2.7,2.6c0.2,1,0,2.1-0.6,3c-0.3,0.4-0.4,0.8-0.4,1.2
	c0.2,0.1,0.3,0.2,0.5,0.3c0.7,0.3,1.1,0.9,1.4,1.6c0.2,1.2,0,2.4-0.4,3.5c-0.3,0.8-0.5,1.7-0.3,2.5c0.3,1,0.7,1.2,0.8,1.2
	c0.4,0,1.4-0.7,2.5-2.5c0.5-0.8,1-1.7,1.4-2.6c0.7-1.5,1.5-2.9,2.6-4.1c1.5-1.6,3.3-3.4,5.1-2.8s2.2,3.2,2.2,6.8
	c-0.1,1.7-0.5,3.3-1.1,4.9c-0.9,2.9-2,6.2-0.5,7.8c0.5,0.5,0.8,0.6,1,0.6c0.8-0.2,1.9-2.8,2.4-4.2c0.3-1.1,0.9-2.1,1.5-3
	c0.8-0.8,1.8-1.4,2.9-1.7c0.5-0.2,1-0.4,1.5-0.7c0,0,0.2-0.4,0.4-0.6c0.4-0.8,1-1.8,2.1-1.8c1,0.1,1.9,0.7,2.3,1.6
	c0.7,1.1,0.4,3.2-0.2,6c-0.1,0.6-0.2,1-0.2,1.3c-0.1,0.5-0.2,1-0.4,1.5c-0.2,0.4-0.3,0.9-0.2,1.4c0,0.2,0.1,0.4,0.5,0.7
	c0.5,0.4,0.9,1.1,1,1.7c0.3,1.9-0.5,4.3-1.4,6.8c-1.1,3.2-2.2,6.6-0.8,8.2c2.1,2.4,8.2,1.3,11.5,0.3c0.5-0.1,1,0,1.3,0.4
	c2.4,3.4-1,7.4-3.2,10.1c-0.3,0.4-0.6,0.8-0.9,1.1c-0.9,1-2,1.9-3.2,2.5c-1.2,0.5-2.1,1.4-2.6,2.6c-0.5,1.3-0.9,3-0.3,3.8
	s2.9,1,4.5,1l0,0c0.4,0,0.7-0.1,1.1-0.2c1.2-0.5,2.6-0.1,3.3,1c0.6,0.7,0.9,1.6,0.7,2.4c-0.3,1.1-1.4,1.6-2.2,2
	c-0.4,0.1-0.8,0.4-1.1,0.6c-0.7,0.9-1.2,2-1.5,3.1c-0.4,1.1-0.8,2.2-1.4,3.2c-0.4,0.6-0.8,1.1-1.3,1.7c-0.6,0.7-1.1,1.4-1.6,2.2
	c-1,2.2-0.8,2.9-0.7,3c0.2,0.4,1.4,0.6,2.4,0.7c1.5,0.2,3.2,0.4,4.5,1.6c0.9,0.8,1.4,2,1.3,3.3c-0.4,2.1-2.6,3.6-4.5,4.6
	c-2.3,1.1-4.4,2.5-6.4,4c-0.6,0.5-1.4,0.8-2.1,1l0,0c-0.1,0.4-0.1,0.8-0.1,1.2c0,0.5,0.1,1,0.2,1.5c0.1,0.4,0.2,0.9,0.2,1.4
	c2.9-0.1,4.5,0.5,5.1,1.8c0.6,1.5-0.4,3.4-3.4,6.1c-0.1,0.1-0.1,0.2-0.2,0.3c-0.2,0.7-0.7,1.2-1.3,1.5c-0.7,0.3-1.5,0.3-2.2,0
	c-0.2-0.1-0.4-0.1-0.6-0.1c-0.1,0.3-0.2,0.9-0.2,1.3c0,1.5-0.7,2.9-2,3.8c-0.4,0.3-0.8,0.7-1.1,1.2c-0.4,0.8-0.8,1.6-1,2.4
	c-0.6,1.9-1.2,3.2-4.2,3.5c-0.6,0.1-1.1,0.1-1.6,0.1c-2.3,0.1-3.1,0.2-4,3c-0.1,0.9-0.1,1.8,0,2.7c0.1,0.6,0.1,1.2,0.1,1.8
	c0,0.7,0,1.4,0.1,2.1c0.1,1.6,0.3,3.5-2.6,4.2c-0.7,0.1-1.3-0.1-1.8-0.5c-0.2-0.1-0.4-0.3-0.7-0.3c-0.8,0.4-1.3,1.1-1.7,1.8
	c-0.6,1.3-0.3,2.4,0.2,3.6c0.6,1.2,0.7,2.6,0.3,3.9c-0.3,1.2-1.3,2.2-2.6,2.5c-2.3,0.5-4.7-1.7-5.4-2.3s-1-1.1-1.3-1.4
	c-0.2-0.2-0.3-0.4-0.5-0.6c-0.5,0.2-0.9,0.4-1.4,0.6c-0.8,0.4-1.4,1.1-1.8,2c-0.5,1-1.1,1.9-1.9,2.6c-2.2,2-7.2,2.9-10,3.2
	c-1.7,0.2-3.4-0.1-5-0.6c-0.5-0.2-1.1-0.3-1.6-0.4c-1.5-0.3-3.1-0.4-4.7-0.3c-0.6,0-1.3,0-2,0h-0.1c-1.3-0.1-2.6-0.3-3.9-0.6
	c-1.4-0.1-2.9,0.1-4.2,0.5c-1.1,0.3-2.2,0.5-3.4,0.6c-1.8,0.1-3.5,0-5.3-0.1c-2.8-0.2-5.4-0.4-7.9,0.4c-0.5,0.2-1,0.5-1.4,0.8
	c-0.8,0.7-1.8,1.1-2.9,1.3C189.9,191.1,189.8,191.1,189.6,191.2z M174.2,181.2c0.2,0,0.3,0,0.4,0.1c0.8,0.3,1.5,0.8,2.2,1.3l0.5,0.4
	c2.8,2.3,3.3,2.7,6.6,3.7c0.9,0.3,1.7,0.6,2.5,1.1c1,0.7,2.2,1.1,3.5,1.1c0.7-0.2,1.3-0.5,1.9-0.9c0.6-0.4,1.3-0.8,2-1.1
	c2.9-1,5.9-0.8,8.8-0.5c1.7,0.2,3.3,0.2,5,0.1c1-0.1,2-0.3,2.9-0.6c1.6-0.5,3.4-0.7,5.1-0.6h0.1c1.2,0.3,2.4,0.5,3.6,0.6
	c0.7,0,1.3,0,1.9,0c1.8-0.1,3.5,0,5.2,0.3c0.6,0.1,1.2,0.3,1.8,0.5c1.3,0.5,2.7,0.7,4.1,0.6c3.3-0.4,7.3-1.3,8.8-2.6
	c0.6-0.6,1.1-1.3,1.4-2c0.5-1.3,1.5-2.3,2.7-3c2.4-1.3,3.2-1.2,4.6,0.5c0.4,0.4,0.7,0.9,1.1,1.3c1.2,1.2,2.6,1.9,3.3,1.7
	c0.4-0.1,0.7-0.5,0.9-1.1c0.2-0.8,0-1.7-0.4-2.4c-0.5-1.4-1.1-3.2-0.1-5.3c0.6-1.3,1.6-2.4,2.9-3c0.1,0,0.1,0,0.2-0.1
	c0.9-0.2,1.8,0,2.5,0.6c0.1,0.1,0.2,0.1,0.3,0.2c0.9-0.2,0.9-0.3,0.7-1.8c-0.1-0.8-0.1-1.6-0.1-2.4c0-0.5,0-1-0.1-1.6
	c-0.2-1.2-0.1-2.4,0.1-3.5c1.4-4.3,3.5-4.4,6-4.6c0.5,0,1-0.1,1.5-0.1c1.8-0.2,1.9-0.5,2.3-1.9c0.3-1,0.7-2,1.2-2.9
	c0.4-0.6,0.9-1.2,1.5-1.7c0.4-0.3,0.8-0.7,1-1.2c0.1-0.4,0.2-0.8,0.2-1.2c0.2-1.2,0.3-2.3,1-2.8c0.8-0.5,1.8-0.6,2.7-0.2
	c0.2,0.1,0.4,0.1,0.6,0.1c0,0,0.1-0.1,0.2-0.4c0.2-0.4,0.4-0.8,0.8-1.1c3-2.6,2.8-3.5,2.8-3.5l0,0c0,0-0.6-0.6-4.1-0.3
	c-0.4,0-0.7-0.1-0.9-0.4c-0.2-0.3-0.3-0.6-0.2-1c0.1-0.6,0-1.2-0.1-1.8c-0.2-0.7-0.3-1.5-0.3-2.2c0.1-2,0.3-2.9,1.8-3.2
	c0.5-0.1,1-0.3,1.4-0.7c2.1-1.6,4.4-3.1,6.8-4.2c1.9-0.9,3.2-2,3.3-2.9c0-0.2,0.1-0.6-0.6-1.3c-0.9-0.6-2-1-3.2-1
	c-1.6-0.2-3.3-0.4-4.1-1.9c-0.6-1.2-0.4-2.7,0.6-5.1c0.5-1,1.1-1.9,1.9-2.7c0.4-0.5,0.8-0.9,1.1-1.5c0.5-0.8,0.9-1.8,1.2-2.7
	c0.4-1.4,1.1-2.7,2-3.8c0.5-0.5,1.2-0.9,1.9-1.2c0.3-0.1,0.6-0.3,0.9-0.5c-0.1-0.2-0.2-0.4-0.3-0.5c-0.2-0.3-0.2-0.3-1-0.2
	c-0.5,0.1-1,0.2-1.6,0.2c-2.4,0.1-5-0.1-6.3-2c-1-1.3-1-3.3,0-5.9c0.7-1.7,2-3.1,3.6-3.8c1-0.5,1.8-1.1,2.5-1.9
	c0.3-0.3,0.6-0.7,0.9-1.2c1.6-1.9,3.9-4.7,3.4-6.7c-2.9,0.8-9.9,2.2-12.9-1.2c-2.3-2.7-0.9-6.8,0.4-10.4c0.7-2.1,1.5-4.3,1.3-5.7
	c0-0.1-0.1-0.2-0.4-0.4c-0.6-0.5-1-1.2-1.2-2c-0.1-0.8,0-1.7,0.3-2.4c0.1-0.3,0.2-0.7,0.3-1c0-0.3,0.1-0.9,0.3-1.5
	c0.2-1,0.8-3.7,0.5-4.3c-0.1-0.1-0.2-0.3-0.3-0.4c-0.1,0.2-0.2,0.4-0.3,0.5c-0.2,0.5-0.6,1-1.1,1.3c-0.6,0.4-1.3,0.7-2,0.9
	c-0.8,0.2-1.5,0.6-2.1,1.1c-0.4,0.7-0.8,1.5-1.1,2.3c-1,2.4-2,5.2-4.1,5.5c-1.2,0.1-2.3-0.4-3-1.3c-2.4-2.6-1.1-6.6,0-10
	c0.5-1.3,0.9-2.7,1-4.2c-0.1-4.2-0.7-4.7-0.8-4.7s-0.7,0-2.7,2.2c-0.9,1.1-1.7,2.3-2.3,3.7c-0.5,1-1,1.9-1.5,2.8
	c-1.1,1.7-2.7,3.7-4.6,3.5c-1.2-0.1-2.1-1-2.7-2.7c-0.3-1.3-0.2-2.7,0.3-3.9c0.3-0.7,0.4-1.5,0.4-2.2c-0.1-0.1-0.2-0.2-0.4-0.2
	c-0.7-0.3-1.2-1-1.5-1.7c-0.1-1,0.1-1.9,0.6-2.7c0.3-0.6,0.5-1,0.4-1.4c-0.1-0.6-0.7-1-1.6-1.5c-1.1-0.5-2-1.4-2.6-2.4
	c-0.9-1.7-1-3.7-0.1-5.4c0.2-0.5,0.4-1,0.5-1.5c-1.4,0-2.3,0.6-3.6,1.6c-0.3,0.2-0.6,0.5-0.9,0.8c-1.1,1.1-2.9,2.7-5.2,1.3
	c-0.9-0.6-1.4-1.5-1.6-2.6c0-0.1-0.1-0.2-0.1-0.4c-0.2,0.1-0.4,0.2-0.6,0.3c-0.9,0.9-1.6,2-2.1,3.1c-0.5,0.9-1,1.8-1.7,2.6l-0.2,0.3
	c-1,1.3-2.2,2.9-3.9,2.8c-1.2-0.2-2.2-1-2.7-2.1c-0.8-1.4-0.6-3.3-0.3-4.9c0.2-0.8,0.2-1.6,0.2-2.4c-0.1-0.6-0.3-1.1-0.5-1.6
	c-0.3-0.6-0.5-1.3-0.6-2c-0.1-0.6,0-1.3,0.1-1.9c0.1-0.4,0.1-0.8,0.1-1.2c0,0,0-0.1,0-0.1c-0.1-0.8-0.5-1.6-1.2-2.1
	c-1.8,1.7-3.7,3.3-5.8,4.7c-0.6,0.4-1.1,0.8-1.8,1.1c-0.9,0.4-1.7,1.1-2.3,2c-0.3,0.7-0.4,1.5-0.3,2.3c0.1,0.9,0,1.9-0.3,2.7
	l-0.3,0.7c-0.3,1.1-0.9,2-1.9,2.5c-0.8,0.3-1.7,0.3-2.5-0.1c-1.1-0.4-1.9-1.5-1.9-2.7c0-0.4-0.1-0.8-0.3-1.2l-0.5-1.2
	c-1.2-2.4-2-5.1-2.2-7.8v-0.5c-0.1-1.5-0.2-2.3-1.1-3.1c-1.5-1.3-7.2-1.5-8.7,0c-0.7,0.7-1.4,3.6-1.8,5.9c0,0.7,0.1,1.4,0.2,2.1
	c0.3,1.7,0.6,3.7-0.5,4.9c-0.7,0.7-1.7,1.2-2.8,1.2c-1.2,0.2-1.5,0.2-1.4,2c0,0.5-0.3,1-0.8,1.2c-1.8,0.5-8-0.7-9.6-2.3
	c-1-1-1.5-3.4-2.2-7c-0.2-1.2-0.5-2.4-0.8-3.6l-0.1-0.4c-1.1-3.2-1.9-4.5-2.2-4.9c-0.1,0.2-0.2,0.3-0.2,0.5
	c-0.1,0.6-0.1,1.2,0.1,1.7c0.4,1.3,0.3,2.6-0.4,3.8c-0.8,1-1.9,1.8-3.1,2.2c-1,0.4-2,0.9-2.3,1.5c-0.4,0.9,0.7,3.1,1.6,4.8
	c1.7,3.5,3.8,7.8,0,10c-2.5,1.4-6.7-1.8-10.9-5.5l-0.4-0.3c-0.4-0.4-0.7-0.7-1-1.2c-0.2-0.3-0.5-0.6-0.7-0.9
	c-0.3,0.2-0.5,0.4-0.6,0.7c-0.4,0.5,0.1,3,0.7,4.1c0.7,0.8,1.6,1.5,2.6,2c1.4,0.9,2.9,1.8,3.5,3.3s0.6,2.9-0.1,3.8s-2.2,1.3-4,1
	c-1.1-0.2-2.2-0.8-3-1.6c-0.3-0.3-0.7-0.6-1.1-0.8c-0.2,0-0.4,0-0.5,0c-0.8,0.2-1.6,0-2.3-0.5c-0.6-0.6-1-1.4-1.1-2.2
	c-0.1-0.4-0.2-0.8-0.4-1.2c-0.2,0-0.4,0-0.6,0c-0.6,0.1-1.2-0.1-1.8-0.4c-0.5-0.4-1-0.9-1.2-1.5c-0.2-0.4-0.3-0.6-0.6-0.7
	c-0.5-0.2-1-0.2-1.5,0c-0.3,0.2-0.5,0.9-0.5,1.9c0,1.3,0.8,2,2.1,3.1c1.3,0.8,2.3,2.1,2.7,3.7c0.5,2.7-1.9,3.7-3.5,4.4
	c-0.4,0.2-0.8,0.3-1.2,0.5c0.5,0.5,1.1,1.1,1.8,1.7c1.2,1,2.3,2.1,3.2,3.4c0.2,0.4,0.2,0.8,0,1.2c-0.3,0.4-0.4,0.8-0.3,1.3
	c0.3,0.9,1.8,1.7,3.1,2.4c1,0.4,1.9,1.1,2.7,1.8c0.3,0.3,0.4,0.8,0.2,1.2c-1.4,3.2-4.9,3-6.4,3h-0.1c-0.6,0-1.1-0.2-1.6-0.4
	c-0.7-0.4-1.6-0.4-2.3,0c-1,0.5-2,1.3-2.8,2.1c-0.6,0.6-1.2,1.1-1.9,1.6c-0.5,0.3-1.1,0.3-1.5-0.2c-1.8-2-3-3-3.8-2.8
	c-0.5,0.1-0.8,0.9-1,1.3c-0.9,2.4,0.6,4,2.8,5.7c1,0.9,2.2,1.7,3.4,2.1c0.3,0.1,0.6,0.1,0.9,0.2c1.5,0.2,4.2,0.6,4.1,2.9
	c0,1.6-2.1,3.3-7.4,6.1l-0.3,0.2c-0.9,0.5-2,0.8-3,0.9c-1.2,0.2-1.9,0.4-2.4,1c-0.4,0.5-0.6,1.2-0.4,1.9c0.5,1.1,1.5,1.9,2.7,2.2
	c0.5,0.1,1,0.1,1.4,0.2c1.8,0.1,4.1,0.2,4.9,1.8c0.4,1,0.3,2.1-0.3,2.9c-0.3,0.6-1.1,1-4.6,2.3c0.1,2.2-1.3,4.3-3.5,4.8
	c1.5,1.5,1.4,2.6,0.2,4.3c-0.5,0.7-0.9,1.5-1.2,2.3c-0.2,1.4-0.2,2.9,0,4.3l0.1,0.4c0.4,0.2,0.9,0.4,1.2,0.7
	c0.4,0.3,0.9,0.6,1.4,0.7c1,0.4,2,1,2.7,1.8c0.6,0.7,1,1.6,1.2,2.4c0.2,0.5,0.4,1,0.6,1.5c0.1,0.2,0.5,0.6,0.9,1.1
	c2.1,2.4,3.5,4.2,2.7,5.6c-0.3,0.6-0.9,0.9-1.6,1c0.1,0.9,0.2,1.9,0.4,2.8c0.4,1.6,0.5,3.3,0.4,5c2.3,1.2,4.2,2.8,3.6,6.6
	c-0.1,1.4-0.8,2.7-1.9,3.5l-0.3,0.3c-0.5,0.4-1.2,0.6-1.9,0.5h-0.2l0.1,0.2c0.2,0.6,0.2,1.3-0.1,1.9c-0.3,0.5-0.6,0.9-0.9,1.3
	c-0.3,0.4-0.6,0.8-0.9,1.2c0.5,0.3,1,0.5,1.6,0.6c1.4,0.4,2.2-0.1,3.5-1.1c1-0.9,2.3-1.4,3.6-1.6c1.2-0.1,3.8,0.9,4.6,2.3
	c0.8,1.1,0.7,2.5-0.2,3.5c-0.3,0.3-0.3,0.4-0.3,0.7c0,1,0.5,2,1.3,2.7c1.1,0.5,2.5,0.5,3.6-0.1h0.1c1.8-0.7,3-1.2,4-0.5
	s1.2,2,1.3,4.3c0,0.9-0.1,1.8-0.2,2.7c-0.3,1.8-0.4,2.6,0.8,3.6c0.5,0.3,1,0.5,1.5,0.7c0.7,0.2,1.4,0.6,2.1,1c0.6,0.5,1,1,1.4,1.7
	c0.2,0.3,0.4,0.6,0.7,0.9c0.6,0.6,1.2,1.1,1.9,1.5c0.2-0.1,0.4-0.1,0.6-0.1c0.9,0.1,1.7,0.2,2.6,0.4c0.3,0.1,0.5,0.2,0.7,0.4h0.1
	L174.2,181.2z M138.1,99.9L138.1,99.9z"/>
<path class="st2" d="M244.7,56.8c0.3,0.2,0.5,0.5,0.7,0.8c0.5,0.8,0.9,1.7,1.2,2.7c0.2,0.7,0.3,1.3,0.3,2c0.1,0.8-0.3,1.6-0.8,2.2
	c-0.7,0.5-1.4,1-2.2,1.4c-0.4,0.2-0.7,0.5-0.9,0.8c-0.2,0.4-0.4,0.8-0.6,1.2c-0.2,0.6-0.5,1.3-0.8,1.9c-0.3,0.6-0.8,1.1-1.4,1.3
	c-1.1,0.6-2.4,0.6-3.5,0.1l0.3-0.2c0,0.9-0.2,1.7-0.6,2.5c-0.3,0.6-0.8,1.1-1.4,1.5c-0.3,0.2-0.7,0.4-1.1,0.6
	c-0.1,0.1-0.3,0.1-0.4,0.1c0.5-0.2,1-0.5,1.5-0.8c0.5-0.4,0.9-0.9,1.2-1.4c0.4-0.7,0.6-1.5,0.5-2.4v-0.3l0.3,0.1
	c1,0.4,2.2,0.4,3.1-0.2c0.5-0.3,1-0.7,1.3-1.2c0.3-0.6,0.5-1.2,0.7-1.8c0.2-0.5,0.4-0.9,0.6-1.3c0.3-0.4,0.6-0.7,1.1-0.9
	c0.7-0.4,1.5-0.8,2.1-1.3c0.5-0.5,0.8-1.3,0.7-2c0-0.6-0.1-1.3-0.2-1.9C245.9,59.1,245.4,57.9,244.7,56.8z"/>
<path class="st3" d="M149.9,299.2c1-6.7,1.2-13.5,0.7-20.2"/>
<path class="st3" d="M153.6,295.1c0.9-6.7,1-13.5,0.4-20.3c-1.8-19-22.6-21.9-40-18.9c-13.5,2.4-23.7,13.6-24.7,27.3L61.6,439.9
	c0,0.3-0.1,0.6-0.1,0.9l-0.2,1.4h0c-1.3,15.5,10.3,29,25.7,30.3s29-10.3,30.3-25.7l26-109.7C147.1,321.1,151.6,311.9,153.6,295.1z"
	/>
<path class="st3" d="M70,608.5v0.4c-4.1,14.1-5.5,28.8-4.2,43.3c2.8,31.3,18.7,44.5,28.3,42.9c7.6-1.3,4.8-17.7,4.4-34.2
	c0.2-1.8,4.8-23.6,5.1-26.2l5.8,20.7c1.3,2,4,2.6,6,1.4c1.3-0.8,2.1-2.4,2-4l-0.9-16.2c-0.3-6.3-2.2-12.5-5.5-17.9
	c-3.1-4.6-7.3-8.2-12.3-10.5c0,0,9-46.8,14.4-81.9c1.9-12.2,3-24.4,3.3-36.7l1-41.1c0.4-15.5-11.8-28.4-27.3-28.9
	c-15-0.4-27.7,11-28.8,26l-1.6,30.8c-1.5,29.5,8.6,107.4,11,128.2C70.4,605.9,70.1,607.2,70,608.5z"/>
<path class="st3" d="M271.4,295.1c-0.9-6.7-1-13.5-0.4-20.3c1.8-19,22.6-21.9,40-18.9c13.5,2.4,23.7,13.6,24.6,27.3l27.8,156.7
	c0,0.3,0.1,0.6,0.1,0.9l0.2,1.4h0c1.3,15.5-10.3,29-25.7,30.3s-29-10.3-30.3-25.7l-26-109.7C277.9,321.1,273.4,311.9,271.4,295.1z"
	/>
<path class="st3" d="M308.5,489.7c0.3,12.3,1.5,24.6,3.3,36.7c5.4,35.1,14.4,81.9,14.4,81.9c-5,2.3-9.3,5.9-12.3,10.5
	c-3.3,5.4-5.2,11.6-5.5,17.9l-0.9,16.2c-0.2,2.4,1.7,4.5,4,4.6c1.6,0.1,3.1-0.7,4-2l5.8-20.7c0.3,2.7,4.9,24.4,5.1,26.2
	c-0.3,16.5-3.1,32.9,4.5,34.2c9.6,1.6,25.5-11.6,28.3-42.9c1.3-14.6-0.2-29.3-4.3-43.3v-0.4c-0.1-1.3-0.3-2.6-0.8-3.9
	c2.4-20.8,12.5-98.7,11-128.2l-1.6-30.8c-1.2-15.5-14.7-27.1-30.1-25.9c-13,1-23.6,10.8-25.6,23.7c-0.3,1.7-0.4,3.4-0.3,5.1
	L308.5,489.7z"/>
<path class="st1" d="M302.4,731.4L302.4,731.4l-23.4-1.5c-18.3-1.2-36.6-2.4-54.9-3.7c-0.5-0.1-0.9-0.5-1-1l-9.5-71.7l-9.3,70.3
	c-0.1,0.6-0.6,1-1.2,1c-29.3-2-55.1-4-78.7-5.9c-0.6-0.1-1-0.5-1-1.1l-1-34.7c-0.1-2.5-0.2-5-0.3-7.5l-0.6-15.9v-0.2l-0.6-14.5
	c-0.9-12-1.4-22.2-1.4-31.3l-0.1-2.3c0-0.7,0-1.2,0.1-1.8l0.1-1.1c0.2-8.8,0.7-15.9,1.3-23.4c1.2-15.4,9.7-66,10.6-71.5
	c0-0.1,0-0.2,0-0.2c0-0.6-2.5-55.7-4.6-101.5l-8.2,34.4c0,0.8,0,1.5,0,2.3l-1,41.1c-0.3,12.3-1.5,24.7-3.3,36.9
	c-4.9,32.1-13,74.5-14.2,81.1c4.9,2.4,9,6,12,10.5c3.4,5.6,5.4,11.9,5.7,18.5l0.9,16.2c0.1,3-2.2,5.6-5.2,5.7
	c-1.9,0.1-3.7-0.8-4.8-2.4c-0.1-0.1-0.1-0.2-0.1-0.3l-4.5-16c-0.6,3.2-1.5,7.5-2.3,11.5c-0.9,4.5-1.8,8.8-1.9,9.8
	c0.1,3.3,0.2,6.7,0.4,9.9c0.7,13.5,1.2,24.2-5.8,25.3c-3.8,0.6-8.1-0.8-12.2-4c-9.4-7.3-15.8-21.8-17.4-40
	c-1.3-14.7,0.2-29.5,4.2-43.7v-0.2c0.1-1.4,0.3-2.7,0.8-4c-0.3-2.7-0.7-6.2-1.2-10.5c-3.6-29.8-11.1-91.9-9.7-117.6l1.6-30.5
	c-0.1-1.2-0.1-2.3,0-3.5c0-0.1,0-0.3,0-0.4l0.2-1.4c0-0.3,0.1-0.6,0.1-0.9L88.4,283c0.8-11.3,7.7-21.2,18-25.9
	c15.8-10.6,38.6-16.9,53.4-18.9c5.2-0.7,10.9-3.1,16.9-5.6c3.8-1.6,7.8-3.2,11.7-4.4c2.2-8.6,2.7-20.9,2.8-29.9c0-0.1,0-0.1,0-0.2
	c0-0.1,0-0.6-0.1-1.1c-0.1-1.2-0.2-2.2-0.2-2.7c0-0.6,0.5-1.1,1.1-1.1l0,0c0.6,0,1.1,0.5,1.1,1.1c0,0.4,0.1,1.6,0.2,2.4
	c0,0.6,0.1,1,0.1,1.2c0,0.1,0,0.1,0,0.2c-0.1,9.3-0.7,22.3-3.1,31.2c-0.1,0.4-0.4,0.7-0.8,0.8c-4.1,1.3-8.1,2.8-12.1,4.5
	c-5.9,2.4-12,5-17.5,5.8c-14.5,2.1-37,8.2-52.5,18.6c-0.1,0-0.1,0.1-0.2,0.1c-9.6,4.4-16,13.6-16.7,24.1c0,0,0,0.1,0,0.1l-28,156.8
	c0,0.2-0.1,0.5-0.1,0.8l-0.1,1.1c0,0.1,0,0.2,0,0.3c-0.1,1.2-0.1,2.4,0,3.6c0,0,0,0.1,0,0.1l-1.6,30.6c-1.3,25.6,6.2,87.4,9.8,117.2
	c0.5,4.4,1,8,1.3,10.7c0,0.2,0,0.3-0.1,0.5c-0.4,1.1-0.7,2.4-0.7,3.6v0.4c0,0.1,0,0.2-0.1,0.3c-4,13.9-5.4,28.5-4.2,42.9
	c2.2,24.8,12.3,35.1,16.5,38.4c3.6,2.8,7.4,4.1,10.5,3.5c5-0.8,4.5-11.1,3.9-23c-0.2-3.3-0.3-6.7-0.4-10.1c0-0.1,0-0.1,0-0.2
	c0.1-0.8,0.8-4.3,2-10c1.3-6.6,3-14.7,3.2-16.2c0.1-0.5,0.5-0.9,1-1c0.5,0,1,0.3,1.2,0.8l5.8,20.5c0.8,1.1,2.2,1.6,3.5,1.2
	c1.5-0.4,2.4-1.8,2.3-3.3l-0.9-16.2c-0.3-6.1-2.1-12.1-5.3-17.4c-2.9-4.4-7-7.9-11.8-10.1c-0.5-0.2-0.8-0.7-0.7-1.2
	c0.1-0.5,9.1-47.2,14.4-81.9c1.9-12.1,3-24.3,3.3-36.6l1-41.1c0-0.7,0-1.4,0-2.2c0-0.1,0-0.2,0-0.3l10.1-42.4c0.1-0.6,0.7-1,1.3-0.8
	c0.5,0.1,0.8,0.5,0.9,1c2.1,44.9,4.7,103.1,5,109c0.1,0.2,0.2,0.5,0.1,0.7c-0.1,0.5-9.4,55.7-10.7,71.8c-0.6,7.5-1.2,14.5-1.3,23.3
	c0,0.4-0.1,0.8-0.1,1.2c0,0.5-0.1,1.1-0.1,1.6l0.1,2.3c0,9.1,0.4,19.3,1.4,31.2l0.6,14.5l-1.1,0.2h1.1l0.6,15.9
	c0.1,2.5,0.2,5,0.3,7.5l1,33.7c23.1,1.9,48.2,3.8,76.6,5.8l10.3-77.5c0.1-0.6,0.5-1,1.1-1c0.6,0,1.1,0.4,1.1,1l10.5,79.1
	c18,1.2,36,2.4,53.9,3.6l22.2,1.5l0.4-15.4c0.1-2.8,0.1-5.5,0.2-8.3l0.7-22.4c0.1-2.6,0.2-5.1,0.3-7.6L304,645
	c0.9-12,1.4-22.2,1.4-31.2l0.1-2.5c0-0.5,0-1-0.1-1.5l-0.1-1.1c-0.2-8.9-0.7-15.9-1.3-23.4c-1.3-16.1-10.6-71.3-10.7-71.8
	c0-0.2,0-0.5,0.1-0.7c0.2-5.7,2.4-61.4,4.1-104.2c0-0.6,0.4-1,1-1.1c0.6-0.1,1.1,0.3,1.2,0.9l8.9,37.6c0,0.1,0,0.2,0,0.3
	c0,0.8-0.1,1.5,0,2.2l1,41.2c0.3,12.3,1.4,24.5,3.3,36.6c5.3,34.7,14.3,81.4,14.4,81.9c0.1,0.5-0.2,1-0.7,1.2
	c-4.8,2.2-8.9,5.7-11.8,10.1c-3.2,5.2-5,11.2-5.3,17.4l-0.9,16.2c-0.1,1.5,0.9,2.9,2.4,3.3c1.3,0.4,2.7-0.1,3.5-1.2l5.8-20.6
	c0.2-0.6,0.8-0.9,1.4-0.7c0.4,0.1,0.7,0.5,0.8,0.9c0.2,1.5,1.8,9.7,3.2,16.3c1.1,5.7,1.9,9.2,2,9.9c0,0.1,0,0.1,0,0.2
	c-0.1,3.4-0.2,6.8-0.4,10.1c-0.6,11.9-1.1,22.2,3.9,23c3.1,0.5,6.9-0.7,10.5-3.5c4.2-3.3,14.3-13.5,16.5-38.4
	c1.3-14.4-0.1-29-4.2-42.9c0-0.1-0.1-0.2-0.1-0.3v-0.4c-0.1-1.2-0.3-2.4-0.7-3.6c-0.1-0.2-0.1-0.3-0.1-0.5c0.3-2.7,0.8-6.3,1.3-10.7
	c3.6-29.8,11-91.6,9.7-117.2l-1.6-30.6c0,0,0-0.1,0-0.1c0.1-1.2,0.1-2.4,0-3.6c0-0.1,0-0.2,0-0.3l-0.1-1c0-0.3-0.1-0.6-0.1-0.9
	l-27.8-156.7c0,0,0-0.1,0-0.1c-0.8-10.9-7.7-20.4-17.8-24.5c-0.1,0-0.1-0.1-0.2-0.1c-15.5-10.2-37.6-16.2-51.8-18.2
	c-5.6-0.8-11.2-3.4-16.7-5.9c-3.7-1.8-7.4-3.3-11.3-4.6c-0.4-0.1-0.8-0.5-0.8-1c-0.7-8.2-1.3-17.8-1.8-28.6V200c0-1,0-3.7,0-4.9
	c0-0.6,0.6-1.1,1.2-1.1c0.5,0,1,0.5,1.1,1c0,1.2,0,3.9,0,4.9v0.4c0.5,10.4,1.1,19.8,1.8,27.7c3.7,1.3,7.3,2.8,10.9,4.5
	c5.3,2.4,10.8,4.9,16.1,5.7c14.4,2,36.8,8.1,52.6,18.5c10.8,4.5,18.2,14.7,19.1,26.4l27.8,156.6c0,0.4,0.1,0.6,0.1,1l0.2,1.4
	c0,0.1,0,0.3,0,0.4c0,1.2,0,2.3-0.1,3.5l1.6,30.5c1.3,25.8-6.1,87.8-9.7,117.6c-0.5,4.2-0.9,7.8-1.2,10.5c0.4,1.3,0.7,2.6,0.8,4v0.2
	c4.1,14.2,5.5,29,4.2,43.7c-1.6,18.1-8,32.7-17.4,40c-4.1,3.2-8.5,4.6-12.2,4c-7-1.2-6.5-11.8-5.8-25.3c0.2-3.2,0.3-6.6,0.4-9.9
	c-0.1-0.9-1-5.2-1.9-9.7c-0.8-4-1.7-8.3-2.3-11.6l-4.5,16c0,0.1-0.1,0.2-0.1,0.3c-1.6,2.5-5,3.3-7.6,1.6c-1.6-1.1-2.6-2.9-2.5-4.9
	l0.9-16.2c0.3-6.6,2.2-13,5.7-18.6c3-4.5,7.1-8.2,12-10.5c-1.2-6.6-9.3-49-14.3-81.1c-1.9-12.2-3-24.5-3.3-36.9l-1-41.2
	c0-0.7,0-1.4,0-2.2l-7-29.5c-1.8,43.6-3.8,96-3.8,96.5c0,0.1,0,0.2,0,0.3c0.9,5.5,9.4,56.2,10.6,71.5c0.6,7.5,1.2,14.6,1.3,23.4
	c0,0.3,0.1,0.7,0.1,1c0,0.6,0.1,1.1,0.1,1.7l-0.1,2.5c0,9-0.5,19.3-1.4,31.3l-1.1,30.4c-0.1,2.5-0.2,5-0.3,7.6l-0.7,22.4
	c-0.1,2.7-0.2,5.5-0.2,8.2l-0.4,16.5c0,0.3-0.1,0.6-0.4,0.8C303,731.3,302.7,731.4,302.4,731.4z"/>
<path class="st4" d="M149.9,296.9c1-6.7,1.2-13.5,0.7-20.2c-1.5-19-19-29.1-35.8-23.7c-28.6,9.2-32.6,37.2-33.9,42.3
	c0,0-15.8,62.4-20,65.1c0,0,63.8,38.7,71.6,23.7C139.9,369.5,147.6,313.7,149.9,296.9z"/>
<path class="st4" d="M275,296.9c-1-6.7-1.2-13.5-0.7-20.2c1.5-19,19-29.1,35.8-23.7c28.5,9.2,32.6,37.2,34,42.3
	c0,0,18.2,62.4,22.4,65.1c0,0-63.8,38.7-71.6,23.7C287.4,369.5,277.3,313.7,275,296.9z"/>
<path class="st4" d="M329.4,266.3c-13.5-16.9-45.1-28.4-63-33.3c-11.7-3.2-29.6-7.7-29.6-7.7c-48.1-1.2-62.2,1.8-78.3,6.7
	c-22.2,6.7-50.1,17.4-63.5,34.4c-13.7,17.2,7.9,37.2,15.8,51.7c7.7,14.2,12,23.5,12.9,39.6c1,17.2,0.7,97.1,0.7,129.4
	c0,27.2-12.1,105.8-12.1,105.8c33,37.3,170.4,35.1,199.3,6.1c0,0-9.2-92.5-8.9-112.7c0.7-41.8-3-112.9-2.1-128.5
	c0.9-16.1,5.2-25.4,12.9-39.6C321.4,303.5,343,283.5,329.4,266.3z"/>
<path class="st5" d="M155.9,296.9c1-6.7,1.2-13.5,0.7-20.2c-1.5-19-19-29.1-35.8-23.7c-28.6,9.2-32.6,37.2-33.9,42.3
	c0,0-15.8,62.4-20,65.1c0,0,63.8,38.7,71.6,23.7C145.9,369.5,153.6,313.7,155.9,296.9z"/>
<path class="st5" d="M281,296.9c-1-6.7-1.2-13.5-0.7-20.2c1.5-19,19-29.1,35.8-23.7c28.5,9.2,32.6,37.2,34,42.3
	c0,0,18.2,62.4,22.4,65.1c0,0-63.8,38.7-71.6,23.7C293.4,369.5,283.3,313.7,281,296.9z"/>
<path class="st5" d="M335.4,266.3c-13.5-16.9-45.1-28.4-63-33.3c-11.7-3.2-29.6-7.7-29.6-7.7c-48.1-1.2-62.2,1.8-78.3,6.7
	c-22.2,6.7-50.1,17.4-63.5,34.4c-13.7,17.2,7.9,37.2,15.8,51.7c7.7,14.2,12,23.5,12.9,39.6c0.9,17.2,0.7,97.1,0.7,129.4
	c0,27.2-12.1,105.8-12.1,105.8c33,37.3,170.4,35.1,199.3,6.1c0,0-9.2-92.5-8.9-112.7c0.7-41.8-3-112.9-2.1-128.5
	c0.9-16.1,5.2-25.4,12.9-39.6C327.4,303.5,349,283.5,335.4,266.3z"/>
<path class="st1" d="M217.3,621.7c-3.2,0-6.4,0-9.7-0.2c-45.8-1.4-81.8-11.9-96.1-28.2l-0.3-0.4l0.1-0.5
	c0.1-0.8,12.1-78.8,12.1-105.6c0-5.1,0-11.4,0-18.5c0-23.5,0.1-55.6-0.1-79.8c-19.9-1.3-61.1-26.2-62.9-27.3l-0.9-0.5l0.4-0.9
	c3.3-7,19.7-64.3,19.9-64.9c0.1-0.4,0.2-0.9,0.4-1.6c1.4-6.2,5.2-22.7,19.6-33.8c11.8-11,31-20.4,58.5-28.8
	c10.1-3,20.5-5.1,30.9-6.3c2,0,46-0.4,47.6-0.4h0.3c0.2,0,18,4.5,29.6,7.7c8.4,2.3,37.2,11,55.2,25.5c17.1,10.9,21.3,29.2,22.8,36.1
	c0.2,0.7,0.3,1.2,0.4,1.6c6.8,20.8,20.2,61.1,22.3,64.8l0.5,0.9l-0.9,0.6c-1.9,1.1-45.2,27.3-64.4,27.3h-0.5
	c0.1,5.1,0.3,10.5,0.5,16.1c0.8,26,1.7,58.3,1.3,81.2c-0.3,19.9,8.8,111.6,8.9,112.6l0,0.5l-0.4,0.4
	C299,612.9,260.7,621.7,217.3,621.7z M113.5,592.3c14.2,15.6,49.3,25.7,94.2,27c46.4,1.4,88.4-7.2,102.8-21
	c-0.8-7.6-9.1-93.1-8.8-112.3l0,0c0.4-22.9-0.5-55.2-1.3-81.1c-0.2-6.1-0.3-12-0.5-17.4v-1.3l1.3,0.1c16.1,1.5,57.4-22.5,63.9-26.4
	c-3.9-9.1-21.2-62-22-64.3c-0.1-0.5-0.3-1.1-0.4-1.8c-1.5-6.6-5.5-24.3-21.9-34.7l-0.1-0.1c-17.6-14.2-46.1-22.8-54.5-25.1
	c-11-3-27.7-7.2-29.4-7.6c-3.2,0-46.9,0.4-47.4,0.4c-10.3,1.2-20.5,3.2-30.4,6.2c-27.2,8.3-46.1,17.5-57.7,28.3l-0.1,0.1
	c-13.8,10.6-17.5,26.5-18.8,32.6c-0.2,0.7-0.3,1.3-0.4,1.7c-0.7,2.3-15.5,54.2-19.6,64.3c6.2,3.7,44.7,26.1,62,26.5h1.1v1.1
	c0.2,24.3,0.2,57,0.1,80.9c0,7,0,13.4,0,18.5C125.6,512.6,114.5,585.3,113.5,592.3z"/>
<path class="st1" d="M124.2,390.9L124.2,390.9c-0.6,0-1.1-0.5-1.1-1.2c0,0,0,0,0,0c0.2-4.7,0.7-9.1,1.1-13.3s0.9-8.5,1.1-13.1
	s0.7-8.4,1.1-12s0.9-7.2,1.1-11.9c0-0.6,0.5-1.1,1.2-1.1c0,0,0,0,0,0c0.6,0,1.1,0.5,1.1,1.2c-0.2,4.7-0.6,8.4-1.1,12
	s-0.9,7.2-1.1,11.9s-0.7,9.1-1.1,13.3s-0.9,8.5-1.1,13.1C125.3,390.4,124.8,390.9,124.2,390.9C124.2,390.9,124.2,390.9,124.2,390.9z
	"/>
<path class="st1" d="M300.8,392.2c-0.6,0-1.1-0.5-1.1-1.1c-0.2-4.7-0.5-9.3-0.7-13.7s-0.5-9-0.7-13.7s-0.4-8.4-0.6-12.1
	s-0.4-7.5-0.6-12.1c0-0.6,0.4-1.1,1-1.2c0,0,0,0,0,0c0.6,0,1.1,0.5,1.2,1.1c0.2,4.7,0.4,8.4,0.6,12.1s0.4,7.5,0.6,12.1
	s0.5,9.2,0.7,13.7s0.5,9,0.7,13.7C302,391.7,301.5,392.2,300.8,392.2L300.8,392.2z"/>
<path class="st3" d="M237.5,234.1c2,20.2-54.9,11.6-49.7-1.1c6-14.6,4-50.6,4-50.6h42.8C234.6,182.4,235.3,211.8,237.5,234.1z"/>
<path class="st6" d="M234.8,183.5c-8.2,2.9-14,2.9-23,2.5c-8,0-12.3-1.5-19.7-3.6c0,0,0,13.9,0,15.7c6.3,5.5,12.2,12.3,21.4,12.3
	c8.3,0,15.8-5.8,21.8-10.1C235.2,200.4,234.8,185.1,234.8,183.5z"/>
<path class="st1" d="M217,247.3c-11.1,0-23.2-3.2-28.2-7.8c-2.9-2.7-2.8-5.3-2.1-7c5.8-14.2,3.9-49.8,3.9-50.1l-0.1-1.2h45v1.1
	c0,0.3,0.8,29.6,3,51.7l0,0c0.4,4.6-1.8,8.2-6.4,10.5C228.2,246.5,222.7,247.3,217,247.3z M193,183.5c0.3,6.5,1.3,36.6-4.1,49.9
	c-0.6,1.5-0.1,3,1.5,4.5c6.9,6.4,30,10,40.9,4.6c3.8-1.9,5.5-4.7,5.2-8.2l0,0c-1.9-19.7-2.8-45.2-3-50.7H193z"/>
<path class="st3" d="M263.5,133.1c-2.2-0.6-4.8,0.9-6.4,3.6c0.5-6.6,0.9-12.6,0.9-16.3c0-1.6,0-3.2-0.1-4.7c0-1,0.1-2,0.1-3.1
	c0-3.7-0.3-7.3-0.9-10.9c-0.5-24.8-21.1-44.6-45.9-44c-6.1,0.1-12,1.5-17.5,4c-7.6,2.8-14.1,8.1-18.2,15.1
	c-5.4,7.6-8.3,16.6-8.3,25.9c0,2.1,0.2,4.2,0.5,6.3c0,1.2-0.1,2.4-0.1,3.7c0,1.1,0,2.2,0.1,3.2c0,1.5-0.1,3-0.1,4.6
	c0.1,4.9,0.5,9.7,1.1,14.5c-1.5-1.6-3.4-2.3-5.1-1.8c-2.7,0.8-4.7,4.5-4.9,8.7c-0.1,4.2,1.1,8.3,3.5,11.8c2.6,3.6,6.4,4.9,9.6,4
	c-0.6,0.2,2.4,11.3,2.7,12.4c1.4,4.1,3.4,8.1,5.9,11.7c4.2,6.6,9.9,12.1,16.5,16.2c4.7,3,10.2,4.6,15.8,4.8
	c16.9,0,33.3-12.6,39.4-28.1c2.2-5.5,2.6-11.2,3.2-17c3.2,1,7-0.3,9.6-3.9c2.4-3.4,3.6-7.6,3.5-11.8
	C268.1,137.6,266.2,133.9,263.5,133.1z"/>
<path class="st6" d="M167.6,138.4c-1.3-1.1-3.6-1.7-4.7,0.1c-0.3,0.5-0.2,1.4,0.3,1.5c0.8,0.2,1.6,0,2.3,0.3
	c0.8,0.4,1.3,1.1,1.6,1.9c0.4,1.2,0.4,4.7,1.9,3.8c0.5-0.3,0.9-1,0.8-1.6C170.1,142.2,169.3,140,167.6,138.4z"/>
<path class="st6" d="M261.6,139.6c1.3-1.1,3.6-1.7,4.7,0.1c0.3,0.5,0.2,1.4-0.3,1.5c-0.8,0.2-1.5,0-2.3,0.3
	c-0.8,0.4-1.3,1.1-1.6,1.9c-0.5,1.2-0.4,4.7-2,3.8c-0.5-0.3-0.9-1-0.8-1.6C259.2,143.3,260,141.1,261.6,139.6z"/>
<path class="st1" d="M212.7,203.8c-5.8-0.1-11.5-1.8-16.4-4.9c-6.8-4.2-12.5-9.8-16.8-16.5c-2.5-3.7-4.5-7.7-6-11.9
	c-1.1-3.7-2.1-7.5-2.8-11.4c-3.4,0.4-7-1.3-9.4-4.7c-2.6-3.6-3.9-8-3.7-12.5c0.2-4.8,2.5-8.8,5.7-9.7c1.3-0.4,2.8-0.2,4,0.4
	c-0.5-4-0.8-8.1-0.9-12.1c0-1.5,0-3,0.1-4.6c-0.1-1.1-0.1-2.2-0.1-3.2c0-1.2,0-2.4,0.1-3.6c-0.3-2.1-0.4-4.3-0.4-6.4
	c0-9.5,2.9-18.8,8.4-26.6c4.3-7.2,10.9-12.6,18.7-15.5c5.9-2.7,12.4-4.1,18.9-4.1c25,0.1,45.4,20.1,46.1,45.1
	c0.6,3.6,0.9,7.3,0.9,11c0,1,0,2-0.1,3.1c0,1.6,0.1,3.2,0.1,4.7c0,2.8-0.2,7.2-0.6,13c1.5-1.3,3.5-1.8,5.4-1.3
	c3.1,0.9,5.5,4.9,5.7,9.7c0.1,4.5-1.2,8.8-3.7,12.5c-2.5,3.4-6.1,5.1-9.5,4.7c-0.5,5.5-1,10.8-3.1,16
	C246.5,191.7,229.5,203.8,212.7,203.8z M172.8,158c0.1,1.6,2.3,10.2,2.8,11.7c1.4,4,3.3,7.9,5.8,11.4c4.1,6.4,9.6,11.8,16.1,15.9
	c4.6,2.9,9.8,4.5,15.2,4.6c15.7,0,32.2-11.8,38.3-27.4c2-5,2.5-10.1,3-15.6l0.1-1.1c0-0.3,0.2-0.6,0.5-0.8c0.3-0.2,0.6-0.2,0.9-0.1
	c2.9,0.9,6.1-0.4,8.4-3.6c2.3-3.2,3.4-7.1,3.3-11.1c-0.2-3.8-1.9-7-4-7.7l0,0c-1.7-0.5-3.8,0.8-5.1,3.1c-0.3,0.5-0.8,0.7-1.3,0.5
	c-0.5-0.2-0.8-0.6-0.8-1.2c0.6-7.5,0.9-13,0.9-16.3c0-1.5,0-3-0.1-4.7c0.1-1.2,0.1-2.2,0.1-3.1c0-3.6-0.3-7.2-0.9-10.8
	c0-0.1,0-0.1,0-0.2c-0.6-23.9-20.1-42.9-43.9-43c-6.2,0-12.3,1.3-18,3.9c-7.4,2.7-13.7,7.8-17.7,14.6c-5.3,7.4-8.1,16.3-8.1,25.4
	c0,2.1,0.2,4.1,0.4,6.2c0,0.1,0,0.1,0,0.2c0,1.2-0.1,2.4-0.1,3.6c0,1,0,2,0.1,3.2c-0.1,1.7-0.1,3.2-0.1,4.7
	c0.1,4.8,0.5,9.6,1.1,14.4c0.1,0.5-0.2,0.9-0.6,1.1c-0.4,0.2-0.9,0.1-1.3-0.2c-1.3-1.3-2.8-1.9-3.9-1.5c-2.2,0.6-3.9,3.9-4,7.7
	c-0.1,3.9,1,7.8,3.3,11.1c2.3,3.1,5.4,4.4,8.4,3.6l0,0c0.6-0.2,1.2,0.1,1.4,0.7C172.9,157.5,172.9,157.8,172.8,158z"/>
<path class="st1" d="M206.3,104.8c-3.8-2.7-8.5-3.6-13-2.6c-2.9,0.7-9,2.9-8.1,6.8c0.1,0.4,0.5,0.8,0.9,0.9c2.7,0.7,4.9-2.3,7.5-3
	c3.8-1,7.2,0,10.4,2C206.7,110.4,208.7,106.4,206.3,104.8z"/>
<path class="st1" d="M241.3,105.6c-3.5-3-8.2-4.3-12.8-3.7c-3,0.4-9.2,2.2-8.6,6.1c0.1,0.5,0.4,0.9,0.9,1c2.6,0.9,5.1-1.9,7.7-2.4
	c3.8-0.7,7.2,0.6,10.2,2.8C241.1,111.3,243.4,107.5,241.3,105.6z"/>
<path class="st6" d="M214.6,133.9c2.8,3.1,5.6,6.3,7.3,10.1s2.1,8.6,0.1,12.2c-1,2-2.8,3.3-5,3.8c-2.2,0.3-4.4-0.8-5.3-2.8
	c-0.9-2.1,0-4.9,2-5.6c-2.1-3.8-3.3-8-3.6-12.3c-0.2-1.5,0-3,0.7-4.3C211.7,133.9,213.7,132.9,214.6,133.9z"/>
<path class="st1" d="M224.9,147.4c-1.1-6.6-5.9-11.5-10.9-15c-0.6-0.4-1.4,0.5-1,1.1c2.8,3.9,7,7.6,8.5,12.3c0.8,2.4,0.9,5,0.1,7.4
	c-0.8,2.3-3.2,3.2-4.6,5.1c-1,1.3-0.9,2.1,0.6,1.8C222.8,159,225.7,152.2,224.9,147.4z"/>
<path class="st6" d="M217.3,180.4c-0.6,1.8-3.7,6.3-9.3,5.4s-8.4-4.6-7.3-8.5c0.5-1.9,4.2-4.4,9.9-3.4S218,178.6,217.3,180.4z"/>
<g id="Caminho_6549">
	<path class="st1" d="M200.8,174.2c0.7-0.2,2.1,3.5,7.1,5.1s9.5,0,9.9,0.5s-0.8,1-2.9,1.6c-2.7,0.7-5.5,0.6-8.2-0.2
		c-2.4-0.7-4.4-2.2-5.6-4.3C200.3,175.3,200.5,174.2,200.8,174.2z"/>
</g>
<path class="st7" d="M190.2,139.4c0.1,0,0.2-0.3,0.2-0.7s-0.2-0.7-0.3-0.6s-0.2,0.3-0.2,0.7S190.1,139.4,190.2,139.4z"/>
<path class="st7" d="M184.1,137.7c0.2,0,0.4-0.1,0.4-0.3c0.1-0.2,0.1-0.4-0.1-0.5c-0.1-0.1-0.3,0.1-0.4,0.3S184,137.7,184.1,137.7z"
	/>
<path class="st7" d="M187,141.7c0.1,0,0.3-0.3,0.4-0.7s0.1-0.7-0.1-0.8s-0.3,0.3-0.4,0.7S186.8,141.7,187,141.7z"/>
<path class="st7" d="M194.9,141.6c0.1,0,0.2-0.4,0.1-0.8s-0.3-0.7-0.4-0.7s-0.2,0.4-0.1,0.8S194.7,141.6,194.9,141.6z"/>
<path class="st7" d="M197.7,139c0.1,0,0.2-0.4,0.1-0.8s-0.3-0.7-0.4-0.7s-0.2,0.4,0,0.8S197.5,139,197.7,139z"/>
<path class="st7" d="M237.4,139.2c0.1,0,0.2-0.3,0.2-0.7s-0.2-0.7-0.3-0.6s-0.2,0.3-0.2,0.7S237.3,139.2,237.4,139.2z"/>
<path class="st7" d="M241.8,142.2c0.1,0,0.2-0.3,0.2-0.7s-0.2-0.7-0.3-0.6s-0.2,0.3-0.2,0.7S241.7,142.2,241.8,142.2z"/>
<path class="st7" d="M231.3,137.5c0.2,0,0.4-0.1,0.4-0.3c0.1-0.2,0.1-0.4-0.1-0.5c-0.1-0.1-0.3,0.1-0.4,0.3S231.1,137.5,231.3,137.5
	z"/>
<path class="st7" d="M234.2,141.5c0.1,0,0.3-0.3,0.4-0.7s0.1-0.7-0.1-0.8s-0.3,0.3-0.4,0.7S234,141.5,234.2,141.5z"/>
<path class="st7" d="M237.9,143.5c0.1,0,0.2-0.4,0.1-0.8s-0.3-0.7-0.4-0.7s-0.2,0.4-0.1,0.8S237.8,143.5,237.9,143.5z"/>
<path class="st7" d="M242.8,138.3c0.1,0,0.2-0.4,0.1-0.8s-0.3-0.7-0.4-0.7s-0.2,0.4-0.1,0.8S242.6,138.2,242.8,138.3z"/>
<circle class="st1" cx="230.1" cy="123.8" r="3"/>
<circle class="st1" cx="197.2" cy="124.5" r="3"/>
<path class="st0" d="M268.6,87.8l-5.9-25.4l-21.5-12.2h-28.6l-28.4,2.1l-30.1,9L152,91l12.9,39c-0.5,1.6,0,3.3,1.4,4.3l0.7,2l3,6.3
	c0,0,2.4,1.7,2.8-0.9c0.2-2.8,0.2-5.6,0.1-8.4c4.1-3.8,0.9-10.2,0.8-15c-0.1-3,0.6-5.9,0.1-8.3c0.7-0.5,1.3-1.1,1.9-1.7
	c1.1-1.3,1.3-3.1,0.5-4.6c0.5-0.7,0.8-1.5,0.6-2.3c-0.2-2.5,1.9-3,2.9-4.9c1.1-2.1,0.1-4.5,0.3-6.7c0.3-2.7,1.8-5.3,3.1-7.8h0.1
	c1.6-0.2,2.7-1.3,4-2.3c1.1-0.8,2.1-1.9,2.8-3.1c1.1-0.5,2.2-1.1,3.3-1.6c0.1,0.1,0.2,0.3,0.3,0.4l0.7,0.6c0.6,0.3,1.2,0.5,1.8,0.5
	h0.4c1,0,1.9-0.4,2.6-1.1c0.4-0.3,0.6-0.7,0.8-1.2l0,0c0.7,0.6,1.5,0.8,2.4,0.8c3.9-0.2,7.7-0.7,11.4-1.7c0.1,0,0.2-0.1,0.3-0.1
	c1.2,0.8,3.1,2.2,2.9,1.2c0.8,3.7,6,3.2,7,0c0.9-2.6,2.4-1,4.6-0.7c0.5,0.1,4.4,0.1,6.4,0.2l0.6,0.4c-0.4,1.9,0.9,3.8,2.8,4.1
	c0.2,0,0.4,0.1,0.6,0.1c3.6,0.2,2.8,1.1,3.2,3.9c0.2,1.3,0.6,2.5,1.3,3.6c0.7,1,1.4,2,2.3,2.8l1,3c-1.4,1.4-1.5,3.7-0.1,5.1l2.3,2.6
	c0.2,0.3,0.5,0.5,0.8,0.7c0.1,0.4,0.3,0.8,0.5,1.2c0.6,1.8,1.4,3.9,2.1,6.1c0.1,1,0.2,1.9,0.1,2.9c-0.2,1.4-0.2,2.9-0.1,4.4
	c0.3,1,0.8,2,1.4,2.9c1.7,2.9,2.5,3.4,1.7,6.8s-1.7,6.3-0.9,9.8l-0.5,2.2c0,0,0.2,12.1,1.2,11.6c1.1-0.5,4.5-5.4,4.5-5.4l1.5-6.9
	c0.4-0.7,0.6-1.5,0.5-2.3l3-14L268.6,87.8z"/>
<path class="st1" d="M255.3,149.1c-0.2,0-0.5-0.1-0.7-0.2c-0.5-0.3-1.4-0.9-1.6-12.6c0-0.1,0-0.2,0-0.3l0.5-1.9
	c-0.6-3.3,0-5.9,0.7-9l0.2-1.1c0.6-2.4,0.3-2.9-0.9-4.8c-0.2-0.4-0.5-0.8-0.7-1.2l-0.4-0.6c-0.5-0.8-0.9-1.7-1.2-2.6
	c-0.2-1.1-0.3-2.3-0.1-3.5c0-0.4,0.1-0.8,0.1-1.2c0-0.9,0-1.7-0.1-2.6l-2.1-6l-0.2-0.4l-0.1-0.4c-0.3-0.2-0.5-0.4-0.7-0.7l-2.3-2.6
	c-1.6-1.7-1.7-4.3-0.3-6.1c-0.2-0.7-0.5-1.4-0.7-2.2c-0.9-0.8-1.6-1.8-2.3-2.8c-0.7-1.2-1.2-2.6-1.4-4c-0.1-0.6-0.1-1-0.1-1.4
	c-0.1-1.4-0.1-1.4-2-1.5c-1.4-0.1-2.7-0.7-3.6-1.8c-0.6-0.8-1-1.8-1-2.9c-0.9,0-2.2-0.1-3.3-0.1c-1.7,0-2.3,0-2.6-0.1
	c-0.6-0.1-1.2-0.3-1.8-0.5c-1.3-0.4-1.3-0.4-1.6,0.4c-0.8,2.1-2.8,3.5-5.1,3.4c-1.5-0.1-2.9-0.9-3.6-2.3c-0.8-0.3-1.6-0.7-2.3-1.3
	l-0.1-0.1c-3.8,0.9-7.7,1.5-11.6,1.7c-0.7,0.1-1.4,0-2.1-0.3c-0.1,0.2-0.3,0.3-0.4,0.4c-0.4,0.5-0.9,0.8-1.5,1
	c-0.6,0.3-1.2,0.4-1.9,0.4h-0.4c-0.8,0-1.7-0.2-2.4-0.6l-0.1-0.1l-0.7-0.5l-1,0.5l-1.3,0.6c-0.8,1.2-1.8,2.3-2.9,3.1
	c-0.2,0.2-0.4,0.3-0.6,0.5c-1,0.9-2.1,1.6-3.4,2c-0.1,0.3-0.3,0.5-0.4,0.8c-1.1,1.9-1.9,3.9-2.3,6.1c0,0.8,0,1.5,0.1,2.3
	c0.3,1.6,0.1,3.3-0.5,4.8c-0.4,0.8-1,1.4-1.6,2c-0.9,0.8-1.3,1.3-1.2,2.3c0.1,0.9,0,1.8-0.5,2.5c0.7,1.8,0.3,3.9-1,5.3
	c-0.4,0.4-0.9,0.9-1.5,1.4c0.1,1.5,0.1,3-0.1,4.4c-0.1,1.1-0.2,2.3-0.2,3.4c0.1,1.4,0.3,2.8,0.6,4.2c0.7,3.8,1.6,8.1-1.4,11.2
	c0.1,2.7,0,5.4-0.2,8.1c0,1-0.6,1.8-1.5,2.3c-1,0.3-2.1,0.1-3-0.6c-0.1-0.1-0.3-0.3-0.4-0.4l-5.1-10.6c-0.3-0.5-0.1-1.2,0.4-1.5
	c0.5-0.3,1.2-0.1,1.5,0.4c0,0,0,0.1,0.1,0.1l5,10.3c0.2,0.1,0.4,0.2,0.6,0.2c0.1-0.2,0.1-0.3,0.1-0.5c0.2-2.7,0.3-5.4,0.1-8.2
	c0-0.3,0.1-0.6,0.4-0.8c2.5-2.3,1.8-5.8,1.1-9.5c-0.3-1.5-0.5-3.1-0.6-4.6c0-1.2,0.1-2.4,0.2-3.6c0.2-1.5,0.2-3,0-4.5
	c-0.1-0.4,0.1-0.8,0.4-1.1c0.7-0.6,1.3-1.1,1.8-1.7c0.8-0.9,0.9-2.2,0.3-3.2c-0.2-0.4-0.2-0.9,0.1-1.3c0.3-0.4,0.5-1,0.4-1.5
	c-0.1-1.6,0.6-3.1,1.8-4.1c0.5-0.4,0.9-0.9,1.2-1.4c0.4-1.2,0.5-2.4,0.3-3.6c-0.1-0.9-0.1-1.8-0.1-2.7c0.4-2.5,1.3-4.8,2.6-6.9
	l0.6-1.2c0.2-0.3,0.5-0.6,0.9-0.6h0.2c1-0.3,2-0.8,2.7-1.6l0.6-0.5c1-0.7,1.9-1.7,2.5-2.8c0.1-0.2,0.3-0.4,0.5-0.5
	c0.5-0.2,1-0.5,1.5-0.7s1.2-0.6,1.8-0.9c0.5-0.2,1.1-0.1,1.4,0.4l0.1,0.1c0,0,0.1,0.1,0.1,0.1l0.6,0.5c0.4,0.2,0.8,0.3,1.2,0.3h0.4
	c0.3,0,0.6,0,0.9-0.2l0.2-0.1c0.3-0.1,0.5-0.2,0.7-0.4c0.2-0.2,0.4-0.5,0.5-0.8l0,0c0,0,0-0.1,0-0.1c0.2-0.6,0.9-0.8,1.5-0.6
	c0.1,0,0.2,0.1,0.3,0.2c0.4,0.4,1,0.5,1.6,0.5c3.8-0.2,7.5-0.7,11.2-1.6l0.2-0.1c0.3-0.1,0.7-0.1,1,0.1l0.6,0.4
	c0.3,0.2,0.8,0.5,1.1,0.7c0.1-0.1,0.2-0.1,0.3-0.1c0.6-0.1,1.2,0.3,1.3,0.9l0,0c0.2,1,1,1.7,1.9,1.7c1.3,0.1,2.5-0.6,3-1.9
	c1-3,3.1-2.2,4.4-1.8c0.5,0.2,0.9,0.3,1.4,0.4c0.2,0,1.4,0,2.3,0.1c1.4,0,2.9,0.1,3.9,0.1c0.2,0,0.4,0.1,0.6,0.2l0.6,0.4
	c0.4,0.2,0.5,0.7,0.5,1.1c-0.1,0.7,0,1.4,0.5,2c0.5,0.6,1.2,0.9,1.9,0.9c3.5,0.2,3.9,1.3,4.1,3.6c0,0.4,0.1,0.8,0.1,1.3
	c0.1,1.1,0.5,2.2,1.1,3.2c0.6,1,1.3,1.8,2.2,2.6c0.1,0.1,0.2,0.3,0.3,0.4c0.4,1.1,0.7,2.1,1,3c0.1,0.4,0,0.8-0.3,1.2
	c-1,1-1,2.6,0,3.5c0,0,0,0,0,0l2.3,2.6c0.1,0.2,0.3,0.3,0.5,0.5c0.2,0.1,0.4,0.3,0.5,0.6c0.1,0.2,0.2,0.4,0.3,0.7l0.2,0.5
	c0.6,1.8,1.4,3.9,2.1,6.1c0,0.1,0,0.1,0.1,0.2c0.2,1,0.2,2.1,0.1,3.1c0,0.4-0.1,0.9-0.1,1.3c-0.2,0.9-0.2,1.8,0,2.7
	c0.2,0.7,0.5,1.3,0.9,1.9c0.1,0.2,0.3,0.4,0.4,0.7c0.3,0.4,0.5,0.8,0.7,1.2c1.3,2.2,1.9,3.3,1.1,6.5l-0.3,1.1
	c-0.7,3-1.3,5.3-0.7,8.2c0,0.2,0,0.3,0,0.5l-0.5,2c0,3.5,0.3,7.5,0.5,9.6c0.8-1,2-2.5,3-3.9l2-9.5c0.1-0.6,0.7-1,1.3-0.9l1.5,0.3
	c0.6,0.1,1,0.7,0.9,1.3c-0.1,0.6-0.7,1-1.3,0.9l-0.5-0.1l-1.9,8.6c0,0.1-0.1,0.3-0.2,0.4c-1.4,1.9-3.8,5.2-4.9,5.8
	C255.6,149,255.5,149.1,255.3,149.1z"/>
<path class="st1" d="M178.4,88.4c-0.1,0.1-0.2,0.2-0.4,0.3c-0.4,0.2-0.8,0.3-1.3,0.4c-1.2,0.2-2.4,0-3.4-0.7c-0.4-0.3-0.8-0.6-1.2-1
	c-0.4-0.3-0.9-0.4-1.4-0.1c-0.5,0.3-1,0.6-1.6,0.8c-1.2,0.6-2.5,0.9-3.8,0.9c-0.4,0-0.8-0.1-1.1-0.3c-0.4-0.3-0.5-0.7-0.5-1.2
	c0-0.4,0.1-0.7-0.1-0.9c-0.2-0.2-0.6-0.2-0.8-0.1c-0.4,0.1-0.7,0.3-1,0.5c-1,0.6-2.2,0.9-3.4,0.8c-1.8-0.1-3.4-1-4.4-2.5
	c-1-1.4-1.4-3.1-1.2-4.8l0.3,0.2c-1.1,0.6-2.4,0.8-3.6,0.5c-1.1-0.3-2-1-2.6-1.9c-1-1.4-1.2-3.2-0.7-4.8v0.1l-1.2-0.5
	c-0.2,0-0.3-0.1-0.4-0.2c0.2,0,0.3,0.1,0.4,0.1l1.3,0.4h0.1v0.1c-0.4,1.6-0.1,3.2,0.8,4.6c1.3,1.9,3.9,2.4,5.8,1.2l0.3-0.2v0.4
	c-0.2,1.6,0.2,3.2,1.1,4.5c0.9,1.4,2.5,2.2,4.1,2.3c0.8,0,1.5-0.1,2.2-0.3c0.4-0.1,0.7-0.3,1-0.5c0.3-0.2,0.6-0.4,1-0.5
	c0.2-0.1,0.4-0.1,0.6-0.1c0.5,0,0.9,0.4,0.9,0.9c0,0,0,0,0,0l0,0c0,0.2,0,0.4,0,0.6c-0.1,0.3,0.1,0.6,0.3,0.8
	c0.3,0.2,0.6,0.3,0.9,0.3c1.3,0,2.5-0.3,3.7-0.8c0.5-0.2,1.1-0.5,1.6-0.8c0.3-0.1,0.6-0.2,0.9-0.2c0.3,0,0.6,0.2,0.8,0.4
	c1.1,1.2,2.7,1.9,4.3,1.7C177.3,88.8,177.8,88.7,178.4,88.4z"/>
<path class="st1" d="M183.7,76.8c-0.2-0.2-0.5-0.4-0.8-0.6c-0.8-0.4-1.7-0.6-2.6-0.7c-0.6,0-1.2-0.1-1.9-0.2
	c-0.8-0.1-1.5-0.4-2.2-0.8c-1.5-1.1-2.2-3.1-1.7-4.9l0.3,0.2c-2.5,2.5-6.6,2.5-9.1,0c-1.1-1.1-1.8-2.7-1.8-4.3l0.3,0.2
	c-1.7,0.9-3.7,0.9-5.4,0.2c-2.2-1-3.6-3.4-3.4-5.8c0-0.2,0.1-0.5,0.1-0.7c0-0.1,0-0.2,0.1-0.2c0,0-0.1,0.3-0.1,1
	c0,0.9,0.2,1.8,0.5,2.7c0.6,1.3,1.6,2.3,2.8,2.8c1.6,0.7,3.5,0.6,5.1-0.2l0.3-0.2v0.3c0.1,3.3,2.9,5.9,6.2,5.8
	c1.5-0.1,2.9-0.7,4-1.7l0.6-0.6l-0.2,0.8c-0.5,1.7,0.1,3.5,1.5,4.6c0.6,0.4,1.3,0.7,2,0.8c0.7,0.1,1.3,0.2,1.9,0.2
	c0.9,0,1.8,0.3,2.6,0.8C183.3,76.3,183.5,76.5,183.7,76.8z"/>
<path class="st1" d="M276.7,130.8c-0.2-0.1-0.3-0.3-0.5-0.4c-0.6-0.3-1.2-0.4-1.8-0.4c-0.4,0-0.8-0.1-1.3-0.1
	c-0.5-0.1-1-0.3-1.5-0.6c-1.1-0.8-1.5-2.1-1.1-3.4l0.2,0.1c-1.7,1.7-4.5,1.7-6.2,0c-0.8-0.8-1.2-1.9-1.3-3l0.2,0.1
	c-1.1,0.6-2.5,0.7-3.7,0.1c-1.5-0.7-2.5-2.3-2.3-4c0-0.2,0-0.3,0.1-0.5c0-0.1,0-0.2,0.1-0.2c0,0.2,0,0.5,0,0.7
	c0,0.6,0.1,1.2,0.4,1.8c0.4,0.9,1.1,1.6,2,2c1.1,0.5,2.4,0.4,3.5-0.2l0.2-0.1v0.2c0.1,2.3,1.9,4,4.2,4c1.1,0,2.1-0.5,2.8-1.2
	l0.4-0.4l-0.2,0.5c-0.3,1.2,0.1,2.4,1,3.1c0.4,0.3,0.9,0.5,1.4,0.5c0.5,0.1,0.9,0.1,1.3,0.2c0.6,0,1.3,0.2,1.8,0.5
	C276.5,130.4,276.6,130.6,276.7,130.8z"/>
<path class="st1" d="M203.3,72.8c-0.1-0.1-0.3-0.3-0.4-0.5c-0.2-0.3-0.6-0.8-0.9-1.5c-1.1-1.9-1.9-3.9-2.5-6l0.3,0.1
	c-1.6,1.3-4.3,0.8-5.9-1c-0.8-0.9-1.4-1.9-1.9-3.1c-0.3-0.6-0.5-1.2-0.6-1.8c0-0.4,0.1-0.7,0.3-1c0.2-0.3,0.6-0.5,1-0.5l-0.2,0.3
	c-0.4-0.5-0.8-1.1-1.1-1.7c-1.1-1.6-1.6-3.6-1.4-5.6c0.3-1.8,1.6-3.4,3.4-3.9l-0.1,0.3c-1.5-1.1-2.7-2.6-3.4-4.3
	c-0.5-1.3-0.8-2.8-0.8-4.2c0-0.9,0.2-1.8,0.5-2.7c0.1-0.2,0.2-0.5,0.3-0.7c0.1-0.2,0.1-0.2,0.1-0.2c-0.4,1.2-0.7,2.4-0.7,3.6
	c0,1.4,0.3,2.8,0.8,4.1c0.7,1.7,1.9,3.1,3.4,4.1L194,47l-0.4,0.1c-1.6,0.5-2.8,1.9-3,3.6c-0.2,1.9,0.2,3.7,1.3,5.3
	c0.3,0.6,0.7,1.1,1.1,1.6l0.3,0.4l-0.5-0.1c-0.5-0.1-0.9,0.5-0.8,1.1c0.1,0.6,0.3,1.1,0.5,1.7c0.4,1.1,1,2.1,1.8,3
	c1.4,1.7,3.9,2.1,5.3,1l0.2-0.2l0.1,0.2c0.6,2.1,1.4,4.1,2.4,6c0.4,0.7,0.6,1.2,0.8,1.5C203.2,72.5,203.3,72.6,203.3,72.8z"/>
<path class="st1" d="M224.3,40.5c0.1,0,0.1,0,0.2,0c0.2,0,0.4,0.1,0.6,0.2c0.7,0.3,1.3,0.9,1.6,1.6c0.6,1.1,0.7,2.3,0.3,3.5
	c-0.5,1.5-1.5,2.7-2.8,3.6v-0.3c0.9,1.3,1.3,2.9,1.1,4.5c-0.1,0.9-0.4,1.7-0.9,2.4c-0.5,0.8-1.1,1.4-1.9,1.9
	c-0.2,0.2-0.4,0.3-0.4,0.5c0,0.2,0.1,0.4,0.3,0.6c0.4,0.5,0.6,1,0.8,1.5c0.2,1.1,0.1,2.2-0.5,3.2c-0.5,0.9-1.3,1.6-2.2,2.1
	c-0.8,0.4-1.7,0.7-2.6,0.8l0.1-0.2c0.4,2.1,0.7,4.2,0.8,6.3c0.1,0.6,0.1,1.2,0,1.8c0,0.2,0,0.4,0,0.6c0-0.2-0.1-0.4-0.1-0.6
	c0-0.5-0.1-1-0.1-1.8c-0.2-2.1-0.5-4.2-0.9-6.2l-0.1-0.2h0.2c0.9-0.1,1.7-0.4,2.5-0.8c0.8-0.5,1.5-1.1,2-1.9
	c0.5-0.9,0.7-1.9,0.4-2.9c-0.1-0.5-0.3-1-0.7-1.4c-0.2-0.2-0.4-0.6-0.4-0.9c0.1-0.4,0.3-0.7,0.6-0.8c2.7-1.8,3.5-5.4,1.7-8.2
	l-0.1-0.1l-0.1-0.2l0.1-0.1c1.2-0.8,2.2-2,2.7-3.4c0.4-1.1,0.3-2.3-0.2-3.3c-0.3-0.7-0.8-1.2-1.4-1.6
	C224.6,40.6,224.3,40.5,224.3,40.5z"/>
<path class="st1" d="M262.2,59.9c0.1,0.1,0.1,0.2,0.1,0.3c0,0.3-0.1,0.6-0.2,0.8c-0.3,0.4-0.5,0.8-0.8,1.1c-0.4,0.4-0.6,1-0.5,1.6
	c0.1,0.4,0.1,0.7,0.1,1.1c-0.1,0.4-0.3,0.8-0.6,1.1c-0.7,0.6-1.6,0.9-2.5,0.8c-0.4,0-0.9-0.1-1.1,0.2s-0.3,0.8-0.5,1.3
	c-0.4,0.9-1.2,1.7-2.1,2.2c-0.5,0.3-1,0.4-1.5,0.5c-0.5,0.1-1.1,0-1.4,0.2c-0.1,0.1-0.1,0.2-0.1,0.4s0.2,0.4,0.3,0.6
	c0.2,0.5,0.1,1.1-0.3,1.5c-0.6,0.7-1.3,1.2-2.2,1.4l-2.1,0.8c-1.2,0.5-2.3,0.8-3,1.1c-0.4,0.1-0.7,0.3-1.1,0.3
	c0.3-0.2,0.7-0.4,1.1-0.5l2.9-1.2l2-0.8c0.8-0.3,1.5-0.7,2-1.3c0.3-0.3,0.3-0.7,0.2-1.1c-0.1-0.2-0.2-0.4-0.3-0.6
	c-0.2-0.3-0.1-0.7,0.2-0.9c0.3-0.1,0.5-0.2,0.8-0.2c0.2,0,0.5,0,0.7-0.1c0.5-0.1,0.9-0.3,1.4-0.5c0.8-0.4,1.5-1.1,1.9-2
	c0.1-0.2,0.2-0.4,0.2-0.6c0.1-0.3,0.2-0.5,0.4-0.7c0.2-0.2,0.5-0.3,0.8-0.3c0.2,0,0.5,0,0.7,0c0.8,0.1,1.6-0.1,2.2-0.6
	c0.3-0.2,0.5-0.5,0.5-0.8c0.1-0.3,0.1-0.7,0-1c-0.1-0.3,0-0.7,0.1-1c0.1-0.3,0.3-0.5,0.5-0.8c0.3-0.3,0.6-0.7,0.9-1.1
	C262.2,60.7,262.3,60.3,262.2,59.9z"/>
<path class="st1" d="M145.2,130.3c1.6,0.6,3.1,1,4.8,1.3c3.9,0.7,8,0.2,11.6-1.4c0.5-0.2,1-0.6,1.4-1c0.4-0.3,0.5-0.9,0.3-1.3
	l-0.1-0.2l0.3-0.1c3.1-0.9,5.9-2.5,8.2-4.7c1.8-1.7,2.5-2.9,2.6-2.8c-0.2,0.3-0.3,0.6-0.6,0.8c-0.6,0.8-1.2,1.5-1.9,2.2
	c-2.3,2.3-5.2,4-8.3,4.9l0.1-0.3c0.2,0.3,0.2,0.7,0.1,1c-0.1,0.3-0.2,0.6-0.5,0.8c-0.4,0.5-0.9,0.8-1.5,1.1
	c-3.7,1.6-7.9,2.1-11.9,1.3c-1.2-0.2-2.4-0.6-3.5-1c-0.3-0.1-0.6-0.3-0.9-0.4C145.3,130.3,145.2,130.3,145.2,130.3z"/>
<path class="st1" d="M257.4,114c1.5,0.6,3.1,1,4.8,1.3c3.9,0.7,8,0.2,11.6-1.3c0.5-0.2,1-0.5,1.4-0.9c0.4-0.3,0.5-0.9,0.3-1.3
	l-0.1-0.2l0.3-0.1c3.1-0.9,5.9-2.5,8.2-4.7c1.8-1.7,2.5-2.9,2.6-2.8c-0.2,0.3-0.3,0.6-0.6,0.8c-0.6,0.8-1.2,1.5-1.9,2.2
	c-2.3,2.3-5.2,4-8.3,4.9l0.1-0.3c0.2,0.3,0.2,0.7,0.1,1c-0.1,0.3-0.2,0.6-0.5,0.8c-0.4,0.5-0.9,0.8-1.5,1.1c-3.7,1.6-7.9,2-11.9,1.3
	c-1.2-0.2-2.4-0.5-3.5-1c-0.3-0.1-0.6-0.3-0.9-0.4C257.6,114.2,257.5,114.1,257.4,114z"/>
<path class="st1" d="M167.3,112.4c-0.2,0.1-0.4,0.1-0.7,0.1c-0.4,0.1-1.1,0.1-2,0.2c-1.7,0.2-4.2,0.3-7.3,0.4s-6.8,0.1-10.9-0.1
	c-1-0.1-2.1-0.1-3.2-0.3c-0.6-0.1-1.1-0.3-1.6-0.7c-0.5-0.4-0.8-0.9-0.8-1.6c-0.1-0.7,0.3-1.3,0.8-1.6c0.5-0.3,1.1-0.5,1.7-0.6
	l3.4-1.1l7.3-2.4c2.2-0.8,4.6-1.2,7-1.1l-0.2,0.2c0-0.8,0.4-1.5,0.9-2c0.5-0.5,1.1-0.9,1.8-1.1c1.2-0.4,2.4-0.8,3.5-1.3
	c0.9-0.6,1.8-1.3,2.5-2.1c0.6-0.7,1.4-1.3,2.2-1.9c1.2-0.7,2.6-0.9,3.9-0.3c0.3,0.2,0.6,0.4,0.8,0.7c0.1,0.1,0.1,0.2,0.2,0.3
	c-0.2-0.4-0.6-0.7-1-0.9c-1.2-0.5-2.6-0.3-3.7,0.4c-0.8,0.5-1.5,1.2-2.1,1.9c-0.7,0.8-1.6,1.6-2.5,2.2c-1.1,0.5-2.3,1-3.5,1.3
	c-0.7,0.2-1.3,0.6-1.8,1.1c-0.5,0.5-0.8,1.1-0.8,1.8v0.2h-0.2c-2.3,0-4.6,0.4-6.8,1.2l-7.3,2.4l-3.4,1.1c-0.5,0.1-1.1,0.3-1.6,0.6
	c-0.4,0.2-0.7,0.7-0.6,1.2c0.1,0.5,0.3,1,0.7,1.3c0.4,0.3,0.9,0.5,1.4,0.6c1,0.2,2.1,0.2,3.1,0.3c4.1,0.2,7.8,0.3,10.9,0.2
	s5.6-0.2,7.3-0.3l2-0.1C166.8,112.4,167.1,112.4,167.3,112.4z"/>
<path class="st1" d="M254.9,80.4c0.1-0.1,0.2-0.2,0.3-0.2c0.4-0.1,0.8-0.1,1.1,0c0.6,0.2,1.1,0.6,1.5,1c0.5,0.6,1.2,1,1.9,1.2
	c0.9,0,1.8-0.5,2.3-1.2c0.7-0.9,1.4-1.7,2.2-2.4c2-1.7,4.5-2.7,7.1-2.8h0.1l0.1,0.1c0.4,0.9,0.4,1.9,0,2.8c-0.6,1.4-1.4,2.7-2.3,3.9
	c-0.8,1.2-1.7,2.3-2.5,3.4c-1.4,1.9-3.1,3.5-5.1,4.9c-1.3,0.9-2.7,1.7-4.3,2.2c-0.4,0.1-0.8,0.2-1.3,0.3c-0.1,0-0.3,0-0.4,0
	c0,0,0.6-0.2,1.7-0.5c1.5-0.6,2.9-1.3,4.1-2.2c1.9-1.4,3.5-3.1,4.9-4.9c0.8-1,1.6-2.2,2.5-3.3c0.9-1.2,1.7-2.4,2.2-3.8
	c0.3-0.8,0.3-1.7,0-2.5l0.2,0.1c-2.5,0.1-5,1-6.9,2.7c-0.9,0.7-1.5,1.7-2.3,2.4c-0.6,0.8-1.6,1.3-2.6,1.3c-0.8-0.2-1.5-0.6-2-1.3
	c-0.4-0.4-0.9-0.8-1.4-1c-0.3-0.1-0.7-0.2-1.1-0.1C255,80.3,254.9,80.4,254.9,80.4z"/>
</svg>
