<?xml version="1.0" encoding="utf-8"?>
<!-- Generator: Adobe Illustrator 25.4.1, SVG Export Plug-In . SVG Version: 6.00 Build 0)  -->
<svg version="1.1" id="Cliente_15" xmlns="http://www.w3.org/2000/svg" xmlns:xlink="http://www.w3.org/1999/xlink" x="0px" y="0px"
	 viewBox="0 0 432 589" style="enable-background:new 0 0 432 589;" xml:space="preserve">
<style type="text/css">
	.st0{fill:#B88469;}
	.st1{fill:#59316D;}
	.st2{fill:#FFFFFF;}
	.st3{fill:#FFCCA9;}
	.st4{fill:#A86751;}
	.st5{fill:#263238;}
</style>
<path class="st0" d="M153.4,299.2c1-6.7,1.2-13.5,0.7-20.2"/>
<path class="st0" d="M157.1,295.1c0.9-6.7,1-13.5,0.4-20.3c-1.8-19-22.6-21.9-40-18.9c-13.5,2.4-23.7,13.6-24.7,27.3L65.1,439.9
	c0,0.3-0.1,0.6-0.1,0.9l-0.2,1.4l0,0c-1.3,15.5,10.3,29,25.7,30.3s29-10.3,30.3-25.7l26-109.7C150.6,321.1,155.1,311.9,157.1,295.1z
	"/>
<path class="st0" d="M73.5,608.5v0.4c-4.1,14.1-5.5,28.8-4.2,43.3c2.8,31.3,18.7,44.5,28.3,42.9c7.6-1.3,4.8-17.7,4.4-34.2
	c0.2-1.8,4.8-23.6,5.1-26.2l5.8,20.7c1.3,2,4,2.6,6,1.4c1.3-0.8,2.1-2.4,2-4l-0.9-16.2c-0.3-6.3-2.2-12.5-5.5-17.9
	c-3.1-4.6-7.3-8.2-12.3-10.5c0,0,9-46.8,14.4-81.9c1.9-12.2,3-24.4,3.3-36.7l1-41.1c0.4-15.5-11.8-28.4-27.3-28.9
	c-15-0.4-27.7,11-28.8,26l-1.6,30.8c-1.5,29.5,8.6,107.4,11,128.2C73.8,605.9,73.6,607.2,73.5,608.5z"/>
<path class="st0" d="M274.9,295.1c-0.9-6.7-1-13.5-0.4-20.3c1.8-19,22.6-21.9,40-18.9c13.5,2.4,23.7,13.6,24.6,27.3l27.8,156.7
	c0,0.3,0.1,0.6,0.1,0.9l0.2,1.4h0c1.3,15.5-10.3,29-25.7,30.3s-29-10.3-30.3-25.7l-26-109.7C281.4,321.1,276.9,311.9,274.9,295.1z"
	/>
<path class="st0" d="M312,489.7c0.3,12.3,1.5,24.6,3.3,36.7c5.4,35.1,14.4,81.9,14.4,81.9c-5,2.3-9.3,5.9-12.3,10.5
	c-3.3,5.4-5.2,11.6-5.5,17.9l-0.9,16.2c-0.2,2.4,1.7,4.5,4,4.6c1.6,0.1,3.1-0.7,4-2l5.8-20.7c0.3,2.7,4.9,24.4,5.1,26.2
	c-0.3,16.5-3.2,32.9,4.4,34.2c9.6,1.6,25.5-11.6,28.3-42.9c1.3-14.6-0.1-29.3-4.2-43.3v-0.4c-0.1-1.3-0.3-2.6-0.8-3.9
	c2.4-20.8,12.5-98.7,11-128.2l-1.6-30.8c-0.8-15.5-14-27.4-29.5-26.6s-27.4,14-26.6,29.5L312,489.7z"/>
<path class="st1" d="M305.9,731.4L305.9,731.4l-23.4-1.5c-18.3-1.2-36.6-2.4-54.9-3.7c-0.5-0.1-0.9-0.5-1-1l-9.6-71.7l-9.3,70.3
	c-0.1,0.6-0.6,1-1.2,1c-29.4-2.1-55.2-4-78.7-5.9c-0.6-0.1-1-0.5-1-1.1l-1-34.7c-0.1-2.5-0.2-5-0.2-7.5l-0.6-15.9l1.1-0.2h-1.1
	l-0.6-14.5c-0.9-12-1.4-22.2-1.4-31.3l-0.1-2.3c0-0.7,0-1.2,0.1-1.8l0.1-1.1c0.2-8.8,0.7-15.9,1.3-23.4c1.2-15.4,9.7-66,10.6-71.5
	c0-0.1,0-0.2,0-0.2c0-0.6-2.5-55.7-4.6-101.5l-8.2,34.4c0,0.8,0,1.5,0,2.3l-1,41.1c-0.3,12.3-1.5,24.7-3.3,36.9
	c-5,32.1-13,74.5-14.3,81.1c4.9,2.4,9,6,12,10.5c3.4,5.6,5.4,11.9,5.7,18.5l0.9,16.2c0.1,2.6-1.5,4.9-4,5.6c-2.3,0.6-4.7-0.3-6-2.3
	c-0.1-0.1-0.1-0.2-0.1-0.3l-4.5-16c-0.6,3.2-1.5,7.6-2.3,11.6c-0.9,4.5-1.8,8.8-1.9,9.7c0.1,3.3,0.2,6.7,0.4,9.9
	c0.7,13.5,1.2,24.2-5.8,25.3c-3.8,0.6-8.1-0.8-12.2-4c-9.4-7.3-15.8-21.8-17.4-40c-1.3-14.7,0.2-29.5,4.2-43.7v-0.2
	c0.1-1.4,0.3-2.7,0.8-4c-0.3-2.7-0.7-6.2-1.2-10.5c-3.6-29.8-11.1-91.9-9.7-117.6l1.6-30.5c-0.1-1.2-0.1-2.3-0.1-3.5
	c0-0.1,0-0.3,0-0.4l0.2-1.4c0-0.3,0.1-0.6,0.1-0.9l27.7-156.6c0.8-11.3,7.7-21.2,18-25.9c15.8-10.6,38.6-16.9,53.4-19l5.1-0.7
	c7-1,13.6-2,26-3h50.4h0.2c0.1,0,14.8,2.5,23.9,3.8c14.4,2,36.8,8.1,52.6,18.5c10.8,4.5,18.2,14.7,19.1,26.4L368,439.7
	c0,0.4,0.1,0.7,0.1,1l0.2,1.4c0,0.1,0,0.3,0,0.4c0,1.2,0,2.3-0.1,3.5l1.6,30.5c1.3,25.8-6.1,87.8-9.7,117.6
	c-0.5,4.2-0.9,7.8-1.2,10.5c0.4,1.3,0.7,2.6,0.8,4v0.2c4.1,14.2,5.5,29,4.2,43.7c-1.6,18.1-8,32.7-17.4,40c-4.1,3.2-8.5,4.6-12.2,4
	c-7-1.2-6.5-11.8-5.8-25.3c0.2-3.2,0.3-6.6,0.4-9.9c-0.1-0.9-1-5.2-1.9-9.8c-0.8-4-1.7-8.3-2.3-11.5l-4.5,16c0,0.1-0.1,0.2-0.1,0.3
	c-1.6,2.5-5,3.3-7.6,1.6c-1.6-1.1-2.6-2.9-2.5-4.9l0.9-16.2c0.3-6.5,2.2-12.9,5.7-18.5c3-4.5,7.1-8.2,12-10.5
	c-1.2-6.6-9.3-49-14.2-81.1c-1.9-12.2-3-24.5-3.3-36.9l-1-41.2c0-0.7,0-1.4,0-2.2l-7-29.5c-1.8,43.6-3.8,96-3.8,96.5
	c0,0.1,0,0.2,0,0.2c0.9,5.5,9.4,56.2,10.6,71.5c0.6,7.5,1.2,14.6,1.3,23.4c0,0.3,0.1,0.7,0.1,1c0,0.6,0.1,1.1,0.1,1.7l-0.1,2.5
	c0,9-0.5,19.3-1.4,31.3l-1.1,30.4c-0.1,2.5-0.2,5-0.3,7.6l-0.7,22.4c-0.1,2.7-0.1,5.5-0.2,8.3l-0.4,16.5c0,0.3-0.1,0.6-0.4,0.8
	C306.4,731.3,306.1,731.4,305.9,731.4z M228.6,724c18,1.2,36,2.4,54,3.6l22.2,1.5l0.4-15.4c0.1-2.8,0.1-5.5,0.2-8.3L306,683
	c0.1-2.6,0.2-5.1,0.3-7.6l1.2-30.4c0.9-12,1.4-22.2,1.4-31.2l0.1-2.5c0-0.5,0-1-0.1-1.5c0-0.4,0-0.7-0.1-1.1
	c-0.2-8.9-0.7-15.9-1.3-23.4c-1.3-16.1-10.6-71.3-10.7-71.8c0-0.2,0-0.5,0.1-0.7c0.2-5.7,2.4-61.4,4.1-104.2c0-0.6,0.4-1,1-1.1
	c0.6-0.1,1.1,0.3,1.2,0.9l8.9,37.6c0,0.1,0,0.2,0,0.3c0,0.8-0.1,1.5,0,2.2l1,41.2c0.3,12.3,1.4,24.5,3.3,36.6
	c5.3,34.7,14.3,81.4,14.4,81.9c0.1,0.5-0.2,1-0.7,1.2c-4.8,2.2-8.9,5.7-11.8,10.1c-3.2,5.2-5.1,11.2-5.4,17.4l-0.9,16.2
	c-0.1,1.5,0.9,2.9,2.4,3.3c1.3,0.4,2.7-0.2,3.5-1.3l5.8-20.6c0.2-0.6,0.8-0.9,1.4-0.7c0.4,0.1,0.7,0.5,0.8,0.9
	c0.2,1.5,1.8,9.7,3.2,16.2c1.1,5.7,1.9,9.2,2,10c0,0.1,0,0.1,0,0.2c-0.1,3.4-0.2,6.8-0.4,10.1c-0.6,11.9-1.1,22.2,3.9,23
	c3.1,0.5,6.9-0.7,10.5-3.5c4.2-3.3,14.3-13.5,16.5-38.4c1.3-14.4-0.1-29-4.2-42.9c0-0.1-0.1-0.2-0.1-0.3v-0.4
	c-0.1-1.2-0.3-2.4-0.7-3.6c-0.1-0.2-0.1-0.3-0.1-0.5c0.3-2.7,0.8-6.3,1.3-10.7c3.6-29.8,11-91.6,9.7-117.2l-1.7-30.6
	c0,0,0-0.1,0-0.1c0.1-1.2,0.1-2.4,0-3.6c0-0.1,0-0.2,0-0.3l-0.1-1c0-0.3-0.1-0.6-0.1-0.9l-27.7-156.7c0,0,0-0.1,0-0.1
	c-0.8-10.9-7.7-20.4-17.8-24.5c-0.1,0-0.1-0.1-0.2-0.1c-15.5-10.2-37.6-16.2-51.8-18.2c-8.7-1.2-22.6-3.6-23.9-3.8h-50.2
	c-12.3,1-18.8,2-25.8,3l-5.1,0.8c-14.5,2.1-37,8.2-52.5,18.6c0,0-0.1,0.1-0.2,0.1c-9.6,4.4-16,13.6-16.7,24.1c0,0,0,0.1,0,0.1
	L66.2,440.1c0,0.2-0.1,0.5-0.1,0.8L66,442c0,0.1,0,0.2,0,0.3c-0.1,1.2-0.1,2.4,0,3.6c0,0,0,0.1,0,0.1l-1.6,30.6
	c-1.3,25.6,6.1,87.5,9.7,117.3c0.5,4.4,1,8,1.3,10.7c0,0.2,0,0.3-0.1,0.5c-0.4,1.1-0.7,2.4-0.7,3.6v0.4c0,0.1,0,0.2-0.1,0.3
	c-4,13.9-5.4,28.5-4.2,42.9c2.2,24.8,12.3,35.1,16.5,38.4c3.6,2.8,7.3,4,10.5,3.5c5-0.8,4.5-11.1,3.9-23c-0.2-3.3-0.3-6.7-0.4-10.1
	c0-0.1,0-0.1,0-0.2c0.1-0.8,0.8-4.3,2-9.9c1.3-6.6,3-14.8,3.2-16.3c0.1-0.5,0.5-0.9,1-1c0.5,0,1,0.3,1.2,0.8L114,655
	c0.8,1.1,2.2,1.6,3.5,1.2c1.5-0.4,2.4-1.8,2.3-3.3l-0.8-16.1c-0.3-6.1-2.1-12.1-5.3-17.4c-2.9-4.4-7-7.8-11.8-10.1
	c-0.5-0.2-0.8-0.7-0.7-1.2c0.1-0.5,9.1-47.2,14.4-81.9c1.9-12.1,3-24.3,3.3-36.6l1-41.1c0-0.7,0-1.4,0-2.2c0-0.1,0-0.2,0-0.3
	l10.1-42.4c0.1-0.5,0.6-0.9,1.2-0.9c0.6,0.1,1,0.5,1,1.1c2.1,44.9,4.7,103.1,5,109c0.1,0.2,0.2,0.5,0.1,0.7
	c-0.1,0.5-9.4,55.7-10.7,71.8c-0.6,7.5-1.2,14.5-1.3,23.3c0,0.4-0.1,0.8-0.1,1.2c0,0.5-0.1,1.1-0.1,1.6l0.1,2.3
	c0,9.1,0.4,19.3,1.4,31.2l0.6,14.5v0.2l0.6,15.9c0.1,2.5,0.2,5,0.3,7.5l1,33.7c23,1.9,48.1,3.8,76.6,5.8l10.3-77.5
	c0.1-0.6,0.5-1,1.1-1c0.6,0,1.1,0.4,1.1,1L228.6,724z M110.2,258.1L110.2,258.1z"/>
<path class="st2" d="M320.7,255.4c-15.6-12.6-53.2-19-72.1-20.8c-12.1-1.1-59.8-0.2-80.2,2.3c-29,3.6-59.5,17.3-56.9,18
	c0,0,5.8,7,10.2,25.6c3.7,15.8,8,53.3,8.9,69.5c0.9,17.2-2.6,104.7-2.6,136.9c0,27.2-12.1,105.8-12.1,105.8
	c33,37.3,170.4,35.1,199.3,6.1c0,0-9.2-92.5-8.9-112.7c0.7-41.8-8.5-112.3-7.7-127.9c0.9-16.1,2.8-58.9,8.2-83.7
	C310.2,258.3,320.7,255.4,320.7,255.4z"/>
<path class="st3" d="M326.7,255.4c-15.6-12.6-53.2-19-72.1-20.8c-12.1-1.1-59.8-0.2-80.2,2.3c-29,3.6-59.5,17.3-56.9,18
	c0,0,5.8,7,10.2,25.6c3.7,15.8,8,53.3,8.9,69.5c0.9,17.2-2.6,104.7-2.6,136.9c0,27.2-12.1,105.8-12.1,105.8
	c33,37.3,170.4,35.1,199.3,6.1c0,0-9.2-92.5-8.9-112.7c0.7-41.8-8.5-112.3-7.7-127.9c0.9-16.1,2.8-58.9,8.2-83.7
	C316.2,258.3,326.7,255.4,326.7,255.4z"/>
<path class="st1" d="M220.8,621.7c-3.2,0-6.4,0-9.7-0.1c-45.8-1.4-81.8-11.9-96.1-28.2c-0.2-0.2-0.3-0.6-0.3-0.9
	c0.1-0.8,12.1-78.8,12.1-105.6c0-14.3,0.7-39.8,1.4-64.4c0.9-30.9,1.8-62.9,1.2-72.4c-0.9-16-5.2-53.5-8.9-69.2
	c-3.9-16.6-9-23.9-9.8-25c-0.4-0.3-0.6-0.7-0.5-1.1c0.2-2.5,14.5-7.7,18.9-9.3c7.7-2.7,23.1-7.6,39.1-9.6
	c20.8-2.6,68.5-3.4,80.4-2.3c19.6,1.9,57,8.4,72.7,21.1c0.5,0.4,0.6,1.1,0.2,1.6c-0.1,0.2-0.3,0.3-0.6,0.4l0,0
	c-0.4,0.1-9.9,3-13.1,18.2c-4.9,22.6-6.9,60.6-7.9,78.9c-0.1,1.7-0.2,3.3-0.2,4.7c-0.4,6.5,1.1,22.9,2.7,41.9
	c2.4,27.4,5.4,61.5,4.9,86c-0.3,19.9,8.8,111.6,8.9,112.6c0,0.3-0.1,0.7-0.3,0.9C302.5,612.9,264.2,621.7,220.8,621.7z M117,592.3
	c14.2,15.6,49.4,25.7,94.2,27c46.4,1.4,88.5-7.2,102.8-21c-0.8-7.6-9.1-93.1-8.8-112.3c0.4-24.3-2.5-58.4-4.9-85.7
	c-1.7-19.9-3.1-35.6-2.8-42.2c0.1-1.4,0.2-3,0.2-4.7c1-18.3,3-56.5,8-79.2c2.7-12.5,9.5-17.4,12.8-19c-16.1-11.6-51.2-17.6-70-19.4
	c-11.8-1.1-59.2-0.3-79.9,2.3c-25.6,3.2-51.5,14-55.7,16.8c1.5,2.1,6.2,9.6,9.9,25.4s8.1,53.5,9,69.6c0.5,9.6-0.4,41.6-1.2,72.6
	c-0.7,24.6-1.4,50.1-1.4,64.4C129.1,512.6,118,585.3,117,592.3z"/>
<path class="st0" d="M241,234.1c2,20.2-54.9,11.6-49.7-1.1c6-14.6,4-50.6,4-50.6H238C238,182.4,238.8,211.8,241,234.1z"/>
<path class="st4" d="M238.3,183.5c-8.2,2.9-14,2.9-23,2.5c-8,0-12.3-1.5-19.7-3.6c0,0,0,13.9,0,15.7c6.3,5.5,12.2,12.3,21.4,12.3
	c8.3,0,15.8-5.8,21.8-10.1C238.7,200.4,238.3,185.1,238.3,183.5z"/>
<path class="st1" d="M220.5,247.3c-11.1,0-23.2-3.2-28.2-7.8c-2.9-2.7-2.8-5.3-2.1-7c5.8-14.2,3.9-49.8,3.9-50.1l-0.1-1.2h45v1.1
	c0,0.3,0.8,29.6,3,51.7l0,0c0.4,4.6-1.8,8.2-6.4,10.5C231.7,246.5,226.2,247.3,220.5,247.3z M196.5,183.5c0.3,6.5,1.3,36.6-4.1,49.9
	c-0.6,1.5-0.1,3,1.5,4.5c6.9,6.4,30,10,40.9,4.6c3.8-1.9,5.5-4.6,5.2-8.2l0,0c-1.9-19.7-2.8-45.2-3-50.7H196.5z"/>
<path class="st0" d="M267,133.1c-2.2-0.6-4.8,0.9-6.4,3.6c0.5-6.6,0.9-12.6,0.9-16.3c0-1.6,0-3.2-0.1-4.7c0-1,0.1-2,0.1-3.1
	c0-3.7-0.3-7.3-0.9-10.9c-0.5-24.8-21.1-44.6-45.9-44c-6.1,0.1-12,1.5-17.6,4c-7.6,2.8-14.1,8.1-18.2,15.1
	c-5.4,7.6-8.3,16.6-8.2,25.9c0,2.1,0.2,4.2,0.5,6.3c0,1.2-0.1,2.4-0.1,3.7c0,1.1,0,2.2,0.1,3.2c0,1.5-0.1,3-0.1,4.6
	c0.1,4.9,0.5,9.7,1.1,14.5c-1.5-1.6-3.4-2.3-5.1-1.8c-2.7,0.8-4.7,4.5-4.9,8.7c-0.1,4.2,1.1,8.3,3.5,11.8c2.6,3.6,6.4,4.9,9.6,4
	c-0.6,0.2,2.4,11.3,2.7,12.4c1.4,4.1,3.4,8.1,5.9,11.7c4.2,6.6,9.9,12.1,16.5,16.2c4.7,3,10.2,4.6,15.8,4.8
	c16.9,0,33.3-12.6,39.4-28.1c2.2-5.5,2.6-11.2,3.2-17c3.2,1,7-0.3,9.6-3.9c2.4-3.4,3.6-7.6,3.5-11.8
	C271.6,137.6,269.7,133.9,267,133.1z"/>
<path class="st4" d="M171.2,138.4c-1.3-1.1-3.6-1.7-4.7,0.1c-0.3,0.5-0.2,1.4,0.3,1.5c0.8,0.2,1.6,0,2.3,0.3
	c0.8,0.4,1.3,1.1,1.6,1.9c0.4,1.2,0.4,4.7,1.9,3.8c0.5-0.3,0.9-1,0.8-1.6C173.6,142.2,172.8,140,171.2,138.4z"/>
<path class="st4" d="M265.1,139.6c1.3-1.1,3.6-1.7,4.7,0.1c0.3,0.5,0.2,1.4-0.3,1.5c-0.8,0.2-1.5,0-2.3,0.3
	c-0.8,0.4-1.3,1.1-1.6,1.9c-0.5,1.2-0.4,4.7-2,3.8c-0.5-0.3-0.9-1-0.8-1.6C262.7,143.3,263.5,141.1,265.1,139.6z"/>
<path class="st1" d="M216.2,203.8c-5.8-0.1-11.5-1.8-16.4-4.9c-6.8-4.2-12.5-9.8-16.8-16.5c-2.5-3.7-4.5-7.7-6-11.9
	c-1.1-3.7-2.1-7.5-2.8-11.4c-3.4,0.4-7-1.3-9.4-4.7c-2.6-3.7-3.9-8.1-3.8-12.5c0.2-4.8,2.5-8.8,5.7-9.7c1.3-0.4,2.8-0.2,4,0.4
	c-0.5-4-0.8-8.1-0.9-12.1c0-1.4,0-3,0.1-4.6c-0.1-1.1-0.1-2.2-0.1-3.2c0-1.2,0-2.4,0.1-3.6c-0.3-2.1-0.4-4.3-0.4-6.4
	c0-9.5,3-18.8,8.5-26.6c4.3-7.2,10.9-12.6,18.7-15.5c5.9-2.7,12.4-4.1,18.9-4.1c25,0.1,45.4,20.1,46.1,45.1c0.6,3.6,0.9,7.3,0.9,11
	c0,1,0,2-0.1,3.1c0,1.6,0.1,3.2,0.1,4.7c0,2.8-0.2,7.2-0.6,13c1.5-1.3,3.5-1.8,5.4-1.3c3.1,0.9,5.5,4.9,5.7,9.7
	c0.2,4.5-1.2,8.8-3.7,12.5c-2.5,3.4-6.1,5.1-9.5,4.7c-0.5,5.5-1,10.8-3.1,16C250,191.7,233,203.8,216.2,203.8z M176.3,158
	c0.1,1.6,2.3,10.2,2.8,11.7c1.4,4,3.3,7.9,5.8,11.4c4.1,6.4,9.6,11.8,16.1,15.9c4.6,2.9,9.8,4.5,15.2,4.6
	c15.7,0,32.2-11.8,38.3-27.4c2-5,2.5-10.1,3-15.5l0.1-1.2c0-0.3,0.2-0.6,0.5-0.8c0.3-0.2,0.7-0.2,1-0.1c2.9,0.9,6.1-0.4,8.4-3.6
	c2.3-3.2,3.4-7.1,3.3-11.1c-0.2-3.8-1.9-7-4-7.7l0,0c-1.7-0.5-3.8,0.8-5.1,3.1c-0.3,0.5-1,0.7-1.5,0.4c-0.4-0.2-0.6-0.6-0.6-1.1
	c0.6-7.5,0.9-12.9,0.9-16.3c0-1.5,0-3-0.1-4.7c0.1-1.2,0.1-2.2,0.1-3.1c0-3.6-0.3-7.2-0.9-10.8c0-0.1,0-0.1,0-0.2
	c-0.6-23.8-20-42.9-43.8-43c-6.2,0-12.4,1.3-18.1,3.9c-7.4,2.7-13.7,7.8-17.7,14.6c-5.3,7.4-8.1,16.3-8.1,25.4
	c0,2.1,0.2,4.1,0.4,6.2c0,0.1,0,0.1,0,0.2c0,1.2-0.1,2.4-0.1,3.7c0,1,0,2,0.1,3.2c-0.1,1.7-0.1,3.2-0.1,4.7
	c0.1,4.8,0.5,9.6,1.1,14.4c0.1,0.5-0.2,0.9-0.6,1.1c-0.4,0.2-0.9,0.1-1.3-0.2c-1.3-1.3-2.8-1.9-3.9-1.5c-2.2,0.6-3.9,3.9-4,7.7
	c-0.1,3.9,1,7.8,3.3,11.1c2.3,3.1,5.5,4.4,8.3,3.6l0,0c0.6-0.2,1.2,0.1,1.4,0.7c0,0,0,0,0,0C176.5,157.5,176.4,157.8,176.3,158z"/>
<path class="st1" d="M209.8,104.8c-3.8-2.7-8.5-3.6-13-2.6c-2.9,0.7-9,2.9-8.1,6.8c0.1,0.4,0.5,0.8,0.9,0.9c2.7,0.7,5-2.3,7.5-3
	c3.8-1,7.2,0,10.4,2C210.2,110.4,212.2,106.4,209.8,104.8z"/>
<path class="st1" d="M244.8,105.6c-3.5-3-8.2-4.3-12.8-3.7c-3,0.4-9.2,2.2-8.6,6.1c0.1,0.5,0.4,0.8,0.9,1c2.6,0.9,5.1-1.9,7.7-2.4
	c3.8-0.7,7.2,0.6,10.2,2.8C244.6,111.3,246.9,107.5,244.8,105.6z"/>
<path class="st4" d="M218.1,133.9c2.8,3.1,5.6,6.3,7.3,10.1s2.1,8.6,0.1,12.2c-1,2-2.8,3.3-5,3.8c-2.2,0.3-4.4-0.8-5.3-2.8
	c-0.9-2.1,0-4.9,2-5.6c-2.1-3.8-3.3-8-3.6-12.3c-0.2-1.5,0-3,0.7-4.3C215.2,133.9,217.2,132.9,218.1,133.9z"/>
<path class="st1" d="M228.4,147.4c-1.1-6.6-5.9-11.5-10.9-15c-0.6-0.4-1.4,0.5-1,1.1c2.8,3.9,7,7.6,8.5,12.3c0.8,2.4,0.9,5,0.1,7.4
	c-0.8,2.3-3.2,3.2-4.6,5.1c-1,1.3-0.9,2.1,0.6,1.8C226.3,159,229.2,152.2,228.4,147.4z"/>
<circle class="st1" cx="233.6" cy="123.8" r="3"/>
<circle class="st1" cx="200.7" cy="124.5" r="3"/>
<path class="st5" d="M274.8,81.2c-0.3-1-0.8-1.9-1.5-2.7c-0.2-0.2-0.4-0.4-0.6-0.6c-0.1-0.2-0.1-0.4-0.2-0.5l-1-1.7
	c-0.2-0.4-0.4-0.8-0.7-1.2c2.9-2.9,1.9-9.8-3.2-9.8c-0.3,0-0.6,0-0.9,0.1c2.5-6.5-0.5-15.8-8.8-15.8c-2.1-0.1-4.2,0.7-5.9,2
	c-3.1-4.1-8.9-4.9-13-1.9c-0.6,0.5-1.2,1-1.6,1.6c0.1-5.6-3.1-11.3-9.6-11.3c-5.2,0-8.3,3.6-9.3,8h-0.3c-1-4.3-4.1-8-9.3-8
	c-3.3-0.1-6.4,1.7-8,4.6c-0.2,0-0.5,0-0.7,0c-3.3-0.1-6.3,1.6-7.9,4.5c-1.6-2.8-4.7-4.5-7.9-4.5c-7.2,0-10.4,6.9-9.5,13
	c-0.3,0.2-0.5,0.4-0.8,0.6c-0.3,0-0.7-0.1-1-0.1c-5.3,0-7.7,5-7.2,9.4l-2.2,2c-0.2,0.2-0.3,0.4-0.5,0.6c-0.2,0-0.4,0.1-0.6,0.1
	l-2,0.5c-1.3,0.4-2.4,1.3-3,2.6c-0.7,1.3-0.9,2.8-0.5,4.3c0.1,0.5,0.3,0.9,0.6,1.4c-2.9,1.5-3.4,6-1.6,8.6c-1.2,2.9-0.3,6.9,2.8,7.9
	c0.2,1.5,0.8,3,1.7,4.2c-2.5,2.8-1.6,8.7,2.5,9.5c1.2,16.2,7.8,21.5,12,49.2c-0.1-2-0.1-3.9-0.2-5.9c0-3-0.1-5.9-0.5-8.9
	c-0.9-8.6-1.4-18.7,3.9-19.5c2.3-0.3,2.6-22.9,2.6-34.3c0.3,0.1,0.7,0.1,1,0.1c1.9,0.1,3.6-1,4.3-2.7c2,3.8,6.7,5.3,10.5,3.3
	c1.2-0.6,2.2-1.5,2.9-2.6c1.5,1.6,3.6,2.5,5.8,2.5c5.2,0,7.8-4.1,7.7-8.1h0.1c2.4,3.6,7.2,4.6,10.8,2.2c1-0.7,1.9-1.6,2.5-2.7
	l2.5-0.1c-0.8,4.5,1.7,9.7,7.6,9.7c1.9,0.1,3.7-0.6,5.2-1.9c1.3,0.9,2.9,1.4,4.6,1.4c1.3,0,2.6-0.3,3.7-0.9c0.8,0.2,1.6,0.4,2.4,0.4
	h0.6c-0.5,13-1,34.7,1.1,35c4,0.5,5,5.6,5,11.4c-0.3,2.4-0.7,4.9-1.1,7.3c-0.2,1.1-0.3,2.2-0.5,3.4c0,0.4-0.1,1-0.2,2
	c-0.6,6.7,0.2,12.7,0.5,9.6c4.6-19.5,2.1-21.6,9.8-40.9c4.6-8.3,5.1-16.7,4.1-24.6c0.7-0.4,1.3-0.9,1.8-1.4l1.2-1.7
	c0.7-1.3,1-2.7,1-4.2v-1.2C275.5,83.2,275.3,82.2,274.8,81.2z"/>
<path class="st1" d="M257.5,160.1h-0.1c-0.9-0.1-1.2-0.7-1.4-4.1c-0.1-2.5-0.1-4.9,0.2-7.4c0.1-0.9,0.1-1.6,0.2-2l0.2-1.1
	c0.1-0.8,0.2-1.6,0.4-2.4c0.4-2.4,0.7-4.8,1.1-7.2c0-6.7-1.4-10-4.1-10.3c-1.3-0.2-3.3-0.4-2.1-35c-0.6,0-1.2-0.1-1.9-0.3
	c-1.2,0.6-2.5,0.8-3.8,0.8c-1.6,0-3.1-0.4-4.5-1.1c-1.5,1.1-3.4,1.7-5.2,1.6c-2.5,0.1-5-1-6.6-2.9c-1.5-1.9-2.2-4.3-2.1-6.7h-0.8
	c-1.6,2.6-4.4,4.1-7.4,4c-2.1,0.1-4.2-0.6-5.8-2c-0.4,1.6-1.1,3.1-2.3,4.3c-1.6,1.6-3.9,2.5-6.2,2.4c-2,0.1-4-0.6-5.6-1.9
	c-3.3,3.7-8.9,3.9-12.6,0.6c-0.3-0.3-0.7-0.6-0.9-1c-1.1,1.2-2.7,1.9-4.3,1.8c0,33.7-2.2,34-3.4,34.2c-4.8,0.7-3.6,13.1-3,18.4
	c0.3,3,0.5,6,0.5,9c0,2.1,0.1,4,0.2,5.8c0.1,0.6-0.3,1-0.9,1.1c-0.6,0.1-1-0.3-1.1-0.9c-1.5-10.2-4-20.1-7.4-29.8
	c-2.1-6.1-3.9-11.3-4.5-18.8c-1.7-0.6-3-1.9-3.5-3.7c-0.8-2.2-0.5-4.6,0.7-6.6c-0.7-1.1-1.1-2.3-1.3-3.5c-1.2-0.6-2.2-1.6-2.7-2.9
	c-0.8-1.8-0.9-3.8-0.2-5.7c-0.9-1.7-1.2-3.7-0.7-5.6c0.3-1.4,1.1-2.6,2.1-3.5c-0.1-0.2-0.2-0.5-0.3-0.7c-0.4-1.7-0.2-3.5,0.6-5
	c0.8-1.4,2.1-2.5,3.6-3l2-0.6l0.3-0.1l0.3-0.3l1.9-1.7c-0.2-2.7,0.6-5.4,2.4-7.5c1.5-1.7,3.6-2.6,5.9-2.6c0.2,0,0.4,0,0.6,0l0,0
	c-0.4-3.7,0.7-7.3,3-10.2c3.8-4.2,10.4-4.5,14.6-0.7c0.3,0.3,0.7,0.7,1,1c1.9-2.4,4.8-3.7,7.8-3.7h0.2c1.9-2.9,5.1-4.6,8.5-4.5
	c4.1-0.1,7.9,2.4,9.4,6.2c1.6-3.8,5.3-6.3,9.4-6.2c2.7-0.1,5.3,1,7.2,2.9c1.8,2,3,4.4,3.3,7.1c1.8-1.4,4-2.2,6.3-2.1
	c2.9-0.1,5.7,1.2,7.6,3.3c4.6-3,10.8-1.8,14,2.7c2.2,3.4,2.8,7.5,1.8,11.4c2.2,0.2,4,1.5,4.8,3.6c1,2.4,0.7,5.1-0.8,7.3
	c0.1,0.2,0.3,0.4,0.4,0.7l1,1.6c0.1,0.2,0.2,0.3,0.2,0.5c0.2,0.2,0.4,0.4,0.5,0.6c0.8,0.8,1.4,1.9,1.7,3c0.5,1.1,0.8,2.4,0.7,3.6
	v1.1c0,1.6-0.4,3.2-1.1,4.7l-0.1,0.1L274,92c0,0,0,0.1-0.1,0.1c-0.4,0.5-0.9,0.9-1.4,1.3c1.2,9.2-0.2,17.3-4.2,24.5
	c-4.7,12-5.5,17.1-6.6,24.3c-0.6,4.2-1.4,9.1-3.1,16.3C258.6,159,258.4,160.1,257.5,160.1z M254.3,123.7c5,0.9,5.6,7.4,5.6,12.3
	c0,0,0,0.1,0,0.1c-0.4,2.4-0.7,4.9-1.1,7.3c-0.1,0.8-0.2,1.6-0.4,2.3l-0.1,1c0,0.3-0.1,1-0.2,1.9c-0.1,1.3-0.2,2.5-0.2,3.7
	c0.9-4.3,1.4-7.7,1.9-10.7c1.1-7,1.9-12.6,6.7-24.8c0,0,0-0.1,0.1-0.1c3.9-7,5.2-14.9,3.9-24c-0.1-0.4,0.1-0.8,0.5-1
	c0.6-0.3,1.1-0.7,1.5-1.2l1.1-1.6c0.6-1.1,0.9-2.4,0.9-3.7v-1.1c0-1-0.1-1.9-0.5-2.8c0,0,0-0.1,0-0.2c-0.2-0.9-0.7-1.6-1.3-2.3
	c-0.2-0.2-0.4-0.4-0.6-0.6c-0.1-0.1-0.2-0.2-0.2-0.3l-0.1-0.2l-0.1-0.3l-1-1.7c-0.2-0.4-0.4-0.7-0.7-1c-0.3-0.4-0.3-1,0.1-1.3
	c1.4-1.6,1.7-3.8,0.9-5.7c-0.5-1.4-1.9-2.4-3.4-2.3c-0.2,0-0.5,0-0.7,0.1c-0.4,0.1-0.7-0.1-1-0.3c-0.2-0.3-0.3-0.7-0.2-1
	c1.4-3.6,0.9-7.7-1.1-11c-2.7-3.7-7.9-4.6-11.7-1.9c-0.1,0.1-0.2,0.1-0.3,0.2c-0.4,0.4-1.1,0.3-1.4-0.1c0,0,0,0,0-0.1
	c-2.8-3.6-7.9-4.4-11.6-1.6c-0.5,0.4-1,0.8-1.4,1.3c-0.3,0.3-0.7,0.5-1.1,0.3c-0.4-0.2-0.7-0.6-0.7-1c0.1-2.9-0.9-5.8-2.8-8
	c-1.5-1.5-3.6-2.4-5.8-2.3c-4.2,0-7.3,2.7-8.3,7.2c-0.1,0.4-0.4,0.7-0.9,0.8h-0.2c-0.5,0.1-1-0.3-1.1-0.8c-1-4.5-4.1-7.2-8.3-7.2
	c-2.9-0.1-5.7,1.5-7.1,4.1c-0.2,0.3-0.5,0.5-0.9,0.5h-0.2h-0.4c-2.9-0.1-5.6,1.5-7,4c-0.2,0.3-0.5,0.5-0.9,0.5l0,0
	c-0.4,0-0.7-0.2-0.9-0.5c-2.4-3.9-7.5-5.1-11.4-2.8c-0.7,0.4-1.3,0.9-1.8,1.5c-2,2.6-2.9,5.9-2.4,9.2c0.1,0.4-0.1,0.8-0.4,1
	c-0.2,0.2-0.4,0.3-0.6,0.5c-0.2,0.2-0.5,0.3-0.8,0.3c-0.3,0-0.6-0.1-0.8-0.1c-1.7-0.1-3.2,0.6-4.4,1.9c-1.5,1.8-2.1,4.2-1.8,6.5
	c0,0.3-0.1,0.6-0.3,0.9l-2.2,2c-0.1,0.1-0.3,0.3-0.4,0.4c-0.2,0.2-0.4,0.3-0.6,0.4h-0.2h-0.3l-2.1,0.6c-1,0.3-1.9,1.1-2.4,2
	c-0.5,1.1-0.7,2.3-0.4,3.5c0.1,0.4,0.3,0.8,0.5,1.2c0.3,0.5,0.1,1.1-0.4,1.3c-1,0.6-1.7,1.6-1.9,2.7c-0.4,1.5-0.1,3.1,0.7,4.4
	c0.2,0.3,0.2,0.7,0.1,1c-0.6,1.5-0.6,3.1,0,4.6c0.4,0.9,1.2,1.7,2.1,2c0.4,0.1,0.6,0.4,0.7,0.8c0.1,1.4,0.6,2.7,1.4,3.8
	c0.3,0.4,0.3,0.9,0,1.3c-1.2,1.5-1.5,3.5-0.8,5.3c0.4,1.3,1.5,2.3,2.8,2.5c0.4,0.1,0.8,0.5,0.8,0.9c0.6,7.6,2.3,12.6,4.5,19
	c2,5.5,3.6,11.1,5,16.8c0-0.4-0.1-0.8-0.1-1.2c-1-10-1.1-19.5,4.5-20.5c0.9-1.4,1.9-10.9,1.9-33.3c0-0.3,0.1-0.6,0.4-0.8
	c0.2-0.2,0.5-0.3,0.8-0.2c0.3,0.1,0.5,0.1,0.8,0.1c1.5,0.1,2.9-0.8,3.4-2.1c0.2-0.4,0.5-0.6,0.9-0.6c0.4,0,0.7,0.2,0.9,0.6
	c1.7,3.3,5.8,4.6,9.2,2.9c1-0.5,1.8-1.3,2.5-2.2c0.2-0.3,0.5-0.5,0.8-0.5c0.3,0,0.6,0.1,0.8,0.3c2.6,2.7,7,2.8,9.7,0.3
	c1.3-1.4,2.1-3.3,2-5.3c0-0.6,0.4-1,1-1c0.4,0,0.7,0.2,0.9,0.5c2.1,3.1,6.3,4,9.4,1.9c0.9-0.6,1.6-1.4,2.1-2.3
	c0.2-0.3,0.5-0.5,0.9-0.6l2.4-0.1c0.6,0,1,0.4,1,1c0,0.1,0,0.1,0,0.2c-0.5,2.2,0.1,4.5,1.5,6.3c1.3,1.5,3.1,2.3,5.1,2.2
	c1.6,0.1,3.3-0.5,4.5-1.6c0.3-0.3,0.9-0.3,1.2-0.1c1.2,0.8,2.6,1.2,4,1.2c1.1,0,2.3-0.3,3.3-0.8c0.2-0.1,0.5-0.1,0.8-0.1
	c0.7,0.2,1.4,0.3,2.1,0.3h0.6c0.6,0,1,0.4,1,1C252.7,117.9,253.9,122.9,254.3,123.7z M274.4,89.7L274.4,89.7z"/>
<path class="st1" d="M186.8,84.4c-0.7,1.8-2.2,3.3-4,3.9c-2.3,0.6-4.7-0.1-6.4-1.7c-0.4-0.4-0.7-0.7-1-1.2l-1.2-1.6l0.2,2
	c0.3,2.3-0.6,4.6-2.3,6.2c-1.3,1.1-3,1.6-4.7,1.1c-1.6-0.5-3.1-1.5-4.2-2.8c0.1,0.5,0.4,1,0.8,1.4c2.4,2.9,6.1,3.4,8.8,1.2
	c2-1.8,3.1-4.5,2.8-7.2l-1,0.4c0.4,0.5,0.7,1,1.2,1.4c1.9,1.9,4.7,2.6,7.4,1.9c3.4-1.2,5.5-5,5-9.2c-0.2-1.1-0.4-1.7-0.5-1.6
	C187.9,80.6,187.6,82.6,186.8,84.4z"/>
<path class="st1" d="M169.2,94.8c-2.1,0-4.1-1-5.4-2.7c-0.2-0.3-1-1.3-0.8-1.8c0.1-0.2,0.3-0.3,0.5-0.3c0.1,0,0.2,0.1,0.2,0.1
	c1.1,1.2,2.4,2.2,4,2.7c1.5,0.4,3.2,0,4.3-1c1.6-1.5,2.3-3.7,2.1-5.8l-0.2-2c0-0.2,0.2-0.4,0.4-0.4c0.1,0,0.3,0,0.3,0.1l1.2,1.6
	c0.3,0.4,0.6,0.8,1,1.1c1.6,1.6,3.9,2.2,6,1.6c1.7-0.6,3.1-1.9,3.8-3.7l0,0c0.7-1.8,1-3.7,0.8-5.6c0-0.2,0.1-0.4,0.3-0.4
	c0.1,0,0.2,0,0.3,0.1c0.4,0.6,0.6,1.2,0.7,1.9c0.5,4.3-1.7,8.4-5.2,9.7c-2.6,0.7-5.4,0-7.4-1.7c-0.3,2-1.3,3.8-2.8,5.1
	C172.1,94.3,170.7,94.8,169.2,94.8z M165.9,92.9c2,1.5,4.8,1.4,6.7-0.2c1.5-1.3,2.4-3.2,2.6-5.2l-0.3-0.4c-0.1,2-1,3.8-2.4,5.1
	c-1.4,1.2-3.3,1.7-5.1,1.2C166.9,93.4,166.4,93.2,165.9,92.9z M176.1,87.3L176.1,87.3c1.9,1.9,4.6,2.6,7.1,1.9
	c2.6-1.1,4.4-3.5,4.7-6.3c-0.1,0.6-0.3,1.2-0.6,1.7c-0.7,1.9-2.3,3.5-4.3,4.1c-2.4,0.6-5-0.1-6.8-1.8l-0.1-0.1
	C176.1,86.9,176.1,87.1,176.1,87.3z M174.8,85.3l0.1,0.5l0.2-0.1L174.8,85.3z"/>
<path class="st1" d="M271.5,90c-0.2,1-0.6,1.9-1.3,2.7c-1,1.2-2.4,1.8-3.9,1.8c-1.8-0.1-3.4-1.2-4.3-2.8c-0.3-0.6-0.5-1.2-0.5-1.8
	l-0.1-2.4l-0.7,2.3c-0.5,1.5-1.7,2.6-3.3,3c-1.2,0.3-2.6,0-3.6-0.8c-0.9-0.8-1.6-1.8-2-2.9c0,0-0.1,0.4,0.1,1
	c0.7,2.4,3.1,3.9,5.6,3.4c1.8-0.4,3.3-1.7,3.9-3.5l-0.8-0.1c0,0.8,0.2,1.5,0.6,2.2c1,1.9,2.9,3.1,5,3.2c2.9,0,5.3-2.3,5.5-5.2
	c0.1-0.4,0-0.8-0.2-1.2C271.6,89.3,271.6,89.6,271.5,90z"/>
<path class="st1" d="M266.3,95.9c-2.3-0.1-4.4-1.4-5.5-3.5c0,0,0-0.1-0.1-0.1c-0.8,0.9-1.9,1.5-3.1,1.8c-1.6,0.3-3.3-0.1-4.5-1.2
	c-0.8-0.7-1.4-1.6-1.7-2.6c-0.1-0.3-0.3-1.1,0-1.5c0.1-0.1,0.3-0.2,0.4-0.2c0.2,0,0.4,0.2,0.4,0.3c0.3,1,1,2,1.8,2.7
	c0.9,0.7,2,0.9,3.1,0.7c1.4-0.3,2.5-1.3,2.9-2.7l0.7-2.3c0.1-0.2,0.3-0.4,0.5-0.4c0.2,0,0.4,0.2,0.4,0.5l0.1,2.4
	c0,0.6,0.2,1.1,0.5,1.6c0.8,1.5,2.2,2.5,3.9,2.6c1.3,0,2.6-0.6,3.5-1.6c0.6-0.7,1-1.6,1.2-2.5c0-0.4,0.1-0.8,0.2-1.1
	c0-0.2,0.2-0.4,0.4-0.4c0.2,0,0.4,0.1,0.5,0.3c0.2,0.5,0.3,1,0.2,1.5C272.1,93.4,269.5,95.8,266.3,95.9z"/>
<path class="st1" d="M241.9,61c-1.8-1.4-4.1-2.1-6.4-1.9c-3.6,0.4-6.8,2.7-8.1,6.1l1.4,0.1c-0.7-2.5-2.7-4.6-5.2-5.4
	c-2-0.7-4.2-0.4-6,0.6c-3,1.8-3.4,4.2-3.2,4.2c0.9-1.4,2.2-2.5,3.7-3.3c1.6-0.8,3.4-0.9,5.1-0.2c2,0.8,3.6,2.4,4.2,4.5l0.6,2.2
	l0.9-2.1c0.2-0.6,0.5-1.2,0.9-1.7c1.4-2,3.6-3.3,6-3.6c2-0.2,4,0.2,5.6,1.3c1.5,1.1,2.8,2.6,3.7,4.2C245.2,66,245,63.3,241.9,61z"/>
<path class="st1" d="M227.9,68.4L227.9,68.4c-0.2,0-0.4-0.2-0.4-0.4l-0.6-2.2c-0.6-1.9-2-3.5-3.9-4.2c-1.5-0.6-3.2-0.5-4.7,0.2
	c-1.4,0.8-2.6,1.9-3.5,3.2c-0.1,0.1-0.3,0.2-0.4,0.2c-0.2,0-0.4-0.2-0.5-0.4c-0.1-0.5,0.4-2.9,3.5-4.7c1.9-1.1,4.3-1.4,6.4-0.7
	c1.8,0.6,3.3,1.8,4.4,3.3c1.7-2.4,4.4-3.9,7.3-4.2c2.4-0.2,4.8,0.5,6.8,2c3.1,2.3,3.5,5,3.4,5.5c-0.1,0.2-0.3,0.3-0.5,0.3
	c-0.2,0-0.3-0.1-0.4-0.2c-0.9-1.6-2.2-2.9-3.6-4c-1.6-1-3.4-1.5-5.3-1.3c-2.9,0.3-5.4,2.2-6.5,5l-0.9,2.1
	C228.3,68.3,228.1,68.4,227.9,68.4z M227.9,65.8l0.1,0.5l0.2-0.4L227.9,65.8z M228.7,63.8c0.1,0.2,0.2,0.3,0.2,0.5l0.3-0.5
	c1.5-2.1,3.8-3.5,6.3-3.8c1.9-0.2,3.8,0.2,5.5,1.1c-1.6-1.1-3.6-1.6-5.5-1.4C232.7,60,230.2,61.5,228.7,63.8L228.7,63.8z
	 M220.9,60.4c0.8,0,1.7,0.1,2.4,0.4c1.7,0.6,3.1,1.9,3.9,3.5c0.1-0.2,0.2-0.3,0.2-0.5c-0.9-1.5-2.4-2.7-4.1-3.3
	c-1.6-0.5-3.4-0.5-5,0.3C219.2,60.5,220.1,60.3,220.9,60.4L220.9,60.4z"/>
<path class="st1" d="M199.5,56.1c-2-1.5-4.4-2.5-6.9-2.9c-2.6-0.4-5.3,0.6-7,2.7c-1.2,1.6-1.2,2.9-0.9,3s0.5-1.1,1.7-2.3
	c1.6-1.5,3.9-2.2,6.1-1.9c2.3,0.4,4.5,1.1,6.4,2.3c1.6,0.8,2.6,1.4,2.8,1.2S201,57.2,199.5,56.1z"/>
<path class="st1" d="M184.7,59.3h-0.1c-0.2-0.1-0.4-0.2-0.4-0.4c-0.2-0.6,0-1.9,1.1-3.3c1.8-2.2,4.7-3.3,7.5-2.8
	c2.6,0.4,5,1.4,7.1,3c1.5,1.1,2.4,1.9,2.4,2.4c0,0.2,0,0.3-0.1,0.4c-0.4,0.5-1,0.2-3.4-1c-1.9-1.1-4.1-1.9-6.3-2.2
	c-2.1-0.3-4.1,0.3-5.7,1.7c-0.5,0.5-0.9,1.1-1.3,1.7C185.3,59,185.1,59.3,184.7,59.3z M201.2,58.3L201.2,58.3z M191.4,54.1
	c0.4,0,0.8,0,1.2,0.1c2.3,0.4,4.6,1.2,6.6,2.4l0.3,0.2l-0.3-0.2l0,0c-1.9-1.5-4.2-2.4-6.6-2.8c-2.5-0.4-5,0.6-6.6,2.5
	c-0.1,0.1-0.2,0.2-0.3,0.4c0.1-0.1,0.2-0.2,0.3-0.3C187.5,54.9,189.4,54.1,191.4,54.1z"/>
<path class="st1" d="M244.8,78.6c2,1.5,4.4,2.5,6.9,2.9c2.6,0.4,5.3-0.6,7-2.7c1.2-1.6,1.2-2.9,0.9-3s-0.5,1.1-1.7,2.3
	c-1.6,1.5-3.8,2.2-6,1.9c-2.3-0.4-4.5-1.1-6.4-2.3c-1.6-0.8-2.6-1.4-2.8-1.2S243.3,77.5,244.8,78.6z"/>
<path class="st1" d="M252.8,82.1c-0.4,0-0.8,0-1.2-0.1c-2.6-0.4-5-1.4-7.1-3c-1.5-1.1-2.4-1.9-2.4-2.4c0-0.2,0-0.3,0.1-0.4
	c0.4-0.6,1-0.2,3.4,1c1.9,1.1,4.1,1.9,6.3,2.2c2.8,0.5,5.6-0.9,6.9-3.4c0.2-0.4,0.5-0.8,0.9-0.7c0.2,0.1,0.4,0.2,0.5,0.4
	c0.2,0.6,0,1.9-1.1,3.3C257.5,81,255.2,82,252.8,82.1z M244.8,77.9l0.3,0.2l0,0c1.9,1.5,4.2,2.5,6.6,2.8c2.5,0.4,5-0.6,6.6-2.5
	c0.1-0.1,0.2-0.2,0.3-0.4l-0.3,0.3c-1.8,1.6-4.1,2.4-6.5,2c-2.3-0.4-4.6-1.2-6.6-2.4L244.8,77.9z"/>
<path class="st1" d="M208.1,75.8c-1.6,1.5-3.6,2.5-5.7,2.8c-2.3,0.3-4.6-0.8-5.9-2.7c-1.1-1.7-1-2.9-0.8-3s0.4,1.1,1.5,2.3
	c1.3,1.5,3.2,2.2,5.1,1.9c1.9-0.3,3.8-1.1,5.4-2.1c1.3-0.8,2.2-1.3,2.3-1.2S209.3,74.8,208.1,75.8z"/>
<path class="st1" d="M201.5,79.2c-2.2-0.1-4.2-1.2-5.4-3c-0.8-0.9-1.1-2.1-0.9-3.3c0.1-0.2,0.2-0.3,0.4-0.4c0.4-0.1,0.6,0.3,0.8,0.7
	c0.3,0.6,0.7,1.2,1.1,1.7c1.2,1.4,2.9,2,4.7,1.8c1.9-0.3,3.6-1.1,5.2-2.1c1.8-1.1,2.2-1.3,2.6-1.2c0.1,0,0.3,0.1,0.3,0.3
	c0.1,0.2,0.4,0.6-1.9,2.6c-1.7,1.5-3.7,2.6-5.9,2.9C202.1,79.2,201.8,79.2,201.5,79.2z M196.6,75.4l0.2,0.3c1.2,1.8,3.3,2.8,5.5,2.5
	c2.1-0.3,4-1.3,5.5-2.7l0,0l0.5-0.4l-0.4,0.3c-1.7,1.1-3.6,1.9-5.5,2.3c-2.1,0.3-4.2-0.5-5.6-2.1L196.6,75.4z"/>
<path class="st5" d="M260.6,134.1c-0.3-1.8-1.9-3.1-3.8-2.9c-1.5,0.2-2.6,1.3-2.9,2.8c-1.2,2.5-1.7,5.2-1.6,8c0,0.4,0,0.9,0,1.4
	l-0.1,0.1c-0.2,0.2-0.4,0.5-0.6,0.7c-0.3,0.5-0.5,1.1-0.5,1.8v0.3c0,0.8,0.3,1.5,0.7,2.1l-0.1,0.3c-0.3,0.6-0.7,1.2-1.1,1.8
	c-1.1,0.8-1.7,2.1-1.4,3.5c-0.1,0.7-0.1,1.3-0.1,2.1v0.1c-0.5,1-0.6,2.2-0.2,3.3c-0.1,0.5-0.1,1.1-0.2,1.6c-0.3-0.1-0.7-0.1-1-0.1
	l-0.9,0.1c-0.6,0.2-1.1,0.5-1.6,0.9L245,162c-0.3,0.3-0.6,0.7-0.7,1.1c-0.2,0.4-0.3,0.9-0.3,1.4c0,0.2,0,0.4,0.1,0.6H244l-0.9,0.1
	c-0.6,0.2-1.1,0.5-1.6,0.9l-0.2,0.3c-0.3,0.3-0.6,0.6-0.7,1.1c-0.9,0.1-1.7,0.5-2.3,1.2c-0.4,0.1-0.8,0.3-1.2,0.5
	c0.1-0.3,0.2-0.7,0.2-1c-0.1-0.3-0.1-0.6-0.1-0.9c-0.2-0.6-0.5-1.1-0.9-1.5l-0.7-0.6c-0.5-0.3-1.1-0.5-1.8-0.5H233
	c-0.7,0-1.4,0.2-2,0.6c-0.6-1-1.7-1.7-2.9-1.6c-1.7-0.1-3.2,1.3-3.3,3l-0.2-0.1l-0.1-0.1l-0.7-0.6c-0.5-0.3-1.1-0.5-1.8-0.5h-0.2
	c-0.5,0-0.9,0.1-1.4,0.3c-0.4,0.1-0.8,0.4-1.1,0.7l-0.1,0.1h-0.1c-0.4-1.5-1.7-2.5-3.2-2.4c-0.7,0-1.4,0.2-2,0.6l-0.5-0.4
	c-0.5-0.3-1.1-0.5-1.8-0.5h-0.2c-0.5,0-0.9,0.1-1.4,0.3c-0.4,0.1-0.8,0.4-1.1,0.7l-0.1,0.1c-0.6-0.7-1.6-1.2-2.6-1.1
	c-0.6,0-1.3,0.2-1.8,0.5c-0.2-0.3-0.3-0.5-0.6-0.8l-0.7-0.6c-0.5-0.3-1.1-0.5-1.8-0.5h-0.5c-0.5,0-0.9,0.1-1.4,0.3l0,0
	c-0.2,0-0.4-0.1-0.6-0.1h-0.3c-0.1,0-0.3,0-0.4,0c-0.1-0.2-0.3-0.4-0.4-0.6l-0.3-0.2c-0.3-0.3-0.7-0.6-1.1-0.7
	c-1.3-0.5-2.8-0.2-3.8,0.7l-0.5,0.7v0.1l-0.7,0.1l-0.1,0.1c-0.6-0.9-1.7-1.5-2.8-1.4c-0.1,0-0.2,0-0.3,0c-0.1-0.2-0.1-0.5-0.2-0.8
	c-0.1-0.4-0.3-0.9-0.6-1.2c-0.6-0.8-1.6-1.3-2.7-1.4c0-1.6-1.1-3-2.6-3.3c1.1-1.7,0.6-3.9-1.1-5c0,0,0,0,0,0
	c-1.2-0.8-1.3-3.4-1.4-5.4l0.2-0.2c0.3-0.5,0.5-1.1,0.5-1.8V142c0-0.8-0.3-1.6-0.8-2.2c1.1-2,0.2-5.1-2.6-5.3
	c-1.9-3.9-7.9-0.4-6,3.6c1.4,3.1,1.6,6.6,2.1,9.9c-0.3,1.3,0.1,2.6,1,3.6c0.1,0.2,0.2,0.5,0.3,0.7c-0.2,0.4-0.2,0.8-0.2,1.3v0.6
	c-1.2,2.3-1.5,4.9,0.1,7.1c0,0.5,0.1,1,0.1,1.5c-1.6,1.3-1.8,3.7-0.5,5.3c0,0.1,0.1,0.1,0.1,0.2c-0.4,0.8-0.6,1.8-0.3,2.7l-0.1,0.1
	c-0.3,0.5-0.5,1.1-0.5,1.8v0.3c0,0.5,0.1,0.9,0.3,1.3c0.1,0.4,0.4,0.8,0.7,1.1c0.1,0.1,0.3,0.3,0.4,0.4c-0.8,1.3-0.7,3,0.1,4.3
	c-0.3,0.5-0.4,1-0.4,1.6c0.1,0.8,0.2,1.5,0.2,2.3c0,0.9,0.4,1.8,1,2.5c0.5,0.5,1.2,0.9,1.9,1c0,0.2-0.1,0.4-0.1,0.6v0.3
	c0,0.5,0.1,0.9,0.3,1.3c0.1,0.2,0.1,0.3,0.2,0.4c-0.6,1.8,0.4,3.7,2.2,4.3c0.4,0.1,0.7,0.2,1.1,0.2c0.1,0,0.3,0,0.4,0l-0.1,0.1
	c-0.3,0.5-0.5,1.1-0.5,1.8l0.1,0.9c0.2,0.6,0.5,1.1,0.9,1.5l0.2,0.3c0.3,0.3,0.7,0.6,1.1,0.7c0.4,0.2,0.9,0.3,1.4,0.3
	c0.3,0,0.6,0,0.8-0.1c0.3,0.1,0.6,0.1,0.9,0.1l0.2,0.1c-0.6,0.9-0.7,2.1-0.2,3.1c0.1,0.4,0.4,0.8,0.7,1.1l0.7,0.5
	c0.5,0.3,1.1,0.5,1.8,0.5l0.9-0.1c0.5-0.1,1-0.4,1.3-0.7c0.2,0,0.4,0.1,0.5,0.1l0,0c0.4,0.9,1,1.7,1.7,2.3c0.7,1.7,2.7,2.5,4.4,1.8
	c0.7-0.3,1.2-0.7,1.6-1.3l0.3-0.2c0.7,0.3,1.4,0.5,2.1,0.6c-0.1,1.8,1.4,3.3,3.2,3.4c0.1,0,0.1,0,0.2,0c0.2,0,0.4,0,0.6,0
	c0.6,1.3,1.8,2.1,3.2,2.2c2,0.2,4.1,0.3,6.1,0.2c1.3-0.1,2.4-0.8,3.1-1.9c0.6,1.2,1.8,1.9,3.1,1.9h2.3c1.9,0,3.5-1.6,3.5-3.5
	c0-0.2,0-0.4-0.1-0.7c0.2,0,0.4-0.1,0.6-0.1c0.4,0.6,1,0.9,1.7,1.1c3.3,0.7,6.7,0.1,9.6-1.7c1.1-0.7,1.8-2,1.6-3.3
	c0.3-0.3,0.6-0.7,0.9-1.1c0.6,0,1.1-0.2,1.6-0.5l1-0.8c0.4-0.2,0.7-0.5,1-0.9c0.3-0.3,0.5-0.7,0.6-1.2c0-0.1,0-0.2,0.1-0.3
	c0.2,0,0.4,0.1,0.7,0.1c1.7,0.1,3.1-1.2,3.3-2.8l0,0c2.9,0,3.9-2.9,3.1-5c1-1,1.9-2.2,2.6-3.4c0.5-1.2,0.7-2.5,0.4-3.7
	c0.3-0.2,0.6-0.3,0.8-0.6l0.5-0.7c0.3-0.5,0.5-1.1,0.5-1.8v-0.2c0-0.5-0.1-0.9-0.3-1.4c-0.1-0.4-0.3-0.7-0.6-0.9l0.1-0.1l0.5-0.7
	c0.3-0.5,0.5-1.1,0.5-1.8v-0.5c0-0.5-0.1-0.9-0.3-1.4c-0.1-0.2-0.2-0.5-0.3-0.7c1.2-1.3,1.4-3.2,0.4-4.6c0.1-0.2,0.1-0.4,0.2-0.6
	c0.2-0.7,0.2-1.5,0.1-2.2c1.1-1.7,1.5-3.8,1-5.8c0.2-0.5,0.4-1,0.4-1.6c0.2-1.7-1-2.4-1.2-3.8c-0.1-0.7,0.9-2.2,1-3.1
	c0.3-1.8-0.1-3-0.2-4.8c-0.2-2.2,0.4-2.9,1.2-5c0.7-1.6,0.8-3.3,0.4-5C261.6,137.3,261.5,135.5,260.6,134.1z"/>
<path class="st1" d="M213.5,214.8c-1.4,0-2.7-0.1-4.1-0.2c-1.5-0.1-2.8-0.9-3.7-2.1l0,0c-2.1,0.1-4-1.5-4.3-3.6
	c-0.3-0.1-0.7-0.2-1-0.3c-1.6,1.9-4.3,2.1-6.2,0.6c-0.5-0.4-0.8-0.9-1.1-1.4c-0.6-0.5-1.1-1.1-1.4-1.8c-0.3,0.2-0.7,0.4-1.1,0.5
	h-0.1l-0.9,0.1h-0.1c-0.8,0-1.6-0.2-2.3-0.6l-0.1-0.1l-0.7-0.6c-0.5-0.4-0.8-0.9-1-1.5c-0.3-0.5-0.4-1.2-0.4-1.8
	c0-0.3,0-0.6,0.1-0.9c-0.2,0-0.3,0-0.5,0c-0.6,0-1.2-0.1-1.7-0.4c-0.6-0.2-1.1-0.5-1.5-1l-0.2-0.2c-0.5-0.6-0.9-1.2-1.1-2
	c0,0,0-0.1,0-0.1l-0.1-0.9c0-0.1,0-0.1,0-0.1c0-0.3,0-0.7,0.1-1c-0.9-0.2-1.8-0.7-2.4-1.5c-0.8-1.1-1.1-2.4-0.9-3.8
	c0-0.1-0.1-0.1-0.1-0.2c-0.3-0.6-0.4-1.2-0.4-1.8V188c-1.7-0.6-2.9-2.2-3-4l-0.2-2.3c-0.1-0.6,0-1.1,0.2-1.6
	c-0.7-1.3-0.8-2.7-0.2-4.1c-0.4-0.4-0.7-0.8-0.8-1.4c-0.3-0.5-0.4-1.2-0.4-1.8v-0.2c0-0.7,0.2-1.4,0.5-2c-0.1-0.8,0-1.6,0.2-2.4
	c-0.6-0.9-0.9-2-0.8-3.1c0.1-1.1,0.5-2.1,1.3-2.9c0-0.2,0-0.5-0.1-0.8c-1.4-2.1-1.4-4.8-0.1-7.6v-0.3c0-0.4,0.1-0.8,0.2-1.2
	c0,0-0.1-0.1-0.1-0.2c-1-1.1-1.4-2.7-1.1-4.1c-0.1-0.9-0.3-1.7-0.4-2.6c-0.2-2.4-0.8-4.7-1.6-6.9c-1.1-2.4-0.1-5.2,2.3-6.3
	c0,0,0.1,0,0.1,0c1.8-1,4.1-0.4,5.2,1.3c1.2,0.2,2.3,1,2.9,2.1c0.6,1.2,0.7,2.7,0.3,4c0.1,0.2,0.2,0.4,0.3,0.6
	c0.3,0.6,0.4,1.2,0.4,1.8v0.5c0,0.8-0.2,1.6-0.6,2.3c0,0,0,0.1-0.1,0.1c0.1,1.4,0.2,3.7,1,4.2c1.1,0.7,1.8,1.9,2.1,3.2
	c0.1,0.7,0.1,1.4-0.1,2.1c1.1,0.6,1.9,1.7,2.1,2.9c0.5,0.1,0.9,0.3,1.3,0.5c0.5,0.3,0.9,0.7,1.2,1.2c0.4,0.4,0.7,1,0.8,1.6
	c1,0.1,1.9,0.5,2.6,1.2l0.3-0.4c0.4-0.5,0.9-0.8,1.5-1c0.5-0.3,1.2-0.4,1.8-0.4c0.6,0,1.2,0.1,1.7,0.4c0.6,0.2,1.1,0.6,1.5,1
	l0.2,0.2l0.2,0.2h0.2h0.5c0.5-0.2,1-0.3,1.6-0.3h0.5c0.8,0,1.6,0.2,2.3,0.6l0.1,0.1l0.7,0.6l0.1,0.1l0.2,0.2c0.5-0.2,1-0.2,1.5-0.2
	c0.9,0,1.8,0.3,2.6,0.8c0.8-0.5,1.7-0.7,2.6-0.8h0.2c0.8,0,1.6,0.2,2.3,0.6l0.1,0.1c0.6-0.3,1.3-0.4,2-0.4c1.5,0,2.8,0.7,3.6,1.9
	c0.2-0.1,0.3-0.2,0.5-0.2c0.5-0.3,1.2-0.4,1.8-0.4h0.2c0.8,0,1.6,0.2,2.2,0.6c0.7-1.5,2.2-2.4,3.9-2.4c1.2,0,2.4,0.5,3.2,1.4
	c0.5-0.2,1.1-0.4,1.7-0.3h0.7c0.8,0,1.6,0.2,2.3,0.6c0,0,0.1,0,0.1,0.1l0.7,0.6l0.1,0.1c0.6,0.6,0.9,1.2,1.1,2c0,0,0,0.1,0,0.1v0.3
	c0.5-0.4,1.1-0.7,1.7-0.8c0.2-0.3,0.4-0.6,0.7-0.9l0.2-0.2c0.6-0.6,1.2-0.9,2-1.1h0.1h0.1c0.1-1.1,0.6-2.1,1.4-2.9l0.2-0.2
	c0.6-0.6,1.2-0.9,2-1.1c0,0,0.1,0,0.1,0l0.9-0.1h0.3c0-0.1,0-0.2,0.1-0.4c-0.4-1.2-0.3-2.5,0.2-3.7c0-0.2,0-0.4,0-0.7
	c0-0.4,0-0.9,0-1.3c-0.2-1.6,0.5-3.2,1.7-4.2c0.3-0.4,0.5-0.8,0.8-1.2c-0.1-0.2-0.2-0.3-0.2-0.5c-0.3-0.6-0.4-1.2-0.4-1.8V146
	c0-0.8,0.2-1.6,0.6-2.3c0,0,0.1-0.1,0.1-0.1l0.5-0.6c0-0.3,0-0.6,0-1c-0.1-2.9,0.4-5.7,1.6-8.3c0.5-2.4,2.8-3.9,5.1-3.4
	c1.8,0.4,3.1,1.8,3.4,3.5c0.8,1.6,1,3.4,0.4,5.1c0.4,1.8,0.2,3.6-0.5,5.3l-0.5,1.2c-0.6,1-0.8,2.2-0.7,3.3c0,0.5,0.1,0.9,0.2,1.4
	c0.2,1.2,0.3,2.4,0.1,3.7c-0.1,0.5-0.3,1.1-0.6,1.6c-0.2,0.4-0.3,0.8-0.5,1.2c0.1,0.4,0.2,0.8,0.5,1.2c0.5,0.8,0.8,1.8,0.7,2.8
	c-0.1,0.5-0.2,1.1-0.4,1.6c0.4,2,0.1,4.2-1,5.9c0.1,0.8,0,1.5-0.1,2.2c0,0.1,0,0.2-0.1,0.2c0.8,1.6,0.6,3.4-0.3,4.8
	c0,0.1,0,0.1,0.1,0.2c0.3,0.5,0.4,1.2,0.4,1.8v0.5c0,0.8-0.2,1.6-0.6,2.3l-0.1,0.1l-0.2,0.2c0.1,0.2,0.2,0.3,0.2,0.5
	c0.3,0.6,0.4,1.2,0.4,1.8v0.2c0,0.8-0.2,1.6-0.6,2.3c0,0,0,0.1-0.1,0.1l-0.5,0.7l-0.1,0.1l-0.4,0.4c0.1,1.2-0.1,2.5-0.6,3.6
	c-0.6,1.2-1.4,2.3-2.3,3.3c0.4,1.3,0.1,2.8-0.6,3.9c-0.6,1-1.7,1.6-2.8,1.8c-0.6,1.7-2.2,2.9-4,2.9c-0.2,0.4-0.4,0.7-0.6,1
	c-0.3,0.4-0.7,0.8-1.1,1.1l-1,0.7l-0.1,0.1c-0.5,0.3-1,0.5-1.6,0.6c-0.1,0.2-0.3,0.3-0.4,0.5c0,1.5-0.8,3-2.1,3.8
	c-3.1,1.9-6.8,2.6-10.3,1.8c-0.4-0.1-0.8-0.2-1.1-0.4c-0.2,0.8-0.6,1.6-1.1,2.2c-0.9,0.9-2,1.4-3.3,1.4h-2.3c-1.2,0-2.3-0.5-3.1-1.3
	c-0.8,0.7-1.9,1.2-3,1.2C215,214.7,214.2,214.8,213.5,214.8z M206.3,210.4c0.4,0,0.8,0.2,0.9,0.6c0.5,0.9,1.4,1.5,2.4,1.6
	c2,0.2,4,0.3,6,0.1c0.9,0,1.8-0.6,2.2-1.4c0.2-0.3,0.5-0.5,0.9-0.5l0,0c0.4,0,0.7,0.2,0.9,0.5c0.4,0.8,1.2,1.4,2.2,1.4h2.3
	c0.7,0,1.4-0.3,1.8-0.8c0.4-0.4,0.7-1,0.7-1.6c0-0.2,0-0.3-0.1-0.5c-0.1-0.3,0-0.6,0.2-0.8c0.2-0.2,0.4-0.4,0.7-0.4l0.4-0.1h0.2
	c0.4-0.1,0.8,0.1,1,0.4c0.3,0.4,0.7,0.6,1.1,0.7c3,0.7,6.2,0.1,8.8-1.5c0.8-0.5,1.3-1.4,1.1-2.3c0-0.3,0.1-0.6,0.3-0.8
	c0.3-0.3,0.6-0.6,0.8-1c0.2-0.2,0.5-0.4,0.8-0.4c0.4,0,0.8-0.1,1.1-0.3l1-0.7l0.1-0.1c0.2-0.1,0.5-0.3,0.6-0.6
	c0-0.1,0.1-0.1,0.1-0.1c0.2-0.2,0.3-0.5,0.4-0.7c0-0.1,0-0.2,0.1-0.3c0.1-0.5,0.6-0.9,1.1-0.8c0.2,0,0.3,0.1,0.5,0.1
	c1.2,0,2.2-0.8,2.3-2c0.1-0.5,0.5-0.8,1-0.8c0.8,0,1.5-0.4,1.9-1c0.5-0.8,0.6-1.8,0.2-2.7c-0.2-0.4-0.1-0.8,0.2-1.1
	c1-0.9,1.8-2,2.4-3.1c0.4-1,0.6-2.1,0.3-3.1c-0.1-0.4,0.1-0.9,0.5-1.1c0.2-0.1,0.4-0.2,0.5-0.4l0.5-0.6c0.2-0.4,0.3-0.8,0.3-1.2
	v-0.2c0-0.3,0-0.6-0.2-0.9c0-0.1-0.1-0.1-0.1-0.2c-0.1-0.2-0.2-0.4-0.4-0.6c-0.4-0.4-0.3-1,0.1-1.4l0.1-0.1l0.4-0.6
	c0.2-0.4,0.3-0.8,0.3-1.2v-0.5c0-0.3,0-0.6-0.2-0.9c0,0-0.1-0.1-0.1-0.1c0-0.1-0.1-0.3-0.2-0.4c-0.3-0.4-0.2-0.9,0.1-1.3
	c0.8-0.9,1-2.3,0.3-3.4c-0.2-0.3-0.2-0.6-0.1-0.9c0.1-0.1,0.1-0.3,0.1-0.4c0.2-0.6,0.2-1.2,0.1-1.8c0-0.2,0-0.5,0.1-0.7
	c1-1.5,1.3-3.3,0.8-5c-0.1-0.2,0-0.4,0.1-0.6c0.2-0.4,0.3-0.9,0.4-1.3c0-0.6-0.1-1.2-0.5-1.7c-0.9-1.2-0.9-2.9-0.1-4.2
	c0.2-0.4,0.3-0.7,0.4-1.1c0.1-1,0.1-2-0.1-3.1c-0.1-0.5-0.1-0.9-0.2-1.5c-0.2-1.5,0.1-3,0.8-4.3c0.1-0.3,0.3-0.7,0.5-1.1
	c0.6-1.3,0.7-2.9,0.3-4.3c-0.1-0.2-0.1-0.5,0-0.7c0.5-1.3,0.4-2.7-0.3-3.9c-0.1-0.1-0.1-0.2-0.1-0.4c-0.1-1.3-1.3-2.2-2.6-2.1
	c-1.1,0.1-1.9,0.9-2.1,2c0,0.1,0,0.2-0.1,0.3c-1.1,2.3-1.6,4.9-1.5,7.5c0,0.4,0,0.9,0,1.3c0,0.3-0.1,0.6-0.3,0.8l-0.1,0.1l-0.4,0.6
	c-0.2,0.4-0.3,0.8-0.3,1.2v0.2c0,0.3,0,0.6,0.2,0.9c0,0,0.1,0.1,0.1,0.2c0.1,0.2,0.2,0.3,0.3,0.5c0.2,0.3,0.3,0.6,0.2,0.9
	c-0.1,0.1-0.1,0.2-0.1,0.3c-0.3,0.7-0.7,1.3-1.1,1.9c-0.1,0.1-0.2,0.2-0.3,0.3c-0.8,0.6-1.2,1.5-1,2.5c0,0.1,0,0.1,0,0.2
	c0,0.4-0.1,0.8-0.1,1.2c0,0.2,0,0.5,0,0.8c0,0.2,0,0.4-0.1,0.6c-0.4,0.8-0.4,1.6-0.1,2.4c0.1,0.1,0.1,0.3,0.1,0.5
	c-0.1,0.6-0.1,1.1-0.3,1.7c-0.1,0.3-0.2,0.5-0.5,0.7c-0.2,0.1-0.5,0.2-0.8,0.1c-0.2-0.1-0.4-0.1-0.6-0.1l-0.8,0.1
	c-0.4,0.1-0.7,0.3-1,0.6l-0.2,0.2c-0.2,0.2-0.4,0.4-0.5,0.7c0,0.1,0,0.1-0.1,0.2c-0.1,0.3-0.2,0.5-0.2,0.8c0,0.2,0,0.3,0,0.5
	c0.1,0.3,0,0.6-0.2,0.8c-0.2,0.2-0.5,0.4-0.8,0.3l0,0l-0.8,0.1c-0.4,0.1-0.8,0.3-1.1,0.6l-0.2,0.2c-0.2,0.2-0.4,0.4-0.5,0.7
	c-0.1,0.4-0.5,0.6-0.9,0.7c-0.6,0-1.2,0.3-1.6,0.8c-0.1,0.1-0.3,0.3-0.4,0.3c-0.4,0.1-0.8,0.3-1.1,0.5c-0.4,0.2-0.8,0.1-1.1-0.2
	c-0.3-0.3-0.4-0.7-0.3-1.1c0.1-0.2,0.1-0.4,0.1-0.6l-0.1-0.8c-0.1-0.4-0.3-0.7-0.6-1l-0.6-0.5c-0.4-0.2-0.8-0.3-1.2-0.3H233
	c-0.3,0-0.6,0-0.9,0.2l-0.2,0.1c-0.1,0-0.3,0.1-0.4,0.2c-0.2,0.1-0.5,0.2-0.8,0.1c-0.3-0.1-0.5-0.2-0.6-0.5c-0.4-0.7-1.2-1.2-2-1.1
	c-1.2,0-2.3,0.9-2.4,2.1c0,0.3-0.2,0.5-0.4,0.7c-0.2,0.2-0.5,0.2-0.8,0.1h-0.1c-0.2,0-0.5-0.2-0.6-0.3l0,0l-0.6-0.4
	c-0.4-0.2-0.8-0.3-1.2-0.3h-0.2c-0.3,0-0.6,0-0.9,0.2c0,0-0.1,0-0.1,0.1c-0.3,0.1-0.5,0.2-0.7,0.5l-0.1,0.1
	c-0.2,0.2-0.5,0.3-0.8,0.3h-0.1c-0.4,0-0.8-0.3-0.9-0.7c-0.2-1-1.2-1.7-2.3-1.7c-0.5,0-1,0.1-1.4,0.4c-0.4,0.3-0.9,0.3-1.2,0
	l-0.5-0.4c-0.4-0.2-0.8-0.3-1.2-0.3h-0.2c-0.3,0-0.6,0-0.9,0.2l-0.1,0.1c-0.3,0.1-0.5,0.2-0.7,0.5c0,0-0.1,0.1-0.1,0.1
	c-0.2,0.2-0.5,0.3-0.8,0.3c-0.3,0-0.5-0.1-0.7-0.4c-0.4-0.5-1.1-0.8-1.8-0.8c-0.5,0-0.9,0.1-1.3,0.4c-0.2,0.1-0.5,0.2-0.8,0.1
	c-0.3-0.1-0.5-0.2-0.6-0.5c-0.1-0.2-0.2-0.3-0.4-0.5l-0.6-0.4c-0.4-0.2-0.8-0.3-1.2-0.3h-0.5c-0.3,0-0.6,0-0.9,0.2H200l-0.2,0.1
	c-0.2,0-0.3,0-0.5,0c-0.2,0-0.3,0-0.5,0h-0.4h-0.1c-0.4,0-0.7-0.1-0.9-0.4c-0.1-0.1-0.2-0.3-0.3-0.4l-0.2-0.2
	c-0.2-0.2-0.4-0.4-0.7-0.5c-0.1,0-0.1,0-0.2-0.1c-0.3-0.2-0.6-0.2-0.9-0.2c-0.3,0-0.6,0-0.9,0.2l-0.1,0.1c-0.3,0.1-0.5,0.2-0.7,0.5
	l-0.5,0.6c-0.2,0.3-0.4,0.4-0.7,0.5l-0.5,0.1h-0.1c-0.4,0.1-0.9,0-1.1-0.4c-0.4-0.7-1.2-1-1.9-1h-0.2c-0.5,0-1-0.3-1.1-0.8l-0.2-0.8
	c-0.1-0.3-0.2-0.5-0.4-0.7c0,0-0.1-0.1-0.1-0.1c-0.1-0.2-0.4-0.4-0.6-0.6c-0.3-0.2-0.6-0.3-0.9-0.3h-0.2h-0.2c-0.5,0-0.9-0.5-0.9-1
	c0-1.1-0.7-2.1-1.8-2.3c-0.3-0.1-0.6-0.3-0.7-0.6c-0.1-0.3-0.1-0.7,0.1-1c0.4-0.5,0.5-1.1,0.4-1.7c-0.1-0.8-0.6-1.4-1.2-1.9
	c-1.5-1-1.8-3.5-1.8-6.2c0-0.2,0.1-0.5,0.2-0.6l0.1-0.2c0.2-0.4,0.3-0.8,0.3-1.2V142c0-0.3,0-0.6-0.2-0.9c0-0.1-0.1-0.1-0.1-0.2
	c-0.1-0.2-0.2-0.4-0.3-0.6c-0.3-0.3-0.3-0.8-0.1-1.1c0.4-0.8,0.4-1.8,0-2.7c-0.4-0.7-1-1.1-1.8-1.1c-0.3,0-0.7-0.2-0.8-0.6
	c-0.5-1-1.7-1.4-2.7-0.9c0,0,0,0-0.1,0c-1.4,0.6-2,2.2-1.5,3.6c0,0,0,0,0,0.1c1,2.4,1.6,4.9,1.8,7.5c0.1,0.9,0.2,1.8,0.4,2.7
	c0,0.1,0,0.3,0,0.4c-0.2,0.9,0,1.9,0.7,2.6c0.1,0.1,0.2,0.2,0.2,0.4c0.1,0.2,0.2,0.4,0.3,0.6c0.1,0.3,0.1,0.5,0,0.8
	c-0.1,0.3-0.2,0.6-0.2,0.9v0.6c0,0.2,0,0.3-0.1,0.5c-0.8,1.6-1.5,4,0,6c0.1,0.2,0.2,0.4,0.2,0.6c0,0.4,0.1,0.9,0.1,1.3
	c0.1,0.4-0.1,0.8-0.4,1c-0.6,0.5-0.9,1.1-0.9,1.8c-0.1,0.8,0.2,1.5,0.7,2.1c0.3,0.3,0.4,0.8,0.2,1.1c-0.3,0.6-0.4,1.3-0.3,2
	c0.1,0.3,0,0.6-0.2,0.8l0,0c-0.2,0.4-0.3,0.8-0.3,1.2v0.3c0,0.3,0,0.6,0.2,0.9l0.1,0.1c0.1,0.3,0.2,0.5,0.5,0.7
	c0.1,0.1,0.2,0.2,0.3,0.3c0.4,0.3,0.6,0.9,0.3,1.4c-0.6,1-0.5,2.2,0.1,3.1c0.2,0.3,0.3,0.7,0.1,1.1c-0.2,0.3-0.3,0.6-0.3,1l0.2,2.3
	c0,1.3,0.9,2.4,2.1,2.6c0.3,0,0.5,0.2,0.6,0.4c0.2,0.2,0.2,0.5,0.2,0.8c0,0.2,0,0.3-0.1,0.5v0.2c0,0.3,0,0.6,0.2,0.9l0.1,0.1
	c0,0.1,0.1,0.2,0.1,0.3c0.1,0.2,0.2,0.5,0.1,0.8c-0.2,0.8-0.1,1.7,0.4,2.4c0.4,0.6,1.1,0.9,1.8,0.8h0.2c0.4,0,0.8,0.1,1,0.5
	c0.2,0.3,0.2,0.8,0,1.1l-0.1,0.1c-0.2,0.4-0.3,0.8-0.3,1.2l0.1,0.8c0.1,0.4,0.3,0.7,0.6,1l0.2,0.2c0.2,0.2,0.4,0.4,0.7,0.5l0.2,0.1
	c0.3,0.1,0.5,0.2,0.8,0.2c0.2,0,0.4,0,0.6-0.1c0.1,0,0.3,0,0.4,0c0.2,0,0.4,0,0.6,0c0.3,0,0.6,0.1,0.8,0.3l0.1,0.1
	c0.3,0.3,0.4,0.8,0.2,1.2c0,0.1-0.1,0.2-0.1,0.3l-0.1,0.1c-0.1,0.3-0.2,0.6-0.2,0.9c0,0.3,0,0.6,0.2,0.9c0,0.1,0,0.1,0.1,0.2
	c0.1,0.3,0.2,0.5,0.5,0.7l0.6,0.4c0.4,0.2,0.7,0.3,1.1,0.3l0.8-0.1c0.3-0.1,0.6-0.3,0.9-0.5c0.2-0.2,0.5-0.3,0.9-0.2l0.4,0.1
	c0.1,0,0.2,0,0.3,0.1c0.3,0.1,0.5,0.3,0.6,0.6c0.3,0.8,0.8,1.4,1.4,1.9c0.1,0.1,0.2,0.2,0.3,0.4c0.5,1.2,1.9,1.7,3.1,1.2
	c0.4-0.2,0.8-0.5,1-0.9c0.1-0.2,0.2-0.3,0.4-0.4l0.2-0.1h0.1c0.3-0.2,0.6-0.2,0.9-0.1c0.6,0.3,1.3,0.5,1.9,0.6
	c0.5,0.1,0.8,0.5,0.8,1c-0.1,1.3,0.9,2.3,2.2,2.4c0.1,0,0.1,0,0.2,0C205.9,210.4,206.1,210.4,206.3,210.4L206.3,210.4z M257.7,179.5
	L257.7,179.5z M191.2,162.9L191.2,162.9z M249,155.9L249,155.9h0.3H249z"/>
<path class="st1" d="M188,197.9c-0.9-4.1-0.5-8.5,1.2-12.4c0.3-0.8,0.7-1.6,1.3-2.3c-1.1,2.7-1.8,5.5-2.2,8.4
	c-0.2,2.9,0,5.8,0.6,8.6C188.4,199.6,188.1,198.8,188,197.9z"/>
<path class="st1" d="M184.6,192.4c-0.4-1.7-0.5-3.4-0.1-5.1c0.4-2.4,1.3-4.7,2.6-6.7c0.2,0.1-1.2,3-2,6.8c-0.4,1.6-0.5,3.3-0.2,4.9
	c0.2,0.6,0.4,1.3,0.7,1.9C185.1,193.7,184.7,193.1,184.6,192.4z"/>
<path class="st1" d="M181.1,188.3c-1.1-3.5-0.8-7.3,0.8-10.6c0.3-0.7,0.7-1.3,1.2-1.9c-1,2.3-1.7,4.7-2,7.1c-0.1,2.5,0.2,5,0.9,7.4
	C181.6,189.8,181.3,189.1,181.1,188.3z"/>
<path class="st1" d="M241.8,198.1c1.1-1.8,1.9-3.7,2.5-5.8c0.5-2,0.7-4.1,0.6-6.2c0-0.9-0.1-1.7-0.4-2.6c0.1,2.9-0.2,5.8-0.8,8.6
	c-0.8,2.8-2,5.5-3.5,8C240.8,199.6,241.4,198.9,241.8,198.1z"/>
<path class="st1" d="M249.1,192.2c2.2-2.9,3.2-6.6,2.9-10.2c0-0.8-0.2-1.5-0.5-2.2c0.2,2.5,0,5-0.6,7.4c-0.8,2.4-1.9,4.6-3.3,6.6
	C248.2,193.4,248.7,192.9,249.1,192.2z"/>
<path class="st1" d="M221.7,171.3c-0.9-1.4-2-2.2-1.9-2.4c2,0.8,3.3,2.8,3.3,5C222.9,174,222.6,172.8,221.7,171.3z"/>
<path class="st1" d="M218.6,172c-0.3-1.4-1-2.3-0.9-2.4c0.9,0.5,1.4,1.3,1.5,2.3c0.4,1.6-0.2,2.8-0.4,2.8S218.9,173.4,218.6,172z"/>
<path class="st1" d="M214.4,172.4c-0.1-1.4-0.6-2.4-0.4-2.5c0.7,0.6,1.1,1.5,1.1,2.4c0.2,1.5-0.4,2.7-0.6,2.6
	S214.5,173.8,214.4,172.4z"/>
<path class="st1" d="M210.2,171.3c0-0.9-0.1-1.6,0.1-1.6s0.5,0.7,0.5,1.6s-0.2,1.6-0.4,1.6S210.2,172.2,210.2,171.3z"/>
<path class="st1" d="M207.9,170.3c0.7-1.2,1.6-1.7,1.8-1.5s-0.6,0.8-1.2,1.9s-0.8,2-1,1.9S207.2,171.4,207.9,170.3z"/>
<path class="st1" d="M204.6,168.6c0.8-0.8,2-1.1,3.1-1c0,0.2-1.3,0.5-2.7,1.5s-2.1,2.2-2.2,2.1C203,170.1,203.7,169.1,204.6,168.6z"
	/>
<path class="st4" d="M220.7,187.8c-0.5,1.4-3.2,4.8-8.5,3.8s-7.3-5.1-6.4-8.1c0.4-1.4,3.1-2,8.4-1.1S221.2,186.4,220.7,187.8z"/>
<g id="Caminho_6549">
	<path class="st1" d="M205.3,181.2c0.7-0.2,2.1,3.5,7.1,5.1s9.6,0,9.9,0.5s-0.8,1-2.9,1.6c-2.7,0.7-5.5,0.6-8.2-0.2
		c-2.4-0.7-4.4-2.2-5.6-4.3C204.8,182.3,205,181.3,205.3,181.2z"/>
</g>
</svg>
