<?xml version="1.0" encoding="utf-8"?>
<!-- Generator: Adobe Illustrator 25.4.1, SVG Export Plug-In . SVG Version: 6.00 Build 0)  -->
<svg version="1.1" id="Cliente_2" xmlns="http://www.w3.org/2000/svg" xmlns:xlink="http://www.w3.org/1999/xlink" x="0px" y="0px"
	 viewBox="0 0 432 589" style="enable-background:new 0 0 432 589;" xml:space="preserve">
<style type="text/css">
	.st0{fill:#263238;}
	.st1{fill:#59316D;}
	.st2{fill:#FFCCBC;}
	.st3{fill:#FFFFFF;}
	.st4{fill:#FFDEA9;}
	.st5{fill:#C8CACB;}
	.st6{fill:#BBBDBF;}
	.st7{fill:#FFAC90;}
	.st8{fill:#FF9592;}
</style>
<path class="st0" d="M235.5,80c10.2,1.5-42.2-33.3-77,25.2c-13.6,22.9-3.8,74.2-17.9,104.2c-20.9,44.4-52.6,65-14.8,83.2
	c63.3,30.6,177,36.2,186.9,8.2c5.3-14.9,3.7-33,2.4-48.4c-2.4-29.1-20-29.9-27.5-58c-6.8-25.5,3.1-65.7-19.2-100.7
	c-5.1-8.1-12-16.3-22.6-16C242.2,77.8,238.7,78.6,235.5,80z"/>
<path class="st1" d="M252.2,320c-40.8,0-92.5-9.9-126.9-26.5c-10.2-4.9-15.7-10.1-17.5-16.4c-2.9-10,4.2-21.2,13.9-36.6
	c5.7-9.1,12.2-19.4,17.9-31.5c7-14.9,8.1-35.1,9.1-54.6s2-38,8.9-49.6c12.6-21.2,27.8-33,45.2-35.2c14.9-1.9,27.1,4.1,31.6,6.7
	c1.1,0.6,2.1,1.3,3.1,2c2.6-0.8,5.4-1.3,8.1-1.5h0.6c11,0,18,8.8,22.9,16.5c14.7,23.1,15.5,48.1,16.3,70.2c0.4,11.3,0.7,22,3.1,30.8
	c3.4,12.7,8.8,19.6,14,26.4c6.3,8.1,12.2,15.7,13.5,31.8l0,0.7c1.3,15.6,2.7,33.2-2.5,48.1c-1.7,4.9-6.4,9-13.9,12
	C288.2,317.9,271.4,320,252.2,320z M208.7,71c-1.8,0-3.6,0.1-5.5,0.3c-16.8,2-31.6,13.6-43.9,34.3c-6.6,11.2-7.6,29.4-8.6,48.7
	c-1,19.7-2.1,40.1-9.3,55.4c-5.8,12.2-12.3,22.6-18.1,31.7c-9.5,15-16.3,25.9-13.7,35c1.6,5.7,6.9,10.5,16.5,15.2
	c54.5,26.4,140.5,32.8,172.7,19.6c7-2.9,11.3-6.5,12.8-10.9c5.1-14.5,3.7-31.9,2.4-47.2l-0.1-0.7c-1.3-15.5-7-22.9-13.1-30.7
	c-5.4-6.9-10.9-14-14.4-27.1c-2.4-8.9-2.7-19.8-3.1-31.2c-0.7-21.8-1.6-46.6-16-69.2c-5-7.9-11.5-15.9-21.8-15.5
	c-2.8,0.1-5.5,0.7-8.1,1.6c-0.4,0.2-0.9,0-1.1-0.3v-0.1C228.3,74.2,218.6,71.1,208.7,71L208.7,71z M236.4,78.8
	c-0.1,0.1-0.1,0.2-0.1,0.4C236.3,79.1,236.4,79,236.4,78.8L236.4,78.8z"/>
<path class="st2" d="M157.1,303.8c1.5-7.3,1.9-12.6,0.7-19.1c-3.1-16.2-22.3-22.1-31-20.4c-17.6,3.3-22.3,14.7-24,21.8
	c-1,5.3-3.8,16.8-4.8,22.1l-14.1,75.5c-2.4,12.6-4.7,25.2-7,37.8c-2,10.8-5.8,22.1-5.8,33.1c-0.8,10.9,6.5,19.3,17.7,23.1
	c7.8,2.7,18.1-0.5,23.6-6.8c5.1-5.7,5.6-9.3,7.2-15.5c6.7-26.7,12.5-53.7,19.2-80.3c3.6-14.6,8-29.8,11.7-44.7
	C152.6,321.9,155.2,312.7,157.1,303.8z"/>
<path class="st2" d="M119.6,639c-0.3-6.3-2.2-12.4-5.6-17.7c-4.8-7.2-8.6-12.3-8.6-12.3s4.2-42.6,9.8-77.2c1.9-12,3.1-24.1,3.4-36.2
	l0.3-39.3c-0.1-1.8-0.2-3.7-0.5-5.5c-0.9-8.8-11.1-18.6-24.3-18.1c-10.4,0.4-22,7.9-23,20.5l-0.8,29.4
	c-1.6,29.1,8.9,105.8,11.4,126.3c-0.5,1.2-0.7,2.5-0.8,3.8v0.4c0,0-6.4,9.3-4.2,33.2c2.9,30.8,19.4,43.9,29.4,42.3
	c7.9-1.2-4.6-18.9-5-35.2c0.2-1.8,4.8-13.7,5.1-16.3l6,20.4c1.1,1.6,3.1,2.3,5,1.8c2-0.5,3.4-2.3,3.3-4.4L119.6,639z"/>
<path class="st1" d="M104.4,689.7c-3.6,0-7.5-1.5-11.3-4.5c-9.4-7.3-15.8-21.5-17.4-38.9c-2.1-22.1,3.1-31.9,4.2-33.6v-0.1
	c0.1-1.3,0.3-2.6,0.8-3.9c-0.3-2.6-0.8-6.2-1.3-10.3c-3.7-29.4-11.5-90.5-10.1-115.9l0.8-29.8c0.2-7.1,1.9-14.3,3.6-21.4
	c0.8-3.3,1.6-6.8,2.2-10.1L97,307.9c0.5-2.7,1.5-7,2.4-11.1s1.9-8.4,2.4-11c3-12.5,11.4-20,24.8-22.6c9.6-1.8,29.1,4.9,32.2,21.2
	l0,0c1.3,6.9,0.7,12.6-0.7,19.5c-1.2,5.9-2.8,12-4.4,18c-0.8,2.9-1.5,5.8-2.2,8.7c-1.9,7.7-4,15.6-6.1,23.3
	c-1.9,7.1-3.9,14.4-5.6,21.4c-3.3,13.3-6.5,27-9.6,40.2s-6.2,26.8-9.6,40.1l-0.7,2.8l-0.3,37.1c-0.4,12.2-1.5,24.3-3.5,36.3
	c-5.2,32.4-9.3,72.4-9.7,76.8c0.9,1.2,4.3,5.9,8.4,12c3.5,5.4,5.5,11.7,5.8,18.2l0.9,15.9c0.1,2.5-1.6,4.8-4,5.4
	c-2.3,0.6-4.7-0.3-6.1-2.2c-0.1-0.1-0.1-0.2-0.1-0.3l-5-17c-0.6,1.9-1.4,4.1-2.1,6.4c-0.9,2.7-1.9,5.5-2,6.3
	c0.2,7,2.7,14.5,4.7,20.4c2.2,6.6,3.8,11.3,2.2,14c-0.6,1-1.6,1.6-2.8,1.7C105.7,689.7,105.1,689.7,104.4,689.7z M129.7,265
	c-0.9,0-1.9,0.1-2.8,0.2c-12.8,2.4-20.3,9.3-23.2,21c-0.5,2.6-1.4,6.9-2.4,11s-1.9,8.4-2.4,11L77.9,421.6c-0.6,3.4-1.4,6.8-2.2,10.2
	c-1.6,6.9-3.3,14.1-3.5,21v0.4l-0.8,29.4c-1.4,25.2,6.3,86.2,10,115.5c0.6,4.3,1,7.9,1.3,10.6c0,0.2,0,0.3,0,0.5
	c-0.4,1.1-0.7,2.3-0.8,3.5v0.4c0,0.2-0.1,0.4-0.2,0.5c-0.1,0.1-6.2,9.4-4,32.5c1.6,16.9,7.7,30.5,16.6,37.5c3.9,3,8.1,4.5,11.6,3.9
	c0.6,0,1.1-0.3,1.4-0.8c1.1-1.8-0.6-6.9-2.4-12.3c-2.1-6.1-4.7-13.8-4.8-21.1c0-0.1,0-0.1,0-0.2c0.6-2.3,1.3-4.5,2.1-6.8
	c1.2-3.1,2.2-6.3,3-9.5c0.1-0.5,0.4-0.8,0.9-0.9c0.5,0,0.9,0.3,1,0.7l6,20.3c0.9,1.2,2.4,1.7,3.8,1.3c1.5-0.4,2.6-1.8,2.6-3.3
	l-0.9-15.9c-0.3-6.1-2.2-12-5.5-17.2c-4.8-7.1-8.6-12.2-8.6-12.3c-0.1-0.2-0.2-0.5-0.2-0.7c0-0.4,4.3-43,9.8-77.3
	c1.9-11.9,3.1-24,3.4-36l0.3-37.2c0-0.1,0-0.2,0-0.2l0.7-3c3.3-13.3,6.5-26.9,9.6-40.1c3.1-13.2,6.3-26.9,9.6-40.2
	c1.8-7.1,3.7-14.4,5.6-21.5c2.1-7.6,4.2-15.5,6.1-23.2c0.7-2.8,1.5-5.7,2.2-8.7c1.5-5.9,3.1-12,4.3-17.8c1.4-6.7,2-12.1,0.7-18.8
	l0,0C154,270.5,138.4,265,129.7,265z"/>
<path class="st2" d="M276.5,305.8c-1.4-7.3-1.8-12.7-0.5-19.1c3.2-16.1,22.5-21.9,31.2-20.1c17.6,3.5,22.1,14.9,23.8,22
	c0.9,5.3,3.6,16.8,4.6,22.1c4.5,25.2,9,50.4,13.4,75.6l6.7,37.8c1.9,10.8,5.6,22.2,5.5,33.2c0.8,10.9-6.7,19.2-17.9,23
	c-7.8,2.6-18.1-0.6-23.6-7c-5-5.8-5.5-9.3-7-15.6c-6.4-26.7-12-53.8-18.5-80.4c-3.5-14.6-7.8-29.9-11.3-44.8
	C280.8,323.9,278.2,314.6,276.5,305.8z"/>
<path class="st2" d="M311.1,641.2c0.4-6.3,2.4-12.4,5.8-17.6c4.9-7.2,8.8-12.2,8.8-12.2s-3.8-42.7-9.1-77.3
	c-1.8-12-2.9-24.1-3.1-36.2v-39.3c0.1-1.8,0.3-3.7,0.5-5.5c1-8.8,11.3-18.5,24.5-17.9c10.4,0.5,22,8.1,22.8,20.7l0.5,29.4
	c1.3,29.1-9.8,105.7-12.5,126.2c0.5,1.2,0.7,2.5,0.8,3.8v0.4c0,0,6.4,9.4,3.9,33.2c-3.2,30.8-19.8,43.7-29.7,42
	c-7.9-1.3,4.8-18.9,5.3-35.2c-0.2-1.8-4.7-13.8-5-16.4l-6.2,20.4c-1.1,1.6-3.1,2.3-5,1.8c-2-0.5-3.4-2.3-3.3-4.4L311.1,641.2z"/>
<path class="st1" d="M326,692c-0.7,0-1.3-0.1-2-0.2c-1.2-0.1-2.2-0.8-2.8-1.8c-1.6-2.6,0.1-7.4,2.4-13.9c2.1-6,4.6-13.4,4.9-20.4
	c-0.1-0.8-1.1-3.6-2-6.3c-0.8-2.2-1.5-4.5-2.1-6.4l-5.2,17c0,0.1-0.1,0.2-0.1,0.3c-1.4,1.9-3.8,2.8-6.1,2.2c-2.5-0.6-4.1-2.9-4-5.4
	l1.1-15.9c0.4-6.5,2.4-12.7,6-18.1c4.2-6.1,7.6-10.8,8.5-12c-0.4-4.3-4.1-44.4-9.1-76.8c-1.8-12-2.9-24.2-3.1-36.4v-37.2l-0.7-2.8
	c-3.2-13.4-6.3-27-9.2-40.2s-6-26.9-9.2-40.3c-1.7-7-3.6-14.4-5.4-21.5c-2-7.7-4-15.6-5.9-23.3c-0.7-2.8-1.4-5.8-2.2-8.7
	c-1.5-5.9-3-12-4.2-18c-1.4-6.9-1.9-12.6-0.5-19.5c3.3-16.3,22.8-22.8,32.4-20.9c13.4,2.7,21.7,10.3,24.6,22.7
	c0.5,2.7,1.4,7,2.3,11.1s1.8,8.4,2.3,11.1l20.1,113.5c0.6,3.3,1.4,6.8,2.1,10.1c1.6,7,3.2,14.3,3.4,21.5v0.3l0.5,29.5
	c1.2,25.4-7.1,86.4-11.1,115.8c-0.6,4.2-1,7.7-1.4,10.3c0.4,1.3,0.7,2.6,0.8,3.9v0.1c1,1.7,6.2,11.5,3.9,33.6
	c-1.8,17.4-8.3,31.5-17.7,38.7C333.5,690.5,329.5,692,326,692z M324.5,638.4h0.1c0.5,0,0.8,0.4,0.9,0.9c0.8,3.2,1.7,6.4,2.9,9.6
	c0.8,2.2,1.5,4.5,2.1,6.8c0,0.1,0,0.1,0,0.2c-0.2,7.3-2.9,15-5,21.1c-1.9,5.3-3.6,10.4-2.5,12.3c0.3,0.5,0.8,0.8,1.4,0.8
	c3.5,0.6,7.7-0.8,11.6-3.8c9-6.9,15.2-20.5,17-37.3c2.4-23.1-3.7-32.5-3.7-32.6c-0.1-0.2-0.2-0.3-0.2-0.5v-0.4
	c0-1.2-0.3-2.4-0.7-3.5c-0.1-0.2-0.1-0.3,0-0.5c0.3-2.7,0.8-6.3,1.4-10.6c4-29.3,12.2-90.2,11-115.4l-0.5-29.7
	c-0.2-7-1.8-14.2-3.4-21.1c-0.8-3.4-1.5-6.8-2.1-10.2l-20.1-113.5c-0.5-2.6-1.4-6.9-2.3-11s-1.8-8.4-2.3-11.1
	c-2.8-11.7-10.3-18.6-23-21.2c-7.5-1.5-26.8,3.3-30,19.4l0,0c-1.3,6.6-0.8,12.1,0.5,18.8c1.1,5.9,2.7,12,4.2,17.9
	c0.8,3,1.5,5.9,2.2,8.7c1.8,7.7,3.9,15.6,5.9,23.3c1.9,7.1,3.8,14.4,5.5,21.5c3.2,13.4,6.3,27.1,9.2,40.3s6,26.8,9.2,40.1l0.7,3
	c0,0.1,0,0.2,0,0.2v37.2c0.3,12.1,1.3,24.1,3.1,36.1c5.2,34.3,9.1,76.9,9.1,77.4c0,0.2-0.1,0.5-0.2,0.7c0,0-3.9,5.2-8.7,12.2
	c-3.4,5.1-5.3,11-5.7,17.1l-1.1,15.9c-0.1,1.6,1,3,2.5,3.3c1.4,0.4,2.9-0.1,3.8-1.2l6.2-20.2C323.7,638.6,324,638.4,324.5,638.4z
	 M276,286.6L276,286.6z"/>
<path class="st3" d="M304.7,346.9c13.8-30.6,33.9-63.8,15.1-78.1c-13.6-10.4-28-13.9-50.8-18.4c-13.4-2.7-18.7-4.9-28.4-5.6
	c1.1,8.9-9.2,15.4-17.1,16.7c-3.1,0.5-6.3,0.9-9.4,1c-24-3.5-16.4-16.5-16.4-16.5c-10.6,0.9-21.2,2.3-31.7,4.4
	c-22.8,4.5-40.6,4.1-56.8,20.8c-12.4,12.9,0,36.1,7.8,48c4.9,7.3,11,14,14.8,21.8c4.4,8.9,7.1,52.8,10,62.2
	c3.6,11.8-2.8,49.5-8.1,86c-1.3,8.7-22.9,93.3-17.1,109.9c11.5,8.2,34,19.5,47.1,22.9c66.3,16.8,157.2-18.7,157.2-18.7
	c1.7-42.5-25.7-120.6-29-147.1C290.3,442.8,298.3,361.3,304.7,346.9z"/>
<path class="st3" d="M149.3,318c0.6-4.5,0.3-4.6,0.4-9.1c0.5-29.1-18.9-50.8-36.2-42.7c-10.5,4.9-20.3,22.7-22.6,42.5l-11,62.7
	c0,0,57.2,27.5,60.3,11.7C143.3,366.7,147.4,333.6,149.3,318z"/>
<path class="st3" d="M284.7,318.4c-0.2-3-0.2-6.1,0-9.1c0.7-29.1,20.9-50,37.8-41.2c10.3,5.4,19.4,23.5,20.9,43.4l8.5,63.1
	c0,0-58.2,25.2-60.7,9.3C288.7,367.3,286,334.1,284.7,318.4z"/>
<path class="st4" d="M290.7,318.4c-0.2-3-0.2-6.1,0-9.1c0.7-29.1,20.9-50,37.8-41.2c10.3,5.4,19.4,23.5,20.9,43.4l8.5,63.1
	c0,0-58.2,25.2-60.7,9.3C294.7,367.3,292,334.1,290.7,318.4z"/>
<path class="st4" d="M310.7,346.9c13.8-30.6,33.9-63.8,15.1-78.1c-13.6-10.4-28-13.9-50.8-18.4c-13.4-2.7-18.7-4.9-28.4-5.6l-43,1.2
	c-10.6,0.9-21.2,2.3-31.6,4.4c-22.8,4.5-40.6,4.1-56.8,20.8c-12.4,12.9,0,36.1,7.8,48c4.9,7.3,11,14,14.8,21.8
	c4.4,8.9,7.1,52.8,10,62.2c3.6,11.8-2.8,49.5-8.1,86c-1.3,8.7-22.9,93.3-17.1,109.9c11.5,8.2,34,19.5,47.1,22.9
	c66.3,16.8,157.2-18.7,157.2-18.7c1.7-42.5-25.7-120.6-29-147.1C296.3,442.8,304.3,361.3,310.7,346.9z"/>
<path class="st1" d="M203.4,627.4c-13.4,0.1-26.9-1.4-39.9-4.5c-13.5-3.4-36.2-15-47.5-23c-0.2-0.1-0.3-0.3-0.4-0.5
	c-4.7-13.4,7.9-69.4,14-96.3c1.6-7.2,2.8-12.3,3.1-14.1c5.3-35.9,8-94.3,7.3-100c-0.1-0.6,0.3-1.1,0.9-1.1s1.1,0.3,1.1,0.9
	c0.7,5.7-2,64.4-7.3,100.5c-0.3,1.9-1.4,7.1-3.1,14.3c-6,26.5-18.4,81.5-14.2,94.9c11.2,7.9,33.3,19.2,46.5,22.5
	c62.5,15.8,148-15.4,156.1-18.4c0.9-27.7-10.2-69.8-19.1-103.8c-4.7-17.9-8.8-33.3-9.9-42.6c-1-8.1-0.8-41.1,2.6-68.3
	c0.1-0.6,0.6-0.9,1.1-0.9s0.9,0.6,0.9,1.1c-3.4,27.1-3.6,59.8-2.6,67.9c1.2,9.1,5.2,24.5,9.9,42.3c9,34.3,20.2,77,19.2,105
	c0,0.4-0.3,0.8-0.6,0.9C320.7,604.4,261,627.4,203.4,627.4z"/>
<path class="st4" d="M155.3,318c0.6-4.5,0.3-4.6,0.4-9.1c0.5-29.1-18.9-50.8-36.2-42.7c-10.5,4.9-20.3,22.7-22.6,42.5l-11,62.7
	c0,0,57.2,27.5,60.3,11.7C149.3,366.7,153.4,333.6,155.3,318z"/>
<path class="st1" d="M132.6,389.2c-17.3,0-51.6-16.1-53.2-16.9c-0.4-0.2-0.6-0.6-0.6-1.1l11-62.7c2.5-21,16.1-42,30.9-47.7
	c15.6-6,20.3-6.9,31.7-8.9c3.6-0.7,7.8-1.4,13.2-2.5l3.3-0.7c11.4-2.3,21.2-4.2,29.4-4.9h42.2c5.6,0.5,11.1,1.4,16.4,2.9
	c3.4,0.8,7.2,1.7,12.1,2.7c20.8,4.1,31.4,7.4,43.4,13.4c0.5,0.2,0.7,0.8,0.5,1.3c-0.2,0.5-0.8,0.7-1.3,0.5c0,0,0,0-0.1,0
	c-12-6-22-9.1-42.9-13.2c-5-1-8.8-1.9-12.2-2.7c-5.2-1.4-10.6-2.4-16-2.9h-42c-8,0.7-17.8,2.7-29.1,4.9l-3.3,0.7
	c-5.4,1.1-9.6,1.8-13.2,2.5c-11.3,2-15.9,2.9-31.4,8.8c-14.2,5.4-27.3,25.7-29.7,46.1l-10.9,62c5.8,2.7,46.2,21,57.3,15.4
	c1.2-0.6,2.1-1.7,2.4-3c0.1-0.6,0.6-0.9,1.2-0.8s0.9,0.6,0.8,1.2c-0.4,2-1.6,3.6-3.4,4.5C137.1,388.9,134.9,389.3,132.6,389.2z"/>
<path class="st1" d="M141,389.9h-0.1c-0.5-0.1-0.9-0.5-0.9-1.1c0,0,0,0,0,0l5.1-45.5c0.1-0.5,0.6-0.9,1.1-0.9c0,0,0,0,0,0
	c0.5,0.1,0.9,0.6,0.9,1.1L142,389C141.9,389.5,141.5,389.9,141,389.9z"/>
<path class="st1" d="M301.1,390.1c-2.4,0.1-4.7-0.3-6.9-1.2c-0.4-0.2-0.6-0.5-0.6-0.9c0-0.3-0.1-30.8,0-35.4c0-0.6,0.4-1,1-1
	s1,0.4,1,1c-0.1,4.2,0,30.2,0,34.7c12.1,4.5,49.7-11.1,55.3-13.4l-8.4-62.3c-1.8-23-13-40.1-30.6-46.9c-0.5-0.2-0.8-0.8-0.6-1.3
	c0,0,0,0,0,0c0.2-0.5,0.8-0.8,1.3-0.6c0,0,0,0,0,0c18.4,7.1,30,24.8,31.9,48.6l8.5,63c0.1,0.4-0.2,0.9-0.6,1
	C350.8,376.1,318.3,390.1,301.1,390.1z"/>
<path class="st5" d="M216.6,123.9c-26.5,0-42.7-5.7-42.7-9.8h-1c0,6.2,19.6,11.2,43.8,11.2s43.8-5,43.8-11.2h-1
	C259.3,118.2,243,123.9,216.6,123.9z"/>
<path class="st6" d="M216.6,123.9c26.5,0,42.7-5.7,42.7-9.8h-85.4C173.9,118.2,190.1,123.9,216.6,123.9z"/>
<path class="st2" d="M241.2,251.9c1.9,21.1-52.3,12.1-47.3-1.2c5.7-15.2,3.8-52.7,3.8-52.7h40.7C238.4,198,239.1,228.6,241.2,251.9z
	"/>
<path class="st7" d="M239,203.2c-7.9,3.2-13.6,3.2-22.2,2.7c-7.8,0-11.9-1.6-19.1-4c0,0,0.3,15.3,0.2,17.3
	c6.1,6,12.1,12.5,20.9,12.5c8,0,14.7-5.5,20.4-10.2C239.2,221.5,238.9,204.9,239,203.2z"/>
<path class="st1" d="M221.7,265.4c-10.2,0-21.3-3.1-26.3-7.6c-3.3-2.9-3.2-5.7-2.5-7.6c5.5-14.9,3.7-52,3.7-52.3
	c0-0.3,0.1-0.5,0.3-0.7c0.2-0.2,0.4-0.3,0.7-0.3h40.7c0.6,0,1,0.4,1,1c0,0.3,0.8,30.9,2.8,53.8l0,0c0.4,4.8-1.8,8.6-6.6,11
	C231.9,264.6,227,265.4,221.7,265.4z M198.7,199c0.3,6.3,1.3,38.1-3.9,52.1c-0.7,1.8,0,3.6,2,5.4c7,6.2,27.8,9.7,38,4.6
	c4-2,5.8-5,5.4-9c-1.9-20.7-2.7-47.6-2.8-53L198.7,199z"/>
<path class="st2" d="M265.7,153.2c-2.5-0.8-5.2,0.3-6.5,2.6c0.5-6.4,3.7-26.5,3.7-27.5c0-2.4,0-4.4-0.2-6.2
	c-1.7-25-23.4-43.8-48.4-42c-23.7,1.7-42.1,21.4-42.2,45.1c0,2.4,0,7.7,0.1,8.1c-0.1,1.4,1.5,16.1,2.2,21.6
	c-1.3-1.4-3.3-2.1-5.3-1.7c-3.2,0.7-5.5,3.6-5.4,6.9c0,4.6,1.4,9.1,4,12.9c2.8,3.5,6.6,4.8,10,3.8c2,14.6,11.4,28.9,24.9,35.3
	c26.1,12.6,49.8-11.8,54.7-36.3c0,1.2,4,1.5,4.7,1.3C270.7,175.6,275.8,156,265.7,153.2z"/>
<path class="st1" d="M216.9,216.6c-5.1,0-10.2-1.2-14.8-3.5c-13-6.3-22.9-19.9-25.3-35c-3.6,0.5-7.3-1.1-9.9-4.4
	c-2.8-4-4.2-8.7-4.2-13.5c0-3.7,2.5-6.9,6.1-7.8c1.4-0.4,3-0.2,4.3,0.6c-0.8-6.5-2-18.1-1.9-19.5c0-0.4-0.1-6-0.1-8.1
	c0-25.6,20.8-46.3,46.3-46.3c24.3,0,44.5,18.8,46.2,43.1c0.1,1.7,0.2,3.6,0.2,6.2c0,0.4-0.3,2.3-1,7.7s-1.8,12.4-2.3,17
	c1.6-1.1,3.6-1.3,5.5-0.8l0,0c4.2,1.1,6.5,5.1,6.3,10.5c-0.2,6.6-4.4,14.4-10.1,15.4c-1.4,0.1-2.9,0-4.3-0.5
	c-3.5,15.3-13.7,29-26.1,35.2C227.2,215.3,222.1,216.6,216.9,216.6z M177.7,175.8c0.2,0,0.4,0.1,0.6,0.2c0.2,0.2,0.4,0.4,0.4,0.7
	c2,14.9,11.6,28.4,24.3,34.6c8.8,4.4,19.1,4.4,27.9-0.1c12.2-6.1,22.4-20.3,25.4-35.5c0.1-0.5,0.6-0.9,1.1-0.8
	c0.4,0,0.8,0.4,0.9,0.8c1.1,0.4,2.3,0.6,3.6,0.5c4.7-0.9,8.2-7.9,8.5-13.5c0.1-2.1-0.2-7.2-4.9-8.5l0,0c-2.1-0.6-4.3,0.3-5.4,2.2
	c-0.3,0.5-0.9,0.6-1.4,0.3c-0.3-0.2-0.5-0.6-0.5-1c0.3-4,1.7-13.2,2.6-20c0.5-3.6,1-7,1-7.4c0-2.5-0.1-4.4-0.2-6
	c-1.7-24.4-22.9-42.8-47.3-41.1c-23.2,1.6-41.1,20.9-41.2,44.1c0,2.4,0,7.7,0.1,8.1c-0.1,1.4,1.5,15.9,2.2,21.6c0,0.4-0.2,0.8-0.5,1
	c-0.4,0.2-0.8,0.1-1.1-0.2c-1.1-1.2-2.7-1.8-4.3-1.5c-2.8,0.6-4.7,3.1-4.6,5.9c0,4.4,1.3,8.6,3.8,12.2c2.4,3,5.8,4.4,8.9,3.5
	C177.5,175.9,177.6,175.8,177.7,175.8z"/>
<path class="st7" d="M174.3,158c-1.3-1.2-3.8-1.8-4.9,0.1c-0.3,0.5-0.2,1.4,0.4,1.6c0.8,0.2,1.6,0,2.4,0.3c0.8,0.4,1.4,1.1,1.7,2
	c0.5,1.2,0,3.3,1.7,2.4c0.6-0.4,0.9-1,0.9-1.7C176.7,160.9,175.8,159.1,174.3,158z"/>
<path class="st7" d="M263.3,157.1c1.3-1.2,3.8-1.8,4.9,0.1c0.3,0.5,0.2,1.4-0.4,1.6c-0.8,0.2-1.6,0-2.4,0.3c-0.8,0.4-1.4,1.1-1.7,2
	c-0.5,1.2-0.4,4.9-2,4c-0.6-0.4-0.9-1-0.8-1.7C260.7,161,261.6,158.7,263.3,157.1z"/>
<path class="st1" d="M201.7,134.3c-0.6-0.9-1.9-1.1-2.8-0.5c-0.2,0.2-0.4,0.4-0.6,0.6c-0.9,2.1-0.6,4.3-0.6,6.6
	c0.1,2.6,0.1,5.1,0.2,7.6c0,1.2,1.1,2.2,2.3,2.2s2.2-1.1,2.2-2.3c0-2.6,0-5.1,0-7.7C202.4,138.6,202.6,136.4,201.7,134.3z"/>
<path class="st1" d="M237.3,134.2c-0.6-0.9-1.9-1.1-2.8-0.5c-0.2,0.2-0.4,0.4-0.6,0.6c-0.9,2.1-0.6,4.3-0.6,6.6
	c0.1,2.6,0.1,5.1,0.2,7.6c0,1.2,1.1,2.2,2.3,2.2c1.2,0,2.2-1.1,2.2-2.3c0-2.6,0-5.1,0-7.6C238.1,138.5,238.3,136.3,237.3,134.2z"/>
<path class="st7" d="M218.3,157.4c2,1.3,4,2.7,5.1,4.3c1.2,1.5,1,3.7-0.4,4.9c0,0-0.1,0.1-0.1,0.1c-1.2,0.9-2.6,1.4-4,1.4
	c-1.6,0.1-3.3-0.4-3.9-1.3s0.3-2,1.8-2.2c-1.3-1.4-2.1-3.2-2.1-5.1c-0.1-0.7,0.2-1.3,0.8-1.7C216.1,157.3,217.6,156.9,218.3,157.4z"
	/>
<path class="st1" d="M225.5,163.1c-0.5-2.7-3.9-4.8-7.6-6.4c-0.4-0.2-1.1,0.2-0.8,0.4c1.9,1.6,4.4,3.2,5.3,5.1c0.5,1,0.4,2.2-0.3,3
	c-0.8,0.9-2.1,1.3-3.2,2c-0.8,0.5-0.8,0.8,0.3,0.8C223.3,167.8,225.9,165.1,225.5,163.1z"/>
<path class="st1" d="M204.8,125.2c-0.2,0-0.5-0.1-0.6-0.2c-2.9-2.6-7.3-2.6-10.2,0c-0.4,0.4-1,0.4-1.4-0.1s-0.4-1,0.1-1.4
	c0.1,0,6.1-5.6,12.8,0c0.4,0.4,0.5,1,0.1,1.4C205.4,125.1,205.1,125.2,204.8,125.2L204.8,125.2z"/>
<path class="st1" d="M241.5,125.2c-0.2,0-0.5-0.1-0.6-0.2c-2.9-2.6-7.3-2.6-10.2,0c-0.4,0.4-1,0.4-1.4-0.1s-0.4-1,0.1-1.4
	c0.1,0,6.1-5.6,12.8,0c0.4,0.4,0.5,1,0.1,1.4C242.1,125.1,241.8,125.2,241.5,125.2L241.5,125.2z"/>
<path class="st8" d="M213.5,194c-0.8,1.6-3.8,3.1-7.1,1.5s-3.8-4.8-3-6.4s2.8-1.3,6,0.3S214.3,192.4,213.5,194z"/>
<g id="Caminho_6549">
	<path class="st1" d="M202.7,186.8c0.5-0.1,1.5,3.4,5.3,5.1s7.4,0.2,7.7,0.7s-0.7,0.9-2.3,1.4c-2.1,0.6-4.3,0.5-6.4-0.4
		c-1.9-0.9-3.4-2.4-4.3-4.4C202.3,187.8,202.5,186.8,202.7,186.8z"/>
</g>
<path class="st0" d="M239.7,82.5c0,0-62.7,39.3-62.7,65.3s-21.2-23.6-21.2-23.6l30.6-34.8l32-12.8L239.7,82.5z"/>
<path class="st0" d="M233.3,81.5c0,0,31.1,49.7,26.4,69.3s13.7-25.5,13.7-25.5l-15.3-36.5L233.3,81.5z"/>
<path class="st1" d="M174.7,156.3c-1.7,0-3.4-1.8-4.5-3.2c-0.4-0.4-0.3-1,0.1-1.4c0.4-0.4,1-0.3,1.4,0.1c0,0,0,0.1,0.1,0.1
	c1.8,2.2,2.8,2.6,3.1,2.5c0.1,0,1.2-0.6,1.3-6.5c0-22.4,45.2-54.2,59-63.4c0.4-0.3,1.1-0.3,1.4,0.2c0.3,0.4,0.3,1.1-0.2,1.4
	c0,0-0.1,0.1-0.2,0.1c-13.6,9.1-58.1,40.4-58.1,61.8c0,5.2-0.8,7.8-2.6,8.4C175.2,156.2,174.9,156.3,174.7,156.3z"/>
<path class="st1" d="M259.2,156.7L259.2,156.7c-0.4,0-0.7-0.2-0.9-0.5c-0.4-0.5-0.6-1.2,0.5-5.7c3.9-16-17.4-53.7-24-64.8
	c-0.3-0.5-0.1-1.1,0.4-1.4c0.5-0.3,1.1-0.1,1.4,0.3c8.6,14.5,28.2,50,24.3,66.3c-0.4,1.3-0.6,2.7-0.7,4.1c0.1,0.2,0.2,0.4,0.2,0.7
	C260.2,156.3,259.7,156.7,259.2,156.7z"/>
<path class="st0" d="M240.2,81.5c-1.4,0-4.6-1.7-4.7-1.5c0,0-34.3-26.6-71.8,28.3"/>
</svg>
