<?xml version="1.0" encoding="utf-8"?>
<!-- Generator: Adobe Illustrator 25.4.1, SVG Export Plug-In . SVG Version: 6.00 Build 0)  -->
<svg version="1.1" id="Cliente_6" xmlns="http://www.w3.org/2000/svg" xmlns:xlink="http://www.w3.org/1999/xlink" x="0px" y="0px"
	 viewBox="0 0 432 589" style="enable-background:new 0 0 432 589;" xml:space="preserve">
<style type="text/css">
	.st0{fill:#263238;}
	.st1{fill:#59316D;}
	.st2{clip-path:url(#SVGID_00000103950673377639639480000004124035733071219866_);}
	.st3{fill:#FFCCBC;}
	.st4{fill:#FFFFFF;}
	.st5{fill:#CAD7E5;}
	.st6{fill:#D6E3F4;}
	.st7{fill:#FFCCA9;}
	.st8{fill:#FF725E;}
	.st9{fill:#BBBDBF;}
	.st10{fill:#C8CACB;}
	.st11{fill:#FFAC90;}
	.st12{fill:#995037;}
</style>
<path class="st0" d="M234,63.5c0,0-49.8-20.3-73.1,23.3s-10.3,79.8-19.9,103.8s-26.7,49-11.9,76.1s53.5,47.1,53.5,47.1l100.7-32.2
	c0,0,24.1-22,14.1-71.1s-23.4-41.7-25-93.8S234,63.5,234,63.5z"/>
<path class="st1" d="M182.5,314.8l-0.4-0.2c-0.4-0.2-39.1-20.4-53.9-47.5c-12.4-22.8-2.9-43.8,6.3-64.1c1.9-4.2,3.9-8.6,5.6-12.9
	c3.6-9.1,4-20.1,4.3-32.9c0.6-19.7,1.2-44.2,15.6-71.1c12.3-22.9,31.9-28.1,46.1-28.5c9.5-0.2,19,1.4,28,4.7
	c6.9,0.6,13.4,3.1,19,7.2c8.8,6.3,19.4,19.6,20.3,46.9c0.9,29.5,5.5,39.5,11.4,52.2c4.4,9.5,9.3,20.2,13.6,41.4
	c10,49.1-14.2,71.9-14.4,72.1l-0.2,0.1l-0.2,0.1L182.5,314.8z M207.8,59.7c-0.5,0-1.1,0-1.6,0c-19.9,0.5-34.9,9.7-44.3,27.4
	c-14.1,26.4-14.8,49.7-15.4,70.2c-0.4,12.9-0.7,24.1-4.4,33.6c-1.7,4.3-3.7,8.7-5.6,13c-9,19.9-18.2,40.4-6.4,62.3
	c13.7,25.2,48.7,44.4,52.7,46.5l100.1-32c2-2,23-24.2,13.7-70.1c-4.2-21-9.2-31.6-13.5-41c-5.7-12.4-10.7-23.1-11.6-53
	c-0.6-20.9-7.3-36.6-19.3-45.3c-5.3-3.9-11.6-6.3-18.1-6.9h-0.2l-0.2-0.1C225.4,61.3,216.6,59.8,207.8,59.7z"/>
<g>
	<defs>
		<rect id="SVGID_1_" x="278.9" y="-864" width="432.8" height="589.2"/>
	</defs>
	<clipPath id="SVGID_00000018924029258956207890000000140763156764920479_">
		<use xlink:href="#SVGID_1_"  style="overflow:visible;"/>
	</clipPath>
	<g style="clip-path:url(#SVGID_00000018924029258956207890000000140763156764920479_);">
		<path class="st3" d="M361.1-183.6l58.1,21.5L320.8,40.8c-1.9,3.8-3.1,8-3.7,12.2l0,0l-37.2-6.4l22.9-112.2
			c3.6-16.2,9.6-31.8,17.8-46.3L361.1-183.6z"/>
		<ellipse class="st3" cx="298" cy="50" rx="18.5" ry="16.8"/>
		<path class="st3" d="M322,115.9c-17.9-0.3-34.2-0.3-50.6-1.4c-5.2-0.4-10.5-3.8-12.4-8.2c-2.7-6.2,0-13.6,2.3-19.6
			c1.1-2.8,2.5-5.5,4.1-8.1c1.6-2.4,3.7-4.4,5.4-6.8c6.4-8.6,7.8-19.5,9.9-29.5c0.1-0.4,41-13.3,36.9,6.6
			c-3.8,18.6,10.9,22.2,17.7,26.3c12.2,7.2,25.1,13.3,38.5,18.2c2.6,1,5.7,2.6,8.5,3c2.1,0.3,4.5-0.2,6.6-0.3
			c4.7-0.3,9.3,0,11.9,4.1c7.2,11.4-7,14.6-16.3,15.4c-8.4,0.8-16.9,0.6-25.4,0.6C346.7,116.5,334.4,116.1,322,115.9z"/>
		<ellipse class="st3" cx="297.4" cy="55.2" rx="18.5" ry="16.8"/>
		<path class="st1" d="M356.7,117.4c-7.4,0-14.8-0.2-22-0.3c-4.2-0.1-8.4-0.2-12.6-0.2l-9.4-0.1c-14.3-0.2-27.8-0.3-41.3-1.3
			c-5.6-0.4-11.2-4.1-13.3-8.8c-3-6.8,0.3-15.3,2.3-20.3c1.1-2.9,2.5-5.7,4.2-8.3c1-1.4,2-2.7,3.2-4c0.8-0.9,1.6-1.8,2.3-2.8
			c5.4-7.3,7.2-16.5,8.7-24c0-0.2,0.1-0.5,0.1-0.8c0,0,0-0.1,0-0.1l22.9-112.1c3.6-16.3,9.7-32,17.9-46.6l39.1-69.3
			c0.7-19.7,7.1-181.8,21.5-218c12.5-42.8,39.5-58.6,39.7-58.8c0.2-0.1,0.5-0.2,0.7-0.1l93.4,22c0.5,0.1,0.8,0.6,0.8,1
			c-0.6,8.8-6.5,49.2-11.9,65c-15.9,57.4-80,201.8-81.5,205.2l-0.1,0.2c-0.1,0.3-0.2,0.6-0.3,0.9l-0.2,0.7c-0.1,0.2-0.2,0.4-0.2,0.7
			s-0.2,0.6-0.4,0.9l-0.1,0.3l-0.1,0.1l-0.5,1.1l-0.1,0.3L321.7,41.2c-1.8,3.7-3,7.7-3.6,11.8c-0.8,11.9,7.4,16,14.1,19.4
			c1.3,0.7,2.6,1.3,3.7,2c12.2,7.2,25,13.3,38.3,18.1c0.8,0.3,1.6,0.6,2.4,1c1.9,0.9,3.8,1.6,5.9,2c1.5,0.2,2.9,0.1,4.4-0.1
			c0.7-0.1,1.4-0.1,2-0.2c5-0.3,10,0.1,12.8,4.6c2.2,3.6,2.7,6.7,1.4,9.3c-2,4.1-8.2,6.7-18.5,7.7c-6.8,0.7-13.6,0.6-20.3,0.6
			L356.7,117.4L356.7,117.4z M280.9,46.7v0.1c-0.1,0.3-0.1,0.5-0.1,0.8c-1.5,7.7-3.4,17.2-9,24.8c-0.8,1-1.6,2-2.4,2.9
			c-1.1,1.2-2.1,2.5-3,3.8c-1.6,2.5-2.9,5.1-4,7.9c-2.5,6.4-4.8,13.2-2.3,18.8c1.8,4.1,6.6,7.3,11.6,7.6c13.4,0.9,26.9,1.1,41.2,1.3
			l9.4,0.1c4.2,0.1,8.4,0.2,12.6,0.2c8,0.2,16.3,0.4,24.4,0.3h5.2c6.6,0,13.4,0,20.1-0.6c9.2-0.9,15.2-3.2,16.9-6.6
			c1-2,0.5-4.4-1.3-7.3c-2.2-3.4-6-3.9-11-3.7c-0.6,0-1.3,0.1-1.9,0.2c-1.6,0.2-3.3,0.3-4.9,0.1c-2.2-0.5-4.3-1.2-6.3-2.1
			c-0.8-0.3-1.6-0.7-2.3-1c-13.4-4.9-26.3-11-38.6-18.3c-1-0.6-2.2-1.2-3.5-1.9c-6.8-3.4-16.1-8.1-15.2-21.4
			c0.6-4.3,1.9-8.6,3.8-12.5l97.9-201.7c0.2-0.3,0.3-0.6,0.5-1l0-0.1l0.1-0.3c0.1-0.3,0.2-0.6,0.4-0.8s0.2-0.4,0.2-0.6
			s0.1-0.4,0.2-0.6s0.2-0.6,0.3-0.9l0.1-0.3c0,0,0-0.1,0-0.1c0.6-1.5,65.5-147.3,81.5-205c5.2-15.2,10.8-53.5,11.7-63.7l-92.1-21.7
			c-3.1,1.9-27,17.9-38.5,57.5c-14.4,36.2-20.7,199.2-21.4,217.7c0,0.2-0.1,0.3-0.1,0.4l-39.3,69.5c-8.1,14.4-14.1,29.9-17.7,46
			L280.9,46.7z M359.8-181.3L359.8-181.3z"/>
		<path class="st1" d="M670,116.4c-2.4,0-4.7-0.5-6.8-1.6c-6.8-3.6-10.1-12.1-12.1-17.3c-2.2-5.8-3.7-11.8-4.4-18
			c-0.5-4.8-3.8-13.3-6.9-19.7c-0.2-0.3-0.3-0.6-0.5-1c-0.5-0.7-0.9-1.5-1.3-2.2c-0.1-0.1-0.1-0.1-0.2-0.2l-46.8-76.6
			c-8.9-14.5-15.7-30.2-20.2-46.5l-20.8-75.9c-14.2-14.6-131.2-135.5-148.7-171c-14.3-22.8-20.2-40.8-22.6-51.8
			c-0.8-3.1-1.3-6.2-1.5-9.4l-0.1-0.8v-0.2c-0.1-1.8-0.1-2.8-0.1-2.9l0,0c-0.2-12.2,3-24.4,5.8-33.6c4.3-14.1,17.1-30.7,26.5-42.8
			l1.6-2c2-2.6,4.1-5.1,6.4-7.4l8.5-7.5c0.2-0.2,0.6-0.3,0.9-0.2l91,23c0.5,0.1,0.8,0.6,0.7,1.2c-0.4,2.2-0.9,4.6-1.5,7.2
			c-4.6,21.7-11.5,54.5-1.9,82.3c32.7,58.3,83.5,172.3,89.4,185.5c1.3,1.9,2.3,3.9,3.1,6.1c0.4,1,0.7,2.1,1,3.2l62.8,203
			c3.5,7.4,14.7,5.6,22.9,4.3c1.5-0.2,3-0.5,4.2-0.6c13.7-1.6,27.2-4.6,40.4-8.7c0.8-0.2,1.6-0.4,2.4-0.7c2-0.4,3.8-1.1,5.6-1.9
			c1.2-0.7,2.2-1.6,3.1-2.7c0.5-0.5,0.9-0.9,1.4-1.4c3.5-3.2,7.4-6,12.5-4.1l0,0c4.2,1.5,6.7,3.8,7.4,6.8c1,4.4-1.8,10-8.5,16.7
			c-4.6,4.5-9.4,8.7-14.5,12.7c-1.3,1-2.5,2.1-3.8,3.1c-6,4.9-12.2,9.8-18.2,14.4c-3.1,2.4-6.3,4.9-9.4,7.4
			c-2.3,1.8-4.7,3.7-6.9,5.5c-10.6,8.4-20.6,16.4-31.1,23.8C676.3,115.5,673.2,116.4,670,116.4z M639.5,55.1
			c0.1,0.1,0.2,0.2,0.3,0.4c0.4,0.8,0.8,1.6,1.3,2.4c0,0,0.1,0.1,0.1,0.1c0.2,0.4,0.3,0.7,0.5,1c2.9,6.1,6.5,15,7.1,20.3
			c0.7,6,2.1,11.9,4.3,17.5c2.5,6.6,5.5,13.2,11.1,16.2c4.4,2.1,9.6,1.8,13.7-0.9c10.5-7.3,20.5-15.3,31-23.7l6.9-5.5
			c3.1-2.5,6.3-4.9,9.4-7.4c6-4.7,12.2-9.5,18.1-14.4l3.8-3.1c5-3.9,9.8-8.1,14.3-12.5c4.2-4.2,9-10.3,8-14.9
			c-0.5-2.3-2.6-4.1-6.1-5.4c-3.9-1.4-7,0.5-10.5,3.7c-0.4,0.4-0.9,0.9-1.3,1.3c-1,1.2-2.2,2.2-3.6,3c-1.9,1-4,1.7-6.1,2.1
			c-0.8,0.2-1.6,0.4-2.3,0.6c-13.3,4.2-26.9,7.2-40.8,8.8c-1.2,0.1-2.6,0.3-4.2,0.6c-8.3,1.3-20.9,3.3-25-5.5c0,0,0-0.1,0-0.1
			l-62.9-203.2c-0.3-1-0.6-2-0.9-3c-0.8-2-1.7-3.9-2.9-5.7c0,0-0.1-0.1-0.1-0.1c-5.7-12.9-56.7-127.2-89.4-185.5
			c0-0.1-0.1-0.1-0.1-0.2c-9.9-28.3-2.9-61.5,1.8-83.4c0.5-2.2,0.9-4.3,1.3-6.2l-89.5-22.6l-8.1,7c-2.2,2.3-4.2,4.7-6.1,7.2l-1.5,2
			c-9.3,12-22,28.4-26.1,42.2c-2.8,9.1-5.9,21.1-5.7,33.1v0.1c0,0.3,0,1.1,0.1,2.6v0.2c0,0.2,0,0.5,0.1,0.7c0.2,3.1,0.7,6.1,1.5,9.1
			c2.4,10.9,8.2,28.6,22.4,51.2c0,0,0,0.1,0,0.1c17.3,35.4,135.2,157,148.6,170.8c0.1,0.1,0.2,0.3,0.2,0.4l20.9,76.2
			c4.5,16.2,11.2,31.7,19.9,46L639.5,55.1z"/>
		<path class="st4" d="M420.5-457.5c0,0-26.8,15.2-39.3,58.3c-14.5,36.4-20.8,201.3-21.4,217.9l-39.3,69.5
			c-8.2,14.5-14.2,30-17.8,46.3L278.9,41.6c7.5,11,41,11.9,41,11.9l98.7-214.1c0-0.1,0.1-0.2,0.1-0.3c0.2-0.3,0.3-0.7,0.5-1l0.1-0.1
			l0.1-0.3l0.4-0.9l0.2-0.6c0.1-0.2,0.2-0.4,0.2-0.6s0.2-0.6,0.3-0.9c0-0.1,0.1-0.2,0.1-0.3s65.3-146.7,81.5-205.2
			c5.3-15.6,11.2-55.6,11.8-64.7L420.5-457.5z"/>
		<path class="st5" d="M430.5-457.5c0,0-26.8,15.2-39.3,58.3c-14.5,36.4-20.8,201.3-21.4,217.9l-39.3,69.5
			c-8.2,14.5-14.2,30-17.8,46.3L288.9,41.6c7.5,11,41,11.9,41,11.9l98.7-214.1c0-0.1,0.1-0.2,0.1-0.3c0.2-0.3,0.3-0.7,0.5-1l0.1-0.1
			l0.1-0.3l0.4-0.9l0.2-0.6c0.1-0.2,0.2-0.4,0.2-0.6s0.2-0.6,0.3-0.9c0-0.1,0.1-0.2,0.1-0.3s65.3-146.7,81.5-205.2
			c5.3-15.6,11.2-55.6,11.8-64.7L430.5-457.5z"/>
		<path class="st1" d="M319.9,54.5L319.9,54.5c-1.4,0-34.1-1.1-41.8-12.3c-0.2-0.2-0.2-0.5-0.1-0.8l23.9-107.2
			c3.6-16.3,9.7-32,17.9-46.5l39.1-69.3c0.7-19.6,7.1-181.8,21.5-218c12.5-42.8,39.5-58.6,39.7-58.8c0.2-0.1,0.5-0.2,0.7-0.1
			l93.4,22c0.5,0.1,0.8,0.6,0.8,1c-0.6,8.8-6.5,49.2-11.9,65c-15.9,57.4-80,201.8-81.5,205.2l-0.1,0.2c-0.1,0.3-0.2,0.6-0.3,0.9
			l-0.2,0.7c-0.1,0.2-0.2,0.4-0.2,0.7s-0.2,0.6-0.4,0.9l-0.1,0.3c0,0,0,0.1,0,0.1l-0.5,1.1l-0.1,0.3l-98.7,214
			C320.6,54.3,320.3,54.5,319.9,54.5z M280,41.4c7,9.3,34.7,10.9,39.3,11.1L417.7-161l0.1-0.2v-0.1c0.2-0.3,0.3-0.6,0.5-1l0-0.1
			l0.1-0.3c0.1-0.3,0.2-0.6,0.4-0.8s0.2-0.4,0.2-0.6s0.1-0.4,0.2-0.6s0.2-0.6,0.3-0.9l0.1-0.3c0,0,0-0.1,0-0.1
			c0.6-1.5,65.5-147.3,81.5-205c5.2-15.2,10.8-53.5,11.7-63.7l-92.1-21.7c-3.1,1.9-27,17.9-38.5,57.5
			c-14.4,36.2-20.7,199.2-21.4,217.7c0,0.2-0.1,0.3-0.1,0.4l-39.3,69.5c-8.1,14.4-14.1,29.9-17.7,46L280,41.4z M359.9-181.3
			L359.9-181.3z"/>
		<path class="st4" d="M670.4,36.5l-62.9-200.2c-0.3-1-0.6-2.1-1-3.1c-0.8-2.1-1.8-4.1-3-5.9c-5.1-11.6-56.6-127-89.5-185.6l0,0
			c-11-31.4-0.7-69.8,3.3-90l-91-23l-8.4,7.4c-2.2,2.3-4.3,4.8-6.3,7.4c-9.5,12.3-23.4,29.8-27.8,44.5c-3.2,10.7-5.9,22.1-5.7,33.4
			l0,0c0,0,0,1,0.1,2.8c0,0.1,0,0.1,0,0.2c0,0.2,0,0.5,0.1,0.8c0.2,3.1,0.7,6.2,1.5,9.2c2.4,11.1,8.3,28.9,22.5,51.5
			c17.4,35.6,135.5,157.4,148.7,171L571.9-67c4.5,16.3,11.2,31.9,20.1,46.3l40.3,80.1C661.7,55.9,670.4,36.5,670.4,36.5z"/>
		<path class="st6" d="M680.4,36.5l-62.9-200.2c-0.3-1-0.6-2.1-1-3.1c-0.8-2.1-1.8-4.1-3-5.9c-5.1-11.6-56.6-127-89.5-185.6l0,0
			c-11-31.4-0.7-69.8,3.3-90l-91-23l-8.4,7.4c-2.2,2.3-4.3,4.8-6.3,7.4c-9.5,12.3-23.4,29.8-27.8,44.5c-3.2,10.7-5.9,22.1-5.7,33.4
			l0,0c0,0,0,1,0.1,2.8c0,0.1,0,0.1,0,0.2c0,0.2,0,0.5,0.1,0.8c0.2,3.1,0.7,6.2,1.5,9.2c2.4,11.1,8.3,28.9,22.5,51.5
			c17.4,35.6,135.5,157.4,148.7,171L581.9-67c4.5,16.3,11.2,31.9,20.1,46.3l40.3,80.1C671.7,55.9,680.4,36.5,680.4,36.5z"/>
		<path class="st1" d="M632.3,60.4c-0.4,0-0.7-0.2-0.9-0.5L591-20.3c-8.9-14.5-15.6-30.1-20.1-46.5L550-142.7
			c-14.2-14.6-131.2-135.5-148.7-171c-14.3-22.8-20.2-40.8-22.6-51.8c-0.8-3.1-1.3-6.2-1.5-9.4l-0.1-0.8v-0.2
			c-0.1-1.8-0.1-2.8-0.1-2.9v0c-0.2-12.2,3-24.4,5.8-33.6c4.3-14.1,17.1-30.7,26.5-42.8l1.5-2c2-2.6,4.1-5.1,6.4-7.4l8.5-7.5
			c0.2-0.2,0.6-0.3,0.9-0.2l91,23c0.5,0.1,0.8,0.6,0.7,1.2c-0.4,2.2-0.9,4.6-1.5,7.2c-4.6,21.7-11.5,54.5-1.9,82.3
			c32.7,58.3,83.5,172.3,89.4,185.5c1.3,1.9,2.3,3.9,3.1,6.1c0.4,1,0.7,2.1,1,3.2l62.8,200.1c0.1,0.2,0.1,0.5,0,0.7
			c-0.4,0.8-9.2,20-38.9,23.5H632.3z M379-378.6c0,0.3,0,1.1,0.1,2.6v0.2c0,0.2,0,0.5,0.1,0.7c0.2,3.1,0.7,6.1,1.5,9.1
			c2.4,10.9,8.2,28.6,22.4,51.2c0,0,0,0.1,0,0.1c17.3,35.4,135.2,157,148.6,170.8c0.1,0.1,0.2,0.3,0.2,0.4l20.9,76.2
			c4.5,16.2,11.2,31.7,19.9,46l40,79.6c25.8-3.4,35.2-19.4,36.5-21.9l-62.7-199.8c-0.3-1-0.6-2-0.9-3c-0.8-2-1.7-3.9-2.9-5.7
			c0,0-0.1-0.1-0.1-0.1c-5.7-12.9-56.7-127.2-89.4-185.5c0-0.1-0.1-0.1-0.1-0.2c-9.9-28.3-2.9-61.5,1.8-83.4
			c0.5-2.2,0.9-4.3,1.3-6.2l-89.5-22.6l-8.1,7c-2.2,2.3-4.2,4.7-6.1,7.2l-1.5,2c-9.3,12-22,28.4-26.1,42.2
			c-2.8,9.1-5.9,21.1-5.7,33.1L379-378.6z"/>
	</g>
</g>
<path class="st3" d="M274.8,299.4c-1.4-7.3-1.8-12.7-0.5-19.1c3.2-16.1,22.5-21.9,31.2-20.1c17.6,3.5,22.1,14.9,23.8,22
	c0.9,5.3,3.6,16.8,4.6,22.1c4.5,25.2,9,50.4,13.4,75.6l6.7,37.8c1.9,10.8,5.6,22.2,5.5,33.2c0.8,10.9-6.7,19.2-17.9,23
	c-7.8,2.6-18.1-0.6-23.6-7c-5-5.8-5.5-9.3-7-15.6c-6.4-26.7-12-53.8-18.5-80.4c-3.5-14.6-7.8-29.9-11.3-44.8
	C279.1,317.5,276.5,308.2,274.8,299.4z"/>
<path class="st3" d="M309.3,634.8c0.4-6.3,2.4-12.4,5.8-17.6c4.8-7.2,8.8-12.2,8.8-12.2s-3.8-42.7-9.1-77.3
	c-1.8-12-2.9-24.1-3.1-36.2v-39.3c0.1-1.8,0.3-3.7,0.5-5.5c1-8.8,11.3-18.5,24.5-17.9c10.4,0.5,22,8.1,22.8,20.7l0.5,29.4
	c1.3,29.1-9.8,105.7-12.5,126.2c0.5,1.2,0.7,2.5,0.8,3.8v0.4c0,0,6.4,9.4,3.9,33.2c-3.2,30.8-19.8,43.7-29.7,42
	c-7.9-1.3,4.8-18.9,5.3-35.2c-0.2-1.8-4.7-13.8-5-16.4l-6.2,20.4c-1.1,1.6-3.1,2.3-5,1.8c-2-0.5-3.4-2.3-3.2-4.4L309.3,634.8z"/>
<path class="st1" d="M324.2,685.6c-0.7,0-1.3,0-2-0.2c-1.2-0.1-2.2-0.8-2.8-1.8c-1.6-2.6,0.1-7.4,2.4-13.9c2.1-6,4.6-13.4,4.9-20.4
	c-0.1-0.8-1.1-3.6-2-6.3c-0.8-2.2-1.5-4.5-2.1-6.4l-5.2,17c0,0.1-0.1,0.2-0.1,0.3c-1.4,1.9-3.8,2.8-6.1,2.2c-2.5-0.6-4.1-2.9-4-5.4
	l1.1-15.9c0.4-6.5,2.4-12.7,6-18.1c4.2-6.1,7.6-10.8,8.5-12c-0.4-4.3-4.1-44.4-9.1-76.8c-1.8-12-2.9-24.2-3.1-36.4v-37.2l-0.7-2.9
	c-3.2-13.3-6.3-27-9.2-40.2s-6-26.9-9.3-40.3c-1.7-7-3.6-14.4-5.4-21.5c-2-7.7-4-15.6-5.9-23.3c-0.7-2.8-1.4-5.8-2.2-8.7
	c-1.5-5.9-3-12-4.2-18c-1.4-6.9-1.9-12.6-0.5-19.5c3.3-16.3,22.8-22.8,32.4-20.9c13.4,2.7,21.7,10.3,24.6,22.7
	c0.5,2.7,1.4,7,2.3,11.1s1.8,8.4,2.3,11.1l20.1,113.5c0.6,3.3,1.4,6.8,2.1,10.1c1.6,7,3.2,14.3,3.4,21.5v0.3l0.6,29.5
	c1.2,25.4-7.1,86.4-11.1,115.8c-0.6,4.2-1,7.7-1.4,10.3c0.4,1.3,0.7,2.6,0.7,3.9v0.1c1,1.7,6.2,11.5,3.9,33.6
	c-1.8,17.4-8.3,31.5-17.7,38.7C331.7,684.1,327.8,685.6,324.2,685.6z M322.7,632h0.1c0.5,0,0.8,0.4,0.9,0.9c0.8,3.2,1.7,6.4,2.9,9.6
	c0.8,2.2,1.5,4.5,2.1,6.8c0,0.1,0,0.1,0,0.2c-0.2,7.3-2.9,15-5,21.1c-1.9,5.3-3.6,10.4-2.5,12.3c0.3,0.5,0.8,0.8,1.4,0.8
	c3.4,0.6,7.7-0.8,11.6-3.8c9-6.9,15.2-20.5,17-37.3c2.4-23.1-3.7-32.5-3.7-32.6c-0.1-0.2-0.2-0.3-0.2-0.5v-0.4
	c-0.1-1.2-0.3-2.4-0.7-3.5c-0.1-0.2-0.1-0.3-0.1-0.5c0.4-2.7,0.8-6.3,1.4-10.6c4-29.3,12.2-90.2,11-115.4l-0.5-29.7
	c-0.2-7-1.8-14.2-3.4-21.1c-0.8-3.4-1.5-6.8-2.1-10.2l-20.1-113.5c-0.5-2.6-1.4-6.9-2.3-11s-1.8-8.4-2.3-11.1
	c-2.8-11.7-10.3-18.6-23-21.2c-7.5-1.5-26.8,3.3-30,19.4l-1-0.2l1,0.2c-1.3,6.6-0.8,12.1,0.5,18.8c1.1,5.9,2.7,12,4.2,17.9
	c0.8,3,1.5,5.9,2.2,8.7c1.8,7.7,3.9,15.6,5.9,23.3c1.9,7.1,3.8,14.4,5.5,21.5c3.2,13.4,6.3,27.1,9.3,40.3s6,26.8,9.2,40.1l0.7,3
	c0,0.1,0,0.2,0,0.2v37.2c0.3,12.1,1.3,24.1,3.1,36.1c5.2,34.3,9.1,76.9,9.1,77.4c0,0.2-0.1,0.5-0.2,0.7c0,0-3.9,5.2-8.7,12.2
	c-3.4,5.1-5.3,11-5.7,17.1l-1.1,15.9c-0.1,1.6,1,3,2.5,3.3c1.4,0.4,2.9-0.1,3.8-1.2l6.2-20.2C321.9,632.3,322.3,632,322.7,632z"/>
<path class="st3" d="M155.3,297.4c1.5-7.3,1.9-12.6,0.7-19.1c-3.1-16.2-22.3-22.1-31-20.4c-17.6,3.3-22.3,14.7-24,21.8
	c-1,5.3-3.8,16.8-4.8,22.1l-14.1,75.5c-2.4,12.6-4.7,25.2-7,37.8c-2,10.8-5.8,22.1-5.8,33.1c-0.8,10.9,6.5,19.3,17.7,23.1
	c7.8,2.7,18.1-0.5,23.6-6.8c5.1-5.7,5.6-9.3,7.2-15.5c6.7-26.7,12.5-53.7,19.2-80.3c3.6-14.6,8-29.8,11.7-44.7
	C150.8,315.5,153.5,306.3,155.3,297.4z"/>
<path class="st3" d="M117.9,632.5c-0.3-6.3-2.2-12.4-5.7-17.6c-4.8-7.2-8.6-12.3-8.6-12.3s4.2-42.6,9.8-77.2
	c1.9-12,3.1-24.1,3.4-36.2l0.3-39.3c-0.1-1.8-0.2-3.7-0.5-5.5c-0.9-8.8-11.1-18.6-24.3-18.1c-10.4,0.4-22,7.9-23,20.5l-0.8,29.4
	C67,505.2,77.5,581.9,80,602.4c-0.5,1.2-0.7,2.5-0.8,3.8v0.4c0,0-6.5,9.3-4.2,33.2c2.9,30.8,19.4,43.9,29.4,42.3
	c7.9-1.2-4.6-18.9-5-35.2c0.2-1.8,4.8-13.7,5.1-16.3l6,20.4c1.1,1.6,3.1,2.3,5,1.8c2-0.5,3.4-2.3,3.3-4.3L117.9,632.5z"/>
<path class="st1" d="M102.7,683.3c-3.6,0-7.5-1.5-11.3-4.5c-9.4-7.3-15.8-21.5-17.4-38.9c-2.1-22.1,3.1-31.9,4.2-33.6v-0.1
	c0.1-1.3,0.3-2.6,0.8-3.9c-0.3-2.6-0.8-6.1-1.3-10.3c-3.7-29.4-11.5-90.5-10.1-115.9l0.8-29.4c0-0.1,0-0.2,0-0.3v-0.1
	c0.2-7.1,1.9-14.4,3.6-21.4c0.8-3.3,1.6-6.8,2.2-10.1l21.1-113.3c0.5-2.7,1.5-7,2.4-11.1s1.9-8.4,2.4-11c3-12.5,11.4-20,24.8-22.6
	c9.6-1.8,29.1,4.9,32.2,21.2l0,0c1.3,7,0.7,12.6-0.7,19.5c-1.2,5.9-2.8,12-4.4,17.9c-0.8,3-1.5,5.9-2.2,8.7
	c-1.9,7.7-4,15.6-6.1,23.3c-1.9,7.1-3.9,14.4-5.6,21.4c-3.3,13.3-6.5,27-9.6,40.2s-6.2,26.8-9.6,40.1l-0.7,2.8l-0.3,37.1
	c-0.4,12.2-1.5,24.3-3.5,36.3c-5.2,32.4-9.3,72.4-9.7,76.8c0.9,1.2,4.3,5.9,8.4,12c3.5,5.4,5.5,11.7,5.8,18.2l0.9,15.9
	c0.1,2.5-1.6,4.8-4,5.4c-2.3,0.6-4.7-0.3-6.1-2.2c-0.1-0.1-0.1-0.2-0.1-0.3l-5-17c-0.6,1.9-1.4,4.1-2.1,6.4c-0.9,2.7-1.9,5.5-2,6.3
	c0.2,7,2.7,14.5,4.7,20.4c2.2,6.6,3.8,11.3,2.2,14c-0.6,1-1.6,1.6-2.8,1.7C103.9,683.2,103.3,683.3,102.7,683.3z M128,258.6
	c-0.9,0-1.9,0.1-2.8,0.2c-12.8,2.4-20.3,9.3-23.2,21c-0.5,2.6-1.4,6.9-2.4,11s-1.9,8.4-2.4,11L76.1,415.2c-0.6,3.4-1.4,6.8-2.2,10.2
	c-1.6,6.9-3.3,14.1-3.5,21v0.4l-0.8,29.4c-1.4,25.3,6.4,86.3,10.1,115.6c0.6,4.3,1,7.9,1.3,10.6c0,0.2,0,0.3-0.1,0.5
	c-0.4,1.1-0.7,2.3-0.7,3.5v0.4c0,0.2-0.1,0.4-0.2,0.5c-0.1,0.1-6.2,9.4-4,32.5c1.6,16.9,7.7,30.5,16.6,37.5c3.9,3,8.1,4.5,11.6,3.9
	c0.6,0,1.1-0.3,1.4-0.8c1.1-1.8-0.6-6.9-2.4-12.3c-2.1-6.1-4.6-13.8-4.8-21.1c0-0.1,0-0.1,0-0.2c0.6-2.3,1.3-4.5,2.1-6.8
	c1.2-3.1,2.2-6.3,3-9.5c0.1-0.5,0.4-0.8,0.9-0.9c0.5,0,0.9,0.3,1,0.7l6,20.3c0.9,1.2,2.4,1.7,3.8,1.3c1.5-0.4,2.6-1.8,2.6-3.3
	l-0.9-15.9c-0.3-6.1-2.2-12-5.5-17.2c-4.7-7.1-8.6-12.2-8.6-12.3c-0.1-0.2-0.2-0.5-0.2-0.7c0-0.4,4.3-43,9.8-77.3
	c1.9-11.9,3.1-24,3.4-36l0.3-37.2c0-0.1,0-0.2,0-0.2l0.7-3c3.3-13.3,6.5-26.9,9.6-40.1c3.1-13.2,6.3-26.9,9.6-40.2
	c1.8-7.1,3.7-14.4,5.6-21.5c2.1-7.6,4.2-15.5,6.1-23.2c0.7-2.8,1.5-5.7,2.2-8.7c1.5-5.9,3.1-12,4.3-17.8c1.4-6.7,2-12.1,0.7-18.8
	l0,0C152.3,264.1,136.7,258.6,128,258.6z"/>
<path class="st4" d="M291.4,337.9l0.2-6c0.9-20.9,1.6-49.4,15-66.5c1.3-1.9,3.1-3.5,5.1-4.7c-15-7.8-21.7-12.3-44.5-16.9
	c-13.4-2.7-18.7-4.9-28.4-5.6l-47.6,0.1c-8.9,0.8-14.3,2.9-27.1,5.5c-10.1,2-20.2,3.9-30,7c-2.7,0.9-20.1,6.7-18.5,10.8
	c3.4,8.9,8.3,17.1,11.6,26.2c8,22.3,9.6,46.1,10.4,69.6c0.7,18.9,2.6,37.7,2.1,56.6c-0.5,23.2-4.4,45.7-7.8,68.6
	c-1.3,8.7-23,93.3-17.2,110c11.5,8.2,34,19.5,47.1,22.9c66.4,16.8,157.4-18.7,157.4-18.7c1.7-42.5-25.7-120.6-29-147.1
	c-2.4-18.9-0.4-38.1-0.2-57C290.2,374.5,290.7,356.1,291.4,337.9z"/>
<path class="st7" d="M297.4,337.9l0.2-6c0.9-20.9,1.6-49.4,15-66.5c1.3-1.9,3.1-3.5,5.1-4.7c-15-7.8-21.7-12.3-44.5-16.9
	c-13.4-2.7-18.7-4.9-28.4-5.6l-47.6,0.1c-8.9,0.8-14.3,2.9-27.1,5.5c-10.1,2-20.2,3.9-30,7c-2.7,0.9-20.1,6.7-18.5,10.8
	c3.4,8.9,8.3,17.1,11.6,26.2c8,22.3,9.6,46.1,10.4,69.6c0.7,18.9,2.6,37.7,2.1,56.6c-0.5,23.2-4.4,45.7-7.8,68.6
	c-1.3,8.7-23,93.3-17.2,110c11.5,8.2,34,19.5,47.1,22.9c66.4,16.8,157.4-18.7,157.4-18.7c1.7-42.5-25.7-120.6-29-147.1
	c-2.4-18.9-0.4-38.1-0.2-57C296.2,374.5,296.7,356.1,297.4,337.9z"/>
<path class="st1" d="M201.6,621c-13.4,0.1-26.9-1.4-39.9-4.5c-13.5-3.4-36.2-15-47.5-23l-0.3-0.2l-0.1-0.3
	c-4.7-13.4,7.9-69.4,14-96.3c1.6-7.2,2.8-12.4,3.1-14.1c0.5-3.3,1-6.6,1.5-9.9c2.9-19,5.9-38.7,6.3-58.5c0.3-12.3-0.4-24.8-1.1-36.8
	c-0.4-6.5-0.8-13.2-1-19.8c-0.8-22.6-2.2-46.6-10.3-69.3c-1.8-4.7-3.8-9.3-6-13.8c-1.9-4-3.9-8.1-5.5-12.4c-0.3-0.7-0.2-1.5,0.2-2.2
	c2.1-4.4,16.2-9,19-9.9c9.1-2.9,18.6-4.8,27.8-6.6l2.4-0.5c4.9-1,8.8-1.9,12.1-2.7c4.9-1.3,10-2.3,15.1-2.8l47.7-0.1
	c5.6,0.5,11.1,1.4,16.4,2.9c3.4,0.8,7.2,1.7,12.1,2.7c20.2,4,27.9,8.1,39.6,14.2c1.6,0.9,3.3,1.8,5.1,2.7l1.7,0.9l-1.7,0.9
	c-1.9,1.1-3.5,2.6-4.8,4.4c-12.7,16.3-13.8,43.8-14.7,63.9l-0.1,2l-0.2,6c-0.8,20.4-1.3,38.4-1.4,54.7c0,5.7-0.3,11.5-0.5,17
	c-0.5,13.1-1,26.7,0.7,39.8c1.2,9.1,5.2,24.5,9.9,42.3c9,34.3,20.2,77,19.2,105v0.7l-0.6,0.2C318.9,598,259.3,621,201.6,621z
	 M115.6,592.1c11.2,7.9,33.3,19.2,46.5,22.5c62.5,15.8,148.1-15.4,156.1-18.4c0.9-27.7-10.2-69.8-19.1-103.8
	c-4.7-17.9-8.8-33.3-9.9-42.6c-1.7-13.3-1.2-26.9-0.7-40.1c0.2-5.6,0.4-11.4,0.5-17c0.1-16.4,0.6-34.3,1.4-54.8c0.1-2,0.2-4,0.2-6
	l0.1-2c0.8-20.4,2-48.2,15.1-65.1c1.1-1.5,2.4-2.9,3.9-4l-3.6-1.9c-11.5-6.1-19.2-10.1-39.1-14.1c-5-1-8.8-1.9-12.2-2.7
	c-5.2-1.4-10.6-2.4-16-2.9l-47.5,0.1c-5,0.5-9.9,1.4-14.7,2.7c-3.4,0.8-7.2,1.7-12.2,2.7l-2.4,0.5c-9.1,1.8-18.6,3.7-27.6,6.5
	c-6.4,2-16.4,6.1-17.8,8.9c-0.1,0.2-0.2,0.4-0.1,0.6c1.6,4.2,3.6,8.3,5.5,12.2c2.3,4.5,4.3,9.2,6.1,13.9
	c8.2,22.9,9.6,47.1,10.4,69.9c0.2,6.6,0.6,13.3,1,19.7c0.7,12.1,1.4,24.6,1.1,37c-0.5,19.9-3.4,39.6-6.3,58.7
	c-0.5,3.3-1,6.6-1.5,9.9c-0.3,1.9-1.4,7.1-3.1,14.3C123.8,523.7,111.4,578.6,115.6,592.1L115.6,592.1z"/>
<path class="st0" d="M158.4,143.3c0.4,4.7,1.1,9,1.4,13.6c0.2,2,0.7,4.4,2.6,5c1.5,0.2,2.9-0.5,3.6-1.9c0.6-1.3,1-2.7,1-4.1
	c1.4-14.2,2.6-25.1,4-39.3C166.9,122.4,162.7,132.2,158.4,143.3z"/>
<path class="st8" d="M201.4,236.3v-6.7c0,0-4.4-0.2-6.5,1.8l1.2,9.4L201.4,236.3z"/>
<path class="st9" d="M257.5,107.6c0-4.1-16.2-9.8-42.7-9.8s-42.7,5.7-42.7,9.8H257.5L257.5,107.6z"/>
<path class="st10" d="M214.8,117.5c-26.5,0-42.7-5.7-42.7-9.8h-1c0,6.2,19.6,11.2,43.8,11.2s43.8-5,43.8-11.2h-1
	C257.5,111.8,241.3,117.5,214.8,117.5z"/>
<path class="st9" d="M214.8,117.5c26.5,0,42.7-5.7,42.7-9.8h-85.4C172.1,111.8,188.4,117.5,214.8,117.5z"/>
<path class="st3" d="M239.5,245.4c1.9,21.1-52.3,12.1-47.3-1.2c5.7-15.2,3.8-52.7,3.8-52.7h40.7
	C236.6,191.5,237.4,222.1,239.5,245.4z"/>
<path class="st11" d="M237.2,196.8c-7.9,3.2-13.6,3.2-22.2,2.7c-7.8,0-11.9-1.6-19.1-4c0,0,0.3,15.3,0.2,17.3
	c6.1,6,12.1,12.5,20.9,12.5c8,0,14.7-5.5,20.4-10.2C237.5,215.1,237.2,198.5,237.2,196.8z"/>
<path class="st1" d="M220,259c-10.2,0-21.3-3.1-26.3-7.6c-3.3-2.9-3.2-5.7-2.5-7.6c5.5-14.9,3.7-52,3.7-52.3c0-0.3,0.1-0.5,0.3-0.7
	c0.2-0.2,0.4-0.3,0.7-0.3h40.7c0.6,0,1,0.4,1,1c0,0.3,0.8,30.9,2.8,53.8l0,0c0.4,4.8-1.8,8.6-6.6,11C230.2,258.2,225.2,259,220,259z
	 M197,192.5c0.3,6.3,1.3,38.1-3.9,52.1c-0.7,1.8,0,3.6,2,5.4c7,6.3,27.8,9.7,38,4.6c4-2,5.8-5,5.4-9c-1.9-20.7-2.7-47.6-2.8-53
	L197,192.5z"/>
<path class="st3" d="M263.9,146.8c-2.5-0.8-5.2,0.3-6.5,2.6c0.5-6.4,3.7-26.5,3.7-27.5c0-2.4-0.1-4.4-0.2-6.2
	c-1.7-25-23.4-43.8-48.4-42c-23.7,1.7-42.1,21.4-42.2,45.1c0,2.4,0,7.7,0.1,8.1c-0.1,1.4,1.5,16,2.2,21.6c-1.3-1.4-3.3-2.1-5.3-1.7
	c-3.2,0.7-5.5,3.6-5.4,6.9c0,4.6,1.4,9.1,4,12.9c2.8,3.5,6.6,4.8,10,3.8c2,14.6,11.4,28.9,24.9,35.4c26.1,12.6,49.8-11.8,54.7-36.3
	c0,1.2,4,1.5,4.7,1.3C269,169.1,274.1,149.6,263.9,146.8z"/>
<path class="st1" d="M215.2,210.2c-5.1,0-10.2-1.2-14.8-3.5c-13-6.3-22.9-19.9-25.3-35c-3.6,0.5-7.3-1.1-9.9-4.4
	c-2.7-4-4.2-8.7-4.1-13.6c0-3.7,2.5-6.9,6.1-7.8c1.4-0.4,3-0.2,4.3,0.6c-0.8-6.4-2-18.2-1.9-19.5c0-0.4-0.1-6-0.1-8.1
	c0-25.6,20.8-46.3,46.3-46.3c24.3,0,44.5,18.8,46.2,43.1c0.1,1.7,0.2,3.6,0.2,6.2c0,0.4-0.3,2.3-1,7.7s-1.8,12.4-2.3,17
	c1.6-1.1,3.6-1.3,5.5-0.8l0,0c4.2,1.1,6.5,5.1,6.3,10.5c-0.2,6.6-4.4,14.4-10.1,15.4c-1.4,0.1-2.9,0-4.3-0.5
	c-3.5,15.3-13.7,29-26.1,35.2C225.5,208.9,220.4,210.2,215.2,210.2z M175.9,169.4c0.2,0,0.4,0.1,0.6,0.2c0.2,0.2,0.4,0.4,0.4,0.7
	c2,14.9,11.6,28.4,24.3,34.6c8.8,4.4,19.1,4.4,27.9-0.1c12.2-6.1,22.4-20.3,25.4-35.5c0-0.6,0.4-1,1-1c0.6,0,1,0.4,1,1
	c1.1,0.4,2.3,0.6,3.6,0.5c4.7-0.9,8.2-7.9,8.5-13.6c0.1-2.1-0.2-7.2-4.9-8.5l0,0c-2.1-0.6-4.3,0.3-5.4,2.2c-0.3,0.5-0.9,0.6-1.4,0.3
	c-0.3-0.2-0.5-0.6-0.5-1c0.3-4,1.7-13.2,2.6-20c0.5-3.6,1-7,1-7.4c0-2.5-0.1-4.4-0.2-6c-1.7-24.4-22.9-42.8-47.3-41.1
	c-23.2,1.6-41.1,20.9-41.2,44.1c0,2.4,0,7.7,0.1,8c-0.1,1.4,1.5,16,2.2,21.6c0,0.4-0.2,0.8-0.5,1c-0.4,0.2-0.8,0.1-1.1-0.2
	c-1.1-1.2-2.7-1.8-4.3-1.5c-2.8,0.6-4.7,3.1-4.6,5.9c0,4.4,1.3,8.6,3.8,12.2c2.4,3,5.8,4.4,8.9,3.5
	C175.7,169.4,175.8,169.4,175.9,169.4z"/>
<path class="st11" d="M172.5,151.6c-1.3-1.2-3.8-1.8-4.9,0.1c-0.3,0.5-0.2,1.4,0.4,1.6c0.8,0.2,1.6,0,2.4,0.3c0.8,0.4,1.4,1.1,1.7,2
	c0.5,1.2,0,3.3,1.7,2.4c0.6-0.4,0.9-1,0.9-1.7C174.9,154.5,174.1,152.6,172.5,151.6z"/>
<path class="st11" d="M261.5,150.6c1.3-1.2,3.8-1.8,4.9,0.1c0.3,0.5,0.2,1.4-0.3,1.6c-0.8,0.2-1.6,0-2.4,0.3c-0.8,0.4-1.4,1.1-1.7,2
	c-0.5,1.2-0.4,4.9-2,4c-0.6-0.4-0.9-1-0.8-1.7C259,154.6,259.9,152.3,261.5,150.6z"/>
<path class="st1" d="M199.9,127.9c-0.6-0.9-1.9-1.1-2.8-0.5c-0.2,0.2-0.4,0.4-0.6,0.6c-0.9,2.1-0.6,4.3-0.5,6.6
	c0,2.6,0.1,5.1,0.2,7.6c0,1.2,1.1,2.2,2.3,2.2s2.2-1.1,2.2-2.3c0-2.6,0-5.1,0-7.7C200.7,132.1,200.9,130,199.9,127.9z"/>
<path class="st1" d="M235.6,127.8c-0.6-0.9-1.9-1.1-2.8-0.5c-0.2,0.2-0.4,0.4-0.6,0.6c-0.9,2.1-0.6,4.3-0.6,6.6
	c0.1,2.6,0.1,5.1,0.2,7.6c0,1.2,1.1,2.2,2.3,2.2c1.2,0,2.2-1.1,2.2-2.3c0-2.6,0-5.1,0-7.6C236.3,132.1,236.6,129.9,235.6,127.8z"/>
<path class="st11" d="M216.6,151c1.9,1.3,3.9,2.7,5,4.3c1.2,1.5,1,3.7-0.4,4.9c0,0-0.1,0.1-0.1,0.1c-1.2,0.9-2.6,1.4-4,1.4
	c-1.6,0.1-3.3-0.4-3.9-1.3s0.3-2,1.8-2.2c-1.3-1.4-2.1-3.2-2.1-5.1c-0.1-0.7,0.2-1.3,0.8-1.7C214.5,150.8,215.6,150.6,216.6,151z"/>
<path class="st1" d="M223.7,156.7c-0.5-2.7-3.9-4.8-7.6-6.4c-0.4-0.2-1.1,0.2-0.8,0.4c1.9,1.6,4.4,3.2,5.3,5.1c0.5,1,0.4,2.2-0.3,3
	c-0.8,0.9-2.1,1.3-3.2,2c-0.8,0.5-0.8,0.9,0.3,0.8C221.6,161.4,224.1,158.7,223.7,156.7z"/>
<path class="st1" d="M203.1,118.7c-0.2,0-0.5-0.1-0.6-0.2c-2.9-2.6-7.3-2.6-10.2,0c-0.4,0.4-1,0.4-1.4-0.1s-0.4-1,0.1-1.4
	c0.1-0.1,6.1-5.6,12.8,0c0.4,0.3,0.5,1,0.1,1.4c0,0,0,0,0,0C203.6,118.7,203.4,118.8,203.1,118.7z"/>
<path class="st1" d="M239.7,118.7c-0.2,0-0.5-0.1-0.6-0.2c-2.9-2.6-7.3-2.6-10.2,0c-0.4,0.4-1,0.4-1.4-0.1s-0.4-1,0.1-1.4
	c0.1-0.1,6.1-5.6,12.8,0c0.4,0.4,0.5,1,0.1,1.4C240.3,118.7,240,118.8,239.7,118.7L239.7,118.7z"/>
<path class="st8" d="M220.7,178.8c0.2-1.1-0.1-2.2-0.8-3c-1.7-1.9-4-2.1-6.4-1.8c-2.4,0.4-4.8,0.5-7.1,0.2c-1.6-0.4-3.1-1.1-4.6-1.8
	c0.1,0.1,0.1,0.8,0.1,1c0,0.4,0.1,0.7,0.1,1.1c0.1,0.6,0.1,1.3,0.2,1.9c0.1,1.1,0.2,2.2,0.3,3.2c0.2,2.1,0.6,4.1,1.2,6.1
	c0.5,1.9,1.3,3.7,2.4,5.3c1.3,1.6,3.2,2.6,5.3,2.9c5.6,0.9,7.2-6.5,8-9.1C219.9,183.7,220.7,178.8,220.7,178.8z"/>
<path class="st1" d="M220.1,178.6c0.3,1.6-14.1-0.2-18.3-6.3c0.1,0.3,0.2,0.7,0.2,1c0.1,0.4,0.1,0.8,0.2,1.1c0.1,0.7,0.2,1.4,0.2,2
	c0.1,1.4,0.2,2.8,0.4,4.2c0.6,3.2,1.1,5,3.7,7.3c2.7,2.2,6.5,2.8,9.8,1.3c1.2-0.8,2-2,2.4-3.4c0.6-2,1.1-4,1.4-6.1
	C220,179.4,220.1,179,220.1,178.6z"/>
<path class="st4" d="M220.1,178.6c0.3,1.6-14.1-0.2-18.3-6.3c0.4,2.7,0.2,2,0.5,3.9c1.2,7.3,16.3,10.4,17.1,6.7
	C219.9,180.7,220.1,178.6,220.1,178.6z"/>
<path class="st1" d="M213.1,190.6c-2.9-0.1-5.6-1.3-7.6-3.3c-2.1-2.5-3.3-7.4-3.7-15c0-0.2,0.1-0.4,0.3-0.5c0.2-0.1,0.4,0,0.6,0.2
	c4,5.7,14,6.7,17.4,6.2c0.2,0,0.3,0,0.4,0.1c0.1,0.1,0.2,0.3,0.1,0.4l-0.5,3.1c-0.4,2.1-0.8,4.5-2.2,6.4c-1.1,1.4-2.7,2.2-4.5,2.3
	L213.1,190.6z M202.9,173.8c0.4,6.5,1.6,10.7,3.4,12.9c1.9,1.9,4.4,2.9,7.1,2.9c1.5-0.1,2.8-0.8,3.8-1.9c1.3-1.7,1.7-3.9,2-5.9
	l0.4-2.5C216.2,179.5,207.5,178.8,202.9,173.8z"/>
<path class="st0" d="M262.8,142.3c2-5.9,3.3-12.1,3.8-18.3l-3.8-31.9l-27.5-18.5c-7.9-7.1-11.3-4.2-16.4-1.6l-0.6,0.2v-0.4l-0.2-1.1
	h-5.1l-32.7,5.9l-12.7,21L156.2,113c0,0,7,29.4,10.8,31.5l0.5,0.2c3.8,2.1,7.7,12.6,9.7,14.7s0.3-3.9,0.3-3.9
	c-1.1-5.3-3-16.4-2.8-18c6.8-0.7,16-17.2,20.6-22.4c5.5-6.3,8.9-14.1,12.3-21.8c-0.3,7.6-3,15-7.7,21c3.1,0.5,6.2-0.5,8.5-2.6
	c2.2-2.2,3.9-4.8,5.1-7.6c3-6.8,4.8-14.2,5.1-21.6c0.9,10.7-0.5,21.5-4,31.7c1.9-0.6,3.9,0,5.9,0.3s4.2,0.3,5.6-1.1
	c0.9-1,1.4-2.3,1.6-3.6c2-9,2.4-18.3,1.3-27.5c2.3,5,4.7,10,6,15.4s1.6,11.1-0.1,16.3c0.9,0.9,2.4,1,3.3,0.1c0,0,0,0,0.1-0.1
	c0.9-0.9,1.4-2.1,1.5-3.4c0.8-4.6,0-9.2-0.7-13.8c2.6,4.8,3.5,10.4,4.9,15.8s3.7,10.8,8.3,13.9c0,0,3.2,23.8,3,28.1s1.5,3.5,5.3-5.8
	c0.4-0.9,1.9-5.1,2.2-6L262.8,142.3z"/>
<path class="st1" d="M177.9,160.9c-0.5-0.1-1-0.3-1.4-0.7c-1.2-1.5-2.1-3.2-2.9-4.9c-1.6-3.3-3.7-7.5-5.8-8.6l1-1.8
	c2.7,1.5,4.8,5.7,6.6,9.5c0.5,1,1,2,1.4,2.8c-0.1-0.4-0.2-0.9-0.3-1.3c-0.9-4.6-3.1-16.5-2.8-18.4l0.1-0.8l0.8-0.1
	c4.5-0.5,10.7-9.3,15.2-15.7c1.9-2.6,3.5-4.9,4.8-6.4c5.5-6.2,8.8-14,12.1-21.5l2.1-4.9l-0.2,5.4c-0.3,7.2-2.7,14.2-6.8,20.1
	c2.2-0.1,4.4-1,6-2.6c2.1-2.1,3.7-4.5,4.8-7.3c3-6.7,4.7-14,5.1-21.3h2c0.8,10.3-0.4,20.7-3.5,30.5c1.2,0,2.4,0.1,3.6,0.4l1,0.2
	c2.2,0.4,3.8,0.1,4.8-0.8c0.7-0.9,1.2-1.9,1.3-3c2-9,2.4-18.3,1.2-27.4l-0.8-6.2l2.7,5.7c2.5,5,4.6,10.2,6.1,15.6
	c1.5,5.3,1.5,10.9,0.1,16.2c0.1,0,0.2,0.1,0.3,0.1c0.5,0,0.9-0.1,1.2-0.4c0.7-0.8,1.1-1.7,1.2-2.8c0.7-4.3,0-8.7-0.6-13l-0.9-6.2
	l2.7,5c2.1,3.8,3,8,4,12c0.3,1.3,0.6,2.7,1,4c1.8,6.7,4.3,10.9,7.9,13.3l0.4,0.2l0.1,0.4c0.1,1,3.2,23.9,3,28.3c0,0.3,0,0.6,0,0.8
	c1.4-2.2,2.5-4.6,3.4-7c0.3-0.7,0.6-1.5,0.9-2.3l1.9,0.7c-0.3,0.8-0.6,1.6-0.9,2.4c-3.6,8.6-4.9,9.1-6,8.9c-1.3-0.3-1.4-2-1.3-3.6
	c0.2-3.9-2.5-24.2-2.9-27.5c-3.8-2.8-6.5-7.3-8.4-14.2c-0.4-1.3-0.7-2.7-1-4.1s-0.6-2.5-0.9-3.8c0.1,1.9,0,3.9-0.3,5.8
	c-0.2,1.5-0.8,2.8-1.8,3.9c-0.8,0.7-1.8,1.1-2.8,1c-0.8,0-1.6-0.5-2.1-1.1l-0.3-0.4l0.2-0.5c1.5-4.6,1.6-9.9,0.1-15.8
	c-0.9-3.4-2.1-6.7-3.5-9.9c0.4,7.4-0.2,14.9-1.8,22.1c-0.2,1.5-0.8,2.9-1.8,4c-1.5,1.4-3.6,1.9-6.6,1.4l-1.1-0.2
	c-1.4-0.4-2.9-0.4-4.4-0.2l-1.9,0.5l0.6-1.8c2-5.9,3.3-12,3.9-18.2c-0.8,3-1.9,6-3.2,8.9c-1.2,3-3,5.7-5.3,8c-2.5,2.4-6,3.5-9.4,2.9
	l-1.5-0.3l1-1.2c3.1-4,5.3-8.6,6.5-13.4c-2.4,5.6-5.6,10.8-9.5,15.5c-1.2,1.4-2.8,3.6-4.6,6.2c-4.8,6.7-10.6,15-15.8,16.3
	c0.2,2.7,1.6,11.4,2.8,16.9c1.3,4.6,0.5,5.1,0,5.3C178.4,160.8,178.1,160.9,177.9,160.9z"/>
<path class="st12" d="M237.5,155.9c-0.2,0-0.3-0.5-0.2-1s0.3-0.9,0.5-0.9s0.3,0.5,0.2,1S237.7,155.9,237.5,155.9z"/>
<path class="st12" d="M246.2,154c-0.3,0-0.5-0.2-0.6-0.5c-0.1-0.3-0.1-0.6,0.2-0.7c0.2-0.1,0.4,0.2,0.6,0.5S246.4,154,246.2,154z"/>
<path class="st12" d="M241.8,159.4c-0.2,0-0.4-0.4-0.5-1s0-1,0.3-1.1s0.4,0.4,0.5,1S242,159.3,241.8,159.4z"/>
<path class="st12" d="M230.7,158.5c-0.2,0-0.2-0.6,0-1.1s0.4-1,0.7-0.9s0.2,0.6,0,1.1S231,158.5,230.7,158.5z"/>
<path class="st12" d="M191.9,154.8c-0.2,0-0.3-0.5-0.2-1s0.3-0.9,0.5-0.9s0.3,0.5,0.2,1S192.1,154.8,191.9,154.8z"/>
<path class="st12" d="M200.6,152.9c-0.3,0-0.5-0.2-0.6-0.5c-0.1-0.3-0.1-0.6,0.2-0.7c0.2-0.1,0.4,0.2,0.6,0.5
	S200.8,152.9,200.6,152.9z"/>
<path class="st12" d="M196.2,158.3c-0.2,0-0.4-0.4-0.5-1s0-1,0.3-1s0.4,0.4,0.5,1S196.4,158.2,196.2,158.3z"/>
<path class="st12" d="M190.7,160.8c-0.2,0-0.2-0.6,0-1.1s0.4-1,0.7-0.9s0.2,0.6,0,1.1S191,160.8,190.7,160.8z"/>
<path class="st12" d="M183.5,154c-0.2,0-0.2-0.6,0-1.1s0.4-1,0.7-0.9s0.2,0.6,0,1.1S183.8,154,183.5,154z"/>
<path class="st4" d="M119.6,257.9c0,0-21.9-3.2-23.5,11.9c-2.4,23.2-28,131.3-29.8,143.5s-9.5,70.5,0,121.8c7.7,41.5,8,60.5,8,60.5
	s32.2,7.2,33.7-4.6C122.6,472.6,117,450,117,450l18-104.1c0.2-1.1,0.1-32.1,0-34.5c-0.5-17.4-5.1-34.5-13.5-49.8L119.6,257.9z"/>
<path class="st4" d="M306.4,258.3c0,0,21.9-3.2,23.5,11.9c2.4,23.2,28,131.2,29.8,143.5s9.5,70.5,0,121.8c-7.7,41.5-8,60.5-8,60.5
	s-32.2,7.2-33.7-4.6c-14.7-118.4-9.1-141-9.1-141l-17.5-82.1c-1.5-8.8-2.6-53.8-0.9-68.3c1-7.6,3.1-15.1,6.5-22L306.4,258.3z"/>
<path class="st7" d="M125.6,257.9c0,0-21.9-3.2-23.5,11.9c-2.4,23.2-28,131.3-29.8,143.5s-9.5,70.5,0,121.8c7.7,41.5,8,60.5,8,60.5
	s32.2,7.2,33.7-4.6C128.6,472.6,123,450,123,450l18-104.1c0.2-1.1,0.1-32.1,0-34.5c-0.5-17.4-5.1-34.5-13.5-49.8L125.6,257.9z"/>
<path class="st7" d="M312.4,258.3c0,0,21.9-3.2,23.5,11.9c2.4,23.2,28,131.2,29.8,143.5s9.5,70.5,0,121.8c-7.7,41.5-8,60.5-8,60.5
	s-32.2,7.2-33.7-4.6c-14.7-118.4-9.1-141-9.1-141l-17.5-82.1c-1.5-8.8-2.6-53.8-0.9-68.3c1-7.6,3.1-15.1,6.5-22L312.4,258.3z"/>
<path class="st1" d="M92.9,598.7c-6.4-0.1-12.7-0.9-18.9-2.2l-0.8-0.2v-0.8c0-0.2-0.4-19.5-8-60.3c-9.7-52.1-1.7-110.9,0-122.1
	c0.7-4.5,4.4-21.3,9.2-42.7c8.1-36.3,19.1-86.1,20.7-100.8c0.3-3.6,2-6.8,4.8-9c7.1-5.5,19.3-3.9,19.8-3.8l0.5,0.1l2.2,4.1
	c8.4,15.5,13.1,32.7,13.6,50.3c0.1,2.1,0.2,33.4,0,34.7l-18,104c0.6,2.7,4.9,28.5-9.1,141.1c-0.2,2-1.3,3.8-3,4.9
	C102.9,598,98,598.7,92.9,598.7z M75.2,594.7c4,0.8,22.8,4.3,29.5-0.4c1.2-0.8,2-2.1,2.2-3.5c14.5-116.4,9.1-140.4,9.1-140.6V450
	v-0.2l18-104.1c0.1-1.2,0.1-31.4,0-34.3c-0.5-17.3-5.1-34.2-13.4-49.4l-1.7-3.2c-2.3-0.2-12.1-1-17.8,3.4c-2.4,1.8-3.9,4.6-4.1,7.6
	c-1.6,14.8-12.6,64.6-20.7,101c-4.7,21.3-8.5,38.1-9.1,42.6c-1.7,11.2-9.6,69.7,0,121.5C74,571.3,75.1,590.7,75.2,594.7z"/>
<path class="st1" d="M333.1,599.1c-5.1,0-10-0.7-13-2.8c-1.7-1.1-2.8-2.9-3-4.9c-14-112.3-9.7-138.3-9.1-141.1l-17.5-81.9
	c-1.6-8.8-2.7-54-0.9-68.6c1-7.7,3.2-15.3,6.5-22.3l9.6-20.2l0.5-0.1c0.5-0.1,12.7-1.8,19.8,3.8c2.8,2.2,4.6,5.5,4.8,9
	c1.5,14.7,12.6,64.4,20.7,100.8c4.7,21.3,8.5,38.2,9.2,42.7c1.7,11.2,9.6,70,0,122.1c-7.6,40.9-8,60.2-8,60.3v0.8l-0.8,0.2
	C345.8,598.3,339.4,599,333.1,599.1z M307.1,259.2l-9.1,19.2c-3.3,6.8-5.4,14.1-6.4,21.7c-1.8,14.5-0.7,59.4,0.9,68l17.6,82.3
	l-0.1,0.2c0,0.2-5.4,24.2,9.1,140.6c0.2,1.4,1,2.7,2.2,3.5c6.7,4.7,25.5,1.2,29.5,0.4c0.2-4,1.2-23.4,8-59.9
	c9.6-51.8,1.7-110.3,0-121.5c-0.7-4.4-4.4-21.2-9.1-42.5c-8.1-36.4-19.1-86.2-20.7-101c-0.2-3-1.7-5.8-4.1-7.6
	C319.2,258.3,309.5,259,307.1,259.2L307.1,259.2z"/>
</svg>
