<?xml version="1.0" encoding="utf-8"?>
<!-- Generator: Adobe Illustrator 25.4.1, SVG Export Plug-In . SVG Version: 6.00 Build 0)  -->
<svg version="1.1" id="Cliente_3" xmlns="http://www.w3.org/2000/svg" xmlns:xlink="http://www.w3.org/1999/xlink" x="0px" y="0px"
	 viewBox="0 0 432 589" style="enable-background:new 0 0 432 589;" xml:space="preserve">
<style type="text/css">
	.st0{fill:#FFCCBC;}
	.st1{fill:none;}
	.st2{fill:#59316D;}
	.st3{fill:#FFFFFF;}
	.st4{fill:#535C89;}
	.st5{fill:#FFAC90;}
	.st6{opacity:0.25;}
	.st7{fill:#FF5151;}
	.st8{fill:#784B3E;}
	.st9{fill:#663E33;}
</style>
<path class="st0" d="M272.1,295.1c-0.9-6.7-1-13.5-0.4-20.3c1.8-19,22.6-21.9,40-18.9c13.5,2.4,23.7,13.6,24.7,27.3l27.8,156.7
	c0,0.3,0.1,0.6,0.1,0.9l0.2,1.4h0c1.3,15.5-10.3,29-25.7,30.3s-29-10.3-30.3-25.7l-26-109.7C278.5,321.1,274.1,311.9,272.1,295.1z"
	/>
<path class="st0" d="M309.2,489.7c0.3,12.3,1.5,24.6,3.3,36.7c5.4,35.1,14.4,81.9,14.4,81.9c-5,2.3-9.3,5.9-12.3,10.5
	c-3.3,5.4-5.2,11.6-5.5,17.9l-0.9,16.2c-0.2,2.4,1.7,4.5,4,4.6c1.6,0.1,3.1-0.7,4-2l5.8-20.7c0.3,2.7,4.9,24.4,5.1,26.2
	c-0.3,16.5-3.2,32.9,4.4,34.2c9.6,1.6,25.5-11.6,28.3-42.9c1.3-14.6-0.1-29.3-4.2-43.3v-0.4c-0.1-1.3-0.3-2.6-0.8-3.9
	c2.4-20.8,12.5-98.7,11-128.2l-1.6-30.8c-1.2-15.5-14.7-27.1-30.1-25.9c-13,1-23.6,10.8-25.6,23.7c-0.3,1.7-0.4,3.4-0.3,5.1
	L309.2,489.7z"/>
<path class="st0" d="M154.3,295.1c0.9-6.7,1-13.5,0.4-20.3c-1.8-19-22.6-21.9-40-18.9c-13.5,2.3-23.7,13.6-24.7,27.3L62.3,439.9
	c0,0.3-0.1,0.6-0.1,0.9l-0.1,1.4l0,0c-1.3,15.5,10.3,29,25.7,30.3s29-10.3,30.3-25.7l26-109.7C147.8,321.1,152.3,311.9,154.3,295.1z
	"/>
<path class="st0" d="M70.7,608.5v0.4c-4.1,14.1-5.5,28.8-4.2,43.3c2.8,31.3,18.7,44.5,28.3,42.9c7.6-1.3,4.8-17.7,4.4-34.2
	c0.2-1.8,4.8-23.6,5.1-26.2l5.8,20.7c1.3,2,4,2.6,6,1.4c1.3-0.8,2.1-2.4,2-4l-0.9-16.2c-0.3-6.3-2.2-12.5-5.5-17.9
	c-3.1-4.6-7.3-8.2-12.3-10.5c0,0,9-46.8,14.4-81.9c1.9-12.2,3-24.4,3.3-36.7l1-41.1c0-1.7-0.1-3.4-0.3-5.1
	c-2.4-15.3-16.7-25.8-32.1-23.5c-12.9,2-22.7,12.6-23.7,25.6l-1.6,30.8c-1.5,29.5,8.6,107.4,11,128.2
	C71,605.9,70.8,607.2,70.7,608.5z"/>
<path class="st1" d="M71.5,713c69.3,6.5,138.8,11.1,208.2,15.7c29.9,2,59.7,4,89.6,6V26.3H58.9v685.6L71.5,713z"/>
<path class="st2" d="M119.3,652.8l-0.9-16.2c-0.3-6.5-2.2-12.9-5.7-18.5c-3-4.5-7.1-8.2-12-10.5c1.3-6.6,9.3-49,14.3-81.1
	c1.9-12.2,3.1-24.6,3.4-36.9l1-41.2v-2.3l8.2-34.4c2.1,45.8,4.6,100.9,4.6,101.5c0,0.1,0,0.2,0,0.2c-0.9,5.5-9.4,56.2-10.6,71.5
	c-0.6,7.5-1.2,14.6-1.3,23.4c0,0.4-0.1,0.8-0.1,1.1c-0.1,0.6-0.1,1.1-0.1,1.8l0.1,2.3c0,9.1,0.5,19.3,1.4,31.3l0.6,14.5h1.1
	l-1.1,0.2l0.6,15.6c0.7,0.1,1.4,0.1,2.2,0.2l-0.6-15.8v-0.2l-0.6-14.5c-0.9-12-1.4-22.2-1.4-31.2l-0.1-2.3c0-0.5,0.1-1.1,0.1-1.6
	c0-0.4,0.1-0.7,0.1-1.2c0.2-8.8,0.7-15.8,1.3-23.3c1.3-16.1,10.6-71.3,10.7-71.8c0-0.2,0-0.5-0.1-0.7c-0.3-5.9-2.9-64.1-5-109
	c0-0.5-0.4-0.9-0.8-1c-0.6-0.2-1.2,0.2-1.4,0.8L117,446c0,0.1,0,0.2,0,0.3v2.2l-1,41.2c-0.3,12.3-1.5,24.5-3.3,36.6
	c-5.3,34.7-14.3,81.4-14.4,81.9c-0.1,0.5,0.2,1,0.7,1.2c4.8,2.2,8.9,5.7,11.8,10.1c3.2,5.2,5,11.2,5.3,17.4L117,653
	c0,1-0.5,2-1.3,2.6c-1.4,1.1-3.4,0.8-4.5-0.6l-5.8-20.5c-0.1-0.4-0.5-0.7-0.9-0.8c-0.6-0.1-1.2,0.3-1.3,1c-0.2,1.5-1.8,9.7-3.2,16.3
	c-1.2,5.7-1.9,9.2-2,9.9v0.2c0.1,3.4,0.2,6.8,0.4,10.1c0.6,11.9,1.1,22.2-3.9,23c-3.1,0.5-6.9-0.7-10.5-3.5
	c-4.2-3.3-14.3-13.5-16.5-38.4c-1.3-14.4,0.1-29,4.2-42.9c0-0.1,0.1-0.2,0.1-0.3v-0.4c0.1-1.2,0.3-2.4,0.7-3.6
	c0.1-0.2,0.1-0.3,0.1-0.5c-0.3-2.7-0.8-6.3-1.3-10.7c-3.6-29.8-11-91.7-9.7-117.2l1.6-30.6v-0.1c-0.1-1.2-0.1-2.4,0-3.6
	c0-0.1,0-0.2,0-0.3l0.1-1.1c0-0.3,0.1-0.6,0.1-0.8l27.8-156.7c0,0,0-0.1,0-0.1c0.7-10.5,7.2-19.8,16.7-24.1c0.1,0,0.1-0.1,0.2-0.1
	c15.5-10.5,38-16.6,52.5-18.6c5.5-0.8,11.6-3.3,17.5-5.8c4-1.7,8-3.2,12.1-4.5c0.1,0,0.1,0,0.2-0.1c0.6-0.2,0.9-0.9,0.6-1.5
	c-0.2-0.6-0.9-0.9-1.5-0.6c-4.2,1.3-8.2,2.9-12.2,4.6c-6,2.5-11.7,4.9-16.9,5.6c-14.7,2.1-37.5,8.3-53.3,18.9
	c-10.3,4.7-17.2,14.6-18,25.9L61.2,439.8c0,0.3-0.1,0.6-0.1,0.9l-0.2,1.4c0,0.1,0,0.3,0,0.4c0,1.2,0,2.3,0.1,3.5l-1.7,30.5
	C58,502.2,65.5,564.2,69,594c0.5,4.2,1,7.8,1.2,10.5c-0.4,1.3-0.7,2.6-0.8,4v0.2c-4.1,14.2-5.5,29-4.2,43.7c1.6,18.2,8,32.7,17.4,40
	c4.1,3.2,8.5,4.6,12.2,4c7-1.2,6.5-11.8,5.8-25.3c-0.2-3.2-0.3-6.6-0.4-9.9c0.2-0.9,1-5.2,1.9-9.7c0.8-4,1.7-8.3,2.3-11.6l4.5,16
	c0,0.1,0.1,0.2,0.1,0.3c1.1,1.6,2.9,2.6,4.9,2.5C117.1,658.4,119.5,655.9,119.3,652.8z"/>
<path class="st2" d="M356.9,608.6c-0.1-1.4-0.3-2.7-0.8-4c0.3-2.7,0.7-6.2,1.2-10.5c3.6-29.8,11.1-91.8,9.7-117.6l-1.6-30.5
	c0.1-1.1,0.1-2.3,0-3.5c0-0.1,0-0.3,0-0.4l-0.2-1.3c0-0.3-0.1-0.7-0.1-1l-27.8-156.7c-0.9-11.7-8.3-21.9-19.1-26.4
	c-15.8-10.4-38.2-16.5-52.6-18.5c-5.3-0.8-10.8-3.2-16.1-5.7c-3.8-1.8-7.6-3.4-11.6-4.7c-0.6-0.2-1.2,0.2-1.4,0.7
	c-0.2,0.6,0.2,1.2,0.7,1.4c3.9,1.3,7.6,2.8,11.3,4.6c5.5,2.5,11.1,5.1,16.7,5.9c14.2,2,36.3,8,51.8,18.2c0.1,0,0.1,0.1,0.2,0.1
	c10.1,4.1,17,13.7,17.8,24.5c0,0,0,0.1,0,0.1l27.8,156.7c0,0.3,0.1,0.6,0.1,0.9l0.1,1c0,0.1,0,0.2,0,0.3c0.1,1.2,0.1,2.4,0,3.6
	c0,0,0,0.1,0,0.1l1.6,30.6c1.3,25.6-6.1,87.5-9.7,117.2c-0.5,4.4-1,8-1.3,10.7c0,0.2,0,0.3,0.1,0.5c0.4,1.1,0.6,2.4,0.7,3.6v0.4
	c0,0.1,0,0.2,0,0.3c4,13.9,5.4,28.5,4.2,42.9c-2.2,24.8-12.3,35.1-16.5,38.4c-3.6,2.8-7.4,4.1-10.5,3.5c-5.1-0.8-4.5-11.1-3.9-23
	c0.2-3.3,0.3-6.7,0.4-10.1c0-0.1,0-0.1,0-0.2c-0.1-0.8-0.8-4.3-2-10c-1.3-6.6-3-14.7-3.2-16.2c-0.1-0.5-0.5-0.9-1-1
	c-0.5,0-1,0.3-1.2,0.8l-5.8,20.6c-0.6,0.9-1.7,1.4-2.8,1.3c-1.8-0.1-3.1-1.6-3-3.4l0.9-16.2c0.3-6.1,2.1-12.1,5.3-17.4
	c2.9-4.4,7-7.9,11.8-10.1c0.5-0.2,0.8-0.7,0.7-1.2c-0.1-0.5-9.1-47.2-14.4-81.9c-1.9-12.1-3-24.3-3.3-36.6l-1-41.2
	c-0.1-0.7,0-1.4,0-2.2c0-0.1,0-0.2,0-0.3l-8.9-37.6c-0.1-0.5-0.5-0.8-1-0.9c-0.6,0-1.1,0.5-1.2,1.1c-1.8,42.8-3.9,98.5-4.1,104.2
	c-0.1,0.2-0.1,0.5-0.1,0.7c0.1,0.6,9.4,55.7,10.7,71.8c0.6,7.5,1.2,14.5,1.3,23.4c0,0.4,0.1,0.7,0.1,1.1c0.1,0.5,0.1,1.1,0.1,1.5
	l-0.1,2.5c0,9-0.5,19.2-1.4,31.2l-0.9,25.5c0.7-0.1,1.5-0.2,2.2-0.3l1-25.2c0.9-12,1.4-22.3,1.4-31.3l0.1-2.5c0-0.6-0.1-1.1-0.1-1.7
	c0-0.3-0.1-0.7-0.1-1c-0.2-8.9-0.7-16-1.3-23.4c-1.2-15.4-9.7-66-10.6-71.5c0-0.1,0-0.2,0-0.2c0-0.5,2-52.9,3.8-96.5l7,29.5v2.2
	l1,41.2c0.3,12.3,1.5,24.7,3.3,36.9c4.9,32.1,13,74.5,14.2,81.1c-4.9,2.4-9,6-12,10.5c-3.4,5.6-5.4,11.9-5.7,18.5l-0.8,16.3
	c-0.1,1.9,0.8,3.7,2.4,4.8c2.5,1.7,5.9,1,7.6-1.5c0.1-0.1,0.1-0.2,0.1-0.3l4.5-16c0.6,3.2,1.5,7.5,2.3,11.5c0.9,4.5,1.8,8.8,1.9,9.8
	c-0.1,3.3-0.2,6.7-0.4,9.9c-0.7,13.5-1.2,24.2,5.8,25.3c3.8,0.6,8.1-0.8,12.2-4c9.4-7.3,15.8-21.9,17.4-40
	c1.3-14.7-0.2-29.5-4.2-43.7V608.6z"/>
<path class="st2" d="M211,677.7l3.2-24.2l3.2,24.1c0.7,0,1.5,0,2.2-0.1l-4.3-32.6c-0.1-0.6-0.6-1-1.1-1c-0.6,0-1.1,0.4-1.1,1
	l-4.4,32.9C209.5,677.7,210.3,677.7,211,677.7z"/>
<path class="st0" d="M150.6,299.2c1-6.7,1.2-13.5,0.7-20.2"/>
<path class="st3" d="M150.6,296.9c1-6.7,1.2-13.5,0.7-20.2c-1.5-19-19-29.1-35.8-23.7c-28.6,9.2-32.6,37.2-34,42.3
	c0,0-15.8,62.4-19.9,65.1c0,0,63.8,38.7,71.6,23.7C140.6,369.5,148.3,313.7,150.6,296.9z"/>
<path class="st3" d="M275.7,296.9c-1-6.7-1.2-13.5-0.7-20.2c1.5-19,19-29.1,35.8-23.7c28.6,9.2,32.6,37.2,34,42.3
	c0,0,18.2,62.4,22.4,65.1c0,0-63.8,38.7-71.6,23.7C288,369.5,278,313.7,275.7,296.9z"/>
<path class="st3" d="M330,266.3c-13.5-16.9-45.1-28.4-63-33.3c-11.7-3.2-29.5-7.7-29.5-7.7c3.2,7.9,5.3,17.2-6.1,22.7
	c-10.7,4.4-22.7,4-33.1-1.1c-8.1-3.9-11.7-10.4-10-16.1c0.8-2.2,1.6-5,1.6-5c-10.4,1.1-20.7,3.2-30.7,6.2
	c-22.2,6.7-50.1,17.4-63.5,34.4c-13.7,17.2,7.9,37.2,15.8,51.7c7.7,14.2,12,23.5,12.9,39.6c1,17.2,0.7,97.1,0.7,129.4
	c0.1,27.1-12,105.7-12,105.7c33,37.3,170.4,35.1,199.3,6.1c0,0-9.2-92.5-8.9-112.7c0.7-41.8-3-112.9-2.1-128.5
	c0.9-16.1,5.2-25.4,12.9-39.6C322.1,303.5,343.7,283.5,330,266.3z"/>
<path class="st4" d="M156.6,296.9c1-6.7,1.2-13.5,0.7-20.2c-1.5-19-19-29.1-35.8-23.7c-28.6,9.2-32.6,37.2-34,42.3
	c0,0-15.8,62.4-19.9,65.1c0,0,63.8,38.7,71.6,23.7C146.6,369.5,154.3,313.7,156.6,296.9z"/>
<path class="st4" d="M281.7,296.9c-1-6.7-1.2-13.5-0.7-20.2c1.5-19,19-29.1,35.8-23.7c28.6,9.2,32.6,37.2,34,42.3
	c0,0,18.2,62.4,22.4,65.1c0,0-63.8,38.7-71.6,23.7C294,369.5,284,313.7,281.7,296.9z"/>
<path class="st4" d="M336,266.3c-13.5-16.9-45.1-28.4-63-33.3c-11.7-3.2-29.5-7.7-29.5-7.7c-2.8,0-47.5,0.4-47.5,0.4
	c-10.4,1.1-20.7,3.2-30.7,6.2c-22.2,6.7-50.1,17.4-63.5,34.4c-13.7,17.2,7.9,37.2,15.8,51.7c7.7,14.2,12,23.5,12.9,39.6
	c0.9,17.2,0.7,97.1,0.7,129.4c0,27.1-12.1,105.8-12.1,105.8c33,37.3,170.4,35.1,199.3,6.1c0,0-9.2-92.5-8.9-112.7
	c0.7-41.8-3-112.9-2.1-128.5c0.9-16.1,5.2-25.4,12.9-39.6C328.1,303.5,349.7,283.5,336,266.3z"/>
<path class="st2" d="M218,621.7c-3.2,0-6.4-0.1-9.7-0.2c-45.8-1.4-81.7-11.9-96.1-28.2l-0.3-0.4l0.1-0.5
	c0.1-0.8,12.1-78.8,12.1-105.6c0-5.1,0-11.4,0-18.5c0-23.5,0.1-55.6-0.1-79.7c-19.9-1.3-61.1-26.2-62.9-27.3l-0.9-0.5l0.4-0.9
	c3.3-7,19.7-64.3,19.9-64.9c0.1-0.4,0.2-0.9,0.4-1.6c1.4-6.2,5.2-22.7,19.6-33.8c11.8-11,31-20.4,58.5-28.8
	c10.1-3,20.5-5.1,30.9-6.3c2,0,46-0.4,47.7-0.4h0.3c0.2,0,18,4.5,29.6,7.7c8.4,2.3,37.2,11,55.2,25.5c17.1,10.9,21.3,29.2,22.9,36.1
	c0.1,0.7,0.3,1.2,0.4,1.6c6.8,20.8,20.2,61.1,22.3,64.8l0.5,0.9l-0.9,0.6c-1.9,1.1-45.2,27.3-64.4,27.3h-0.4
	c0.1,5,0.3,10.5,0.5,16.1c0.8,26,1.7,58.3,1.3,81.3l0,0c-0.4,19.9,8.8,111.6,8.8,112.6l0,0.5l-0.4,0.4
	C299.7,612.9,261.4,621.7,218,621.7z M114.2,592.3c14.2,15.6,49.3,25.7,94.2,27c46.4,1.4,88.4-7.2,102.8-21
	c-0.8-7.6-9.1-93.1-8.8-112.3c0.4-22.9-0.5-55.2-1.3-81.2c-0.2-6.1-0.4-11.9-0.5-17.3v-1.3l1.3,0.1c16.1,1.5,57.4-22.5,63.9-26.4
	c-3.9-9.1-21.2-62-22-64.3c-0.1-0.5-0.3-1.1-0.4-1.8c-1.5-6.6-5.5-24.3-21.9-34.7l-0.1-0.1c-17.6-14.2-46.1-22.8-54.4-25.1
	c-11-3-27.7-7.2-29.4-7.6c-3.2,0-46.9,0.4-47.4,0.4c-10.3,1.2-20.5,3.2-30.4,6.2c-27.2,8.3-46.1,17.5-57.7,28.3l-0.1,0.1
	C88,271.9,84.4,287.9,83,293.9c-0.2,0.7-0.3,1.3-0.4,1.7C82,297.9,67.1,349.9,63,360c6.2,3.7,44.7,26.1,62,26.5h1.1v1.1
	c0.2,24.2,0.2,56.9,0.1,80.8c0,7.1,0,13.4,0,18.5C126.2,512.6,115.2,585.3,114.2,592.3z"/>
<path class="st2" d="M124.9,390.9L124.9,390.9c-0.7,0-1.2-0.5-1.1-1.2c0.2-4.7,0.7-9.1,1.1-13.3s0.9-8.5,1.1-13.1s0.7-8.4,1.1-12
	s0.9-7.2,1.1-11.9c0-0.6,0.5-1.1,1.1-1.1h0.1c0.6,0,1.1,0.5,1.1,1.2c-0.2,4.7-0.6,8.4-1.1,12s-0.9,7.2-1.1,11.9s-0.7,9.1-1.1,13.3
	s-0.9,8.5-1.1,13.1C125.9,390.5,125.5,390.9,124.9,390.9z"/>
<path class="st2" d="M301.5,392.2c-0.6,0-1.1-0.5-1.1-1.1c-0.2-4.7-0.4-9.3-0.7-13.7s-0.5-9-0.7-13.7s-0.4-8.4-0.6-12.1
	s-0.4-7.5-0.6-12.1c0-0.6,0.6-1.1,1.2-1.1c0.5,0,1,0.4,1.1,1c0.2,4.7,0.4,8.4,0.6,12.1s0.4,7.5,0.6,12.1s0.5,9.2,0.7,13.7
	s0.5,9,0.7,13.7C302.7,391.6,302.2,392.2,301.5,392.2C301.6,392.2,301.6,392.2,301.5,392.2L301.5,392.2z"/>
<path class="st2" d="M213.4,203.8c-16.7,0-36.4-11.2-40.4-35.8v-0.3c-0.2-1-0.7-4.3-1.4-8.7c-3.4,0.5-7.1-1.3-9.6-4.7
	c-2.6-3.7-3.9-8-3.7-12.5c0.2-4.8,2.5-8.8,5.7-9.7c1.3-0.4,2.8-0.2,4,0.4c-0.5-4-0.8-8.1-0.9-12.1c0-1.4,0-3,0.1-4.6
	c-0.1-1.1-0.1-2.2-0.1-3.2c0-1.2,0-2.4,0.1-3.6c-0.3-2.1-0.4-4.3-0.4-6.4c0-9.5,2.9-18.8,8.4-26.6c4.3-7.2,10.9-12.6,18.7-15.5
	c5.9-2.7,12.4-4.1,18.9-4.1c25,0.1,45.4,20.1,46.1,45.1c0.6,3.6,0.9,7.3,0.9,11c0,1,0,2-0.1,3.1c0.1,1.6,0.1,3.2,0.1,4.7
	c0,2.8-0.2,7.2-0.6,13c1.5-1.3,3.5-1.8,5.4-1.3l0,0c3.1,0.9,5.4,4.9,5.7,9.7c0.1,4.5-1.2,8.8-3.7,12.5c-2.5,3.4-6.1,5.1-9.5,4.7
	c-0.6,6.2-1.1,10.9-1.2,11.3C251.3,200.5,224.6,203.8,213.4,203.8z M172.4,156.5c0.2,0,0.4,0.1,0.6,0.2c0.3,0.2,0.5,0.5,0.5,0.8
	c0.8,5,1.4,8.8,1.6,9.9v0.3c3.7,23.3,22.4,33.9,38.2,33.9c10.7,0,35.9-3.1,40.2-31.6c0.1-0.3,0.6-5.4,1.3-12.4
	c0-0.3,0.2-0.6,0.5-0.8c0.3-0.2,0.7-0.2,1-0.1c2.9,0.9,6.1-0.4,8.4-3.6c2.3-3.2,3.4-7.1,3.3-11.1c-0.2-3.8-1.9-7-4-7.7l0,0
	c-1.7-0.5-3.8,0.8-5.1,3.1c-0.3,0.5-0.8,0.7-1.3,0.5c-0.5-0.2-0.8-0.6-0.8-1.2c0.6-7.5,0.9-12.9,0.9-16.3c0-1.4,0-3-0.1-4.7
	c0-1.2,0.1-2.2,0.1-3.1c0-3.6-0.3-7.2-0.9-10.8c0-0.1,0-0.1,0-0.2c-0.6-23.8-20-42.9-43.8-43c-6.2,0-12.4,1.3-18.1,3.9
	c-7.4,2.7-13.7,7.8-17.7,14.6c-5.3,7.4-8.1,16.3-8.1,25.4c0,2.1,0.2,4.1,0.4,6.2c0,0.1,0,0.1,0,0.2c0,1.2-0.1,2.4-0.1,3.6
	c0,1,0,2,0.1,3.2c-0.1,1.7-0.1,3.2-0.1,4.7c0.1,4.8,0.5,9.6,1.1,14.4c0.1,0.5-0.2,0.9-0.6,1.1c-0.4,0.2-0.9,0.1-1.3-0.2
	c-1.3-1.3-2.8-1.9-3.9-1.5c-2.2,0.6-3.9,3.9-4,7.7c-0.1,3.9,1,7.8,3.3,11.1c2.3,3.1,5.4,4.4,8.4,3.6
	C172.3,156.5,172.4,156.4,172.4,156.5L172.4,156.5z"/>
<path class="st0" d="M238.2,234.1c2,20.2-54.9,11.6-49.7-1.1c6-14.6,4-50.6,4-50.6h42.8C235.2,182.4,236,211.8,238.2,234.1z"/>
<path class="st5" d="M235.5,183.5c-8.2,2.9-14,2.9-23,2.5c-8,0-12.3-1.5-19.7-3.6c0,0,0,13.9,0,15.7c6.3,5.5,12.2,12.3,21.4,12.3
	c8.2,0,15.8-5.8,21.8-10.1C235.9,200.4,235.5,185.1,235.5,183.5z"/>
<path class="st2" d="M217.7,247.3c-11.1,0-23.2-3.2-28.2-7.8c-2.9-2.7-2.7-5.3-2.1-7c5.8-14.2,3.9-49.8,3.9-50.1l-0.1-1.2h45v1.1
	c0,0.3,0.8,29.6,3,51.7l0,0c0.4,4.6-1.8,8.2-6.4,10.5C228.9,246.5,223.4,247.3,217.7,247.3z M193.7,183.5c0.3,6.5,1.3,36.6-4.1,49.9
	c-0.6,1.5-0.1,3,1.5,4.5c6.9,6.4,30,10,40.8,4.6c3.8-1.9,5.6-4.7,5.2-8.2l0,0c-1.9-19.7-2.8-45.2-3-50.7H193.7z"/>
<path class="st0" d="M264.2,133.1c-2.2-0.6-4.8,0.9-6.4,3.6c0.5-6.6,0.9-12.6,0.9-16.3c0-1.6,0-3.2-0.1-4.7c0-1,0.1-2,0.1-3.1
	c0-3.7-0.3-7.3-0.9-10.9c-0.5-24.8-21.1-44.6-45.9-44c-6.1,0.1-12,1.5-17.5,4c-7.6,2.8-14.1,8.1-18.2,15.1
	c-5.4,7.6-8.3,16.6-8.2,25.9c0,2.1,0.2,4.2,0.5,6.3c0,1.2-0.1,2.4-0.1,3.7c0,1.1,0,2.2,0.1,3.2c-0.1,1.5-0.1,3-0.1,4.6
	c0.1,4.9,0.5,9.7,1.2,14.5c-1.5-1.6-3.4-2.3-5.1-1.8c-2.7,0.8-4.7,4.5-4.9,8.7c-0.1,4.2,1.1,8.3,3.5,11.8c2.6,3.6,6.4,4.9,9.6,4
	c0.9,5.8,1.6,9.9,1.6,10.2c4,24.7,24,34.9,39.3,34.9c15.1,0,37.3-5.6,41.3-32.6c0.1-0.4,0.6-5.5,1.3-12.5c3.2,1,7-0.3,9.6-3.9
	c2.4-3.4,3.6-7.6,3.5-11.8C268.8,137.6,266.9,133.9,264.2,133.1z"/>
<path class="st5" d="M168.4,138.4c-1.3-1.1-3.6-1.7-4.7,0.1c-0.3,0.5-0.2,1.4,0.3,1.5c0.8,0.2,1.6,0,2.3,0.3
	c0.8,0.4,1.3,1.1,1.6,1.9c0.4,1.2,0.4,4.7,1.9,3.8c0.5-0.3,0.9-1,0.8-1.6C170.8,142.2,170,140,168.4,138.4z"/>
<path class="st5" d="M262.3,139.6c1.3-1.1,3.6-1.7,4.7,0.1c0.3,0.5,0.2,1.4-0.3,1.5c-0.8,0.2-1.5,0-2.3,0.3
	c-0.8,0.4-1.3,1.1-1.6,1.9c-0.5,1.2-0.4,4.7-1.9,3.8c-0.5-0.3-0.9-1-0.8-1.6C259.9,143.3,260.7,141.1,262.3,139.6z"/>
<path class="st2" d="M213.4,203.8c-16.7,0-36.4-11.2-40.4-35.8v-0.3c-0.2-1-0.7-4.3-1.4-8.7c-3.4,0.5-7.1-1.3-9.6-4.7
	c-2.6-3.7-3.9-8-3.7-12.5c0.2-4.8,2.5-8.8,5.7-9.7c1.3-0.4,2.8-0.2,4,0.4c-0.5-4-0.8-8.1-0.9-12.1c0-1.4,0-3,0.1-4.6
	c-0.1-1.1-0.1-2.2-0.1-3.2c0-1.2,0-2.4,0.1-3.6c-0.3-2.1-0.4-4.3-0.4-6.4c0-9.5,2.9-18.8,8.4-26.6c4.3-7.2,10.9-12.6,18.7-15.5
	c5.9-2.7,12.4-4.1,18.9-4.1c25,0.1,45.4,20.1,46.1,45.1c0.6,3.6,0.9,7.3,0.9,11c0,1,0,2-0.1,3.1c0.1,1.6,0.1,3.2,0.1,4.7
	c0,2.8-0.2,7.2-0.6,13c1.5-1.3,3.5-1.8,5.4-1.3l0,0c3.1,0.9,5.4,4.9,5.7,9.7c0.1,4.5-1.2,8.8-3.7,12.5c-2.5,3.4-6.1,5.1-9.5,4.7
	c-0.6,6.2-1.1,10.9-1.2,11.3C251.3,200.5,224.6,203.8,213.4,203.8z M172.4,156.5c0.2,0,0.4,0.1,0.6,0.2c0.3,0.2,0.5,0.5,0.5,0.8
	c0.8,5,1.4,8.8,1.6,9.9v0.3c3.7,23.3,22.4,33.9,38.2,33.9c10.7,0,35.9-3.1,40.2-31.6c0.1-0.3,0.6-5.4,1.3-12.4
	c0-0.3,0.2-0.6,0.5-0.8c0.3-0.2,0.7-0.2,1-0.1c2.9,0.9,6.1-0.4,8.4-3.6c2.3-3.2,3.4-7.1,3.3-11.1c-0.2-3.8-1.9-7-4-7.7l0,0
	c-1.7-0.5-3.8,0.8-5.1,3.1c-0.3,0.5-0.8,0.7-1.3,0.5c-0.5-0.2-0.8-0.6-0.8-1.2c0.6-7.5,0.9-12.9,0.9-16.3c0-1.4,0-3-0.1-4.7
	c0-1.2,0.1-2.2,0.1-3.1c0-3.6-0.3-7.2-0.9-10.8c0-0.1,0-0.1,0-0.2c-0.6-23.8-20-42.9-43.8-43c-6.2,0-12.4,1.3-18.1,3.9
	c-7.4,2.7-13.7,7.8-17.7,14.6c-5.3,7.4-8.1,16.3-8.1,25.4c0,2.1,0.2,4.1,0.4,6.2c0,0.1,0,0.1,0,0.2c0,1.2-0.1,2.4-0.1,3.6
	c0,1,0,2,0.1,3.2c-0.1,1.7-0.1,3.2-0.1,4.7c0.1,4.8,0.5,9.6,1.1,14.4c0.1,0.5-0.2,0.9-0.6,1.1c-0.4,0.2-0.9,0.1-1.3-0.2
	c-1.3-1.3-2.8-1.9-3.9-1.5c-2.2,0.6-3.9,3.9-4,7.7c-0.1,3.9,1,7.8,3.3,11.1c2.3,3.1,5.4,4.4,8.4,3.6
	C172.3,156.5,172.4,156.4,172.4,156.5L172.4,156.5z"/>
<path class="st2" d="M206.7,98.1c-3.8-2.7-8.5-3.6-13-2.6c-2.9,0.7-9,3-8.1,6.8c0.1,0.4,0.5,0.8,0.9,0.9c2.7,0.7,5-2.3,7.5-3
	c3.8-1,7.2,0,10.4,2C207,103.8,209,99.8,206.7,98.1z"/>
<path class="st2" d="M241.6,99c-3.5-3-8.2-4.3-12.7-3.7c-3,0.4-9.2,2.2-8.6,6.1c0.1,0.5,0.4,0.8,0.9,1c2.6,0.9,5.1-1.9,7.7-2.4
	c3.8-0.7,7.2,0.6,10.2,2.8C241.5,104.6,243.8,100.8,241.6,99z"/>
<path class="st2" d="M197.4,114.1c-0.5-0.9-1.7-1.1-2.6-0.6c-0.3,0.2-0.5,0.4-0.6,0.7c-0.9,2-0.6,4.1-0.5,6.3
	c0.1,2.4,0.1,4.9,0.2,7.3c0.1,1.2,1.1,2.1,2.3,2c1.1-0.1,1.9-1,2-2.1c0-2.4,0-4.9,0-7.3C198.1,118.2,198.3,116.1,197.4,114.1z"/>
<path class="st2" d="M231.6,114c-0.6-0.9-1.7-1.1-2.6-0.6c-0.3,0.2-0.5,0.4-0.6,0.7c-0.9,2-0.6,4.1-0.5,6.3c0.1,2.4,0.1,4.9,0.2,7.3
	c0,1.2,1,2.1,2.2,2.1c1.2,0,2.1-1,2.1-2.2c0-2.4,0-4.9,0-7.3C232.3,118.1,232.6,116,231.6,114z"/>
<g class="st6">
	<path class="st7" d="M207.6,181.8c-1,1.5-4.1,2.6-7.2,0.6s-3.2-5.2-2.2-6.7s2.9-1,6,1S208.6,180.3,207.6,181.8z"/>
</g>
<g id="Caminho_6549">
	<path class="st2" d="M197.8,173.3c0.5-0.1,1.1,3.6,4.7,5.7s7.3,1.1,7.6,1.6s-0.8,0.9-2.4,1.2c-2.2,0.4-4.4,0-6.3-1.1
		c-1.8-1.1-3.1-2.8-3.7-4.8C197.3,174.3,197.6,173.3,197.8,173.3z"/>
</g>
<g class="st6">
	<path class="st7" d="M215.3,133.9c2.8,3.1,5.6,6.3,7.3,10.1s2.1,8.6,0.1,12.2c-1,2-2.8,3.3-5,3.8c-2.2,0.3-4.4-0.8-5.3-2.8
		c-0.9-2.1,0-4.9,2-5.6c-2.1-3.8-3.3-8-3.6-12.3c-0.2-1.5,0-3,0.7-4.3C212.4,133.9,214.4,132.9,215.3,133.9z"/>
</g>
<path class="st2" d="M225.6,147.4c-1.1-6.6-5.9-11.5-10.9-15c-0.6-0.4-1.4,0.5-1,1.1c2.8,3.9,7,7.6,8.5,12.3c0.8,2.4,0.9,5,0.1,7.4
	c-0.8,2.3-3.2,3.2-4.6,5.1c-1,1.3-0.9,2.1,0.6,1.8C223.5,159,226.4,152.2,225.6,147.4z"/>
<path class="st8" d="M264.4,72.6c5.5-9.9-2.5-12.2-7.4-14.2c-2.2-0.8-4.6-1.3-6.2-3.2c-1.8-2.2-1.7-5.5-2.1-8.5
	c-1.2-10.1-11.7-16.5-20.6-18.1s-19.9,5-26.4,12.1c-4.4,4.8-3.7,7-9.6,9c-3.3,1.2-6.9,0.7-10.4,0.9c-10.4,0.7-20.2,8.2-24.6,18.8
	s4.9,10.8,3.9,22.5c-2.1,25.7,6.7,25.7,11.9,56.6c-0.1-1.8-0.2-3.6-0.2-5.3c0-2.7-0.1-5.3-0.5-8c-0.9-7.7-1.4-16.9,3.9-17.6
	c3-0.4,1-29.7,1-29.7h73.8c0,0-2,30.4,1,30.8c4,0.5,5,5,5,10.3c-0.4,2.2-0.7,4.4-1.1,6.6c-0.2,1-0.3,2-0.5,3c0,0.4-0.1,0.9-0.2,1.8
	c-0.6,6,0.2,11.5,0.5,8.6c4.6-17.6,2.1-19.5,9.8-36.9C274.3,97.9,268.3,82.9,264.4,72.6z"/>
<path class="st9" d="M250.9,88c1.4-0.2,2.7-0.8,3.6-1.8c1.9-1.9,2.8-4.6,2.5-7.2c-0.2-2.9-3.3-5.5-5.4-7.1c-2.2-1.7-4.8-2.9-7.6-3.4
	c-1.8-0.4-3-2.1-2.6-4c0,0,0,0,0,0c1.1-5.4-0.6-11-4.4-15c-3.2-3.4-7.5-5.6-12.1-6.3c-6.6-0.9-11,0.3-12.3,1.1h-0.1
	c-0.6,0.4-0.8,1.2-0.5,1.8c0.2,0.4,0.6,0.6,1,0.6c0.8,0.1,1.6,0.4,2.2,1.1c1.3,2,0.8,5.5-1.6,5.3c-8.2-0.6-16.3,2.5-20.1,8.8
	c-1.9,2.9-1.7,5.5,0.7,7.4c1.2,0.8,2.5,1.4,3.9,1.8c0-0.3-3.6-2.2-2.1-5c1-1.8,2.5-3,5.3-3.7c3.6-0.8,7.8-1.2,9.2,2.4
	c5.2,14.1-14.5,14.4-23.3,19.1l-0.2,0.2l0,0c-0.9,0.6-1.2,1.8-0.6,2.8c0.4,0.6,1.1,1,1.8,0.9C202.7,87.9,244,88,250.9,88z"/>
<path class="st2" d="M255.5,151h-0.2c-1-0.1-1.3-1-1.5-3.9c-0.1-2.2-0.1-4.5,0.2-6.7c0.1-0.8,0.1-1.4,0.2-1.8c0,0,0-0.1,0-0.1
	l0.1-0.9c0.1-0.7,0.2-1.4,0.4-2.1c0.4-2.2,0.7-4.3,1.1-6.5c0-7.7-2.3-8.9-4-9.1c-1.5-0.2-2.9-1.6-2.6-16.6
	c0.1-5.8,0.4-11.7,0.6-14.1h-71.4c0.1,2.4,0.5,8,0.6,13.5c0.3,14.5-1.1,15.9-2.6,16.1c-4.1,0.5-3.7,9-2.9,16.3
	c0.3,2.7,0.5,5.4,0.5,8.1c0,1.8,0.1,3.6,0.2,5.2c0.1,0.6-0.4,1.2-1,1.2s-1.2-0.4-1.2-1l0,0c-1.5-9.2-4-18.2-7.4-26.8
	c-3.3-8.7-5.7-15.1-4.5-30.1c0.4-5-1.2-7.7-2.7-10.3c-1.9-3.2-3.7-6.3-1.1-12.6c4.6-10.9,14.9-18.7,25.6-19.4
	c1.1-0.1,2.2-0.1,3.2-0.1c2.3,0.1,4.7-0.1,6.9-0.8c3.6-1.2,4.4-2.4,5.9-4.6c1-1.4,2.1-2.8,3.2-4.1c6.6-7.2,18-14.1,27.4-12.4
	s20.2,8.4,21.5,19.1c0.1,0.6,0.1,1.2,0.2,1.8c0.2,2.4,0.4,4.6,1.6,6.1c1,1.2,2.6,1.8,4.2,2.3c0.5,0.2,1,0.3,1.5,0.5l0.8,0.3
	c3.3,1.2,7.4,2.8,8.8,6.5c0.9,2.4,0.4,5.1-1.3,8.5l0.1,0.2c3.8,10.1,9.6,25.4,0.8,39.8c-4.7,10.8-5.5,15.4-6.6,21.8
	c-0.6,3.9-1.4,8.2-3.1,14.8C256.8,149.8,256.6,151,255.5,151z M256.5,138.8c0,0.4-0.1,0.9-0.2,1.8c-0.1,0.6-0.1,1.3-0.1,1.9
	c0.7-3.3,1.1-5.9,1.5-8.3c1.1-6.3,1.9-11.4,6.8-22.4l0.1-0.1c8.3-13.5,3-27.6-0.9-37.8l-0.3-0.7c-0.1-0.3-0.1-0.7,0.1-1
	c1.6-2.9,2.1-5.3,1.4-7.1c-1-2.7-4.6-4.1-7.5-5.2l-0.8-0.3c-0.5-0.2-0.9-0.3-1.4-0.5c-1.8-0.6-3.8-1.3-5.2-3c-1.6-2-1.9-4.7-2.1-7.3
	c0-0.6-0.1-1.2-0.2-1.8c-1.1-9.1-10.7-15.5-19.7-17.1c-8.2-1.5-18.9,4.8-25.3,11.7c-1.1,1.2-2.1,2.5-3,3.8c-1.5,2.7-4,4.6-7,5.4
	c-2.5,0.7-5,1-7.6,0.9c-1,0-2.1,0-3.1,0.1c-9.9,0.7-19.4,7.9-23.7,18.1c-2.2,5.2-0.9,7.4,0.9,10.5c1.6,2.8,3.5,5.9,3,11.7
	c-1.2,14.5,1.1,20.6,4.4,29.1c1.8,4.5,3.3,9,4.6,13.7c-0.7-6.3-1.7-17.1,4.7-18.2c1.2-2,1.1-16.2,0.2-28.5c0-0.3,0.1-0.6,0.3-0.8
	c0.2-0.2,0.5-0.4,0.8-0.4h73.8c0.6,0,1.1,0.5,1.1,1.1c0,0,0,0,0,0.1c-0.9,12.8-1,27.5,0.3,29.6c5.7,0.9,5.8,8.7,5.8,11.3
	c0,0.1,0,0.1,0,0.2c-0.4,2.2-0.7,4.4-1.1,6.6l-0.4,2.1L256.5,138.8z"/>
</svg>
