<?xml version="1.0" encoding="utf-8"?>
<!-- Generator: Adobe Illustrator 25.4.1, SVG Export Plug-In . SVG Version: 6.00 Build 0)  -->
<svg version="1.1" id="Cliente_1" xmlns="http://www.w3.org/2000/svg" xmlns:xlink="http://www.w3.org/1999/xlink" x="0px" y="0px"
	 viewBox="0 0 432 589" style="enable-background:new 0 0 432 589;" xml:space="preserve">
<style type="text/css">
	.st0{fill:#B88469;}
	.st1{fill:#59316D;}
	.st2{fill:#263238;}
	.st3{fill:#BBBDBF;}
	.st4{fill:#C8CACB;}
	.st5{fill:#FFFFFF;}
	.st6{fill:#FF725E;}
	.st7{fill:#A86751;}
	.st8{fill:#F9AFA1;}
	.st9{fill:#455A64;}
	.st10{fill:#995037;}
	.st11{fill:#AA6550;}
</style>
<path class="st0" d="M157.1,297.4c1.5-7.3,1.9-12.6,0.7-19.1c-3.1-16.2-22.3-22.1-31-20.4c-17.6,3.3-22.3,14.7-24,21.8
	c-1,5.3-3.8,16.8-4.8,22.1l-14.1,75.5c-2.4,12.6-4.7,25.2-7,37.8c-2,10.8-5.8,22.1-5.8,33.1c-0.8,10.9,6.5,19.3,17.7,23.1
	c7.8,2.7,18.1-0.5,23.6-6.8c5.1-5.7,5.6-9.3,7.2-15.5c6.7-26.7,12.5-53.7,19.2-80.3c3.6-14.6,8-29.8,11.7-44.7
	C152.6,315.5,155.2,306.3,157.1,297.4z"/>
<path class="st0" d="M119.6,632.5c-0.3-6.3-2.2-12.4-5.6-17.6c-4.8-7.2-8.7-12.3-8.7-12.3s4.2-42.6,9.8-77.2
	c1.9-12,3.1-24.1,3.4-36.2l0.3-39.3c-0.1-1.8-0.2-3.7-0.5-5.5c-0.9-8.8-11.1-18.6-24.3-18.1c-10.4,0.4-22,7.9-23,20.5l-0.8,29.4
	c-1.6,29.1,8.9,105.8,11.4,126.3c-0.5,1.2-0.7,2.5-0.8,3.8v0.4c0,0-6.4,9.3-4.2,33.2c2.9,30.8,19.4,43.9,29.4,42.3
	c7.9-1.2-4.6-18.9-5-35.2c0.2-1.8,4.8-13.7,5.1-16.3l6,20.4c1.1,1.6,3.1,2.3,5,1.8c2-0.5,3.4-2.3,3.3-4.3L119.6,632.5z"/>
<path class="st1" d="M104.4,683.3c-3.6,0-7.5-1.5-11.3-4.5c-9.4-7.3-15.8-21.5-17.4-38.9c-2.1-22.1,3.1-31.9,4.2-33.6v-0.1
	c0.1-1.3,0.3-2.6,0.8-3.9c-0.3-2.6-0.8-6.1-1.3-10.3c-3.7-29.4-11.5-90.5-10.1-115.9l0.8-29.4c0-0.1,0-0.2,0-0.3v-0.1
	c0.2-7.1,1.9-14.4,3.6-21.4c0.8-3.3,1.6-6.8,2.2-10.1L97,301.5c0.5-2.7,1.5-7,2.4-11.1s1.9-8.4,2.4-11c3-12.5,11.4-20,24.8-22.6
	c9.6-1.8,29,4.9,32.2,21.2l0,0c1.3,7,0.7,12.6-0.7,19.5c-1.2,5.9-2.8,12-4.4,17.9c-0.8,3-1.5,5.9-2.2,8.7c-1.9,7.7-4,15.6-6.1,23.3
	c-1.9,7.1-3.9,14.4-5.6,21.4c-3.3,13.3-6.5,27-9.6,40.2s-6.2,26.8-9.6,40.1l-0.7,2.8l-0.3,37.1c-0.4,12.2-1.5,24.3-3.5,36.3
	c-5.2,32.4-9.3,72.4-9.7,76.8c0.9,1.2,4.3,5.9,8.4,12c3.5,5.4,5.5,11.7,5.8,18.2l0.9,15.9c0.1,2.5-1.6,4.8-4,5.4
	c-2.3,0.6-4.7-0.3-6.1-2.2c-0.1-0.1-0.1-0.2-0.1-0.3l-5-17c-0.6,1.9-1.4,4.1-2.1,6.4c-0.9,2.7-1.9,5.5-2,6.3
	c0.2,7,2.7,14.5,4.7,20.4c2.2,6.6,3.8,11.3,2.2,14c-0.6,1-1.6,1.6-2.8,1.7C105.7,683.2,105.1,683.3,104.4,683.3z M129.7,258.6
	c-0.9,0-1.9,0.1-2.8,0.2c-12.8,2.4-20.3,9.3-23.2,21c-0.5,2.6-1.4,6.9-2.4,11s-1.9,8.4-2.4,11L77.9,415.2c-0.6,3.4-1.4,6.8-2.2,10.2
	c-1.6,6.9-3.3,14.1-3.5,21v0.4l-0.8,29.4c-1.4,25.3,6.3,86.3,10,115.6c0.6,4.3,1,7.9,1.3,10.6c0,0.2,0,0.3-0.1,0.5
	c-0.4,1.1-0.7,2.3-0.7,3.5v0.4c0,0.2-0.1,0.4-0.2,0.5c-0.1,0.1-6.2,9.4-4,32.5c1.6,16.9,7.7,30.5,16.6,37.5c3.9,3,8.1,4.5,11.6,3.9
	c0.6,0,1.1-0.3,1.4-0.8c1.1-1.8-0.6-6.9-2.4-12.3c-2.1-6.1-4.6-13.8-4.8-21.1c0-0.1,0-0.1,0-0.2c0.6-2.3,1.3-4.5,2.1-6.8
	c1.2-3.1,2.2-6.3,3-9.5c0.1-0.5,0.4-0.8,0.9-0.9c0.5,0,0.9,0.3,1,0.7l6,20.3c0.9,1.2,2.4,1.7,3.8,1.3c1.5-0.4,2.6-1.8,2.6-3.3
	l-0.9-15.9c-0.3-6.1-2.2-12-5.5-17.2c-4.7-7.1-8.6-12.2-8.6-12.3c-0.1-0.2-0.2-0.5-0.2-0.7c0-0.4,4.3-43,9.8-77.3
	c1.9-11.9,3.1-24,3.4-36l0.3-37.2c0-0.1,0-0.2,0-0.2l0.7-3c3.3-13.3,6.5-26.9,9.6-40.1c3.1-13.2,6.3-26.9,9.6-40.2
	c1.8-7.1,3.7-14.4,5.6-21.5c2.1-7.6,4.2-15.5,6.1-23.2c0.7-2.8,1.5-5.7,2.2-8.7c1.5-5.9,3.1-12,4.3-17.8c1.4-6.7,2-12.1,0.7-18.8
	l0,0C154,264.1,138.4,258.6,129.7,258.6L129.7,258.6z"/>
<path class="st0" d="M276.5,299.4c-1.4-7.3-1.8-12.7-0.5-19.1c3.2-16.1,22.5-21.9,31.2-20.1c17.6,3.5,22.1,14.9,23.8,22
	c0.9,5.3,3.6,16.8,4.6,22.1c4.5,25.2,9,50.4,13.5,75.6l6.7,37.8c1.9,10.8,5.6,22.2,5.5,33.2c0.8,10.9-6.7,19.2-17.9,23
	c-7.8,2.6-18.1-0.6-23.6-7c-5-5.8-5.5-9.3-7-15.6c-6.4-26.7-12-53.8-18.5-80.4c-3.5-14.6-7.8-29.9-11.3-44.8
	C280.8,317.5,278.2,308.2,276.5,299.4z"/>
<path class="st0" d="M311.1,634.8c0.4-6.3,2.4-12.4,5.8-17.6c4.9-7.2,8.8-12.2,8.8-12.2s-3.8-42.7-9.1-77.3
	c-1.8-12-2.9-24.1-3.1-36.2v-39.3c0.1-1.8,0.3-3.7,0.5-5.5c1-8.8,11.3-18.5,24.5-17.9c10.4,0.5,22,8.1,22.8,20.7l0.5,29.4
	c1.3,29.1-9.8,105.7-12.5,126.2c0.5,1.2,0.7,2.5,0.8,3.8v0.4c0,0,6.4,9.4,3.9,33.2c-3.2,30.8-19.8,43.7-29.7,42
	c-7.9-1.3,4.8-18.9,5.3-35.2c-0.2-1.8-4.7-13.8-5-16.4l-6.2,20.4c-1.1,1.6-3.1,2.3-5,1.8c-2-0.5-3.3-2.3-3.2-4.4L311.1,634.8z"/>
<path class="st1" d="M326,685.6c-0.7,0-1.3,0-2-0.2c-1.2-0.1-2.2-0.8-2.8-1.8c-1.6-2.6,0.1-7.4,2.4-13.9c2.1-6,4.6-13.4,4.9-20.4
	c-0.1-0.8-1.1-3.6-2-6.3c-0.8-2.2-1.5-4.5-2.1-6.4l-5.2,17c0,0.1-0.1,0.2-0.1,0.3c-1.4,1.9-3.8,2.8-6.1,2.2c-2.5-0.6-4.1-2.9-4-5.4
	l1.1-15.9c0.4-6.5,2.4-12.7,6-18.1c4.2-6.1,7.6-10.8,8.5-12c-0.4-4.3-4.1-44.4-9.1-76.8c-1.8-12-2.9-24.2-3.1-36.4v-37.2l-0.7-2.9
	c-3.2-13.3-6.3-27-9.2-40.2s-6-26.9-9.3-40.3c-1.7-7-3.6-14.4-5.4-21.5c-2-7.7-4-15.6-5.9-23.3c-0.7-2.8-1.4-5.8-2.2-8.7
	c-1.5-5.9-3-12-4.2-18c-1.4-6.9-1.9-12.6-0.5-19.5c3.3-16.3,22.8-22.8,32.4-20.9c13.4,2.7,21.7,10.3,24.6,22.7
	c0.5,2.7,1.4,7,2.3,11.1s1.8,8.4,2.4,11.1l20.1,113.5c0.6,3.3,1.4,6.8,2.1,10.1c1.6,7,3.2,14.3,3.4,21.5v0.3l0.5,29.5
	c1.2,25.4-7.1,86.4-11.1,115.8c-0.6,4.2-1,7.7-1.4,10.3c0.4,1.3,0.7,2.6,0.8,3.9v0.1c1,1.7,6.2,11.5,3.9,33.6
	c-1.8,17.4-8.3,31.5-17.7,38.7C333.5,684.1,329.5,685.6,326,685.6z M324.5,632h0.1c0.5,0,0.8,0.4,0.9,0.9c0.8,3.2,1.7,6.4,2.9,9.6
	c0.8,2.2,1.5,4.5,2.1,6.8c0,0.1,0,0.1,0,0.2c-0.2,7.3-2.9,15-5,21.1c-1.9,5.3-3.6,10.4-2.5,12.3c0.3,0.5,0.8,0.8,1.4,0.8
	c3.4,0.6,7.7-0.8,11.6-3.8c9-6.9,15.2-20.5,17-37.3c2.4-23.1-3.7-32.5-3.7-32.6c-0.1-0.2-0.2-0.3-0.2-0.5v-0.4
	c0-1.2-0.3-2.4-0.7-3.5c-0.1-0.2-0.1-0.3,0-0.5c0.3-2.7,0.8-6.3,1.4-10.6c4-29.3,12.2-90.2,11-115.4l-0.5-29.7
	c-0.2-7-1.8-14.2-3.4-21.1c-0.8-3.4-1.5-6.8-2.1-10.2l-20.2-113.5c-0.5-2.6-1.4-6.9-2.3-11s-1.8-8.4-2.3-11.1
	c-2.8-11.7-10.3-18.6-23-21.2c-7.5-1.5-26.8,3.3-30,19.4l-1-0.2l1,0.2c-1.3,6.6-0.8,12.1,0.5,18.8c1.1,5.9,2.7,12,4.2,17.9
	c0.8,3,1.5,5.9,2.2,8.7c1.8,7.7,3.9,15.6,5.9,23.3c1.9,7.1,3.8,14.4,5.5,21.5c3.2,13.4,6.3,27.1,9.3,40.3s6,26.8,9.2,40.1l0.7,3
	c0,0.1,0,0.2,0,0.2v37.2c0.3,12.1,1.3,24.1,3.1,36.1c5.2,34.3,9.1,76.9,9.1,77.4c0,0.2-0.1,0.5-0.2,0.7c0,0-3.9,5.2-8.7,12.2
	c-3.4,5.1-5.3,11-5.7,17.1l-1.1,15.9c-0.1,1.6,1,3,2.5,3.3c1.4,0.4,2.9-0.1,3.8-1.2l6.2-20.2C323.7,632.2,324.1,632,324.5,632z"/>
<path class="st2" d="M220.8,75.3c-2.4,21.5-18.4,40.9-39.1,47.4c-7.2,9.5-6.4,14-6.3,29.2c0.2,14.2,34.3,57.2-0.1,39.4
	c-7.6,1.8-11.9-19-17.6-24.8s-11-13-10.6-21.1c0.2-3.8,1.7-7.4,1.9-11.2c0.2-4.2-1.1-8.3-1.9-12.4c-3.3-18.3,6.1-38,22.1-47.5
	s37.2-8.9,53,0.9"/>
<path class="st3" d="M259.3,107.6c0-4.1-16.2-9.8-42.7-9.8s-42.7,5.7-42.7,9.8H259.3L259.3,107.6z"/>
<path class="st4" d="M216.6,117.5c-26.5,0-42.7-5.7-42.7-9.8h-1c0,6.2,19.6,11.2,43.8,11.2s43.8-5,43.8-11.2h-1
	C259.3,111.8,243,117.5,216.6,117.5z"/>
<path class="st3" d="M216.6,117.5c26.5,0,42.7-5.7,42.7-9.8h-85.4C173.9,111.8,190.1,117.5,216.6,117.5z"/>
<path class="st5" d="M200.2,233.3v-6.7c0,0-4.4-0.2-6.5,1.8l1.2,9.4L200.2,233.3z"/>
<path class="st5" d="M237.3,233.2v-6.7c0,0,4.4-0.2,6.4,1.8l-1.2,9.4L237.3,233.2z"/>
<path class="st5" d="M191.7,238.9l2.1-10.6c0,0,1,8.5,16.7,11c1.8,0.3,3.1,1.7,3.1,3.5l0.4,12.9C214,255.7,192.4,253,191.7,238.9z"
	/>
<path class="st5" d="M245.8,238.9l-2-10.6c0,0-1,8.5-16.7,11c-1.8,0.3-3.1,1.7-3.1,3.5l-0.4,12.2C223.5,255,245.2,249.4,245.8,238.9
	z"/>
<path class="st6" d="M203.2,236.3v-6.7c0,0-4.4-0.2-6.5,1.8l1.2,9.4L203.2,236.3z"/>
<path class="st6" d="M240.3,236.2v-6.7c0,0,4.4-0.2,6.4,1.8l-1.2,9.4L240.3,236.2z"/>
<path class="st1" d="M195,238.8c-0.1,0-0.2,0-0.4-0.1c-0.3-0.1-0.6-0.4-0.6-0.8l-1.2-9.4c0-0.3,0.1-0.6,0.3-0.8
	c2.3-2.4,7-2.1,7.2-2.1c0.5,0,1,0.5,0.9,1v6.7c0,0.3-0.1,0.6-0.3,0.8l-5.2,4.6C195.5,238.7,195.2,238.8,195,238.8z M194.8,228.8
	l0.9,7.1l3.5-3v-5.2C197.7,227.6,196.1,228,194.8,228.8L194.8,228.8z M200.2,233.3L200.2,233.3z"/>
<path class="st1" d="M242.5,238.8c-0.2,0-0.5-0.1-0.7-0.2l-5.2-4.5c-0.2-0.2-0.3-0.5-0.3-0.8v-6.7c0-0.5,0.4-1,0.9-1
	c0.2,0,4.9-0.2,7.2,2.1c0.2,0.2,0.3,0.5,0.3,0.8l-1.2,9.4c-0.1,0.4-0.3,0.7-0.6,0.8C242.7,238.8,242.6,238.8,242.5,238.8z
	 M238.3,232.8l3.5,3l0.9-7c-1.3-0.8-2.8-1.2-4.4-1.2V232.8z"/>
<path class="st0" d="M241.2,245.4c1.9,21.1-52.3,12.1-47.3-1.2c5.7-15.2,3.8-52.7,3.8-52.7h40.7
	C238.4,191.5,239.1,222.1,241.2,245.4z"/>
<path class="st7" d="M239,196.8c-7.9,3.2-13.6,3.2-22.2,2.7c-7.8,0-11.9-1.6-19.1-4c0,0,0.3,15.3,0.2,17.3
	c6.1,6,12.1,12.5,20.9,12.5c8,0,14.7-5.5,20.4-10.2C239.2,215.1,238.9,198.5,239,196.8z"/>
<path class="st1" d="M221.7,259c-10.2,0-21.3-3.1-26.3-7.6c-3.3-2.9-3.2-5.7-2.5-7.6c5.5-14.9,3.7-52,3.7-52.3
	c0-0.3,0.1-0.5,0.3-0.7c0.2-0.2,0.4-0.3,0.7-0.3h40.7c0.6,0,1,0.4,1,1c0,0.3,0.8,30.9,2.8,53.8l0,0c0.4,4.8-1.8,8.6-6.5,11
	C231.9,258.2,227,259,221.7,259z M198.7,192.5c0.3,6.3,1.3,38.1-3.9,52.1c-0.7,1.8,0,3.6,2,5.4c7,6.3,27.8,9.7,38,4.6
	c4-2,5.8-5,5.4-9c-1.9-20.7-2.7-47.6-2.8-53L198.7,192.5z"/>
<path class="st0" d="M265.7,146.8c-2.5-0.8-5.2,0.3-6.5,2.6c0.5-6.4,3.7-26.5,3.7-27.5c0-2.4-0.1-4.4-0.2-6.2
	c-1.7-25-23.4-43.8-48.4-42c-23.7,1.7-42.1,21.4-42.2,45.1c0,2.4,0,7.7,0.1,8.1c-0.1,1.4,1.5,16,2.2,21.6c-1.3-1.4-3.3-2.1-5.3-1.7
	c-3.2,0.7-5.5,3.6-5.4,6.9c0,4.6,1.4,9.1,4,12.9c2.7,3.5,6.6,4.8,10,3.8c2,14.6,11.4,28.9,24.9,35.4c26.1,12.6,49.8-11.8,54.7-36.3
	c0,1.2,4,1.5,4.7,1.3C270.7,169.1,275.8,149.6,265.7,146.8z"/>
<path class="st1" d="M216.9,210.2c-5.1,0-10.2-1.2-14.8-3.5c-13-6.3-22.9-19.9-25.3-35c-3.6,0.5-7.3-1.1-9.9-4.4
	c-2.8-4-4.2-8.7-4.2-13.5c0-3.7,2.5-6.9,6.1-7.8c1.4-0.4,3-0.2,4.3,0.6c-0.8-6.4-2-18.2-1.9-19.5c0-0.4-0.1-6-0.1-8.1
	c0-25.6,20.8-46.3,46.3-46.3c24.3,0,44.5,18.8,46.2,43.1c0.1,1.7,0.2,3.6,0.2,6.2c0,0.4-0.3,2.3-1,7.7s-1.8,12.4-2.3,17
	c1.6-1.1,3.6-1.3,5.5-0.8l0,0c4.2,1.1,6.5,5.1,6.3,10.5c-0.2,6.6-4.4,14.4-10.1,15.4c-1.4,0.1-2.9,0-4.3-0.5
	c-3.5,15.3-13.7,29-26.1,35.2C227.2,208.9,222.1,210.2,216.9,210.2z M177.7,169.4c0.2,0,0.4,0.1,0.6,0.2c0.2,0.2,0.4,0.4,0.4,0.7
	c2,14.9,11.6,28.4,24.3,34.6c8.8,4.4,19.1,4.4,27.9-0.1c12.2-6.1,22.4-20.3,25.4-35.5c0-0.6,0.4-1,1-1s1,0.4,1,1
	c1.1,0.4,2.3,0.6,3.6,0.5c4.7-0.9,8.2-7.9,8.5-13.6c0.1-2.1-0.2-7.2-4.9-8.5l0,0c-2.1-0.7-4.4,0.3-5.4,2.2c-0.3,0.5-0.9,0.6-1.4,0.3
	c-0.3-0.2-0.5-0.6-0.5-1c0.3-4,1.7-13.2,2.6-20c0.5-3.6,1-7,1-7.4c0-2.5-0.1-4.4-0.2-6c-1.7-24.4-22.9-42.8-47.3-41.1
	c-23.2,1.6-41.1,20.9-41.2,44.1c0,2.4,0,7.7,0.1,8c-0.1,1.4,1.5,16,2.2,21.6c0,0.4-0.2,0.8-0.5,1c-0.4,0.2-0.8,0.1-1.1-0.2
	c-1.1-1.2-2.7-1.8-4.3-1.5c-2.8,0.6-4.7,3.1-4.6,5.9c0,4.4,1.3,8.6,3.8,12.2c2.4,3,5.8,4.4,8.9,3.5
	C177.4,169.5,177.6,169.4,177.7,169.4z"/>
<path class="st7" d="M174.3,151.6c-1.3-1.2-3.8-1.8-4.9,0.1c-0.3,0.5-0.2,1.4,0.4,1.6c0.8,0.2,1.6,0,2.4,0.3c0.8,0.4,1.4,1.1,1.7,2
	c0.5,1.2,0,3.3,1.7,2.4c0.6-0.4,0.9-1,0.9-1.7C176.7,154.5,175.8,152.6,174.3,151.6z"/>
<path class="st7" d="M263.3,150.6c1.3-1.2,3.8-1.8,4.9,0.1c0.3,0.5,0.2,1.4-0.4,1.6c-0.8,0.2-1.6,0-2.4,0.3c-0.8,0.4-1.4,1.1-1.7,2
	c-0.5,1.2-0.4,4.9-2,4c-0.6-0.4-0.9-1-0.8-1.7C260.7,154.6,261.6,152.3,263.3,150.6z"/>
<path class="st1" d="M201.7,127.9c-0.6-0.9-1.9-1.1-2.8-0.5c-0.2,0.2-0.4,0.4-0.6,0.6c-0.9,2.1-0.6,4.3-0.6,6.6
	c0.1,2.6,0.1,5.1,0.2,7.6c0,1.2,1.1,2.2,2.3,2.2s2.2-1.1,2.2-2.3c0-2.6,0-5.1,0-7.7C202.4,132.1,202.6,130,201.7,127.9z"/>
<path class="st1" d="M237.3,127.8c-0.6-0.9-1.9-1.1-2.8-0.5c-0.2,0.2-0.4,0.4-0.6,0.6c-0.9,2.1-0.6,4.3-0.5,6.6
	c0.1,2.6,0.1,5.1,0.2,7.6c0,1.2,1.1,2.2,2.3,2.2c1.2,0,2.2-1.1,2.2-2.3c0-2.6,0-5.1,0-7.6C238.1,132.1,238.3,129.9,237.3,127.8z"/>
<path class="st7" d="M218.3,151c2,1.3,4,2.7,5.1,4.3c1.2,1.5,1,3.7-0.4,4.9c0,0-0.1,0.1-0.1,0.1c-1.2,0.9-2.6,1.4-4,1.4
	c-1.6,0.1-3.3-0.4-3.9-1.3s0.3-2,1.8-2.2c-1.3-1.4-2.1-3.2-2.1-5.1c-0.1-0.7,0.2-1.3,0.8-1.7C216.1,150.9,217.6,150.5,218.3,151z"/>
<path class="st1" d="M225.5,156.7c-0.5-2.7-3.9-4.8-7.6-6.4c-0.4-0.2-1.1,0.2-0.8,0.4c1.9,1.6,4.4,3.2,5.3,5.1c0.5,1,0.4,2.2-0.3,3
	c-0.8,0.9-2.1,1.3-3.2,2c-0.8,0.5-0.8,0.9,0.3,0.8C223.3,161.4,225.9,158.7,225.5,156.7z"/>
<path class="st1" d="M204.8,118.7c-0.2,0-0.5-0.1-0.6-0.2c-2.9-2.6-7.3-2.6-10.2,0c-0.4,0.4-1,0.4-1.4-0.1s-0.4-1,0.1-1.4
	c0.1-0.1,6.1-5.6,12.8,0c0.4,0.4,0.5,1,0.1,1.4C205.4,118.7,205.1,118.8,204.8,118.7L204.8,118.7z"/>
<path class="st1" d="M241.5,118.7c-0.2,0-0.5-0.1-0.6-0.2c-2.9-2.6-7.3-2.6-10.2,0c-0.4,0.4-1,0.4-1.4-0.1s-0.4-1,0.1-1.4
	c0.1-0.1,6.1-5.6,12.8,0c0.4,0.4,0.5,1,0.1,1.4C242.1,118.7,241.8,118.8,241.5,118.7L241.5,118.7z"/>
<path class="st5" d="M304.7,340.5c13.8-30.6,33.9-63.8,15.1-78.1c-13.6-10.4-28-13.9-50.8-18.4c-13.4-2.7-18.7-4.9-28.4-5.6
	c1.1,8.9-9.2,15.4-17.1,16.7c-3.1,0.5-6.3,0.9-9.5,1c-24-3.5-21-17.6-21-17.6c-8.9,0.8-14.3,2.9-27.1,5.5
	c-22.8,4.5-40.6,4.1-56.8,20.8c-12.4,12.9,0,36.1,7.8,48c4.9,7.3,11,14,14.8,21.8c4.4,8.9,7.1,52.8,9.9,62.2
	c3.6,11.8-2.7,49.5-8.1,86c-1.3,8.7-22.9,93.3-17.1,109.9c11.5,8.2,34,19.5,47.1,22.9C230,632.4,321,596.9,321,596.9
	c1.7-42.5-25.7-120.6-29-147.1C290.3,436.4,298.3,354.9,304.7,340.5z"/>
<path class="st8" d="M310.7,340.5c13.8-30.6,33.9-63.8,15.1-78.1c-13.6-10.4-28-13.9-50.8-18.4c-13.4-2.7-18.7-4.9-28.4-5.6
	c1.1,8.9-9.2,15.4-17.1,16.7c-3.1,0.5-6.3,0.9-9.5,1c-24-3.5-21-17.6-21-17.6c-8.9,0.8-14.3,2.9-27.1,5.5
	c-22.8,4.5-40.6,4.1-56.8,20.8c-12.4,12.9,0,36.1,7.8,48c4.9,7.3,11,14,14.8,21.8c4.4,8.9,7.1,52.8,9.9,62.2
	c3.6,11.8-2.7,49.5-8.1,86c-1.3,8.7-22.9,93.3-17.1,109.9c11.5,8.2,34,19.5,47.1,22.9C236,632.4,327,596.9,327,596.9
	c1.7-42.5-25.7-120.6-29-147.1C296.3,436.4,304.3,354.9,310.7,340.5z"/>
<path class="st1" d="M203.4,621c-13.4,0.1-26.9-1.4-39.9-4.5c-13.5-3.4-36.2-15-47.5-23c-0.2-0.1-0.3-0.3-0.4-0.5
	c-4.7-13.4,7.9-69.4,14-96.3c1.6-7.2,2.8-12.4,3.1-14.1c0.6-4.1,1.2-8.2,1.8-12.3c4.9-32.4,9.4-63,6.3-73.3
	c-1.2-4-2.4-13.8-3.7-25.1c-1.8-15-3.7-31.9-6.2-37s-5.9-9.6-9.3-14.1c-1.9-2.5-3.8-5-5.5-7.6c-6.8-10.3-21.1-35.4-7.7-49.3
	c13.3-13.7,27.8-16.1,44.6-18.8c4.1-0.7,8.3-1.4,12.7-2.2c4.9-1,8.8-1.9,12.1-2.7c5-1.3,10-2.3,15.1-2.8c0.3,0,0.6,0.1,0.8,0.3
	c0.2,0.2,0.3,0.6,0.2,0.9c-0.4,2.8,0.3,5.6,2,7.8c3.1,4.4,9.1,7.3,18,8.6c3.1-0.1,6.2-0.5,9.2-1c7.5-1.2,17.3-7.3,16.3-15.6
	c0-0.3,0.1-0.6,0.3-0.8c0.2-0.2,0.5-0.3,0.8-0.3c5.5,0.5,11,1.4,16.4,2.9c3.4,0.8,7.2,1.7,12.1,2.7c22.6,4.5,37.4,8,51.2,18.6
	c16.7,12.7,3.9,39.7-8.5,65.8c-2.1,4.5-4.3,9.1-6.3,13.5c-6.4,14.2-14.3,95.5-12.6,108.6c1.2,9.1,5.2,24.5,9.9,42.3
	c9,34.3,20.2,77,19.2,105c0,0.4-0.3,0.8-0.6,0.9C320.7,598,261,621,203.4,621z M117.4,592.1c11.2,7.9,33.3,19.2,46.5,22.5
	c62.5,15.8,148.1-15.4,156.1-18.4c0.9-27.7-10.2-69.8-19.1-103.8c-4.7-17.9-8.8-33.3-9.9-42.6c-1.7-13.3,6.4-95.4,12.8-109.7
	l0.9,0.4l-0.9-0.4c2-4.5,4.2-9.1,6.3-13.6c12.6-26.5,24.5-51.6,9.1-63.4c-13.5-10.4-28.1-13.8-50.4-18.2c-5-1-8.8-1.9-12.2-2.7
	c-4.9-1.3-9.9-2.2-14.9-2.8c0.2,9.2-10.4,15.3-18.1,16.6c-3.2,0.5-6.4,0.9-9.6,1h-0.2c-9.5-1.4-16.1-4.6-19.5-9.5
	c-1.7-2.3-2.5-5.1-2.4-8c-4.6,0.6-9.1,1.4-13.6,2.6c-3.4,0.8-7.2,1.7-12.2,2.7c-4.4,0.9-8.7,1.6-12.8,2.2
	c-17.2,2.8-30.7,5-43.5,18.2c-12.4,12.8,1.4,36.9,8,46.7c1.7,2.6,3.6,5.1,5.4,7.5c3.4,4.5,6.9,9.2,9.5,14.4
	c2.6,5.3,4.5,21.7,6.4,37.6c1.2,10.8,2.4,20.9,3.6,24.8c3.2,10.7-1.4,41.5-6.3,74.2l-1.8,12.3c-0.3,1.9-1.4,7.1-3.1,14.3
	C125.6,523.7,113.2,578.6,117.4,592.1L117.4,592.1z"/>
<path class="st9" d="M160.9,164.1c0,0.2,0,0.3,0,0.5c0,0.5,0,0.9-0.1,1.4c-0.2,1.7-0.6,3.4-1.2,5c-3.9,11.2-15.3,18-27,16.2
	c-1.7-0.3-3.4-0.7-5-1.4c-0.4-0.2-0.9-0.4-1.3-0.6c-0.3-0.1-0.4-0.2-0.4-0.2c2.2,0.8,4.4,1.4,6.7,1.8c2.5,0.3,5,0.3,7.5-0.1
	c6.1-0.9,11.7-4.2,15.4-9.2c1.5-2,2.8-4.2,3.6-6.6C160,168.6,160.6,166.4,160.9,164.1z"/>
<path class="st2" d="M167.7,166.6c-2.6-3.8-4-8.3-4-12.9c-0.1-3.3,2.2-6.1,5.4-6.9c1.9-0.4,3.9,0.3,5.3,1.7
	c-0.7-5.6-2.3-20.2-2.2-21.6c0-0.4-0.1-5.8-0.1-8.1c0-25,20.3-45.3,45.3-45.3c0,0,0,0,0,0h1.2c-15.4-8.2-40.6,6.8-55.6,15.8
	c-16,9.6-19.9,14.3-16.6,32.6c0.7,4.1,2.1,8.2,1.9,12.4c-0.2,3.8-1.7,7.4-1.9,11.2c-0.4,8.1,4.9,15.2,10.6,21.1s10,26.6,17.6,24.8
	c8,4.1,12.3,5,14.2,3.7c-6-7-9.9-15.5-11.2-24.6C174.3,171.4,170.4,170.1,167.7,166.6z"/>
<path class="st2" d="M218.8,73.6c-0.4,0-0.8,0-1.2,0c-25,0-48.3,20.3-48.3,45.3c0,2.4,1.5,7.7,1.5,8.1c-0.1,1.4,1.4,14.2,2.1,19.7
	c0.1,0.3,2,2.6,2.1,2.9c-0.1-9.5,8.5-18,13.4-20.8c17.4-9.7,29.8-34.3,31.9-53.5l1.5-0.1C220.8,74.7,219.8,74.1,218.8,73.6z"/>
<path class="st2" d="M174.5,171.6c-10.8-1.9-11.4-10.6-11.4-15.4v-12.6c-5.2-11.8-17.2-15.3-29-10.1c-11.8,5.2-17.2,19-12,30.8
	c1.5,3.5,3.9,6.5,6.8,8.9c-2.7-0.6-5.4,1.7-6,4.4c-0.4,2.8,0.3,5.6,2,7.8c5.6,8.2,18.3,10.3,26.2,4.5c6.3,4.3,15.6,1.8,20.3-4.2
	S176.6,179,174.5,171.6z"/>
<path class="st1" d="M186.6,196.6c-2.7,0-6.7-1.4-12.1-4.2c-2,0.3-3.9-0.6-5.8-2.8c-5.5,3.9-12.4,4.5-17.5,1.4
	c-9,5.6-20.8,3.4-27.1-5.1c-1.8-2.4-2.6-5.5-2.2-8.5c0.4-1.8,1.5-3.4,3-4.4c0.5-0.3,0.9-0.5,1.5-0.7c-9.6-9.4-9.8-24.8-0.4-34.5
	c2.2-2.2,4.8-4,7.7-5.3c4.2-1.9,8.9-2.7,13.5-2.3c-0.2-1.6-0.6-3.3-0.9-4.9c-0.2-1.1-0.5-2.2-0.7-3.4c-3.2-18.1,6.6-38.5,23.3-48.5
	c15-9,34.2-9.3,50.2-1c0.1,0,0.2,0.1,0.3,0.1c1,0.6,2,1.1,3,1.7c0.5,0.3,0.6,0.9,0.3,1.4c-0.2,0.3-0.5,0.5-0.8,0.5h-0.6
	c-2.3,18.6-14.3,43.4-32.3,53.4c-4.1,2.3-13,10.5-12.9,19.9c0,0.5-0.4,0.9-0.9,1c-0.5,0.1-0.9-0.2-1.1-0.6c-0.1-0.2-0.6-0.8-0.8-1.1
	c-1-0.9-2.4-1.3-3.8-1c-2.8,0.6-4.7,3.1-4.6,5.9c0,4.4,1.3,8.6,3.8,12.2c2.4,3,5.8,4.4,8.9,3.5c0.5-0.1,1.1,0.2,1.2,0.7
	c0,0,0,0.1,0,0.1c1.3,8.9,5.1,17.3,10.9,24.1c0.2,0.2,0.3,0.5,0.2,0.8c0,0.3-0.2,0.5-0.4,0.7C188.6,196.4,187.6,196.7,186.6,196.6z
	 M174.6,190.4c0.2,0,0.3,0,0.5,0.1c7,3.6,10.4,4.3,12,4.1c-5.4-6.6-8.9-14.6-10.3-23c-3.6,0.5-7.3-1.1-9.9-4.4
	c-2.8-4-4.2-8.7-4.2-13.5c0-3.7,2.5-6.9,6.1-7.8c1.8-0.4,3.7,0,5.2,1.1c1.3-9.2,9.6-16.7,13.8-19.1c17.7-9.9,29.4-34.6,31.4-52.8
	c0-0.1,0-0.2,0-0.2l-0.8-0.4c-0.1,0-0.2,0-0.3-0.1c-15.4-8.2-34-7.8-48.4,0.8c-16.1,9.6-25.4,29.2-22.3,46.5
	c0.2,1.1,0.4,2.2,0.7,3.3c0.5,2.1,0.9,4.3,1.1,6.4c0,0.3-0.1,0.6-0.3,0.8c-0.2,0.2-0.5,0.3-0.8,0.2c-4.6-0.7-9.4,0-13.6,1.9
	c-11.3,5-16.5,18.2-11.5,29.5c1.5,3.3,3.7,6.2,6.5,8.5c0.4,0.3,0.5,1,0.2,1.4c-0.2,0.3-0.6,0.4-1,0.4c-0.9-0.2-1.9,0-2.6,0.6
	c-1.1,0.7-1.9,1.8-2.1,3.1c-0.4,2.5,0.3,5,1.8,7c5.8,7.8,16.7,9.7,24.8,4.3c0.3-0.2,0.8-0.2,1.1,0c4.6,3.1,11.5,2.4,16.6-1.6
	c0.2-0.2,0.5-0.2,0.8-0.2c0.3,0,0.5,0.2,0.7,0.4c2.2,2.9,3.8,3,4.8,2.7C174.4,190.4,174.5,190.4,174.6,190.4L174.6,190.4z"/>
<path class="st1" d="M148.9,132.3c-0.3-0.2-0.5-0.5-0.7-0.8c-0.6-0.8-1-1.7-1.2-2.6c-0.7-2.5-0.4-6.4,1.6-10.5
	c1.1-2.2,2.5-4.3,4.3-6c2-2.1,4.1-3.9,6.5-5.5c2.6-1.8,5.4-3.2,8.4-4.2c3.1-1.1,6.4-1.9,9.7-2.7s6.6-1.7,9.7-2.7
	c2.9-1,5.8-2.3,8.5-3.7c4.6-2.5,9-5.5,12.9-9.1c2.6-2.4,5.1-5,7.2-7.8c0.8-1,1.4-1.8,1.8-2.4c0.2-0.3,0.4-0.5,0.6-0.8
	c-0.2,0.3-0.3,0.6-0.5,0.9c-0.4,0.6-0.9,1.4-1.7,2.4c-2.1,2.9-4.5,5.6-7.1,8c-3.9,3.6-8.2,6.7-12.9,9.2c-2.8,1.5-5.7,2.8-8.6,3.8
	c-3.1,1.1-6.4,1.9-9.7,2.8s-6.6,1.6-9.7,2.7c-3,1-5.8,2.4-8.3,4.1c-2.3,1.6-4.5,3.4-6.4,5.4c-1.7,1.7-3.2,3.8-4.2,6
	c-2,4-2.4,7.8-1.7,10.2C147.6,130.2,148.2,131.3,148.9,132.3z"/>
<path class="st1" d="M218.2,73.5c-0.2,0.2-0.4,0.5-0.6,0.7c-0.4,0.4-1,1.1-1.7,1.9c-2.2,2.2-4.5,4.3-6.9,6.2
	c-3.6,2.9-7.6,5.4-11.8,7.2c-2.6,0.9-5.2,1.7-7.9,2.1c-2.8,0.6-5.7,1-8.6,1.4c-5.6,0.7-11.1,1.8-16.4,3.4c-4.4,1.4-8.4,3.7-11.9,6.6
	c-2.4,2-4.3,4.4-5.7,7.2c-0.4,0.8-0.7,1.5-1,2.3c-0.1,0.3-0.2,0.6-0.3,0.8c0.1-0.3,0.1-0.6,0.2-0.8c0.2-0.8,0.5-1.6,0.9-2.4
	c1.4-2.8,3.3-5.3,5.7-7.4c3.5-3,7.6-5.3,12-6.8c5.4-1.7,10.9-2.9,16.5-3.6c3-0.4,5.9-0.9,8.6-1.4c2.7-0.5,5.3-1.2,7.9-2.1
	c4.2-1.8,8.2-4.1,11.8-7c2.4-1.9,4.8-3.9,7-6.1l1.8-1.8C217.7,73.9,218,73.7,218.2,73.5z"/>
<path class="st1" d="M174.5,191.8c-0.2-0.1-0.4-0.2-0.6-0.4c-0.4-0.3-0.9-0.7-1.6-1.2c-1.9-1.5-3.7-3.2-5.4-5
	c-2.6-2.7-4.4-6-5.1-9.7c-0.2-2.2-0.3-4.3-0.3-6.5c0-2.3-0.6-4.5-1.9-6.4c-1.4-1.8-3-3.5-4.7-5.1c-1.6-1.5-2.9-3.3-3.8-5.3
	c-0.9-1.8-1.5-3.7-1.9-5.6c-0.4-1.7-0.5-3.4-0.5-5.1c0.1-1.4,0.3-2.8,0.5-4.2c0.1-1,0.2-2.1,0.1-3.1c-0.2-1.7-0.5-2.6-0.5-2.7
	c0.1,0.2,0.2,0.4,0.3,0.6c0.2,0.7,0.4,1.3,0.5,2c0.1,1.1,0.1,2.1,0,3.2c-0.1,1.2-0.4,2.6-0.4,4.1c0,3.6,0.8,7.2,2.4,10.5
	c1,1.9,2.2,3.6,3.8,5.1c1.7,1.6,3.3,3.3,4.8,5.1c0.7,1,1.2,2.1,1.5,3.3c0.3,1.1,0.4,2.3,0.4,3.4c-0.1,2.1,0,4.3,0.3,6.4
	c0.7,3.6,2.4,6.9,4.9,9.5c1.6,1.8,3.4,3.5,5.2,5.1l1.6,1.2C174.2,191.6,174.3,191.7,174.5,191.8z"/>
<path class="st1" d="M156.3,158.5c0,0.6-0.2,1.1-0.3,1.6c-0.4,1.5-1,2.9-1.7,4.2c-2.3,4.5-5.8,8.3-10.1,10.9
	c-4.3,2.6-9.3,4-14.3,4.2c-1.5,0.1-3,0-4.5-0.2c-0.6,0-1.1-0.2-1.6-0.3c2,0.1,4.1,0.2,6.2,0.1c4.9-0.3,9.8-1.7,14-4.3
	c4.2-2.6,7.7-6.2,10.1-10.6C154.9,162.3,155.7,160.4,156.3,158.5z"/>
<path class="st1" d="M121.5,146.6c0.3-0.3,0.7-0.5,1.1-0.6c0.4-0.2,0.9-0.4,1.3-0.6c0.6-0.2,1.2-0.5,1.8-0.6c1.6-0.5,3.3-0.8,4.9-1
	c2-0.2,4.1-0.1,6.1,0.1c2,0.3,4.1,0.8,6,1.5c1.6,0.6,3.1,1.4,4.5,2.3c0.5,0.3,1.1,0.7,1.6,1.1c0.4,0.3,0.8,0.6,1.1,0.9
	c0.3,0.3,0.6,0.6,0.9,0.9c-0.1,0.1-1.3-1.2-3.8-2.6c-1.4-0.8-2.9-1.5-4.4-2.1c-1.9-0.6-3.9-1.1-5.8-1.4c-2-0.3-4-0.3-6-0.2
	c-1.6,0.1-3.3,0.4-4.8,0.8C123.1,145.9,121.6,146.7,121.5,146.6z"/>
<path class="st1" d="M149.8,138.1c-0.1-0.1-0.1-0.2-0.1-0.2c-0.1-0.2-0.2-0.4-0.4-0.7c-0.5-1-0.8-2-0.9-3.1c-0.4-4,0.7-7.9,3.1-11.1
	c0.8-1.1,1.7-2,2.6-2.9c1.1-0.9,2.3-1.7,3.5-2.4c2.8-1.4,5.7-2.4,8.8-3c6.4-1.3,13.7-1,21.1-2.1c3.6-0.5,7.1-1.6,10.4-3.2
	c3-1.6,5.7-3.7,8-6.2c3.9-4.2,7-9.1,9.2-14.4c1.9-4.5,3.2-8.3,4.1-10.9l1-3l0.3-0.8c0-0.1,0.1-0.2,0.1-0.3V74l-0.2,0.8l-1,3.1
	c-1.1,3.7-2.4,7.4-3.9,11c-2.2,5.4-5.3,10.4-9.2,14.7c-2.3,2.5-5.1,4.7-8.1,6.3c-3.3,1.7-6.9,2.8-10.5,3.3
	c-7.5,1.1-14.7,0.8-21.1,2.1s-11.8,4-14.7,8c-2.4,3-3.6,6.9-3.2,10.8C148.7,135.4,149.1,136.8,149.8,138.1z"/>
<path class="st1" d="M157.4,185.4c-0.2,1.6-0.7,3.3-1.4,4.8c-0.8,1.8-1.9,3.5-3.1,5.1c-1.7,2.1-3.7,3.8-6,5.1
	c-2.8,1.5-6,2.4-9.2,2.4c-3.7,0.1-7.4-1-10.5-3.1c-3.4-2.4-5.9-5.8-6.9-9.8c-0.6-2.1-0.7-4.3-0.3-6.4c0.4-2.2,1.2-4.3,2.5-6.2
	c2.1-3.1,5.2-5.4,8.8-6.3v0.6c-3.7-0.6-7.2-2-10.2-4.2c-2.8-2-5.1-4.7-6.5-7.8c-1.3-2.8-1.8-5.9-1.6-9c0.2-2.7,1.1-5.2,2.6-7.4
	c1.3-1.8,2.9-3.3,4.8-4.4c1.4-0.8,2.9-1.4,4.5-1.7c1-0.2,2-0.3,3-0.2l0.8,0.1c0.1,0,0.2,0,0.3,0c-1.3-0.1-2.7,0-4,0.3
	c-1.6,0.4-3,1-4.4,1.8c-1.8,1.1-3.4,2.6-4.6,4.4c-1.4,2.2-2.3,4.6-2.4,7.2c-0.2,3,0.3,6,1.6,8.7c1.4,3,3.6,5.6,6.3,7.6
	c3,2.1,6.4,3.5,10,4l1.5,0.2l-1.5,0.4c-3.5,0.9-6.5,3-8.5,6c-1.2,1.8-2,3.9-2.4,6c-0.3,2.1-0.2,4.2,0.3,6.2c1,3.9,3.4,7.2,6.7,9.5
	c3,2,6.5,3.1,10.1,3c3.1,0,6.2-0.8,9-2.3c2.3-1.2,4.3-2.9,6-4.9c1.3-1.5,2.3-3.2,3.2-4.9c0.5-1.1,1-2.3,1.3-3.5
	c0.1-0.4,0.2-0.7,0.2-0.9L157.4,185.4z"/>
<path class="st1" d="M150.3,133.9c-0.1,0-0.2-0.1-0.3-0.1l-0.8-0.4c-1.1-0.6-2.1-1.3-3-2c-10.6-8.6-12.2-24.1-3.6-34.7
	c1.3-1.6,2.7-3,4.3-4.2c3.4-2.5,7.2-4.3,11.2-5.5c4-1.1,8.2-1.9,12.3-2.2c4-0.4,7.9-0.6,11.5-0.8c3.5-0.2,6.9-0.6,10.4-1.2
	c3-0.5,5.9-1.3,8.7-2.4c4.1-1.5,7.9-3.9,11-6.9c0.8-0.9,1.6-1.8,2.3-2.7l-0.5,0.7c-0.7,1.6-0.4,0.5-0.4,0.4
	c-0.8,1.4-0.1,0.6-1.3,1.8c-3.1,3.2-6.9,5.6-11,7.2c-2.8,1.1-5.8,1.9-8.8,2.5c-3.5,0.6-6.9,1-10.4,1.1c-7.3,0.6-15.5,0.6-23.6,3.1
	c-4,1.1-7.7,2.9-11,5.4c-8.5,6.4-11.8,17.5-8.4,27.6c1.5,4.1,4,7.8,7.4,10.7c0.9,0.8,1.9,1.5,2.9,2.1l0.8,0.5
	C150.2,133.7,150.2,133.8,150.3,133.9z"/>
<path class="st2" d="M257.3,169.5c-1.1,5.5-3,10.7-5.7,15.6c5.8-3.6,10.3-8.9,12.8-15.2c-0.7,0.4-1.5,0.8-2.4,0.9
	C261.2,171,257.2,170.7,257.3,169.5z"/>
<path class="st1" d="M251.6,186.1c-0.6,0-1-0.4-1-1c0-0.2,0-0.3,0.1-0.5c2.6-4.8,4.5-10,5.6-15.3c0-0.6,0.4-1,1-1s1,0.4,1,1
	c1.1,0.4,2.3,0.6,3.6,0.5c0.7-0.1,1.4-0.4,2.1-0.8c0.4-0.2,0.8-0.2,1.1,0.1c0.3,0.3,0.4,0.7,0.3,1.1c-2.6,6.5-7.3,12.1-13.3,15.8
	C251.9,186.1,251.7,186.1,251.6,186.1z M257.9,171.3c-0.9,3.7-2.1,7.2-3.6,10.6c3.5-2.8,6.3-6.2,8.2-10.2l-0.3,0.1
	C260.7,171.9,259.3,171.7,257.9,171.3z"/>
<path class="st2" d="M262.6,115.8c0.2,1.8,0.2,3.7,0.2,6.2c0,1-2.8,19.1-3.6,26.4l8.5-33.2l-12.1-29.3l-4.5-14.4l-31.8-1.8
	c0,0,0.7,1.5,1.9,4.1C243.5,75.6,261.1,93.5,262.6,115.8z"/>
<path class="st2" d="M276.9,125.7c-2.5-5.3-8.8-7.2-7.6-22.7c0.1-1.4,0-2.8-0.3-4.2c-1.4-6.3-6.4-8.2-8.9-9.4
	c0.2-3.7,1.1-18.7-12.9-23.1c-14.2-4.5-21.5-5.1-32.9,4.4c-1.4-1.3,1.3,2.9,3,2.9c1.3,0,2.6,0.1,3.9,0.2c6.1,13.2,26,54.2,38,60.7
	c1.6,3.6-0.8,11.6,0,13.9c0,0.4-0.1,0.8-0.1,1.1c1.3-2.3,4-3.4,6.5-2.6c3.1,0.9,4.8,3.3,5.4,6.4c2.8-3.4,6.4-6.2,8.1-10.3
	C281.4,137.4,279.5,131.1,276.9,125.7z"/>
<path class="st1" d="M271.1,154.2c-0.1,0-0.2,0-0.3,0c-0.4-0.1-0.7-0.4-0.7-0.8c-0.4-2.1-1.5-4.8-4.7-5.6c-2.1-0.7-4.4,0.3-5.4,2.2
	c-0.3,0.5-0.9,0.6-1.4,0.3c-0.3-0.2-0.5-0.6-0.5-1c0-0.3,0.1-0.6,0.1-0.9c-0.2-1.8-0.2-3.6,0.2-5.4c0.3-2.7,0.7-6,0-7.9
	c-11.9-6.9-30.2-44.1-37.9-60.5c-1.3-0.1-2.5-0.4-3.7-0.7c-1.4-0.5-2.7-1.5-3.4-2.8c-0.2-0.4-0.1-0.9,0.2-1.2
	c9.3-7.8,20.7-9.3,33.8-4.6c5.4,1.9,9.7,6,11.8,11.3c1.7,3.8,2.4,8,2,12.1c2.8,1.3,7.3,3.6,8.7,9.8c0.3,1.5,0.4,3,0.3,4.5
	c-0.8,11,2.2,14.8,4.9,18.2c1,1.2,1.9,2.5,2.6,3.9c3.5,7.3,4.2,13.2,2.2,18c-1.2,3-3.5,5.4-5.7,7.7c-0.9,0.9-1.8,1.9-2.5,2.8
	C271.6,154,271.4,154.2,271.1,154.2z M264,145.6c0.7,0,1.3,0.1,2,0.3c2.6,0.7,4.8,2.7,5.6,5.3c0.5-0.5,0.9-1,1.4-1.5
	c2.1-2.3,4.2-4.4,5.3-7.1c1.7-4.3,1-9.7-2.2-16.4l0,0c-0.7-1.3-1.5-2.5-2.4-3.6c-2.8-3.5-6.2-7.8-5.3-19.6c0.1-1.3,0-2.6-0.2-3.9
	c-1.2-5.3-5.1-7.2-7.7-8.4l-0.6-0.3c-0.5-0.2-0.7-0.8-0.5-1.3c0.3-0.8,0.6-6.2-1.8-11.7c-1.9-4.7-5.7-8.4-10.5-10.1
	c-12.1-4.3-22.6-3.1-31.2,3.7c0.5,0.6,1.1,1,1.8,1.2c1.3,0.4,2.5,0.6,3.9,0.7c0.4,0,0.7,0.3,0.8,0.6c5.7,12.5,25.7,53.9,37.5,60.2
	c0.2,0.1,0.3,0.3,0.4,0.5c1.1,2.3,0.6,6,0.2,9.3c-0.1,1.2-0.3,2.6-0.3,3.6C261.2,146,262.6,145.6,264,145.6z"/>
<path class="st1" d="M267.6,147.8c0,0,0-0.1,0.2-0.2l0.6-0.6c0.5-0.6,1.2-1.4,2.1-2.6c1.1-1.4,1.9-3,2.4-4.6c0.3-1,0.4-2.1,0.2-3.2
	c-0.2-1.2-0.6-2.4-1.2-3.4c-1.3-2.2-3.4-4.2-5.3-6.6c-4.3-5.4-7.1-11.9-8.1-18.8c-0.4-3.9-0.5-7.7-0.3-11.6
	c0.2-3.8-0.2-7.7-1.1-11.4c-1.9-6.6-6.6-12-12.9-14.8c-2.6-1.1-5.3-1.8-8.1-1.9c-5.2-0.2-10.4,1.3-14.7,4.3l-0.7,0.5
	c-0.1,0.1-0.2,0.2-0.2,0.2c1.1-1,2.4-1.9,3.7-2.6c3.7-2,7.8-2.9,11.9-2.8c2.9,0.1,5.7,0.7,8.4,1.8c6.5,2.8,11.3,8.4,13.3,15.2
	c0.9,3.8,1.3,7.7,1.1,11.6c-0.2,3.8-0.1,7.7,0.3,11.5c0.9,6.8,3.7,13.2,7.9,18.6c1.9,2.4,4,4.4,5.3,6.7c0.6,1.1,1,2.3,1.2,3.6
	c0.1,1.1,0,2.3-0.3,3.4c-0.6,1.7-1.4,3.3-2.5,4.7c-0.7,0.9-1.4,1.7-2.2,2.6l-0.6,0.6C267.8,147.7,267.7,147.8,267.6,147.8z"/>
<path class="st1" d="M291.7,118.4c-0.4-1.3-1-2.4-2-3.4c-0.8-0.8-1.9-1.4-3.1-1.7c-1.9-0.5-3.9,0.1-5.2,1.6
	c-0.5,0.6-0.8,1.4-0.8,2.3c0,0.8,0.3,1.5,0.9,2c0.7,0.7,1.7,0.9,2.6,0.4c0.3-0.2,0.5-0.5,0.5-0.8c-0.1,0.3-0.3,0.5-0.6,0.6
	c-0.8,0.4-1.8,0.2-2.4-0.5c-0.5-0.5-0.8-1.1-0.7-1.8c0-0.8,0.3-1.5,0.8-2.1c1.2-1.4,3.2-1.9,4.9-1.4c1.1,0.3,2.1,0.8,2.9,1.6
	c0.9,0.9,1.5,2,1.9,3.2c0.8,2.6-0.3,5.4-2.5,6.8c-2.5,1.4-5.5,1.6-8.1,0.4c-1.5-0.6-2.9-1.4-4-2.6c-1.2-1.2-2.1-2.6-2.6-4.2
	c-0.5-1.6-0.8-3.3-1-5c-0.2-1.7-0.4-3.3-0.7-4.9c-0.5-3.1-1.4-6.2-2.6-9.1c-1.1-2.7-2.6-5.1-4.3-7.4c-1.5-1.9-3.4-3.6-5.4-4.9
	c-0.8-0.5-1.7-1-2.6-1.4c0,0.1,0.1,0.2,0.1,0.3c0.8,0.4,1.7,0.8,2.4,1.3c2,1.4,3.8,3.1,5.3,5c1.7,2.2,3.2,4.7,4.2,7.3
	c1.2,2.9,2.1,5.9,2.6,9c0.3,1.6,0.5,3.2,0.7,4.9c0.2,1.7,0.5,3.4,1,5c0.5,1.7,1.5,3.2,2.7,4.4c1.2,1.1,2.6,2,4.1,2.6
	c2.7,1.2,5.9,1.1,8.5-0.5C291.5,124.1,292.6,121.1,291.7,118.4L291.7,118.4z"/>
<path class="st10" d="M241.2,152.5c-0.2,0-0.3-0.5-0.2-1s0.4-0.9,0.5-0.9s0.3,0.5,0.2,1S241.4,152.5,241.2,152.5z"/>
<path class="st10" d="M250,150.6c-0.3,0-0.5-0.2-0.6-0.5c-0.1-0.3-0.1-0.6,0.2-0.7c0.2-0.1,0.4,0.2,0.6,0.5S250.2,150.6,250,150.6z"
	/>
<path class="st10" d="M245.6,156c-0.2,0-0.4-0.4-0.5-1s0-1,0.3-1.1s0.4,0.4,0.5,1S245.8,156,245.6,156z"/>
<path class="st10" d="M234.5,155.1c-0.2,0-0.2-0.6,0-1.1s0.4-1,0.7-0.9s0.2,0.6,0,1.1S234.7,155.1,234.5,155.1z"/>
<path class="st10" d="M195.6,151.4c-0.2,0-0.3-0.5-0.2-1s0.4-0.9,0.5-0.9s0.3,0.5,0.2,1S195.8,151.4,195.6,151.4z"/>
<path class="st10" d="M204.4,149.5c-0.3,0-0.5-0.2-0.6-0.5c-0.1-0.3-0.1-0.6,0.2-0.7c0.2-0.1,0.4,0.2,0.6,0.5
	S204.6,149.5,204.4,149.5z"/>
<path class="st10" d="M200,154.9c-0.2,0-0.4-0.4-0.5-1s0-1,0.3-1s0.4,0.4,0.5,1S200.2,154.9,200,154.9z"/>
<path class="st10" d="M194.5,157.4c-0.2,0-0.2-0.6,0-1.1s0.4-1,0.7-0.9s0.2,0.6,0,1.1S194.8,157.4,194.5,157.4z"/>
<path class="st10" d="M187.3,150.6c-0.2,0-0.2-0.6,0-1.1s0.4-1,0.7-0.9s0.2,0.6,0,1.1S187.5,150.6,187.3,150.6z"/>
<path class="st11" d="M222.4,178.8c0.2-1.1,0-2.2-0.8-3c-1.7-1.9-4-2.1-6.4-1.8c-2.4,0.4-4.8,0.5-7.1,0.2c-1.6-0.4-3.1-1.1-4.6-1.8
	c0.1,0.1,0.1,0.8,0.1,1c0,0.4,0.1,0.7,0.1,1.1c0.1,0.6,0.1,1.3,0.2,1.9c0.1,1.1,0.2,2.2,0.3,3.2c0.2,2.1,0.6,4.1,1.2,6.1
	c0.5,1.9,1.3,3.7,2.4,5.3c1.3,1.6,3.2,2.6,5.3,2.9c5.6,0.9,7.2-6.5,8-9.1C221.6,183.7,222.4,178.8,222.4,178.8z"/>
<path class="st1" d="M221.9,178.6c0.3,1.6-14.1-0.2-18.3-6.3c0.1,0.3,0.2,0.7,0.2,1c0.1,0.4,0.1,0.8,0.2,1.1c0.1,0.7,0.2,1.4,0.2,2
	c0.1,1.4,0.2,2.8,0.4,4.2c0.6,3.2,1.1,5,3.7,7.3c2.7,2.2,6.5,2.8,9.8,1.3c1.2-0.8,2-2,2.4-3.4c0.6-2,1.1-4,1.4-6.1
	C221.8,179.4,221.8,179,221.9,178.6z"/>
<path class="st5" d="M221.9,178.6c0.3,1.6-14.1-0.2-18.3-6.3c0.4,2.7,0.2,2,0.5,3.9c1.2,7.3,16.3,10.4,17.1,6.7
	C221.6,180.7,221.9,178.6,221.9,178.6z"/>
<path class="st1" d="M214.8,190.6c-2.9-0.1-5.6-1.3-7.6-3.3c-2.1-2.5-3.3-7.4-3.7-15c0-0.2,0.1-0.4,0.3-0.5c0.2-0.1,0.4,0,0.6,0.2
	c4,5.7,14,6.7,17.4,6.2c0.2,0,0.3,0,0.4,0.1c0.1,0.1,0.2,0.3,0.1,0.4l-0.5,3.1c-0.4,2.1-0.8,4.5-2.2,6.4c-1.1,1.4-2.7,2.2-4.5,2.3
	L214.8,190.6z M204.6,173.8c0.4,6.5,1.5,10.7,3.4,12.9c1.9,1.9,4.4,2.9,7.1,2.9c1.5-0.1,2.8-0.8,3.8-1.9c1.3-1.7,1.7-3.9,2-5.9
	l0.4-2.5C218,179.5,209.2,178.8,204.6,173.8z"/>
<path class="st5" d="M191.7,238.9l2.1-10.6c0,0,1,8.5,16.7,11c1.8,0.3,3.1,1.7,3.1,3.5l0.4,12.9C214,255.7,192.4,253,191.7,238.9z"
	/>
<path class="st5" d="M245.8,238.9l-2-10.6c0,0-1,8.5-16.7,11c-1.8,0.3-3.1,1.7-3.1,3.5l-0.4,12.2C223.5,255,245.2,249.4,245.8,238.9
	z"/>
<path class="st8" d="M194.7,241.9l2.1-10.6c0,0,1,8.5,16.7,11c1.8,0.3,3.1,1.7,3.1,3.5l0.4,12.8C217,258.7,195.4,256,194.7,241.9z"
	/>
<path class="st1" d="M214,256.7h-0.1c-0.9-0.1-22.4-3-23.2-17.8c0-0.1,0-0.2,0-0.2l2.1-10.6c0.1-0.5,0.5-0.8,1-0.8
	c0.5,0,0.9,0.4,0.9,0.9c0,0.3,1.2,7.8,15.9,10.1c2.2,0.3,3.9,2.2,4,4.5l0.4,12.9C215,256.3,214.5,256.7,214,256.7L214,256.7z
	 M192.7,239c0.7,11.2,15.9,14.8,20.3,15.6l-0.3-11.6c-0.1-1.3-1-2.4-2.3-2.6c-10.1-1.6-14.4-5.6-16.2-8.5L192.7,239z"/>
<path class="st8" d="M248.8,241.9l-2-10.6c0,0-1,8.5-16.7,11c-1.8,0.3-3.1,1.7-3.1,3.5l-0.4,12.2C226.5,258,248.2,252.4,248.8,241.9
	z"/>
<path class="st1" d="M223.5,256.4c-0.2,0-0.4-0.1-0.6-0.2c-0.2-0.2-0.4-0.5-0.4-0.8l0.4-12.2c0.1-2.3,1.8-4.1,4-4.5
	c14.7-2.3,15.9-9.8,15.9-10.1c0.1-0.5,0.5-0.9,1-0.9l0,0c0.5,0,0.9,0.3,1,0.8l2.1,10.6c0,0.1,0,0.2,0,0.2
	c-0.6,11.1-22.1,16.8-23.1,17C223.7,256.4,223.6,256.4,223.5,256.4z M243.4,232.1c-1.8,2.9-6.1,7-16.2,8.5c-1.3,0.2-2.3,1.3-2.3,2.6
	l-0.3,10.8c4.6-1.4,19.6-6.6,20.3-14.7L243.4,232.1z"/>
</svg>
