<?xml version="1.0" encoding="utf-8"?>
<!-- Generator: Adobe Illustrator 25.4.1, SVG Export Plug-In . SVG Version: 6.00 Build 0)  -->
<svg version="1.1" id="Cliente_9" xmlns="http://www.w3.org/2000/svg" xmlns:xlink="http://www.w3.org/1999/xlink" x="0px" y="0px"
	 viewBox="0 0 432 589" style="enable-background:new 0 0 432 589;" xml:space="preserve">
<style type="text/css">
	.st0{fill:#8F5646;}
	.st1{fill:#59316D;}
	.st2{fill:#723628;}
	.st3{fill:#FFFFFF;}
	.st4{fill:#F9AFA1;}
	.st5{fill:#BBBDBF;}
	.st6{fill:#C8CACB;}
	.st7{fill:#754739;}
	.st8{fill:#9E2810;}
	.st9{fill:#FFDE55;}
</style>
<path class="st0" d="M157.1,297.4c1.5-7.3,1.9-12.6,0.7-19.1c-3.1-16.2-22.3-22.1-31-20.4c-17.6,3.3-22.3,14.7-24,21.8
	c-1,5.3-3.8,16.8-4.8,22.1l-14.1,75.5c-2.4,12.6-4.7,25.2-7,37.8c-2,10.8-5.8,22.1-5.8,33.1c-0.8,10.9,6.5,19.3,17.7,23.1
	c7.8,2.7,18.1-0.5,23.6-6.8c5.1-5.7,5.6-9.3,7.2-15.5c6.7-26.7,12.5-53.7,19.2-80.3c3.6-14.6,8-29.8,11.7-44.7
	C152.6,315.5,155.2,306.3,157.1,297.4z"/>
<path class="st0" d="M119.6,632.5c-0.3-6.3-2.2-12.4-5.6-17.6c-4.8-7.2-8.7-12.3-8.7-12.3s4.2-42.6,9.8-77.2
	c1.9-12,3.1-24.1,3.4-36.2l0.3-39.3c-0.1-1.8-0.2-3.7-0.5-5.5c-0.9-8.8-11.1-18.6-24.3-18.1c-10.4,0.4-22,7.9-23,20.5l-0.8,29.4
	c-1.6,29.1,8.9,105.8,11.4,126.3c-0.5,1.2-0.7,2.5-0.8,3.8v0.4c0,0-6.4,9.3-4.2,33.2c2.9,30.8,19.4,43.9,29.4,42.3
	c7.9-1.2-4.6-18.9-5-35.2c0.2-1.8,4.8-13.7,5.1-16.3l6,20.4c1.1,1.6,3.1,2.3,5,1.8c2-0.5,3.4-2.3,3.3-4.3L119.6,632.5z"/>
<path class="st1" d="M104.4,683.3c-3.6,0-7.5-1.5-11.3-4.5c-9.4-7.3-15.8-21.5-17.4-38.9c-2.1-22.1,3.1-31.9,4.2-33.6v-0.1
	c0.1-1.3,0.3-2.6,0.8-3.9c-0.3-2.6-0.8-6.1-1.3-10.3c-3.7-29.4-11.5-90.5-10.1-115.9l0.8-29.4c0-0.1,0-0.2,0-0.3v-0.1
	c0.2-7.1,1.9-14.4,3.6-21.4c0.8-3.3,1.6-6.8,2.2-10.1L97,301.5c0.5-2.7,1.5-7,2.4-11.1s1.9-8.4,2.4-11c3-12.5,11.4-20,24.8-22.6
	c9.6-1.8,29,4.9,32.2,21.2l0,0c1.3,7,0.7,12.6-0.7,19.5c-1.2,5.9-2.8,12-4.4,17.9c-0.8,3-1.5,5.9-2.2,8.7c-1.9,7.7-4,15.6-6.1,23.3
	c-1.9,7.1-3.9,14.4-5.6,21.4c-3.3,13.3-6.5,27-9.6,40.2s-6.2,26.8-9.6,40.1l-0.7,2.8l-0.3,37.1c-0.4,12.2-1.5,24.3-3.5,36.3
	c-5.2,32.4-9.3,72.4-9.7,76.8c0.9,1.2,4.3,5.9,8.4,12c3.5,5.4,5.5,11.7,5.8,18.2l0.9,15.9c0.1,2.5-1.6,4.8-4,5.4
	c-2.3,0.6-4.7-0.3-6.1-2.2c-0.1-0.1-0.1-0.2-0.1-0.3l-5-17c-0.6,1.9-1.4,4.1-2.1,6.4c-0.9,2.7-1.9,5.5-2,6.3
	c0.2,7,2.7,14.5,4.7,20.4c2.2,6.6,3.8,11.3,2.2,14c-0.6,1-1.6,1.6-2.8,1.7C105.7,683.2,105.1,683.3,104.4,683.3z M129.7,258.6
	c-0.9,0-1.9,0.1-2.8,0.2c-12.8,2.4-20.3,9.3-23.2,21c-0.5,2.6-1.4,6.9-2.4,11s-1.9,8.4-2.4,11L77.9,415.2c-0.6,3.4-1.4,6.8-2.2,10.2
	c-1.6,6.9-3.3,14.1-3.5,21v0.4l-0.8,29.4c-1.4,25.3,6.3,86.3,10,115.6c0.6,4.3,1,7.9,1.3,10.6c0,0.2,0,0.3-0.1,0.5
	c-0.4,1.1-0.7,2.3-0.7,3.5v0.4c0,0.2-0.1,0.4-0.2,0.5c-0.1,0.1-6.2,9.4-4,32.5c1.6,16.9,7.7,30.5,16.6,37.5c3.9,3,8.1,4.5,11.6,3.9
	c0.6,0,1.1-0.3,1.4-0.8c1.1-1.8-0.6-6.9-2.4-12.3c-2.1-6.1-4.6-13.8-4.8-21.1c0-0.1,0-0.1,0-0.2c0.6-2.3,1.3-4.5,2.1-6.8
	c1.2-3.1,2.2-6.3,3-9.5c0.1-0.5,0.4-0.8,0.9-0.9c0.5,0,0.9,0.3,1,0.7l6,20.3c0.9,1.2,2.4,1.7,3.8,1.3c1.5-0.4,2.6-1.8,2.6-3.3
	l-0.9-15.9c-0.3-6.1-2.2-12-5.5-17.2c-4.7-7.1-8.6-12.2-8.6-12.3c-0.1-0.2-0.2-0.5-0.2-0.7c0-0.4,4.3-43,9.8-77.3
	c1.9-11.9,3.1-24,3.4-36l0.3-37.2c0-0.1,0-0.2,0-0.2l0.7-3c3.3-13.3,6.5-26.9,9.6-40.1c3.1-13.2,6.3-26.9,9.6-40.2
	c1.8-7.1,3.7-14.4,5.6-21.5c2.1-7.6,4.2-15.5,6.1-23.2c0.7-2.8,1.5-5.7,2.2-8.7c1.5-5.9,3.1-12,4.3-17.8c1.4-6.7,2-12.1,0.7-18.8
	l0,0C154,264.1,138.4,258.6,129.7,258.6L129.7,258.6z"/>
<path class="st0" d="M276.5,299.4c-1.4-7.3-1.8-12.7-0.5-19.1c3.2-16.1,22.5-21.9,31.2-20.1c17.6,3.5,22.1,14.9,23.8,22
	c0.9,5.3,3.6,16.8,4.6,22.1c4.5,25.2,9,50.4,13.5,75.6l6.7,37.8c1.9,10.8,5.6,22.2,5.5,33.2c0.8,10.9-6.7,19.2-17.9,23
	c-7.8,2.6-18.1-0.6-23.6-7c-5-5.8-5.5-9.3-7-15.6c-6.4-26.7-12-53.8-18.5-80.4c-3.5-14.6-7.8-29.9-11.3-44.8
	C280.8,317.5,278.2,308.2,276.5,299.4z"/>
<path class="st0" d="M311.1,634.8c0.4-6.3,2.4-12.4,5.8-17.6c4.9-7.2,8.8-12.2,8.8-12.2s-3.8-42.7-9.1-77.3
	c-1.8-12-2.9-24.1-3.1-36.2v-39.3c0.1-1.8,0.3-3.7,0.5-5.5c1-8.8,11.3-18.5,24.5-17.9c10.4,0.5,22,8.1,22.8,20.7l0.5,29.4
	c1.3,29.1-9.8,105.7-12.5,126.2c0.5,1.2,0.7,2.5,0.8,3.8v0.4c0,0,6.4,9.4,3.9,33.2c-3.2,30.8-19.8,43.7-29.7,42
	c-7.9-1.3,4.8-18.9,5.3-35.2c-0.2-1.8-4.7-13.8-5-16.4l-6.2,20.4c-1.1,1.6-3.1,2.3-5,1.8c-2-0.5-3.3-2.3-3.2-4.4L311.1,634.8z"/>
<path class="st1" d="M326,685.6c-0.7,0-1.3,0-2-0.2c-1.2-0.1-2.2-0.8-2.8-1.8c-1.6-2.6,0.1-7.4,2.4-13.9c2.1-6,4.6-13.4,4.9-20.4
	c-0.1-0.8-1.1-3.6-2-6.3c-0.8-2.2-1.5-4.5-2.1-6.4l-5.2,17c0,0.1-0.1,0.2-0.1,0.3c-1.4,1.9-3.8,2.8-6.1,2.2c-2.5-0.6-4.1-2.9-4-5.4
	l1.1-15.9c0.4-6.5,2.4-12.7,6-18.1c4.2-6.1,7.6-10.8,8.5-12c-0.4-4.3-4.1-44.4-9.1-76.8c-1.8-12-2.9-24.2-3.1-36.4v-37.2l-0.7-2.9
	c-3.2-13.3-6.3-27-9.2-40.2s-6-26.9-9.3-40.3c-1.7-7-3.6-14.4-5.4-21.5c-2-7.7-4-15.6-5.9-23.3c-0.7-2.8-1.4-5.8-2.2-8.7
	c-1.5-5.9-3-12-4.2-18c-1.4-6.9-1.9-12.6-0.5-19.5c3.3-16.3,22.8-22.8,32.4-20.9c13.4,2.7,21.7,10.3,24.6,22.7
	c0.5,2.7,1.4,7,2.3,11.1s1.8,8.4,2.4,11.1l20.1,113.5c0.6,3.3,1.4,6.8,2.1,10.1c1.6,7,3.2,14.3,3.4,21.5v0.3l0.5,29.5
	c1.2,25.4-7.1,86.4-11.1,115.8c-0.6,4.2-1,7.7-1.4,10.3c0.4,1.3,0.7,2.6,0.8,3.9v0.1c1,1.7,6.2,11.5,3.9,33.6
	c-1.8,17.4-8.3,31.5-17.7,38.7C333.5,684.1,329.5,685.6,326,685.6z M324.5,632h0.1c0.5,0,0.8,0.4,0.9,0.9c0.8,3.2,1.7,6.4,2.9,9.6
	c0.8,2.2,1.5,4.5,2.1,6.8c0,0.1,0,0.1,0,0.2c-0.2,7.3-2.9,15-5,21.1c-1.9,5.3-3.6,10.4-2.5,12.3c0.3,0.5,0.8,0.8,1.4,0.8
	c3.4,0.6,7.7-0.8,11.6-3.8c9-6.9,15.2-20.5,17-37.3c2.4-23.1-3.7-32.5-3.7-32.6c-0.1-0.2-0.2-0.3-0.2-0.5v-0.4
	c0-1.2-0.3-2.4-0.7-3.5c-0.1-0.2-0.1-0.3,0-0.5c0.3-2.7,0.8-6.3,1.4-10.6c4-29.3,12.2-90.2,11-115.4l-0.5-29.7
	c-0.2-7-1.8-14.2-3.4-21.1c-0.8-3.4-1.5-6.8-2.1-10.2l-20.2-113.5c-0.5-2.6-1.4-6.9-2.3-11s-1.8-8.4-2.3-11.1
	c-2.8-11.7-10.3-18.6-23-21.2c-7.5-1.5-26.8,3.3-30,19.4l-1-0.2l1,0.2c-1.3,6.6-0.8,12.1,0.5,18.8c1.1,5.9,2.7,12,4.2,17.9
	c0.8,3,1.5,5.9,2.2,8.7c1.8,7.7,3.9,15.6,5.9,23.3c1.9,7.1,3.8,14.4,5.5,21.5c3.2,13.4,6.3,27.1,9.3,40.3s6,26.8,9.2,40.1l0.7,3
	c0,0.1,0,0.2,0,0.2v37.2c0.3,12.1,1.3,24.1,3.1,36.1c5.2,34.3,9.1,76.9,9.1,77.4c0,0.2-0.1,0.5-0.2,0.7c0,0-3.9,5.2-8.7,12.2
	c-3.4,5.1-5.3,11-5.7,17.1l-1.1,15.9c-0.1,1.6,1,3,2.5,3.3c1.4,0.4,2.9-0.1,3.8-1.2l6.2-20.2C323.7,632.2,324.1,632,324.5,632z"/>
<path class="st2" d="M203.2,236.3v-6.7c0,0-4.4-0.2-6.5,1.8l1.2,9.4L203.2,236.3z"/>
<path class="st3" d="M293.2,337.9l0.2-6c0.9-20.9,1.6-49.4,15-66.5c1.3-1.9,3.1-3.5,5.1-4.7c-15-7.8-21.7-12.3-44.5-16.9
	c-13.4-2.7-18.7-4.9-28.4-5.6l-47.6,0.1c-8.9,0.8-14.3,2.9-27.1,5.5c-10.1,2-20.2,3.9-30,7c-2.7,0.9-20.1,6.7-18.5,10.8
	c3.4,8.9,8.3,17.1,11.6,26.2c8,22.3,9.6,46.1,10.4,69.6c0.6,18.9,2.6,37.7,2.1,56.6c-0.5,23.2-4.4,45.7-7.8,68.6
	c-1.3,8.7-22.9,93.3-17.1,109.9c11.5,8.2,34,19.5,47.1,22.9c66.4,16.8,157.4-18.7,157.4-18.7c1.7-42.5-25.7-120.6-29-147.1
	c-2.4-18.9-0.4-38.1-0.2-57C291.9,374.5,292.5,356.1,293.2,337.9z"/>
<path class="st4" d="M299.2,337.9l0.2-6c0.9-20.9,1.6-49.4,15-66.5c1.3-1.9,3.1-3.5,5.1-4.7c-15-7.8-21.7-12.3-44.5-16.9
	c-13.4-2.7-18.7-4.9-28.4-5.6l-47.6,0.1c-8.9,0.8-14.3,2.9-27.1,5.5c-10.1,2-20.2,3.9-30,7c-2.7,0.9-20.1,6.7-18.5,10.8
	c3.4,8.9,8.3,17.1,11.6,26.2c8,22.3,9.6,46.1,10.4,69.6c0.6,18.9,2.6,37.7,2.1,56.6c-0.5,23.2-4.4,45.7-7.8,68.6
	c-1.3,8.7-22.9,93.3-17.1,109.9c11.5,8.2,34,19.5,47.1,22.9c66.4,16.8,157.4-18.7,157.4-18.7c1.7-42.5-25.7-120.6-29-147.1
	c-2.4-18.9-0.4-38.1-0.2-57C297.9,374.5,298.5,356.1,299.2,337.9z"/>
<path class="st1" d="M203.4,621c-13.4,0.1-26.9-1.4-39.9-4.5c-13.5-3.4-36.2-15-47.5-23l-0.3-0.2l-0.1-0.3
	c-4.7-13.4,7.9-69.4,14-96.3c1.6-7.2,2.8-12.3,3.1-14.1c0.5-3.3,1-6.7,1.5-10c2.9-19,5.9-38.7,6.3-58.5c0.3-12.3-0.4-24.8-1.1-36.8
	c-0.4-6.5-0.8-13.2-1-19.8c-0.8-22.6-2.2-46.6-10.3-69.3c-1.8-4.7-3.8-9.3-6-13.8c-1.9-4-3.9-8.1-5.5-12.4c-0.3-0.7-0.2-1.5,0.2-2.2
	c2.1-4.4,16.2-9,19-9.9c9.1-2.9,18.6-4.8,27.8-6.6l2.4-0.5c4.9-1,8.8-1.9,12.1-2.7c5-1.4,10-2.3,15.1-2.8l47.6-0.1
	c5.6,0.5,11.1,1.4,16.4,2.9c3.4,0.8,7.2,1.7,12.1,2.7c20.2,4,27.9,8.1,39.6,14.2c1.6,0.9,3.3,1.8,5.1,2.7l1.7,0.9l-1.7,0.9
	c-1.9,1.1-3.5,2.6-4.8,4.4c-12.7,16.3-13.8,43.8-14.7,63.9l-0.1,2l-0.2,6c-0.8,20.5-1.3,38.4-1.4,54.7c0,5.6-0.3,11.4-0.5,17
	c-0.5,13.1-1,26.7,0.7,39.8c1.2,9.1,5.2,24.5,9.9,42.3c9,34.3,20.2,77,19.2,105v0.7l-0.6,0.2C320.7,598,261,621,203.4,621z
	 M117.4,592c11.2,7.9,33.3,19.2,46.5,22.5c62.5,15.8,148.1-15.4,156.1-18.4c0.9-27.7-10.2-69.8-19.1-103.8
	c-4.7-17.9-8.8-33.3-9.9-42.6c-1.7-13.3-1.2-26.9-0.7-40.1c0.2-5.6,0.4-11.4,0.5-17c0.1-16.4,0.6-34.3,1.4-54.8l0.2-6l0.1-2
	c0.8-20.4,2-48.2,15.1-65.1c1.1-1.5,2.4-2.9,3.9-4l-3.6-1.9c-11.5-6.1-19.2-10.1-39.1-14.1c-5-1-8.8-1.9-12.2-2.7
	c-5.2-1.4-10.6-2.4-16-2.9l-47.5,0.1c-5,0.5-9.9,1.4-14.7,2.7c-3.4,0.8-7.2,1.7-12.2,2.7l-2.4,0.5c-9.1,1.8-18.6,3.7-27.6,6.5
	c-6.4,2-16.4,6.1-17.8,8.9c-0.1,0.2-0.2,0.4-0.1,0.6c1.6,4.2,3.6,8.3,5.5,12.2c2.3,4.5,4.3,9.2,6.1,13.9
	c8.2,22.9,9.6,47.1,10.4,69.9c0.2,6.6,0.6,13.3,1,19.7c0.7,12.1,1.4,24.6,1.1,37c-0.5,19.9-3.4,39.6-6.3,58.7
	c-0.5,3.3-1,6.6-1.5,9.9c-0.3,1.9-1.4,7.1-3.1,14.3C125.6,523.6,113.2,578.6,117.4,592z"/>
<path class="st5" d="M259.3,107.6c0-4.1-16.2-9.8-42.7-9.8s-42.7,5.7-42.7,9.8H259.3L259.3,107.6z"/>
<path class="st6" d="M216.6,117.5c-26.5,0-42.7-5.7-42.7-9.8h-1c0,6.2,19.6,11.2,43.8,11.2s43.8-5,43.8-11.2h-1
	C259.3,111.8,243,117.5,216.6,117.5z"/>
<path class="st5" d="M216.6,117.5c26.5,0,42.7-5.7,42.7-9.8h-85.4C173.9,111.8,190.1,117.5,216.6,117.5z"/>
<path class="st0" d="M241.2,245.4c1.9,21.1-52.3,12.1-47.3-1.2c5.7-15.2,3.8-52.7,3.8-52.7h40.7
	C238.4,191.5,239.1,222.1,241.2,245.4z"/>
<path class="st7" d="M239,190.3c-7.9,3.2-13.6,3.2-22.2,2.7c-7.8,0-11.9-1.6-19.1-4c0,0,0.3,15.3,0.2,17.3
	c6.1,6,12.1,12.5,20.9,12.5c8,0,14.7-5.5,20.4-10.2C239.2,208.6,238.9,192,239,190.3z"/>
<path class="st1" d="M221.7,259c-10.2,0-21.3-3.1-26.3-7.6c-3.3-2.9-3.2-5.7-2.5-7.6c5.5-14.9,3.7-52,3.7-52.3
	c0-0.3,0.1-0.5,0.3-0.7c0.2-0.2,0.4-0.3,0.7-0.3h40.7c0.6,0,1,0.4,1,1c0,0.3,0.8,30.9,2.8,53.8l0,0c0.4,4.8-1.8,8.6-6.5,11
	C231.9,258.2,227,259,221.7,259z M198.7,192.5c0.3,6.3,1.3,38.1-3.9,52.1c-0.7,1.8,0,3.6,2,5.4c7,6.3,27.8,9.7,38,4.6
	c4-2,5.8-5,5.4-9c-1.9-20.7-2.7-47.6-2.8-53L198.7,192.5z"/>
<path class="st0" d="M265.7,146.8c-2.5-0.8-5.2,0.3-6.5,2.6c0.5-6.4,3.7-26.5,3.7-27.5c0-2.4-0.1-4.4-0.2-6.2
	c-1.7-25-23.4-43.8-48.4-42c-23.7,1.7-42.1,21.4-42.2,45.1c0,2.4,0,7.7,0.1,8.1c-0.1,1.4,1.5,16,2.2,21.6c-1.3-1.4-3.3-2.1-5.3-1.7
	c-3.2,0.7-5.5,3.6-5.4,6.9c0,4.6,1.4,9.1,4,12.9c2.7,3.5,6.6,4.8,10,3.8c2,14.6,11.4,28.9,24.9,35.4c26.1,12.6,49.8-11.8,54.7-36.3
	c0,1.2,4,1.5,4.7,1.3C270.7,169.1,275.8,149.6,265.7,146.8z"/>
<path class="st1" d="M216.9,210.2c-5.1,0-10.2-1.2-14.8-3.5c-13-6.3-22.9-19.9-25.3-35c-3.6,0.5-7.3-1.1-9.9-4.4
	c-2.8-4-4.2-8.7-4.2-13.5c0-3.7,2.5-6.9,6.1-7.8c1.4-0.4,3-0.2,4.3,0.6c-0.8-6.4-2-18.2-1.9-19.5c0-0.4-0.1-6-0.1-8.1
	c0-25.6,20.8-46.3,46.3-46.3c24.3,0,44.5,18.8,46.2,43.1c0.1,1.7,0.2,3.6,0.2,6.2c0,0.4-0.3,2.3-1,7.7s-1.8,12.4-2.3,17
	c1.6-1.1,3.6-1.3,5.5-0.8l0,0c4.2,1.1,6.5,5.1,6.3,10.5c-0.2,6.6-4.4,14.4-10.1,15.4c-1.4,0.1-2.9,0-4.3-0.5
	c-3.5,15.3-13.7,29-26.1,35.2C227.2,208.9,222.1,210.2,216.9,210.2z M177.7,169.4c0.2,0,0.4,0.1,0.6,0.2c0.2,0.2,0.4,0.4,0.4,0.7
	c2,14.9,11.6,28.4,24.3,34.6c8.8,4.4,19.1,4.4,27.9-0.1c12.2-6.1,22.4-20.3,25.4-35.5c0-0.6,0.4-1,1-1s1,0.4,1,1
	c1.1,0.4,2.3,0.6,3.6,0.5c4.7-0.9,8.2-7.9,8.5-13.6c0.1-2.1-0.2-7.2-4.9-8.5l0,0c-2.1-0.7-4.4,0.3-5.4,2.2c-0.3,0.5-0.9,0.6-1.4,0.3
	c-0.3-0.2-0.5-0.6-0.5-1c0.3-4,1.7-13.2,2.6-20c0.5-3.6,1-7,1-7.4c0-2.5-0.1-4.4-0.2-6c-1.7-24.4-22.9-42.8-47.3-41.1
	c-23.2,1.6-41.1,20.9-41.2,44.1c0,2.4,0,7.7,0.1,8c-0.1,1.4,1.5,16,2.2,21.6c0,0.4-0.2,0.8-0.5,1c-0.4,0.2-0.8,0.1-1.1-0.2
	c-1.1-1.2-2.7-1.8-4.3-1.5c-2.8,0.6-4.7,3.1-4.6,5.9c0,4.4,1.3,8.6,3.8,12.2c2.4,3,5.8,4.4,8.9,3.5
	C177.4,169.5,177.6,169.4,177.7,169.4z"/>
<path class="st7" d="M173.2,151.4c-1.3-1.2-3.8-1.8-4.9,0.1c-0.3,0.5-0.2,1.4,0.4,1.6c0.8,0.2,1.6,0,2.4,0.3c0.8,0.4,1.4,1.1,1.7,2
	c0.5,1.2,0,3.3,1.7,2.4c0.6-0.4,0.9-1,0.9-1.7C175.6,154.3,174.8,152.4,173.2,151.4z"/>
<path class="st7" d="M261.7,150.6c1.3-1.2,3.8-1.8,4.9,0.1c0.3,0.5,0.2,1.4-0.4,1.6c-0.8,0.2-1.6,0-2.4,0.3c-0.8,0.4-1.4,1.1-1.7,2
	c-0.5,1.2-0.4,4.9-2,4c-0.6-0.4-0.9-1-0.8-1.7C259.2,154.6,260,152.3,261.7,150.6z"/>
<path class="st1" d="M204.8,118.7c-0.2,0-0.5-0.1-0.6-0.2c-2.9-2.6-7.3-2.6-10.2,0c-0.4,0.4-1,0.4-1.4-0.1s-0.4-1,0.1-1.4
	c0.1-0.1,6.1-5.6,12.8,0c0.4,0.4,0.5,1,0.1,1.4C205.4,118.7,205.1,118.8,204.8,118.7L204.8,118.7z"/>
<path class="st1" d="M241.5,118.7c-0.2,0-0.5-0.1-0.6-0.2c-2.9-2.6-7.3-2.6-10.2,0c-0.4,0.4-1,0.4-1.4-0.1s-0.4-1,0.1-1.4
	c0.1-0.1,6.1-5.6,12.8,0c0.4,0.4,0.5,1,0.1,1.4C242.1,118.7,241.8,118.8,241.5,118.7L241.5,118.7z"/>
<path class="st7" d="M218.7,144.3c2,2.6,4.1,5.3,5.3,8.5s1.2,7-0.6,9.8c-0.9,1.5-2.5,2.5-4.2,2.7c-1.8,0.1-3.4-0.9-4.1-2.6
	c-0.6-1.7,0.3-3.9,1.9-4.3c-1.5-3.1-2.2-6.6-2.2-10.1c-0.1-1.2,0.2-2.4,0.8-3.4C216.4,144.1,218,143.4,218.7,144.3z"/>
<path class="st1" d="M226.2,155.6c-0.5-5.3-4.1-9.5-7.9-12.6c-0.5-0.4-1.2,0.3-0.9,0.8c2,3.2,5.2,6.5,6.1,10.3c0.5,2,0.4,4-0.3,5.9
	c-0.8,1.8-2.8,2.4-4,3.8c-0.9,1-0.9,1.6,0.3,1.5C223.9,164.8,226.6,159.6,226.2,155.6z"/>
<path class="st8" d="M222.1,180.5c0.2-1.1-0.1-2.2-0.8-3c-1.7-1.9-4-2.1-6.4-1.8c-2.4,0.4-4.8,0.5-7.1,0.2c-1.6-0.4-3.1-1.1-4.6-1.9
	c0.1,0.1,0.1,0.8,0.1,1c0,0.4,0.1,0.7,0.1,1.1c0.1,0.6,0.1,1.3,0.2,1.9c0.1,1.1,0.2,2.2,0.3,3.2c0.2,2.1,0.6,4.1,1.2,6.1
	c0.5,1.9,1.3,3.7,2.4,5.3c1.3,1.6,3.2,2.6,5.3,2.9c5.6,0.9,7.2-6.5,8-9.1C221.3,185.4,222.1,180.5,222.1,180.5z"/>
<path class="st1" d="M221.6,180.3c0.3,1.6-14.1-0.2-18.3-6.3c0.1,0.3,0.2,0.7,0.2,1c0.1,0.4,0.1,0.8,0.2,1.1c0.1,0.7,0.2,1.4,0.2,2
	c0.2,1.4,0.2,2.8,0.4,4.2c0.6,3.2,1.1,5,3.7,7.3c2.7,2.2,6.5,2.8,9.8,1.3c1.1-0.8,2-2,2.3-3.4c0.6-2,1.1-4,1.4-6.1
	C221.5,181.1,221.5,180.7,221.6,180.3z"/>
<path class="st3" d="M221.6,180.3c0.3,1.6-14.1-0.2-18.3-6.3c0.5,2.7,0.2,2,0.5,3.9c1.2,7.3,16.3,10.4,17.1,6.8
	C221.3,182.4,221.6,180.3,221.6,180.3z"/>
<path class="st1" d="M214.5,192.2c-2.9-0.1-5.6-1.2-7.6-3.3c-2.1-2.5-3.3-7.4-3.7-15c0-0.2,0.1-0.4,0.3-0.5c0.2-0.1,0.4,0,0.6,0.2
	c4,5.7,14,6.7,17.4,6.1c0.2,0,0.3,0,0.4,0.1c0.1,0.1,0.2,0.3,0.1,0.4l-0.5,3.1c-0.4,2.1-0.8,4.5-2.2,6.4c-1.1,1.4-2.7,2.2-4.5,2.3
	L214.5,192.2z M204.3,175.4c0.4,6.5,1.6,10.7,3.4,12.9c1.9,1.9,4.4,2.9,7.1,2.9c1.5-0.1,2.8-0.8,3.8-1.9c1.3-1.7,1.7-3.9,2-5.9
	l0.4-2.5C217.7,181.1,208.9,180.4,204.3,175.4z"/>
<path class="st9" d="M177.1,201c-1.4-0.2-2.7-1-3.4-2.3c-3.4-5.4-3.7-13.3-3.5-20.3c0.1-3.2,1.6-12.8,4.1-13c0.3,0,0.5,0.2,0.6,0.4
	c0,0.3-0.2,0.5-0.4,0.5c0,0,0,0,0,0c-1.2,0.1-3.1,7.3-3.2,12c-0.1,6.9,0.1,14.6,3.4,19.8c0.6,0.9,1.6,1.9,2.7,1.8
	c1.3-0.1,2.4-6.1,2.3-9c0.1-2.6-0.1-5.2-0.4-7.7c0-0.3,0.2-0.5,0.4-0.6c0.3,0,0.5,0.2,0.6,0.4c0.3,2.6,0.4,5.2,0.4,7.8
	c0,1.3-0.5,9.8-3.2,10L177.1,201z"/>
<path class="st9" d="M258.2,202.4h-0.2c-2.7-0.3-3.2-8.7-3.2-10c-0.1-2.6,0.1-5.2,0.4-7.8c0-0.3,0.3-0.5,0.6-0.4
	c0.3,0,0.5,0.3,0.5,0.5c0,0,0,0,0,0c-0.3,2.6-0.4,5.2-0.4,7.8c0,2.9,1,8.9,2.3,9c1.1,0.1,2.1-0.9,2.6-1.8c3.2-5.2,3.5-12.9,3.4-19.8
	c-0.1-4.7-2-11.9-3.2-12c-0.3,0-0.5-0.3-0.5-0.5c0-0.3,0.3-0.5,0.5-0.4c2.5,0.2,4.1,9.8,4.1,13c0.1,7-0.1,14.9-3.5,20.3
	C260.8,201.4,259.6,202.2,258.2,202.4z"/>
<circle class="st1" cx="234.3" cy="136.4" r="3"/>
<circle class="st1" cx="202.1" cy="137.2" r="3"/>
<path class="st3" d="M244.9,263.7h-53.1c-0.9,0,0-24.6,0-25.6l1.9-23.2c-0.1-0.9,0.6-1.8,1.6-1.9c0,0,8.5,3.7,22.8,4.2
	c10.3,0.4,23.4-4.2,23.4-4.2c1,0.1,1.7,0.9,1.6,1.9l1.9,26.7C244.9,242.6,245.8,263.7,244.9,263.7z"/>
<path class="st4" d="M250.9,263.7l0.4,10.6l-64.3-5l1.6-28.5c-0.9,0,9.3-1.8,9.3-2.8l1.9-23.2c-0.1-0.9,0.6-1.8,1.6-1.9
	c0,0,8.5,3.7,22.8,4.2c10.3,0.4,23.4-4.2,23.4-4.2c1,0.1,1.7,0.9,1.6,1.9l1.9,26.7C250.9,242.6,251.8,263.7,250.9,263.7z"/>
<path class="st1" d="M248.9,240.4l-4.3-0.7c-0.5-0.1-0.8-0.5-0.8-0.9l-1.7-23.9c0-0.4-0.1-0.7-0.5-0.9c-1.8,0.6-13.8,4.6-23.5,4.2
	c-13.1-0.5-21.3-3.6-22.9-4.2c-0.3,0.2-0.5,0.5-0.4,0.8l-1.9,23.6c0,0.4-0.4,0.8-0.8,0.9l-4.3,0.8l-0.4-2l3.6-0.7l1.8-22.8
	c0-1.5,1.1-2.7,2.6-2.8c0.1,0,0.3,0,0.4,0.1c0.1,0,8.5,3.6,22.4,4.2c10,0.4,22.9-4.1,23-4.2c0.1,0,0.2,0,0.3,0
	c1.5,0.1,2.7,1.4,2.6,2.9l1.6,23.1l3.5,0.6L248.9,240.4z"/>
</svg>
