<?xml version="1.0" encoding="utf-8"?>
<!-- Generator: Adobe Illustrator 25.4.1, SVG Export Plug-In . SVG Version: 6.00 Build 0)  -->
<svg version="1.1" id="Cliente_4" xmlns="http://www.w3.org/2000/svg" xmlns:xlink="http://www.w3.org/1999/xlink" x="0px" y="0px"
	 viewBox="0 0 432 589" style="enable-background:new 0 0 432 589;" xml:space="preserve">
<style type="text/css">
	.st0{fill:#B88469;}
	.st1{fill:#59316D;}
	.st2{fill:#FFFFFF;}
	.st3{fill:#FFDEA9;}
	.st4{fill:#A86751;}
</style>
<path class="st0" d="M153.6,295.1c0.9-6.7,1-13.5,0.4-20.3c-1.8-19-22.6-21.9-40-18.9c-13.5,2.4-23.7,13.6-24.7,27.3L61.6,439.9
	c0,0.3-0.1,0.6-0.1,0.9l-0.2,1.4h0c-1.3,15.5,10.3,29,25.7,30.3s29-10.3,30.3-25.7l26-109.7C147.1,321.1,151.6,311.9,153.6,295.1z"
	/>
<path class="st0" d="M70,608.5v0.4c-4.1,14.1-5.5,28.8-4.2,43.3c2.8,31.3,18.7,44.5,28.3,42.9c7.6-1.3,4.8-17.7,4.4-34.2
	c0.2-1.8,4.8-23.6,5.1-26.2l5.8,20.7c1.3,2,4,2.6,6,1.4c1.3-0.8,2.1-2.4,2-4l-0.9-16.2c-0.3-6.3-2.2-12.5-5.5-17.9
	c-3.1-4.6-7.3-8.2-12.3-10.5c0,0,9-46.8,14.4-81.9c1.9-12.2,3-24.4,3.3-36.7l1-41.1c0.4-15.5-11.8-28.4-27.3-28.9
	c-15-0.4-27.7,11-28.8,26l-1.6,30.8c-1.5,29.5,8.6,107.4,11,128.2C70.4,605.9,70.1,607.2,70,608.5z"/>
<path class="st0" d="M271.4,295.1c-0.9-6.7-1-13.5-0.4-20.3c1.8-19,22.6-21.9,40-18.9c13.5,2.4,23.7,13.6,24.6,27.3l27.8,156.7
	c0,0.3,0.1,0.6,0.1,0.9l0.2,1.4h0c1.3,15.5-10.3,29-25.7,30.3s-29-10.3-30.3-25.7l-26-109.7C277.9,321.1,273.4,311.9,271.4,295.1z"
	/>
<path class="st0" d="M308.5,489.7c0.3,12.3,1.5,24.6,3.3,36.7c5.4,35.1,14.4,81.9,14.4,81.9c-5,2.3-9.3,5.9-12.3,10.5
	c-3.3,5.4-5.2,11.6-5.5,17.9l-0.9,16.2c-0.2,2.4,1.7,4.5,4,4.6c1.6,0.1,3.1-0.7,4-2l5.8-20.7c0.3,2.7,4.9,24.4,5.1,26.2
	c-0.3,16.5-3.1,32.9,4.5,34.2c9.6,1.6,25.5-11.6,28.3-42.9c1.3-14.6-0.2-29.3-4.3-43.3v-0.4c-0.1-1.3-0.3-2.6-0.8-3.9
	c2.4-20.8,12.5-98.7,11-128.2l-1.6-30.8c-1.2-15.5-14.7-27.1-30.1-25.9c-13,1-23.6,10.8-25.6,23.7c-0.3,1.7-0.4,3.4-0.3,5.1
	L308.5,489.7z"/>
<path class="st1" d="M302.9,711.2c-0.3,0-0.5-0.1-0.7-0.2l-17.5-13.5c-20.5-12-43.5-19.1-67.2-20.8c-0.5-0.1-0.9-0.5-1-1l-3-22.2
	l-2.9,21.8c-0.1,0.6-0.6,1-1.1,1h-0.7h-2.7c-20.8-0.9-41.5,3.7-59.9,13.4l-0.2,0.1c-7.5,2.4-14.8,5.6-21.6,9.5
	c-0.3,0.2-0.8,0.2-1.1,0c-0.4-0.2-0.6-0.6-0.6-1l-0.5-15.2c-0.1-2.5-0.2-5-0.2-7.5l-0.6-15.9v-0.2l-0.6-14.5
	c-0.9-12-1.4-22.2-1.4-31.3l-0.1-2.3c0-0.7,0-1.2,0.1-1.8l0.1-1.1c0.2-8.8,0.7-15.9,1.3-23.4c1.2-15.4,9.7-66,10.6-71.5
	c0-0.1,0-0.2,0-0.2c0-0.6-2.5-55.7-4.6-101.5l-8.2,34.4c0,0.8,0,1.5,0,2.3l-1,41.1c-0.3,12.3-1.5,24.7-3.3,36.9
	c-4.9,32.1-13,74.5-14.2,81.1c4.9,2.4,9,6,12,10.5c3.4,5.6,5.4,11.9,5.7,18.5l0.9,16.2c0.1,3-2.2,5.6-5.2,5.7
	c-1.9,0.1-3.7-0.8-4.8-2.4c-0.1-0.1-0.1-0.2-0.1-0.3l-4.5-16c-0.6,3.2-1.5,7.6-2.3,11.6c-0.9,4.5-1.8,8.8-1.9,9.7
	c0.1,3.3,0.2,6.7,0.4,9.9c0.7,13.5,1.2,24.2-5.8,25.3c-3.8,0.6-8.1-0.8-12.2-4c-9.4-7.3-15.8-21.8-17.4-40
	c-1.3-14.7,0.2-29.5,4.2-43.7v-0.2c0.1-1.4,0.3-2.7,0.8-4c-0.3-2.7-0.7-6.2-1.2-10.5c-3.6-29.8-11.1-91.9-9.7-117.6l1.6-30.5
	c-0.1-1.2-0.1-2.3,0-3.5c0-0.1,0-0.3,0-0.4l0.2-1.4c0-0.3,0.1-0.6,0.1-0.9l27.6-156.7c0.8-11.3,7.7-21.2,18-25.9
	c15.8-10.6,38.6-16.9,53.4-18.9c5.2-0.7,10.9-3.1,16.9-5.6c4-1.7,8.1-3.3,12.2-4.6c0.6-0.1,1.2,0.2,1.4,0.8c0.1,0.6-0.2,1.1-0.7,1.3
	c-4.1,1.3-8.1,2.8-12.1,4.5c-5.9,2.4-12,5-17.5,5.8c-14.5,2.1-37,8.2-52.5,18.6c0,0-0.1,0.1-0.2,0.1c-9.6,4.3-16,13.6-16.7,24.1
	c0,0,0,0.1,0,0.1L62.7,440.1c0,0.2-0.1,0.5-0.1,0.8l-0.1,1.1c0,0.1,0,0.2,0,0.3c-0.1,1.2-0.1,2.4,0,3.6c0,0,0,0.1,0,0.1l-1.6,30.6
	c-1.3,25.6,6.2,87.4,9.8,117.2c0.5,4.4,1,8,1.3,10.7c0,0.2,0,0.3,0,0.5c-0.4,1.1-0.7,2.4-0.7,3.6v0.4c0,0.1,0,0.2-0.1,0.3
	c-4,13.9-5.4,28.5-4.2,42.9c2.2,24.8,12.3,35.1,16.5,38.4c3.6,2.8,7.3,4,10.5,3.5c5-0.8,4.5-11.1,3.9-23c-0.2-3.3-0.3-6.7-0.4-10.1
	c0-0.1,0-0.1,0-0.2c0.1-0.8,0.8-4.3,2-10c1.3-6.6,3-14.8,3.2-16.2c0.1-0.5,0.5-0.9,1-1c0.5,0,1,0.3,1.2,0.8l5.7,20.6
	c0.8,1.1,2.2,1.6,3.5,1.2c1.5-0.4,2.4-1.8,2.3-3.3l-0.9-16.2c-0.3-6.1-2.1-12.1-5.3-17.4c-2.9-4.4-7-7.8-11.8-10.1
	c-0.5-0.2-0.8-0.7-0.7-1.2c0.1-0.5,9.1-47.2,14.4-81.9c1.9-12.1,3-24.3,3.3-36.6l1-41.1c0-0.7,0-1.4,0-2.2c0-0.1,0-0.2,0-0.3
	l10.1-42.4c0.1-0.6,0.7-1,1.3-0.8c0.5,0.1,0.8,0.5,0.9,1c2.1,44.9,4.7,103.1,5,109c0.1,0.2,0.2,0.5,0.1,0.7
	c-0.1,0.6-9.4,55.7-10.7,71.8c-0.6,7.5-1.2,14.5-1.3,23.3c0,0.4-0.1,0.8-0.1,1.2c0,0.5-0.1,1.1-0.1,1.6l0.1,2.3
	c0,9.1,0.4,19.3,1.4,31.2l1.2,30.5c0.1,2.5,0.2,5,0.3,7.5l0.4,13.3c6.5-3.5,13.3-6.5,20.3-8.8c18.7-9.8,39.7-14.5,60.9-13.5h2.4
	l3.9-29.1c0.1-0.6,0.5-1,1.1-1c0.6,0,1.1,0.4,1.1,1l3.9,29.6c23.7,1.8,46.7,9,67.3,21l0.1,0.1l15.8,12.2l0.8-24.8
	c0.1-2.6,0.2-5.1,0.3-7.6L304,645c0.9-12,1.4-22.2,1.4-31.2l0.1-2.5c0-0.5,0-1-0.1-1.5c0-0.4,0-0.7-0.1-1.1
	c-0.2-8.9-0.7-15.9-1.3-23.4c-1.3-16.1-10.6-71.3-10.7-71.8c0-0.2,0-0.5,0.1-0.7c0.2-5.7,2.4-61.4,4.1-104.2c0-0.6,0.4-1,1-1.1
	c0.6-0.1,1.1,0.3,1.2,0.9l8.9,37.6c0,0.1,0,0.2,0,0.3c0,0.8-0.1,1.5,0,2.2l1,41.2c0.3,12.3,1.4,24.5,3.3,36.6
	c5.3,34.7,14.3,81.4,14.4,81.9c0.1,0.5-0.2,1-0.7,1.2c-4.8,2.2-8.9,5.7-11.8,10.1c-3.2,5.2-5,11.2-5.3,17.4l-1,16.2
	c-0.1,1.5,0.9,2.9,2.4,3.3c1.3,0.4,2.7-0.1,3.5-1.2l5.8-20.6c0.2-0.6,0.8-0.9,1.4-0.7c0.4,0.1,0.7,0.5,0.8,0.9
	c0.2,1.5,1.8,9.7,3.2,16.2c1.1,5.7,1.9,9.2,2,10c0,0.1,0,0.1,0,0.2c-0.1,3.4-0.2,6.8-0.4,10.1c-0.6,11.9-1.1,22.2,3.9,23
	c3.1,0.5,6.9-0.7,10.5-3.5c4.2-3.3,14.3-13.5,16.5-38.4c1.3-14.4-0.1-29-4.1-42.9c0-0.1-0.1-0.2-0.1-0.3v-0.4
	c-0.1-1.2-0.3-2.4-0.7-3.6c-0.1-0.2-0.1-0.3-0.1-0.5c0.3-2.7,0.8-6.3,1.3-10.7c3.6-29.8,11-91.7,9.7-117.2l-1.6-30.6
	c0,0,0-0.1,0-0.1c0.1-1.2,0.1-2.4,0-3.6c0-0.1,0-0.2,0-0.3l-0.1-1c0-0.3-0.1-0.6-0.1-0.9l-27.8-156.7c0,0,0-0.1,0-0.1
	c-0.8-10.9-7.7-20.4-17.8-24.5c-0.1,0-0.1-0.1-0.2-0.1c-15.5-10.2-37.6-16.2-51.8-18.2c-5.6-0.8-11.2-3.4-16.7-5.9
	c-3.7-1.8-7.4-3.3-11.3-4.6c-0.6-0.2-0.9-0.8-0.8-1.4s0.8-0.9,1.4-0.8c4,1.3,7.8,2.9,11.6,4.7c5.3,2.4,10.8,4.9,16.1,5.7
	c14.4,2,36.8,8.1,52.6,18.5c10.8,4.5,18.2,14.7,19.1,26.4l27.8,156.6c0,0.4,0.1,0.7,0.1,1l0.2,1.4c0,0.1,0,0.3,0,0.4
	c0,1.2,0,2.3-0.1,3.5l1.6,30.5c1.3,25.8-6.1,87.8-9.7,117.6c-0.5,4.2-0.9,7.8-1.2,10.5c0.4,1.3,0.7,2.6,0.8,4v0.2
	c4.1,14.2,5.5,29,4.2,43.7c-1.6,18.1-8,32.7-17.4,40c-4.1,3.2-8.5,4.6-12.2,4c-7-1.2-6.5-11.8-5.8-25.3c0.2-3.2,0.3-6.6,0.4-9.9
	c-0.1-0.9-1-5.2-1.9-9.8c-0.8-4-1.7-8.3-2.3-11.5l-4.5,16c0,0.1-0.1,0.2-0.1,0.3c-1.6,2.5-5,3.3-7.6,1.6c-1.6-1.1-2.6-2.9-2.5-4.9
	l0.9-16.2c0.3-6.6,2.2-13,5.7-18.6c3-4.5,7.1-8.2,12-10.5c-1.2-6.6-9.3-49-14.3-81.1c-1.9-12.2-3-24.5-3.3-36.9l-1-41.2
	c0-0.7,0-1.4,0-2.2l-7-29.5c-1.8,43.6-3.8,96-3.8,96.5c0,0.1,0,0.2,0,0.2c0.9,5.5,9.4,56.2,10.6,71.5c0.6,7.5,1.2,14.6,1.3,23.4
	c0,0.3,0.1,0.7,0.1,1c0,0.6,0.1,1.1,0.1,1.7l-0.1,2.5c0,9-0.5,19.3-1.4,31.3l-1.1,30.4c-0.1,2.5-0.2,5-0.3,7.6l-0.8,27.1
	C304,710.7,303.5,711.2,302.9,711.2L302.9,711.2z"/>
<path class="st1" d="M212.7,203.8c-16.7,0-36.4-11.2-40.4-35.8l-0.1-0.4c-0.2-1.1-0.7-4.3-1.4-8.6c-3.4,0.5-7.1-1.2-9.6-4.7
	c-2.6-3.7-3.9-8-3.7-12.5c0.2-4.8,2.5-8.8,5.7-9.7c1.3-0.4,2.8-0.2,4,0.4c-0.5-4-0.8-8.1-0.9-12.1c0-1.4,0-3,0.1-4.6
	c-0.1-1.1-0.1-2.2-0.1-3.2c0-1.2,0-2.4,0.1-3.6c-0.3-2.1-0.4-4.3-0.4-6.4c0-9.5,2.9-18.8,8.4-26.6c4.3-7.2,10.9-12.6,18.7-15.5
	c5.9-2.7,12.4-4.1,18.9-4.1c25,0.1,45.4,20.1,46.1,45.1c0.6,3.6,0.9,7.3,0.9,11c0,1,0,2-0.1,3.1c0,1.6,0.1,3.2,0.1,4.7
	c0,2.8-0.2,7.2-0.6,13c1.5-1.3,3.5-1.8,5.4-1.3c3.1,0.9,5.5,4.9,5.7,9.7c0.1,4.5-1.2,8.8-3.7,12.5c-2.5,3.4-6.1,5.1-9.5,4.7
	c-0.6,6.2-1.1,10.9-1.2,11.3C250.6,200.5,223.9,203.8,212.7,203.8z M171.8,156.5c0.2,0,0.4,0.1,0.6,0.2c0.3,0.2,0.5,0.5,0.5,0.8
	c0.8,4.8,1.4,8.5,1.6,9.8l0.1,0.4c3.8,23.3,22.4,33.9,38.2,33.9c10.7,0,35.9-3.1,40.1-31.6c0-0.3,0.6-5.4,1.3-12.4
	c0-0.3,0.2-0.6,0.5-0.8c0.3-0.2,0.6-0.2,0.9-0.1c2.9,0.9,6.1-0.4,8.4-3.6c2.3-3.2,3.4-7.1,3.3-11.1c-0.2-3.8-1.9-7-4-7.7l0,0
	c-1.7-0.5-3.8,0.8-5.1,3.1c-0.3,0.5-1,0.7-1.5,0.4c-0.4-0.2-0.6-0.6-0.6-1.1c0.6-7.5,0.9-12.9,0.9-16.3c0-1.4,0-3-0.1-4.7
	c0-1.2,0.1-2.2,0.1-3.1c0-3.6-0.3-7.2-0.9-10.8c0-0.1,0-0.1,0-0.2c-0.6-23.8-20.1-42.9-43.9-43c-6.2,0-12.3,1.3-18,3.9
	c-7.4,2.7-13.7,7.8-17.7,14.6c-5.3,7.4-8.1,16.3-8.1,25.4c0,2.1,0.2,4.1,0.4,6.2c0,0.1,0,0.1,0,0.2c0,1.2-0.1,2.4-0.1,3.6
	c0,1,0,2,0.1,3.2c-0.1,1.7-0.1,3.2-0.1,4.7c0.1,4.8,0.5,9.6,1.1,14.4c0.1,0.6-0.4,1.2-1,1.3c-0.4,0-0.7-0.1-1-0.3
	c-1.3-1.3-2.8-1.9-3.9-1.5c-2.2,0.6-3.9,3.9-4,7.7c-0.1,3.9,1,7.8,3.3,11.1c2.3,3.1,5.4,4.4,8.3,3.6
	C171.6,156.5,171.7,156.5,171.8,156.5L171.8,156.5z"/>
<path class="st0" d="M149.9,299.2c1-6.7,1.2-13.5,0.7-20.2"/>
<path class="st2" d="M149.9,296.9c1-6.7,1.2-13.5,0.7-20.2c-1.5-19-19-29.1-35.8-23.7c-28.6,9.2-32.6,37.2-33.9,42.3
	c0,0-15.8,62.4-20,65.1c0,0,63.8,38.7,71.6,23.7C139.9,369.5,147.6,313.7,149.9,296.9z"/>
<path class="st2" d="M275,296.9c-1-6.7-1.2-13.5-0.7-20.2c1.5-19,19-29.1,35.8-23.7c28.5,9.2,32.6,37.2,34,42.3
	c0,0,18.2,62.4,22.4,65.1c0,0-63.8,38.7-71.6,23.7C287.4,369.5,277.3,313.7,275,296.9z"/>
<path class="st2" d="M329.4,266.3c-13.5-16.9-45.1-28.4-63-33.3c-11.7-3.2-29.6-7.7-29.6-7.7c-13.5-0.4-44,0.4-44,0.4
	s-18.2,1.4-34.3,6.2c-22.2,6.7-50.1,17.4-63.5,34.4c-13.7,17.2,7.9,37.2,15.8,51.7c7.7,14.2,12,23.5,12.9,39.6
	c1,17.2,0.7,97.1,0.7,129.4c0,27.2-12.1,105.8-12.1,105.8c33,37.3,170.4,35.1,199.3,6.1c0,0-9.2-92.5-8.9-112.7
	c0.7-41.8-3-112.9-2.1-128.5c0.9-16.1,5.2-25.4,12.9-39.6C321.4,303.5,343,283.5,329.4,266.3z"/>
<path class="st3" d="M155.9,296.9c1-6.7,1.2-13.5,0.7-20.2c-1.5-19-19-29.1-35.8-23.7c-28.6,9.2-32.6,37.2-33.9,42.3
	c0,0-15.8,62.4-20,65.1c0,0,63.8,38.7,71.6,23.7C145.9,369.5,153.6,313.7,155.9,296.9z"/>
<path class="st3" d="M281,296.9c-1-6.7-1.2-13.5-0.7-20.2c1.5-19,19-29.1,35.8-23.7c28.5,9.2,32.6,37.2,34,42.3
	c0,0,18.2,62.4,22.4,65.1c0,0-63.8,38.7-71.6,23.7C293.4,369.5,283.3,313.7,281,296.9z"/>
<path class="st3" d="M335.4,266.3c-13.5-16.9-45.1-28.4-63-33.3c-11.7-3.2-29.6-7.7-29.6-7.7c-13.5-0.4-44,0.4-44,0.4
	s-18.2,1.4-34.3,6.2c-22.2,6.7-50.1,17.4-63.5,34.4c-13.7,17.2,7.9,37.2,15.8,51.7c7.7,14.2,12,23.5,12.9,39.6
	c0.9,17.2,0.7,97.1,0.7,129.4c0,27.2-12.1,105.8-12.1,105.8c33,37.3,170.4,35.1,199.3,6.1c0,0-9.2-92.5-8.9-112.7
	c0.7-41.8-3-112.9-2.1-128.5c0.9-16.1,5.2-25.4,12.9-39.6C327.4,303.5,349,283.5,335.4,266.3z"/>
<path class="st1" d="M217.3,621.7c-3.2,0-6.4,0-9.7-0.2c-45.8-1.4-81.8-11.9-96.1-28.2l-0.3-0.4l0.1-0.5
	c0.1-0.8,12.1-78.8,12.1-105.6c0-5.1,0-11.4,0-18.5c0-23.5,0.1-55.6-0.1-79.7c-19.9-1.3-61.1-26.2-62.9-27.3l-0.9-0.5l0.4-0.9
	c3.3-7,19.7-64.3,19.9-64.9c0.1-0.4,0.2-0.9,0.4-1.6c1.4-6.2,5.2-22.7,19.6-33.8c11.8-11,31-20.4,58.5-28.8
	c16.3-4.9,55.2-8.3,78.7-6.7h0.2c0.2,0,18,4.5,29.6,7.7c8.4,2.3,37.2,11,55.2,25.5c17.1,10.9,21.3,29.2,22.8,36.1
	c0.2,0.7,0.3,1.2,0.4,1.6c6.8,20.8,20.2,61.1,22.3,64.8l0.5,0.9l-0.9,0.6c-1.9,1.1-45.2,27.3-64.4,27.3h-0.5
	c0.1,5,0.3,10.5,0.5,16.1c0.8,26,1.7,58.3,1.3,81.3l0,0c-0.3,19.9,8.8,111.6,8.9,112.6l0,0.5l-0.4,0.4
	C299,612.9,260.7,621.7,217.3,621.7z M113.5,592.3c14.2,15.6,49.3,25.7,94.2,27c46.4,1.4,88.4-7.2,102.8-21
	c-0.8-7.6-9.1-93.1-8.8-112.3c0.4-22.9-0.5-55.2-1.3-81.2c-0.2-6.1-0.3-11.9-0.5-17.3v-1.3l1.3,0.1c16.1,1.5,57.4-22.5,63.9-26.4
	c-3.9-9.1-21.2-62-22-64.3c-0.1-0.5-0.3-1.1-0.4-1.8c-1.5-6.6-5.5-24.3-21.9-34.7l-0.1-0.1c-17.6-14.2-46.1-22.8-54.5-25.1
	c-11.1-3.1-28-7.3-29.4-7.6c-23.2-1.5-61.7,1.7-77.8,6.6c-27.2,8.3-46.1,17.5-57.7,28.3l-0.1,0.1c-13.8,10.6-17.4,26.6-18.8,32.6
	c-0.2,0.7-0.3,1.3-0.4,1.7c-0.7,2.3-15.5,54.2-19.6,64.3c6.2,3.7,44.7,26.1,62,26.5h1.1v1.1c0.2,24.2,0.1,56.9,0.1,80.8
	c0,7.1,0,13.4,0,18.5C125.6,512.6,114.5,585.3,113.5,592.3z"/>
<path class="st1" d="M124.2,390.9L124.2,390.9c-0.6,0-1.1-0.5-1.1-1.2c0,0,0,0,0,0c0.2-4.7,0.7-9.1,1.1-13.3s0.9-8.5,1.1-13.1
	s0.7-8.4,1.1-12s0.9-7.2,1.1-11.9c0-0.6,0.5-1.1,1.2-1.1c0.6,0,1.1,0.5,1.1,1.2l0,0c-0.2,4.7-0.6,8.4-1.1,12s-0.9,7.2-1.1,11.9
	s-0.7,9.1-1.1,13.3s-0.9,8.5-1.1,13.1C125.3,390.5,124.8,390.9,124.2,390.9z"/>
<path class="st1" d="M300.8,392.2c-0.6,0-1.1-0.5-1.1-1.1c-0.2-4.7-0.5-9.3-0.7-13.7s-0.5-9-0.7-13.7s-0.4-8.4-0.6-12.1
	s-0.4-7.5-0.6-12.1c-0.1-0.6,0.4-1.2,1-1.3c0.6-0.1,1.2,0.4,1.3,1c0,0.1,0,0.1,0,0.2c0.2,4.7,0.4,8.4,0.6,12.1s0.4,7.5,0.6,12.1
	s0.5,9.2,0.7,13.7s0.5,9,0.7,13.7C302,391.7,301.5,392.2,300.8,392.2L300.8,392.2z"/>
<path class="st0" d="M237.5,234.1c2,20.2-54.9,11.6-49.7-1.1c6-14.6,4-50.6,4-50.6h42.8C234.6,182.4,235.3,211.8,237.5,234.1z"/>
<path class="st4" d="M234.8,183.5c-8.2,2.9-14,2.9-23,2.5c-8,0-12.3-1.5-19.7-3.6c0,0,0,13.9,0,15.7c6.3,5.5,12.2,12.3,21.4,12.3
	c8.3,0,15.8-5.8,21.8-10.1C235.2,200.4,234.8,185.1,234.8,183.5z"/>
<path class="st1" d="M217,247.3c-11.1,0-23.2-3.2-28.2-7.8c-2.9-2.7-2.8-5.3-2.1-7c5.8-14.2,3.9-49.8,3.9-50.1l-0.1-1.2h45v1.1
	c0,0.3,0.8,29.6,3,51.7c0.4,4.6-1.8,8.2-6.4,10.5C228.2,246.5,222.7,247.3,217,247.3z M193,183.5c0.3,6.5,1.3,36.6-4.1,49.9
	c-0.6,1.5-0.1,3,1.5,4.5c6.9,6.4,30,10,40.9,4.6c3.8-1.9,5.5-4.7,5.2-8.2l0,0c-1.9-19.7-2.8-45.2-3-50.7H193z"/>
<path class="st0" d="M263.5,133.1c-2.2-0.6-4.8,0.9-6.4,3.6c0.5-6.6,0.9-12.6,0.9-16.3c0-1.6,0-3.2-0.1-4.7c0-1,0.1-2,0.1-3.1
	c0-3.7-0.3-7.3-0.9-10.9c-0.5-24.8-21.1-44.6-45.9-44c-6.1,0.1-12,1.5-17.5,4c-7.6,2.8-14.1,8.1-18.2,15.1
	c-5.4,7.6-8.3,16.6-8.3,25.9c0,2.1,0.2,4.2,0.5,6.3c0,1.2-0.1,2.4-0.1,3.7c0,1.1,0,2.2,0.1,3.2c0,1.5-0.1,3-0.1,4.6
	c0.1,4.9,0.5,9.7,1.1,14.5c-1.5-1.6-3.4-2.3-5.1-1.8c-2.7,0.8-4.7,4.5-4.9,8.7c-0.1,4.2,1.1,8.3,3.5,11.8c2.6,3.6,6.4,4.9,9.6,4
	c0.9,5.8,1.6,9.9,1.6,10.2c4,24.7,24,34.9,39.3,34.9c15.1,0,37.3-5.6,41.3-32.6c0-0.4,0.6-5.5,1.3-12.5c3.2,1,7-0.3,9.6-3.9
	c2.4-3.4,3.6-7.6,3.5-11.8C268.1,137.6,266.2,133.9,263.5,133.1z"/>
<path class="st4" d="M167.6,138.4c-1.3-1.1-3.6-1.7-4.7,0.1c-0.3,0.5-0.2,1.4,0.3,1.5c0.8,0.2,1.6,0,2.3,0.3
	c0.8,0.4,1.3,1.1,1.6,1.9c0.4,1.2,0.4,4.7,1.9,3.8c0.5-0.3,0.9-1,0.8-1.6C170.1,142.2,169.3,140,167.6,138.4z"/>
<path class="st4" d="M261.6,139.6c1.3-1.1,3.6-1.7,4.7,0.1c0.3,0.5,0.2,1.4-0.3,1.5c-0.8,0.2-1.5,0-2.3,0.3
	c-0.8,0.4-1.3,1.1-1.6,1.9c-0.5,1.2-0.4,4.7-2,3.8c-0.5-0.3-0.9-1-0.8-1.6C259.2,143.3,260,141.1,261.6,139.6z"/>
<path class="st1" d="M212.7,203.8c-16.7,0-36.4-11.2-40.4-35.8l-0.1-0.4c-0.2-1.1-0.7-4.3-1.4-8.6c-3.4,0.5-7.1-1.2-9.6-4.7
	c-2.6-3.7-3.9-8-3.7-12.5c0.2-4.8,2.5-8.8,5.7-9.7c1.3-0.4,2.8-0.2,4,0.4c-0.5-4-0.8-8.1-0.9-12.1c0-1.4,0-3,0.1-4.6
	c-0.1-1.1-0.1-2.2-0.1-3.2c0-1.2,0-2.4,0.1-3.6c-0.3-2.1-0.4-4.3-0.4-6.4c0-9.5,2.9-18.8,8.4-26.6c4.3-7.2,10.9-12.6,18.7-15.5
	c5.9-2.7,12.4-4.1,18.9-4.1c25,0.1,45.4,20.1,46.1,45.1c0.6,3.6,0.9,7.3,0.9,11c0,1,0,2-0.1,3.1c0,1.6,0.1,3.2,0.1,4.7
	c0,2.8-0.2,7.2-0.6,13c1.5-1.3,3.5-1.8,5.4-1.3c3.1,0.9,5.5,4.9,5.7,9.7c0.1,4.5-1.2,8.8-3.7,12.5c-2.5,3.4-6.1,5.1-9.5,4.7
	c-0.6,6.2-1.1,10.9-1.2,11.3C250.6,200.5,223.9,203.8,212.7,203.8z M171.8,156.5c0.2,0,0.4,0.1,0.6,0.2c0.3,0.2,0.5,0.5,0.5,0.8
	c0.8,4.8,1.4,8.5,1.6,9.8l0.1,0.4c3.8,23.3,22.4,33.9,38.2,33.9c10.7,0,35.9-3.1,40.1-31.6c0-0.3,0.6-5.4,1.3-12.4
	c0-0.3,0.2-0.6,0.5-0.8c0.3-0.2,0.6-0.2,0.9-0.1c2.9,0.9,6.1-0.4,8.4-3.6c2.3-3.2,3.4-7.1,3.3-11.1c-0.2-3.8-1.9-7-4-7.7l0,0
	c-1.7-0.5-3.8,0.8-5.1,3.1c-0.3,0.5-1,0.7-1.5,0.4c-0.4-0.2-0.6-0.6-0.6-1.1c0.6-7.5,0.9-12.9,0.9-16.3c0-1.4,0-3-0.1-4.7
	c0-1.2,0.1-2.2,0.1-3.1c0-3.6-0.3-7.2-0.9-10.8c0-0.1,0-0.1,0-0.2c-0.6-23.8-20.1-42.9-43.9-43c-6.2,0-12.3,1.3-18,3.9
	c-7.4,2.7-13.7,7.8-17.7,14.6c-5.3,7.4-8.1,16.3-8.1,25.4c0,2.1,0.2,4.1,0.4,6.2c0,0.1,0,0.1,0,0.2c0,1.2-0.1,2.4-0.1,3.6
	c0,1,0,2,0.1,3.2c-0.1,1.7-0.1,3.2-0.1,4.7c0.1,4.8,0.5,9.6,1.1,14.4c0.1,0.6-0.4,1.2-1,1.3c-0.4,0-0.7-0.1-1-0.3
	c-1.3-1.3-2.8-1.9-3.9-1.5c-2.2,0.6-3.9,3.9-4,7.7c-0.1,3.9,1,7.8,3.3,11.1c2.3,3.1,5.4,4.4,8.3,3.6
	C171.6,156.5,171.7,156.5,171.8,156.5L171.8,156.5z"/>
<path class="st1" d="M206,98.1c-3.8-2.7-8.5-3.6-13-2.6c-2.9,0.7-9,3-8.1,6.8c0.1,0.4,0.5,0.8,0.9,0.9c2.7,0.7,5-2.3,7.5-3
	c3.8-1,7.2,0,10.4,2C206.3,103.8,208.3,99.8,206,98.1z"/>
<path class="st1" d="M196.7,114.1c-0.5-0.9-1.7-1.1-2.6-0.6c-0.3,0.2-0.5,0.4-0.6,0.7c-0.9,2-0.6,4.1-0.5,6.3
	c0.1,2.4,0.1,4.9,0.2,7.3c0.1,1.2,1.1,2.1,2.3,2c1.1-0.1,1.9-1,2-2.1c0-2.4,0-4.9,0-7.3C197.4,118.2,197.6,116.1,196.7,114.1z"/>
<path class="st4" d="M214.6,133.9c2.8,3.1,5.6,6.3,7.3,10.1s2.1,8.6,0.1,12.2c-1,2-2.8,3.3-5,3.8c-2.2,0.3-4.4-0.8-5.3-2.8
	c-0.9-2.1,0-4.9,2-5.6c-2.1-3.8-3.3-8-3.6-12.3c-0.2-1.5,0-3,0.7-4.3C211.7,133.9,213.7,132.9,214.6,133.9z"/>
<path class="st1" d="M224.9,147.4c-1.1-6.6-5.9-11.5-10.9-15c-0.6-0.4-1.4,0.5-1,1.1c2.8,3.9,7,7.6,8.5,12.3c0.8,2.4,0.9,5,0.1,7.4
	c-0.8,2.3-3.2,3.2-4.6,5.1c-1,1.3-0.9,2.1,0.6,1.8C222.8,159,225.7,152.2,224.9,147.4z"/>
<path class="st1" d="M230.9,114c-0.5-0.9-1.7-1.1-2.6-0.6c-0.3,0.2-0.5,0.4-0.6,0.7c-0.9,2-0.6,4.1-0.5,6.3c0,2.4,0.1,4.9,0.2,7.3
	c0.1,1.2,1.2,2.1,2.3,1.9c1.1-0.1,1.9-1,2-2.1c0-2.4,0-4.9,0-7.3C231.6,118.1,231.9,116,230.9,114z"/>
<path class="st1" d="M228.1,95.3c-3,0.4-9.2,2.2-8.6,6.1c0.1,0.5,0.4,0.8,0.9,1c2.6,0.9,5.1-1.9,7.7-2.4c3.8-0.7,7.2,0.6,10.2,2.8
	c2.4,1.8,4.7-2,2.6-3.8C237.4,96,232.7,94.6,228.1,95.3z"/>
<path class="st4" d="M212.7,178.9c-1.4,3.8-5.3,6-9.3,5.4c-5.6-1-8.4-4.6-7.3-8.5c0.5-1.9,4.2-4.4,9.9-3.4S213.4,177.1,212.7,178.9z
	"/>
<g id="Caminho_6549">
	<path class="st1" d="M196.2,172.7c0.7-0.2,2.1,3.5,7.1,5.1s9.5,0,9.9,0.5s-0.8,1-2.9,1.6c-2.7,0.7-5.5,0.6-8.2-0.2
		c-2.4-0.7-4.4-2.2-5.6-4.3C195.7,173.8,195.9,172.7,196.2,172.7z"/>
</g>
</svg>
