<?xml version="1.0" encoding="utf-8"?>
<!-- Generator: Adobe Illustrator 25.4.1, SVG Export Plug-In . SVG Version: 6.00 Build 0)  -->
<svg version="1.1" id="Cliente_12" xmlns="http://www.w3.org/2000/svg" xmlns:xlink="http://www.w3.org/1999/xlink" x="0px" y="0px"
	 viewBox="0 0 432 589" style="enable-background:new 0 0 432 589;" xml:space="preserve">
<style type="text/css">
	.st0{fill:#263238;}
	.st1{fill:#59316D;}
	.st2{fill:#B88469;}
	.st3{fill:#FFFFFF;}
	.st4{fill:#535C89;}
	.st5{fill:#BBBDBF;}
	.st6{fill:#C8CACB;}
	.st7{fill:#A86751;}
	.st8{fill:#AA6550;}
	.st9{fill:#FFDE55;}
</style>
<path class="st0" d="M177.9,195.6c0,0-29.1,7.9-22.7,29.8s41.5,24.1,38,46.8s59.5,1,59.5,1l16.7-35.3c0.2-5.5-2.5-10.7-7.2-13.6
	c-6.1-3.8-13.4-7.8-12.9-11.8c0.9-6,6.1-14.8-6.1-21.7C229.8,182.9,177.9,195.6,177.9,195.6z"/>
<path class="st1" d="M208,283.4c-5.6,0-10.3-0.9-13.1-3.2c-2.3-1.9-3.2-4.7-2.7-8.2c1.8-11.6-7-17.5-17.3-24.3
	c-8.7-5.8-17.7-11.7-20.7-22c-1.7-5.2-1.2-10.9,1.5-15.7c6.1-10.9,21.3-15.1,21.9-15.3l0,0c2.1-0.5,52.4-12.6,66.1-4.8
	c10.7,6.1,8.8,13.7,7.3,19.3c-0.3,1.1-0.6,2.3-0.7,3.4c-0.4,3,5.3,6.5,10.4,9.6l2,1.2c5,3.1,7.9,8.6,7.7,14.5c0,0.1,0,0.3-0.1,0.4
	l-16.7,35.3c-0.1,0.2-0.3,0.4-0.6,0.5C251.6,274.5,225.6,283.4,208,283.4z M178.1,196.5c-0.5,0.1-15.1,4.3-20.7,14.4
	c-2.4,4.3-2.8,9.4-1.2,14.1c2.8,9.6,11.5,15.4,19.9,20.9c10.3,6.9,20.1,13.3,18.1,26.2c-0.4,2.8,0.2,4.9,2,6.4
	c10.2,8.5,51.2-4.8,55.8-6.3l16.4-34.8c0.1-5.1-2.4-9.8-6.7-12.5l-2-1.2c-6.1-3.8-12-7.3-11.4-11.6c0.2-1.2,0.5-2.4,0.8-3.6
	c1.4-5.5,3-11.8-6.4-17.1C229.8,184.1,179.3,196.2,178.1,196.5L178.1,196.5z"/>
<path class="st2" d="M153.3,297.4c1.5-7.3,1.9-12.6,0.7-19.1c-3.1-16.2-22.3-22.1-31-20.4c-17.6,3.3-22.3,14.7-24,21.8
	c-1,5.3-3.8,16.8-4.8,22.1l-14.1,75.5c-2.3,12.6-4.7,25.2-7,37.8c-2,10.8-5.8,22.1-5.8,33.1c-0.8,10.9,6.5,19.3,17.7,23.1
	c7.8,2.7,18.1-0.5,23.6-6.8c5.1-5.7,5.6-9.3,7.2-15.5c6.7-26.7,12.5-53.7,19.2-80.3c3.6-14.6,8-29.8,11.7-44.7
	C148.8,315.5,151.4,306.3,153.3,297.4z"/>
<path class="st2" d="M115.8,632.5c-0.3-6.3-2.3-12.4-5.7-17.6c-4.8-7.2-8.6-12.3-8.6-12.3s4.2-42.6,9.8-77.2
	c1.9-12,3.1-24.1,3.4-36.2l0.3-39.3c-0.1-1.8-0.2-3.7-0.5-5.5c-0.9-8.8-11.1-18.6-24.3-18.1c-10.4,0.4-22,7.9-23,20.5l-0.8,29.4
	c-1.6,29.1,8.9,105.8,11.4,126.3c-0.5,1.2-0.7,2.5-0.8,3.8v0.4c0,0-6.4,9.3-4.2,33.2c2.9,30.8,19.4,43.9,29.4,42.3
	c7.9-1.2-4.6-18.9-5-35.2c0.2-1.8,4.8-13.7,5.1-16.3l6,20.4c1.1,1.6,3.1,2.3,5,1.8c2-0.5,3.4-2.3,3.3-4.3L115.8,632.5z"/>
<path class="st1" d="M100.6,683.3c-3.6,0-7.5-1.5-11.3-4.5c-9.4-7.3-15.8-21.5-17.4-38.9c-2.1-22.1,3.2-31.9,4.2-33.6v-0.1
	c0.1-1.3,0.3-2.6,0.8-3.9c-0.3-2.6-0.8-6.1-1.3-10.3c-3.7-29.4-11.5-90.5-10.1-115.9l0.8-29.4c0-0.1,0-0.2,0-0.3v-0.1
	c0.2-7.1,2-14.4,3.6-21.4c0.8-3.3,1.6-6.8,2.2-10.1l21.1-113.3c0.5-2.7,1.5-7,2.4-11.1s1.9-8.4,2.4-11c3.1-12.5,11.4-20,24.8-22.6
	c9.6-1.8,29.1,4.9,32.2,21.2l0,0c1.3,7,0.7,12.6-0.7,19.5c-1.2,5.9-2.8,12-4.4,17.9c-0.8,3-1.5,5.9-2.2,8.7
	c-1.9,7.7-4,15.6-6.1,23.3c-1.9,7.1-3.9,14.4-5.6,21.4c-3.3,13.3-6.5,27-9.6,40.2s-6.2,26.8-9.6,40.1l-0.7,2.8l-0.3,37.1
	c-0.4,12.2-1.5,24.3-3.5,36.3c-5.2,32.4-9.2,72.5-9.7,76.8c0.9,1.2,4.3,5.9,8.4,12c3.5,5.4,5.5,11.7,5.8,18.2l0.9,15.9
	c0.1,2.5-1.6,4.8-4,5.4c-2.3,0.6-4.7-0.3-6.1-2.2c-0.1-0.1-0.1-0.2-0.1-0.3l-5-17c-0.6,1.9-1.4,4.1-2.1,6.4c-0.9,2.7-1.9,5.5-2,6.3
	c0.2,7,2.7,14.5,4.7,20.4c2.2,6.6,3.8,11.3,2.2,14c-0.6,1-1.6,1.6-2.8,1.7C101.9,683.2,101.3,683.3,100.6,683.3z M125.9,258.6
	c-0.9,0-1.9,0.1-2.8,0.2c-12.8,2.4-20.3,9.3-23.2,21c-0.5,2.6-1.4,6.9-2.4,11s-1.9,8.4-2.4,11L74.1,415.2c-0.6,3.4-1.4,6.8-2.2,10.2
	c-1.6,6.9-3.3,14.1-3.5,21v0.4l-0.8,29.4c-1.4,25.3,6.3,86.3,10.1,115.6c0.6,4.3,1,7.9,1.3,10.6c0,0.2,0,0.3,0,0.5
	c-0.4,1.1-0.7,2.3-0.7,3.5v0.4c0,0.2-0.1,0.4-0.2,0.5c-0.1,0.1-6.2,9.4-4,32.5c1.6,16.9,7.7,30.5,16.6,37.5c3.9,3,8.1,4.5,11.6,3.9
	c0.6,0,1.1-0.3,1.4-0.8c1.1-1.8-0.6-6.9-2.4-12.3c-2.1-6.1-4.6-13.8-4.8-21.1c0-0.1,0-0.1,0-0.2c0.6-2.3,1.2-4.5,2.1-6.7
	c1.2-3.1,2.2-6.3,3-9.5c0.1-0.5,0.4-0.8,0.9-0.9c0.5,0,0.9,0.3,1,0.7l6,20.3c0.9,1.2,2.4,1.7,3.8,1.3c1.5-0.4,2.6-1.8,2.6-3.3
	l-0.9-15.9c-0.3-6.1-2.2-12-5.5-17.2c-4.7-7.1-8.6-12.2-8.6-12.3c-0.2-0.2-0.2-0.4-0.2-0.7c0-0.4,4.3-43,9.8-77.3
	c1.9-11.9,3.1-24,3.4-36l0.3-37.2c0-0.1,0-0.2,0-0.2l0.7-3c3.3-13.3,6.5-26.9,9.6-40.1s6.3-26.9,9.6-40.2c1.8-7.1,3.7-14.4,5.6-21.5
	c2-7.6,4.2-15.5,6.1-23.2c0.7-2.8,1.5-5.7,2.2-8.7c1.6-5.9,3.1-12,4.3-17.8c1.4-6.7,2-12.1,0.7-18.8l0,0
	C150.2,264.1,134.6,258.6,125.9,258.6z"/>
<path class="st2" d="M272.7,299.4c-1.4-7.3-1.8-12.7-0.5-19.1c3.2-16.1,22.5-21.9,31.2-20.1c17.6,3.5,22.1,14.9,23.8,21.9
	c1,5.3,3.6,16.8,4.6,22.1c4.5,25.2,9,50.4,13.4,75.6l6.7,37.8c1.9,10.8,5.6,22.2,5.5,33.2c0.8,10.9-6.7,19.2-17.9,23
	c-7.8,2.6-18.1-0.6-23.6-7c-5-5.8-5.5-9.3-7-15.6c-6.4-26.7-12-53.8-18.5-80.4c-3.5-14.6-7.8-29.9-11.3-44.8
	C277,317.5,274.4,308.2,272.7,299.4z"/>
<path class="st2" d="M307.3,634.8c0.3-6.3,2.4-12.4,5.8-17.6c4.9-7.2,8.8-12.2,8.8-12.2s-3.8-42.7-9.1-77.3
	c-1.8-12-2.9-24.1-3.1-36.2v-39.3c0.1-1.8,0.3-3.7,0.5-5.5c1-8.8,11.3-18.5,24.5-17.9c10.4,0.5,22,8.1,22.8,20.7l0.5,29.4
	c1.3,29.1-9.8,105.7-12.5,126.2c0.5,1.2,0.7,2.5,0.8,3.8v0.4c0,0,6.4,9.4,3.9,33.2c-3.2,30.8-19.8,43.7-29.7,42
	c-7.9-1.3,4.8-18.9,5.3-35.2c-0.2-1.8-4.7-13.8-5-16.4l-6.2,20.4c-1.1,1.6-3.1,2.3-5,1.8c-2-0.5-3.4-2.3-3.2-4.4L307.3,634.8z"/>
<path class="st1" d="M322.2,685.6c-0.7,0-1.3,0-2-0.2c-1.2-0.1-2.2-0.8-2.8-1.8c-1.6-2.6,0.1-7.4,2.4-13.9c2.1-6,4.6-13.4,4.9-20.4
	c-0.1-0.8-1.1-3.6-2-6.3c-0.7-2.2-1.5-4.5-2.1-6.4l-5.2,17c0,0.1-0.1,0.2-0.1,0.3c-1.4,1.9-3.8,2.8-6.1,2.2c-2.5-0.6-4.1-2.9-4-5.4
	l1.1-15.9c0.4-6.5,2.4-12.7,6-18.1c4.2-6.1,7.6-10.8,8.5-12c-0.4-4.3-4.1-44.4-9.1-76.8c-1.8-12-2.9-24.2-3.1-36.4v-37.2l-0.7-2.9
	c-3.2-13.3-6.3-27-9.2-40.2s-6-26.9-9.3-40.3c-1.7-7-3.6-14.4-5.4-21.5c-2-7.7-4-15.6-5.9-23.3c-0.7-2.8-1.4-5.8-2.2-8.7
	c-1.5-5.9-3-12-4.2-18c-1.4-6.9-1.9-12.6-0.5-19.5c3.3-16.3,22.8-22.8,32.4-20.9c13.4,2.7,21.7,10.3,24.6,22.7
	c0.5,2.7,1.4,7,2.3,11.1s1.8,8.4,2.3,11.1l20.1,113.5c0.6,3.3,1.4,6.8,2.1,10.1c1.6,7,3.2,14.3,3.4,21.5v0.3l0.5,29.5
	c1.2,25.4-7.1,86.4-11.1,115.8c-0.6,4.2-1,7.7-1.4,10.3c0.4,1.3,0.7,2.6,0.7,3.9v0.1c1,1.7,6.2,11.5,3.9,33.6
	c-1.8,17.4-8.3,31.5-17.7,38.7C329.6,684.1,325.8,685.6,322.2,685.6z M320.7,632L320.7,632c0.6,0,0.9,0.4,1,0.9
	c0.8,3.2,1.7,6.4,2.9,9.6c0.8,2.2,1.5,4.5,2.1,6.8c0,0.1,0,0.1,0,0.2c-0.2,7.3-2.9,15-5,21.1c-1.9,5.3-3.6,10.4-2.5,12.3
	c0.3,0.5,0.8,0.8,1.4,0.8c3.4,0.6,7.7-0.8,11.6-3.8c9-6.9,15.2-20.5,17-37.3c2.4-23.1-3.7-32.5-3.7-32.6c-0.1-0.2-0.2-0.3-0.2-0.5
	v-0.4c-0.1-1.2-0.3-2.4-0.7-3.5c-0.1-0.2-0.1-0.3-0.1-0.5c0.4-2.7,0.8-6.3,1.4-10.6c4-29.3,12.2-90.2,11-115.4l-0.5-29.7
	c-0.2-7-1.8-14.2-3.4-21.1c-0.8-3.4-1.5-6.8-2.1-10.2l-20.1-113.5c-0.5-2.6-1.4-6.9-2.3-11s-1.8-8.4-2.3-11.1
	c-2.8-11.7-10.3-18.6-23-21.2c-7.5-1.5-26.8,3.3-30,19.4l-1-0.2l1,0.2c-1.3,6.6-0.8,12.1,0.5,18.8c1.1,5.9,2.7,12,4.2,17.9
	c0.8,3,1.5,5.9,2.2,8.7c1.9,7.7,3.9,15.6,5.9,23.3c1.8,7.1,3.8,14.4,5.5,21.5c3.2,13.4,6.3,27.1,9.3,40.3s6,26.8,9.2,40.1l0.7,3
	c0,0.1,0,0.2,0,0.2v37.2c0.3,12.1,1.3,24.1,3.1,36.1c5.2,34.3,9.1,76.9,9.1,77.4c0,0.2-0.1,0.5-0.2,0.7c0,0-3.9,5.2-8.7,12.2
	c-3.4,5.1-5.3,11-5.7,17.1l-1.1,15.9c-0.1,1.6,1,3,2.5,3.3c1.4,0.4,2.9-0.1,3.8-1.2l6.2-20.2C319.9,632.3,320.3,632,320.7,632z"/>
<path class="st3" d="M291.6,394.4l12,47.8c10.2,8.7,57-16.9,57-16.9s-14.5-71.5-21.1-109.3c-2.5-14.3-7.3-31.2-10.9-39.1
	c-2.1-4.9-5.6-9.1-9.9-12.1c-0.8-0.9-1.7-1.7-2.6-2.4c-13.6-10.3-28-13.8-50.8-18.3c-13.4-2.7-18.7-4.9-28.4-5.6
	c0.1,1.1-47.6,0.1-47.6,0.1c-8.9,0.8-14.3,2.9-27.1,5.5c-21,4.2-37.7,4.1-52.8,17c-5,3.5-8.8,6.7-11.9,13.6
	c-3.6,7.9-8.4,24.8-10.9,39.1C79.9,351.5,65.4,423,65.4,423s47.3,23.4,57.6,14.8l13.1-52.2c0.4,3.8,1.1,7.5,2,11.2
	c3.6,11.8-2.8,49.5-8.1,86c-1.3,8.7-23,93.3-17.1,109.9c11.5,8.2,34,19.5,47.1,22.9c66.4,16.8,157.4-18.7,157.4-18.7
	c1.7-42.6-25.7-120.6-29-147.1C287.3,442.9,289,418.6,291.6,394.4z"/>
<path class="st4" d="M297.6,394.4l12,47.8c10.2,8.7,57-16.9,57-16.9s-14.5-71.5-21.1-109.3c-2.5-14.3-7.3-31.2-10.9-39.1
	c-2.1-4.9-5.6-9.1-9.9-12.1c-0.8-0.9-1.7-1.7-2.6-2.4c-13.6-10.3-28-13.8-50.8-18.3c-13.4-2.7-18.7-4.9-28.4-5.6
	c0.1,1.1-47.6,0.1-47.6,0.1c-8.9,0.8-14.3,2.9-27.1,5.5c-21,4.2-37.7,4.1-52.8,17c-5,3.5-8.8,6.7-11.9,13.6
	c-3.6,7.9-8.4,24.8-10.9,39.1C85.9,351.5,71.4,423,71.4,423s47.3,23.4,57.6,14.8l13.1-52.2c0.4,3.8,1.1,7.5,2,11.2
	c3.6,11.8-2.8,49.5-8.1,86c-1.3,8.7-23,93.3-17.1,109.9c11.5,8.2,34,19.5,47.1,22.9c66.4,16.8,157.4-18.7,157.4-18.7
	c1.7-42.6-25.7-120.6-29-147.1C293.3,442.9,295,418.6,297.6,394.4z"/>
<path class="st1" d="M199.6,621c-13.4,0.1-26.9-1.4-39.9-4.5c-13.5-3.4-36.2-15-47.5-23c-0.2-0.1-0.3-0.3-0.4-0.5
	c-4.7-13.4,8-69.4,14-96.3c1.6-7.2,2.8-12.3,3-14.1c0.6-4.1,1.2-8.2,1.8-12.3c4.9-32.4,9.4-63,6.3-73.3c-0.6-2.1-1-4.2-1.3-6.3
	L123.9,438c-0.1,0.2-0.2,0.4-0.3,0.5c-10.6,9-56.7-13.6-58.6-14.6c-0.4-0.2-0.6-0.7-0.5-1.1c0.2-0.7,14.6-71.9,21.1-109.2
	c2.4-13.8,7.3-31.1,11-39.4c3.3-7.3,7.3-10.5,12.3-14c12.1-10.3,25.3-12.5,40.5-14.9c4.1-0.7,8.3-1.4,12.7-2.2
	c4.9-1,8.8-1.9,12.1-2.7c4.9-1.3,10-2.3,15.1-2.8h0.1c16.9,0.4,44.1,0.7,47,0.1c0.2-0.1,0.4-0.2,0.6-0.2c5.5,0.5,11,1.4,16.4,2.9
	c3.4,0.8,7.2,1.7,12.1,2.7c22.6,4.5,37.4,8,51.2,18.6c1,0.7,1.9,1.6,2.7,2.4c4.5,3.1,8,7.5,10.2,12.5c3.7,8.3,8.6,25.6,11,39.4
	c6.6,37.3,21,108.5,21.1,109.2c0.1,0.4-0.1,0.9-0.5,1.1c-2,1-47.6,25.8-58.2,16.8c-0.2-0.1-0.3-0.3-0.3-0.5L292,400.1
	c-2.4,23.2-3.6,43.5-2.8,49.4c1.2,9.1,5.2,24.5,9.9,42.3c9,34.3,20.2,77,19.2,105c0,0.4-0.3,0.8-0.6,0.9
	C316.9,598,257.2,621,199.6,621z M113.6,592c11.2,7.9,33.3,19.2,46.5,22.5c62.5,15.8,148-15.4,156.1-18.4
	c0.9-27.7-10.2-69.8-19.1-103.8c-4.7-17.9-8.8-33.3-9.9-42.6c-0.9-7.4,1-33.5,3.4-55.5c0-0.6,0.4-1,0.9-1.1s1,0.4,1.1,0.9l11.9,47.5
	c8.2,6.1,41.8-9.7,55-16.9c-1.5-7.6-14.8-73.2-21-108.6c-2.4-13.7-7.2-30.8-10.8-38.9c-2-4.7-5.4-8.8-9.6-11.8
	c-0.1,0-0.1-0.1-0.1-0.1c-0.8-0.8-1.6-1.6-2.5-2.3c-13.5-10.4-28.1-13.8-50.4-18.2c-5-1-8.8-1.9-12.2-2.7
	c-5.2-1.4-10.5-2.4-15.9-2.8c-1.9,0.4-9.9,0.9-47.6,0.1c-5,0.5-9.9,1.4-14.7,2.7c-3.4,0.8-7.2,1.7-12.2,2.7
	c-4.4,0.9-8.6,1.6-12.7,2.2c-15,2.4-27.9,4.6-39.6,14.6c-4.8,3.4-8.6,6.5-11.7,13.2c-3.7,8.1-8.4,25.2-10.8,38.9
	c-6.2,35.3-19.4,100.8-21,108.5c13.4,6.5,47.3,20.9,55.5,14.7l13-51.9c0.1-0.5,0.5-0.8,1-0.8c0.5,0,0.9,0.4,0.9,0.9
	c0.4,3.7,1,7.4,1.9,11c3.2,10.7-1.4,41.5-6.2,74.2c-0.6,4.1-1.2,8.2-1.8,12.3c-0.3,1.9-1.5,7.1-3.1,14.3
	C121.8,523.6,109.4,578.6,113.6,592z M317.2,596.8L317.2,596.8z M235.8,238.4L235.8,238.4z M235.8,238.4L235.8,238.4z M235.8,238.3
	L235.8,238.3z"/>
<path class="st0" d="M165.4,74.4c-9.7,6-17,15.2-20.5,26.1c-3.7,5-4.2,11-2.3,21.4c0.7,4.1,2.1,8.2,1.9,12.4
	c-0.2,3.8-1.7,7.4-1.9,11.2c-0.4,8.1,4.9,15.2,10.6,21.1c5.5,5.7,9.8,25.5,17,24.9c0.2,0,0.5,0,0.8,0c5.9,3.1,9.8,4.3,12.2,4.1
	c12.7,0.6-11.4-31.7-11.5-43.6c-0.2-15.2-0.9-19.7,6.3-29.2c20.7-6.5,36.7-25.9,39.1-47.5l1.5-0.1C202.6,65.5,181.4,64.8,165.4,74.4
	z"/>
<path class="st0" d="M165.4,74.4c-9.7,6-17,15.2-20.5,26.1c-3.7,5-4.2,11-2.3,21.4c0.7,4.1,2.1,8.2,1.9,12.4
	c-0.2,3.8-1.7,7.4-1.9,11.2c-0.4,8.1,4.9,15.2,10.6,21.1c5.5,5.7,9.8,25.5,17,24.9c0.2,0,0.5,0,0.8,0c5.9,3.1,9.8,4.3,12.2,4.1
	c12.7,0.6-11.4-31.7-11.5-43.6c-0.2-15.2-0.9-19.7,6.3-29.2c20.7-6.5,36.7-25.9,39.1-47.5l1.5-0.1C202.6,65.5,181.4,64.8,165.4,74.4
	z"/>
<path class="st1" d="M182.8,196.6c-2.6,0-6.6-1.4-12-4.1h-0.5c-5.1,0.4-8.5-7.2-11.8-14.5c-1.9-4.2-3.9-8.6-5.9-10.6
	c-4.9-5-11.4-12.7-10.9-21.8c0.2-1.9,0.5-3.9,1-5.8c0.5-1.8,0.8-3.6,0.9-5.4c0-3-0.4-5.9-1.1-8.8c-0.2-1.1-0.5-2.3-0.7-3.4
	c-2-10.9-1.3-17,2.4-22.1c3.6-11,11-20.4,20.9-26.5c16-9.6,37.7-9.2,54.1,0.9c0.5,0.3,0.6,0.9,0.3,1.4c-0.2,0.3-0.5,0.4-0.8,0.5
	h-0.6c-2.7,21.4-18.8,40.7-39.3,47.4c-6.2,8.3-6.1,12.5-5.9,24.6c0,1.2,0,2.4,0.1,3.7c0,4.6,4,12.6,7.8,20.4
	c4.9,10.1,9.2,18.9,6.8,22.6c-0.9,1.2-2.5,1.9-4,1.7L182.8,196.6z M171,190.5c0.2,0,0.3,0,0.4,0.1c5.5,2.8,9.4,4.1,11.7,4h0.1
	c1.7,0.1,2.1-0.6,2.3-0.8c1.8-2.7-2.8-12.2-6.9-20.6c-3.9-8-7.9-16.2-7.9-21.2c0-1.3,0-2.5-0.1-3.7c-0.2-12.5-0.3-17.1,6.5-26.1
	c0.1-0.2,0.3-0.3,0.5-0.3c20.3-6.4,36-25.6,38.4-46.6c0-0.1,0-0.2,0-0.2c-15.5-8.6-35.3-8.6-50.1,0.3l0,0
	c-9.5,5.9-16.6,14.9-20.1,25.6c0,0.1-0.1,0.2-0.1,0.3c-3.4,4.7-4,10.2-2.1,20.7c0.2,1.1,0.4,2.2,0.7,3.3c0.8,3,1.2,6.2,1.2,9.4
	c-0.2,1.9-0.5,3.9-1,5.8c-0.5,1.8-0.8,3.6-0.9,5.4c-0.4,8.3,5.7,15.6,10.3,20.3c2.3,2.3,4.2,6.6,6.3,11.2c2.9,6.4,6.2,13.7,9.9,13.4
	h0.2c0.2,0,0.4,0,0.6,0L171,190.5z M165.4,74.4L165.4,74.4z"/>
<path class="st1" d="M170.7,191.8c-0.2-0.1-0.4-0.2-0.6-0.4c-0.4-0.3-0.9-0.7-1.6-1.2c-1.9-1.5-3.7-3.2-5.4-5
	c-2.6-2.7-4.4-6-5.1-9.7c-0.2-2.2-0.3-4.3-0.3-6.5c0-2.3-0.6-4.5-1.9-6.4c-1.4-1.8-3-3.5-4.7-5.1c-1.6-1.5-2.9-3.3-3.8-5.3
	c-0.9-1.8-1.5-3.7-1.9-5.6c-0.4-1.7-0.5-3.4-0.5-5.1c0.1-1.4,0.3-2.8,0.5-4.2c0.1-1,0.2-2.1,0.1-3.1c-0.2-1.7-0.5-2.6-0.5-2.7
	c0.1,0.2,0.2,0.4,0.3,0.6c0.2,0.7,0.4,1.3,0.5,2c0.1,1.1,0.1,2.1,0,3.2c-0.1,1.2-0.4,2.6-0.4,4.1c0,3.6,0.8,7.2,2.4,10.5
	c1,1.9,2.2,3.6,3.8,5.1c1.7,1.6,3.3,3.3,4.8,5.1c0.7,1,1.2,2.1,1.5,3.3c0.3,1.1,0.4,2.3,0.4,3.4c-0.1,2.1,0,4.3,0.2,6.4
	c0.7,3.6,2.4,6.9,4.9,9.5c1.6,1.8,3.4,3.5,5.2,5.1l1.6,1.2C170.4,191.6,170.5,191.7,170.7,191.8z"/>
<path class="st5" d="M255.5,107.6c0-4.1-16.3-9.8-42.7-9.8s-42.7,5.7-42.7,9.8H255.5L255.5,107.6z"/>
<path class="st6" d="M212.8,117.5c-26.5,0-42.7-5.7-42.7-9.8h-1c0,6.2,19.6,11.2,43.8,11.2s43.8-5,43.8-11.2h-1
	C255.5,111.8,239.2,117.5,212.8,117.5z"/>
<path class="st5" d="M212.8,117.5c26.5,0,42.7-5.7,42.7-9.8h-85.4C170.1,111.8,186.3,117.5,212.8,117.5z"/>
<path class="st2" d="M237.4,245.4c1.9,21.1-52.3,12.1-47.3-1.2c5.7-15.2,3.8-52.7,3.8-52.7h40.7
	C234.6,191.5,235.3,222.1,237.4,245.4z"/>
<path class="st7" d="M235.2,196.8c-7.9,3.2-13.6,3.2-22.2,2.7c-7.8,0-11.9-1.6-19-4c0,0,0.3,15.3,0.2,17.3
	c6.1,6,12.1,12.5,20.9,12.5c8,0,14.7-5.5,20.4-10.2C235.4,215.1,235.1,198.5,235.2,196.8z"/>
<path class="st1" d="M217.9,259c-10.2,0-21.3-3.1-26.3-7.6c-3.3-2.9-3.2-5.7-2.5-7.6c5.5-14.9,3.7-52,3.7-52.3
	c0-0.3,0.1-0.5,0.3-0.7c0.2-0.2,0.4-0.3,0.7-0.3h40.7c0.6,0,1,0.4,1,1c0,0.3,0.8,30.9,2.8,53.8l0,0c0.4,4.8-1.8,8.6-6.5,11
	C228.1,258.2,223.1,259,217.9,259z M194.9,192.5c0.3,6.3,1.3,38.1-3.9,52.1c-0.7,1.8,0,3.6,2,5.4c7,6.3,27.8,9.7,38,4.6
	c4-2,5.8-5,5.4-9c-1.9-20.7-2.7-47.6-2.8-53L194.9,192.5z"/>
<path class="st2" d="M261.9,146.8c-2.5-0.8-5.2,0.3-6.5,2.6c0.5-6.4,3.7-26.5,3.7-27.5c0-2.4-0.1-4.4-0.2-6.2
	c-1.7-25-23.2-43.9-48.2-42.2c-23.8,1.6-42.3,21.4-42.3,45.3c0,2.4,0,7.7,0,8.1c0,1.4,1.5,16,2.2,21.6c-1.3-1.4-3.3-2.1-5.3-1.7
	c-3.2,0.7-5.4,3.6-5.4,6.9c0,4.6,1.4,9.1,4,12.9c2.8,3.5,6.7,4.8,10,3.8c2,14.6,11.4,28.9,24.9,35.4c26.1,12.6,49.8-11.8,54.7-36.3
	c0,1.2,4,1.5,4.7,1.3C266.9,169.1,272,149.6,261.9,146.8z"/>
<path class="st1" d="M213.1,210.2c-5.1,0-10.2-1.2-14.8-3.5c-13.1-6.3-22.9-19.9-25.3-35c-3.6,0.5-7.3-1.1-9.9-4.4
	c-2.8-4-4.2-8.7-4.2-13.5c0-3.7,2.5-6.9,6.1-7.8c1.4-0.4,3-0.2,4.3,0.6c-0.8-6.4-2-18.2-2-19.5c0-0.4,0-6,0-8.1
	c-0.1-25.6,20.6-46.4,46.2-46.4c24.4-0.1,44.7,18.9,46.3,43.3c0.2,1.7,0.2,3.6,0.2,6.2c0,0.4-0.3,2.3-1,7.7s-1.8,12.4-2.3,17
	c1.6-1.1,3.6-1.3,5.5-0.8l0,0c4.2,1.1,6.5,5.1,6.3,10.5c-0.2,6.6-4.4,14.4-10.1,15.4c-1.4,0.1-2.9,0-4.3-0.5
	c-3.5,15.3-13.7,29-26.1,35.2C223.4,208.9,218.3,210.2,213.1,210.2z M173.9,169.4c0.5,0,0.9,0.4,1,0.9c2,14.9,11.6,28.4,24.4,34.6
	c8.8,4.4,19.1,4.4,27.9-0.1c12.2-6.1,22.4-20.3,25.4-35.5c0-0.6,0.4-1,1-1s1,0.4,1,1c1.1,0.4,2.3,0.6,3.6,0.5
	c4.7-0.9,8.2-7.9,8.5-13.6c0.1-2.1-0.2-7.2-4.9-8.5l0,0c-2.1-0.6-4.3,0.3-5.4,2.2c-0.3,0.5-0.9,0.6-1.4,0.3c-0.3-0.2-0.5-0.6-0.5-1
	c0.3-4,1.7-13.2,2.6-20c0.5-3.6,1-7,1-7.4c0-2.5-0.1-4.4-0.2-6c-1.7-24.4-22.9-42.8-47.3-41.1c-23.2,1.6-41.1,20.9-41.2,44.1
	c0,2.4,0,7.7,0,8c0,1.4,1.5,16,2.2,21.6c0,0.4-0.2,0.8-0.5,1c-0.4,0.2-0.8,0.1-1.1-0.2c-1.1-1.2-2.7-1.8-4.3-1.5
	c-2.8,0.6-4.7,3.1-4.6,5.9c0,4.4,1.3,8.6,3.8,12.2c2.4,3,5.8,4.4,8.9,3.5C173.7,169.4,173.8,169.4,173.9,169.4z"/>
<path class="st7" d="M168.5,152.1c-1.3-1.2-3.8-1.8-4.9,0.1c-0.3,0.5-0.2,1.4,0.4,1.6c0.8,0.2,1.6,0,2.4,0.3c0.8,0.4,1.4,1.1,1.7,2
	c0.5,1.2,0,3.4,1.7,2.4c0.6-0.4,0.9-1,0.9-1.7C170.9,155,170.1,153.2,168.5,152.1z"/>
<path class="st7" d="M257.9,150.6c1.3-1.2,3.8-1.8,4.9,0.1c0.3,0.5,0.2,1.4-0.3,1.6c-0.8,0.2-1.6,0-2.4,0.3c-0.8,0.4-1.4,1.1-1.7,2
	c-0.5,1.2-0.4,4.9-2,4c-0.6-0.4-0.9-1-0.8-1.7C255.4,154.6,256.3,152.3,257.9,150.6z"/>
<path class="st7" d="M214.5,151c1.9,1.3,3.9,2.7,5.1,4.3c1.2,1.5,1,3.7-0.5,4.9c0,0,0,0-0.1,0.1c-1.2,0.9-2.6,1.4-4,1.4
	c-1.6,0.1-3.3-0.4-3.9-1.3s0.3-2,1.8-2.2c-1.3-1.4-2.1-3.2-2.1-5.1c-0.1-0.7,0.2-1.3,0.8-1.7C212.5,150.8,213.6,150.7,214.5,151z"/>
<path class="st1" d="M221.7,156.7c-0.5-2.7-3.9-4.8-7.6-6.4c-0.4-0.2-1.1,0.2-0.8,0.4c1.9,1.6,4.4,3.2,5.3,5.1c0.5,1,0.4,2.2-0.3,3
	c-0.8,0.9-2.1,1.3-3.2,2c-0.8,0.5-0.8,0.9,0.3,0.8C219.5,161.4,222.1,158.7,221.7,156.7z"/>
<path class="st8" d="M218.6,178.8c0.2-1.1-0.1-2.2-0.8-3c-1.7-1.9-4-2.1-6.4-1.8c-2.4,0.4-4.8,0.5-7.1,0.2c-1.6-0.4-3.1-1.1-4.6-1.8
	c0.1,0.1,0.1,0.8,0.1,1c0.1,0.4,0.1,0.7,0.1,1.1c0.1,0.6,0.1,1.3,0.2,1.9c0.1,1.1,0.2,2.2,0.3,3.2c0.2,2.1,0.6,4.1,1.2,6.1
	c0.5,1.9,1.3,3.7,2.4,5.3c1.3,1.6,3.2,2.6,5.3,2.9c5.6,0.9,7.2-6.5,8-9.1C217.8,183.7,218.6,178.8,218.6,178.8z"/>
<path class="st1" d="M218.1,178.6c0.3,1.6-14.1-0.2-18.3-6.3c0.1,0.3,0.2,0.7,0.2,1c0.1,0.4,0.1,0.8,0.2,1.1c0.1,0.7,0.2,1.4,0.2,2
	c0.1,1.4,0.2,2.8,0.4,4.2c0.6,3.2,1.1,5,3.7,7.3c2.7,2.2,6.5,2.8,9.8,1.3c1.2-0.8,2-2,2.4-3.4c0.6-2,1.1-4,1.4-6.1
	C218,179.4,218,179,218.1,178.6z"/>
<path class="st3" d="M218.1,178.6c0.3,1.6-14.1-0.2-18.3-6.3c0.5,2.7,0.2,2,0.5,3.9c1.2,7.3,16.3,10.4,17.1,6.7
	C217.8,180.7,218.1,178.6,218.1,178.6z"/>
<path class="st1" d="M211,190.6c-2.9-0.1-5.6-1.3-7.6-3.3c-2.1-2.5-3.3-7.4-3.7-15c0-0.2,0.1-0.4,0.3-0.5c0.2-0.1,0.4,0,0.6,0.2
	c4,5.7,14,6.7,17.4,6.2c0.2,0,0.3,0,0.4,0.1c0.1,0.1,0.2,0.3,0.1,0.4l-0.5,3.1c-0.4,2.1-0.8,4.5-2.2,6.4c-1.1,1.4-2.7,2.2-4.5,2.3
	L211,190.6z M200.8,173.8c0.4,6.5,1.6,10.7,3.4,12.9c1.9,1.9,4.4,2.9,7.1,2.9c1.5-0.1,2.8-0.8,3.8-1.9c1.3-1.7,1.7-3.9,2-5.9
	l0.4-2.5C214.2,179.5,205.4,178.8,200.8,173.8z"/>
<path class="st1" d="M242.1,114.7c-3.5-3-8.2-4.3-12.8-3.7c-3,0.4-9.2,2.2-8.6,6.1c0.1,0.5,0.4,0.8,0.9,1c2.6,0.9,5.1-1.9,7.7-2.4
	c3.8-0.7,7.2,0.6,10.2,2.8C242,120.3,244.2,116.6,242.1,114.7z"/>
<path class="st1" d="M204,114.8c-3.5-3-8.2-4.3-12.7-3.7c-3,0.4-9.2,2.2-8.6,6.1c0.1,0.5,0.4,0.8,0.9,1c2.6,0.9,5.1-1.9,7.7-2.4
	c3.8-0.7,7.2,0.6,10.2,2.8C203.9,120.5,206.2,116.7,204,114.8z"/>
<path class="st0" d="M215,73.6c-0.4,0-0.8,0-1.2,0c-22.1-6-48.3,5.3-48.3,45.3c0,2.4,1.5,7.7,1.5,8.1c-0.1,1.4,1.4,14.2,2.1,19.7
	c0.1,0.3,2,2.6,2.1,2.9c-0.1-9.5,8.5-18,13.4-20.8c17.4-9.7,29.8-34.3,32-53.5l1.5-0.1C217,74.7,216,74.1,215,73.6z"/>
<path class="st0" d="M169,147.8c0.1,0.3,2,1.5,2.1,1.8c-0.1-9.5,8.5-18,13.4-20.8c17.4-9.7,29.8-34.3,32-53.5"/>
<path class="st1" d="M171.1,150.6c-0.4,0-0.7-0.2-0.9-0.5c-0.1-0.1-0.6-0.5-0.8-0.6c-0.8-0.6-1.1-0.9-1.3-1.2
	c-0.2-0.5,0-1.1,0.5-1.3c0,0,0,0,0,0c0.5-0.2,1,0,1.2,0.4l0.3,0.3c1-9.5,9.5-17.2,13.8-19.6c17.7-9.9,29.4-34.5,31.4-52.8
	c0.1-0.5,0.6-0.9,1.1-0.9c0.5,0.1,0.9,0.5,0.9,1.1c0,0,0,0,0,0c-2.1,18.7-14.1,44.1-32.5,54.3c-4.1,2.3-13,10.5-12.9,19.9
	c0,0.5-0.4,0.9-0.9,1L171.1,150.6z M170.2,150.2L170.2,150.2z"/>
<path class="st1" d="M145.1,132.3c-0.2-0.2-0.5-0.5-0.7-0.8c-0.6-0.8-1-1.7-1.2-2.6c-0.7-2.5-0.4-6.4,1.6-10.5
	c1.1-2.2,2.5-4.3,4.3-6c2-2.1,4.1-3.9,6.5-5.5c2.6-1.8,5.4-3.2,8.4-4.2c3.1-1.1,6.4-1.9,9.7-2.7s6.6-1.7,9.6-2.7
	c2.9-1,5.8-2.3,8.5-3.7c4.6-2.5,9-5.5,12.9-9.1c2.6-2.4,5.1-5,7.2-7.8c0.8-1,1.4-1.8,1.8-2.4c0.2-0.3,0.4-0.5,0.6-0.8
	c-0.2,0.3-0.3,0.6-0.5,0.9c-0.4,0.6-0.9,1.4-1.7,2.4c-2.1,2.9-4.5,5.6-7.1,8c-3.9,3.6-8.2,6.7-12.9,9.2c-2.8,1.5-5.7,2.8-8.6,3.8
	c-3.1,1.1-6.4,1.9-9.7,2.8s-6.6,1.6-9.7,2.7c-3,1-5.8,2.4-8.3,4.1c-2.3,1.6-4.5,3.4-6.4,5.4c-1.7,1.7-3.2,3.8-4.2,6
	c-2,4-2.4,7.8-1.7,10.2C143.8,130.2,144.3,131.3,145.1,132.3z"/>
<path class="st1" d="M214.4,73.5c-0.2,0.2-0.4,0.5-0.6,0.7c-0.4,0.4-1,1.1-1.7,1.9c-2.2,2.2-4.5,4.3-6.9,6.2
	c-3.6,2.9-7.6,5.4-11.8,7.2c-2.6,0.9-5.2,1.7-7.9,2.1c-2.8,0.6-5.7,1-8.6,1.4c-5.6,0.7-11.1,1.8-16.4,3.4c-4.4,1.4-8.4,3.7-11.9,6.6
	c-2.4,2-4.3,4.4-5.8,7.2c-0.4,0.8-0.7,1.5-1,2.3c-0.1,0.3-0.2,0.6-0.3,0.8c0.1-0.3,0.1-0.6,0.2-0.8c0.2-0.8,0.5-1.6,0.9-2.4
	c1.4-2.8,3.3-5.3,5.7-7.4c3.5-3,7.6-5.3,12-6.8c5.4-1.7,10.9-2.9,16.5-3.6c3-0.4,5.9-0.9,8.6-1.4c2.7-0.5,5.3-1.2,7.8-2.1
	c4.2-1.7,8.2-4.1,11.8-6.9c2.4-1.9,4.8-3.9,7-6.1l1.8-1.8C214,73.9,214.2,73.7,214.4,73.5z"/>
<path class="st1" d="M146,138.1c-0.1-0.1-0.1-0.2-0.1-0.2c-0.1-0.2-0.2-0.4-0.4-0.7c-0.5-1-0.8-2-0.9-3.1c-0.4-4,0.7-7.9,3.1-11.1
	c0.8-1.1,1.7-2,2.7-2.9c1.1-0.9,2.3-1.7,3.5-2.4c2.8-1.4,5.7-2.4,8.8-3c6.4-1.3,13.7-1,21.1-2.1c3.6-0.5,7.1-1.6,10.4-3.2
	c3-1.6,5.7-3.7,8-6.2c3.9-4.2,7-9.1,9.2-14.4c2-4.5,3.2-8.3,4.1-10.9l1-3l0.3-0.8c0-0.1,0.1-0.2,0.1-0.3V74l-0.2,0.8l-1,3.1
	c-1.1,3.7-2.4,7.4-3.9,11c-2.2,5.4-5.3,10.4-9.2,14.7c-2.3,2.5-5.1,4.7-8.1,6.3c-3.3,1.7-6.9,2.8-10.5,3.3
	c-7.5,1.1-14.7,0.8-21.1,2.1s-11.9,4-14.7,8c-2.4,3-3.6,6.9-3.3,10.8C144.9,135.4,145.4,136.8,146,138.1z"/>
<path class="st1" d="M146.5,133.9c-0.1,0-0.2-0.1-0.3-0.1l-0.8-0.4c-1.1-0.6-2.1-1.3-3-2c-10.6-8.6-12.2-24.1-3.6-34.7
	c1.3-1.6,2.7-3,4.3-4.2c3.4-2.5,7.2-4.3,11.2-5.5c4-1.1,8.2-1.9,12.3-2.2c4-0.4,7.9-0.6,11.5-0.8c3.5-0.2,6.9-0.6,10.4-1.2
	c3-0.5,5.9-1.3,8.7-2.4c4.1-1.5,7.9-3.9,11-6.9c0.8-0.9,1.6-1.8,2.3-2.7l-0.5,0.7c-0.7,1.6-0.4,0.5-0.4,0.4
	c-0.8,1.4-0.1,0.6-1.3,1.8c-3.1,3.2-6.9,5.6-11,7.2c-2.8,1.1-5.8,1.9-8.8,2.5c-3.4,0.6-6.9,1-10.4,1.2c-7.3,0.6-15.5,0.6-23.6,3.1
	c-4,1.1-7.7,2.9-11,5.4c-8.5,6.4-11.8,17.5-8.3,27.6c1.9,5.3,5.5,9.8,10.3,12.7l0.8,0.5C146.4,133.7,146.5,133.8,146.5,133.9z"/>
<path class="st0" d="M253.5,169.5c-1.1,5.5-3,10.7-5.7,15.6c5.8-3.6,10.3-8.9,12.8-15.2c-0.7,0.5-1.5,0.8-2.4,0.9
	C257.4,171,253.4,170.7,253.5,169.5z"/>
<path class="st1" d="M247.8,186.1c-0.3,0-0.5-0.1-0.7-0.3c-0.3-0.3-0.4-0.8-0.2-1.2c2.6-4.8,4.5-10,5.6-15.3c0-0.6,0.4-1,1-1
	s1,0.4,1,1c1.1,0.4,2.3,0.6,3.6,0.5c0.7-0.1,1.4-0.4,2.1-0.8c0.4-0.2,0.8-0.2,1.1,0.1c0.3,0.3,0.4,0.7,0.3,1.1
	c-2.6,6.5-7.3,12.1-13.3,15.8C248.1,186.1,247.9,186.1,247.8,186.1z M254.1,171.3c-0.9,3.7-2.1,7.2-3.6,10.6
	c3.5-2.8,6.3-6.2,8.2-10.2l-0.3,0.1C256.9,171.9,255.5,171.7,254.1,171.3z"/>
<path class="st0" d="M258.8,115.8c0.2,1.8,0.2,3.7,0.2,6.2c0,1-2.8,19.1-3.6,26.4l8.5-33.2l-12.1-29.3l-4.5-14.4l-31.8-1.8
	c0,0,0.7,1.5,1.9,4.1C239.7,75.6,257.3,93.5,258.8,115.8z"/>
<path class="st0" d="M273.1,125.7c-2.5-5.3-8.8-7.2-7.6-22.7c0.1-1.4,0-2.8-0.3-4.2c-1.4-6.3-6.4-8.2-8.9-9.4
	c0.2-3.7,1.1-18.7-12.9-23.1c-14.2-4.5-21.5-5.1-32.9,4.4c-1.4-1.3,1.3,2.9,3,2.9c1.3,0,2.6,0.1,3.9,0.2c6.1,13.2,26,54.2,38,60.7
	c1.6,3.6-0.8,11.6,0,13.9c0,0.4-0.1,0.8-0.1,1.1c1.3-2.3,4-3.4,6.5-2.6c3.2,0.9,4.8,3.3,5.4,6.4c2.8-3.4,6.4-6.2,8.1-10.3
	C277.6,137.4,275.7,131.1,273.1,125.7z"/>
<path class="st1" d="M267.3,154.2c-0.1,0-0.2,0-0.3,0c-0.4-0.1-0.6-0.4-0.7-0.8c-0.4-2.1-1.5-4.8-4.7-5.6c-2.1-0.6-4.3,0.3-5.4,2.2
	c-0.2,0.4-0.7,0.6-1.2,0.4c-0.4-0.1-0.7-0.6-0.7-1c0-0.3,0.1-0.6,0.1-0.9c-0.2-1.8-0.2-3.6,0.2-5.4c0.3-2.7,0.7-6,0-7.9
	c-11.9-6.9-30.2-44.1-37.9-60.5c-1.3-0.1-2.5-0.4-3.7-0.7c-1.4-0.5-2.7-1.5-3.4-2.8c-0.2-0.4-0.1-0.9,0.2-1.2
	c9.3-7.8,20.7-9.3,33.8-4.6c5.4,1.9,9.7,6,11.8,11.3c1.7,3.8,2.3,8,2,12.1c2.8,1.3,7.3,3.6,8.7,9.8c0.3,1.5,0.4,3,0.3,4.5
	c-0.8,11,2.2,14.8,4.9,18.2c1,1.2,1.9,2.5,2.6,3.9c3.5,7.3,4.2,13.2,2.2,18c-1.2,3-3.5,5.4-5.7,7.7c-0.9,0.9-1.8,1.9-2.5,2.8
	C267.8,154,267.6,154.2,267.3,154.2z M260.2,145.6c0.7,0,1.3,0.1,2,0.3c2.6,0.7,4.8,2.7,5.6,5.3c0.5-0.5,0.9-1,1.4-1.5
	c2.1-2.3,4.2-4.4,5.3-7.1c1.7-4.3,1-9.7-2.2-16.4l0,0c-0.7-1.3-1.5-2.5-2.4-3.6c-2.7-3.5-6.2-7.8-5.3-19.6c0.1-1.3,0-2.6-0.3-3.9
	c-1.2-5.3-5.1-7.2-7.7-8.4l-0.6-0.3c-0.5-0.2-0.7-0.8-0.5-1.3c0.3-0.8,0.6-6.2-1.8-11.7c-1.9-4.7-5.8-8.4-10.6-10.1
	c-12.1-4.3-22.6-3.1-31.2,3.7c0.5,0.6,1.1,1,1.8,1.2c1.3,0.4,2.5,0.6,3.9,0.7c0.4,0,0.7,0.3,0.8,0.6c5.8,12.5,25.8,53.9,37.6,60.2
	c0.2,0.1,0.3,0.3,0.4,0.5c1.1,2.3,0.6,6,0.2,9.3c-0.1,1.2-0.3,2.6-0.3,3.6C257.4,146,258.8,145.6,260.2,145.6z"/>
<path class="st1" d="M263.9,147.8c0,0,0-0.1,0.2-0.2l0.6-0.6c0.5-0.6,1.2-1.4,2.1-2.6c1.1-1.4,1.9-3,2.4-4.6c0.3-1,0.4-2.1,0.2-3.2
	c-0.2-1.2-0.6-2.4-1.2-3.4c-1.3-2.2-3.4-4.2-5.3-6.6c-4.3-5.4-7.1-11.9-8.1-18.8c-0.4-3.9-0.5-7.7-0.3-11.6
	c0.2-3.8-0.2-7.7-1.1-11.4c-1.9-6.6-6.6-12-12.9-14.8c-2.6-1.1-5.3-1.8-8.1-1.9c-5.2-0.2-10.4,1.3-14.7,4.3l-0.7,0.5
	c-0.1,0.1-0.2,0.2-0.2,0.2c1.1-1,2.4-1.9,3.7-2.6c3.7-2,7.8-2.9,11.9-2.8c2.9,0.1,5.7,0.7,8.3,1.8c6.5,2.8,11.3,8.4,13.3,15.2
	c0.9,3.8,1.3,7.7,1.1,11.6c-0.2,3.8-0.1,7.7,0.3,11.5c0.9,6.8,3.6,13.2,7.9,18.6c1.9,2.4,4,4.4,5.3,6.7c0.6,1.1,1,2.3,1.2,3.6
	c0.1,1.1,0,2.3-0.3,3.4c-0.6,1.7-1.4,3.3-2.5,4.7c-0.7,0.9-1.4,1.7-2.2,2.6l-0.6,0.6C264,147.7,263.9,147.8,263.9,147.8z"/>
<path class="st1" d="M287.9,118.4c-0.4-1.3-1-2.5-2-3.4c-0.8-0.8-1.9-1.4-3.1-1.7c-1.9-0.5-3.9,0.1-5.2,1.6
	c-0.5,0.6-0.8,1.4-0.8,2.3c0,0.8,0.3,1.5,0.9,2c0.7,0.7,1.7,0.9,2.6,0.4c0.3-0.2,0.5-0.5,0.5-0.8c-0.1,0.3-0.3,0.5-0.6,0.6
	c-0.8,0.4-1.8,0.2-2.5-0.5c-0.5-0.5-0.8-1.1-0.7-1.8c0-0.8,0.3-1.5,0.8-2.1c1.2-1.4,3.2-1.9,4.9-1.4c1.1,0.3,2.1,0.8,2.9,1.6
	c0.9,0.9,1.5,2,1.9,3.2c0.4,1.3,0.3,2.6-0.1,3.8c-0.5,1.2-1.3,2.3-2.4,3c-2.5,1.4-5.5,1.6-8.1,0.4c-1.5-0.6-2.9-1.4-4-2.6
	c-1.2-1.2-2.1-2.6-2.6-4.2c-0.5-1.6-0.8-3.3-1-5c-0.2-1.7-0.4-3.3-0.7-4.9c-0.6-3.1-1.4-6.2-2.6-9.1c-1.1-2.7-2.6-5.1-4.3-7.4
	c-1.5-1.9-3.4-3.6-5.4-4.9c-0.8-0.5-1.7-1-2.6-1.4c0,0.1,0.1,0.2,0.1,0.3c0.8,0.4,1.6,0.9,2.3,1.4c2,1.4,3.8,3.1,5.3,5
	c1.7,2.2,3.2,4.7,4.2,7.3c1.2,2.9,2.1,5.9,2.6,9c0.3,1.6,0.5,3.2,0.7,4.9c0.2,1.7,0.5,3.4,1,5c0.5,1.7,1.5,3.2,2.7,4.4
	c1.2,1.1,2.6,2,4.1,2.6c2.7,1.2,5.9,1.1,8.5-0.5C287.6,124.1,288.7,121.1,287.9,118.4L287.9,118.4z"/>
<path class="st1" d="M146.2,178.1c-0.6-0.7-0.9-1.6-1.1-2.5c-0.1-0.8,0-1.6,0.3-2.4c0.5-1.3,1.6-2.2,3-2.3c0.6,0,1.1,0.1,1.6,0.5
	c0.4,0.3,0.7,0.8,0.7,1.3c0.1,0.7-0.2,1.3-0.8,1.6c-0.2,0.1-0.4,0.1-0.6,0c0.2,0,0.4,0,0.6-0.1c0.5-0.3,0.8-0.9,0.7-1.5
	c-0.1-0.5-0.3-0.9-0.7-1.1c-0.4-0.3-1-0.4-1.5-0.4c-1.3,0.1-2.4,1-2.8,2.2c-0.3,0.7-0.4,1.5-0.3,2.2c0.1,0.8,0.5,1.7,1,2.3
	c1.1,1.5,3.1,2,4.8,1.4c1.8-0.8,3.1-2.4,3.5-4.3c0.3-1.1,0.3-2.2,0.2-3.2c-0.2-1.1-0.6-2.2-1.3-3.1c-0.7-0.9-1.5-1.8-2.4-2.6
	c-0.8-0.8-1.7-1.6-2.4-2.4c-1.5-1.6-2.9-3.3-4-5.1c-1-1.7-1.8-3.5-2.4-5.4c-0.4-1.6-0.6-3.3-0.5-5c0-0.7,0.1-1.3,0.2-2l0.2,0.2
	c-0.1,0.6-0.2,1.2-0.2,1.9c-0.1,1.7,0.1,3.4,0.6,5c0.5,1.9,1.3,3.6,2.4,5.3c1.1,1.8,2.4,3.5,3.9,5.1c0.8,0.8,1.6,1.6,2.4,2.4
	c0.9,0.8,1.7,1.6,2.4,2.6c0.7,1,1.2,2.1,1.4,3.3c0.2,1.1,0.1,2.3-0.2,3.4c-0.4,2-1.8,3.7-3.7,4.5
	C149.4,180.4,147.3,179.7,146.2,178.1L146.2,178.1z"/>
<path class="st1" d="M197.2,127.9c-0.6-0.9-1.9-1.1-2.8-0.5c-0.2,0.2-0.4,0.4-0.6,0.6c-0.9,2.1-0.6,4.3-0.5,6.6
	c0.1,2.6,0.1,5.1,0.2,7.6c0,1.2,1.1,2.2,2.3,2.2s2.2-1.1,2.2-2.3c0-2.6,0-5.1,0-7.7C198,132.2,198.2,130,197.2,127.9z"/>
<path class="st1" d="M232.1,127.1c-0.6-0.9-1.9-1.1-2.8-0.5c-0.2,0.2-0.4,0.4-0.6,0.6c-0.9,2.1-0.6,4.3-0.5,6.6
	c0,2.6,0.1,5.1,0.2,7.6c0.1,2.9,4.4,2.8,4.5-0.1c0-2.6,0-5.1,0-7.6C232.9,131.4,233.1,129.2,232.1,127.1z"/>
<path class="st1" d="M136,386.5c-0.4,0-0.7-0.2-0.9-0.6c-1.3-2.8,2.8-32,4-40.9c0.1-0.6,0.6-0.9,1.1-0.9c0.6,0.1,0.9,0.6,0.9,1.1
	l0,0c-2.6,17.8-4.9,37.8-4.2,39.8c0.2,0.5,0,1.1-0.6,1.3C136.3,386.5,136.1,386.5,136,386.5z"/>
<path class="st1" d="M291.6,395.4c-0.5,0-1-0.4-1-1l-2.1-41.2c0-0.6,0.4-1,1-1c0.6,0,1,0.4,1,0.9l2.1,41.2
	C292.6,394.9,292.2,395.4,291.6,395.4L291.6,395.4z"/>
<circle class="st9" cx="258.4" cy="165.7" r="1.9"/>
<circle class="st9" cx="170.9" cy="165.7" r="1.9"/>
</svg>
