<?xml version="1.0" encoding="utf-8"?>
<!-- Generator: Adobe Illustrator 25.4.1, SVG Export Plug-In . SVG Version: 6.00 Build 0)  -->
<svg version="1.1" id="Cliente_8" xmlns="http://www.w3.org/2000/svg" xmlns:xlink="http://www.w3.org/1999/xlink" x="0px" y="0px"
	 viewBox="0 0 432 589" style="enable-background:new 0 0 432 589;" xml:space="preserve">
<style type="text/css">
	.st0{fill:#FFCCBC;}
	.st1{fill:#59316D;}
	.st2{fill:#FFFFFF;}
	.st3{fill:#D6E3F4;}
	.st4{fill:#263238;}
	.st5{fill:#455A64;}
	.st6{fill:#FF725E;}
	.st7{fill:#BBBDBF;}
	.st8{fill:#C8CACB;}
	.st9{fill:#FFAC90;}
	.st10{fill:#995037;}
	.st11{fill:#FFDEA9;}
	.st12{fill:#CAD7E5;}
</style>
<path class="st0" d="M274.8,299.4c-1.4-7.3-1.8-12.7-0.5-19.1c3.2-16.1,22.5-21.9,31.2-20.1c17.6,3.5,22.1,14.9,23.8,22
	c0.9,5.3,3.6,16.8,4.6,22.1c4.5,25.2,9,50.4,13.4,75.6l6.7,37.8c1.9,10.8,5.6,22.2,5.5,33.2c0.8,10.9-6.7,19.2-17.9,23
	c-7.8,2.6-18.1-0.6-23.6-7c-5-5.8-5.5-9.3-7-15.6c-6.4-26.7-12-53.8-18.5-80.4c-3.5-14.6-7.8-29.9-11.3-44.8
	C279.1,317.5,276.5,308.2,274.8,299.4z"/>
<path class="st0" d="M309.3,634.8c0.4-6.3,2.4-12.4,5.8-17.6c4.8-7.2,8.8-12.2,8.8-12.2s-3.8-42.7-9.1-77.3
	c-1.8-12-2.9-24.1-3.1-36.2v-39.3c0.1-1.8,0.3-3.7,0.5-5.5c1-8.8,11.3-18.5,24.5-17.9c10.4,0.5,22,8.1,22.8,20.7l0.5,29.4
	c1.3,29.1-9.8,105.7-12.5,126.2c0.5,1.2,0.7,2.5,0.8,3.8v0.4c0,0,6.4,9.4,3.9,33.2c-3.2,30.8-19.8,43.7-29.7,42
	c-7.9-1.3,4.8-18.9,5.3-35.2c-0.2-1.8-4.7-13.8-5-16.4l-6.2,20.4c-1.1,1.6-3.1,2.3-5,1.8c-2-0.5-3.4-2.3-3.2-4.4L309.3,634.8z"/>
<path class="st1" d="M324.2,685.6c-0.7,0-1.3,0-2-0.2c-1.2-0.1-2.2-0.8-2.8-1.8c-1.6-2.6,0.1-7.4,2.4-13.9c2.1-6,4.6-13.4,4.9-20.4
	c-0.1-0.8-1.1-3.6-2-6.3c-0.8-2.2-1.5-4.5-2.1-6.4l-5.2,17c0,0.1-0.1,0.2-0.1,0.3c-1.4,1.9-3.8,2.8-6.1,2.2c-2.5-0.6-4.1-2.9-4-5.4
	l1.1-15.9c0.4-6.5,2.4-12.7,6-18.1c4.2-6.1,7.6-10.8,8.5-12c-0.4-4.3-4.1-44.4-9.1-76.8c-1.8-12-2.9-24.2-3.1-36.4v-37.2l-0.7-2.9
	c-3.2-13.3-6.3-27-9.2-40.2s-6-26.9-9.3-40.3c-1.7-7-3.6-14.4-5.4-21.5c-2-7.7-4-15.6-5.9-23.3c-0.7-2.8-1.4-5.8-2.2-8.7
	c-1.5-5.9-3-12-4.2-18c-1.4-6.9-1.9-12.6-0.5-19.5c3.3-16.3,22.8-22.8,32.4-20.9c13.4,2.7,21.7,10.3,24.6,22.7
	c0.5,2.7,1.4,7,2.3,11.1s1.8,8.4,2.3,11.1l20.1,113.5c0.6,3.3,1.4,6.8,2.1,10.1c1.6,7,3.2,14.3,3.4,21.5v0.3l0.6,29.5
	c1.2,25.4-7.1,86.4-11.1,115.8c-0.6,4.2-1,7.7-1.4,10.3c0.4,1.3,0.7,2.6,0.7,3.9v0.1c1,1.7,6.2,11.5,3.9,33.6
	c-1.8,17.4-8.3,31.5-17.7,38.7C331.7,684.1,327.8,685.6,324.2,685.6z M322.7,632h0.1c0.5,0,0.8,0.4,0.9,0.9c0.8,3.2,1.7,6.4,2.9,9.6
	c0.8,2.2,1.5,4.5,2.1,6.8c0,0.1,0,0.1,0,0.2c-0.2,7.3-2.9,15-5,21.1c-1.9,5.3-3.6,10.4-2.5,12.3c0.3,0.5,0.8,0.8,1.4,0.8
	c3.4,0.6,7.7-0.8,11.6-3.8c9-6.9,15.2-20.5,17-37.3c2.4-23.1-3.7-32.5-3.7-32.6c-0.1-0.2-0.2-0.3-0.2-0.5v-0.4
	c-0.1-1.2-0.3-2.4-0.7-3.5c-0.1-0.2-0.1-0.3-0.1-0.5c0.4-2.7,0.8-6.3,1.4-10.6c4-29.3,12.2-90.2,11-115.4l-0.5-29.7
	c-0.2-7-1.8-14.2-3.4-21.1c-0.8-3.4-1.5-6.8-2.1-10.2l-20.1-113.5c-0.5-2.6-1.4-6.9-2.3-11s-1.8-8.4-2.3-11.1
	c-2.8-11.7-10.3-18.6-23-21.2c-7.5-1.5-26.8,3.3-30,19.4l-1-0.2l1,0.2c-1.3,6.6-0.8,12.1,0.5,18.8c1.1,5.9,2.7,12,4.2,17.9
	c0.8,3,1.5,5.9,2.2,8.7c1.8,7.7,3.9,15.6,5.9,23.3c1.9,7.1,3.8,14.4,5.5,21.5c3.2,13.4,6.3,27.1,9.3,40.3s6,26.8,9.2,40.1l0.7,3
	c0,0.1,0,0.2,0,0.2v37.2c0.3,12.1,1.3,24.1,3.1,36.1c5.2,34.3,9.1,76.9,9.1,77.4c0,0.2-0.1,0.5-0.2,0.7c0,0-3.9,5.2-8.7,12.2
	c-3.4,5.1-5.3,11-5.7,17.1l-1.1,15.9c-0.1,1.6,1,3,2.5,3.3c1.4,0.4,2.9-0.1,3.8-1.2l6.2-20.2C321.9,632.3,322.3,632,322.7,632z"/>
<path class="st0" d="M155.3,297.4c1.5-7.3,1.9-12.6,0.7-19.1c-3.1-16.2-22.3-22.1-31-20.4c-17.6,3.3-22.3,14.7-24,21.8
	c-1,5.3-3.8,16.8-4.8,22.1l-14.1,75.5c-2.4,12.6-4.7,25.2-7,37.8c-2,10.8-5.8,22.1-5.8,33.1c-0.8,10.9,6.5,19.3,17.7,23.1
	c7.8,2.7,18.1-0.5,23.6-6.8c5.1-5.7,5.6-9.3,7.2-15.5c6.7-26.7,12.5-53.7,19.2-80.3c3.6-14.6,8-29.8,11.7-44.7
	C150.8,315.5,153.5,306.3,155.3,297.4z"/>
<path class="st0" d="M117.9,632.5c-0.3-6.3-2.2-12.4-5.7-17.6c-4.8-7.2-8.6-12.3-8.6-12.3s4.2-42.6,9.8-77.2
	c1.9-12,3.1-24.1,3.4-36.2l0.3-39.3c-0.1-1.8-0.2-3.7-0.5-5.5c-0.9-8.8-11.1-18.6-24.3-18.1c-10.4,0.4-22,7.9-23,20.5l-0.8,29.4
	C67,505.2,77.5,581.9,80,602.4c-0.5,1.2-0.7,2.5-0.8,3.8v0.4c0,0-6.5,9.3-4.2,33.2c2.9,30.8,19.4,43.9,29.4,42.3
	c7.9-1.2-4.6-18.9-5-35.2c0.2-1.8,4.8-13.7,5.1-16.3l6,20.4c1.1,1.6,3.1,2.3,5,1.8c2-0.5,3.4-2.3,3.3-4.3L117.9,632.5z"/>
<path class="st1" d="M102.7,683.3c-3.6,0-7.5-1.5-11.3-4.5c-9.4-7.3-15.8-21.5-17.4-38.9c-2.1-22.1,3.1-31.9,4.2-33.6v-0.1
	c0.1-1.3,0.3-2.6,0.8-3.9c-0.3-2.6-0.8-6.1-1.3-10.3c-3.7-29.4-11.5-90.5-10.1-115.9l0.8-29.4c0-0.1,0-0.2,0-0.3v-0.1
	c0.2-7.1,1.9-14.4,3.6-21.4c0.8-3.3,1.6-6.8,2.2-10.1l21.1-113.3c0.5-2.7,1.5-7,2.4-11.1s1.9-8.4,2.4-11c3-12.5,11.4-20,24.8-22.6
	c9.6-1.8,29.1,4.9,32.2,21.2l0,0c1.3,7,0.7,12.6-0.7,19.5c-1.2,5.9-2.8,12-4.4,17.9c-0.8,3-1.5,5.9-2.2,8.7
	c-1.9,7.7-4,15.6-6.1,23.3c-1.9,7.1-3.9,14.4-5.6,21.4c-3.3,13.3-6.5,27-9.6,40.2s-6.2,26.8-9.6,40.1l-0.7,2.8l-0.3,37.1
	c-0.4,12.2-1.5,24.3-3.5,36.3c-5.2,32.4-9.3,72.4-9.7,76.8c0.9,1.2,4.3,5.9,8.4,12c3.5,5.4,5.5,11.7,5.8,18.2l0.9,15.9
	c0.1,2.5-1.6,4.8-4,5.4c-2.3,0.6-4.7-0.3-6.1-2.2c-0.1-0.1-0.1-0.2-0.1-0.3l-5-17c-0.6,1.9-1.4,4.1-2.1,6.4c-0.9,2.7-1.9,5.5-2,6.3
	c0.2,7,2.7,14.5,4.7,20.4c2.2,6.6,3.8,11.3,2.2,14c-0.6,1-1.6,1.6-2.8,1.7C103.9,683.2,103.3,683.3,102.7,683.3z M128,258.6
	c-0.9,0-1.9,0.1-2.8,0.2c-12.8,2.4-20.3,9.3-23.2,21c-0.5,2.6-1.4,6.9-2.4,11s-1.9,8.4-2.4,11L76.1,415.2c-0.6,3.4-1.4,6.8-2.2,10.2
	c-1.6,6.9-3.3,14.1-3.5,21v0.4l-0.8,29.4c-1.4,25.3,6.4,86.3,10.1,115.6c0.6,4.3,1,7.9,1.3,10.6c0,0.2,0,0.3-0.1,0.5
	c-0.4,1.1-0.7,2.3-0.7,3.5v0.4c0,0.2-0.1,0.4-0.2,0.5c-0.1,0.1-6.2,9.4-4,32.5c1.6,16.9,7.7,30.5,16.6,37.5c3.9,3,8.1,4.5,11.6,3.9
	c0.6,0,1.1-0.3,1.4-0.8c1.1-1.8-0.6-6.9-2.4-12.3c-2.1-6.1-4.6-13.8-4.8-21.1c0-0.1,0-0.1,0-0.2c0.6-2.3,1.3-4.5,2.1-6.8
	c1.2-3.1,2.2-6.3,3-9.5c0.1-0.5,0.4-0.8,0.9-0.9c0.5,0,0.9,0.3,1,0.7l6,20.3c0.9,1.2,2.4,1.7,3.8,1.3c1.5-0.4,2.6-1.8,2.6-3.3
	l-0.9-15.9c-0.3-6.1-2.2-12-5.5-17.2c-4.7-7.1-8.6-12.2-8.6-12.3c-0.1-0.2-0.2-0.5-0.2-0.7c0-0.4,4.3-43,9.8-77.3
	c1.9-11.9,3.1-24,3.4-36l0.3-37.2c0-0.1,0-0.2,0-0.2l0.7-3c3.3-13.3,6.5-26.9,9.6-40.1c3.1-13.2,6.3-26.9,9.6-40.2
	c1.8-7.1,3.7-14.4,5.6-21.5c2.1-7.6,4.2-15.5,6.1-23.2c0.7-2.8,1.5-5.7,2.2-8.7c1.5-5.9,3.1-12,4.3-17.8c1.4-6.7,2-12.1,0.7-18.8
	l0,0C152.3,264.1,136.7,258.6,128,258.6z"/>
<path class="st2" d="M291.4,337.9l0.2-6c0.9-20.9,1.6-49.4,15-66.5c1.3-1.9,3.1-3.5,5.1-4.7c-15-7.8-21.7-12.3-44.5-16.9
	c-13.4-2.7-18.7-4.9-28.4-5.6l-47.6,0.1c-8.9,0.8-14.3,2.9-27.1,5.5c-10.1,2-20.2,3.9-30,7c-2.7,0.9-20.1,6.7-18.5,10.8
	c3.4,8.9,8.3,17.1,11.6,26.2c8,22.3,9.6,46.1,10.4,69.6c0.7,18.9,2.6,37.7,2.1,56.6c-0.5,23.2-4.4,45.7-7.8,68.6
	c-1.3,8.7-23,93.3-17.2,110c11.5,8.2,34,19.5,47.1,22.9c66.4,16.8,157.4-18.7,157.4-18.7c1.7-42.5-25.7-120.6-29-147.1
	c-2.4-18.9-0.4-38.1-0.2-57C290.2,374.5,290.7,356.1,291.4,337.9z"/>
<path class="st2" d="M291.4,337.9l0.2-6c0.9-20.9,1.6-49.4,15-66.5c1.3-1.9,3.1-3.5,5.1-4.7c-15-7.8-21.7-12.3-44.5-16.9
	c-13.4-2.7-18.7-4.9-28.4-5.6l-47.6,0.1c-8.9,0.8-14.3,2.9-27.1,5.5c-10.1,2-20.2,3.9-30,7c-3.5,1.1-6.9,2.4-10.3,3.9
	c-4.7,2.1-9,4.7-8.2,6.9c3.4,8.9,8.3,17.1,11.6,26.2c8,22.3,1.1,55.8,1.9,79.3c0.7,18.9-16.1,49.1-16.6,68
	c-0.5,23.2,7.6,31,4.2,53.9c-1.3,8.7-18,96.5-12.2,113.1c11.5,8.2,44.2,9.9,57.3,13.2c66.4,16.8,157.4-18.7,157.4-18.7
	c1.7-42.5-3.3-98-6.6-124.6c-2.4-18.9-6.7-59-6.6-77.8C306.2,376.2,290.7,356.1,291.4,337.9z"/>
<path class="st3" d="M297.4,337.9l0.2-6c0.9-20.9,1.6-49.4,15-66.5c1.3-1.9,3.1-3.5,5.1-4.7c-15-7.8-21.7-12.3-44.5-16.9
	c-13.4-2.7-18.7-4.9-28.4-5.6l-47.6,0.1c-8.9,0.8-14.3,2.9-27.1,5.5c-10.1,2-20.2,3.9-30,7c-3.5,1.1-6.9,2.4-10.3,3.9
	c-4.7,2.1-9,4.7-8.2,6.9c3.4,8.9,8.3,17.1,11.6,26.2c8,22.3,1.1,55.8,1.9,79.3c0.7,18.9-16.1,49.1-16.6,68
	c-0.5,23.2,7.6,31,4.2,53.9c-1.3,8.7-18,96.5-12.2,113.1c11.5,8.2,44.2,9.9,57.3,13.2c66.4,16.8,157.4-18.7,157.4-18.7
	c1.7-42.5-3.3-98-6.6-124.6c-2.4-18.9-6.7-59-6.6-77.8C312.2,376.2,296.7,356.1,297.4,337.9z"/>
<path class="st1" d="M201.6,621c-13.4,0.1-26.9-1.4-39.9-4.5c-4.1-1-10.4-1.9-17-2.9c-14.5-2.1-32.6-4.7-40.7-10.5l-0.3-0.2
	l-0.1-0.3c-5.1-14.6,6.4-80.8,10.8-105.7c0.7-3.9,1.2-6.7,1.3-7.9c1.8-12.5,0.2-20.5-1.5-28.9c-1.5-7.1-3-14.4-2.7-24.9
	c0.2-9.2,4.3-21.2,8.2-32.8c4.3-12.5,8.7-25.5,8.4-35.2c-0.3-7.9,0.3-16.7,0.9-26.1c1.2-18.8,2.5-38.2-2.8-52.9
	c-1.8-4.7-3.8-9.3-6-13.8c-1.9-4-3.9-8.1-5.5-12.4c-0.9-2.5,1.8-5.1,8.7-8.2c3.4-1.5,6.8-2.9,10.3-4c9.1-2.9,18.6-4.8,27.8-6.6
	l2.4-0.4c4.9-1,8.8-1.9,12.1-2.7c4.9-1.3,10-2.3,15.1-2.8l47.7-0.1c5.6,0.5,11.1,1.4,16.4,2.9c3.4,0.8,7.2,1.7,12.1,2.7
	c20.2,4,27.9,8.1,39.6,14.2c1.6,0.9,3.3,1.8,5.1,2.7l1.7,0.9l-1.7,0.9c-1.9,1.1-3.5,2.6-4.8,4.4c-12.7,16.3-13.8,43.8-14.7,63.9
	l-0.1,2l-0.2,6c-0.4,9.1,3.5,18.9,7.2,28.4c3.7,9.3,7.5,18.9,7.4,28c-0.1,18.1,4,57.3,6.5,77.7c3.1,24,8.4,80.9,6.7,124.7v0.7
	l-0.6,0.2C318.9,598,259.3,621,201.6,621z M105.4,601.7c7.8,5.3,25.4,7.9,39.5,9.9c7,1,13,1.9,17.2,2.9
	c62.5,15.8,148.1-15.4,156.1-18.4c1.6-43.7-3.6-100-6.7-123.8c-2.6-20.5-6.7-59.8-6.6-78c0.1-8.7-3.6-18.1-7.2-27.3
	c-3.8-9.7-7.8-19.7-7.4-29.2c0.1-2,0.2-4,0.2-6l0.1-2c0.8-20.4,2-48.2,15.1-65.1c1.1-1.5,2.4-2.9,3.9-4l-3.6-1.9
	c-11.5-6.1-19.2-10.1-39.1-14.1c-5-1-8.8-1.9-12.2-2.7c-5.2-1.4-10.6-2.4-16-2.9l-47.5,0.1c-5,0.5-9.9,1.4-14.7,2.7
	c-3.4,0.8-7.2,1.7-12.2,2.7l-2.4,0.5c-9.1,1.8-18.6,3.7-27.6,6.5c-3.4,1.1-6.8,2.4-10.1,3.9c-8.2,3.7-7.8,5.4-7.7,5.6
	c1.6,4.2,3.6,8.3,5.5,12.2c2.3,4.5,4.3,9.2,6.1,13.9c5.4,15.1,4.1,34.7,2.9,53.7c-0.6,9.3-1.2,18.1-0.9,25.9
	c0.4,10-4.1,23.2-8.4,35.9c-3.9,11.5-7.9,23.3-8.1,32.2c-0.2,10.3,1.2,17.5,2.7,24.4c1.8,8.6,3.4,16.8,1.6,29.6
	c-0.2,1.2-0.7,4-1.4,8C112.6,519.5,100.8,587,105.4,601.7L105.4,601.7z"/>
<path class="st4" d="M306.4,159.9c-1.7-2-3.9-3.9-4.5-6.5s0.7-5,1.2-7.5c1.3-7.2-2.7-14.4-9.6-17c-3.9-1.3-8.8-1.4-10.8-5
	s0.5-7.7,2-11.4c2.4-6.3,1.8-13.4-1.5-19.2c-0.5-1.3-1-2.6-1.6-3.9c-4.9-9.9-14.9-16.3-25.9-16.7c-1.7-8-8-14.4-16-16.1
	c0-2.9-0.6-5.8-1.9-8.4c-3.8-7.4-11.8-11.8-20-13.2c-12-1.8-24.2,2.2-32.8,10.9c-4.5,4.7-8.2,10.8-14.3,12.8
	c-5.4,1.8-11.3,0.2-17,0.9c-7.6,1-14.1,6.4-17.9,12.9s-5.5,14.2-6.4,21.8c-0.8,7-1.4,14.6-6.2,19.7s-12.2,6-17.9,9.5
	c-11,6.6-14.6,23-7.3,33.6c2.3,3.4,5.7,6.5,5.9,10.6c0.2,3.7-2.2,7.1-3.3,10.6c-2.9,9.2,4.6,20.1,14.2,20.6c4.8,0.3,10-1.6,14.3,0.6
	c4.3,2.2,5.9,7.4,8.7,11.3c5.9,7.9,16.5,10.6,25.4,6.4c3.6-1.8,7-4.6,10.9-4.4s7.1,3.6,11,4.4c5.1,1,9.9-2.8,13-7s50.6-1.3,50.6-1.3
	c5.4,0,8.4-1.8,10.4-4.6c1.1,0.8,2.3,1.4,3.6,1.8c6.5,2,13.5-0.2,17.7-5.5c2.1-2.8,3.4-6.3,6.3-8.1c2.6-1.6,5.8-1.4,8.7-2
	c10.3-1.9,17.1-11.7,15.2-22C310,165.4,308.6,162.3,306.4,159.9L306.4,159.9z"/>
<path class="st1" d="M154.5,220.2c-6.9,0-13.4-3.2-17.5-8.8c-0.8-1.2-1.6-2.5-2.3-3.8c-1.7-3-3.3-5.8-6-7.2c-2.5-1.3-5.5-1-8.6-0.7
	c-1.8,0.2-3.5,0.3-5.3,0.2c-9.7-1.1-16.6-9.8-15.6-19.5c0.1-0.8,0.2-1.7,0.5-2.5c0.4-1.2,0.9-2.4,1.4-3.6c1-2.3,2-4.4,1.8-6.7
	c-0.2-2.8-2-5.1-3.9-7.6c-0.6-0.8-1.3-1.6-1.9-2.5c-7.4-11.8-4-27.4,7.6-35.1c2.3-1.3,4.7-2.4,7.2-3.3c3.9-1.6,7.7-3,10.5-6
	c4.2-4.5,5-11.2,5.7-17.6l0.2-1.6c0.8-6.5,2.2-14.9,6.5-22.2s11.4-12.5,18.7-13.4c2.4-0.2,4.8-0.3,7.2-0.1c3.4,0.1,6.6,0.2,9.6-0.8
	c4.3-1.4,7.3-5,10.5-8.7c1.1-1.3,2.3-2.7,3.5-3.9c8.8-8.9,21.3-13,33.6-11.1c9.4,1.5,17.1,6.6,20.8,13.7c1.2,2.5,1.9,5.3,2,8.1
	c7.8,2.1,13.8,8.2,15.8,16c11.1,0.7,21,7.2,26,17.2c0.6,1.3,1.2,2.6,1.6,3.9c3.4,6.1,4,13.4,1.6,20c-0.3,0.7-0.5,1.3-0.8,2
	c-1.3,3.1-2.6,6.1-1.2,8.6c1.2,2.3,4,3,6.9,3.7c1.1,0.3,2.2,0.5,3.2,0.9c7.4,2.8,11.7,10.4,10.2,18.1c-0.2,0.8-0.4,1.5-0.6,2.2
	c-0.6,1.6-0.8,3.2-0.6,4.9c0.4,1.8,1.7,3.2,3,4.6c0.4,0.5,0.8,0.9,1.2,1.4l0,0c7.1,8.5,5.9,21.1-2.5,28.2c-2.6,2.2-5.8,3.7-9.1,4.3
	c-0.9,0.2-1.7,0.3-2.6,0.4c-2,0.1-4,0.6-5.8,1.5c-1.8,1.1-2.9,3-4.1,5c-0.6,1-1.2,1.9-1.9,2.9c-4.5,5.7-11.9,8-18.8,5.9
	c-1.1-0.4-2.1-0.8-3-1.4c-2.4,2.9-5.8,4.3-10.6,4.3c-23.2-1.4-48.1-1.5-49.8,0.9c-4,5.5-9.2,8.3-14,7.4c-1.9-0.5-3.6-1.2-5.3-2.2
	c-1.7-1.1-3.5-1.9-5.5-2.2c-2.6-0.2-5.1,1.2-7.6,2.7c-0.9,0.5-1.8,1.1-2.8,1.5C160.8,219.6,157.7,220.3,154.5,220.2z M123.9,197.5
	c1.9-0.1,3.9,0.3,5.6,1.2c3.3,1.7,5.1,4.9,6.9,8c0.7,1.2,1.4,2.5,2.2,3.6c5.6,7.5,15.7,10,24.2,6.1c0.9-0.4,1.8-0.9,2.6-1.5
	c2.7-1.6,5.5-3.2,8.8-3c2.3,0.3,4.5,1.1,6.4,2.4c1.5,0.9,3,1.6,4.7,2c5.9,1.1,10.6-4.8,12-6.6c3.1-4.3,40.2-2.4,51.5-1.7
	c4.5,0,7.5-1.3,9.5-4.2l0.6-0.8l0.8,0.6c1,0.7,2.2,1.3,3.3,1.7c6.1,1.8,12.7-0.2,16.6-5.2c0.6-0.8,1.2-1.8,1.7-2.7
	c1.3-2.1,2.6-4.3,4.8-5.7c2-1.1,4.3-1.7,6.6-1.8c0.8-0.1,1.7-0.2,2.5-0.3c9.7-1.8,16.2-11.1,14.4-20.9c0,0,0,0,0,0
	c-0.6-3.1-1.9-6-3.9-8.4l0,0c-0.4-0.4-0.8-0.9-1.2-1.3c-1.5-1.6-3-3.3-3.5-5.6c-0.3-2-0.1-4,0.7-5.9c0.2-0.7,0.4-1.4,0.5-2
	c1.2-6.8-2.6-13.4-9-15.9c-0.9-0.3-2-0.6-3-0.8c-3.2-0.8-6.6-1.6-8.2-4.7c-1.8-3.4-0.2-7.1,1.1-10.3c0.3-0.7,0.5-1.3,0.8-1.9
	c2.2-6.1,1.7-12.8-1.5-18.4l-0.1-0.2c-0.4-1.3-1-2.5-1.6-3.8c-4.8-9.5-14.3-15.7-25-16.1h-0.8l-0.2-0.8c-1.7-7.6-7.6-13.6-15.2-15.4
	l-0.8-0.2v-0.8c0-2.8-0.6-5.5-1.8-7.9c-3.3-6.5-10.5-11.2-19.3-12.6c-11.7-1.8-23.6,2.2-31.9,10.6c-1.1,1.2-2.3,2.5-3.4,3.8
	c-3.2,3.8-6.5,7.7-11.3,9.3c-3.4,1.1-6.9,1-10.3,0.8c-2.3-0.1-4.6-0.1-6.9,0.1c-6.7,0.9-13.1,5.5-17.2,12.4s-5.5,15.1-6.2,21.4
	l-0.2,1.6c-0.8,6.8-1.6,13.8-6.3,18.7c-3.1,3.3-7.2,4.9-11.2,6.5c-2.4,0.9-4.7,1.9-6.9,3.2c-10.7,7.1-13.8,21.3-7,32.2
	c0.6,0.8,1.2,1.6,1.8,2.4c2,2.6,4.1,5.3,4.3,8.7c0.2,2.8-0.9,5.2-2,7.6c-0.5,1.1-1,2.2-1.4,3.4c-2.1,8.4,3,16.9,11.4,19
	c0.6,0.2,1.3,0.3,1.9,0.3c1.7,0,3.3,0,5-0.2C121.2,197.6,122.6,197.5,123.9,197.5z"/>
<path class="st4" d="M158.4,143.3c0.4,4.7,1.1,9,1.4,13.6c0.2,2,0.7,4.4,2.6,5c1.5,0.2,2.9-0.5,3.6-1.9c0.6-1.3,1-2.7,1-4.1
	c1.4-14.2,2.6-25.1,4-39.3C166.9,122.4,162.7,132.2,158.4,143.3z"/>
<path class="st5" d="M306.4,134c0.7-0.7,1.3-1.5,1.9-2.3c1.5-2.3,2.1-5,1.9-7.8c-0.5-4.1-2.7-7.9-6.1-10.3c-4.3-3-9.5-4.3-14.7-3.8
	h-0.8l0.4-0.7c2-3.8,3.4-8,4.2-12.2c0.6-3.4,0.3-7-0.7-10.3c-1-3.1-2.9-5.8-5.4-7.9c-4.3-3.5-9.6-5.6-15.1-5.9
	c-3.7-0.3-7.5-0.2-11.2,0.3l-3.1,0.4c-0.4,0.1-0.7,0.1-1.1,0.1c0.3-0.1,0.7-0.2,1.1-0.3c0.7-0.2,1.8-0.3,3-0.6
	c3.8-0.7,7.6-0.9,11.4-0.6c5.7,0.3,11.2,2.4,15.6,6c2.6,2.2,4.6,5,5.7,8.3c1.1,3.5,1.4,7.1,0.8,10.7c-0.8,4.4-2.2,8.6-4.3,12.6
	l-0.5-0.7c5.4-0.5,10.9,1,15.3,4.1c3.5,2.5,5.8,6.4,6.2,10.8c0.2,2.8-0.6,5.7-2.2,8C308.1,132.6,307.3,133.4,306.4,134z"/>
<path class="st5" d="M120.9,172.1H119c-1.3,0-3.1-0.2-5.5-0.4c-2.9-0.3-5.8-1-8.6-2c-3.7-1.3-7-3.7-9.4-6.8c-2.6-4-3.8-8.8-3.4-13.6
	c0.1-2.6,0.4-5.2,0.8-7.8c0.3-2.8,0.9-5.5,1.7-8.2c0.9-2.9,2.7-5.4,5.1-7.2c2.6-1.9,6-2,9-2s6.3,0.1,8.8-1.7c2.4-2,3.9-5,4-8.1
	c0.1-3.2,0-6.4-0.4-9.6c-0.2-3.2,0-6.3,0.4-9.5c0.8-6,2.7-11.7,5.5-17c2.6-4.8,6-9,10.2-12.6c3.6-3,7.8-5.4,12.2-7
	c6.4-2.4,13.4-3,20.1-1.8c2.5,0.4,4.9,1.2,7.2,2.3l-0.5-0.1l-1.4-0.5c-1.8-0.6-3.6-1-5.4-1.3c-6.7-1.1-13.5-0.4-19.8,2
	c-4.4,1.6-8.4,3.9-12,6.9c-4.1,3.5-7.4,7.7-9.9,12.5c-2.8,5.2-4.6,10.9-5.4,16.7c-0.4,3.1-0.5,6.2-0.4,9.3c0.4,3.2,0.5,6.5,0.4,9.8
	c-0.1,3.4-1.7,6.6-4.4,8.8c-1.4,0.9-3,1.5-4.6,1.7c-1.6,0.2-3.2,0.2-4.7,0.2c-6-1.1-11.8,2.7-13.2,8.5c-0.8,2.6-1.4,5.3-1.7,8
	c-0.4,2.6-0.7,5.1-0.8,7.7c-0.4,4.6,0.7,9.2,3.2,13.2c2.3,3,5.4,5.4,9,6.7c2.7,1,5.5,1.7,8.4,2.1c2.4,0.3,4.2,0.5,5.5,0.6l1.4,0.1
	C120.5,172,120.7,172,120.9,172.1z"/>
<path class="st5" d="M133,181.5c-0.1,0.1-0.3,0.3-0.5,0.4c-0.5,0.3-1,0.6-1.5,0.9c-2.1,1-4.3,1.5-6.6,1.4c-3.6,0-7.2-1.1-10.2-3.1
	c-3.9-2.9-6.6-7.1-7.6-11.9c-0.6-2.7-0.7-5.5-0.3-8.3c0.5-3,1.5-5.9,3-8.5c1.6-2.8,3.7-5.3,6.1-7.5c2.6-2.2,5.5-4.1,8.5-5.7
	c3.2-1.5,6-3.6,8.6-6c2.4-2.7,4.2-6,5.1-9.5c0.9-3.7,1.5-7.5,1.6-11.3c0.2-3.9,0.2-7.8,0.6-11.9c0.3-4,1.2-7.9,2.7-11.7
	c1.5-3.7,4-6.8,7.3-9c3.2-2,6.6-3.5,10.3-4.4c3.6-1,7-1.8,10.3-2.8c3.2-0.9,6.3-2.3,9-4.2c0.6-0.5,1.2-1,1.8-1.5
	c0.6-0.5,1.1-1.1,1.6-1.7c1-1.2,1.8-2.5,2.6-3.8c1.4-2.7,3.1-5.2,5-7.5c1.9-2,4.2-3.7,6.8-4.8c7.9-3.6,17.3-1.6,23,5
	c1.5,1.7,2.7,3.6,3.6,5.7c0.3,0.7,0.6,1.5,0.7,2.2c-0.3-0.7-0.6-1.5-0.9-2.2c-0.9-2-2.2-3.9-3.7-5.6c-2.4-2.6-5.5-4.5-8.9-5.6
	c-4.5-1.3-9.4-0.9-13.6,1c-2.5,1.1-4.7,2.7-6.5,4.7c-1.9,2.3-3.5,4.7-4.8,7.3c-0.8,1.4-1.7,2.7-2.6,4c-0.5,0.6-1.1,1.2-1.7,1.8
	c-0.6,0.6-1.2,1.1-1.9,1.6c-2.8,1.9-5.9,3.4-9.2,4.4c-3.3,1-6.8,1.8-10.3,2.8c-3.5,0.9-6.9,2.4-10,4.3c-3.1,2.1-5.6,5.1-7,8.6
	c-1.5,3.6-2.3,7.5-2.6,11.4c-0.4,4-0.4,7.9-0.6,11.8c-0.1,3.9-0.7,7.7-1.6,11.5c-0.9,3.7-2.7,7.1-5.3,9.9c-2.6,2.5-5.6,4.6-8.8,6.1
	c-3,1.5-5.8,3.4-8.4,5.5c-2.4,2.1-4.4,4.5-6,7.2c-1.5,2.5-2.5,5.3-3,8.2c-0.4,2.7-0.4,5.4,0.2,8.1c0.9,4.6,3.4,8.7,7.2,11.6
	c2.9,2.1,6.3,3.2,9.9,3.3c2.2,0.1,4.5-0.4,6.5-1.2C131.5,182.3,132.3,182,133,181.5z"/>
<path class="st6" d="M201.4,236.3v-6.7c0,0-4.4-0.2-6.5,1.8l1.2,9.4L201.4,236.3z"/>
<path class="st7" d="M257.5,107.6c0-4.1-16.2-9.8-42.7-9.8s-42.7,5.7-42.7,9.8H257.5L257.5,107.6z"/>
<path class="st8" d="M214.8,117.5c-26.5,0-42.7-5.7-42.7-9.8h-1c0,6.2,19.6,11.2,43.8,11.2s43.8-5,43.8-11.2h-1
	C257.5,111.8,241.3,117.5,214.8,117.5z"/>
<path class="st7" d="M214.8,117.5c26.5,0,42.7-5.7,42.7-9.8h-85.4C172.1,111.8,188.4,117.5,214.8,117.5z"/>
<path class="st0" d="M239.5,245.4c1.9,21.1-52.3,12.1-47.3-1.2c5.7-15.2,3.8-52.7,3.8-52.7h40.7
	C236.6,191.5,237.4,222.1,239.5,245.4z"/>
<path class="st9" d="M237.2,196.8c-7.9,3.2-13.6,3.2-22.2,2.7c-7.8,0-11.9-1.6-19.1-4c0,0,0.3,15.3,0.2,17.3
	c6.1,6,12.1,12.5,20.9,12.5c8,0,14.7-5.5,20.4-10.2C237.5,215.1,237.2,198.5,237.2,196.8z"/>
<path class="st1" d="M220,259c-10.2,0-21.3-3.1-26.3-7.6c-3.3-2.9-3.2-5.7-2.5-7.6c5.5-14.9,3.7-52,3.7-52.3c0-0.3,0.1-0.5,0.3-0.7
	c0.2-0.2,0.4-0.3,0.7-0.3h40.7c0.6,0,1,0.4,1,1c0,0.3,0.8,30.9,2.8,53.8l0,0c0.4,4.8-1.8,8.6-6.6,11C230.2,258.2,225.2,259,220,259z
	 M197,192.5c0.3,6.3,1.3,38.1-3.9,52.1c-0.7,1.8,0,3.6,2,5.4c7,6.3,27.8,9.7,38,4.6c4-2,5.8-5,5.4-9c-1.9-20.7-2.7-47.6-2.8-53
	L197,192.5z"/>
<path class="st0" d="M263.9,146.8c-2.5-0.8-5.2,0.3-6.5,2.6c0.5-6.4,3.7-26.5,3.7-27.5c0-2.4-0.1-4.4-0.2-6.2
	c-1.7-25-23.4-43.8-48.4-42c-23.7,1.7-42.1,21.4-42.2,45.1c0,2.4,0,7.7,0.1,8.1c-0.1,1.4,1.5,16,2.2,21.6c-1.3-1.4-3.3-2.1-5.3-1.7
	c-3.2,0.7-5.5,3.6-5.4,6.9c0,4.6,1.4,9.1,4,12.9c2.8,3.5,6.6,4.8,10,3.8c2,14.6,11.4,28.9,24.9,35.4c26.1,12.6,49.8-11.8,54.7-36.3
	c0,1.2,4,1.5,4.7,1.3C269,169.1,274.1,149.6,263.9,146.8z"/>
<path class="st1" d="M215.2,210.2c-5.1,0-10.2-1.2-14.8-3.5c-13-6.3-22.9-19.9-25.3-35c-3.6,0.5-7.3-1.1-9.9-4.4
	c-2.7-4-4.2-8.7-4.1-13.6c0-3.7,2.5-6.9,6.1-7.8c1.4-0.4,3-0.2,4.3,0.6c-0.8-6.4-2-18.2-1.9-19.5c0-0.4-0.1-6-0.1-8.1
	c0-25.6,20.8-46.3,46.3-46.3c24.3,0,44.5,18.8,46.2,43.1c0.1,1.7,0.2,3.6,0.2,6.2c0,0.4-0.3,2.3-1,7.7s-1.8,12.4-2.3,17
	c1.6-1.1,3.6-1.3,5.5-0.8l0,0c4.2,1.1,6.5,5.1,6.3,10.5c-0.2,6.6-4.4,14.4-10.1,15.4c-1.4,0.1-2.9,0-4.3-0.5
	c-3.5,15.3-13.7,29-26.1,35.2C225.5,208.9,220.4,210.2,215.2,210.2z M175.9,169.4c0.2,0,0.4,0.1,0.6,0.2c0.2,0.2,0.4,0.4,0.4,0.7
	c2,14.9,11.6,28.4,24.3,34.6c8.8,4.4,19.1,4.4,27.9-0.1c12.2-6.1,22.4-20.3,25.4-35.5c0-0.6,0.4-1,1-1c0.6,0,1,0.4,1,1
	c1.1,0.4,2.3,0.6,3.6,0.5c4.7-0.9,8.2-7.9,8.5-13.6c0.1-2.1-0.2-7.2-4.9-8.5l0,0c-2.1-0.6-4.3,0.3-5.4,2.2c-0.3,0.5-0.9,0.6-1.4,0.3
	c-0.3-0.2-0.5-0.6-0.5-1c0.3-4,1.7-13.2,2.6-20c0.5-3.6,1-7,1-7.4c0-2.5-0.1-4.4-0.2-6c-1.7-24.4-22.9-42.8-47.3-41.1
	c-23.2,1.6-41.1,20.9-41.2,44.1c0,2.4,0,7.7,0.1,8c-0.1,1.4,1.5,16,2.2,21.6c0,0.4-0.2,0.8-0.5,1c-0.4,0.2-0.8,0.1-1.1-0.2
	c-1.1-1.2-2.7-1.8-4.3-1.5c-2.8,0.6-4.7,3.1-4.6,5.9c0,4.4,1.3,8.6,3.8,12.2c2.4,3,5.8,4.4,8.9,3.5
	C175.7,169.4,175.8,169.4,175.9,169.4z"/>
<path class="st9" d="M172.5,151.6c-1.3-1.2-3.8-1.8-4.9,0.1c-0.3,0.5-0.2,1.4,0.4,1.6c0.8,0.2,1.6,0,2.4,0.3c0.8,0.4,1.4,1.1,1.7,2
	c0.5,1.2,0,3.3,1.7,2.4c0.6-0.4,0.9-1,0.9-1.7C174.9,154.5,174.1,152.6,172.5,151.6z"/>
<path class="st9" d="M261.5,150.6c1.3-1.2,3.8-1.8,4.9,0.1c0.3,0.5,0.2,1.4-0.3,1.6c-0.8,0.2-1.6,0-2.4,0.3c-0.8,0.4-1.4,1.1-1.7,2
	c-0.5,1.2-0.4,4.9-2,4c-0.6-0.4-0.9-1-0.8-1.7C259,154.6,259.9,152.3,261.5,150.6z"/>
<path class="st1" d="M199.9,127.9c-0.6-0.9-1.9-1.1-2.8-0.5c-0.2,0.2-0.4,0.4-0.6,0.6c-0.9,2.1-0.6,4.3-0.5,6.6
	c0,2.6,0.1,5.1,0.2,7.6c0,1.2,1.1,2.2,2.3,2.2s2.2-1.1,2.2-2.3c0-2.6,0-5.1,0-7.7C200.7,132.1,200.9,130,199.9,127.9z"/>
<path class="st1" d="M235.6,127.8c-0.6-0.9-1.9-1.1-2.8-0.5c-0.2,0.2-0.4,0.4-0.6,0.6c-0.9,2.1-0.6,4.3-0.6,6.6
	c0.1,2.6,0.1,5.1,0.2,7.6c0,1.2,1.1,2.2,2.3,2.2c1.2,0,2.2-1.1,2.2-2.3c0-2.6,0-5.1,0-7.6C236.3,132.1,236.6,129.9,235.6,127.8z"/>
<path class="st9" d="M216.6,151c1.9,1.3,3.9,2.7,5,4.3c1.2,1.5,1,3.7-0.4,4.9c0,0-0.1,0.1-0.1,0.1c-1.2,0.9-2.6,1.4-4,1.4
	c-1.6,0.1-3.3-0.4-3.9-1.3s0.3-2,1.8-2.2c-1.3-1.4-2.1-3.2-2.1-5.1c-0.1-0.7,0.2-1.3,0.8-1.7C214.5,150.8,215.6,150.6,216.6,151z"/>
<path class="st1" d="M223.7,156.7c-0.5-2.7-3.9-4.8-7.6-6.4c-0.4-0.2-1.1,0.2-0.8,0.4c1.9,1.6,4.4,3.2,5.3,5.1c0.5,1,0.4,2.2-0.3,3
	c-0.8,0.9-2.1,1.3-3.2,2c-0.8,0.5-0.8,0.9,0.3,0.8C221.6,161.4,224.1,158.7,223.7,156.7z"/>
<path class="st1" d="M203.1,118.7c-0.2,0-0.5-0.1-0.6-0.2c-2.9-2.6-7.3-2.6-10.2,0c-0.4,0.4-1,0.4-1.4-0.1s-0.4-1,0.1-1.4
	c0.1-0.1,6.1-5.6,12.8,0c0.4,0.3,0.5,1,0.1,1.4c0,0,0,0,0,0C203.6,118.7,203.4,118.8,203.1,118.7z"/>
<path class="st1" d="M239.7,118.7c-0.2,0-0.5-0.1-0.6-0.2c-2.9-2.6-7.3-2.6-10.2,0c-0.4,0.4-1,0.4-1.4-0.1s-0.4-1,0.1-1.4
	c0.1-0.1,6.1-5.6,12.8,0c0.4,0.4,0.5,1,0.1,1.4C240.3,118.7,240,118.8,239.7,118.7L239.7,118.7z"/>
<path class="st6" d="M220.7,178.8c0.2-1.1-0.1-2.2-0.8-3c-1.7-1.9-4-2.1-6.4-1.8c-2.4,0.4-4.8,0.5-7.1,0.2c-1.6-0.4-3.1-1.1-4.6-1.8
	c0.1,0.1,0.1,0.8,0.1,1c0,0.4,0.1,0.7,0.1,1.1c0.1,0.6,0.1,1.3,0.2,1.9c0.1,1.1,0.2,2.2,0.3,3.2c0.2,2.1,0.6,4.1,1.2,6.1
	c0.5,1.9,1.3,3.7,2.4,5.3c1.3,1.6,3.2,2.6,5.3,2.9c5.6,0.9,7.2-6.5,8-9.1C219.9,183.7,220.7,178.8,220.7,178.8z"/>
<path class="st1" d="M220.1,178.6c0.3,1.6-14.1-0.2-18.3-6.3c0.1,0.3,0.2,0.7,0.2,1c0.1,0.4,0.1,0.8,0.2,1.1c0.1,0.7,0.2,1.4,0.2,2
	c0.1,1.4,0.2,2.8,0.4,4.2c0.6,3.2,1.1,5,3.7,7.3c2.7,2.2,6.5,2.8,9.8,1.3c1.2-0.8,2-2,2.4-3.4c0.6-2,1.1-4,1.4-6.1
	C220,179.4,220.1,179,220.1,178.6z"/>
<path class="st2" d="M220.1,178.6c0.3,1.6-14.1-0.2-18.3-6.3c0.4,2.7,0.2,2,0.5,3.9c1.2,7.3,16.3,10.4,17.1,6.7
	C219.9,180.7,220.1,178.6,220.1,178.6z"/>
<path class="st1" d="M213.1,190.6c-2.9-0.1-5.6-1.3-7.6-3.3c-2.1-2.5-3.3-7.4-3.7-15c0-0.2,0.1-0.4,0.3-0.5c0.2-0.1,0.4,0,0.6,0.2
	c4,5.7,14,6.7,17.4,6.2c0.2,0,0.3,0,0.4,0.1c0.1,0.1,0.2,0.3,0.1,0.4l-0.5,3.1c-0.4,2.1-0.8,4.5-2.2,6.4c-1.1,1.4-2.7,2.2-4.5,2.3
	L213.1,190.6z M202.9,173.8c0.4,6.5,1.6,10.7,3.4,12.9c1.9,1.9,4.4,2.9,7.1,2.9c1.5-0.1,2.8-0.8,3.8-1.9c1.3-1.7,1.7-3.9,2-5.9
	l0.4-2.5C216.2,179.5,207.5,178.8,202.9,173.8z"/>
<path class="st4" d="M262.8,142.3c2-5.9,3.3-12.1,3.8-18.3l-3.8-31.9l-27.5-18.5c-7.9-7.1-11.3-4.2-16.4-1.6l-0.6,0.2v-0.4l-0.2-1.1
	h-5.1l-32.7,5.9l-12.7,21L156.2,113c0,0,7,29.4,10.8,31.5l0.5,0.2c3.8,2.1,7.7,12.6,9.7,14.7s0.3-3.9,0.3-3.9
	c-1.1-5.3-3-16.4-2.8-18c6.8-0.7,16-17.2,20.6-22.4c5.5-6.3,8.9-14.1,12.3-21.8c-0.3,7.6-3,15-7.7,21c3.1,0.5,6.2-0.5,8.5-2.6
	c2.2-2.2,3.9-4.8,5.1-7.6c3-6.8,4.8-14.2,5.1-21.6c0.9,10.7-0.5,21.5-4,31.7c1.9-0.6,3.9,0,5.9,0.3s4.2,0.3,5.6-1.1
	c0.9-1,1.4-2.3,1.6-3.6c2-9,2.4-18.3,1.3-27.5c2.3,5,4.7,10,6,15.4s1.6,11.1-0.1,16.3c0.9,0.9,2.4,1,3.3,0.1c0,0,0,0,0.1-0.1
	c0.9-0.9,1.4-2.1,1.5-3.4c0.8-4.6,0-9.2-0.7-13.8c2.6,4.8,3.5,10.4,4.9,15.8s3.7,10.8,8.3,13.9c0,0,3.2,23.8,3,28.1s1.5,3.5,5.3-5.8
	c0.4-0.9,1.9-5.1,2.2-6L262.8,142.3z"/>
<path class="st1" d="M177.9,160.9c-0.5-0.1-1-0.3-1.4-0.7c-1.2-1.5-2.1-3.2-2.9-4.9c-1.6-3.3-3.7-7.5-5.8-8.6l1-1.8
	c2.7,1.5,4.8,5.7,6.6,9.5c0.5,1,1,2,1.4,2.8c-0.1-0.4-0.2-0.9-0.3-1.3c-0.9-4.6-3.1-16.5-2.8-18.4l0.1-0.8l0.8-0.1
	c4.5-0.5,10.7-9.3,15.2-15.7c1.9-2.6,3.5-4.9,4.8-6.4c5.5-6.2,8.8-14,12.1-21.5l2.1-4.9l-0.2,5.4c-0.3,7.2-2.7,14.2-6.8,20.1
	c2.2-0.1,4.4-1,6-2.6c2.1-2.1,3.7-4.5,4.8-7.3c3-6.7,4.7-14,5.1-21.3h2c0.8,10.3-0.4,20.7-3.5,30.5c1.2,0,2.4,0.1,3.6,0.4l1,0.2
	c2.2,0.4,3.8,0.1,4.8-0.8c0.7-0.9,1.2-1.9,1.3-3c2-9,2.4-18.3,1.2-27.4l-0.8-6.2l2.7,5.7c2.5,5,4.6,10.2,6.1,15.6
	c1.5,5.3,1.5,10.9,0.1,16.2c0.1,0,0.2,0.1,0.3,0.1c0.5,0,0.9-0.1,1.2-0.4c0.7-0.8,1.1-1.7,1.2-2.8c0.7-4.3,0-8.7-0.6-13l-0.9-6.2
	l2.7,5c2.1,3.8,3,8,4,12c0.3,1.3,0.6,2.7,1,4c1.8,6.7,4.3,10.9,7.9,13.3l0.4,0.2l0.1,0.4c0.1,1,3.2,23.9,3,28.3c0,0.3,0,0.6,0,0.8
	c1.4-2.2,2.5-4.6,3.4-7c0.3-0.7,0.6-1.5,0.9-2.3l1.9,0.7c-0.3,0.8-0.6,1.6-0.9,2.4c-3.6,8.6-4.9,9.1-6,8.9c-1.3-0.3-1.4-2-1.3-3.6
	c0.2-3.9-2.5-24.2-2.9-27.5c-3.8-2.8-6.5-7.3-8.4-14.2c-0.4-1.3-0.7-2.7-1-4.1s-0.6-2.5-0.9-3.8c0.1,1.9,0,3.9-0.3,5.8
	c-0.2,1.5-0.8,2.8-1.8,3.9c-0.8,0.7-1.8,1.1-2.8,1c-0.8,0-1.6-0.5-2.1-1.1l-0.3-0.4l0.2-0.5c1.5-4.6,1.6-9.9,0.1-15.8
	c-0.9-3.4-2.1-6.7-3.5-9.9c0.4,7.4-0.2,14.9-1.8,22.1c-0.2,1.5-0.8,2.9-1.8,4c-1.5,1.4-3.6,1.9-6.6,1.4l-1.1-0.2
	c-1.4-0.4-2.9-0.4-4.4-0.2l-1.9,0.5l0.6-1.8c2-5.9,3.3-12,3.9-18.2c-0.8,3-1.9,6-3.2,8.9c-1.2,3-3,5.7-5.3,8c-2.5,2.4-6,3.5-9.4,2.9
	l-1.5-0.3l1-1.2c3.1-4,5.3-8.6,6.5-13.4c-2.4,5.6-5.6,10.8-9.5,15.5c-1.2,1.4-2.8,3.6-4.6,6.2c-4.8,6.7-10.6,15-15.8,16.3
	c0.2,2.7,1.6,11.4,2.8,16.9c1.3,4.6,0.5,5.1,0,5.3C178.4,160.8,178.1,160.9,177.9,160.9z"/>
<path class="st10" d="M237.5,155.9c-0.2,0-0.3-0.5-0.2-1s0.3-0.9,0.5-0.9s0.3,0.5,0.2,1S237.7,155.9,237.5,155.9z"/>
<path class="st10" d="M246.2,154c-0.3,0-0.5-0.2-0.6-0.5c-0.1-0.3-0.1-0.6,0.2-0.7c0.2-0.1,0.4,0.2,0.6,0.5S246.4,154,246.2,154z"/>
<path class="st10" d="M241.8,159.4c-0.2,0-0.4-0.4-0.5-1s0-1,0.3-1.1s0.4,0.4,0.5,1S242,159.3,241.8,159.4z"/>
<path class="st10" d="M230.7,158.5c-0.2,0-0.2-0.6,0-1.1s0.4-1,0.7-0.9s0.2,0.6,0,1.1S231,158.5,230.7,158.5z"/>
<path class="st10" d="M191.9,154.8c-0.2,0-0.3-0.5-0.2-1s0.3-0.9,0.5-0.9s0.3,0.5,0.2,1S192.1,154.8,191.9,154.8z"/>
<path class="st10" d="M200.6,152.9c-0.3,0-0.5-0.2-0.6-0.5c-0.1-0.3-0.1-0.6,0.2-0.7c0.2-0.1,0.4,0.2,0.6,0.5
	S200.8,152.9,200.6,152.9z"/>
<path class="st10" d="M196.2,158.3c-0.2,0-0.4-0.4-0.5-1s0-1,0.3-1s0.4,0.4,0.5,1S196.4,158.2,196.2,158.3z"/>
<path class="st10" d="M190.7,160.8c-0.2,0-0.2-0.6,0-1.1s0.4-1,0.7-0.9s0.2,0.6,0,1.1S191,160.8,190.7,160.8z"/>
<path class="st10" d="M183.5,154c-0.2,0-0.2-0.6,0-1.1s0.4-1,0.7-0.9s0.2,0.6,0,1.1S183.8,154,183.5,154z"/>
<path class="st11" d="M246.9,75.8c-8.4-5.7-15.3-12.2-35.9-12.2c-15.9,0-27.5,9.2-40,20.1c-16.1,14-26.2,36.8-19.5,57l0,0l6.8,2.6
	l6.4-15.5c11-24,34.1-44.2,58.8-45.4c2.3-0.1,4.6-0.1,6.9,0.1c16.4,1.7,33.2,31.5,33.2,31.5S266.7,89.1,246.9,75.8z"/>
<path class="st1" d="M159,144.7l-8.1-3.2l-0.1-0.4c-7.3-21.9,4.6-45,19.8-58.1c12.8-11.1,24.6-20.3,40.6-20.3
	c18.6,0,26.3,5.4,33.8,10.6c0.9,0.6,1.8,1.2,2.6,1.8l0,0c20,13.5,17.2,38.9,17.1,39.2l-0.4,3l-1.5-2.7c-0.2-0.3-16.7-29.4-32.4-31
	c-2.2-0.2-4.5-0.2-6.7-0.1c-22.8,1.1-46.1,19.1-57.9,44.8L159,144.7z M152.4,140l5.4,2.1l6-14.6c12.1-26.4,36.1-44.9,59.7-46
	c2.3-0.1,4.7-0.1,7,0.1c13.8,1.4,27.5,21.4,32.2,29.1c0-7.1-1.6-24-16.4-34c-0.9-0.6-1.8-1.2-2.7-1.8c-7.2-5-14.6-10.2-32.6-10.2
	c-15.3,0-26.4,8.6-39.3,19.9C157.3,97.1,145.7,119.1,152.4,140z"/>
<path class="st1" d="M173.4,83.7c-0.4,0.7-0.9,1.4-1.5,2c-0.5,0.6-1.1,1.4-1.8,2.3s-1.4,2-2.2,3.2c-1.9,2.8-3.5,5.7-5.1,8.6
	c-1.8,3.6-3.4,7.4-4.8,11.2c-1.3,3.9-2.3,7.9-3.1,11.9c-0.6,3.3-1,6.6-1.2,9.9c-0.1,1.4-0.1,2.7-0.2,3.9s0,2.1,0,2.9
	c0.1,0.8,0.1,1.7,0,2.5c-0.2-0.8-0.3-1.6-0.3-2.5c0-0.8-0.1-1.8-0.1-2.9v-3.9c0.1-3.4,0.5-6.7,1.1-10.1c0.7-4.1,1.7-8.1,3-12
	c1.4-3.9,3-7.7,4.9-11.3c1.6-3,3.3-5.9,5.3-8.6c0.8-1.2,1.6-2.2,2.3-3.1c0.6-0.8,1.2-1.5,1.9-2.2C172.1,84.9,172.7,84.3,173.4,83.7z
	"/>
<path class="st1" d="M191.4,75.2c-0.7,0.8-1.4,1.4-2.2,2.1c-0.7,0.6-1.6,1.4-2.6,2.4s-2.1,2-3.3,3.3c-2.8,2.9-5.4,6-7.9,9.2
	c-6,7.9-10.9,16.5-14.5,25.7c-1.5,3.8-2.7,7.6-3.8,11.5c-0.5,1.6-0.8,3.2-1.1,4.5s-0.6,2.5-0.7,3.4c-0.1,1-0.4,2-0.6,2.9
	c0-1,0.1-2,0.3-3c0.1-1,0.3-2.1,0.6-3.5s0.5-2.9,1-4.6c0.9-4,2.1-7.8,3.6-11.7c5-13.2,12.7-25.1,22.8-35c1.2-1.2,2.4-2.3,3.4-3.2
	s1.9-1.7,2.6-2.2C189.8,76.3,190.6,75.7,191.4,75.2z"/>
<path class="st2" d="M119.6,257.9c0,0-21.9-3.2-23.5,11.9c-2.4,23.2-28,131.3-29.8,143.5s-9.5,70.5,0,121.8c7.7,41.5,8,60.5,8,60.5
	s32.2,7.2,33.7-4.6C122.6,472.6,117,450,117,450l18-104.1c0.2-1.1,0.1-32.1,0-34.5c-0.5-17.4-5.1-34.5-13.5-49.8L119.6,257.9z"/>
<path class="st2" d="M306.4,258.3c0,0,21.9-3.2,23.5,11.9c2.4,23.2,28,131.2,29.8,143.5s9.5,70.5,0,121.8c-7.7,41.5-8,60.5-8,60.5
	s-32.2,7.2-33.7-4.6c-14.7-118.4-9.1-141-9.1-141l-17.5-82.1c-1.5-8.8-2.6-53.8-0.9-68.3c1-7.6,3.1-15.1,6.5-22L306.4,258.3z"/>
<path class="st12" d="M125.6,257.9c0,0-21.9-3.2-23.5,11.9c-2.4,23.2-28,131.3-29.8,143.5s-9.5,70.5,0,121.8c7.7,41.5,8,60.5,8,60.5
	s32.2,7.2,33.7-4.6C128.6,472.6,123,450,123,450l18-104.1c0.2-1.1,0.1-32.1,0-34.5c-0.5-17.4-5.1-34.5-13.5-49.8L125.6,257.9z"/>
<path class="st12" d="M312.4,258.3c0,0,21.9-3.2,23.5,11.9c2.4,23.2,28,131.2,29.8,143.5s9.5,70.5,0,121.8c-7.7,41.5-8,60.5-8,60.5
	s-32.2,7.2-33.7-4.6c-14.7-118.4-9.1-141-9.1-141l-17.5-82.1c-1.5-8.8-2.6-53.8-0.9-68.3c1-7.6,3.1-15.1,6.5-22L312.4,258.3z"/>
<path class="st1" d="M92.9,598.7c-6.4-0.1-12.7-0.9-18.9-2.2l-0.8-0.2v-0.8c0-0.2-0.4-19.5-8-60.3c-9.7-52.1-1.7-110.9,0-122.1
	c0.7-4.5,4.4-21.3,9.2-42.7c8.1-36.3,19.1-86.1,20.7-100.8c0.3-3.6,2-6.8,4.8-9c7.1-5.5,19.3-3.9,19.8-3.8l0.5,0.1l2.2,4.1
	c8.4,15.5,13.1,32.7,13.6,50.3c0.1,2.1,0.2,33.4,0,34.7l-18,104c0.6,2.7,4.9,28.5-9.1,141.1c-0.2,2-1.3,3.8-3,4.9
	C102.9,598,98,598.7,92.9,598.7z M75.2,594.7c4,0.8,22.8,4.3,29.5-0.4c1.2-0.8,2-2.1,2.2-3.5c14.5-116.4,9.1-140.4,9.1-140.6V450
	v-0.2l18-104.1c0.1-1.2,0.1-31.4,0-34.3c-0.5-17.3-5.1-34.2-13.4-49.4l-1.7-3.2c-2.3-0.2-12.1-1-17.8,3.4c-2.4,1.8-3.9,4.6-4.1,7.6
	c-1.6,14.8-12.6,64.6-20.7,101c-4.7,21.3-8.5,38.1-9.1,42.6c-1.7,11.2-9.6,69.7,0,121.5C74,571.3,75.1,590.7,75.2,594.7z"/>
<path class="st1" d="M333.1,599.1c-5.1,0-10-0.7-13-2.8c-1.7-1.1-2.8-2.9-3-4.9c-14-112.3-9.7-138.3-9.1-141.1l-17.5-81.9
	c-1.6-8.8-2.7-54-0.9-68.6c1-7.7,3.2-15.3,6.5-22.3l9.6-20.2l0.5-0.1c0.5-0.1,12.7-1.8,19.8,3.8c2.8,2.2,4.6,5.5,4.8,9
	c1.5,14.7,12.6,64.4,20.7,100.8c4.7,21.3,8.5,38.2,9.2,42.7c1.7,11.2,9.6,70,0,122.1c-7.6,40.9-8,60.2-8,60.3v0.8l-0.8,0.2
	C345.8,598.3,339.4,599,333.1,599.1z M307.1,259.2l-9.1,19.2c-3.3,6.8-5.4,14.1-6.4,21.7c-1.8,14.5-0.7,59.4,0.9,68l17.6,82.3
	l-0.1,0.2c0,0.2-5.4,24.2,9.1,140.6c0.2,1.4,1,2.7,2.2,3.5c6.7,4.7,25.5,1.2,29.5,0.4c0.2-4,1.2-23.4,8-59.9
	c9.6-51.8,1.7-110.3,0-121.5c-0.7-4.4-4.4-21.2-9.1-42.5c-8.1-36.4-19.1-86.2-20.7-101c-0.2-3-1.7-5.8-4.1-7.6
	C319.2,258.3,309.5,259,307.1,259.2L307.1,259.2z"/>
</svg>
