<?xml version="1.0" encoding="utf-8"?>
<!-- Generator: Adobe Illustrator 25.4.1, SVG Export Plug-In . SVG Version: 6.00 Build 0)  -->
<svg version="1.1" id="Cliente_14" xmlns="http://www.w3.org/2000/svg" xmlns:xlink="http://www.w3.org/1999/xlink" x="0px" y="0px"
	 viewBox="0 0 432 589" style="enable-background:new 0 0 432 589;" xml:space="preserve">
<style type="text/css">
	.st0{fill:#FFCCBC;}
	.st1{fill:#59316D;}
	.st2{fill:#FFFFFF;}
	.st3{fill:#FFDEA9;}
	.st4{fill:#263238;}
	.st5{fill:#C8CACB;}
	.st6{fill:#BBBDBF;}
	.st7{fill:#FFAC90;}
	.st8{fill:#E5656F;}
</style>
<path class="st0" d="M157.1,303.8c1.5-7.3,1.9-12.6,0.7-19.1c-3.1-16.2-22.3-22.1-31-20.4c-17.6,3.3-22.3,14.7-24,21.8
	c-1,5.3-3.8,16.8-4.8,22.1l-14.1,75.5c-2.4,12.6-4.7,25.2-7,37.8c-2,10.8-5.8,22.1-5.8,33.1c-0.8,10.9,6.5,19.3,17.7,23.1
	c7.8,2.7,18.1-0.5,23.6-6.8c5.1-5.7,5.6-9.3,7.2-15.5c6.7-26.7,12.5-53.7,19.2-80.3c3.6-14.6,8-29.8,11.7-44.7
	C152.6,321.9,155.2,312.7,157.1,303.8z"/>
<path class="st0" d="M119.6,639c-0.3-6.3-2.2-12.4-5.6-17.7c-4.8-7.2-8.6-12.3-8.6-12.3s4.2-42.6,9.8-77.2c1.9-12,3.1-24.1,3.4-36.2
	l0.3-39.3c-0.1-1.8-0.2-3.7-0.5-5.5c-0.9-8.8-11.1-18.6-24.3-18.1c-10.4,0.4-22,7.9-23,20.5l-0.8,29.4
	c-1.6,29.1,8.9,105.8,11.4,126.3c-0.5,1.2-0.7,2.5-0.8,3.8v0.4c0,0-6.4,9.3-4.2,33.2c2.9,30.8,19.4,43.9,29.4,42.3
	c7.9-1.2-4.6-18.9-5-35.2c0.2-1.8,4.8-13.7,5.1-16.3l6,20.4c1.1,1.6,3.1,2.3,5,1.8c2-0.5,3.4-2.3,3.3-4.4L119.6,639z"/>
<path class="st1" d="M104.4,689.7c-3.6,0-7.5-1.5-11.3-4.5c-9.4-7.3-15.8-21.5-17.4-38.9c-2.1-22.1,3.2-31.9,4.2-33.6v-0.1
	c0.1-1.3,0.3-2.6,0.8-3.9c-0.3-2.6-0.8-6.1-1.3-10.3c-3.7-29.4-11.5-90.5-10.1-115.9l0.8-29.8c0.2-7.1,1.9-14.3,3.6-21.4
	c0.8-3.3,1.6-6.8,2.2-10.1L97,307.9c0.5-2.7,1.5-7,2.4-11.1s1.9-8.4,2.4-11c3-12.5,11.4-20,24.8-22.6c9.6-1.8,29.1,4.9,32.2,21.2
	l0,0c1.3,6.9,0.7,12.6-0.7,19.5c-1.2,5.9-2.8,12-4.4,17.9c-0.8,2.9-1.5,5.9-2.2,8.7c-1.9,7.7-4,15.6-6.1,23.3
	c-1.9,7.1-3.9,14.4-5.6,21.4c-3.3,13.3-6.5,27-9.6,40.2s-6.2,26.8-9.6,40.1l-0.7,2.8l-0.3,37.1c-0.4,12.2-1.5,24.3-3.5,36.3
	c-5.2,32.4-9.3,72.4-9.7,76.8c0.9,1.2,4.3,5.9,8.4,12c3.5,5.4,5.5,11.7,5.8,18.2l0.9,15.9c0.1,2.5-1.6,4.8-4,5.4
	c-2.3,0.6-4.7-0.3-6.1-2.2c-0.1-0.1-0.1-0.2-0.1-0.3l-5-17c-0.6,1.9-1.4,4.1-2.1,6.3c-0.9,2.7-1.9,5.5-2,6.3
	c0.2,7,2.7,14.5,4.7,20.4c2.2,6.6,3.8,11.3,2.2,14c-0.6,1-1.6,1.6-2.8,1.7C105.7,689.6,105.1,689.7,104.4,689.7z M129.7,265
	c-0.9,0-1.9,0.1-2.8,0.2c-12.8,2.4-20.3,9.3-23.2,21c-0.5,2.6-1.4,6.9-2.4,11s-1.9,8.4-2.4,11L77.9,421.6c-0.6,3.4-1.4,6.8-2.2,10.2
	c-1.6,6.9-3.3,14.1-3.5,21v0.4l-0.8,29.4c-1.4,25.3,6.3,86.3,10,115.6c0.6,4.3,1,7.9,1.3,10.6c0,0.2,0,0.3-0.1,0.5
	c-0.4,1.1-0.7,2.3-0.7,3.5v0.4c0,0.2-0.1,0.4-0.2,0.5c-0.1,0.1-6.2,9.4-4,32.5c1.6,16.9,7.7,30.5,16.6,37.5c3.9,3,8.1,4.5,11.6,3.9
	c0.6,0,1.1-0.3,1.4-0.8c1.1-1.8-0.6-6.9-2.4-12.3c-2.1-6.1-4.6-13.8-4.8-21.1c0-0.1,0-0.1,0-0.2c0.6-2.3,1.3-4.6,2.1-6.8
	c1.2-3.1,2.2-6.3,3-9.5c0.1-0.5,0.4-0.8,0.9-0.9c0.5,0,0.9,0.3,1,0.7l6,20.3c0.9,1.2,2.4,1.7,3.8,1.3c1.5-0.4,2.6-1.8,2.6-3.3
	l-0.9-15.9c-0.3-6.1-2.2-12-5.5-17.2c-4.7-7.1-8.6-12.2-8.6-12.3c-0.2-0.2-0.2-0.4-0.2-0.7c0-0.4,4.3-43,9.8-77.3
	c1.9-11.9,3.1-24,3.4-36l0.3-37.2c0-0.1,0-0.2,0-0.2l0.7-3c3.3-13.3,6.5-26.9,9.5-40s6.3-26.9,9.6-40.2c1.8-7,3.7-14.4,5.6-21.5
	c2.1-7.6,4.2-15.5,6.1-23.2c0.7-2.8,1.5-5.7,2.2-8.7c1.5-5.9,3.1-12,4.3-17.8c1.4-6.7,2-12.1,0.7-18.8l0,0
	C154,270.5,138.4,265,129.7,265z"/>
<path class="st0" d="M276.5,305.8c-1.4-7.3-1.8-12.7-0.5-19.1c3.2-16.1,22.5-21.9,31.2-20.1c17.6,3.5,22.1,14.9,23.8,22
	c0.9,5.3,3.6,16.8,4.6,22.1c4.5,25.2,9,50.4,13.4,75.6l6.7,37.8c1.9,10.8,5.6,22.2,5.5,33.2c0.8,10.9-6.7,19.2-17.9,23
	c-7.8,2.6-18.1-0.6-23.6-7c-5-5.8-5.5-9.3-7-15.6c-6.4-26.7-12-53.8-18.5-80.4c-3.5-14.6-7.8-29.9-11.3-44.8
	C280.8,323.9,278.2,314.6,276.5,305.8z"/>
<path class="st0" d="M311.1,641.2c0.4-6.3,2.4-12.4,5.8-17.6c4.9-7.2,8.8-12.2,8.8-12.2s-3.8-42.7-9.1-77.3
	c-1.8-12-2.9-24.1-3.1-36.2v-39.3c0.1-1.8,0.3-3.7,0.5-5.5c1-8.8,11.3-18.5,24.5-17.9c10.4,0.5,22,8.1,22.8,20.7l0.5,29.4
	c1.3,29.1-9.8,105.7-12.5,126.2c0.5,1.2,0.7,2.5,0.8,3.8v0.4c0,0,6.4,9.4,3.9,33.2c-3.2,30.8-19.8,43.7-29.7,42
	c-7.9-1.3,4.8-18.9,5.3-35.2c-0.2-1.8-4.7-13.8-5-16.4l-6.2,20.4c-1.1,1.6-3.1,2.3-5,1.8c-2-0.5-3.4-2.3-3.3-4.4L311.1,641.2z"/>
<path class="st1" d="M326,692c-0.7,0-1.3,0-2-0.2c-1.2-0.1-2.2-0.8-2.8-1.8c-1.6-2.7,0.1-7.4,2.4-13.9c2.1-6,4.6-13.4,4.9-20.4
	c-0.1-0.8-1.1-3.6-2-6.3c-0.8-2.2-1.5-4.5-2.1-6.4l-5.2,17c0,0.1-0.1,0.2-0.1,0.3c-1.4,1.9-3.8,2.8-6.1,2.2c-2.5-0.6-4.1-2.9-4-5.4
	l1.1-15.9c0.4-6.5,2.4-12.7,6-18.1c4.2-6.1,7.6-10.8,8.5-12c-0.4-4.3-4.1-44.4-9.1-76.8c-1.8-12-2.9-24.2-3.1-36.4v-37.2l-0.7-2.8
	c-3.2-13.4-6.3-27-9.2-40.2s-6-26.9-9.2-40.3c-1.7-7-3.6-14.4-5.4-21.5c-2-7.7-4-15.6-5.9-23.3c-0.7-2.8-1.4-5.7-2.2-8.7
	c-1.5-5.9-3-12-4.2-18c-1.4-6.9-1.9-12.6-0.5-19.5l1,0.2l-1-0.2c3.3-16.3,22.8-22.8,32.4-20.9c13.4,2.7,21.7,10.3,24.6,22.7
	c0.5,2.7,1.4,7,2.3,11.1s1.8,8.4,2.3,11.1l20.1,113.5c0.6,3.3,1.4,6.8,2.1,10.1c1.6,7,3.2,14.3,3.4,21.5v0.1c0,0.1,0,0.2,0,0.3
	l0.5,29.5c1.2,25.4-7.1,86.4-11.1,115.8c-0.6,4.2-1,7.7-1.4,10.3c0.4,1.3,0.7,2.6,0.8,3.9v0.1c1,1.7,6.2,11.5,3.9,33.6
	c-1.8,17.4-8.3,31.5-17.7,38.7C333.5,690.5,329.5,692,326,692z M324.5,638.4h0.1c0.5,0,0.8,0.4,0.9,0.9c0.8,3.2,1.7,6.4,2.9,9.6
	c0.8,2.2,1.5,4.5,2.1,6.8c0,0.1,0,0.1,0,0.2c-0.2,7.3-2.9,15-5,21.1c-1.9,5.4-3.6,10.4-2.5,12.3c0.3,0.5,0.8,0.8,1.4,0.8
	c3.4,0.6,7.7-0.8,11.6-3.8c9-6.9,15.2-20.5,17-37.3c2.4-23.1-3.7-32.5-3.7-32.6c-0.1-0.2-0.2-0.3-0.2-0.5v-0.4
	c0-1.2-0.3-2.4-0.7-3.5c-0.1-0.2-0.1-0.3,0-0.5c0.3-2.7,0.8-6.2,1.4-10.5c4-29.3,12.2-90.2,11.1-115.5l-0.5-29.7
	c-0.2-7-1.8-14.2-3.4-21.1c-0.8-3.4-1.5-6.8-2.1-10.2l-20.1-113.5c-0.5-2.6-1.4-6.9-2.3-11s-1.8-8.4-2.3-11.1
	c-2.8-11.7-10.3-18.6-23-21.2c-7.5-1.5-26.8,3.3-30,19.4l0,0c-1.3,6.6-0.8,12.1,0.5,18.8c1.1,5.9,2.7,12,4.2,17.9
	c0.8,3,1.5,5.9,2.2,8.7c1.8,7.7,3.9,15.6,5.9,23.3c1.8,7.1,3.7,14.4,5.5,21.5c3.2,13.4,6.3,27.1,9.2,40.3s6,26.8,9.2,40.1l0.7,3
	c0,0.1,0,0.2,0,0.2v37.2c0.3,12.1,1.3,24.1,3.1,36.1c5.2,34.3,9.1,76.9,9.1,77.4c0,0.2-0.1,0.5-0.2,0.7c0,0-3.9,5.2-8.7,12.2
	c-3.4,5.1-5.3,11-5.7,17.1l-1.1,15.8c-0.1,1.6,1,3,2.5,3.4c1.4,0.4,2.9-0.1,3.8-1.2l6.2-20.2C323.7,638.6,324,638.4,324.5,638.4z"/>
<path class="st2" d="M304.7,346.9c13.8-30.6,33.9-63.8,15.1-78.1c-13.6-10.4-28-13.9-50.8-18.4c-13.4-2.7-18.7-4.9-28.4-5.6
	c1.1,8.9-9.2,15.4-17.1,16.7c-3.1,0.5-6.3,0.9-9.4,1c-24-3.5-16.4-16.5-16.4-16.5c-10.6,0.9-21.2,2.3-31.7,4.4
	c-22.8,4.5-40.6,4.1-56.8,20.8c-12.4,12.9,0,36.1,7.8,48c4.9,7.3,11,14,14.8,21.8c4.4,8.9,7.1,52.8,10,62.2
	c3.6,11.8-2.8,49.5-8.1,86c-1.3,8.7-22.9,93.3-17.1,109.9c11.5,8.2,34,19.5,47.1,22.9c66.3,16.8,157.2-18.7,157.2-18.7
	c1.7-42.5-25.7-120.6-29-147.1C290.3,442.8,298.3,361.3,304.7,346.9z"/>
<path class="st2" d="M304.7,346.9c13.8-30.6,33.9-63.8,15.1-78.1c-13.6-10.4-28-13.9-50.8-18.4c-13.4-2.7-18.7-4.9-28.4-5.6l-43,1.2
	c-10.6,0.9-21.2,2.3-31.6,4.4c-22.8,4.5-40.6,4.1-56.8,20.8c-12.4,12.9,0,36.1,7.8,48c4.9,7.3,11,14,14.8,21.8
	c4.4,8.9,7.1,52.8,10,62.2c3.6,11.8-2.8,49.5-8.1,86c-1.3,8.7-22.9,93.3-17.1,109.9c11.5,8.2,34,19.5,47.1,22.9
	c66.3,16.8,157.2-18.7,157.2-18.7c1.7-42.5-25.7-120.6-29-147.1C290.3,442.8,298.3,361.3,304.7,346.9z"/>
<path class="st3" d="M310.7,346.9c13.8-30.6,33.9-63.8,15.1-78.1c-13.6-10.4-28-13.9-50.8-18.4c-13.4-2.7-18.7-4.9-28.4-5.6l-43,1.2
	c-10.6,0.9-21.2,2.3-31.6,4.4c-22.8,4.5-40.6,4.1-56.8,20.8c-12.4,12.9,0,36.1,7.8,48c4.9,7.3,11,14,14.8,21.8
	c4.4,8.9,7.1,52.8,10,62.2c3.6,11.8-2.8,49.5-8.1,86c-1.3,8.7-22.9,93.3-17.1,109.9c11.5,8.2,34,19.5,47.1,22.9
	c66.3,16.8,157.2-18.7,157.2-18.7c1.7-42.5-25.7-120.6-29-147.1C296.3,442.8,304.3,361.3,310.7,346.9z"/>
<path class="st1" d="M203.4,627.4c-13.4,0.1-26.9-1.4-39.9-4.5c-13.5-3.4-36.2-15-47.5-23c-0.2-0.1-0.3-0.3-0.4-0.5
	c-4.7-13.4,7.9-69.4,14-96.3c1.6-7.2,2.8-12.3,3.1-14.1c0.6-4.1,1.2-8.2,1.8-12.3c4.9-32.4,9.4-63,6.3-73.2
	c-1.2-4-2.4-13.8-3.7-25.1c-1.8-15-3.7-31.9-6.2-37s-5.9-9.6-9.3-14.1c-1.9-2.5-3.8-5-5.5-7.6c-6.8-10.2-21.1-35.4-7.7-49.2
	c13.3-13.7,27.8-16.1,44.6-18.8c4.1-0.7,8.3-1.4,12.7-2.2c10.5-2.1,21.2-3.5,31.9-4.4l43-1.2c5.6,0.5,11.1,1.4,16.5,2.9
	c3.4,0.8,7.2,1.7,12.1,2.7c22.6,4.5,37.3,8,51.2,18.6c16.7,12.7,3.9,39.7-8.5,65.8c-2.1,4.5-4.3,9.1-6.3,13.5l0,0
	c-6.4,14.1-14.3,95.4-12.6,108.6c1.2,9.1,5.2,24.5,9.9,42.3c9,34.3,20.2,77,19.2,105c0,0.4-0.3,0.8-0.6,0.9
	C320.7,604.4,261,627.4,203.4,627.4z M117.4,598.4c11.2,7.9,33.3,19.2,46.5,22.5c62.5,15.8,148-15.4,156.1-18.4
	c0.9-27.7-10.2-69.8-19.1-103.7c-4.7-17.9-8.8-33.3-9.9-42.6c-1.7-13.3,6.4-95.4,12.8-109.7c2-4.5,4.2-9.1,6.3-13.6
	c12.6-26.5,24.5-51.6,9.1-63.4c-13.6-10.4-28.1-13.8-50.4-18.2c-5-1-8.8-1.9-12.2-2.7c-5.2-1.4-10.6-2.4-16-2.9l-42.9,1.2
	c-10.6,0.9-21.1,2.3-31.6,4.4c-4.4,0.9-8.7,1.6-12.7,2.2c-17.2,2.8-30.7,5-43.5,18.2c-12.4,12.8,1.4,36.9,8,46.7
	c1.7,2.6,3.6,5.1,5.4,7.5c3.4,4.5,6.9,9.2,9.5,14.4c2.6,5.3,4.5,21.7,6.4,37.6c1.2,10.8,2.4,20.9,3.6,24.8
	c3.2,10.7-1.4,41.5-6.2,74.1c-0.6,4.1-1.2,8.2-1.8,12.3c-0.3,1.9-1.4,7.1-3.1,14.3C125.6,530,113.2,585,117.4,598.4L117.4,598.4z
	 M304.7,346.9L304.7,346.9z"/>
<path class="st4" d="M235.5,80c10.2,1.5-39.5-33.5-75.5,30c-9.7,17.2-7.7,54.7-4.3,82.2c1.3,10.5-3.5,20.6-3.3,29.2
	c41.2-3,53.6-5.7,53.6-5.7c8,0.1,16.1,0.4,24,0c5.8-0.3,6.2-2,16.5,0c15.5,2.9,19.7,3,41.6,5.7c0,0,2.2-2.1-5.2-30.2
	c-6.8-25.5,7.7-62.3-14.6-97.3c-5.1-8.1-12-16.3-22.6-16C242.2,77.8,238.7,78.6,235.5,80z"/>
<path class="st1" d="M151.4,222.4v-1.1c0.1-4,0.7-8.1,1.7-12c1.2-5.5,2.4-11.2,1.7-17.1c-3.4-28.2-5.4-65.4,4.4-82.8
	c28.4-50.1,64.3-38.3,71.3-35.5c0.6,0.3,5.1,2.2,6.8,4.2c2.7-0.9,5.6-1.4,8.4-1.4c11.4-0.4,18.6,8.6,23.6,16.5
	c14.4,22.5,13.6,45.7,13,66.2c-0.4,11.4-0.7,22.2,1.7,31.3c4.9,18.2,6.7,29.6,5,31.2l-0.3,0.3l-0.5-0.1c-6.1-0.8-10.8-1.3-14.7-1.8
	c-10.4-1.2-15.7-1.8-27-4c-7.1-1.4-9.4-1-12.1-0.5c-1.4,0.3-2.8,0.4-4.2,0.5c-6.1,0.3-12.4,0.2-18.4,0.1c-1.9,0-3.7-0.1-5.6-0.1
	c-1.4,0.3-14.9,2.9-53.6,5.7L151.4,222.4z M213.1,72.7c-14.8,0-34.8,7.1-52.2,37.7c-10.1,17.8-7,58.8-4.2,81.6
	c0.8,6.2-0.5,12.1-1.7,17.8c-0.8,3.4-1.4,6.9-1.6,10.5c39.8-3,52.3-5.6,52.4-5.6h0.1h0.1c1.9,0,3.8,0.1,5.7,0.1
	c6,0.1,12.2,0.2,18.2-0.1c1.3-0.1,2.7-0.2,4-0.5c2.9-0.5,5.3-0.9,12.8,0.5c11.2,2.1,16.4,2.7,26.8,3.9c3.8,0.4,8.2,1,13.9,1.6
	c0.2-1.7,0.1-8-5.5-28.9c-2.5-9.4-2.1-20.3-1.8-31.9c0.6-20.2,1.4-43.1-12.7-65.1c-5-7.9-11.5-15.8-21.8-15.5c-2.7,0-5.4,0.5-8,1.4
	c-0.2,0.6-0.8,1.1-2.4,0.9l-3.2-0.5l2.9-1.4l0.2-0.1c-2.1-1.8-8.9-5.5-18.8-6.2C215.4,72.7,214.2,72.7,213.1,72.7z"/>
<path class="st5" d="M216.6,123.9c-26.5,0-42.7-5.7-42.7-9.8h-1c0,6.2,19.6,11.2,43.8,11.2s43.8-5,43.8-11.2h-1
	C259.3,118.2,243,123.9,216.6,123.9z"/>
<path class="st6" d="M216.6,123.9c26.5,0,42.7-5.7,42.7-9.8h-85.4C173.9,118.2,190.1,123.9,216.6,123.9z"/>
<path class="st0" d="M241.2,251.9c1.9,21.1-52.3,12.1-47.3-1.2c5.7-15.2,3.8-52.7,3.8-52.7h40.7C238.4,198,239.1,228.6,241.2,251.9z
	"/>
<path class="st7" d="M239,203.2c-7.9,3.2-13.6,3.2-22.2,2.7c-7.8,0-11.9-1.6-19.1-4c0,0,0.3,15.3,0.2,17.3
	c6.1,6,12.1,12.5,20.9,12.5c8,0,14.7-5.5,20.4-10.2C239.2,221.5,238.9,204.9,239,203.2z"/>
<path class="st1" d="M221.7,265.4c-10.2,0-21.3-3.1-26.3-7.6c-3.3-2.9-3.2-5.7-2.5-7.6c5.5-14.9,3.7-52,3.7-52.3
	c0-0.3,0.1-0.5,0.3-0.7c0.2-0.2,0.4-0.3,0.7-0.3h40.7c0.6,0,1,0.4,1,1c0,0.3,0.8,30.9,2.8,53.8l0,0c0.4,4.8-1.8,8.6-6.5,11
	C231.9,264.6,227,265.4,221.7,265.4z M198.7,199c0.3,6.3,1.3,38.1-3.9,52.1c-0.7,1.8,0,3.6,2,5.4c7,6.2,27.8,9.7,38,4.6
	c4-2,5.8-5,5.4-9c-1.9-20.7-2.7-47.6-2.8-53L198.7,199z"/>
<path class="st0" d="M265.7,153.2c-2.5-0.8-5.2,0.3-6.5,2.6c0.5-6.4,3.7-26.5,3.7-27.5c0-2.4,0-4.4-0.2-6.2
	c-1.7-25-23.4-43.8-48.4-42c-23.7,1.7-42.1,21.4-42.2,45.1c0,2.4,0,7.7,0.1,8.1c-0.1,1.4,1.5,16.1,2.2,21.6
	c-1.3-1.4-3.3-2.1-5.3-1.7c-3.2,0.7-5.5,3.6-5.4,6.9c0,4.6,1.4,9.1,4,12.9c2.8,3.5,6.6,4.8,10,3.8c2,14.6,11.4,28.9,24.9,35.3
	c26.1,12.6,49.8-11.8,54.7-36.3c0,1.2,4,1.5,4.7,1.3C270.7,175.6,275.8,156,265.7,153.2z"/>
<path class="st1" d="M216.9,216.6c-5.1,0-10.2-1.2-14.8-3.5c-13-6.3-22.9-19.9-25.3-35c-3.6,0.5-7.3-1.1-9.9-4.4
	c-2.8-4-4.2-8.7-4.2-13.5c0-3.7,2.5-6.9,6.1-7.8c1.4-0.4,3-0.2,4.3,0.6c-0.8-6.5-2-18.1-1.9-19.5c0-0.4-0.1-6-0.1-8.1
	c0-25.6,20.8-46.3,46.3-46.3c24.3,0,44.5,18.8,46.2,43.1c0.1,1.7,0.2,3.6,0.2,6.2c0,0.4-0.3,2.3-1,7.7s-1.8,12.4-2.3,17
	c1.6-1.1,3.6-1.3,5.5-0.8l0,0c4.2,1.1,6.5,5.1,6.3,10.5c-0.2,6.6-4.4,14.4-10.1,15.4c-1.4,0.1-2.9,0-4.3-0.5
	c-3.5,15.3-13.7,29-26.1,35.2C227.2,215.3,222.1,216.6,216.9,216.6z M177.7,175.8c0.2,0,0.4,0.1,0.6,0.2c0.2,0.2,0.4,0.4,0.4,0.7
	c2,14.9,11.6,28.4,24.3,34.6c8.8,4.4,19.1,4.4,27.9-0.1c12.2-6.1,22.4-20.4,25.4-35.5c0.1-0.5,0.6-0.9,1.1-0.8
	c0.4,0,0.8,0.4,0.9,0.8c1.1,0.4,2.3,0.6,3.6,0.5c4.7-0.9,8.2-7.9,8.5-13.5c0.1-2.1-0.2-7.2-4.9-8.5l0,0c-2.1-0.6-4.3,0.3-5.4,2.2
	c-0.3,0.5-0.9,0.6-1.4,0.3c-0.3-0.2-0.5-0.6-0.5-1c0.3-4,1.7-13.2,2.6-20c0.5-3.6,1-7,1-7.4c0-2.5-0.1-4.4-0.2-6
	c-1.7-24.4-22.9-42.8-47.3-41.1c-23.2,1.6-41.1,20.9-41.2,44.1c0,2.4,0,7.7,0.1,8.1c-0.1,1.4,1.5,15.9,2.2,21.6c0,0.4-0.2,0.8-0.5,1
	c-0.4,0.2-0.8,0.1-1.1-0.2c-1.1-1.2-2.7-1.8-4.3-1.5c-2.8,0.6-4.7,3.1-4.6,5.9c0,4.4,1.3,8.6,3.8,12.2c2.4,3,5.8,4.4,8.9,3.5
	C177.5,175.9,177.6,175.8,177.7,175.8z"/>
<path class="st7" d="M174.3,158c-1.3-1.2-3.8-1.8-4.9,0.1c-0.3,0.5-0.2,1.4,0.4,1.6c0.8,0.2,1.6,0,2.4,0.3c0.8,0.4,1.4,1.1,1.7,2
	c0.5,1.2,0,3.3,1.7,2.4c0.6-0.4,0.9-1,0.9-1.7C176.7,160.9,175.8,159.1,174.3,158z"/>
<path class="st7" d="M263.3,157.1c1.3-1.2,3.8-1.8,4.9,0.1c0.3,0.5,0.2,1.4-0.4,1.6c-0.8,0.2-1.6,0-2.4,0.3c-0.8,0.4-1.4,1.1-1.7,2
	c-0.5,1.2-0.4,4.9-2,4c-0.6-0.4-0.9-1-0.8-1.7C260.7,161,261.6,158.7,263.3,157.1z"/>
<path class="st1" d="M203.4,134.2c-0.6-0.9-1.9-1.1-2.8-0.5c-0.2,0.2-0.4,0.4-0.6,0.6c-0.9,2.1-0.6,4.3-0.5,6.6
	c0.1,2.6,0.1,5.1,0.2,7.6c0,1.2,1.1,2.2,2.3,2.2c1.2,0,2.2-1.1,2.2-2.3c0-2.6,0-5.1,0-7.6C204.2,138.5,204.4,136.4,203.4,134.2z"/>
<path class="st1" d="M236.7,134.2c-0.6-0.9-1.9-1.1-2.8-0.5c-0.2,0.2-0.4,0.4-0.6,0.6c-0.9,2.1-0.6,4.3-0.5,6.6
	c0.1,2.6,0.1,5.1,0.2,7.6c0.1,2.9,4.4,2.8,4.5-0.1c0-2.6,0-5.1,0-7.7C237.4,138.4,237.7,136.3,236.7,134.2z"/>
<path class="st7" d="M218.3,157.4c2,1.3,4,2.7,5.1,4.3c1.2,1.5,1,3.7-0.4,4.9c0,0-0.1,0.1-0.1,0.1c-1.2,0.9-2.6,1.4-4,1.4
	c-1.6,0.1-3.3-0.4-3.9-1.3s0.3-2,1.8-2.2c-1.3-1.4-2.1-3.2-2.1-5.1c-0.1-0.7,0.2-1.3,0.8-1.7C216.1,157.3,217.6,156.9,218.3,157.4z"
	/>
<path class="st1" d="M225.5,163.1c-0.5-2.7-3.9-4.8-7.6-6.4c-0.4-0.2-1.1,0.2-0.8,0.4c1.9,1.6,4.4,3.2,5.3,5.1c0.5,1,0.4,2.2-0.3,3
	c-0.8,0.9-2.1,1.3-3.2,2c-0.8,0.5-0.8,0.8,0.3,0.8C223.3,167.8,225.9,165.1,225.5,163.1z"/>
<path class="st1" d="M207.7,125.2c-0.2,0-0.5-0.1-0.6-0.2c-2.9-2.6-7.3-2.6-10.2,0c-0.4,0.4-1,0.4-1.4-0.1c-0.4-0.4-0.4-1,0.1-1.4
	c0.1,0,6.1-5.6,12.8,0c0.4,0.3,0.5,1,0.1,1.4c0,0,0,0,0,0C208.2,125.1,208,125.2,207.7,125.2z"/>
<path class="st1" d="M241.5,125.2c-0.2,0-0.5-0.1-0.6-0.2c-2.9-2.6-7.3-2.6-10.2,0c-0.4,0.4-1,0.4-1.4-0.1s-0.4-1,0.1-1.4
	c0.1,0,6.1-5.6,12.8,0c0.4,0.4,0.5,1,0.1,1.4C242.1,125.1,241.8,125.2,241.5,125.2L241.5,125.2z"/>
<path class="st4" d="M239.7,82.5c0,0-62.7,39.3-62.7,65.3s-21.2-23.6-21.2-23.6l30.6-34.8l32-12.8L239.7,82.5z"/>
<path class="st4" d="M233.3,81.5c0,0,31.1,49.7,26.4,69.3s13.7-25.5,13.7-25.5l-15.3-36.5L233.3,81.5z"/>
<path class="st1" d="M174.7,156.3c-1.7,0-3.4-1.8-4.5-3.2c-0.4-0.4-0.3-1,0.1-1.4c0.4-0.4,1-0.3,1.4,0.1c0,0,0,0.1,0.1,0.1
	c1.8,2.2,2.8,2.6,3.1,2.5c0.1,0,1.2-0.6,1.3-6.5c0-22.4,45.2-54.2,59-63.4c0.4-0.3,1.1-0.3,1.4,0.2c0.3,0.4,0.3,1.1-0.2,1.4
	c0,0-0.1,0.1-0.2,0.1c-13.6,9.1-58.1,40.4-58.1,61.8c0,5.2-0.8,7.8-2.6,8.4C175.2,156.2,174.9,156.3,174.7,156.3z"/>
<path class="st1" d="M259.2,156.7L259.2,156.7c-0.4,0-0.7-0.2-0.9-0.5c-0.4-0.5-0.6-1.2,0.5-5.7c3.9-16-17.4-53.7-24-64.8
	c-0.2-0.5,0-1.1,0.5-1.3c0.4-0.2,0.9-0.1,1.2,0.3c8.6,14.5,28.2,50,24.3,66.3c-0.4,1.3-0.6,2.7-0.7,4.1c0.1,0.2,0.2,0.4,0.2,0.7
	C260.2,156.3,259.7,156.7,259.2,156.7z"/>
<path class="st4" d="M240.2,81.5c-1.4,0-4.6-1.7-4.7-1.5c0,0-34.3-26.6-71.8,28.3"/>
<path class="st8" d="M218.2,191.7c-1.4,3.8-5.3,6-9.3,5.4c-5.6-1-8.4-4.6-7.3-8.5c0.5-1.9,4.2-4.4,9.9-3.4S218.8,189.8,218.2,191.7z
	"/>
<g id="Caminho_6549">
	<path class="st1" d="M201.7,185.4c0.7-0.2,2.1,3.5,7.1,5.1s9.5,0,9.9,0.4s-0.8,1-2.9,1.6c-2.7,0.7-5.5,0.6-8.2-0.2
		c-2.4-0.7-4.4-2.2-5.7-4.3C201.2,186.6,201.3,185.5,201.7,185.4z"/>
</g>
<path class="st2" d="M93.2,289.9c0,0-11.1,68.8-10.2,84.3s20.8-42.1,20.8-42.1L93.2,289.9z"/>
<path class="st2" d="M336.8,286.3c0,0,11.1,68.8,10.2,84.2s-20.8-42.1-20.8-42.1L336.8,286.3z"/>
<path class="st3" d="M99.2,289.9c0,0-11.1,68.8-10.2,84.3s20.8-42.1,20.8-42.1L99.2,289.9z"/>
<path class="st3" d="M342.8,286.3c0,0,11.1,68.8,10.2,84.2s-20.8-42.1-20.8-42.1L342.8,286.3z"/>
<path class="st1" d="M84.2,377.9c-0.1,0-0.3,0-0.4,0c-1.6-0.2-1.8-2.6-1.8-3.6c-0.9-15.4,9.7-81.7,10.2-84.5c0-0.6,0.4-1,1-1
	c0.6,0,1,0.4,1,1l10.7,42.1c0.1,0.2,0.1,0.4,0,0.6c0,0.1-4,11.5-8.4,22.6C88.1,376.2,85.6,377.9,84.2,377.9z M84.4,375.9L84.4,375.9
	z M93.4,294.9c-2.5,15.9-10.1,66.4-9.4,79.2c0,0.5,0.1,1.1,0.2,1.6c2.9-2.1,11.6-23.4,18.6-43.7L93.4,294.9z"/>
<path class="st1" d="M345.8,374.2c-1.3,0-3.9-1.7-12.2-22.8c-4.4-11.2-8.4-22.5-8.4-22.6c-0.1-0.2-0.1-0.4,0-0.6l10.7-42.1
	c0.1-0.5,0.7-0.8,1.2-0.7c0.4,0.1,0.7,0.4,0.7,0.8c0.5,2.8,11.1,69.1,10.2,84.5c-0.1,1-0.2,3.3-1.8,3.6
	C346,374.2,345.9,374.2,345.8,374.2z M327.2,328.4c7,20.2,15.7,41.6,18.6,43.7c0.1-0.5,0.2-1,0.2-1.6c0.8-12.8-6.9-63.3-9.4-79.2
	L327.2,328.4z"/>
<path class="st2" d="M133.1,262.7c0,0-28.8-26.6-39.6,25c-10.3,77.8,34.4,103.6,45.2,103.6c3.5,0,5.6-9.2,7-23.1
	C149.9,327.2,148.7,301,133.1,262.7L133.1,262.7z"/>
<path class="st2" d="M296.6,262.4c0,0,27.8-27.7,40.5,23.5c6.5,50.2-1.2,99.4-41.1,105.3c-3.5,0.5-6-9-7.9-22.8
	C282.2,327.5,282.5,301.3,296.6,262.4L296.6,262.4z"/>
<path class="st3" d="M139.1,262.7c0,0-28.8-26.6-39.6,25c-10.3,77.8,34.4,103.6,45.2,103.6c3.5,0,5.6-9.2,7-23.1
	C155.9,327.2,154.7,301,139.1,262.7L139.1,262.7z"/>
<path class="st3" d="M302.6,262.4c0,0,27.8-27.7,40.5,23.5c6.5,50.2-1.2,99.4-41.1,105.3c-3.5,0.5-6-9-7.9-22.8
	C288.2,327.5,288.5,301.3,302.6,262.4L302.6,262.4z"/>
<path class="st1" d="M138.7,392.4c-4.5,0-15.6-4.5-26.2-16.5c-12.6-14.3-26.2-41.2-20-88.3c0.9-4.6,2.2-9.1,3.8-13.4
	c3.5-9.5,8.1-15.3,14-17.9c4.2-1.9,9.4-1.8,14.5,0.2c3.4,1.2,6.4,3.3,8.5,6.2l0,0c0.3,0.4,0.5,0.7,0.8,1.1c2.1,3.4,3.7,7.1,4.9,10.9
	c1.6,4.9,3.1,10.2,4.8,16.7c3,12,4.7,24.2,5,36.6c0.2,13.5-0.5,27-2,40.4C145.1,385.2,142.7,392.4,138.7,392.4L138.7,392.4z
	 M117,256.9c-2,0-4,0.4-5.9,1.2c-5.3,2.4-9.6,7.9-12.9,16.8c-1.6,4.3-2.8,8.6-3.7,13.1c-6.1,46.2,7.2,72.6,19.5,86.6
	c9.6,10.9,20.2,15.8,24.6,15.8l0,0c1.4,0,4-2.9,6-22.2c1.2-11.8,2.4-25.8,2-40.1c-0.3-12.2-2-24.3-4.9-36.2
	c-1.6-6.5-3.1-11.8-4.7-16.6c-1.2-3.7-2.7-7.2-4.7-10.5c-0.2-0.3-0.4-0.7-0.7-1l0,0c-2-2.6-4.6-4.5-7.7-5.5
	C121.8,257.4,119.4,256.9,117,256.9z"/>
<path class="st1" d="M295.7,392.2c-0.7,0-1.3-0.2-1.8-0.7c-2.7-2-4.8-9.1-6.8-23c-2.3-16-4.4-34.9-3.2-53.6
	c0.6-9.2,2.1-18.4,4.2-27.4l0.4-1.6c1.1-4.6,2.2-9.5,3.8-14l0.3-0.9c0.9-3,2.2-6,3.7-8.7l0,0c1.1-1.9,2.6-3.6,4.5-4.8
	c2.9-1.8,6.2-2.9,9.7-3.3c10.8-1.6,17.5,7.1,20.5,12.4c3.8,6.6,5.9,14.1,7.2,19.1v0.1c3.8,29.6,7.3,99.2-42,106.4
	C295.9,392.2,295.8,392.2,295.7,392.2z M312.9,256c-0.8,0-1.5,0.1-2.2,0.2c-3.1,0.4-6.2,1.4-8.9,3c-1.6,1.1-2.9,2.5-3.9,4.2l0,0
	c-1.5,2.6-2.6,5.4-3.5,8.3l-0.3,0.9c-1.5,4.5-2.7,9.3-3.8,13.9L290,288c-2.2,8.9-3.6,18-4.2,27.1c-1.2,18.5,1,37.3,3.2,53.2
	c1.8,12.8,3.8,20.1,6,21.7c0.2,0.2,0.5,0.3,0.8,0.2c47.5-6.9,44-75.1,40.3-104.1c-1.2-4.9-3.3-12.2-6.9-18.6
	C326.6,263,321.2,256,312.9,256z M297.1,262.8L297.1,262.8z"/>
</svg>
