<?xml version="1.0" encoding="utf-8"?>
<!-- Generator: Adobe Illustrator 25.4.1, SVG Export Plug-In . SVG Version: 6.00 Build 0)  -->
<svg version="1.1" id="Escola" xmlns="http://www.w3.org/2000/svg" xmlns:xlink="http://www.w3.org/1999/xlink" x="0px" y="0px"
	 viewBox="0 0 200 200" style="enable-background:new 0 0 200 200;" xml:space="preserve">
<style type="text/css">
	.st0{fill:#5A316B;}
</style>
<g>
	<path class="st0" d="M176.2,46.7h-10.1v-7.5c0-1.5-1.2-2.7-2.6-2.8c-1.5-0.2-34.1-3.2-59.7,9.9c-26-13.8-58.4-10.1-59.9-9.9
		c-1.4,0.1-2.5,1.4-2.4,2.8v7.5H31.4c-1.5,0-2.8,1.3-2.8,2.8v106.3c0,1.5,1.3,2.8,2.8,2.8H176c1.5,0,2.8-1.3,2.8-2.8V49.5
		c0.2-1.4-0.8-2.6-2.2-2.8C176.5,46.7,176.3,46.7,176.2,46.7z M160.5,139.5c-27.3-0.6-45.8,7.1-53.9,11.4V51.2
		c20.2-10.1,45.9-9.7,53.9-9.4V139.5z M101,51.2v100.1c-16-7.6-33.5-11.5-51.3-11.6h-2.6v-98C55.2,41.3,80.4,40.3,101,51.2z
		 M34.2,52.3h7.3v90.2c0,0.8,0.4,1.5,0.9,2.1c0.6,0.5,1.3,0.8,2.1,0.7c15.9-0.6,31.7,2,46.6,7.7H34.2L34.2,52.3z M173.4,153h-58
		c9.5-3.9,25.8-8.8,47.7-7.7c0.8,0,1.5-0.2,2.1-0.7c0.6-0.5,0.9-1.3,0.9-2.1V52.3h7.3L173.4,153z"/>
	<path class="st0" d="M59.2,63.9c5.4,0.3,17.9,1.4,27.4,5c1.5,0.5,3.1-0.2,3.6-1.7c0.1-0.3,0.2-0.6,0.2-1l0,0c0-1.2-0.7-2.2-1.8-2.6
		c-10.3-3.8-23.3-5-29-5.3c-1.5-0.1-2.9,1-3,2.6c0,0,0,0.1,0,0.1l0,0C56.4,62.5,57.6,63.8,59.2,63.9C59.2,63.9,59.2,63.9,59.2,63.9z
		"/>
	<path class="st0" d="M59.2,82.8c5.4,0.3,17.9,1.4,27.4,5c1.5,0.5,3.1-0.2,3.6-1.7c0.1-0.3,0.2-0.6,0.2-1l0,0c0-1.2-0.7-2.2-1.8-2.7
		c-10.3-3.8-23.3-5-29-5.3c-1.5-0.1-2.9,1-3,2.6c0,0,0,0.1,0,0.1l0,0C56.4,81.4,57.6,82.7,59.2,82.8z"/>
	<path class="st0" d="M59.2,101.8c5.4,0.3,17.9,1.4,27.4,5c1.4,0.5,3-0.2,3.6-1.7c0.1-0.3,0.2-0.6,0.2-1l0,0c0-1.2-0.7-2.2-1.8-2.6
		c-10.3-3.8-23.3-5-29-5.3c-1.5-0.1-2.9,1-3,2.6c0,0,0,0.1,0,0.1l0,0C56.4,100.5,57.6,101.8,59.2,101.8
		C59.2,101.8,59.2,101.8,59.2,101.8z"/>
	<path class="st0" d="M59.2,120.7c5.4,0.3,17.9,1.4,27.4,5c1.5,0.5,3.1-0.2,3.6-1.7c0.1-0.3,0.2-0.6,0.2-1l0,0
		c0-1.2-0.7-2.2-1.8-2.6c-10.3-3.8-23.3-5-29-5.3c-1.5-0.1-2.9,1.1-3,2.6c0,0,0,0.1,0,0.1l0,0C56.4,119.4,57.6,120.7,59.2,120.7
		C59.2,120.7,59.2,120.7,59.2,120.7z"/>
	<path class="st0" d="M117.3,66.2L117.3,66.2c0,1.6,1.2,2.8,2.7,2.8c0.3,0,0.7-0.1,1-0.2c9.6-3.6,22-4.7,27.5-5
		c1.5-0.1,2.6-1.4,2.6-2.9v-0.1c0-1.5-1.3-2.7-2.9-2.7c0,0-0.1,0-0.1,0c-5.7,0.3-18.7,1.5-29,5.3C118,64,117.3,65,117.3,66.2z"/>
	<path class="st0" d="M117.3,85.1L117.3,85.1c0,1.6,1.2,2.8,2.7,2.8c0.3,0,0.7-0.1,1-0.2c9.6-3.6,22-4.7,27.5-5
		c1.5-0.1,2.7-1.4,2.6-2.9v-0.1c0-1.5-1.3-2.7-2.9-2.7c0,0-0.1,0-0.1,0c-5.7,0.3-18.7,1.5-29,5.3C118,82.9,117.3,83.9,117.3,85.1z"
		/>
	<path class="st0" d="M117.3,104L117.3,104c0,1.6,1.2,2.8,2.8,2.8c0.3,0,0.6-0.1,0.9-0.2c9.6-3.6,22-4.7,27.5-5
		c1.5-0.1,2.7-1.4,2.6-2.9l0,0c-0.1-1.5-1.3-2.7-2.9-2.7c0,0-0.1,0-0.1,0c-5.7,0.4-18.7,1.4-29,5.3C118,101.8,117.3,102.8,117.3,104
		z"/>
	<path class="st0" d="M117.3,123.1L117.3,123.1c0,1.6,1.2,2.9,2.8,2.9c0.3,0,0.6-0.1,0.9-0.2c9.6-3.6,22-4.7,27.5-5
		c1.5-0.1,2.7-1.4,2.6-2.9v-0.1c0-1.5-1.3-2.7-2.9-2.7c0,0,0,0-0.1,0c-5.7,0.3-18.7,1.4-29.1,5.3C118,120.9,117.3,121.9,117.3,123.1
		z"/>
</g>
</svg>
