<?xml version="1.0" encoding="utf-8"?>
<!-- Generator: Adobe Illustrator 25.4.1, SVG Export Plug-In . SVG Version: 6.00 Build 0)  -->
<svg version="1.1" id="Mapa" xmlns="http://www.w3.org/2000/svg" xmlns:xlink="http://www.w3.org/1999/xlink" x="0px" y="0px"
	 viewBox="0 0 1920 647.5" style="enable-background:new 0 0 1920 647.5;" xml:space="preserve">
<style type="text/css">
	.st0{fill:#F2F2F2;}
	.st1{fill:#535C89;}
	.st2{fill:#58A870;}
	.st3{fill:#4E845C;}
	.st4{fill:#5A316B;}
	.st5{fill:#FFFFFF;}
	.st6{fill:#8BD8EA;}
</style>
<path class="st0" d="M44.9,11.1h255.1c5.5,0,10,4.5,10,10v73.4c0,5.5-4.5,10-10,10H44.9c-5.5,0-10-4.5-10-10V21.1
	C34.9,15.6,39.4,11.1,44.9,11.1z"/>
<g id="estradas">
	<path class="st1" d="M1101.4,315.5v154.7c0,18.2-14.8,32.9-32.9,32.9l-124,0.4h-10.9H780c-18.2,0-33-14.8-33-33V317
		c0-18.2,14.8-32.9,33-32.9h289.4c17.4-0.3,31.8,13.6,32.1,31c0,0,0,0,0,0L1101.4,315.5z M306.3,503.2l-153.7,0.5
		c-18.2,0-32.9-14.8-32.9-33V317c0-18.2,14.8-32.9,32.9-32.9h288.7c33.8,0,61.1-27.4,61.2-61.2v-45c0.2-18,14.9-32.6,32.9-32.6
		h150.6c18.2,0,32.9,14.8,32.9,32.9v202.4c-0.7,17.7-15.2,31.7-32.9,31.7h-44.7c-0.2,0-0.4,0.2-0.4,0.4c0,0,0,0,0,0v-0.4H535.3
		c-32.5,0-59.3,25.5-61.1,57.9h-0.1c0,18.2-14.8,32.9-32.9,32.9H306.3z M1346.3,380.7c-0.7,17.7-15.2,31.7-32.9,31.7
		c0,0-153.3,0-154.6,0.1c-15,0.9-27.9-10.6-28.8-25.6c0-0.5,0-1,0-1.5V177.9c0.2-18,14.9-32.5,32.9-32.6h150.6
		c18.2,0,33,14.7,33,32.9L1346.3,380.7z M502.3,673.9V564.8c0-1.1,0-2.2-0.1-3.3h0.1v-88c0-18.2,14.7-32.9,32.9-32.9h105.6v-0.4
		c0,0.2,0.2,0.4,0.4,0.4l0,0h44.7c18.2,0,32.9,14.8,32.9,32.9c1.5,32.7,28.4,58.4,61.1,58.4h288.7c18.2,0,32.9,14.8,32.9,32.9v107.2
		v0.3c0,0.7,28.2,0,28.2,0V473.5c0-18.2,14.8-32.9,33-32.9h150.6c18.2,0,32.9,14.8,32.9,32.9c1.6,32.6,28.4,58.3,61.1,58.4h308.4
		c29.5,0,53.4,23.9,53.4,53.3c0,0,0,0,0,0V682c9.5-0.4,19.1-0.7,28.7-1v-96.8c0-44.7-36.3-81-81-81l0,0h-144.9V389h266v-11h-358.6
		v11h81.7v114.2l-153.7,0.5c-18.2,0-32.9-14.8-32.9-33V317c0-18.2,14.8-32.9,32.9-32.9h154.3c33.8-0.1,61.1-27.4,61.1-61.2v-45
		c0.2-18,14.9-32.5,32.9-32.6h287.8v-28.3h-287.8c-18.1,0-32.8-14.7-32.9-32.8V-21.9l-28.3-2v246.7c0,18.2-14.8,32.9-32.9,32.9
		h-154.2c-18.2,0-32.9-14.8-32.9-32.9v-44.6c0-33.8-27.4-61.1-61.2-61.2h-150.6c-18.1,0-32.8-14.7-32.9-32.8v-97.7l-28.2-1.3v237.7
		c0,18.2-14.8,32.9-32.9,32.9H859c-10.5,0-19-8.5-19-19l0,0v-251h-27.6v250.9c0,10.5-8.5,19-19,19.1H780
		c-18.2,0-32.9-14.8-32.9-32.9v-44.7c0-33.8-27.4-61.1-61.2-61.2H535.3c-18.1,0-32.8-14.7-32.9-32.8v-98.2l0,0l-28.3-0.3v237.2
		c0,18.2-14.8,32.9-32.9,32.9H152.6c-18.2,0-32.9-14.7-32.9-32.9v-44.7c0-33.8-27.4-61.1-61.2-61.2H-3.7v28.2h62.2
		c18.2,0,32.9,14.8,32.9,32.9v202.4c-0.7,17.7-15.2,31.7-32.9,31.7H-3.7v28.2h62.2c18.2,0,32.9,14.8,32.9,32.9
		c1.6,32.6,28.4,58.3,61.1,58.4h288.7c18.2,0,32.9,14.7,32.9,32.9v109.1L502.3,673.9z"/>
</g>
<path class="st0" d="M1732.8,296.6h159.2c5.5,0,10,4.5,10,10v49c0,5.5-4.5,10-10,10h-159.2c-5.5,0-10-4.5-10-10v-49
	C1722.8,301.1,1727.2,296.6,1732.8,296.6z"/>
<path class="st0" d="M1412.5,295.7h291.8c5.5,0,10,4.5,10,10v49.9c0,5.5-4.5,10-10,10h-307.8c-5.5,0-10-4.5-10-10v-33.9
	C1386.5,307.4,1398.1,295.7,1412.5,295.7z"/>
<path class="st0" d="M1595.2,401h296.7c5.5,0,10,4.5,10,10v70.7c0,5.5-4.5,10-10,10h-296.7c-5.5,0-10-4.5-10-10V411
	C1585.2,405.5,1589.7,401,1595.2,401z"/>
<path class="st0" d="M1161.9,157.5h152.4c11.1,0,20.1,9.3,20.1,20.8l0,0v92c0.1,2.8-2.2,5.1-5,5.2c0,0,0,0,0,0h-182.6
	c-2.8,0-5-2.3-5-5.1c0,0,0,0,0,0v-92C1141.8,166.8,1150.8,157.5,1161.9,157.5z"/>
<path class="st0" d="M1316.3,400.6h-156.5c-9.9,0-18-8.1-18-18v-90.2c0-2.7,2.3-4.9,5-4.9h182.7c2.7,0,5,2.2,5,4.9v90.2
	c0,9.9-8.1,18-18,18c0,0,0,0,0,0L1316.3,400.6z"/>
<path class="st0" d="M776.3,300.3h211.2c2.7,0,4.8,2.2,4.8,4.8v177.6c0,2.7-2.2,4.8-4.8,4.8H773.2c-8.1,0-14.8-6.6-14.8-14.8
	c0,0,0,0,0,0l0,0V318.2C758.4,308.3,766.4,300.3,776.3,300.3C776.3,300.3,776.3,300.3,776.3,300.3L776.3,300.3z"/>
<path class="st0" d="M1391.4,397.6h152.7c2.7,0,4.9,2.1,4.9,4.8c0,0,0,0,0,0V489c0,2.7-2.2,4.8-4.9,4.8c0,0,0,0,0,0h-132
	c-14.1,0-25.6-11.2-25.6-25l0,0v-66.4C1386.5,399.7,1388.7,397.6,1391.4,397.6z"/>
<path class="st0" d="M861.5,2.3h93.3c2.7,0,4.8,2.2,4.8,4.8l0,0v103.7c0,2.7-2.2,4.8-4.8,4.8H855c-2.7,0-4.8-2.2-4.8-4.8V13.6
	C850.2,7.4,855.3,2.3,861.5,2.3C861.5,2.3,861.5,2.3,861.5,2.3z"/>
<path class="st0" d="M1080.7,115.7h-99.8c-2.7,0-4.8-2.2-4.8-4.8l0,0V7.2c0-2.7,2.2-4.8,4.8-4.8h81.1c13,0,23.6,10.6,23.6,23.6l0,0
	v85C1085.5,113.6,1083.3,115.7,1080.7,115.7L1080.7,115.7L1080.7,115.7z"/>
<path class="st0" d="M855.1,129.6h99.7c2.7,0,4.8,2.2,4.8,4.8v102.4c0,2.7-2.2,4.8-4.8,4.8h-92.3c-6.8,0-12.3-5.5-12.3-12.3v0l0,0
	v-94.9c0-2.7,2.1-4.8,4.7-4.9c0,0,0,0,0,0H855.1z"/>
<path class="st0" d="M1010.1,297.4h54.1c10.4,0,18.9,8.4,18.9,18.9l0,0v66.4c0,2.7-2.2,4.8-4.8,4.8h-68.2c-2.7,0-4.8-2.2-4.8-4.8
	v-80.5C1005.3,299.6,1007.5,297.4,1010.1,297.4z"/>
<path class="st0" d="M1010.1,397.5h68.2c2.7,0,4.8,2.2,4.8,4.8c0,0,0,0,0,0v67.4c0,9.9-8,17.9-17.9,17.9c0,0,0,0,0,0h-55.1
	c-2.7,0-4.8-2.2-4.8-4.8v-80.5C1005.3,399.6,1007.5,397.5,1010.1,397.5z"/>
<path class="st0" d="M1059.1,241.8h-78.2c-2.7,0-4.8-2.2-4.8-4.8V134.6c0-2.7,2.2-4.8,4.8-4.8h99.7c2.7,0,4.8,2.2,4.8,4.8
	c0,0,0,0,0,0v80.8C1085.4,229.9,1073.6,241.8,1059.1,241.8C1059,241.8,1059,241.8,1059.1,241.8L1059.1,241.8z"/>
<polygon class="st2" points="1824.7,585.9 1826.1,585.9 1826.1,536.8 1815.9,554.4 1821.1,554.4 1812.1,570 1816.9,570 
	1807.7,585.9 "/>
<polygon class="st3" points="1827.4,585.9 1844.6,585.9 1835.3,570 1840.2,570 1831.2,554.4 1836.3,554.4 1826.1,536.8 
	1826.1,585.9 1826.3,585.9 "/>
<polygon class="st4" points="1824.7,604.9 1827.4,604.9 1827.4,585.9 1826.3,585.9 1826.1,585.9 1826.1,585.9 1826.1,585.9 
	1824.7,585.9 "/>
<polygon class="st2" points="1892.6,613.2 1894.1,613.2 1894.1,564 1883.9,581.7 1889,581.7 1880,597.2 1884.8,597.2 1875.6,613.2 
	"/>
<polygon class="st3" points="1895.3,613.2 1912.5,613.2 1903.3,597.2 1908.1,597.2 1899.1,581.7 1904.2,581.7 1894.1,564 
	1894.1,613.2 1894.2,613.2 "/>
<polygon class="st4" points="1892.6,632.1 1895.3,632.1 1895.3,613.2 1894.2,613.2 1894.1,613.2 1894.1,613.2 1894.1,613.2 
	1892.6,613.2 "/>
<polygon class="st2" points="765.7,161.9 767.2,161.9 767.2,112.7 757,130.4 762.1,130.4 753.1,145.9 758,145.9 748.8,161.9 "/>
<polygon class="st3" points="768.5,161.9 785.6,161.9 776.4,145.9 781.2,145.9 772.3,130.4 777.3,130.4 767.2,112.7 767.2,161.9 
	767.4,161.9 "/>
<polygon class="st4" points="765.7,180.8 768.5,180.8 768.5,161.9 767.4,161.9 767.2,161.9 767.2,161.9 767.2,161.9 765.7,161.9 "/>
<polygon class="st2" points="788,217.4 789.2,217.4 789.2,178.7 781.1,192.6 785.2,192.6 778.1,204.9 781.9,204.9 774.7,217.4 "/>
<polygon class="st3" points="790.2,217.4 803.7,217.4 796.4,204.9 800.3,204.9 793.2,192.6 797.2,192.6 789.2,178.7 789.2,217.4 
	789.3,217.4 "/>
<polygon class="st4" points="788,232.4 790.2,232.4 790.2,217.4 789.3,217.4 789.2,217.4 789.2,217.4 789.2,217.4 788,217.4 "/>
<polygon class="st2" points="17,491.8 18.5,491.8 18.5,442.7 8.4,460.3 13.5,460.3 4.5,475.9 9.3,475.9 0.1,491.8 "/>
<polygon class="st3" points="19.8,491.8 37,491.8 27.8,475.9 32.6,475.9 23.6,460.3 28.7,460.3 18.5,442.7 18.5,491.8 18.7,491.8 
	"/>
<polygon class="st4" points="17,510.8 19.8,510.8 19.8,491.8 18.7,491.8 18.5,491.8 18.5,491.8 18.5,491.8 17,491.8 "/>
<polygon class="st2" points="59.9,506.9 61,506.9 61,468.1 53,482 57,482 50,494.3 53.8,494.3 46.5,506.9 "/>
<polygon class="st3" points="62,506.9 75.6,506.9 68.3,494.3 72.1,494.3 65.1,482 69.1,482 61,468.1 61,506.9 61.2,506.9 "/>
<polygon class="st4" points="59.9,521.8 62,521.8 62,506.9 61.2,506.9 61,506.9 61,506.9 61,506.9 59.9,506.9 "/>
<polygon class="st3" points="1871.2,548 1888.3,548 1879.1,532.1 1883.9,532.1 1875,516.5 1880.1,516.5 1869.9,498.9 1869.9,548 
	1870.1,548 "/>
<polygon class="st2" points="1868.4,548 1869.9,548 1869.9,498.9 1859.7,516.5 1864.8,516.5 1855.8,532.1 1860.7,532.1 1851.5,548 
	"/>
<polygon class="st4" points="1868.4,567 1871.2,567 1871.2,548 1870.1,548 1869.9,548 1869.9,548 1869.9,548 1868.4,548 "/>
<g id="linhas">
	<rect x="425.6" y="266.6" class="st5" width="12.6" height="3.1"/>
	<rect x="400.5" y="266.6" class="st5" width="12.6" height="3.1"/>
	<rect x="375.4" y="266.6" class="st5" width="12.6" height="3.1"/>
	<rect x="350.2" y="266.6" class="st5" width="12.6" height="3.1"/>
	<rect x="325.1" y="266.6" class="st5" width="12.6" height="3.1"/>
	<rect x="300" y="266.6" class="st5" width="12.6" height="3.1"/>
	<rect x="274.9" y="266.6" class="st5" width="12.6" height="3.1"/>
	<rect x="249.8" y="266.6" class="st5" width="12.6" height="3.1"/>
	<rect x="224.7" y="266.6" class="st5" width="12.6" height="3.1"/>
	<rect x="199.6" y="266.6" class="st5" width="12.6" height="3.1"/>
	<rect x="174.4" y="266.6" class="st5" width="12.6" height="3.1"/>
	<rect x="149.3" y="266.6" class="st5" width="12.6" height="3.1"/>
	<path class="st5" d="M450.9,269.3l-0.4-3.1c4-0.5,7.9-1.6,11.6-3.3l1.3,2.9C459.4,267.5,455.2,268.7,450.9,269.3z"/>
	<path class="st5" d="M474.2,258.8l-2-2.4c3.1-2.6,5.7-5.7,7.9-9.1l2.6,1.7C480.4,252.6,477.5,255.9,474.2,258.8z"/>
	<path class="st5" d="M488,237.1l-3-0.9c1.1-3.8,1.6-7.6,1.6-11.6v-0.4h3.1v0.4C489.8,228.9,489.2,233.1,488,237.1z"/>
	<rect x="486.6" y="199.2" class="st5" width="3.1" height="12.6"/>
	<rect x="486.6" y="174.1" class="st5" width="3.1" height="12.6"/>
	<rect x="486.6" y="73.6" class="st5" width="3.1" height="12.6"/>
	<rect x="486.6" y="48.5" class="st5" width="3.1" height="12.6"/>
	<rect x="486.6" y="23.4" class="st5" width="3.1" height="12.6"/>
	<rect x="1114.5" y="612.9" class="st5" width="2.3" height="12.4"/>
	<rect x="1114.5" y="588.1" class="st5" width="2.3" height="12.4"/>
	<rect x="1114.5" y="563.2" class="st5" width="2.3" height="12.4"/>
	<rect x="1114.5" y="457.9" class="st5" width="2.3" height="12.4"/>
	<rect x="1114.5" y="482.8" class="st5" width="2.3" height="12.4"/>
	<rect x="1114.5" y="389.4" class="st5" width="2.3" height="12.4"/>
	<rect x="1114.5" y="364.5" class="st5" width="2.3" height="12.4"/>
	<rect x="1114.5" y="339.7" class="st5" width="2.3" height="12.4"/>
	<rect x="1114.5" y="314.8" class="st5" width="2.3" height="12.4"/>
	<rect x="1114.5" y="215.5" class="st5" width="2.3" height="12.4"/>
	<rect x="1114.5" y="190.6" class="st5" width="2.3" height="12.4"/>
	<rect x="1114.5" y="165.8" class="st5" width="2.3" height="12.4"/>
	<rect x="1114.5" y="91.3" class="st5" width="2.3" height="12.4"/>
	<rect x="1114.5" y="66.4" class="st5" width="2.3" height="12.4"/>
	<rect x="1114.5" y="41.6" class="st5" width="2.3" height="12.4"/>
	<rect x="1114.5" y="16.8" class="st5" width="2.3" height="12.4"/>
	<rect x="824.6" y="208.5" class="st5" width="3.3" height="13.3"/>
	<rect x="824.6" y="182" class="st5" width="3.3" height="13.3"/>
	<rect x="824.6" y="155.4" class="st5" width="3.3" height="13.3"/>
	<rect x="824.6" y="128.9" class="st5" width="3.3" height="13.3"/>
	<rect x="824.6" y="102.4" class="st5" width="3.3" height="13.3"/>
	<rect x="824.6" y="75.8" class="st5" width="3.3" height="13.3"/>
	<rect x="824.6" y="49.3" class="st5" width="3.3" height="13.3"/>
	<rect x="824.6" y="22.8" class="st5" width="3.3" height="13.3"/>
	<rect x="429.5" y="516.2" class="st5" width="12.5" height="3.1"/>
	<rect x="404.4" y="516.2" class="st5" width="12.5" height="3.1"/>
	<rect x="379.3" y="516.2" class="st5" width="12.5" height="3.1"/>
	<rect x="354.2" y="516.2" class="st5" width="12.5" height="3.1"/>
	<rect x="329.1" y="516.2" class="st5" width="12.5" height="3.1"/>
	<rect x="304" y="516.2" class="st5" width="12.5" height="3.1"/>
	<rect x="278.9" y="516.2" class="st5" width="12.5" height="3.1"/>
	<rect x="253.8" y="516.2" class="st5" width="12.5" height="3.1"/>
	<rect x="228.7" y="516.2" class="st5" width="12.5" height="3.1"/>
	<rect x="203.6" y="516.2" class="st5" width="12.5" height="3.1"/>
	<rect x="178.5" y="516.2" class="st5" width="12.5" height="3.1"/>
	<rect x="153.4" y="516.2" class="st5" width="12.5" height="3.1"/>
	<path class="st5" d="M140.6,518c-4.2-1-8.2-2.6-12-4.7l1.6-2.7c3.5,2,7.3,3.5,11.2,4.4L140.6,518z"/>
	<path class="st5" d="M118.2,505.5c-3.1-3-5.8-6.5-8-10.2l2.7-1.6c2,3.5,4.5,6.7,7.4,9.5L118.2,505.5z"/>
	<path class="st5" d="M105.4,483.4c-1.1-4-1.6-8.1-1.6-12.3v-0.5h3.2v0.5c0,3.9,0.5,7.7,1.5,11.5L105.4,483.4z"/>
	<rect x="103.8" y="370.1" class="st5" width="3.1" height="12.5"/>
	<rect x="103.8" y="345.1" class="st5" width="3.1" height="12.5"/>
	<rect x="103.8" y="320" class="st5" width="3.1" height="12.5"/>
	<rect x="103.8" y="294.9" class="st5" width="3.1" height="12.5"/>
	<rect x="103.8" y="219.6" class="st5" width="3.1" height="12.5"/>
	<rect x="103.8" y="194.5" class="st5" width="3.1" height="12.5"/>
	<path class="st5" d="M107,181.9h-3.2v-1.4c0-3.6-0.4-7.2-1.2-10.6l3.1-0.7c0.9,3.7,1.3,7.5,1.3,11.4L107,181.9z"/>
	<path class="st5" d="M98.3,158.5c-1.9-3.6-4.3-6.9-7.1-9.8l2.3-2.1c2.9,3.1,5.5,6.7,7.5,10.4L98.3,158.5z"/>
	<path class="st5" d="M81.9,141c-3.4-2.1-7.1-3.8-11-5l0.9-3c4.1,1.3,8.1,3.1,11.8,5.4L81.9,141z"/>
	<path class="st5" d="M58.8,134H46.4v-3.2H59L58.8,134z"/>
	<rect x="21.3" y="130.9" class="st5" width="12.5" height="3.1"/>
	<rect x="-3.8" y="130.9" class="st5" width="12.5" height="3.1"/>
	<rect x="46.4" y="425.2" class="st5" width="12.5" height="3.1"/>
	<rect x="21.3" y="425.2" class="st5" width="12.5" height="3.1"/>
	<rect x="-3.8" y="425.2" class="st5" width="12.5" height="3.1"/>
	<rect x="1068.5" y="516.7" class="st5" width="12.5" height="2.3"/>
	<rect x="1043.4" y="516.7" class="st5" width="12.5" height="2.3"/>
	<rect x="1018.3" y="516.7" class="st5" width="12.5" height="2.3"/>
	<rect x="993.2" y="516.7" class="st5" width="12.5" height="2.3"/>
	<rect x="968.1" y="516.7" class="st5" width="12.5" height="2.3"/>
	<rect x="943" y="516.7" class="st5" width="12.5" height="2.3"/>
	<rect x="917.9" y="516.7" class="st5" width="12.5" height="2.3"/>
	<rect x="892.8" y="516.7" class="st5" width="12.5" height="2.3"/>
	<rect x="867.7" y="516.7" class="st5" width="12.5" height="2.3"/>
	<rect x="842.7" y="516.7" class="st5" width="12.5" height="2.3"/>
	<rect x="817.5" y="516.7" class="st5" width="12.5" height="2.3"/>
	<rect x="792.5" y="516.7" class="st5" width="12.5" height="2.3"/>
	<path class="st5" d="M779.9,518.9h-2.2c-3.5,0-7.1-0.4-10.5-1.2l0.5-2.2c3.3,0.8,6.6,1.2,10,1.2h2.2L779.9,518.9z"/>
	<path class="st5" d="M755.2,513.1c-3.7-2.1-7.2-4.7-10.2-7.8l1.6-1.6c2.8,2.9,6.1,5.4,9.6,7.4L755.2,513.1z"/>
	<path class="st5" d="M737.4,495c-2.1-3.8-3.6-7.8-4.5-12l2.2-0.5c0.9,4,2.3,7.8,4.3,11.4L737.4,495z"/>
	
		<rect x="731.8" y="457.7" transform="matrix(1 -1.396262e-03 1.396262e-03 1 -0.6471 1.0239)" class="st5" width="2.3" height="12.5"/>
	
		<rect x="731.7" y="382.4" transform="matrix(1 -1.221729e-03 1.221729e-03 1 -0.4743 0.8957)" class="st5" width="2.3" height="12.5"/>
	
		<rect x="731.7" y="357.3" transform="matrix(1 -1.221729e-03 1.221729e-03 1 -0.4437 0.8956)" class="st5" width="2.3" height="12.5"/>
	
		<rect x="731.7" y="332.2" transform="matrix(1 -1.221729e-03 1.221729e-03 1 -0.413 0.8955)" class="st5" width="2.3" height="12.5"/>
	
		<rect x="731.6" y="307.1" transform="matrix(1 -1.396262e-03 1.396262e-03 1 -0.4368 1.0235)" class="st5" width="2.3" height="12.5"/>
	
		<rect x="731.5" y="231.8" transform="matrix(1 -1.221729e-03 1.221729e-03 1 -0.2904 0.8953)" class="st5" width="2.3" height="12.5"/>
	
		<rect x="731.5" y="206.7" transform="matrix(1 -1.221729e-03 1.221729e-03 1 -0.2597 0.8952)" class="st5" width="2.3" height="12.5"/>
	
		<rect x="731.5" y="181.6" transform="matrix(1 -1.221729e-03 1.221729e-03 1 -0.229 0.8952)" class="st5" width="2.3" height="12.5"/>
	<path class="st5" d="M731,169.3c-0.6-4-1.8-8-3.5-11.7l2.1-1c1.8,3.9,3,8.1,3.6,12.4L731,169.3z"/>
	<path class="st5" d="M720.8,147.4c-2.7-3.1-5.8-5.8-9.2-8l1.2-1.9c3.6,2.3,6.8,5.2,9.6,8.4L720.8,147.4z"/>
	<path class="st5" d="M700.6,134.2c-3.9-1.2-7.9-1.8-12-1.9V130c4.3,0.1,8.6,0.7,12.7,2L700.6,134.2z"/>
	<rect x="563.1" y="130" class="st5" width="12.5" height="2.3"/>
	<rect x="538" y="130" class="st5" width="12.5" height="2.3"/>
	<rect x="663.5" y="130" class="st5" width="12.5" height="2.3"/>
	<rect x="638.4" y="130" class="st5" width="12.5" height="2.3"/>
	<rect x="613.3" y="130" class="st5" width="12.5" height="2.3"/>
	<rect x="588.2" y="130" class="st5" width="12.5" height="2.3"/>
	<rect x="486.6" y="604" class="st5" width="3.1" height="12.5"/>
	<rect x="486.6" y="578.9" class="st5" width="3.1" height="12.5"/>
	<rect x="486.6" y="553.8" class="st5" width="3.1" height="12.5"/>
	<rect x="486.6" y="478.5" class="st5" width="3.1" height="12.5"/>
	<path class="st5" d="M490.5,466.3l-3.1-0.5c0.7-4.3,2.1-8.4,3.9-12.3l2.8,1.3C492.4,458.4,491.2,462.3,490.5,466.3z"/>
	<path class="st5" d="M500.7,444.6l-2.4-2c2.8-3.3,6-6.2,9.6-8.7l1.8,2.6C506.3,438.7,503.3,441.5,500.7,444.6z"/>
	<path class="st5" d="M520.4,431l-1-3c4.1-1.4,8.3-2.3,12.6-2.7l0.2,3.1C528.2,428.8,524.2,429.6,520.4,431z"/>
	<rect x="670.2" y="425.2" class="st5" width="12.5" height="3.1"/>
	<rect x="645" y="425.2" class="st5" width="12.5" height="3.1"/>
	<rect x="620" y="425.2" class="st5" width="12.5" height="3.1"/>
	<rect x="594.9" y="425.2" class="st5" width="12.5" height="3.1"/>
	<rect x="569.8" y="425.2" class="st5" width="12.5" height="3.1"/>
	<rect x="544.7" y="425.2" class="st5" width="12.5" height="3.1"/>
	<rect x="1782.5" y="635.7" class="st5" width="2.3" height="12.5"/>
	<rect x="1782.5" y="610.6" class="st5" width="2.3" height="12.5"/>
	<rect x="1782.5" y="585.5" class="st5" width="2.3" height="12.5"/>
	<path class="st5" d="M1781.5,573.3c-0.7-4-1.9-8-3.4-11.8l2.1-0.8c1.6,4,2.7,8.1,3.5,12.2L1781.5,573.3z"/>
	<path class="st5" d="M1772.5,550.5c-2.2-3.5-4.8-6.7-7.7-9.6l1.6-1.6c3,3.1,5.7,6.4,8,10L1772.5,550.5z"/>
	<path class="st5" d="M1755.4,533c-3.4-2.3-7-4.3-10.8-5.9l0.9-2.1c3.9,1.7,7.7,3.7,11.2,6.1L1755.4,533z"/>
	<path class="st5" d="M1732.8,523.4c-4-0.8-8.1-1.3-12.2-1.3v-2.3c4.3,0,8.5,0.5,12.7,1.3L1732.8,523.4z"/>
	<rect x="1695.5" y="519.8" class="st5" width="12.5" height="2.3"/>
	<rect x="1670.4" y="519.8" class="st5" width="12.5" height="2.3"/>
	<rect x="1645.3" y="519.8" class="st5" width="12.5" height="2.3"/>
	<rect x="1620.2" y="519.8" class="st5" width="12.5" height="2.3"/>
	<rect x="1595.1" y="516.7" class="st5" width="12.5" height="2.3"/>
	<rect x="1570" y="516.7" class="st5" width="12.5" height="2.3"/>
	<rect x="1544.9" y="516.7" class="st5" width="12.5" height="2.3"/>
	<rect x="1519.8" y="516.7" class="st5" width="12.5" height="2.3"/>
	<rect x="1494.7" y="516.7" class="st5" width="12.5" height="2.3"/>
	<rect x="1469.7" y="516.7" class="st5" width="12.5" height="2.3"/>
	<rect x="1444.6" y="516.7" class="st5" width="12.5" height="2.3"/>
	<rect x="1419.5" y="516.7" class="st5" width="12.5" height="2.3"/>
	<path class="st5" d="M1406.9,518.9c-4.3,0-8.6-0.6-12.7-1.7l0.6-2.2c3.9,1.1,8,1.6,12.1,1.6V518.9z"/>
	<path class="st5" d="M1382.4,512.2c-3.7-2.2-7-4.9-10-8l1.6-1.6c2.8,2.9,6,5.5,9.5,7.6L1382.4,512.2z"/>
	<path class="st5" d="M1364.9,493.8c-2-3.8-3.5-7.8-4.5-12l2.2-0.5c0.9,4,2.3,7.8,4.3,11.4L1364.9,493.8z"/>
	<rect x="1359.2" y="456.5" class="st5" width="2.3" height="12.5"/>
	<rect x="1359.2" y="381.2" class="st5" width="2.3" height="12.5"/>
	<rect x="1359.2" y="356.1" class="st5" width="2.3" height="12.5"/>
	<rect x="1359.2" y="331.1" class="st5" width="2.3" height="12.5"/>
	<rect x="1359.2" y="306" class="st5" width="2.3" height="12.5"/>
	<rect x="1359.2" y="230.7" class="st5" width="2.3" height="12.5"/>
	<rect x="1359.2" y="205.6" class="st5" width="2.3" height="12.5"/>
	<rect x="1359.2" y="180.5" class="st5" width="2.3" height="12.5"/>
	<path class="st5" d="M1358.2,168.3c-0.8-4-2.2-7.9-4.1-11.5l2-1c2,3.8,3.4,7.9,4.3,12.1L1358.2,168.3z"/>
	<path class="st5" d="M1347.1,146.8c-2.8-3-6-5.6-9.4-7.8l1.2-1.9c3.7,2.2,7,5,9.9,8.1L1347.1,146.8z"/>
	<path class="st5" d="M1326.5,134.1c-3.9-1.1-8-1.7-12.1-1.8V130c4.3,0.1,8.5,0.7,12.7,1.9L1326.5,134.1z"/>
	<rect x="1289.3" y="130" class="st5" width="12.5" height="2.3"/>
	<rect x="1264.2" y="130" class="st5" width="12.5" height="2.3"/>
	<rect x="1239.1" y="130" class="st5" width="12.5" height="2.3"/>
	<rect x="1214" y="130" class="st5" width="12.5" height="2.3"/>
	<rect x="1188.9" y="130" class="st5" width="12.5" height="2.3"/>
	<rect x="1163.8" y="130" class="st5" width="12.5" height="2.3"/>
	<rect x="1308.5" y="425.1" class="st5" width="12.5" height="2.3"/>
	<rect x="1283.4" y="425.1" class="st5" width="12.5" height="2.3"/>
	<rect x="1258.3" y="425.1" class="st5" width="12.5" height="2.3"/>
	<rect x="1233.2" y="425.1" class="st5" width="12.5" height="2.3"/>
	<rect x="1208.1" y="425.1" class="st5" width="12.5" height="2.3"/>
	<rect x="1183" y="425.1" class="st5" width="12.5" height="2.3"/>
	<rect x="1157.9" y="425.1" class="st5" width="12.5" height="2.3"/>
	<rect x="1410.6" y="268.3" class="st5" width="12.6" height="3.2"/>
	<polygon class="st5" points="1460.7,271.5 1473.3,271.5 1473.4,268.3 1460.7,268.3 	"/>
	<rect x="1435.6" y="268.3" class="st5" width="12.6" height="3.2"/>
	<rect x="1608.3" y="168.4" class="st5" width="3.2" height="12.5"/>
	<rect x="1608.3" y="193.5" class="st5" width="3.2" height="12.6"/>
	<polygon class="st5" points="1385.4,268.3 1385.4,271.5 1398,271.5 1398,268.3 	"/>
	<path class="st5" d="M1563.3,268.4h-9.8v3.2h9.7c1,0,2-0.1,2.9-0.2l-0.2-3.1C1565.1,268.4,1564.2,268.4,1563.3,268.4z"/>
	<path class="st5" d="M1577.8,266.1l1,3l0,0c4.1-1.4,8-3.3,11.6-5.8l-1.8-2.6C1585.2,263,1581.6,264.8,1577.8,266.1z"/>
	<rect x="1528.4" y="268.4" class="st5" width="12.6" height="3.2"/>
	<path class="st5" d="M1597.6,252.6l2.4,2l0,0c2.8-3.3,5.2-7,7-10.9l-2.9-1.3C1602.4,246,1600.2,249.5,1597.6,252.6z"/>
	<path class="st5" d="M1608.4,223.3c0,2.5-0.2,5.1-0.6,7.6l3.1,0.5l0,0c0.5-2.7,0.7-5.4,0.7-8.1v-4.7h-3.2V223.3z"/>
	<rect x="1503.3" y="268.4" class="st5" width="12.6" height="3.2"/>
	<polygon class="st5" points="1481.5,268.4 1481.5,271.6 1494.1,271.6 1494,268.4 	"/>
	<path class="st5" d="M1926.1,132.7h-2.1v-3.2h2.1L1926.1,132.7z M1911.5,132.7h-12.6v-3.2h12.6V132.7z M1886.4,132.7h-12.6v-3.2
		h12.6V132.7z M1861.3,132.7h-12.5v-3.2h12.6L1861.3,132.7z M1836.2,132.7h-12.5v-3.2h12.5V132.7z M1811.1,132.7h-12.6v-3.2h12.6
		V132.7z M1786,132.7h-12.5v-3.2h12.5L1786,132.7z M1760.9,132.7h-12.5v-3.2h12.6L1760.9,132.7z M1735.8,132.7h-12.5v-3.2h12.5
		V132.7z M1710.7,132.7h-12.5v-3.2h12.5V132.7z M1685.6,132.7h-12.5v-3.2h12.6L1685.6,132.7z M1660.5,132.7H1648v-3.2h12.5
		L1660.5,132.7z"/>
	<path class="st5" d="M1609.9-7.3v2.1h-3.2v-2.1H1609.9z M1609.9,7.3v12.5h-3.2V7.3L1609.9,7.3z M1609.9,32.4V45h-3.2V32.4H1609.9z
		 M1609.9,57.5v12.5h-3.2V57.5L1609.9,57.5z M1609.9,82.6v12.5h-3.2V82.6H1609.9z"/>
	<rect x="1059" y="268.8" class="st5" width="12.5" height="2.3"/>
	<rect x="1033.9" y="268.8" class="st5" width="12.5" height="2.3"/>
	<rect x="1008.8" y="268.8" class="st5" width="12.5" height="2.3"/>
	<rect x="983.7" y="268.8" class="st5" width="12.5" height="2.3"/>
	<rect x="958.6" y="268.8" class="st5" width="12.5" height="2.3"/>
	<rect x="933.5" y="268.8" class="st5" width="12.5" height="2.3"/>
	<rect x="908.4" y="268.8" class="st5" width="12.5" height="2.3"/>
	<rect x="883.3" y="268.8" class="st5" width="12.5" height="2.3"/>
	<rect x="858.2" y="268.8" class="st5" width="12.5" height="2.3"/>
	<rect x="782.9" y="268.8" class="st5" width="12.5" height="2.3"/>
	<rect x="757.8" y="268.8" class="st5" width="12.5" height="2.3"/>
</g>
<polygon class="st3" points="50.1,49.7 65.4,49.7 57.2,35.4 61.6,35.4 53.5,21.5 58.1,21.5 49,5.6 49,49.7 49.1,49.7 "/>
<polygon class="st2" points="48.9,5.6 39.8,21.5 44.4,21.5 36.3,35.4 40.7,35.4 32.4,49.7 47.6,49.7 48.9,49.7 "/>
<path class="st3" d="M86.1,84.4v-7.6C83,77.2,80,77.8,77,78.6l0,0c4.5,5,7.8,10.9,9.6,17.3h42.5C125,86.3,113.6,79,99.4,77.1
	c-0.7-0.1-1.4-0.2-2.1-0.2c-1.8-0.2-3.6-0.3-5.4-0.3c-1.1,0-2.2,0-3.3,0.1v7.8H86.1z"/>
<path class="st2" d="M29.3,69.2C18.5,74.6,10.4,84.3,7.1,96h50.1C57.2,96,56.6,74.8,29.3,69.2z"/>
<path class="st2" d="M77,78.6c-6.9-7.7-16.5-12.5-26.8-13.4h-0.1v1.6h-2.5v-1.6h-0.7c-1.8,0-3.6,0.1-5.3,0.4
	c0.7,0.2,16.8,4.3,24.9,16.7c0.8,1.2,1.4,2.4,2,3.6c0.6,1.3,1.1,2.7,1.5,4.1c0.5,2,0.8,4,0.9,6.1h15.8c-1.8-6.4-5.1-12.4-9.6-17.3
	V78.6z"/>
<path class="st2" d="M77,78.6L77,78.6c4.5,5,7.8,10.9,9.6,17.3l0,0C84.8,89.5,81.5,83.6,77,78.6z"/>
<path class="st3" d="M68.4,85.7c-0.6-1.3-1.2-2.5-2-3.6c-8-12.3-24.2-16.5-24.9-16.7l0,0c-3.9,0.4-7.6,1.5-11.1,3.2l-0.1,0.1l-1,0.5
	l0,0C56.6,74.9,57.2,96,57.2,96h13.7c-0.1-2.1-0.4-4.1-0.9-6.1C69.5,88.5,69,87.1,68.4,85.7z"/>
<path class="st3" d="M68.4,85.7c0.6,1.3,1.1,2.7,1.5,4.1C69.5,88.4,69,87,68.4,85.7z"/>
<polygon class="st6" points="87.4,67.4 87.4,67.4 87.4,58.4 87.4,58.4 87.4,67.4 "/>
<polygon class="st4" points="49.1,49.7 49,49.7 48.9,49.7 48.9,49.7 47.6,49.7 47.6,58.4 47.6,65.1 47.6,66.7 50.1,66.7 50.1,65.2 
	50.1,58.4 50.1,49.7 "/>
<polygon class="st3" points="98.8,58.4 95.7,53.1 100.1,53.1 92,39.1 96.6,39.1 87.4,23.3 87.4,58.4 87.4,67.4 87.6,67.4 88.6,67.4 
	103.9,67.4 "/>
<polygon class="st2" points="78.3,39.1 82.9,39.1 74.8,53.1 79.2,53.1 76.1,58.4 70.9,67.4 86.1,67.4 87.4,67.4 87.4,58.4 
	87.4,23.3 "/>
<polygon class="st4" points="87.6,67.4 87.4,67.4 87.4,67.4 87.4,67.4 86.1,67.4 86.1,76.9 86.1,84.4 88.6,84.4 88.6,76.6 
	88.6,67.4 "/>
<polygon class="st3" points="218.3,54.8 236.2,54.8 226.6,38.2 231.6,38.2 222.3,22 227.6,22 216.9,3.5 216.9,54.8 217.1,54.8 "/>
<polygon class="st2" points="215.4,54.8 216.9,54.8 216.9,3.5 206.3,22 211.6,22 202.3,38.2 207.4,38.2 197.7,54.8 "/>
<polygon class="st4" points="215.4,74.7 218.3,74.7 218.3,54.8 217.1,54.8 216.9,54.8 216.9,54.8 216.9,54.8 215.4,54.8 "/>
<polygon class="st3" points="165.5,89.3 178.9,89.3 171.7,76.8 175.5,76.8 168.5,64.7 172.5,64.7 164.5,50.9 164.5,89.3 164.6,89.3 
	"/>
<polygon class="st2" points="163.3,89.3 164.5,89.3 164.5,50.9 156.5,64.7 160.5,64.7 153.5,76.8 157.3,76.8 150.1,89.3 "/>
<polygon class="st4" points="163.3,104.2 165.5,104.2 165.5,89.3 164.6,89.3 164.5,89.3 164.5,89.3 164.5,89.3 163.3,89.3 "/>
<polygon class="st3" points="275.9,72.9 289.3,72.9 282.1,60.4 285.9,60.4 278.9,48.2 282.9,48.2 274.9,34.4 274.9,72.9 275.1,72.9 
	"/>
<polygon class="st2" points="273.7,72.9 274.9,72.9 274.9,34.4 266.9,48.2 270.9,48.2 263.9,60.4 267.7,60.4 260.5,72.9 "/>
<polygon class="st4" points="273.7,87.7 275.9,87.7 275.9,72.9 275.1,72.9 274.9,72.9 274.9,72.9 274.9,72.9 273.7,72.9 "/>
<path class="st0" d="M332,11.1h120.2c5.5,0,10,4.5,10,10v73.4c0,5.5-4.5,10-10,10H332c-5.5,0-10-4.5-10-10V21.1
	C322,15.6,326.5,11.1,332,11.1z"/>
<path class="st0" d="M251.6,116.4h200.5c5.5,0,10,4.5,10,10v91.4c0,14.4-11.6,26-26,26H251.6c-5.5,0-10-4.5-10-10V126.4
	C241.6,120.9,246.1,116.4,251.6,116.4z"/>
<path class="st0" d="M157.6,295.3h322.2c5.5,0,10,4.5,10,10v69.4c0,5.5-4.5,10-10,10H141.6c-5.5,0-10-4.5-10-10v-53.4
	C131.6,306.9,143.2,295.3,157.6,295.3L157.6,295.3z"/>
<path class="st0" d="M141.6,396.6h142.6c5.5,0,10,4.5,10,10v74.7c0,5.5-4.5,10-10,10H157.6c-14.4,0-26-11.6-26-26l0,0v-58.7
	C131.6,401,136,396.6,141.6,396.6z"/>
<path class="st0" d="M316.1,396.6h136.1c5.5,0,10,4.5,10,10v58.7c0,14.4-11.6,26-26,26l0,0H316.1c-5.5,0-10-4.5-10-10v-74.7
	C306.1,401,310.6,396.6,316.1,396.6z"/>
<path class="st0" d="M22.9,544h258.6c5.5,0,10,4.5,10,10v71.5c0,5.5-4.5,10-10,10H22.9c-5.5,0-10-4.5-10-10V554
	C12.9,548.5,17.3,544,22.9,544z"/>
<path class="st0" d="M314,544h122.2c14.4,0,26,11.6,26,26l0,0v55.5c0,5.5-4.5,10-10,10H314c-5.5,0-10-4.5-10-10V554
	C304,548.5,308.5,544,314,544z"/>
<path class="st0" d="M523.8,544h173.1c5.5,0,10,4.5,10,10v66.5c0,5.5-4.5,10-10,10H523.8c-5.5,0-10-4.5-10-10V554
	C513.8,548.5,518.2,544,523.8,544z"/>
<path class="st0" d="M729,544h116.2c5.5,0,10,4.5,10,10v68.1c0,5.5-4.5,10-10,10H729c-5.5,0-10-4.5-10-10V554
	C719,548.5,723.5,544,729,544z"/>
<path class="st0" d="M877.7,544h107.6c5.5,0,10,4.5,10,10v68.1c0,5.5-4.5,10-10,10H877.7c-5.5,0-10-4.5-10-10V554
	C867.7,548.5,872.2,544,877.7,544z"/>
<path class="st0" d="M1017.2,544h62.3c5.5,0,10,4.5,10,10v68.1c0,5.5-4.5,10-10,10h-62.3c-5.5,0-10-4.5-10-10V554
	C1007.2,548.5,1011.7,544,1017.2,544z"/>
<path class="st0" d="M1151.9,543.8h193.6c5.5,0,10,4.5,10,10v66.2c0,5.5-4.5,10-10,10h-193.6c-5.5,0-10-4.5-10-10v-66.2
	C1141.9,548.3,1146.4,543.8,1151.9,543.8z"/>
<path class="st0" d="M1377.2,543.8h179.6c5.5,0,10,4.5,10,10v66.2c0,5.5-4.5,10-10,10h-179.6c-5.5,0-10-4.5-10-10v-66.2
	C1367.2,548.3,1371.7,543.8,1377.2,543.8z"/>
<path class="st0" d="M1588.8,543.8h121.8c25.5,0,46.1,20.7,46.1,46.1c0,0,0,0,0,0v30.1c0,5.5-4.5,10-10,10h-157.9
	c-5.5,0-10-4.5-10-10v-66.2C1578.8,548.3,1583.3,543.8,1588.8,543.8z"/>
<path class="st0" d="M1167.8,451.7h140.6c14.4,0,26,11.6,26,26v44.2c0,5.5-4.5,10-10,10h-172.6c-5.5,0-10-4.5-10-10v-44.2
	C1141.8,463.3,1153.4,451.7,1167.8,451.7z"/>
<path class="st0" d="M539.8,452.4h141.1c14.4,0,26,11.6,26,26v43.7c0,5.5-4.5,10-10,10H523.8c-5.5,0-10-4.5-10-10v-43.7
	C513.8,464,525.4,452.4,539.8,452.4z"/>
<path class="st0" d="M540.4,157.3h140.5c14.4,0,26,11.6,26,26v191.1c0,14.4-11.6,26-26,26l0,0H524.4c-5.5,0-10-4.5-10-10V183.3
	C514.4,168.9,526,157.3,540.4,157.3z"/>
<path class="st0" d="M141.6,116.4h78.8c5.5,0,10,4.5,10,10v107.4c0,5.5-4.5,10-10,10h-62.8c-14.4,0-26-11.6-26-26v-91.4
	C131.6,120.9,136,116.4,141.6,116.4z"/>
<path class="st0" d="M526.1,11.1h267c5.5,0,10,4.5,10,10v71.3c0,5.5-4.5,10-10,10h-251c-14.4,0-26-11.6-26-26V21.1
	C516.1,15.6,520.5,11.1,526.1,11.1z"/>
<path class="st0" d="M1660,157.5h231.9c5.5,0,10,4.5,10,10v106.3c0,5.5-4.5,10-10,10H1644c-5.5,0-10-4.5-10-10v-90.3
	C1634,169.1,1645.6,157.5,1660,157.5z"/>
<path class="st0" d="M1644-14.1h247.9c5.5,0,10,4.5,10,10V96.3c0,5.5-4.5,10-10,10H1660c-14.4,0-26-11.6-26-26V-4.1
	C1634-9.6,1638.5-14.1,1644-14.1L1644-14.1z"/>
<path class="st0" d="M1356.3-14.1h216.6c5.5,0,10,4.5,10,10V96.3c0,5.5-4.5,10-10,10h-216.6c-5.5,0-10-4.5-10-10V-4.1
	C1346.3-9.6,1350.8-14.1,1356.3-14.1z"/>
<path class="st0" d="M1151.9-14.1h172.5c5.5,0,10,4.5,10,10V96.3c0,5.5-4.5,10-10,10h-156.5c-14.4,0-26-11.6-26-26V-4.1
	C1141.9-9.6,1146.4-14.1,1151.9-14.1L1151.9-14.1z"/>
<path class="st0" d="M1396.5,118.2h176.4c5.5,0,10,4.5,10,10v89.7c0,14.4-11.6,26-26,26h-144.4c-14.4,0-26-11.6-26-26v-89.7
	C1386.5,122.7,1390.9,118.2,1396.5,118.2z"/>
<polygon class="st3" points="341.4,590.3 356.8,590.3 348.5,576 352.9,576 344.8,562.1 349.4,562.1 340.2,546.3 340.2,590.3 
	340.4,590.3 "/>
<polygon class="st2" points="340.2,546.3 331.1,562.1 335.7,562.1 327.6,576 332,576 323.7,590.3 338.9,590.3 340.2,590.3 "/>
<path class="st3" d="M377.4,625.1v-7.6c-3.1,0.3-6.1,0.9-9.1,1.7l0,0c4.5,5,7.8,10.9,9.6,17.3h42.5c-4.1-9.6-15.5-16.9-29.7-18.9
	c-0.7-0.1-1.4-0.2-2.1-0.2c-1.8-0.2-3.6-0.3-5.4-0.3c-1.1,0-2.2,0-3.3,0.1v7.8H377.4z"/>
<path class="st2" d="M320.6,609.8c-10.8,5.4-18.9,15.1-22.2,26.8h50.1C348.5,636.6,347.9,615.4,320.6,609.8z"/>
<path class="st2" d="M368.3,619.2c-6.9-7.7-16.5-12.5-26.8-13.4h-0.1v1.6h-2.5v-1.6h-0.7c-1.8,0-3.5,0.1-5.3,0.4
	c0.7,0.2,16.9,4.3,24.9,16.7c0.8,1.2,1.4,2.4,2,3.6c0.6,1.3,1.1,2.7,1.5,4.1c0.5,2,0.8,4,0.9,6.1h15.8c-1.8-6.4-5.1-12.4-9.6-17.3
	V619.2z"/>
<path class="st2" d="M368.3,619.2L368.3,619.2c4.5,5,7.8,10.9,9.6,17.3l0,0C376.1,630.1,372.8,624.2,368.3,619.2z"/>
<path class="st3" d="M359.7,626.4c-0.6-1.3-1.2-2.5-2-3.7c-8-12.3-24.2-16.5-24.9-16.6l0,0c-3.9,0.4-7.6,1.5-11.1,3.2l-0.1,0.1
	l-1,0.5l0,0c27.3,5.7,27.8,26.8,27.8,26.8h13.7c-0.1-2.1-0.4-4.1-0.9-6.1C360.8,629.1,360.3,627.7,359.7,626.4z"/>
<path class="st3" d="M359.7,626.4c0.6,1.3,1.1,2.7,1.5,4.1C360.8,629,360.3,627.7,359.7,626.4z"/>
<polygon class="st6" points="378.7,608 378.7,608 378.7,599 378.7,599 378.7,608 "/>
<polygon class="st4" points="340.4,590.3 340.2,590.3 340.2,590.3 340.2,590.3 338.9,590.3 338.9,599 338.9,605.7 338.9,607.4 
	341.4,607.4 341.4,605.8 341.4,599 341.4,590.3 "/>
<polygon class="st3" points="390,599 387,593.7 391.4,593.7 383.3,579.8 387.9,579.8 378.7,563.9 378.7,599 378.7,608 378.9,608 
	379.9,608 395.2,608 "/>
<polygon class="st2" points="369.6,579.8 374.1,579.8 366.1,593.7 370.5,593.7 367.4,599 362.2,608 377.4,608 378.7,608 378.7,599 
	378.7,563.9 "/>
<polygon class="st4" points="378.9,608 378.7,608 378.7,608 378.7,608 377.4,608 377.4,617.5 377.4,625.1 379.9,625.1 379.9,617.3 
	379.9,608 "/>
<polygon class="st3" points="451.9,611.3 469.8,611.3 460.2,594.7 465.3,594.7 455.9,578.5 461.2,578.5 450.6,560.1 450.6,611.3 
	450.8,611.3 "/>
<polygon class="st2" points="449,611.3 450.6,611.3 450.6,560.1 439.9,578.5 445.3,578.5 435.9,594.7 441,594.7 431.3,611.3 "/>
<polygon class="st4" points="449,631.2 451.9,631.2 451.9,611.3 450.8,611.3 450.6,611.3 450.6,611.3 450.6,611.3 449,611.3 "/>
<polygon class="st3" points="417.9,575.8 431.4,575.8 424.1,563.2 428,563.2 420.9,551.1 424.9,551.1 416.9,537.3 416.9,575.8 
	417.1,575.8 "/>
<polygon class="st2" points="415.8,575.8 416.9,575.8 416.9,537.3 409,551.1 412.9,551.1 405.9,563.2 409.7,563.2 402.5,575.8 "/>
<polygon class="st4" points="415.8,590.6 417.9,590.6 417.9,575.8 417.1,575.8 416.9,575.8 416.9,575.8 416.9,575.8 415.8,575.8 "/>
<path class="st0" d="M-15.1,155.1h68.4c14.4,0,26,11.6,26,26v194.6c0,14.4-11.6,26-26,26h-68.4l0,0V155.1L-15.1,155.1z"/>
</svg>
