<?xml version="1.0" encoding="utf-8"?>
<!-- Generator: Adobe Illustrator 25.4.1, SVG Export Plug-In . SVG Version: 6.00 Build 0)  -->
<svg version="1.1" id="Parque" xmlns="http://www.w3.org/2000/svg" xmlns:xlink="http://www.w3.org/1999/xlink" x="0px" y="0px"
	 viewBox="0 0 200 200" style="enable-background:new 0 0 200 200;" xml:space="preserve">
<style type="text/css">
	.st0{fill:#5A316B;}
</style>
<path class="st0" d="M181,165h-10.5v-12.8h2.4c1.6,0,2.8-1.3,2.8-2.8l0,0v-10.9c0-1.6-1.3-2.8-2.8-2.8h-6.2v-33.1
	c0.1-1.6-1.1-2.9-2.7-3c-1.6-0.1-2.9,1.1-3,2.7c0,0.1,0,0.2,0,0.3v1.1H83.2v-1.1c0.1-1.6-1.1-2.9-2.7-3c-1.6-0.1-2.9,1.1-3,2.7
	c0,0.1,0,0.2,0,0.3v33.1H73c-1.6,0-2.8,1.3-2.8,2.8v10.9c0,1.6,1.3,2.8,2.8,2.8h1.9V165H56.8v-62.6c18-1.6,31.4-17.5,29.9-35.5
	c-1.6-18-17.5-31.4-35.5-29.9c-18,1.6-31.4,17.5-29.9,35.5c1.4,15.9,14,28.5,29.9,29.9V165H19c-1.6-0.1-2.9,1.1-3,2.7
	c-0.1,1.6,1.1,2.9,2.7,3c0.1,0,0.2,0,0.3,0h162c1.6,0.1,2.9-1.1,3-2.7c0.1-1.6-1.1-2.9-2.7-3C181.2,165,181.1,165,181,165z
	 M164.8,152.2V165H80.6v-12.8H164.8z M41.5,73.9c-0.5,0.5-0.8,1.2-0.8,2c0,0.7,0.3,1.5,0.8,2l9.7,9.7v9.1
	C36.3,95.2,25.5,81.8,27,66.9C28.6,52,41.9,41.2,56.8,42.7C71.7,44.3,82.6,57.7,81,72.6c-1.3,12.8-11.4,22.8-24.2,24.2v-9.1l9.7-9.7
	c1.1-1.1,1.1-2.9,0-4c-0.5-0.5-1.2-0.8-2-0.8l0,0c-0.8,0-1.5,0.3-2,0.8l-5.7,5.7v-10c0.1-1.6-1.1-2.9-2.7-3c-1.6-0.1-2.9,1.1-3,2.7
	c0,0.1,0,0.2,0,0.3v10L45.5,74c-0.5-0.5-1.2-0.8-2-0.8l0,0C42.8,73.1,42,73.4,41.5,73.9z M161,131v4.6H83.2V131H161z M161,119.6v5.7
	H83.2v-5.7H161z M83.2,114v-4.7H161v4.7H83.2z M170,141.3v5.2H75.8v-5.2H170z"/>
</svg>
