<?xml version="1.0" encoding="utf-8"?>
<!-- Generator: Adobe Illustrator 25.4.1, SVG Export Plug-In . SVG Version: 6.00 Build 0)  -->
<svg version="1.1" id="Restaurante" xmlns="http://www.w3.org/2000/svg" xmlns:xlink="http://www.w3.org/1999/xlink" x="0px"
	 y="0px" viewBox="0 0 200 200" style="enable-background:new 0 0 200 200;" xml:space="preserve">
<style type="text/css">
	.st0{fill:#5A316B;}
</style>
<path class="st0" d="M61.6,89.1c0.9,0.9,2.3,1.3,3.6,0.9c2.9-1,6-1.5,9.1-1.6c1.1-0.1,2.3,0.1,3.3,0.7l1.2,1.2c0.7,0.7,1.6,1,2.5,1
	l0,0c2,0,3.5-1.6,3.6-3.5c0-0.9-0.4-1.9-1-2.5L82.6,84c-4.2-4.2-12.6-2.8-17.2-1.6l-0.2,0.1L37.5,55c-1.3-1.5-3.5-1.6-5-0.3
	c-1.5,1.3-1.6,3.5-0.3,5c0.1,0.1,0.2,0.2,0.3,0.3L61.6,89.1z"/>
<path class="st0" d="M70.8,66.3c1.5,1.3,3.7,1.1,5-0.5c1.1-1.3,1.1-3.2,0-4.5L53.5,39c-1.3-1.5-3.5-1.6-5-0.3s-1.6,3.5-0.3,5
	c0.1,0.1,0.2,0.2,0.3,0.3L70.8,66.3z"/>
<path class="st0" d="M155.9,30.8c-0.7,0-1.4,0.3-1.9,0.7L29.5,152c-0.6,0.6-0.9,1.3-0.9,2.1c0,0.2,0,0.4,0,0.6
	c-0.6,7.6,4.9,14.4,12.5,15.2c1,0.1,2,0.1,3,0h0.3c0.8,0,1.5-0.3,2-0.9L96,119.5l5.5,5.5c1.4,1.4,3.6,1.4,5,0
	c42-42,56.9-72.7,56.9-86.3v-1.5l-5.6-5.6C157.2,31.1,156.6,30.8,155.9,30.8z M156.2,40.5c-1.5,12.5-15.9,40.1-51.9,76.7l-0.8,0.8
	V117l-7.5-7.5l-53.2,53.2h-0.5c-3.6,0-6.5-2.9-6.5-6.5c0-0.1,0-0.1,0-0.2v-0.2l0.1-0.1L156.3,39.2L156.2,40.5z"/>
<path class="st0" d="M83.7,63.3h0.4L84,63.9c-1.3,4.7-2.7,13.2,1.6,17.3l1.3,1.2c1.4,1.3,3.7,1.3,5-0.1s1.3-3.7-0.1-5L90.5,76
	c-1.2-1.2-0.8-7.1,0.9-12.3c0.4-1.3,0.1-2.7-0.9-3.6L61.5,31c-1.5-1.3-3.7-1.1-5,0.5c-1.1,1.3-1.1,3.2,0,4.5L83.7,63.3z"/>
<path class="st0" d="M62.8,74.3c1.4,1.3,3.6,1.3,5,0c1.4-1.4,1.4-3.6,0-5L45.5,47c-1.5-1.3-3.7-1.1-5,0.5c-1.1,1.3-1.1,3.2,0,4.5
	L62.8,74.3z"/>
<path class="st0" d="M171.4,154.1c0-0.8-0.3-1.6-0.9-2.1l-39.3-37.3c-1.4-1.4-3.7-1.3-5,0.1c-1.4,1.4-1.3,3.7,0.1,5l37.8,35.9
	l0.1,0.1v0.2c0.1,3.6-2.7,6.6-6.2,6.7c-0.2,0-0.3,0-0.5,0h-0.2l-0.1-0.1l-35.9-37.8c-0.6-0.7-1.5-1.1-2.5-1.1h-0.1
	c-2,0-3.6,1.6-3.6,3.5c0,0.9,0.4,1.8,1,2.5l37.1,39.1c0.7,0.7,1.6,1.1,2.6,1.1h2.2c0.5,0,1.1,0,1.6-0.1c7.3-1.2,12.4-7.8,11.8-15.1
	C171.4,154.5,171.4,154.3,171.4,154.1z"/>
</svg>
