<?xml version="1.0" encoding="utf-8"?><svg xmlns="http://www.w3.org/2000/svg" viewBox="0 0 1920 1080"><g id="cenario"><g id="freepik--Closet--inject-16" style="opacity:0.1899999976158142"><g id="Retângulo_2410" data-name="Retângulo 2410"><rect x="401.27" y="68.85" width="653.11" height="834.41" style="fill:#dbdbdb"/></g><g id="Retângulo_2411" data-name="Retângulo 2411"><rect x="420.82" y="88.42" width="613.98" height="795.28" style="fill:#c7c7c7"/></g><g id="Retângulo_2412" data-name="Retângulo 2412"><rect x="420.82" y="273.76" width="613.98" height="19.58" style="fill:#dbdbdb"/></g><g id="Retângulo_2413" data-name="Retângulo 2413"><rect x="828.97" y="430.51" width="205.83" height="19.58" style="fill:#dbdbdb"/></g><g id="Retângulo_2414" data-name="Retângulo 2414"><rect x="828.97" y="584.3" width="205.83" height="19.58" style="fill:#dbdbdb"/></g><g id="Retângulo_2415" data-name="Retângulo 2415"><rect x="828.97" y="733.2" width="205.83" height="19.58" style="fill:#dbdbdb"/></g><g id="Retângulo_2416" data-name="Retângulo 2416"><rect x="809.4" y="293.34" width="19.58" height="590.37" style="fill:#dbdbdb"/></g><g id="Retângulo_2417" data-name="Retângulo 2417"><rect x="420.82" y="352.39" width="388.57" height="12.59" style="fill:#ebebeb"/></g><g id="Retângulo_2418" data-name="Retângulo 2418"><rect x="831" y="295.44" width="201.8" height="42.67" style="fill:#dbdbdb"/></g><g id="Retângulo_2419" data-name="Retângulo 2419"><rect x="831" y="340.66" width="201.8" height="42.67" style="fill:#dbdbdb"/></g><g id="Retângulo_2420" data-name="Retângulo 2420"><rect x="831" y="385.88" width="201.8" height="42.67" style="fill:#dbdbdb"/></g><g id="Retângulo_2421" data-name="Retângulo 2421"><rect x="910.91" y="311.87" width="41.94" height="9.82" style="fill:#a6a6a6"/></g><g id="Retângulo_2422" data-name="Retângulo 2422"><rect x="910.91" y="357.09" width="41.94" height="9.82" style="fill:#a6a6a6"/></g><g id="Retângulo_2423" data-name="Retângulo 2423"><rect x="910.91" y="402.29" width="41.94" height="9.82" style="fill:#a6a6a6"/></g><g id="Caminho_17422" data-name="Caminho 17422"><path d="M1008,733.2H852.73a12.12,12.12,0,0,1-12.12-12.11h0A12.14,12.14,0,0,1,852.73,709h155.32a12.13,12.13,0,0,1,12.14,12.14h0a12.11,12.11,0,0,1-12.11,12.11Z" style="fill:#263238"/></g><g id="Retângulo_2424" data-name="Retângulo 2424"><path d="M879,627.18h122.13a16.67,16.67,0,0,1,16.67,16.67h0a16.68,16.68,0,0,1-16.67,16.67H879a16.67,16.67,0,0,1-16.67-16.67h0A16.67,16.67,0,0,1,879,627.18Z" style="fill:#263238"/></g><g id="Caminho_17423" data-name="Caminho 17423"><path d="M1009.78,709H850.89a10.34,10.34,0,0,1-10.35-10.34h0a10.34,10.34,0,0,1,10.34-10.34h158.9a10.34,10.34,0,0,1,10.34,10.34h0A10.34,10.34,0,0,1,1009.78,709Z" style="fill:#ebebeb"/></g><g id="Caminho_17424" data-name="Caminho 17424"><path d="M999.55,627.18H870.08a10.34,10.34,0,0,1-10.34-10.35h0a10.34,10.34,0,0,1,10.34-10.34H999.55a10.34,10.34,0,0,1,10.34,10.34h0a10.34,10.34,0,0,1-10.34,10.35Z" style="fill:#fff"/></g><g id="Caminho_17425" data-name="Caminho 17425"><path d="M1005.1,688.26H855.56a6.91,6.91,0,0,1-6.94-6.89v0h0a6.94,6.94,0,0,1,6.94-6.94H1005.1a6.94,6.94,0,0,1,6.94,6.94h0A6.93,6.93,0,0,1,1005.1,688.26Z" style="fill:#fff"/></g><g id="Caminho_17426" data-name="Caminho 17426"><path d="M1005.1,674.38H855.56a6.92,6.92,0,0,1-6.94-6.9h0v0h0a7,7,0,0,1,6.94-7H1005.1a6.94,6.94,0,0,1,6.94,7h0a6.94,6.94,0,0,1-6.94,6.94Z" style="fill:#37474f"/></g><g id="Retângulo_2425" data-name="Retângulo 2425"><rect x="852.47" y="551.87" width="179.25" height="32.4" rx="15.37" style="fill:#263238"/></g><g id="Caminho_17427" data-name="Caminho 17427"><path d="M1018,551.87H866.28a13.81,13.81,0,0,1-13.81-13.81h0a13.81,13.81,0,0,1,13.81-13.81H1018a13.81,13.81,0,0,1,13.82,13.81h0A13.81,13.81,0,0,1,1018,551.87Z" style="fill:#fff"/></g><g id="Caminho_17428" data-name="Caminho 17428"><path d="M1006.21,487.15H890.51a13.81,13.81,0,0,1-13.81-13.81h0a13.81,13.81,0,0,1,13.79-13.84h115.72a13.84,13.84,0,0,1,13.84,13.84h0a13.81,13.81,0,0,1-13.81,13.81Z" style="fill:#37474f"/></g><g id="Caminho_17429" data-name="Caminho 17429"><path d="M1014.38,524.29H869.8a9.27,9.27,0,0,1-9.28-9.28h0a9.27,9.27,0,0,1,9.28-9.27h144.58a9.25,9.25,0,0,1,9.25,9.25v0h0a9.24,9.24,0,0,1-9.23,9.28Z" style="fill:#455a64"/></g><g id="Caminho_17430" data-name="Caminho 17430"><path d="M1014.38,505.69H869.8a9.26,9.26,0,0,1-9.28-9.23h0v0h0a9.28,9.28,0,0,1,9.28-9.28h144.58a9.26,9.26,0,0,1,9.25,9.26v0h0a9.23,9.23,0,0,1-9.2,9.26h0Z" style="fill:#ebebeb"/></g><g id="Caminho_17431" data-name="Caminho 17431"><path d="M885.12,272.39l112.7,1.35c30.46.38,26-24,18.89-49.59s-17.35-64.56-44.58-64.89l-29.25-.35-29.28-.36c-27.23-.33-38.52,38.3-46.12,63.76S854.66,272,885.12,272.39Z" style="fill:#fff"/></g><g id="Caminho_17432" data-name="Caminho 17432"><path d="M976.48,159.26a1.13,1.13,0,0,1,1.13,1.13h0v0a1.16,1.16,0,0,1-1.17,1.14h0a1.17,1.17,0,0,1-1.13-1.18h0A1.17,1.17,0,0,1,976.48,159.26Zm-20.4.92a1.17,1.17,0,1,0,2.34,0h0a1.18,1.18,0,0,0-1.18-1.18h0a1.18,1.18,0,0,0-1.16,1.18ZM936.86,160a1.18,1.18,0,0,0,1.16,1.18A1.17,1.17,0,0,0,939.2,160v0a1.13,1.13,0,0,0-1.11-1.15H938a1.15,1.15,0,0,0-1.18,1.13Zm-19.2-.24a1.18,1.18,0,0,0,1.18,1.18h0a1.18,1.18,0,0,0,1.18-1.18h0a1.16,1.16,0,0,0-1.13-1.18h0a1.13,1.13,0,0,0-1.2,1.06.24.24,0,0,0,0,.12Zm76.55,25.62a1.16,1.16,0,1,0,1.18-1.13,1.14,1.14,0,0,0-1.18,1.08h0v.05ZM975,185.12a1.18,1.18,0,0,0,1.18,1.18h0a1.18,1.18,0,0,0,1.18-1.18h0a1.18,1.18,0,0,0-1.15-1.18,1.15,1.15,0,0,0-1.2,1.11.08.08,0,0,0,0,.07Zm-19.22-.24a1.2,1.2,0,0,0,1.16,1.18,1.18,1.18,0,0,0,1.18-1.15,1.16,1.16,0,0,0-1.13-1.18h0a1.2,1.2,0,0,0-1.18,1.15Zm-19.2-.23a1.16,1.16,0,0,0,2.31,0h0a1.15,1.15,0,0,0-1.13-1.16,1.18,1.18,0,0,0-1.18,1.16Zm-19.22-.24a1.18,1.18,0,0,0,1.16,1.18,1.16,1.16,0,0,0,1.18-1.13h0v0a1.19,1.19,0,1,0-2.37,0h0Zm-19.2-.23a1.17,1.17,0,0,0,1.13,1.18h0a1.16,1.16,0,0,0,.05-2.32,1.12,1.12,0,0,0-1.18,1.08.38.38,0,0,0,0,.15Zm86.59-11.72a1.15,1.15,0,0,0,1.13,1.18h0a1.12,1.12,0,0,0,1.18-1.08h0v-.05a1.18,1.18,0,0,0-1.18-1.18h0a1.18,1.18,0,0,0-1.18,1.18h0Zm-19.2-.23a1.15,1.15,0,0,0,1.13,1.18,1.16,1.16,0,0,0,1.18-1.13h0a1.17,1.17,0,0,0-1.13-1.18h0a1.15,1.15,0,0,0-1.19,1.09v0ZM946.32,172a1.18,1.18,0,0,0,1.18,1.18h0a1.19,1.19,0,0,0,0-2.37,1.17,1.17,0,0,0-1.21,1.1,1.09,1.09,0,0,0,0,.18Zm-19.2-.24a1.15,1.15,0,0,0,1.13,1.18h0a1.17,1.17,0,1,0,0-2.34h0a1.18,1.18,0,0,0-1.18,1.18Zm-19.23-.24a1.16,1.16,0,0,0,1.14,1.18h0a1.18,1.18,0,0,0,1.19-1.18h0a1.18,1.18,0,0,0-1.18-1.18h0a1.18,1.18,0,0,0-1.16,1.2h0v0Zm-19,.36a1.14,1.14,0,0,0,1,.59,1.15,1.15,0,0,0,1.18-1.13h0a1.18,1.18,0,0,0-.8-1.14c-.47.64-.92,1.18-1.37,1.77Zm105,38a1.16,1.16,0,0,0,1.14,1.18h0a1.17,1.17,0,0,0,1.18-1.16,1.16,1.16,0,0,0-1.15-1.16h0a1.15,1.15,0,0,0-1.19,1.09v.05Zm-19.22-.24a1.15,1.15,0,0,0,1.13,1.18h0A1.18,1.18,0,0,0,977,209.7h0a1.18,1.18,0,0,0-1.18-1.18h0a1.17,1.17,0,0,0-1.17,1.15h0c0,.05,0,.09,0,.13Zm-19.2-.21a1.18,1.18,0,0,0,1.18,1.18h0a1.18,1.18,0,0,0,1.18-1.18h0a1.14,1.14,0,0,0-1.08-1.18h0a1.15,1.15,0,0,0-1.23,1.08h0a.67.67,0,0,0,0,.2Zm-19.22-.24a1.21,1.21,0,0,0,1.16,1.19,1.18,1.18,0,0,0,1.18-1.19h0a1.18,1.18,0,0,0-1.18-1.18,1.21,1.21,0,0,0-1.16,1.24h0v-.07Zm-19.2-.23a1.14,1.14,0,0,0,1.08,1.18h0a1.18,1.18,0,1,0-1.13-1.23Zm-19.22-.24a1.18,1.18,0,0,0,2.36,0A1.21,1.21,0,0,0,899,207.6a1.18,1.18,0,0,0-1.2,1.16.24.24,0,0,0,0,.12Zm-19.22-.23a1.15,1.15,0,0,0,1.13,1.18h0a1.16,1.16,0,0,0,1.15-1.16h0a1.16,1.16,0,0,0-1.15-1.16h0a1.16,1.16,0,0,0-1.14,1.13Zm125-11.15a1.18,1.18,0,0,0,1.18,1.18h0a1.18,1.18,0,0,0,1.18-1.18h0a1.18,1.18,0,0,0-1.18-1.18h0a1.18,1.18,0,0,0-1.19,1.18Zm-19.2-.24a1.18,1.18,0,0,0,1.19,1.18h0a1.18,1.18,0,0,0,1.18-1.18h0a1.18,1.18,0,0,0-1.18-1.18h0a1.18,1.18,0,0,0-1.19,1.18Zm-19.22-.23a1.18,1.18,0,0,0,2.36.09h0a1.18,1.18,0,0,0-1.13-1.23h-.05a1.14,1.14,0,0,0-1.18,1.08v.06Zm-19.2-.24a1.14,1.14,0,0,0,1.09,1.18h0a1.18,1.18,0,0,0,1.18-1.18h0a1.18,1.18,0,0,0-1.18-1.18h0a1.14,1.14,0,0,0-1.15,1.12c0,.05,0,.1,0,.15Zm-19.22-.21a1.18,1.18,0,0,0,1.16,1.18,1.2,1.2,0,0,0,1.18-1.16,1.18,1.18,0,0,0-1.16-1.18,1.15,1.15,0,0,0-1.18,1.13h0v0Zm-19.22-.24a1.2,1.2,0,0,0,1.16,1.18,1.18,1.18,0,0,0,1.18-1.18h0a1.18,1.18,0,0,0-1.18-1.18,1.21,1.21,0,0,0-1.16,1.24h0ZM888.4,196a1.14,1.14,0,0,0,1.08,1.18h0a1.19,1.19,0,0,0,1.23-1.14,1.17,1.17,0,0,0-1.13-1.22h0A1.18,1.18,0,0,0,888.4,196h0Zm124.42,38.86a1.18,1.18,0,0,0,1.18,1.18h0a1.17,1.17,0,0,0,1.18-1.18h0a1.18,1.18,0,0,0-1.18-1.18h0a1.18,1.18,0,0,0-1.18,1.18Zm-19.22-.23a1.18,1.18,0,1,0,1.2-1.16h0a1.2,1.2,0,0,0-1.18,1.22h0v-.07Zm-19.2-.24a1.16,1.16,0,1,0,1.18-1.16,1.17,1.17,0,0,0-1.19,1.13h0v0Zm-19.23-.23a1.18,1.18,0,0,0,1.14,1.22,1.17,1.17,0,0,0,1.22-1.13A1.18,1.18,0,0,0,956.4,233h0a1.17,1.17,0,0,0-1.19,1.13h0v0ZM936,234a1.18,1.18,0,0,0,1.19,1.18h0a1.17,1.17,0,0,0,1.18-1.17h0a1.18,1.18,0,0,0-1.18-1.18h0A1.19,1.19,0,0,0,936,234Zm-19.22-.23a1.18,1.18,0,0,0,1.16,1.18,1.2,1.2,0,0,0,1.18-1.16,1.18,1.18,0,0,0-1.16-1.18,1.15,1.15,0,0,0-1.18,1.12,1.09,1.09,0,0,0,0,.18Zm-19.22-.24a1.2,1.2,0,0,0,1.16,1.18,1.18,1.18,0,0,0,0-2.36,1.2,1.2,0,0,0-1.11,1.28Zm-19.2-.23a1.14,1.14,0,0,0,1.09,1.18h.05a1.18,1.18,0,0,0,1.22-1.14h0a1.17,1.17,0,0,0-1.13-1.22h0a1.18,1.18,0,0,0-1.23,1.13Zm125-11.15a1.18,1.18,0,0,0,1.18,1.18h0a1.18,1.18,0,0,0,1.18-1.18h0a1.17,1.17,0,0,0-1.17-1.18h0a1.18,1.18,0,0,0-1.16,1.18Zm-19.22-.24a1.18,1.18,0,1,0,1.18-1.18h0a1.2,1.2,0,0,0-1.17,1.18Zm-19.22-.23a1.18,1.18,0,1,0,1.2-1.16h0a1.2,1.2,0,0,0-1.18,1.22h0v-.07Zm-19.2-.24a1.15,1.15,0,0,0,1.13,1.18h0a1.12,1.12,0,0,0,1.15-1.1h0a0,0,0,0,0,0,0,1.12,1.12,0,0,0-1.1-1.16h0a1.14,1.14,0,0,0-1.18,1.08h0a.38.38,0,0,0,0,.15Zm-19.22-.23a1.16,1.16,0,0,0,1.13,1.18h0a1.14,1.14,0,0,0,1.18-1.09h0v-.05a1.18,1.18,0,0,0-2.36,0h0Zm-19.2-.22a1.18,1.18,0,0,0,1.18,1.19h0a1.19,1.19,0,1,0-1.16-1.19Zm-19.22-.23a1.18,1.18,0,0,0,1.18,1.18h0a1.18,1.18,0,0,0,1.18-1.18h0a1.17,1.17,0,1,0-2.34,0Zm-19.22-.24a1.2,1.2,0,0,0,1.15,1.18,1.18,1.18,0,1,0,0-2.36,1.2,1.2,0,0,0-1.15,1.24h0v-.07Zm143.63,39.1a1.21,1.21,0,0,0,1.16,1.18,1.17,1.17,0,0,0,1.18-1.15,1.15,1.15,0,0,0-1.13-1.18h0a1.18,1.18,0,0,0-1.19,1.18v0Zm-19.2-.23a1.18,1.18,0,0,0,1.18,1.18h0a1.18,1.18,0,0,0,1.19-1.18h0a1.13,1.13,0,0,0-1.09-1.18h-.05a1.16,1.16,0,0,0-1.23,1.08h0v.1Zm-19.22-.24a1.18,1.18,0,1,0,1.2-1.17,1.18,1.18,0,0,0-1.2,1.17Zm-19.2-.23a1.18,1.18,0,0,0,2.36,0h0a1.17,1.17,0,0,0-1.18-1.18h0a1.17,1.17,0,0,0-1.15,1.17Zm-19.22-.24a1.18,1.18,0,0,0,1.18,1.18h0a1.18,1.18,0,0,0,1.18-1.18h0a1.15,1.15,0,0,0-1.13-1.18h0a1.13,1.13,0,0,0-1.21,1.05h0a.89.89,0,0,0,0,.23Zm-19.22-.21a1.16,1.16,0,0,0,1.16,1.16,1.14,1.14,0,0,0,1.18-1.09h0v-.05a1.18,1.18,0,0,0-1.18-1.18h0a1.18,1.18,0,0,0-1.18,1.18Zm-19.2-.24a1.18,1.18,0,0,0,1.18,1.18h0a1.18,1.18,0,0,0,1.18-1.18h0a1.17,1.17,0,1,0-2.33,0ZM878,258a1.18,1.18,0,0,0,1.18,1.18h0a1.18,1.18,0,0,0,0-2.36h0a1.17,1.17,0,0,0-1.15,1.17Zm125-11.18a1.19,1.19,0,0,0,1.13,1.23h0a1.17,1.17,0,0,0,1.22-1.13,1.18,1.18,0,0,0-1.13-1.23h0a1.14,1.14,0,0,0-1.18,1.08h0v.05Zm-19.22-.21a1.2,1.2,0,0,0,1.16,1.18,1.18,1.18,0,0,0,1.18-1.16,1.17,1.17,0,0,0-1.13-1.18h0a1.18,1.18,0,0,0-1.18,1.18h0v0Zm-19.2-.23a1.19,1.19,0,0,0,1.16,1.18,1.16,1.16,0,0,0,1.16-1.16h0a1.14,1.14,0,0,0-1.09-1.18h0a1.18,1.18,0,0,0-1.18,1.18v0Zm-19.22-.24a1.18,1.18,0,0,0,1.18,1.18h0a1.18,1.18,0,0,0,1.18-1.18h0a1.18,1.18,0,0,0-1.18-1.18h0a1.17,1.17,0,0,0-1.17,1.18Zm-19.2-.24A1.18,1.18,0,0,0,927.4,247h0a1.17,1.17,0,0,0,1.18-1.17h0a1.18,1.18,0,0,0-1.18-1.18h0A1.18,1.18,0,0,0,926.22,245.85Zm-19.2-.19a1.18,1.18,0,0,0,2.36.1h0a1.18,1.18,0,0,0-1.13-1.23h0a1.14,1.14,0,0,0-1.18,1.09h0s0,0,0,0Zm-19.22-.21a1.16,1.16,0,0,0,1.16,1.16,1.18,1.18,0,0,0,0-2.36,1.16,1.16,0,0,0-1.19,1.13h0v.12Zm-19.2-.23a1.18,1.18,0,1,0,1.18-1.19h0a1.18,1.18,0,0,0-1.16,1.18Zm134.16,26.42a1.18,1.18,0,0,0,1.16,1.18,1.15,1.15,0,0,0,1.18-1.13h0v0a1.12,1.12,0,0,0-1.11-1.16h0a1.17,1.17,0,0,0-1.19,1.13Zm-19.2-.23a1.17,1.17,0,0,0,1.14,1.18h0a1.18,1.18,0,0,0,1.18-1.18h0a1.18,1.18,0,0,0-1.18-1.18h0a1.15,1.15,0,0,0-1.16,1.11h0Zm-19.22-.22a1.18,1.18,0,0,0,2.36,0h0a1.17,1.17,0,0,0-1.17-1.18h0a1.19,1.19,0,0,0-1.18,1.18Zm-19.2-.23a1.18,1.18,0,0,0,1.18,1.18h0a1.19,1.19,0,0,0,1.19-1.18,1.13,1.13,0,0,0-1.09-1.18h0a1.15,1.15,0,0,0-1.22,1.08v.1Zm-19.22-.24a1.15,1.15,0,0,0,1.13,1.18h0a1.18,1.18,0,0,0,1.18-1.18h0a1.18,1.18,0,0,0-1.18-1.18h0a1.18,1.18,0,0,0-1.16,1.11Zm-19.22-.23a1.18,1.18,0,0,0,1.16,1.18,1.16,1.16,0,0,0,1.18-1.14v0a1.18,1.18,0,0,0-1.16-1.18,1.21,1.21,0,0,0-1.18,1.09Zm-19.2-.24a1.16,1.16,0,1,0,1.18-1.13,1.13,1.13,0,0,0-1.18,1.06Zm-17.8-1.35a3.15,3.15,0,0,0,.61.36,1.08,1.08,0,0,0-.61-.43Z" style="fill:#fff"/></g><g id="Caminho_17433" data-name="Caminho 17433" style="isolation:isolate;opacity:0.10000000149011612"><path d="M964.51,172.46a9.44,9.44,0,1,0,9.65-9.23H974a9.33,9.33,0,0,0-9.45,9.21h0Z"/></g><g id="Caminho_17434" data-name="Caminho 17434" style="isolation:isolate;opacity:0.10000000149011612"><path d="M902.31,171.75a9.46,9.46,0,0,0,9.23,9.66h0a9.45,9.45,0,0,0,9.66-9.23h0a9.45,9.45,0,0,0-9.23-9.66h-.21A9.45,9.45,0,0,0,902.31,171.75Z"/></g><g id="Caminho_17435" data-name="Caminho 17435"><path d="M967.51,172.46a6.32,6.32,0,0,0,6.25,6.4h0a6.32,6.32,0,0,0,6.4-6.25h0a6.33,6.33,0,0,0-12.65-.15Z" style="fill:#263238"/></g><g id="Caminho_17436" data-name="Caminho 17436"><path d="M905.22,171.8a6.32,6.32,0,0,0,6.25,6.4h0a6.32,6.32,0,0,0,6.4-6.26h0a6.33,6.33,0,1,0-12.65-.14Z" style="fill:#263238"/></g><g id="Caminho_17437" data-name="Caminho 17437"><path d="M911.52,173.24a3.57,3.57,0,0,0,3.62-3.52h0a177,177,0,0,1,5.73-33.5c3.73-13.32,10.56-29.16,21.75-29,20.71.23,27.82,52.51,27.68,63.18a3.57,3.57,0,0,0,4,3.14h0a3.57,3.57,0,0,0,3.13-3.14c0-.7-3.47-70-34.71-70.41C912.4,99.59,908,168.85,908,169.53a3.57,3.57,0,0,0,3.42,3.71Z" style="fill:#fff"/></g><g id="Caminho_17438" data-name="Caminho 17438"><path d="M556.6,380.26h-2.36V366.34c0-.77.51-1.08,1.67-1.7,2.6-1.44,9.45-5.22,9.45-12.06,0-10.75-7.65-11.6-10-11.6-5.88,0-11.81,3.55-11.81,11.46H541.2c0-9.45,7.37-13.82,14.17-13.82,5.71,0,12.35,3.66,12.35,14,0,8.24-7.79,12.51-10.72,14.16l-.45.26Z" style="fill:#263238"/></g><g id="Caminho_17439" data-name="Caminho 17439"><path d="M631.73,421h-5.12a8.44,8.44,0,0,0-3.45-6.62c-3.94-3-27.46-8.52-33.36-10.67s-23.76-10.22-27-11.64a23.05,23.05,0,0,0-15.25,0c-3.21,1.42-21.07,9.45-27,11.64s-29.42,7.67-33.34,10.67a8.38,8.38,0,0,0-3.45,6.62h-5.14c-3.08-3.36-3.15-7.56,2.5-12s26-10.87,33.05-13.77,30.2-18.63,33.7-19.6a35,35,0,0,1,14.69,0c3.5,1,26.61,16.72,33.7,19.6s27.37,9.45,33.06,13.77S634.8,417.68,631.73,421Z" style="fill:#fff"/></g><g id="Caminho_17440" data-name="Caminho 17440" style="isolation:isolate;opacity:0.20000000298023224"><path d="M631.73,421h-5.12a8.44,8.44,0,0,0-3.45-6.62c-3.94-3-27.46-8.52-33.36-10.67s-23.76-10.22-27-11.64a23.05,23.05,0,0,0-15.25,0c-3.21,1.42-21.07,9.45-27,11.64s-29.42,7.67-33.34,10.67a8.38,8.38,0,0,0-3.45,6.62h-5.14c-3.08-3.36-3.15-7.56,2.5-12s26-10.87,33.05-13.77,30.2-18.63,33.7-19.6a35,35,0,0,1,14.69,0c3.5,1,26.61,16.72,33.7,19.6s27.37,9.45,33.06,13.77S634.8,417.68,631.73,421Z"/></g><g id="Caminho_17441" data-name="Caminho 17441"><path d="M590.93,392.53s34.47,10,42.17,19.5c9.09,11.24,65,187,63.36,193.42a35.35,35.35,0,0,1-6.38,12l-31.64,6.88s-17.55-1.23-20.43-7.63S590.93,392.53,590.93,392.53Z" style="fill:#37474f"/></g><g id="Caminho_17442" data-name="Caminho 17442"><path d="M519.5,392.53s-34.5,10-42.2,19.5c-9.07,11.24-65,187-63.35,193.42a35.87,35.87,0,0,0,6.37,12L452,624.37s17.54-1.23,20.42-7.63S519.5,392.53,519.5,392.53Z" style="fill:#37474f"/></g><g id="Caminho_17443" data-name="Caminho 17443"><path d="M645.88,585.38a14.22,14.22,0,0,1-6.3,7.34v6.33H470.84v-6.28a13.9,13.9,0,0,1-6.31-7.34c-2.1-5.36,27.75-153.49,34.45-165.67a169.43,169.43,0,0,1,20.5-27.18s10,28.53,35.73,28.53,35.7-28.53,35.7-28.53,13.46,14.4,20.52,27.18C618.11,431.8,648,580,645.88,585.38Z" style="fill:#37474f"/></g><g id="Caminho_17444" data-name="Caminho 17444"><path d="M484.77,480.92c1.06-5.5,2-11,3-16.53s2.05-11.24,2.83-16.86a.14.14,0,1,0-.28,0c-1.32,5-2.36,10.11-3.52,15.16-.9,3.82-1.72,7.65-2.55,11.47v-2.05c0-3.57.21-7.08.54-10.65a.4.4,0,0,0-.8,0,70.56,70.56,0,0,0-.78,15,7.29,7.29,0,0,0,.17,1.86l-6.3,30.27c-4.23,20.36-8.24,40.76-12.3,61.16-1,5.17-2.62,11-1,16.2a11.07,11.07,0,0,0,7.89,7.84.18.18,0,0,0,.11-.24h0a.17.17,0,0,0-.11-.11c-4.13-1.52-6-5.93-6.28-10a56.59,56.59,0,0,1,2-14.47l5.88-29.43c3.75-18.74,7.36-37.5,11-56.27.35,0,.68-.26.35-.66a.21.21,0,0,0-.19,0h0C484.6,481.79,484.67,481.37,484.77,480.92Z" style="fill:#455a64"/></g><g id="Caminho_17445" data-name="Caminho 17445"><path d="M625.29,480.92c-1.06-5.5-2-11-3-16.53s-2.06-11.24-2.84-16.86a.15.15,0,0,1,.15-.14h0a.14.14,0,0,1,.14.14c1.32,5,2.36,10.11,3.52,15.16.9,3.82,1.72,7.65,2.55,11.47v-2.05c0-3.57-.22-7.08-.55-10.65a.4.4,0,0,1,.49-.29h0a.38.38,0,0,1,.29.29,69.92,69.92,0,0,1,.8,15c0,.61-.11,1.23-.16,1.86l6.45,30.11c4.22,20.35,8.24,40.76,12.3,61.16,1,5.17,2.62,11,1,16.2a11.09,11.09,0,0,1-7.88,7.84.19.19,0,0,1-.11-.25h0a.2.2,0,0,1,.11-.11c4.13-1.51,6-5.93,6.28-10a56.67,56.67,0,0,0-2-14.48l-5.88-29.42c-3.76-18.75-7.37-37.5-11-56.27-.36,0-.71-.26-.36-.66a.17.17,0,0,1,.19,0h0A4.54,4.54,0,0,1,625.29,480.92Z" style="fill:#455a64"/></g><g id="Caminho_17446" data-name="Caminho 17446"><path d="M661.65,380.26h-2.36V366.34c0-.77.52-1.08,1.65-1.7,2.62-1.44,9.45-5.22,9.45-12.06,0-10.75-7.65-11.6-10-11.6-5.9,0-11.81,3.55-11.81,11.46h-2.36c0-9.45,7.34-13.82,14.17-13.82,5.69,0,12.35,3.66,12.35,14,0,8.24-7.8,12.51-10.75,14.16l-.42.26Z" style="fill:#263238"/></g><g id="Caminho_17447" data-name="Caminho 17447"><path d="M736.79,421h-5.15a8.35,8.35,0,0,0-3.45-6.62c-3.92-3-27.44-8.52-33.34-10.67s-23.75-10.22-27-11.64a23.05,23.05,0,0,0-15.25,0c-3.24,1.42-21.06,9.45-27,11.64s-29.42,7.67-33.36,10.67a8.44,8.44,0,0,0-3.45,6.62h-5.14c-3.05-3.36-3.14-7.56,2.53-12s26-10.87,33-13.77,30.18-18.63,33.7-19.6a35,35,0,0,1,14.69,0c3.5,1,26.61,16.72,33.67,19.6s27.39,9.45,33.06,13.77S739.86,417.68,736.79,421Z" style="fill:#fff"/></g><g id="Caminho_17448" data-name="Caminho 17448" style="isolation:isolate;opacity:0.20000000298023224"><path d="M736.79,421h-5.15a8.35,8.35,0,0,0-3.45-6.62c-3.92-3-27.44-8.52-33.34-10.67s-23.75-10.22-27-11.64a23.05,23.05,0,0,0-15.25,0c-3.24,1.42-21.06,9.45-27,11.64s-29.42,7.67-33.36,10.67a8.44,8.44,0,0,0-3.45,6.62h-5.14c-3.05-3.36-3.14-7.56,2.53-12s26-10.87,33-13.77,30.18-18.63,33.7-19.6a35,35,0,0,1,14.69,0c3.5,1,26.61,16.72,33.67,19.6s27.39,9.45,33.06,13.77S739.86,417.68,736.79,421Z"/></g><g id="Caminho_17449" data-name="Caminho 17449"><path d="M750.91,703.87a14.19,14.19,0,0,1-6.31,7.34v6.33l-85,9.77-83.69-9.77v-6.33a13.88,13.88,0,0,1-6.3-7.34c-2.1-5.36,27.74-272.07,34.45-284.16a169.43,169.43,0,0,1,20.5-27.18s10,10.54,35.72,10.54S696,392.54,696,392.54s13.46,14.4,20.52,27.18C723.14,431.8,753,698.51,750.91,703.87Z" style="fill:#a6a6a6"/></g><g id="Caminho_17450" data-name="Caminho 17450"><path d="M696,392.53s34.5,10,42.2,19.5c9.07,11.24,65,187,63.33,193.42a35.64,35.64,0,0,1-6.35,12l-31.65,6.88S746,623.14,743,616.74,696,392.53,696,392.53Z" style="fill:#dbdbdb"/></g><g id="Caminho_17451" data-name="Caminho 17451"><path d="M624.53,392.53s-34.5,10-42.17,19.5c-9.09,11.24-65,187-63.35,193.42a35.33,35.33,0,0,0,6.37,12L557,624.37s17.55-1.23,20.43-7.63S624.53,392.53,624.53,392.53Z" style="fill:#dbdbdb"/></g><g id="Caminho_17452" data-name="Caminho 17452"><path d="M650.32,419.52V740.66l-74.46-23.61v-6.21a14,14,0,0,1-6.3-7.34C567.46,698.14,597.31,432,604,419.76a170.62,170.62,0,0,1,20.5-27.18S631.9,413.62,650.32,419.52Z" style="fill:#dbdbdb"/></g><g id="Caminho_17453" data-name="Caminho 17453"><path d="M750.91,703.45a14.19,14.19,0,0,1-6.31,7.34v6.33l-73,23.61V419c17.34-6.51,24.33-26.47,24.33-26.47s13.46,14.4,20.52,27.18C723.14,431.8,753,698.09,750.91,703.45Z" style="fill:#dbdbdb"/></g><g id="Caminho_17454" data-name="Caminho 17454"><path d="M597.45,455.2c-2.53,10.39-4,21.09-5.65,31.67l-.21,1.37.17-3.59c.14-3.87.21-7.72.28-11.57a.47.47,0,0,0-.5-.44.46.46,0,0,0-.44.44c-.22,5.05-.34,10.13-.43,15.18v3.64a25.69,25.69,0,0,0,0,3q-1.7,11.82-3.28,23.5c-2.83,21.11-5.55,42.27-7.56,63.48q-1.7,18-2.76,36.12a.24.24,0,0,0,.25.22.23.23,0,0,0,.22-.22q4.15-31.77,7.91-63.54t8.17-63.75q1.27-9,2.36-18.05c.71-5.85,1.59-11.8,2-17.61C598,454.94,597.52,454.92,597.45,455.2Z" style="fill:#a6a6a6"/></g><g id="Caminho_17455" data-name="Caminho 17455"><path d="M722.34,455.2c2.52,10.39,4,21.09,5.64,31.67a9,9,0,0,0,.19,1.37l-.14-3.59c-.14-3.87-.21-7.72-.29-11.57a.49.49,0,0,1,.5-.45.47.47,0,0,1,.45.45c.19,5.05.33,10.13.42,15.18v3.64a25.69,25.69,0,0,1,0,3q1.71,11.82,3.29,23.5c2.83,21.11,5.55,42.27,7.55,63.48,1.11,12,2,24.06,2.77,36.12a.25.25,0,0,1-.25.25.25.25,0,0,1-.25-.25q-4.11-31.77-7.89-63.54c-2.55-21.25-5.22-42.5-8.2-63.75q-1.25-9-2.36-18.05c-.71-5.85-1.58-11.8-2-17.61C721.79,454.94,722.27,454.92,722.34,455.2Z" style="fill:#a6a6a6"/></g><g id="Retângulo_2426" data-name="Retângulo 2426"><rect x="441.01" y="152.27" width="169.87" height="121.49" style="fill:#fff"/></g><g id="Retângulo_2427" data-name="Retângulo 2427" style="isolation:isolate;opacity:0.10000000149011612"><rect x="441.01" y="152.27" width="169.87" height="32.07"/></g><g id="Retângulo_2428" data-name="Retângulo 2428"><rect x="432.37" y="143.84" width="187.16" height="24.46" style="fill:#fff"/></g><g id="Retângulo_2429" data-name="Retângulo 2429"><rect x="504.79" y="180.8" width="42.34" height="11.78" style="fill:#263238"/></g><g id="Retângulo_2430" data-name="Retângulo 2430"><rect x="633.08" y="152.27" width="169.87" height="121.49" style="fill:#fff"/></g><g id="Retângulo_2431" data-name="Retângulo 2431" style="isolation:isolate;opacity:0.10000000149011612"><rect x="633.08" y="152.27" width="169.87" height="32.07"/></g><g id="Retângulo_2432" data-name="Retângulo 2432"><rect x="624.44" y="143.84" width="187.16" height="24.46" style="fill:#fff"/></g><g id="Retângulo_2433" data-name="Retângulo 2433"><rect x="696.83" y="180.8" width="42.34" height="11.78" style="fill:#263238"/></g></g><g id="Grupo_10223" data-name="Grupo 10223" style="opacity:0.550000011920929"><g id="Retângulo_2274" data-name="Retângulo 2274"><rect x="114.6" y="179.33" width="196.41" height="325.13" style="fill:#e0e0e0"/></g><g id="Retângulo_2275" data-name="Retângulo 2275"><rect x="108.08" y="179.33" width="196.41" height="325.13" style="fill:#ebebeb"/></g><g id="Retângulo_2276" data-name="Retângulo 2276"><rect x="116.44" y="185.93" width="179.7" height="311.94" style="fill:#fafafa"/></g><g id="Retângulo_2277" data-name="Retângulo 2277"><rect x="150.65" y="226.46" width="110.49" height="230.88" style="fill:#ebebeb"/></g><g id="Caminho_17164" data-name="Caminho 17164"><path d="M150.65,375.65c-.34-21.48,19.13-42.63,40.49-45.63,10.18-1.45,21,.57,30.51-3.32,17-7,22.39-29.53,39.53-36.23L262,457.34H150.65Z" style="fill:#e0e0e0"/></g></g><g id="Grupo_10228" data-name="Grupo 10228"><g id="Grupo_10227" data-name="Grupo 10227" style="opacity:0.17000000178813934"><g id="Caminho_17246" data-name="Caminho 17246"><path d="M231.44,690.23c-16.37-25-15.81-61.6,3.79-84.22,6.07-7,14.55-13.15,23.72-12.36s17.09,8.94,20,18,2,18.87.18,28.22c-2.35,13.1-6.32,26.48-15.41,36.2s-20.59,20.57-32.25,14.17" style="fill:#a5a5a5"/></g><g id="Caminho_17247" data-name="Caminho 17247"><path d="M238.73,809.87a37.38,37.38,0,0,1,10.42-42.47c3.75-3.06,8.67-5.43,13.37-4.19s7.9,6.15,8.66,11.07a30.68,30.68,0,0,1-2.45,14.56c-2.41,6.53-5.67,13.07-11.22,17.26s-13.34,8.12-18.78,3.77" style="fill:#a5a5a5"/></g><g id="Caminho_17248" data-name="Caminho 17248"><path d="M199.26,801.3A54.1,54.1,0,0,0,172,744.18c-6.24-3.24-13.83-5.15-20.2-2s-9.52,11.06-9,18.24,3.95,13.83,7.77,19.9c5.34,8.55,11.86,16.85,21,21.14s21.3,7.59,27.66-.16" style="fill:#a5a5a5"/></g><g id="Caminho_17249" data-name="Caminho 17249"><path d="M202.09,741.3c7.9-25.28-5.44-55.93-27.57-70.43-6.88-4.51-15.57-7.63-23.26-4.7s-12.37,11.75-12.62,20.15,3,16.52,6.71,24.07c5.2,10.55,11.86,21,21.94,27.05s26.42,12.12,34.8,3.86" style="fill:#a5a5a5"/></g><g id="Caminho_17250" data-name="Caminho 17250"><path d="M217.84,864.85a4.65,4.65,0,0,1-.26-1.23l-.53-3.43q-.15-1.16-.36-2.55c-.17-.93-.37-2-.57-3-.41-2.16-.85-4.63-1.54-7.3-.34-1.34-.67-2.74-1-4.2s-.87-3-1.32-4.53c-.83-3.14-2.1-6.38-3.26-9.88a196.23,196.23,0,0,0-9.74-21.64A195.51,195.51,0,0,0,186.58,787c-2.24-2.89-4.25-5.71-6.4-8.15l-3-3.63L174.21,772c-1.84-2.08-3.66-3.78-5.24-5.32l-2.17-2.15-2-1.7-2.65-2.39c-.59-.56-.91-.85-.87-.89a8.11,8.11,0,0,1,1,.73l2.79,2.23,2,1.64,2.26,2.1c1.62,1.5,3.47,3.18,5.35,5.23l3,3.14,3.09,3.58c2.19,2.43,4.24,5.26,6.52,8.14a176.45,176.45,0,0,1,12.78,20.18,181,181,0,0,1,9.75,21.74c1.14,3.5,2.37,6.76,3.18,9.88.43,1.56.87,3.08,1.28,4.54s.66,2.9.95,4.25c.68,2.71,1.05,5.2,1.4,7.37.18,1.07.34,2.1.5,3s.18,1.78.25,2.57c.14,1.46.24,2.62.32,3.55A7,7,0,0,1,217.84,864.85Z" style="fill:#263238"/></g><g id="Caminho_17251" data-name="Caminho 17251"><path d="M217.21,869.39a1.35,1.35,0,0,1,0-.49,7.14,7.14,0,0,1,.12-1.46c.12-1.38.3-3.26.51-5.63.12-1.23.26-2.57.4-4s.16-3.1.26-4.85c.12-3.45.45-7.41.34-11.85V834.2c0-2.39-.26-4.86-.38-7.43-.16-5.14-.87-10.59-1.48-16.34a257.79,257.79,0,0,0-7.67-36.7,253.65,253.65,0,0,0-13.54-35.06c-2.61-5.16-5-10.1-7.64-14.51-1.3-2.23-2.47-4.42-3.76-6.44L180.56,712c-2.28-3.74-4.7-6.86-6.7-9.7-1-1.4-2-2.75-2.85-3.95l-2.55-3.18-3.5-4.43-.89-1.17a3.62,3.62,0,0,1-.27-.41,1.93,1.93,0,0,1,.35.35l1,1.09c.91,1,2.11,2.49,3.66,4.31L171.4,698c.93,1.17,2,2.49,2.93,4,2,2.81,4.52,5.93,6.86,9.65l3.79,5.75c1.3,2,2.49,4.21,3.81,6.42,2.69,4.41,5.12,9.37,7.77,14.53a249,249,0,0,1,13.67,35.17,249.1,249.1,0,0,1,7.71,37c.61,5.77,1.27,11.24,1.4,16.4,0,2.59.32,5.08.32,7.47v6.9c0,4.38-.32,8.34-.5,11.85-.12,1.74-.2,3.36-.33,4.85s-.34,2.82-.5,4c-.3,2.37-.53,4.25-.71,5.61a7.69,7.69,0,0,1-.21,1.44A1.63,1.63,0,0,1,217.21,869.39Z" style="fill:#263238"/></g><g id="Caminho_17252" data-name="Caminho 17252"><path d="M259.86,623.89a2.26,2.26,0,0,1-.22.47c-.18.36-.42.79-.71,1.33-.67,1.2-1.6,2.88-2.79,5-.59,1.09-1.32,2.27-2,3.62l-2.2,4.38c-.79,1.58-1.62,3.28-2.53,5.06s-1.66,3.78-2.55,5.79-2,4.15-2.76,6.4l-2.73,7L240,666.68l-1.32,4c-.89,2.63-1.8,5.35-2.73,8.12-3.47,11.22-6.76,23.71-9.52,37s-4.59,26.07-5.93,37.73-2,22.21-2.31,31.11c-.24,4.43-.28,8.46-.3,12s0,6.58,0,9.05v7.68a1.46,1.46,0,0,1,0-.51v-1.48c0-1.38-.16-3.3-.28-5.71s-.2-5.53-.2-9.07,0-7.55.12-12c.16-8.92.95-19.49,2.09-31.2a374.65,374.65,0,0,1,5.93-37.83,359.48,359.48,0,0,1,9.48-37.1l2.78-8.14c.46-1.3.91-2.61,1.35-4s1-2.49,1.46-3.71l2.78-7c.93-2.25,2-4.37,2.85-6.4s1.76-4,2.63-5.77l2.61-5c.81-1.56,1.58-3,2.27-4.39s1.48-2.49,2.12-3.55c1.24-2.08,2.23-3.72,3-4.9l.79-1.27A2.78,2.78,0,0,1,259.86,623.89Z" style="fill:#263238"/></g><g id="Caminho_17253" data-name="Caminho 17253"><path d="M254.28,777.46a19.9,19.9,0,0,1-1.74,3c-1.18,2-2.82,4.75-4.76,8.28s-3.95,7.9-6.19,12.73a122.47,122.47,0,0,0-5.92,16.23,166.46,166.46,0,0,0-4.29,16.75,132.27,132.27,0,0,0-2,14c-.31,4-.65,7.28-.73,9.53a20.59,20.59,0,0,1-.3,3.5,23,23,0,0,1-.12-3.52,92.77,92.77,0,0,1,.4-9.58c.4-4,.91-8.84,1.84-14.11a143.72,143.72,0,0,1,10.28-33.24,134.87,134.87,0,0,1,6.44-12.69,90,90,0,0,1,5.08-8.14A22.57,22.57,0,0,1,254.28,777.46Z" style="fill:#263238"/></g><g id="Caminho_17254" data-name="Caminho 17254"><path d="M185.69,853.58h71.87L248.86,927h-54.2Z" style="fill:#455a64"/></g><g id="Caminho_17255" data-name="Caminho 17255"><path d="M188.32,919.08l6.1,7.92h54.45l6.28-7.67Z" style="fill:#263238"/></g><g id="Caminho_17256" data-name="Caminho 17256"><path d="M254.76,875.19c0,.3-14.92.53-33.32.53s-33.32-.24-33.32-.53,14.92-.54,33.32-.54S254.76,874.89,254.76,875.19Z" style="fill:#fafafa"/></g><g id="Caminho_17257" data-name="Caminho 17257"><path d="M254.76,880.07c0,.3-14.92.53-33.32.53s-33.32-.24-33.32-.53,14.92-.54,33.32-.54S254.76,879.77,254.76,880.07Z" style="fill:#fafafa"/></g><g id="Caminho_17258" data-name="Caminho 17258"><path d="M253.87,884.81c0,.28-14.39.53-32.14.53s-32.19-.25-32.19-.53,14.39-.55,32.15-.55S253.87,884.51,253.87,884.81Z" style="fill:#fafafa"/></g><g id="Caminho_17259" data-name="Caminho 17259"><path d="M196.68,695.39a4,4,0,0,1,0,.69,8.25,8.25,0,0,1-.18,2c-.18,1.84-.44,4.31-.73,7.31-.66,6.19-1.62,14.7-2.71,24.11a9.44,9.44,0,0,1-.14,1v.31h-.33c-9.23.14-17.53.24-23.54.26h-9.82a2.51,2.51,0,0,1,.67,0l2-.1,7.1-.22c5.93-.16,14.3-.34,23.53-.49l-.35.33.12-1.07c1.1-9.4,2.13-17.9,2.92-24.07.4-3,.73-5.45,1-7.29l.3-2A2.61,2.61,0,0,1,196.68,695.39Z" style="fill:#263238"/></g><g id="Caminho_17260" data-name="Caminho 17260"><path d="M180.33,673.43a2.81,2.81,0,0,1,0,.71v9.65c0,6.4-.25,15.24-.49,25v1.54h-.38a226.46,226.46,0,0,0-24.16-.54c-3.09.1-5.58.22-7.3.32h-2.67a2.64,2.64,0,0,1,.74-.1l2-.22c1.72-.17,4.21-.4,7.29-.55a194.3,194.3,0,0,1,24.25.34l-.4.35v-1.16c.24-9.75.5-18.58.71-25,.14-3.1.24-5.67.32-7.57a9.41,9.41,0,0,1,.12-2A2.62,2.62,0,0,1,180.33,673.43Z" style="fill:#263238"/></g><g id="Caminho_17261" data-name="Caminho 17261"><path d="M161.2,666a11.76,11.76,0,0,1,.46,2.1l1.06,5.79c.93,4.86,2.4,11.6,4.45,18.95l.22.77-.73-.33-.87-.42a62,62,0,0,0-19.15-5.61c-2.55-.32-4.65-.44-6.07-.48a14.09,14.09,0,0,1-2.25-.13,2,2,0,0,1,.59,0h1.66a54.54,54.54,0,0,1,6.13.25,58.53,58.53,0,0,1,19.4,5.36l.87.43-.51.42A177.8,177.8,0,0,1,162.23,674c-.41-2.45-.69-4.45-.85-5.83A13.51,13.51,0,0,1,161.2,666Z" style="fill:#263238"/></g><g id="Caminho_17262" data-name="Caminho 17262"><path d="M262.66,799.78c0,.11-2-.1-5.43-.22a86.45,86.45,0,0,0-13.07.42l-3,.37h-.34V800c-.77-4.34-1.42-8.18-1.85-10.92a31.41,31.41,0,0,1-.58-4.43,27,27,0,0,1,1,4.35c.57,2.72,1.3,6.54,2.12,10.89l-.42-.3c1-.14,2-.28,3-.38a71.53,71.53,0,0,1,13.17-.22c1.7.12,3,.3,3.95.44A6.09,6.09,0,0,1,262.66,799.78Z" style="fill:#263238"/></g><g id="Caminho_17263" data-name="Caminho 17263"><path d="M269.5,786.29c0,.12-2-.35-5.28-.75a57.73,57.73,0,0,0-12.74-.13l-2.26.27h-.37v-.37c-.46-4.47-.83-8.42-1-11.27a29.24,29.24,0,0,1-.24-4.58,28.93,28.93,0,0,1,.72,4.52c.35,2.85.81,6.78,1.28,11.25l-.41-.32,2.29-.27a49.76,49.76,0,0,1,12.9.33c1.62.26,2.92.58,3.83.81A5.23,5.23,0,0,1,269.5,786.29Z" style="fill:#263238"/></g><g id="Caminho_17264" data-name="Caminho 17264"><path d="M274.36,658.61l-.71.36-2.1.95-7.78,3.3-25.69,10.67-1.39.57-.31.12-.16-.32L225.35,649.7l-3.2-7.43c-.34-.83-.61-1.48-.83-2a2.87,2.87,0,0,1-.26-.71,2.51,2.51,0,0,1,.38.65l1,2,3.4,7.35L236.89,674l-.47-.18,1.4-.57,25.75-10.71,7.9-3.1,2.15-.79C274.08,658.61,274.34,658.47,274.36,658.61Z" style="fill:#263238"/></g><g id="Caminho_17265" data-name="Caminho 17265"><path d="M280.67,627.47a4.53,4.53,0,0,1-.63.45l-2,1.23-7,4.36L247.62,647.8l-.35.22-.16-.42-.44-1.12c-3.81-10.3-7.27-19.63-9.88-26.48l-2.9-8-.75-2.19a4.42,4.42,0,0,1-.22-.79,2.49,2.49,0,0,1,.36.73l.88,2.15,3.1,7.9c2.61,6.84,6.13,16.13,10,26.39l.42,1.12-.53-.17L270.71,633l7.13-4.17,2-1.11A3.09,3.09,0,0,1,280.67,627.47Z" style="fill:#263238"/></g><g id="Caminho_17266" data-name="Caminho 17266"><path d="M278.59,610.89a9.27,9.27,0,0,1-1.54.93c-1,.55-2.47,1.36-4.25,2.47a75.46,75.46,0,0,0-13,10.2l-.89.87.3-1.23c.31-1.28.61-2.63.83-4A46.51,46.51,0,0,0,259,601a51.86,51.86,0,0,0-1.84-5.57,20.77,20.77,0,0,1-.77-2,10.34,10.34,0,0,1,1,2,38.55,38.55,0,0,1,2,5.55,44.83,44.83,0,0,1,1.24,19.41,41.24,41.24,0,0,1-.85,4.09l-.59-.34a69.08,69.08,0,0,1,13.28-10.1c1.82-1.05,3.32-1.8,4.36-2.29A8.81,8.81,0,0,1,278.59,610.89Z" style="fill:#263238"/></g><g id="Caminho_17267" data-name="Caminho 17267"><path d="M196.58,772.05a9.68,9.68,0,0,1-.32,1.85c-.26,1.19-.61,2.91-1,5a126.66,126.66,0,0,0-2,17v.31H193l-1.62.1c-7.11.44-13.58.79-18.24,1l-5.53.22a10.91,10.91,0,0,1-2,0,10.16,10.16,0,0,1,2-.28l5.51-.43c4.66-.36,11.13-.79,18.24-1.21l1.62-.1-.36.34a105.71,105.71,0,0,1,2.18-17.08c.45-2.15.89-4,1.22-5A9.42,9.42,0,0,1,196.58,772.05Z" style="fill:#263238"/></g><g id="Caminho_17268" data-name="Caminho 17268"><path d="M182.47,751.79a11,11,0,0,1-.12,2c-.16,1.34-.36,3-.59,5.11-.52,4.31-1.29,10.32-2.2,17.06v.3h-.3l-2.31.14c-7.31.49-13.83,1.26-18.65,1.88l-5.64.75a13,13,0,0,1-2,.21,8.88,8.88,0,0,1,2-.49c1.3-.26,3.22-.61,5.6-1,4.76-.75,11.34-1.58,18.67-2.07l2.31-.16-.33.31c.93-6.73,1.8-12.72,2.43-17,.33-2,.61-3.76.81-5.08A7.87,7.87,0,0,1,182.47,751.79Z" style="fill:#263238"/></g><g id="Caminho_17269" data-name="Caminho 17269"><path d="M165.83,743.08c.12,0-.32,2-.83,5.17A89.1,89.1,0,0,0,163.85,761v.4h-.41l-1.21-.16a114,114,0,0,0-13.57-.81h-4.13a9.77,9.77,0,0,1-1.53,0,6.13,6.13,0,0,1,1.53-.26c1-.1,2.37-.2,4.13-.27a86.79,86.79,0,0,1,13.67.59l1.21.16-.42.35a74.16,74.16,0,0,1,1.4-12.78c.32-1.6.63-2.89.87-3.76A6.36,6.36,0,0,1,165.83,743.08Z" style="fill:#263238"/></g><g id="Caminho_17270" data-name="Caminho 17270"><path d="M260.53,763.35a65.84,65.84,0,0,1-3.22,7.29,70.56,70.56,0,0,1-3.44,7.18,31.46,31.46,0,0,1,2.86-7.51A32.43,32.43,0,0,1,260.53,763.35Z" style="fill:#263238"/></g><g id="Caminho_17271" data-name="Caminho 17271"><path d="M269.56,772.9a68.58,68.58,0,0,0-8.16,1.66,76.25,76.25,0,0,0-7.69,3.24,19.12,19.12,0,0,1,7.47-4A18.77,18.77,0,0,1,269.56,772.9Z" style="fill:#263238"/></g></g></g></g></svg>