<svg xmlns="http://www.w3.org/2000/svg" width="374" height="446.27" viewBox="0 0 374 446.27">
  <g id="Group_1607" data-name="Group 1607" transform="translate(-905 -492)">
    <ellipse id="Ellipse_95" data-name="Ellipse 95" cx="135" cy="23" rx="135" ry="23" transform="translate(1009 870)" fill="#d5dae5"/>
    <ellipse id="Ellipse_96" data-name="Ellipse 96" cx="135" cy="23" rx="135" ry="23" transform="translate(905 891)" fill="#d5dae5"/>
    <g id="Group_1492" data-name="Group 1492" transform="translate(-3136.799 -13729.692)">
      <g id="freepik--Chair--inject-23" transform="translate(4221.981 14345.27)">
        <rect id="Rectangle_1230" data-name="Rectangle 1230" width="6.175" height="126.064" transform="translate(112.878 160.684)" fill="#455a64"/>
        <rect id="Rectangle_1231" data-name="Rectangle 1231" width="6.175" height="126.064" transform="translate(12.54 160.684)" fill="#455a64"/>
        <rect id="Rectangle_1232" data-name="Rectangle 1232" width="103.348" height="5.64" transform="translate(14.167 190.767)" fill="#455a64"/>
        <path id="Path_6752" data-name="Path 6752" d="M-3123.855-59.1h-118.251a15.682,15.682,0,0,1,15.683-15.671h113.134v5.116A10.566,10.566,0,0,1-3123.855-59.1Z" transform="translate(3242.106 228.61)" fill="#455a64"/>
        <path id="Path_6753" data-name="Path 6753" d="M-3190.6-187.47h49.455a14.245,14.245,0,0,1,14.246,14.244V-29.9h-77.946V-173.226A14.245,14.245,0,0,1-3190.6-187.47Z" transform="translate(3255.707 187.47)" fill="#455a64"/>
        <path id="Path_6754" data-name="Path 6754" d="M-3134.642-187.47v2.341c0,1.56,0,3.811.056,6.687,0,5.863,0,14.289.1,24.7,0,20.865,0,49.656.078,81.456v39.792h-.279l-54.449-.112-15.582-.045H-3210a1.2,1.2,0,0,1-.356,0h5.64l15.6-.078,54.45-.1-.268.268V-72.073c0-31.8.067-60.591.088-81.456,0-10.411.067-18.838.089-24.7,0-2.9,0-5.149.056-6.687v-1.75A6.157,6.157,0,0,1-3134.642-187.47Z" transform="translate(3253.696 187.47)" fill="#263238"/>
        <path id="Path_6755" data-name="Path 6755" d="M-3149.41-61.3a7.219,7.219,0,0,1,.468-2.4,16.557,16.557,0,0,0,.557-2.531,4.021,4.021,0,0,0-.658-2.887,12.9,12.9,0,0,0-4.146-3.912,23.331,23.331,0,0,0-2.119-1.114,5.853,5.853,0,0,1,2.319.8,11.973,11.973,0,0,1,4.458,3.946,4.34,4.34,0,0,1,.691,1.638,5.8,5.8,0,0,1,0,1.639,14.4,14.4,0,0,1-.7,2.585A17.162,17.162,0,0,1-3149.41-61.3Z" transform="translate(3273.791 228.84)" fill="#263238"/>
      </g>
      <g id="freepik--Character--inject-23" transform="translate(4097.292 14221.692)">
        <path id="Path_6756" data-name="Path 6756" d="M-3302.6-17.115l8.338,33.438s-31.154,19.684-30.207,26l65.328-13.821-10.845-52.577Z" transform="translate(3336.723 370.695)" fill="#f9afa1"/>
        <g id="Group_1447" data-name="Group 1447" transform="translate(59.317 379.829)" opacity="0.6">
          <path id="Path_6757" data-name="Path 6757" d="M-3287.254.254a2.742,2.742,0,0,1,2.5,2.665,2.62,2.62,0,0,1-2.609,2.486,2.888,2.888,0,0,1-2.63-2.82,2.73,2.73,0,0,1,3.01-2.3" transform="translate(3289.996 -0.254)" fill="#fff"/>
        </g>
        <g id="Group_1448" data-name="Group 1448" transform="translate(12.117 393.895)" opacity="0.6">
          <path id="Path_6758" data-name="Path 6758" d="M-3259.105,15.82l-1.3-5.261-62.152,15.226s-2.641,1.884-1.873,3.856Z" transform="translate(3324.574 -10.559)" fill="#fff"/>
        </g>
        <path id="Path_6759" data-name="Path 6759" d="M-3303.174,5.568c.078.322,1.705.121,3.5.824s2.9,1.85,3.166,1.661-.591-1.929-2.775-2.731S-3303.3,5.288-3303.174,5.568Z" transform="translate(3344.501 381.295)" fill="#263238"/>
        <path id="Path_6760" data-name="Path 6760" d="M-3307.756,8.615c0,.324,1.494.569,2.864,1.694s1.984,2.475,2.3,2.4.134-1.929-1.594-3.288S-3307.812,8.3-3307.756,8.615Z" transform="translate(3342.83 382.538)" fill="#263238"/>
        <path id="Path_6761" data-name="Path 6761" d="M-3308.345,16.493c.3,0,.413-1.672-.781-3.254s-2.831-1.951-2.909-1.65,1.048,1.027,2.007,2.341S-3308.668,16.538-3308.345,16.493Z" transform="translate(3341.267 383.677)" fill="#263238"/>
        <path id="Path_6762" data-name="Path 6762" d="M-3303.937.2c.19.255,1.56-.491,3.345-.747s3.343,0,3.465-.3-1.482-1.114-3.633-.824S-3304.148-.024-3303.937.2Z" transform="translate(3344.216 378.849)" fill="#263238"/>
        <g id="Group_1449" data-name="Group 1449" transform="translate(35.642 352.119)" opacity="0.3">
          <path id="Path_6763" data-name="Path 6763" d="M-3307.339-12.577l1.627,6.554,32.045-7.089-1.416-6.933Z" transform="translate(3307.339 20.045)"/>
        </g>
        <path id="Path_6764" data-name="Path 6764" d="M-3305.086-3.4c0,.134,1.327.067,3.266-.7a15.279,15.279,0,0,0,3.209-1.784,15.279,15.279,0,0,0,1.661-1.394,3.973,3.973,0,0,0,.825-.98,1.4,1.4,0,0,0-.212-1.728,1.806,1.806,0,0,0-1.549-.423,3.917,3.917,0,0,0-1.193.423,11.888,11.888,0,0,0-1.884,1.115,11.677,11.677,0,0,0-2.6,2.62c-1.227,1.727-1.482,3.032-1.372,3.065s.7-1.114,2-2.564a13.593,13.593,0,0,1,2.574-2.229,12.646,12.646,0,0,1,1.75-.981c.658-.322,1.238-.456,1.482-.177.09.1.112.145,0,.378a3.593,3.593,0,0,1-.613.714,17.014,17.014,0,0,1-1.515,1.36,18.834,18.834,0,0,1-2.911,1.873A24.938,24.938,0,0,0-3305.086-3.4Z" transform="translate(3343.805 375.67)" fill="#263238"/>
        <path id="Path_6765" data-name="Path 6765" d="M-3303.128-2.368c.121,0,.512-1.26.188-3.344a10.508,10.508,0,0,0-1.2-3.489,10.765,10.765,0,0,0-1.249-1.817,2.778,2.778,0,0,0-2.441-1.2,1.552,1.552,0,0,0-1.115,1.2,4.21,4.21,0,0,0-.078,1.271,7.325,7.325,0,0,0,.457,2.229,7.7,7.7,0,0,0,2.117,3.088c1.64,1.426,3.044,1.527,3.055,1.4a17.538,17.538,0,0,1-2.5-1.985,7.58,7.58,0,0,1-1.683-2.853,7.018,7.018,0,0,1-.347-1.906c0-.714.1-1.327.379-1.316a2.384,2.384,0,0,1,1.371.837,11.02,11.02,0,0,1,1.182,1.6,11.963,11.963,0,0,1,1.327,3.133C-3303.229-3.649-3303.308-2.391-3303.128-2.368Z" transform="translate(3342.361 375.019)" fill="#263238"/>
        <path id="Path_6766" data-name="Path 6766" d="M-3247.7-16.493l1.549,46.346-9.352,37.016a4.75,4.75,0,0,0,3.435,5.771c.106.027.214.05.322.07h0a4.724,4.724,0,0,0,4.158-1.271c7.011-6.855,32.659-32.223,32.324-35.611-.347-3.914,1.627-49.045,1.627-49.045Z" transform="translate(3361.853 373.461)" fill="#f9afa1"/>
        <g id="Group_1450" data-name="Group 1450" transform="translate(110.11 406.167)" opacity="0.6">
          <path id="Path_6767" data-name="Path 6767" d="M-3252.764,59.553l36.482-40v1.962a7.135,7.135,0,0,1-1.65,4.66c-2.909,3.488-11.146,12.952-30.551,32.111a4.759,4.759,0,0,1-4.3,1.271Z" transform="translate(3252.786 -19.549)" fill="#fff"/>
        </g>
        <g id="Group_1451" data-name="Group 1451" transform="translate(135.734 390.83)" opacity="0.6">
          <path id="Path_6768" data-name="Path 6768" d="M-3232.866,8.781a2.877,2.877,0,0,0-.747,3.768,2.754,2.754,0,0,0,3.724.77,3.03,3.03,0,0,0,.769-3.979c-.891-1.115-3.021-1.439-3.968-.379" transform="translate(3234.015 -8.313)" fill="#fff"/>
        </g>
        <path id="Path_6769" data-name="Path 6769" d="M-3242.655,35.326c-.257.134-1.327-2.285-4.1-3.567s-5.283-.68-5.349-.96.546-.479,1.627-.646a7.566,7.566,0,0,1,7.311,3.5C-3242.621,34.6-3242.543,35.292-3242.655,35.326Z" transform="translate(3363.143 390.47)" fill="#263238"/>
        <path id="Path_6770" data-name="Path 6770" d="M-3245.232,39.367c-.223.212-1.728-1.282-4.135-1.951s-4.459-.244-4.537-.535,2.1-1.237,4.816-.445S-3245,39.246-3245.232,39.367Z" transform="translate(3362.487 392.67)" fill="#263238"/>
        <path id="Path_6771" data-name="Path 6771" d="M-3237.24,29.451c-.223.223-2.519-2.084-6.174-3.433s-6.878-1.226-6.889-1.538,3.344-.925,7.256.58S-3237.029,29.373-3237.24,29.451Z" transform="translate(3363.802 388.275)" fill="#263238"/>
        <path id="Path_6772" data-name="Path 6772" d="M-3236.984,18.207c-.123.278-2.687-.77-6.031-.848s-5.962.736-6.063.446,2.519-1.605,6.1-1.472S-3236.84,17.985-3236.984,18.207Z" transform="translate(3364.249 385.441)" fill="#263238"/>
        <path id="Path_6773" data-name="Path 6773" d="M-3236.975,8.284c-.145.268-2.73-1.249-6.253-1.048s-5.974,1.862-6.13,1.605.424-.68,1.482-1.316a10.31,10.31,0,0,1,4.6-1.315,10.169,10.169,0,0,1,4.692.9C-3237.465,7.647-3236.908,8.183-3236.975,8.284Z" transform="translate(3364.139 381.745)" fill="#263238"/>
        <path id="Path_6774" data-name="Path 6774" d="M-3242.862,7.5a4.073,4.073,0,0,1-.078-1.75,12.1,12.1,0,0,1,1.338-4.615,5.465,5.465,0,0,1,2.3-2.6,1.9,1.9,0,0,1,2.151.4,3.083,3.083,0,0,1,.758,2.084,6.69,6.69,0,0,1-5.818,6.276,7.8,7.8,0,0,1-7.691-3.991,2.671,2.671,0,0,1-.157-2.229,1.884,1.884,0,0,1,1.951-1.014,6.706,6.706,0,0,1,3.077,1.56,13.829,13.829,0,0,1,3.2,3.567,4.035,4.035,0,0,1,.725,1.594A21.365,21.365,0,0,0-3245.47,2.2a6.18,6.18,0,0,0-2.652-1.26.984.984,0,0,0-1.115.546,1.9,1.9,0,0,0,.19,1.472,6.956,6.956,0,0,0,6.688,3.344,5.83,5.83,0,0,0,5.015-5.261,2.224,2.224,0,0,0-.468-1.482,1.037,1.037,0,0,0-1.181-.235,4.824,4.824,0,0,0-1.984,2.175A17.831,17.831,0,0,0-3242.862,7.5Z" transform="translate(3363.828 378.884)" fill="#263238"/>
        <path id="Path_6775" data-name="Path 6775" d="M-3214.679-115.187c-2.8.457-80.053-8.415-95.669-6.4-16.072,2.084-23.741,20.376-23.061,30.541,1.114,16.285,27.508,117.3,27.508,117.3l42.356-7.857-14.4-90.285s42.7,14.289,53.5,13.81,22.682-24.733,22.682-24.733Z" transform="translate(3333.451 334.989)" fill="#263238"/>
        <path id="Path_6776" data-name="Path 6776" d="M-3228.586-112.24s-13.666-5.449-24.856,12.083c-6.085,9.529-4.247,25.848-4.247,25.848l6.4,113.491,42.769,1.983,2.006-98.822s1.471,2.8,8.538,2.842,30.272,2.62,37.083-9.285,6.13-30.1,6.13-30.1l4.458-18.012-57.959-10.912Z" transform="translate(3361.011 334.539)" fill="#263238"/>
        <path id="Path_6777" data-name="Path 6777" d="M-3226.812-113.883a20.805,20.805,0,0,0-4.18-1.2,19.308,19.308,0,0,0-11.5,1.918c-4.525,2.151-8.851,6.687-11.447,12.818a39.857,39.857,0,0,0-2.786,10.032,71.26,71.26,0,0,0-.658,11.146c0,3.834.245,7.591.4,11.214s.312,7.123.458,10.455c.278,6.687.534,12.662.747,17.711s.334,9.073.445,11.937c0,1.383.078,2.464.1,3.256v.835a1.148,1.148,0,0,1,0,.289,1.107,1.107,0,0,1,0-.278,4.2,4.2,0,0,0-.066-.846q-.068-1.181-.2-3.243c-.157-2.865-.369-6.922-.636-11.928s-.546-11.046-.87-17.7q-.234-5.017-.49-10.456c-.166-3.621-.378-7.378-.412-11.247a70.082,70.082,0,0,1,.68-11.245,39.408,39.408,0,0,1,2.853-10.111c2.653-6.174,7.123-10.833,11.76-12.973a19.256,19.256,0,0,1,11.715-1.773,14.9,14.9,0,0,1,3.131.926l.77.358C-3226.89-113.939-3226.8-113.894-3226.812-113.883Z" transform="translate(3361.021 337.308)" fill="#455a64"/>
        <path id="Path_6778" data-name="Path 6778" d="M-3220.194-88.75a11.118,11.118,0,0,1,.145,1.739c0,1.115.09,2.721.1,4.715,0,3.991,0,9.486-.145,15.605s-.224,11.469-.312,15.605c0,1.906-.056,3.5-.078,4.715a10.8,10.8,0,0,1-.078,1.727,9.345,9.345,0,0,1-.146-1.727c-.055-1.115-.088-2.731-.111-4.715,0-3.991,0-9.5.145-15.605s.233-11.48.313-15.605c0-1.917.066-3.5.088-4.715A9.5,9.5,0,0,1-3220.194-88.75Z" transform="translate(3374.566 347.084)" fill="#455a64"/>
        <path id="Path_6779" data-name="Path 6779" d="M-3215.077-89.125a10.551,10.551,0,0,1,.066,2.82,32.073,32.073,0,0,1-1.114,6.687,31.635,31.635,0,0,1-2.531,6.342,10.3,10.3,0,0,1-1.526,2.374,20.576,20.576,0,0,1,1.114-2.564,42.945,42.945,0,0,0,2.33-6.23,44.807,44.807,0,0,0,1.282-6.61A17.81,17.81,0,0,1-3215.077-89.125Z" transform="translate(3374.799 346.948)" fill="#455a64"/>
        <path id="Path_6780" data-name="Path 6780" d="M-3303.91-98.605a3.047,3.047,0,0,1,.913.268,16.383,16.383,0,0,1,2.375,1.114,24.278,24.278,0,0,1,6.687,5.328,24.573,24.573,0,0,1,4.458,7.313,17.344,17.344,0,0,1,.781,2.486,3.481,3.481,0,0,1,.156.947c-.1,0-.446-1.293-1.314-3.277a27.09,27.09,0,0,0-11.024-12.438C-3302.7-98.015-3303.955-98.527-3303.91-98.605Z" transform="translate(3344.234 343.487)" fill="#455a64"/>
        <path id="Path_6781" data-name="Path 6781" d="M-3299.067-104.19a7,7,0,0,1,.758.769,25.543,25.543,0,0,1,1.773,2.318,39.546,39.546,0,0,1,6.776,17.923,28.952,28.952,0,0,1,.2,2.921,3.677,3.677,0,0,1-.056,1.114c-.1,0-.177-1.515-.557-3.934a45.649,45.649,0,0,0-6.687-17.746C-3298.2-102.931-3299.134-104.135-3299.067-104.19Z" transform="translate(3346.001 341.448)" fill="#455a64"/>
        <path id="Path_6782" data-name="Path 6782" d="M-3242.239-205.722l-11.47,136.062c5.718-2.574,11.9-5.518,14.858-5.952a19.781,19.781,0,0,1,8.727.434l13.989-3.488,61.572,4.046-37-143.252-13.922-6.777Z" transform="translate(3362.559 297.476)" fill="#263238"/>
        <path id="Path_6783" data-name="Path 6783" d="M-3216.316-224.648l7.658,4.939s34.642,12.673,38.23,17.833,12.506,92.2,12.506,92.2-.235,52.489.445,54.8c.369,1.26,4.527,1.694,4.069,5.729a5.709,5.709,0,0,1-3.567,4.559l-14.557,5.973s1.783-23.987-10.923-32.134-21.369-7.6-21.369-7.6l-.6-37.283-12.85-59.31s10.677-9.808,4.558-35.835C-3213.854-215.5-3216.316-224.648-3216.316-224.648Z" transform="translate(3375.86 297.476)" fill="#f9afa1"/>
        <path id="Path_6784" data-name="Path 6784" d="M-3176.063-99.362a4.352,4.352,0,0,1-1.036-.5,20.2,20.2,0,0,1-2.62-1.7,29.525,29.525,0,0,1-3.511-3.054,33.831,33.831,0,0,1-3.6-4.458,34.342,34.342,0,0,1-2.719-5,29.454,29.454,0,0,1-1.493-4.4,24.726,24.726,0,0,1-.581-3.075,3.973,3.973,0,0,1-.056-1.115c.1,0,.3,1.605,1.037,4.113a34.512,34.512,0,0,0,1.583,4.3,37.127,37.127,0,0,0,2.72,4.894,35.234,35.234,0,0,0,3.5,4.369,32.5,32.5,0,0,0,3.343,3.1C-3177.434-100.254-3176.007-99.451-3176.063-99.362Z" transform="translate(3385.197 334.703)" fill="#263238"/>
        <g id="Group_1452" data-name="Group 1452" transform="translate(179.396 206.46)" opacity="0.3">
          <path id="Path_6785" data-name="Path 6785" d="M-3197.271-110.935l-.067-5.462a17.536,17.536,0,0,0,10.21-1.951,32.7,32.7,0,0,0,5.36,12.7,6.172,6.172,0,0,0,2.43,2.3,2.431,2.431,0,0,0,3.01-.736c.6-1.014.089-2.308-.457-3.344a25.761,25.761,0,0,1-2.618-5.841,6.684,6.684,0,0,1,1.114-6.064,8.23,8.23,0,0,1,5.573-2.173,23.055,23.055,0,0,0,6.029-.781c1.918-.691,3.657-2.441,3.523-4.458l-38.867,7.212v6.622Z" transform="translate(3202.029 126.752)"/>
        </g>
        <path id="Path_6786" data-name="Path 6786" d="M-3227.888-211.61l-.568-1.817-2.374-.435-27.5,13.52-24.343,51.54,32.881,5.751,6.509-18.246,22.805,5.863-6.075-22.805Z" transform="translate(3351.987 301.414)" fill="#f9afa1"/>
        <path id="Path_6787" data-name="Path 6787" d="M-3182.295-209.264s-11.525,18.592-10.834,33.049,1.181,34.642,1.181,34.642l39.647-14.078S-3172.765-208.306-3182.295-209.264Z" transform="translate(3384.663 303.092)" fill="#f9afa1"/>
        <path id="Path_6788" data-name="Path 6788" d="M-3224.876-114.881l56.488-22.047-7.134-21.535,27.955-9.753s11.27,28.79,11.147,38.532c-.134,11.391-12.752,17.478-12.752,17.478l-71.023,13.1Z" transform="translate(3373.085 318.076)" fill="#b78876"/>
        <path id="Path_6789" data-name="Path 6789" d="M-3228.918-111.833a3.21,3.21,0,0,1-.367,3.2c-.513.669-1.316,1.182-1.494,2.007-.224,1.025.646,1.962,1.516,2.553a2.926,2.926,0,0,0,2.72.6,2.634,2.634,0,0,0,1.293-2.162,13.524,13.524,0,0,1,.334-2.62,1.96,1.96,0,0,1,1.939-1.472" transform="translate(3370.917 338.658)" fill="#e0e0e0"/>
        <path id="Path_6790" data-name="Path 6790" d="M-3223.38-108.714a3.21,3.21,0,0,1-.379,3.2c-.5.669-1.3,1.182-1.482,2.007-.235,1.025.635,1.962,1.515,2.553a2.912,2.912,0,0,0,2.721.6,2.655,2.655,0,0,0,1.293-2.162,13.487,13.487,0,0,1,.334-2.62,1.95,1.95,0,0,1,1.929-1.471" transform="translate(3372.937 339.797)" fill="#e0e0e0"/>
        <path id="Path_6791" data-name="Path 6791" d="M-3217.313-105.726a3.19,3.19,0,0,1-1.058,3.044c-.647.546-1.539.87-1.884,1.627a2.744,2.744,0,0,0,.924,2.831,2.889,2.889,0,0,0,2.52,1.17,2.631,2.631,0,0,0,1.739-1.828,13.408,13.408,0,0,1,.891-2.486,1.952,1.952,0,0,1,2.229-1.014" transform="translate(3374.739 340.888)" fill="#e0e0e0"/>
        <path id="Path_6792" data-name="Path 6792" d="M-3149.164-155.621a7.011,7.011,0,0,1-.714.289l-2.061.792c-1.862.669-4.458,1.638-7.8,2.854l-27.208,9.775-.256.089-.1-.257-1.684-4.76-.869-2.452c-.323-.824-.68-1.627-1.014-2.463-1.361-3.344-2.71-6.689-4.024-10.277-1.472-3.99-2.842-7.915-4.091-11.726a48.543,48.543,0,0,1-2.753-11.268,22.322,22.322,0,0,1,2.1-10.256,44.582,44.582,0,0,1,4.337-8.058,12.922,12.922,0,0,1,5.718-4.86,17.049,17.049,0,0,1,5.572-1.115c1.562-.078,2.765,0,3.59,0h.937a1.079,1.079,0,0,1,.311,0,1.079,1.079,0,0,1-.311,0h-.937c-.813,0-2.028,0-3.578.145a17.426,17.426,0,0,0-5.485,1.115,12.623,12.623,0,0,0-5.506,4.793,44.839,44.839,0,0,0-4.224,8,21.824,21.824,0,0,0-2.006,10.032,47.942,47.942,0,0,0,2.753,11.146c1.26,3.8,2.63,7.714,4.1,11.693,1.314,3.533,2.652,6.977,4.012,10.276.324.824.692,1.65,1,2.464s.58,1.649.87,2.463l1.672,4.782-.345-.167,27.286-9.585,7.8-2.71,2.106-.691A3.6,3.6,0,0,1-3149.164-155.621Z" transform="translate(3381.526 303.062)" fill="#263238"/>
        <path id="Path_6793" data-name="Path 6793" d="M-3207.82-220.679a2.58,2.58,0,0,1,.29.624c.2.479.446,1.115.747,1.839a67.451,67.451,0,0,1,2.173,6.978,76.4,76.4,0,0,1,1.83,10.677,73.166,73.166,0,0,1,0,13.276,74.471,74.471,0,0,1-1.884,11.146,73.448,73.448,0,0,1-2.964,9.151l-.134.334-.246-.257-6.687-6.855-1.817-1.906a6.517,6.517,0,0,1-.613-.7,3.978,3.978,0,0,1,.7.6l1.918,1.829,6.854,6.687-.378.078a74.673,74.673,0,0,0,4.67-33.327,80.871,80.871,0,0,0-1.7-10.634c-.714-2.987-1.439-5.371-1.985-7-.267-.77-.479-1.383-.634-1.873A2.722,2.722,0,0,1-3207.82-220.679Z" transform="translate(3375.913 298.925)" fill="#263238"/>
        <path id="Path_6794" data-name="Path 6794" d="M-3244.271-213.869a3.244,3.244,0,0,1,0,.568l-.134,1.594c-.112,1.381-.289,3.344-.446,5.852-.322,4.948-.546,11.793-.356,19.36.156,6.51.535,12.485.87,17.1l-.436-.067,2.988-6.9c.334-.759.624-1.383.846-1.873a3.507,3.507,0,0,1,.334-.647,2.835,2.835,0,0,1-.212.691c-.2.513-.445,1.115-.735,1.929l-2.808,6.967-.347.868-.088-.935c-.4-4.615-.835-10.59-.993-17.122a181.878,181.878,0,0,1,.524-19.405c.224-2.473.446-4.458.636-5.852.1-.624.178-1.114.245-1.571A1.8,1.8,0,0,1-3244.271-213.869Z" transform="translate(3365.428 301.411)" fill="#263238"/>
        <path id="Path_6795" data-name="Path 6795" d="M-3200.3-160.083a4.468,4.468,0,0,1,.334,1.114c.19.747.391,1.84.6,3.211a52.819,52.819,0,0,1,.5,10.767,55.89,55.89,0,0,1-1.66,10.656c-.345,1.338-.669,2.408-.926,3.133a5,5,0,0,1-.434,1.114c-.1,0,.367-1.661.958-4.346a67.376,67.376,0,0,0,1.482-10.59,65.346,65.346,0,0,0-.324-10.688C-3200.074-158.389-3200.385-160.061-3200.3-160.083Z" transform="translate(3381.475 321.045)" fill="#263238"/>
        <path id="Path_6796" data-name="Path 6796" d="M-3193.6-149.746a27.955,27.955,0,0,1-1.571,5.573,28.08,28.08,0,0,1-2.117,5.384,30.124,30.124,0,0,1,1.571-5.573A28.809,28.809,0,0,1-3193.6-149.746Z" transform="translate(3383.154 324.818)" fill="#263238"/>
        <g id="Group_1453" data-name="Group 1453" transform="translate(111.434 126.099)" opacity="0.3">
          <path id="Path_6797" data-name="Path 6797" d="M-3251.692-169.207a22.152,22.152,0,0,0,.168-13.376c-.312-1.014-.581-2.374.345-2.909a1.517,1.517,0,0,1,1.839.49,3.969,3.969,0,0,1,.725,1.918,31.3,31.3,0,0,1,.356,8.605c-.178-.8.837-1.472,1.628-1.227a2.577,2.577,0,0,1,1.515,1.817,19.175,19.175,0,0,0,.669,2.364c.915,1.949,3.344,2.663,5.429,3.019s4.458.714,5.84,2.4l-15.683-4.191a3.726,3.726,0,0,0-1.906-.168,1.283,1.283,0,0,0-1,1.416" transform="translate(3251.816 185.623)"/>
        </g>
        <g id="Group_1454" data-name="Group 1454" transform="translate(120.954 122.938)" opacity="0.3">
          <path id="Path_6798" data-name="Path 6798" d="M-3244.841-179.229a5.168,5.168,0,0,0,.969,3.11,42.5,42.5,0,0,0,3.21-6.165,12.42,12.42,0,0,0,2.8,5.183,46.046,46.046,0,0,0-2.23-10.466c-.067-.179-.188-.4-.378-.369s-.19.146-.246.257l-4.113,8.237" transform="translate(3244.842 187.938)"/>
        </g>
        <g id="Group_1455" data-name="Group 1455" transform="translate(158.318 104.127)" opacity="0.3">
          <path id="Path_6799" data-name="Path 6799" d="M-3217.47-182.191a40.254,40.254,0,0,0,10.923,15.325,40.921,40.921,0,0,0,4.859-17.019,121.815,121.815,0,0,0-.246-17.834,97.751,97.751,0,0,1-5.9,27.4l-9.486-9.007" transform="translate(3217.47 201.719)"/>
        </g>
        <g id="Group_1456" data-name="Group 1456" transform="translate(179.574 167.179)" opacity="0.3">
          <path id="Path_6800" data-name="Path 6800" d="M-3201.876-131.706a57.645,57.645,0,0,0,4.034-20.365c0-1.259.157-2.8,1.294-3.343a2.449,2.449,0,0,1,2.741.926c1.361,1.638,1.338,4.012,1.115,6.141a40.629,40.629,0,0,1-4.894,14.868s-4.67,1.817-4.291,1.728" transform="translate(3201.898 155.529)"/>
        </g>
        <g id="Group_1457" data-name="Group 1457" transform="translate(182.348 127.356)" opacity="0.3">
          <path id="Path_6801" data-name="Path 6801" d="M-3199.866-183.888a306.375,306.375,0,0,1,8.282,32.592c.479,2.419.993,4.982,2.687,6.765s5.373,1.873,6.833-.1l-2.531-7.647c-.78.2-2.475.826-3.254,1.014l-11.8-33.438" transform="translate(3199.866 184.702)"/>
        </g>
        <path id="Path_6802" data-name="Path 6802" d="M-3195.072-185.865a21.65,21.65,0,0,1,.713-4.9,21.544,21.544,0,0,1,1.271-4.793,21.35,21.35,0,0,1-.7,4.9A21.5,21.5,0,0,1-3195.072-185.865Z" transform="translate(3383.965 308.094)" fill="#fafafa"/>
        <path id="Path_6803" data-name="Path 6803" d="M-3184.387-176.019a22.972,22.972,0,0,1-4.359-2.764,23.236,23.236,0,0,1-4.024-3.232,22.317,22.317,0,0,1,4.359,2.764A24.014,24.014,0,0,1-3184.387-176.019Z" transform="translate(3384.805 313.038)" fill="#fafafa"/>
        <path id="Path_6804" data-name="Path 6804" d="M-3182.321-185.284a16.306,16.306,0,0,1,.3-5.573,15.819,15.819,0,0,1,1.659-5.35c.157.056-.557,2.441-1.114,5.451S-3182.153-185.284-3182.321-185.284Z" transform="translate(3388.578 307.858)" fill="#fafafa"/>
        <path id="Path_6805" data-name="Path 6805" d="M-3176.414-172.829a19.106,19.106,0,0,1,1.526-4.514,20.239,20.239,0,0,1,2.063-4.281A39.4,39.4,0,0,1-3176.414-172.829Z" transform="translate(3390.775 313.182)" fill="#fafafa"/>
        <path id="Path_6806" data-name="Path 6806" d="M-3181.512-166.329a36.063,36.063,0,0,1-8.081-4.124,17.876,17.876,0,0,1,4.18,1.8A17.656,17.656,0,0,1-3181.512-166.329Z" transform="translate(3385.964 317.259)" fill="#fafafa"/>
        <path id="Path_6807" data-name="Path 6807" d="M-3182.359-202.392a10.525,10.525,0,0,1-3.835-.814,10.179,10.179,0,0,1-3.521-1.706A19.462,19.462,0,0,1-3186-203.8,18.712,18.712,0,0,1-3182.359-202.392Z" transform="translate(3385.919 304.68)" fill="#fafafa"/>
        <path id="Path_6808" data-name="Path 6808" d="M-3202.723-205.324a23.984,23.984,0,0,1,3.945-6.275A24.057,24.057,0,0,1-3202.723-205.324Z" transform="translate(3381.171 302.239)" fill="#fafafa"/>
        <path id="Path_6809" data-name="Path 6809" d="M-3209.77-208.017c-.145.078-.858-.992-1.605-2.374a7.39,7.39,0,0,1-1.114-2.654c.145-.078.857.992,1.6,2.375A7.371,7.371,0,0,1-3209.77-208.017Z" transform="translate(3377.607 301.711)" fill="#fafafa"/>
        <path id="Path_6810" data-name="Path 6810" d="M-3208.222-193.994a10.822,10.822,0,0,1-2.319,2.54,10.463,10.463,0,0,1-2.708,2.129,20.3,20.3,0,0,1,5.027-4.67Z" transform="translate(3377.329 308.666)" fill="#fafafa"/>
        <path id="Path_6811" data-name="Path 6811" d="M-3206.773-169.845a16.3,16.3,0,0,1-6.476-6.275,44.84,44.84,0,0,1,3.2,3.176C-3208.277-171.215-3206.683-169.979-3206.773-169.845Z" transform="translate(3377.329 315.191)" fill="#fafafa"/>
        <path id="Path_6812" data-name="Path 6812" d="M-3202.9-170.308a37.138,37.138,0,0,1,2.687-8.972A38.5,38.5,0,0,1-3202.9-170.308Z" transform="translate(3381.109 314.037)" fill="#fafafa"/>
        <path id="Path_6813" data-name="Path 6813" d="M-3204.339-155.421a24.689,24.689,0,0,1-2.229-3.544,23.579,23.579,0,0,1-2.084-3.634A17.918,17.918,0,0,1-3204.339-155.421Z" transform="translate(3379.007 320.127)" fill="#fafafa"/>
        <path id="Path_6814" data-name="Path 6814" d="M-3196.106-158.554a35.285,35.285,0,0,1-1.316-4.558,34.972,34.972,0,0,1-1.26-4.581,14.013,14.013,0,0,1,1.816,4.458A13.523,13.523,0,0,1-3196.106-158.554Z" transform="translate(3382.646 318.267)" fill="#fafafa"/>
        <path id="Path_6815" data-name="Path 6815" d="M-3199.452-143.679a16.91,16.91,0,0,1-5.884-2.229,8.9,8.9,0,0,1,3.053.859A9.073,9.073,0,0,1-3199.452-143.679Z" transform="translate(3380.218 326.219)" fill="#fafafa"/>
        <path id="Path_6816" data-name="Path 6816" d="M-3185.12-145.435a23.517,23.517,0,0,1-7.356.333,11.527,11.527,0,0,1,3.667-.456A12.2,12.2,0,0,1-3185.12-145.435Z" transform="translate(3384.912 326.316)" fill="#fafafa"/>
        <path id="Path_6817" data-name="Path 6817" d="M-3181.583-112.908a12.407,12.407,0,0,1,1.271-3.534,12.129,12.129,0,0,1,1.783-3.287,12.1,12.1,0,0,1-1.259,3.533A11.944,11.944,0,0,1-3181.583-112.908Z" transform="translate(3388.889 335.776)" fill="#fafafa"/>
        <path id="Path_6818" data-name="Path 6818" d="M-3190.062-113.022a11.849,11.849,0,0,1-6.1-5.384c.145-.1,1.282,1.327,2.952,2.8S-3189.973-113.178-3190.062-113.022Z" transform="translate(3383.568 336.257)" fill="#fafafa"/>
        <path id="Path_6819" data-name="Path 6819" d="M-3176.8-103.815a11.855,11.855,0,0,1-2.552,4.581,12.118,12.118,0,0,1-3.923,3.478c-.112-.134,1.694-1.616,3.466-3.845S-3176.961-103.881-3176.8-103.815Z" transform="translate(3388.268 341.585)" fill="#fafafa"/>
        <path id="Path_6820" data-name="Path 6820" d="M-3173.648-92.015a9.748,9.748,0,0,1-2.563-2.1,9.512,9.512,0,0,1-2.163-2.519,9.748,9.748,0,0,1,2.563,2.1A9.872,9.872,0,0,1-3173.648-92.015Z" transform="translate(3390.06 344.208)" fill="#fafafa"/>
        <path id="Path_6821" data-name="Path 6821" d="M-3253.568-197.946a14.89,14.89,0,0,1-5.395,1.227,15.109,15.109,0,0,1-5.573-.28c0-.167,2.475,0,5.483-.3S-3253.6-198.113-3253.568-197.946Z" transform="translate(3358.607 307.211)" fill="#fafafa"/>
        <path id="Path_6822" data-name="Path 6822" d="M-3251.952-195.649a24.373,24.373,0,0,1,.468-5.306,25.22,25.22,0,0,1,1.047-5.239,25.192,25.192,0,0,1-.468,5.317A24.944,24.944,0,0,1-3251.952-195.649Z" transform="translate(3363.199 304.212)" fill="#fafafa"/>
        <path id="Path_6823" data-name="Path 6823" d="M-3245.744-183.193a14.126,14.126,0,0,1-4.715-7.5c.156-.067.937,1.762,2.229,3.823S-3245.621-183.316-3245.744-183.193Z" transform="translate(3363.746 309.869)" fill="#fafafa"/>
        <path id="Path_6824" data-name="Path 6824" d="M-3239.168-175.981c.078.134-.881.835-2.229,1.293a4.3,4.3,0,0,1-2.586.324,9.778,9.778,0,0,1,2.408-.87A9.487,9.487,0,0,1-3239.168-175.981Z" transform="translate(3366.11 315.242)" fill="#fafafa"/>
        <path id="Path_6825" data-name="Path 6825" d="M-3243.443-190.694a7.674,7.674,0,0,1-.134-2.987,7.866,7.866,0,0,1,.458-2.943,15.6,15.6,0,0,1-.324,5.93Z" transform="translate(3366.226 307.706)" fill="#fafafa"/>
        <path id="Path_6826" data-name="Path 6826" d="M-3288.531-148.37s9.653-28.423,26.417-25.792a54.868,54.868,0,0,0,24.12-1.426l21.913,5.572s7.356,9.274,5.7,18.425c-1.45,7.969-4.816,21.958-8.84,26.751-1.593,1.906-15.047,14.4-16.117,25.1-1.448,14.49-4.458,19.1-10.656,19.1l-24.633-6.23s-16.272-5.485-21.412-19.317C-3297.871-121.7-3289.579-146.387-3288.531-148.37Z" transform="translate(3347.815 315.385)" fill="#455a64"/>
        <path id="Path_6827" data-name="Path 6827" d="M-3222.4-169.612a1.248,1.248,0,0,1-.345-.067l-.969-.233-3.735-.958-13.7-3.645.268-.257a53.159,53.159,0,0,1,1.226,18.212,55.869,55.869,0,0,1-6.821,20.966,62.977,62.977,0,0,1-6.911,9.91,70.691,70.691,0,0,0-6.8,8.839,21.675,21.675,0,0,0-2.117,4.681,27.4,27.4,0,0,0-.947,4.782c-.357,3.144-.414,6.119-.8,8.806a20.535,20.535,0,0,1-2.1,7.011,11.9,11.9,0,0,1-3.646,4.147,8.495,8.495,0,0,1-3.177,1.426,4.721,4.721,0,0,1-1.215.134,4.372,4.372,0,0,0,1.182-.246,9.346,9.346,0,0,0,3.088-1.493,11.937,11.937,0,0,0,3.477-4.124,20.349,20.349,0,0,0,1.984-6.911c.356-2.663.389-5.628.724-8.806a27.883,27.883,0,0,1,.937-4.87,22,22,0,0,1,2.151-4.815,71.869,71.869,0,0,1,6.823-8.918,63.558,63.558,0,0,0,6.843-9.82,56.087,56.087,0,0,0,6.789-20.754,53.37,53.37,0,0,0-1.115-18.046l-.089-.356.345.1,13.644,3.822,3.711,1.115.958.289A1.4,1.4,0,0,1-3222.4-169.612Z" transform="translate(3355.084 315.593)" fill="#263238"/>
        <path id="Path_6828" data-name="Path 6828" d="M-3231.533-130.11s2.462-4.057,5.449-3.243,2.531,3.4,1.539,4.961-3.121,4.836-3.121,4.836l-1.661-.68-2.229-5.171" transform="translate(3370.646 330.763)" fill="#b78876"/>
        <path id="Path_6829" data-name="Path 6829" d="M-3270.607-133.072c.5.123,54.416,27.063,54.416,27.063l4.458-16.641-51.272-28.345-7.68,17.109" transform="translate(3356.363 324.362)" fill="#455a64"/>
        <path id="Path_6830" data-name="Path 6830" d="M-3270.668-133.823a1.043,1.043,0,0,1,.1-.3c.1-.224.223-.513.367-.882l1.471-3.343c1.305-2.976,3.2-7.257,5.574-12.629l.078-.188.179.1,51.272,28.267.19.1-.056.223-.078.324-4.392,16.307-.09.347-.311-.157-38.789-19.517-11.37-5.729-3.043-1.549-.78-.4-.268-.156a.931.931,0,0,1,.28.1l.813.356,3.086,1.472,11.447,5.572,38.912,19.295-.4.179c1.4-5.217,2.866-10.7,4.37-16.319l.089-.311.134.322-51.194-28.445.267-.078-5.718,12.561-1.549,3.344c-.177.356-.311.636-.412.859Z" transform="translate(3356.369 324.3)" fill="#263238"/>
        <path id="Path_6831" data-name="Path 6831" d="M-3272.269-131.626l.557-.891c-.456,2.007-.768,4.458.859,5.774s4.013.367,5.507-1.025c2.151-2.007,3.344-4.8,4.458-7.513,2.229-5.25,4.458-10.722,4.1-16.4-.112-1.784-.725-3.845-2.419-4.4-1.94-.624-3.768,1.115-5.038,2.742" transform="translate(3355.784 322.459)" fill="#263238"/>
        <path id="Path_6832" data-name="Path 6832" d="M-3203.413-120.742a3.2,3.2,0,0,1-.112-3.221c.413-.747,1.115-1.36,1.182-2.229.078-1.048-.925-1.851-1.873-2.308a2.919,2.919,0,0,0-2.775-.188,2.661,2.661,0,0,0-.969,2.34,13.014,13.014,0,0,1,.055,2.63,1.95,1.95,0,0,1-1.694,1.739" transform="translate(3378.662 332.408)" fill="#e0e0e0"/>
        <path id="Path_6833" data-name="Path 6833" d="M-3209.352-123.009a3.22,3.22,0,0,1-.1-3.232c.4-.736,1.115-1.349,1.182-2.229.066-1.048-.925-1.851-1.884-2.308a2.913,2.913,0,0,0-2.775-.19,2.654,2.654,0,0,0-.959,2.33,13.879,13.879,0,0,1,.056,2.641,1.962,1.962,0,0,1-1.694,1.739" transform="translate(3376.498 331.576)" fill="#e0e0e0"/>
        <path id="Path_6834" data-name="Path 6834" d="M-3215.6-125.021a3.222,3.222,0,0,1,.591-3.176c.557-.625,1.394-1.115,1.627-1.884.3-1.014-.5-2.007-1.326-2.665a2.938,2.938,0,0,0-2.675-.792,2.66,2.66,0,0,0-1.439,2.073,13.281,13.281,0,0,1-.522,2.587,1.94,1.94,0,0,1-2.029,1.325" transform="translate(3374.364 330.712)" fill="#e0e0e0"/>
        <path id="Path_6835" data-name="Path 6835" d="M-3227.7-130.814s6.8,1.3,8.349-.87c0,0,8,8.527,23.831,8.07l4.458,1.394s1.706,16.719,0,20.487-12.729,14.267-12.729,14.267l-3.99-1.862s-3.879-6.509-9.775-9.462-12.517-5.9-12.517-5.9l-2.43-9.875,4.849-16.252" transform="translate(3370.301 331.412)" fill="#455a64"/>
        <path id="Path_6836" data-name="Path 6836" d="M-3202.143-125.772a7.549,7.549,0,0,1,.123,1.517c0,.991.067,2.407.089,4.169,0,3.511.112,8.347-.19,13.731a4.685,4.685,0,0,1-.512,2.007,12.234,12.234,0,0,1-1.014,1.694c-.736,1.037-1.517,1.985-2.229,2.865-1.538,1.761-3.01,3.254-4.258,4.458s-2.3,2.229-3.032,2.853a6.662,6.662,0,0,1-1.191.96,9.237,9.237,0,0,1,1.036-1.115l2.9-2.976c1.2-1.271,2.642-2.786,4.135-4.548.749-.88,1.517-1.828,2.231-2.842a10.811,10.811,0,0,0,.958-1.616,4.055,4.055,0,0,0,.457-1.806c.3-5.328.279-10.187.356-13.687,0-1.672.067-3.065.089-4.158A7.18,7.18,0,0,1-3202.143-125.772Z" transform="translate(3376.924 333.57)" fill="#263238"/>
        <path id="Path_6837" data-name="Path 6837" d="M-3190.5-108.575c-.078.145-16.039-8.269-35.667-18.782s-35.434-19.149-35.367-19.294,16.028,8.271,35.667,18.782S-3190.385-108.72-3190.5-108.575Z" transform="translate(3359.704 325.948)" fill="#ebebeb"/>
        <path id="Path_6838" data-name="Path 6838" d="M-3191.493-107.393c-.067.146-16.028-8-35.667-18.2s-35.446-18.592-35.367-18.737,16.027,8.014,35.667,18.212S-3191.415-107.471-3191.493-107.393Z" transform="translate(3359.34 326.794)" fill="#ebebeb"/>
        <path id="Path_6839" data-name="Path 6839" d="M-3192.428-105.294c-.079.145-16.028-8-35.668-18.2s-35.4-18.592-35.289-18.737,16.018,8.014,35.669,18.212S-3192.361-105.428-3192.428-105.294Z" transform="translate(3359.027 327.56)" fill="#ebebeb"/>
        <path id="Path_6840" data-name="Path 6840" d="M-3193.33-103.184c-.067.134-16.028-8.014-35.668-18.214s-35.434-18.592-35.367-18.737,16.028,8.014,35.668,18.212S-3193.252-103.329-3193.33-103.184Z" transform="translate(3358.669 328.326)" fill="#ebebeb"/>
        <path id="Path_6841" data-name="Path 6841" d="M-3194.248-101.09c-.078.134-16.028-8.014-35.667-18.212s-35.433-18.592-35.355-18.726,16.017,8,35.667,18.212S-3194.169-101.234-3194.248-101.09Z" transform="translate(3358.339 329.095)" fill="#ebebeb"/>
        <path id="Path_6842" data-name="Path 6842" d="M-3234.485-137.007c-.559-.167-9.229,4.6-9.229,4.6l-5.373,8.56,6.2,11.57,17.756,5.941s-.893-7.1-3.245-7.691a7.691,7.691,0,0,1-3.733-2.229l-.257-6.421s3.345-2.229,3.846-4.67-1.114-1.75-1.114-1.75l-7.758,2.686s6.419-4.091,6.542-5.373-1.517-2.229-1.517-2.229l-1.638-.123S-3231.331-136.047-3234.485-137.007Z" transform="translate(3364.247 329.467)" fill="#b78876"/>
        <path id="Path_6843" data-name="Path 6843" d="M-3245.361-121.147a5.645,5.645,0,0,1-.1-2.742,8.726,8.726,0,0,1,.813-2.876,33.061,33.061,0,0,1,1.471-3.344,8.1,8.1,0,0,1,1.114-1.593,6.445,6.445,0,0,1,1.438-1.115,19.693,19.693,0,0,1,2.63-1.392,6.539,6.539,0,0,1,2.663-.658c0,.1-1,.311-2.5,1.036a23.628,23.628,0,0,0-2.508,1.461,5.642,5.642,0,0,0-1.3,1.047,7.724,7.724,0,0,0-1.016,1.482c-.589,1.115-1.014,2.23-1.482,3.256a9.642,9.642,0,0,0-.9,2.73C-3245.361-122.195-3245.306-121.159-3245.361-121.147Z" transform="translate(3365.525 330.249)" fill="#aa6550"/>
        <path id="Path_6844" data-name="Path 6844" d="M-3242.268-119.193c-.224,0,.156-2.318.824-5.06.323-1.381.647-2.62.891-3.511a7.066,7.066,0,0,1,.458-1.437c.233,0-.123,2.34-.792,5.082-.324,1.37-.657,2.609-.9,3.5A5.784,5.784,0,0,1-3242.268-119.193Z" transform="translate(3366.712 332.318)" fill="#aa6550"/>
        <path id="Path_6845" data-name="Path 6845" d="M-3234.555-156.229a3.039,3.039,0,0,1,.848,0,4.934,4.934,0,0,1,2.33.725h0a24.269,24.269,0,0,1-12.261,5.194,6.241,6.241,0,0,1-2.229,0,3.063,3.063,0,0,1-1.115-.49,1.62,1.62,0,0,1-.613-1.115,2.521,2.521,0,0,1,1.193-2.14c.669-.523,1.4-.935,2.128-1.4,2.9-1.817,6.208-3.7,10.031-4a11.25,11.25,0,0,1,3.824.345,5.327,5.327,0,0,1,3.087,2.052,3.075,3.075,0,0,1,.078,3.477,8.3,8.3,0,0,1-2.654,2.23,37.351,37.351,0,0,1-18.87,5.438c-1.9,0-2.931-.111-2.931-.111h2.919a38.636,38.636,0,0,0,7.891-1.037,37.156,37.156,0,0,0,10.879-4.458,7.815,7.815,0,0,0,2.575-2.129,2.856,2.856,0,0,0-.078-3.232,5.092,5.092,0,0,0-2.965-1.951,11,11,0,0,0-3.735-.333c-3.79.289-7.078,2.15-9.965,3.956-.724.457-1.47.88-2.117,1.383a2.319,2.319,0,0,0-1.115,1.94,1.763,1.763,0,0,0,1.551,1.392,6.117,6.117,0,0,0,2.229,0,24.428,24.428,0,0,0,12.261-5.082v.145a4.833,4.833,0,0,0-2.3-.747h-.625Z" transform="translate(3363.29 321.258)" fill="#263238"/>
        <path id="Path_6846" data-name="Path 6846" d="M-3227.477-164.3h-.222l-.624-.067c-.546,0-1.338-.123-2.319-.19a43.249,43.249,0,0,0-7.635.246,42.694,42.694,0,0,0-7.457,1.616c-.937.3-1.683.557-2.229.747l-.6.212c-.134,0-.212.067-.212,0l.2-.1.58-.246a22.46,22.46,0,0,1,2.229-.824,38.323,38.323,0,0,1,15.159-1.862c.98.078,1.772.168,2.318.257l.625.112Z" transform="translate(3364.36 319.293)" fill="#263238"/>
        <path id="Path_6847" data-name="Path 6847" d="M-3230.693-167.921a4.488,4.488,0,0,1-.692.167c-.456.1-1.114.213-1.917.334a37.269,37.269,0,0,1-6.4.3,36.6,36.6,0,0,1-6.353-.824c-.792-.179-1.439-.345-1.873-.479a3.4,3.4,0,0,1-.68-.235,4.235,4.235,0,0,1,.7.145c.447.112,1.115.246,1.884.412a42.743,42.743,0,0,0,6.331.747,41.667,41.667,0,0,0,6.365-.233c.813-.089,1.47-.179,1.917-.257A4.461,4.461,0,0,1-3230.693-167.921Z" transform="translate(3364.423 317.915)" fill="#263238"/>
        <path id="Path_6848" data-name="Path 6848" d="M-3228.062-147.353a.982.982,0,0,1-.246.134l-.7.311a26.737,26.737,0,0,1-2.654,1.014,36.958,36.958,0,0,1-9.173,1.806,37.629,37.629,0,0,1-9.329-.568,28.141,28.141,0,0,1-2.765-.658l-.735-.223-.257-.09h.268l.747.179c.647.168,1.594.379,2.764.58a39.49,39.49,0,0,0,9.3.5,39.036,39.036,0,0,0,9.141-1.727c1.114-.358,2.05-.692,2.663-.936l.725-.28A1.25,1.25,0,0,1-3228.062-147.353Z" transform="translate(3362.482 325.692)" fill="#263238"/>
        <path id="Path_6849" data-name="Path 6849" d="M-3258.377-124.275s.1.156.268.456a8.08,8.08,0,0,1,.591,1.394,2.971,2.971,0,0,1-.123,2.374,2.221,2.221,0,0,1-1.114,1.037,1.63,1.63,0,0,1-1.65-.257,4.177,4.177,0,0,1-1.114-1.515,14.171,14.171,0,0,1-1.338-6.22,7.122,7.122,0,0,1,.356-2.385,1.74,1.74,0,0,1,.837-.971,1.52,1.52,0,0,1,1.314,0,5.1,5.1,0,0,1,1.873,1.806,12.859,12.859,0,0,1,1.293,2.341,12.714,12.714,0,0,1,0,9.931,5.258,5.258,0,0,1-1.271,1.918,2.161,2.161,0,0,1-2.084.512,5.885,5.885,0,0,1-2.853-2.54,11.907,11.907,0,0,1-1.961-5.194,8.863,8.863,0,0,1-.056-2.041v.524a14.093,14.093,0,0,0,.134,1.5,12.241,12.241,0,0,0,2.006,5.116,5.826,5.826,0,0,0,2.775,2.453,1.987,1.987,0,0,0,1.895-.49,5.076,5.076,0,0,0,1.2-1.851,12.572,12.572,0,0,0,0-9.753,12.354,12.354,0,0,0-1.271-2.3,4.961,4.961,0,0,0-1.771-1.727,1.289,1.289,0,0,0-1.116,0,1.539,1.539,0,0,0-.736.846,6.838,6.838,0,0,0-.345,2.3,13.812,13.812,0,0,0,.6,4.324,13.093,13.093,0,0,0,.725,1.851,4.034,4.034,0,0,0,1.025,1.461,1.459,1.459,0,0,0,1.493.255,2.1,2.1,0,0,0,1.038-.969,2.891,2.891,0,0,0,.156-2.229A15.547,15.547,0,0,0-3258.377-124.275Z" transform="translate(3358.276 331.84)" fill="#263238"/>
        <path id="Path_6850" data-name="Path 6850" d="M-3250.277-103.754a10.8,10.8,0,0,0-1.238-3.111,9.488,9.488,0,0,0-2.407-2.685,9.385,9.385,0,0,0-4.046-1.728,20,20,0,0,1-4.393-1.036,7.519,7.519,0,0,1-2.864-2.3,7.193,7.193,0,0,1-1.115-2.23,4.472,4.472,0,0,1-.19-.88,8.258,8.258,0,0,0,1.472,2.988,7.477,7.477,0,0,0,2.831,2.229,20.675,20.675,0,0,0,4.348,1.014,9.315,9.315,0,0,1,4.124,1.783,9.441,9.441,0,0,1,2.43,2.764,8.388,8.388,0,0,1,.937,2.3A4.781,4.781,0,0,1-3250.277-103.754Z" transform="translate(3357.88 336.509)" fill="#263238"/>
        <path id="Path_6851" data-name="Path 6851" d="M-3255.187-129.463v1.037a18.264,18.264,0,0,0,.2,2.808,52.4,52.4,0,0,0,2.507,8.918,26.662,26.662,0,0,1,1.672,9.173,12.286,12.286,0,0,1-.424,2.809,8.427,8.427,0,0,1-.345.98s.1-.356.256-1a13.755,13.755,0,0,0,.345-2.8,27.646,27.646,0,0,0-1.727-9.084,48.412,48.412,0,0,1-2.453-9.017A13.411,13.411,0,0,1-3255.187-129.463Z" transform="translate(3361.976 332.223)" fill="#263238"/>
        <path id="Path_6852" data-name="Path 6852" d="M-3250.382-119.644a2.764,2.764,0,0,1-.222-.313,10.045,10.045,0,0,1-.479-.9,14.026,14.026,0,0,1-1.116-3.221,14.684,14.684,0,0,1-.3-3.344,7.1,7.1,0,0,1,.089-1.025c.034-.246.056-.369.078-.369s0,.535,0,1.394a17.031,17.031,0,0,0,1.359,6.532C-3250.638-120.135-3250.348-119.667-3250.382-119.644Z" transform="translate(3363 332.458)" fill="#263238"/>
        <path id="Path_6853" data-name="Path 6853" d="M-3260.76-104.594a2.8,2.8,0,0,1-.479-.156,10.342,10.342,0,0,1-1.237-.591,12.415,12.415,0,0,1-3.456-2.92,12.631,12.631,0,0,1-2.229-3.957,8.476,8.476,0,0,1-.334-1.338,2.718,2.718,0,0,1-.067-.49s.168.691.559,1.772a13.651,13.651,0,0,0,2.229,3.869,13.388,13.388,0,0,0,3.343,2.92C-3261.407-104.895-3260.738-104.639-3260.76-104.594Z" transform="translate(3357.138 337.85)" fill="#263238"/>
        <path id="Path_6854" data-name="Path 6854" d="M-3269.531-172.307s-23.285,48.888-24.221,51.641-12.093,62.987-12.093,62.987l17.086,8.916s25.045-62.608,24.789-64.336,26.294-51.786,26.294-51.786Z" transform="translate(3343.528 316.583)" fill="#b78876"/>
        <path id="Path_6855" data-name="Path 6855" d="M-3273.064-178.822l-10.032,19.562,34.832,9.139s8.917-20.932,9.564-21.4-2.341-15.215-2.341-15.215Z" transform="translate(3351.832 311.316)" fill="#f9afa1"/>
        <path id="Path_6856" data-name="Path 6856" d="M-3254.994-190.589a6.829,6.829,0,0,1,1.048,1.259,31.208,31.208,0,0,1,2.4,3.778,29.2,29.2,0,0,1,2.509,6.154,25.678,25.678,0,0,1,.758,3.867,11.17,11.17,0,0,1,.056,2.119,17.5,17.5,0,0,1-.369,2.128,51.258,51.258,0,0,1-2.552,7.714c-.935,2.318-1.861,4.357-2.663,6.064s-1.506,3.065-2,3.99a8.328,8.328,0,0,1-.824,1.416,9.248,9.248,0,0,1,.624-1.517c.468-1.058,1.116-2.417,1.817-4.057s1.639-3.778,2.542-6.085a56.592,56.592,0,0,0,2.486-7.647c.8-2.752.179-5.462-.4-7.8a30.688,30.688,0,0,0-2.352-6.119,43.294,43.294,0,0,0-2.229-3.834A11.353,11.353,0,0,1-3254.994-190.589Z" transform="translate(3361.492 309.909)" fill="#263238"/>
        <path id="Path_6857" data-name="Path 6857" d="M-3249.851-186.89a7.489,7.489,0,0,1,.935,2.284,18.747,18.747,0,0,1,.692,5.931,18.453,18.453,0,0,1-1.227,5.84,6.537,6.537,0,0,1-1.114,2.229,29.7,29.7,0,0,0,1.795-8.047A30.69,30.69,0,0,0-3249.851-186.89Z" transform="translate(3363.707 311.259)" fill="#263238"/>
        <path id="Path_6858" data-name="Path 6858" d="M-3309.674-83.008s-2.786,1.248-3.578,2.685c-1.472,2.665,1.327,6.788,1.327,6.788s-1.516,1.226-1.292,2.641,4.691,8.271,5.852,8.806c5.328,2.43,20.33.134,20.33.134l5.062-.591s2.229-9.953,1.638-11.614-7-11.091-7-11.091l-17.3-3.489S-3309.819-89.673-3309.674-83.008Z" transform="translate(3340.668 347.072)" fill="#b78876"/>
        <path id="Path_6859" data-name="Path 6859" d="M-3300.46-86.537a4.451,4.451,0,0,1,.2,1.027c.112.758.246,1.727.423,2.931l-.055-.1a43.942,43.942,0,0,0,7.49,5.494,14.977,14.977,0,0,1,3.811,4.9,17.394,17.394,0,0,1,1.282,3.144,2.915,2.915,0,0,1,0,1.884,2.159,2.159,0,0,1-1.549,1.17c-.479.123-.892.19-1.349.289a1.447,1.447,0,0,1-.813,0,2.221,2.221,0,0,1-.635-.434,21.666,21.666,0,0,1-1.717-2.018,16.9,16.9,0,0,0-3.343-3.556,10.566,10.566,0,0,0-4-1.638,8.223,8.223,0,0,1-2.029-.524,14.864,14.864,0,0,1-1.325-1.394c-3.133-3.578-4.939-5.93-4.794-6.029s.112.145.334.412l1,1.114c.881.992,2.163,2.43,3.768,4.18a15.27,15.27,0,0,0,1.249,1.294,9.488,9.488,0,0,0,1.895.434,10.839,10.839,0,0,1,4.212,1.672,17.079,17.079,0,0,1,3.412,3.634c.546.658,1.115,1.37,1.672,1.951a.947.947,0,0,0,.958.334c.412-.089.892-.179,1.292-.289a1.551,1.551,0,0,0,1.115-.826,2.415,2.415,0,0,0,0-1.5,17.371,17.371,0,0,0-1.238-3.043,14.592,14.592,0,0,0-3.622-4.76,39.368,39.368,0,0,1-7.379-5.673h0c-.123-1.2-.211-2.229-.278-2.943A5.746,5.746,0,0,1-3300.46-86.537Z" transform="translate(3342.422 347.892)" fill="#aa6550"/>
        <path id="Path_6860" data-name="Path 6860" d="M-3288.5-64.962a1.148,1.148,0,0,1-.792.2,2.343,2.343,0,0,1-1.873-1.182,7.923,7.923,0,0,1-.7-1.349,5.63,5.63,0,0,1-.291-.8,4.824,4.824,0,0,1-.134-.891,38.389,38.389,0,0,0-1.114-3.722c-.848-2.63-1.56-5.049-1.961-6.833a11.137,11.137,0,0,1-.446-2.92,22.542,22.542,0,0,1,.848,2.82c.49,1.739,1.27,4.113,2.117,6.765a30.792,30.792,0,0,1,1.036,3.8,5.3,5.3,0,0,0,.1.846c.066.257.155.513.246.758a9.058,9.058,0,0,0,.6,1.316,2.23,2.23,0,0,0,1.55,1.17C-3288.789-64.906-3288.521-65.018-3288.5-64.962Z" transform="translate(3347.191 349.38)" fill="#aa6550"/>
        <path id="Path_6861" data-name="Path 6861" d="M-3293.646-66.621a10.7,10.7,0,0,1-2.943-.358,25.706,25.706,0,0,1-6.687-2.519,25.45,25.45,0,0,1-5.718-4.292,9.9,9.9,0,0,1-1.873-2.3,39.844,39.844,0,0,0,7.87,6.074A40.913,40.913,0,0,0-3293.646-66.621Z" transform="translate(3341.695 351.708)" fill="#aa6550"/>
        <path id="Path_6862" data-name="Path 6862" d="M-3305-96.547l8.917,22.682,4.235,3.556-10.22-27.4a1.6,1.6,0,0,0-2.05-.938,1.382,1.382,0,0,0-.179.081h0A1.594,1.594,0,0,0-3305-96.547Z" transform="translate(3343.792 343.436)" fill="#f9afa1"/>
        <path id="Path_6863" data-name="Path 6863" d="M-3295-71.191l1.717,3.812,2.564,1.728.245-2.686-1.806-4.024Z" transform="translate(3347.486 353.067)" fill="#f9afa1"/>
        <path id="Path_6864" data-name="Path 6864" d="M-3272.943-164.566a34.961,34.961,0,0,1-1.282-5.34,34.877,34.877,0,0,1-.992-5.406,20.767,20.767,0,0,1,1.562,5.284A20.98,20.98,0,0,1-3272.943-164.566Z" transform="translate(3354.708 315.486)" fill="#fafafa"/>
        <path id="Path_6865" data-name="Path 6865" d="M-3256.485-173.476a17.689,17.689,0,0,1-5.573,1.538,17.293,17.293,0,0,1-5.752.246c0-.168,2.553-.313,5.664-.814S-3256.531-173.642-3256.485-173.476Z" transform="translate(3357.412 316.146)" fill="#fafafa"/>
        <path id="Path_6866" data-name="Path 6866" d="M-3259.654-178.1c-.157.056-.847-1.828-2.006-3.979s-2.33-3.778-2.229-3.89a14.814,14.814,0,0,1,4.2,7.869Z" transform="translate(3358.841 311.596)" fill="#fafafa"/>
        <path id="Path_6867" data-name="Path 6867" d="M-3204.474-246.328l5.238,59.822a18.167,18.167,0,0,1-15.359,19.561h0a18.167,18.167,0,0,1-20.676-14.969l-1.872-11.147s-14.735.134-17.3-14.145c-1.238-6.91-2.62-21.333-3.724-34.407a27.264,27.264,0,0,1,23.976-29.348h0a26.94,26.94,0,0,1,29.65,23.926C-3204.515-246.8-3204.493-246.564-3204.474-246.328Z" transform="translate(3360.897 280.513)" fill="#b78876"/>
        <path id="Path_6868" data-name="Path 6868" d="M-3242.8-211.665a33.846,33.846,0,0,0,17.834-8.426s-2.708,11.068-17.254,12.149Z" transform="translate(3366.542 299.14)" fill="#aa6550"/>
        <path id="Path_6869" data-name="Path 6869" d="M-3253.582-241.516a2.082,2.082,0,0,0,2.317,1.75,2.006,2.006,0,0,0,1.823-2.175l-.005-.055a2.074,2.074,0,0,0-2.318-1.739,2,2,0,0,0-1.824,2.154Z" transform="translate(3362.601 290.502)" fill="#263238"/>
        <path id="Path_6870" data-name="Path 6870" d="M-3255.035-243.876c.3.223,1.661-1.182,3.879-1.549s4,.479,4.2.167c.089-.134-.246-.579-1.036-.969a5.664,5.664,0,0,0-3.422-.468,5.5,5.5,0,0,0-3.021,1.56C-3255.024-244.5-3255.179-243.954-3255.035-243.876Z" transform="translate(3362.057 289.396)" fill="#263238"/>
        <path id="Path_6871" data-name="Path 6871" d="M-3237.65-243.489a2.062,2.062,0,0,0,2.318,1.739,1.971,1.971,0,0,0,1.817-2.117c0-.037-.007-.075-.011-.112a2.074,2.074,0,0,0-2.319-1.739,1.972,1.972,0,0,0-1.817,2.117C-3237.66-243.563-3237.656-243.526-3237.65-243.489Z" transform="translate(3368.415 289.778)" fill="#263238"/>
        <path id="Path_6872" data-name="Path 6872" d="M-3239.087-246.211c.3.223,1.661-1.182,3.868-1.549s4.012.479,4.2.167c.1-.134-.233-.58-1.025-.969a5.676,5.676,0,0,0-3.422-.468,5.491,5.491,0,0,0-3.021,1.56C-3239.077-246.836-3239.232-246.312-3239.087-246.211Z" transform="translate(3367.878 288.544)" fill="#263238"/>
        <path id="Path_6873" data-name="Path 6873" d="M-3241.39-229.059a14.033,14.033,0,0,0-3.69-.055c-.58,0-1.114,0-1.282-.358a2.947,2.947,0,0,1,.089-1.727c.313-1.461.625-2.977.959-4.57,1.3-6.5,2.139-11.8,1.884-11.849s-1.527,5.172-2.831,11.67c-.312,1.594-.6,3.12-.882,4.581a3.264,3.264,0,0,0,.079,2.229,1.457,1.457,0,0,0,1.114.669,3.935,3.935,0,0,0,.981,0A14.732,14.732,0,0,0-3241.39-229.059Z" transform="translate(3364.898 289.091)" fill="#263238"/>
        <path id="Path_6874" data-name="Path 6874" d="M-3236.41-233.694c-.367,0,0,2.441-1.739,4.458s-4.37,2.229-4.325,2.531c0,.156.647.378,1.728.223a6.032,6.032,0,0,0,3.634-1.983,5.322,5.322,0,0,0,1.3-3.724C-3235.885-233.127-3236.254-233.739-3236.41-233.694Z" transform="translate(3366.661 294.173)" fill="#263238"/>
        <path id="Path_6875" data-name="Path 6875" d="M-3240.237-250.806c.323.568,2.475-.078,5.116-.2s4.86.244,5.116-.358c.1-.278-.356-.779-1.292-1.226a8.915,8.915,0,0,0-7.8.425C-3239.97-251.609-3240.371-251.074-3240.237-250.806Z" transform="translate(3367.468 287.02)" fill="#263238"/>
        <path id="Path_6876" data-name="Path 6876" d="M-3254.373-250.718c.458.446,1.906-.289,3.746-.568s3.433-.145,3.722-.714c.112-.278-.2-.758-.947-1.114a5.2,5.2,0,0,0-3.166-.39,5.263,5.263,0,0,0-2.853,1.426C-3254.473-251.5-3254.617-250.941-3254.373-250.718Z" transform="translate(3362.276 286.908)" fill="#263238"/>
        <path id="Path_6877" data-name="Path 6877" d="M-3232.16-259.636h.089a11.451,11.451,0,0,1,5.407,6.61,2.814,2.814,0,0,1,.089.278c1.248,4,1.839,8.193,3.109,12.183s3.344,7.913,6.888,10.232c1.439.958,3.767,1.381,4.57-.145a3.534,3.534,0,0,0,.189-1.963c-.87-10.03.379-19.238-1.359-29.582a8.839,8.839,0,0,0-4.792-6.5c-2.43-1.193-5.34-2.363-7.559-.824s-4.592,6.564-6.141,8.783" transform="translate(3370.426 280.892)" fill="#263238"/>
        <path id="Path_6878" data-name="Path 6878" d="M-3221.578-247.141c.224-.146,9.386-4.559,10.7,5.315s-8.917,9.162-8.917,8.918S-3221.578-247.141-3221.578-247.141Z" transform="translate(3374.289 288.861)" fill="#b78876"/>
        <path id="Path_6879" data-name="Path 6879" d="M-3218.368-237.923a2.929,2.929,0,0,0,.5.19,1.712,1.712,0,0,0,1.282-.146c.991-.523,1.649-2.3,1.459-4.079a5.659,5.659,0,0,0-.8-2.4,2.014,2.014,0,0,0-1.47-1.114.891.891,0,0,0-.959.6c-.089.3,0,.49-.056.512s-.233-.145-.2-.557a1.121,1.121,0,0,1,.3-.669,1.331,1.331,0,0,1,.915-.379,2.429,2.429,0,0,1,2.005,1.294,5.873,5.873,0,0,1,.959,2.663c.2,2.007-.569,4-1.939,4.6a1.842,1.842,0,0,1-1.605-.056C-3218.322-237.689-3218.423-237.9-3218.368-237.923Z" transform="translate(3375.37 289.696)" fill="#aa6550"/>
        <path id="Path_6880" data-name="Path 6880" d="M-3237.157-273.938a2.047,2.047,0,0,1,.635-.1,8.177,8.177,0,0,1,1.76.112,9.71,9.71,0,0,1,7.993,7.6,8.5,8.5,0,0,1,.19,1.75,1.942,1.942,0,0,1-.056.646c-.078,0-.056-.924-.423-2.318a10.034,10.034,0,0,0-7.8-7.356A22.684,22.684,0,0,0-3237.157-273.938Z" transform="translate(3368.602 279.443)" fill="#455a64"/>
        <path id="Path_6881" data-name="Path 6881" d="M-3213.676-254.237a1.921,1.921,0,0,1-.781.322,3.992,3.992,0,0,1-2.286-.222,5.811,5.811,0,0,1-2.652-2.151,16.6,16.6,0,0,1-1.806-3.733,16.25,16.25,0,0,0-1.772-3.645,5.473,5.473,0,0,0-2.485-2.041,4.072,4.072,0,0,0-2.151-.278c-.513.09-.781.235-.8.19a1.785,1.785,0,0,1,.769-.345,3.925,3.925,0,0,1,2.3.156,5.641,5.641,0,0,1,2.687,2.1,16.113,16.113,0,0,1,1.84,3.724,18.06,18.06,0,0,0,1.738,3.667,5.571,5.571,0,0,0,2.453,2.084,4.03,4.03,0,0,0,2.141.334C-3213.967-254.148-3213.732-254.282-3213.676-254.237Z" transform="translate(3371.794 282.292)" fill="#455a64"/>
        <path id="Path_6882" data-name="Path 6882" d="M-3212.875-248.855a.547.547,0,0,0-.233.089,4.623,4.623,0,0,1-.7.179,9.048,9.048,0,0,1-2.652.111,11.931,11.931,0,0,1-7.635-4.079,17.75,17.75,0,0,1-3.88-7.8,7.549,7.549,0,0,0-.39-1.426,1.739,1.739,0,0,0-.68-.814,1.563,1.563,0,0,0-.892-.224,1,1,0,0,1,.969.078,1.95,1.95,0,0,1,.8.859,7.069,7.069,0,0,1,.5,1.527,18.5,18.5,0,0,0,3.889,7.6,12.185,12.185,0,0,0,7.369,4.023A14.373,14.373,0,0,0-3212.875-248.855Z" transform="translate(3371.237 283.508)" fill="#455a64"/>
        <path id="Path_6883" data-name="Path 6883" d="M-3227.9-264.436c-2.05,3.5-6.109,5.183-9.9,6.631l-12.05,4.626a11.286,11.286,0,0,1-4.458,1.036,3.812,3.812,0,0,1-3.578-2.463c-.58-2.074,1.271-3.968,3.021-5.217a47.452,47.452,0,0,1,14.723-7.044,14.4,14.4,0,0,1,6.89-.614,6.22,6.22,0,0,1,4.937,4.393" transform="translate(3360.996 281.779)" fill="#263238"/>
        <path id="Path_6884" data-name="Path 6884" d="M-3257.664-243.582l.067-.5c1.895-11.548,13.141-13.031,22.081-13.476s18.312,5.773,25.268,11.6a12.854,12.854,0,0,1,3.4,3.878,5.214,5.214,0,0,1,0,4.971c3.5-.4,4.27.625,7.112-1.459s1.114-9.084,1.114-9.084a32.517,32.517,0,0,1,6.822.824c5.572,1.115,7.156-1.962,7.223-5.2.056-2.442-1.627-5.317-6.609-9.386-6.053-4.926-10.31-9.708-18.225-13.118-6.821-2.932-14.056-3.556-21.479-3.456s-15.092,2.6-20.063,8.126c-4.325,4.815-6.152,11.3-7.8,17.544a18.869,18.869,0,0,0-.981,7.011c.278,2.352-.211,6.009,2.039,6.689" transform="translate(3360.351 278)" fill="#f9afa1"/>
        <path id="Path_6885" data-name="Path 6885" d="M-3231.7-270.235a5.509,5.509,0,0,1,1.271.09,10.292,10.292,0,0,1,1.482.257,17.349,17.349,0,0,1,1.929.49,26.021,26.021,0,0,1,4.793,1.983,29.385,29.385,0,0,1,5.2,3.645,29.856,29.856,0,0,1,4.236,4.738,25.481,25.481,0,0,1,2.542,4.525,17.7,17.7,0,0,1,.714,1.862,9.756,9.756,0,0,1,.423,1.437,4.73,4.73,0,0,1,.244,1.248c-.11,0-.512-1.749-1.761-4.38a27.844,27.844,0,0,0-2.6-4.38,31.726,31.726,0,0,0-4.18-4.614,32.324,32.324,0,0,0-5.083-3.612,28.157,28.157,0,0,0-4.659-2.061C-3229.9-269.944-3231.717-270.112-3231.7-270.235Z" transform="translate(3370.595 280.833)" fill="#263238"/>
        <path id="Path_6886" data-name="Path 6886" d="M-3245.471-275.886c.056.1-1.116.7-2.731,2.117a15.873,15.873,0,0,0-5.016,14.97c.413,2.084,1,3.287.9,3.343a2.717,2.717,0,0,1-.468-.814,13.781,13.781,0,0,1-.835-2.43,15.269,15.269,0,0,1,5.149-15.37,14.431,14.431,0,0,1,2.129-1.437A2.669,2.669,0,0,1-3245.471-275.886Z" transform="translate(3362.437 278.772)" fill="#263238"/>
        <path id="Path_6887" data-name="Path 6887" d="M-3208.735-271.518a10.4,10.4,0,0,1-1.627-.5c-1.038-.345-2.52-.88-4.382-1.461a42.842,42.842,0,0,0-6.687-1.56,22.292,22.292,0,0,0-8.259.224,15.341,15.341,0,0,0-7.291,3.677,13.042,13.042,0,0,0-3.522,5.662,14.3,14.3,0,0,0-.635,4.458c0,1.115.122,1.683.078,1.7s-.067-.146-.123-.425a9.115,9.115,0,0,1-.179-1.259,13.378,13.378,0,0,1,4.014-10.578,15.489,15.489,0,0,1,7.535-3.858,22.665,22.665,0,0,1,8.459-.19,40.354,40.354,0,0,1,6.688,1.706c1.861.635,3.343,1.226,4.335,1.638A9.391,9.391,0,0,1-3208.735-271.518Z" transform="translate(3367.054 278.752)" fill="#263238"/>
        <path id="Path_6888" data-name="Path 6888" d="M-3218.922-265.417c.056-.067.546.814,0,2.151a5.128,5.128,0,0,1-1.4,1.94,20.166,20.166,0,0,1-2.229,1.739,19.177,19.177,0,0,1-6.543,3.187c-.067-.156,2.943-1.394,6.219-3.656,1.627-1.115,3.122-2.229,3.612-3.344A4.24,4.24,0,0,0-3218.922-265.417Z" transform="translate(3371.544 282.592)" fill="#263238"/>
        <path id="Path_6889" data-name="Path 6889" d="M-3213.787-256.681a2.593,2.593,0,0,1-.246,1.538,6.835,6.835,0,0,1-2.229,3.032,7.046,7.046,0,0,1-3.489,1.437,2.63,2.63,0,0,1-1.549-.145c0-.1.591-.078,1.494-.268a7.991,7.991,0,0,0,3.188-1.482,8.088,8.088,0,0,0,2.229-2.73A11.148,11.148,0,0,1-3213.787-256.681Z" transform="translate(3374.39 285.783)" fill="#263238"/>
        <path id="Path_6890" data-name="Path 6890" d="M-3201.669-257.4c-.078.067-.758-.691-2.05-1.683a17.53,17.53,0,0,0-11.859-3.544c-1.629.123-2.62.378-2.643.279a7.294,7.294,0,0,1,2.6-.691,15.785,15.785,0,0,1,12.162,3.645A7.282,7.282,0,0,1-3201.669-257.4Z" transform="translate(3375.514 283.417)" fill="#263238"/>
        <path id="Path_6891" data-name="Path 6891" d="M-3257.264-253.1c0,.067-.357.067-.792-.212a2.824,2.824,0,0,1-1.115-1.638,4.189,4.189,0,0,1,0-2.675c.189,0,.235,1.193.569,2.508a3.239,3.239,0,0,0,.779,1.482C-3257.5-253.37-3257.242-253.181-3257.264-253.1Z" transform="translate(3360.486 285.437)" fill="#263238"/>
        <g id="Group_1458" data-name="Group 1458" transform="translate(141.086 10.889)" opacity="0.3">
          <path id="Path_6892" data-name="Path 6892" d="M-3230.094-270.023c6.141.212,11.771,3.343,17.086,6.387a20.719,20.719,0,0,1,4.86,3.5,7.136,7.136,0,0,1,2.163,5.416,4.457,4.457,0,0,1-3.757,4.057,26.5,26.5,0,0,0-17.666-18.659" transform="translate(3230.094 270.023)"/>
        </g>
        <path id="Path_6893" data-name="Path 6893" d="M-3216-239.18a1.5,1.5,0,0,1,1.338-.278,2.018,2.018,0,0,1,1.281.891,2.163,2.163,0,0,1,.212,1.907,2.232,2.232,0,0,1-1.461,1.3,1.886,1.886,0,0,1-1.56-.2,1.4,1.4,0,0,1-.59-.88c0-.246,0-.379.055-.379a1.709,1.709,0,0,0,.747.9,1.576,1.576,0,0,0,1.182.055,1.682,1.682,0,0,0,1.054-2.134,1.83,1.83,0,0,0-.139-.307,1.691,1.691,0,0,0-.937-.758C-3215.48-239.3-3215.983-239.091-3216-239.18Z" transform="translate(3376.039 292.056)" fill="#263238"/>
        <path id="Path_6894" data-name="Path 6894" d="M-3213.984-239.015c.056-.067.267,0,.524-.156a.882.882,0,0,0,.356-.992.945.945,0,0,0-.846-.68c-.334,0-.546.067-.6,0s.123-.313.579-.4a1.312,1.312,0,0,1,.792.134,1.256,1.256,0,0,1,.635.8,1.215,1.215,0,0,1-.758,1.527C-3213.806-238.647-3214.051-238.97-3213.984-239.015Z" transform="translate(3376.85 291.413)" fill="#263238"/>
      </g>
    </g>
  </g>
</svg>
