<?xml version="1.0" encoding="utf-8"?>
<!-- Generator: Adobe Illustrator 25.3.1, SVG Export Plug-In . SVG Version: 6.00 Build 0)  -->
<svg version="1.1" id="avião" xmlns="http://www.w3.org/2000/svg" xmlns:xlink="http://www.w3.org/1999/xlink" x="0px" y="0px"
	 viewBox="0 0 200 200" style="enable-background:new 0 0 200 200;" xml:space="preserve">
<style type="text/css">
	.st0{opacity:0.3;}
	.st1{fill:#FFFFFF;}
	.st2{opacity:0.6;}
	.st3{fill:#EFEFEF;}
	.st4{fill:#BFBFBF;}
	.st5{fill:#D7D7D8;}
	.st6{fill:#59316D;}
</style>
<g>
	<g id="Camada_1_1_">
		<g class="st0">
			<path class="st1" d="M176.4,45.1c-0.1-0.1-0.1-0.2-0.2-0.2l0,0c-4.4-5.9-22.7-1-41.2,11l-22.4,15.5l-19-10.9l1.8-1.2l0,0l0.3-0.2
				l0.1-0.1l0.1-0.1l0.1-0.1l0.1-0.1l0.1-0.2l0.1-0.1l0.1-0.2v-0.1c0-0.1,0.1-0.1,0.1-0.2c0,0,0,0,0-0.1s0-0.1,0-0.2c0,0,0,0,0-0.1
				s0-0.1,0-0.2v-0.1c0-0.1,0-0.1,0-0.2v-0.1c0-0.1,0-0.2,0-0.2l0,0c0-0.1,0-0.2,0-0.2l0,0c0-0.1,0-0.2-0.1-0.3l0,0
				c0-0.1-0.1-0.2-0.1-0.3l0,0c0-0.1-0.1-0.2-0.1-0.3l0,0c-0.1-0.2-0.2-0.4-0.4-0.6c-1-1.6-2.5-2.4-4.1-1.4l-3.9,2.5l0,0L87,56.9
				L75.3,50l1.8-1.2l0,0l1.8-1.2c1.6-1,1.4-2.7,0.4-4.3s-2.5-2.4-4.1-1.4l-6.6,4.3L48,34.4l-9.5,6.2l36,32.7l11,17l-18.8,13.5
				c-6.2,4.2-12,9-17.4,14.2L20,106l-4.2,2.7l23,20.9c-2.1,3.1-3.2,5.4-2.4,6.6c0.1,0.1,0.2,0.3,0.3,0.4l0,0l0.1,0.1
				c0,0,0.1,0,0.1,0.1l0.1,0.1l0.1,0.1l0.3,0.1h0.1l0.2,0.1h0.2H38h0.2h0.2h0.2h0.2H40h0.2h0.2h0.3h0.2h0.3h0.2h0.3H42l0.3-0.1h0.2
				l0.3-0.1l0.3-0.1h0.2l9.7,29.6l4.2-2.7l1.1-31.6l0.2-0.1l0.4-0.1l0.4-0.2l0.4-0.2l0.5-0.2l0.4-0.2L61,131l0.4-0.2l0.4-0.2
				l0.4-0.2l0.4-0.2L63,130l0.4-0.2l0.4-0.2l0.4-0.2l0.4-0.2L65,129l0.4-0.2l0.4-0.2l0.4-0.2l0.4-0.2L67,128l0.4-0.2l0.4-0.2
				l0.4-0.2l0.4-0.2L69,127l0.4-0.2l0.4-0.2l0.4-0.2l0.4-0.2L71,126l0.3-0.2l0.4-0.2l0.3-0.2l0.4-0.2L73,125l0.4-0.2l0.3-0.2
				l0.4-0.2l0.3-0.2l0.4-0.2l0.3-0.2l0.4-0.2l0.3-0.2l0.4-0.2l0.3-0.2l0.4-0.2l0.3-0.2l0.5-0.3c0.1,0,0.1-0.1,0.2-0.1l0.6-0.4
				l19.9-11.9l11,17l15.2,46.2l9.5-6.2l-2.4-23.9l6.6-4.3l0.3-0.2c0,0,0,0,0.1-0.1s0.1-0.1,0.2-0.2l0.1-0.1l0.1-0.2l0.1-0.1l0.1-0.1
				c0,0,0-0.1,0.1-0.1l0.1-0.1c0,0,0-0.1,0.1-0.1s0-0.1,0-0.1s0-0.1,0-0.2V137c0-0.1,0-0.1,0-0.2v-0.1c0-0.1,0-0.1,0-0.2v-0.1
				c0-0.1,0-0.1,0-0.2c0,0,0,0,0-0.1s0-0.2,0-0.2s0,0,0-0.1s0-0.2-0.1-0.2l0,0c0-0.1-0.1-0.2-0.1-0.3l0,0c0-0.1-0.1-0.2-0.1-0.3l0,0
				l-0.1-0.2l0,0c0-0.1-0.1-0.2-0.1-0.2l0,0l0,0v-0.1c-1-1.6-2.5-2.4-4.1-1.4l-3.7,2.4l-1.1-10.4l7.1-4.8c0.1-0.1,0.2-0.1,0.3-0.2
				l0.1-0.1l0.2-0.2l0.1-0.1l0.1-0.1l0.1-0.1l0.1-0.1c0,0,0-0.1,0.1-0.1v-0.1l0.1-0.2l0,0c0-0.1,0-0.1,0-0.2v-0.1c0-0.1,0-0.1,0-0.2
				v-0.1v-0.3V118c0,0,0,0,0-0.1s0-0.1,0-0.2c0,0,0,0,0-0.1s0-0.1-0.1-0.2c0,0,0,0,0-0.1s0-0.1-0.1-0.2V117c0-0.1-0.1-0.2-0.1-0.2
				v-0.1l-0.1-0.2c0,0,0,0,0-0.1s-0.1-0.2-0.1-0.2l0,0l0,0v-0.1c-1-1.6-2.5-2.4-4.1-1.4l-4.3,2.8l-1.4-14l0,0l-0.3-3l-0.8-7.8
				l23.2-14.2C168.6,66.4,180.5,51.4,176.4,45.1z"/>
		</g>
		<path class="st1" d="M74.9,69c-1-1.6-0.6-3.7,1-4.7l0,0l16.8-11c1.6-1,3-0.2,4.1,1.4s1.2,3.2-0.4,4.2L79.6,70
			C78,71,75.9,70.6,74.9,69z"/>
		<g class="st0">
			<path class="st1" d="M96.4,59c1.6-1,1.4-2.7,0.4-4.2l-22,14c0,0,0,0.1,0.1,0.1c0.2,0.2,0.4,0.5,0.6,0.7l5.1-0.3L96.4,59z"/>
		</g>
		<path class="st1" d="M58.4,57.3c-1-1.6-0.6-3.7,1-4.7l16.8-10.9c1.6-1,3.1-0.2,4.1,1.4s1.2,3.2-0.4,4.3L63.1,58.3
			C61.5,59.3,59.4,58.9,58.4,57.3z"/>
		<path class="st1" d="M96.3,59.1l-7.6-3.2l-12.9,8.4c-1.6,1-2,3.1-1,4.7s3.1,2,4.7,1L96.3,59.1z"/>
		<path class="st1" d="M70.2,45.6l-10.8,7c-0.5,0.3-0.9,0.8-1.2,1.4l4.8,4.4l0.1-0.1l15-9.7L70.2,45.6z"/>
		<polygon class="st1" points="128,79.4 48.8,34.1 39.3,40.3 75.4,73 94,101.6 101.6,96.6 101.6,96.6 		"/>
		<g class="st0">
			<path class="st1" d="M140.2,137.2v-0.1V137v-0.1c0-0.1,0-0.1,0-0.2v-0.1c0-0.1,0-0.1,0-0.2v-0.1c0-0.1,0-0.2,0-0.2l0,0
				c0-0.1,0-0.2-0.1-0.2c0,0,0,0,0-0.1s0-0.2-0.1-0.2l0,0c0-0.1-0.1-0.2-0.1-0.3l0,0l-0.1-0.2l0,0c0-0.1-0.1-0.2-0.1-0.2l0,0
				l-0.1-0.2l0,0l0,0v-0.1c-1-1.6-2.5-2.4-4.1-1.4L118.7,144c-1.6,1-2,3.1-1,4.7l0,0c0.1,0.1,0.2,0.2,0.3,0.3l0,0
				c1.1,1.3,3,1.5,4.4,0.6l1-0.6l0,0l15.8-10.3l0.3-0.2h0.1c0.1-0.1,0.1-0.1,0.2-0.2l0.1-0.1l0.1-0.2l0.1-0.1l0.1-0.1l0.1-0.1
				l0.1-0.1C140.2,137.6,140.2,137.3,140.2,137.2z"/>
		</g>
		<path class="st1" d="M116.4,130.1c-1-1.6-0.6-3.7,1-4.7l16.8-10.9c1.6-1,3.1-0.2,4.1,1.4s1.2,3.2-0.4,4.3l-16.8,10.9
			C119.5,132.1,117.4,131.7,116.4,130.1z"/>
		<g class="st0">
			<path class="st1" d="M137.9,120.2c1.6-1,1.4-2.7,0.4-4.2l-22,14c0,0,0,0.1,0.1,0.1c0.2,0.2,0.4,0.5,0.6,0.7l5.1-0.3L137.9,120.2z
				"/>
		</g>
		<polygon class="st1" points="103,90.6 103,90.6 99.3,93.1 99.2,93.1 99.2,93.1 91.7,98 110.3,126.6 125.5,172.9 135,166.7 
			125.7,75.9 		"/>
		<g class="st2">
			<polygon class="st1" points="128.5,103.2 126.2,80.2 100.2,92.4 99.3,93.1 99.2,93.1 91.7,98 104.4,117.6 			"/>
		</g>
		<polygon class="st1" points="58.2,163.2 59.6,121.4 43,132.3 54,165.9 		"/>
		<g class="st2">
			<polygon class="st1" points="46,141.4 59.1,137.5 59.6,121.4 43,132.3 			"/>
		</g>
		<polygon class="st1" points="20.9,105.8 59.6,121.4 43,132.3 16.7,108.5 		"/>
		<path class="st1" d="M135.9,55.7l-68.3,47.7l0,0C54,112.3,34.8,132,37.3,135.9s28.4-5.6,42-14.4l71.3-43.2
			c18.8-12.2,30.7-27.2,26.7-33.5S154.7,43.4,135.9,55.7z"/>
		<g class="st0">
			<path class="st1" d="M177.3,44.9l-0.2-0.2L37.7,136.3c3.9,3,28.5-6.2,41.7-14.8l71.3-43.2C169.4,66.1,181.4,51.1,177.3,44.9z"/>
		</g>
		<path class="st3" d="M78.3,70.9c-1-1.6-0.6-3.7,1-4.7l0,0l16.8-10.9c1.6-1,3.1-0.2,4.1,1.4s1.2,3.3-0.4,4.3L83,71.8
			C81.4,72.9,79.3,72.5,78.3,70.9L78.3,70.9z"/>
		<g class="st0">
			<path class="st4" d="M99.8,60.9c1.6-1,1.4-2.7,0.4-4.2l-22,14c0,0,0,0.1,0.1,0.1c0.2,0.2,0.4,0.5,0.6,0.7l5.1-0.3L99.8,60.9z"/>
		</g>
		<path class="st3" d="M61.8,59.2c-1-1.6-0.6-3.7,1-4.7l16.8-10.9c1.6-1,3.1-0.2,4.1,1.4s1.2,3.3-0.4,4.3L66.5,60.2
			C64.9,61.2,62.8,60.7,61.8,59.2L61.8,59.2z"/>
		<path class="st5" d="M99.8,60.9l-7.6-3.2l-12.9,8.4c-1.6,1-2,3.1-1,4.7s3.1,2,4.7,1L99.8,60.9z"/>
		<path class="st5" d="M73.6,47.5l-10.8,7c-0.5,0.3-0.9,0.8-1.2,1.4l4.8,4.3l0.1-0.1l15-9.7L73.6,47.5z"/>
		<polygon class="st3" points="131.4,81.3 52.2,36 42.7,42.2 78.8,74.8 97.4,103.4 104.9,98.5 104.9,98.5 		"/>
		<g class="st0">
			<path class="st4" d="M143.6,139.1V139c0,0,0-0.1,0-0.2v-0.1c0-0.1,0-0.1,0-0.2v-0.1c0-0.1,0-0.1,0-0.2v-0.1c0-0.1,0-0.2,0-0.2
				s0,0,0-0.1s0-0.2-0.1-0.2c0,0,0,0,0-0.1s0-0.2-0.1-0.2l0,0c0-0.1-0.1-0.2-0.1-0.2l0,0l-0.1-0.3l0,0l-0.1-0.2l0,0
				c0-0.1-0.1-0.2-0.1-0.2v-0.1l0,0l0,0c-1-1.6-2.5-2.4-4.1-1.4l-16.8,10.9c-1.6,1-2,3.1-1,4.7c0.1,0.1,0.2,0.2,0.3,0.4l0,0
				c1.1,1.3,3,1.5,4.4,0.6l1-0.6l0,0l15.8-10.3c0.1-0.1,0.2-0.1,0.3-0.2s0,0,0,0c0.1,0,0.1-0.1,0.2-0.2l0.1-0.1
				c0.1,0,0.1-0.1,0.1-0.2l0.1-0.1l0.1-0.1v-0.1l0.1-0.1L143.6,139.1z"/>
		</g>
		<path class="st3" d="M119.8,132c-1-1.6-0.6-3.7,1-4.7l16.8-10.9c1.6-1,3-0.2,4.1,1.4s1.2,3.3-0.4,4.3L124.5,133
			C122.9,134,120.8,133.6,119.8,132z"/>
		<g class="st0">
			<path class="st4" d="M141.3,122c1.6-1,1.4-2.7,0.4-4.2l-22,14l0.1,0.1c0.2,0.2,0.4,0.5,0.6,0.7l5.1-0.3L141.3,122z"/>
		</g>
		<polygon class="st3" points="106.4,92.5 106.4,92.5 102.7,94.9 102.6,95 102.6,95 95.1,99.9 113.7,128.5 128.9,174.7 138.4,168.5 
			129.1,77.8 		"/>
		<g class="st2">
			<polygon class="st4" points="131.9,105.1 129.5,82 103.7,94.3 102.7,94.9 102.6,95 95.1,99.9 107.8,119.5 			"/>
		</g>
		<polygon class="st3" points="61.6,165.1 63,123.3 46.4,134.2 57.5,167.8 		"/>
		<g class="st2">
			<polygon class="st4" points="49.4,143.3 62.5,139.4 63,123.3 46.4,134.2 			"/>
		</g>
		<polygon class="st3" points="24.3,107.7 63,123.3 46.4,134.2 20.1,110.4 		"/>
		<path class="st3" d="M139.3,57.5L71,105.3l0,0c-13.6,8.9-32.8,28.6-30.3,32.6s28.4-5.6,42-14.5L154,80.2
			C172.8,68,184.8,53,180.7,46.8S158.1,45.3,139.3,57.5z"/>
		<g class="st0">
			<path class="st4" d="M180.7,46.8c0-0.1-0.1-0.2-0.2-0.2L41,138.2c3.9,3,28.5-6.2,41.7-14.8L154,80.2
				C172.8,68,184.8,53,180.7,46.8z"/>
		</g>
		<path class="st6" d="M94.9,62.5c-1.3,0.3-2.7-0.5-3-1.8c-0.3-1,0.2-2.1,1-2.7l1.3-0.8l0,0c0,0,0-0.3-0.3-0.8
			c-0.2-0.3-0.4-0.5-0.7-0.7L89,58.5c-1.2,0.7-2.7,0.4-3.4-0.8c-0.7-1.1-0.4-2.6,0.7-3.4l4.3-2.8c2.5-1.7,5.5-0.8,7.5,2.1
			c0.8,1.1,1.2,2.4,1.2,3.8c-0.1,1.6-0.9,3.1-2.3,3.9l-1.3,0.8C95.4,62.3,95.2,62.4,94.9,62.5z"/>
		<path class="st6" d="M77.2,51.6c-1.3,0.3-2.7-0.5-3-1.8c-0.2-1,0.2-2.1,1-2.6l2.5-1.6l0,0c0,0,0-0.3-0.3-0.8
			c-0.2-0.3-0.4-0.5-0.7-0.7L71,47.7c-1.1,0.8-2.7,0.6-3.5-0.6c-0.8-1.1-0.6-2.7,0.6-3.5c0.1-0.1,0.1-0.1,0.2-0.1l5.7-3.7
			c2.6-1.7,5.6-0.8,7.5,2.1s1.5,6-1.1,7.7l-2.5,1.6C77.7,51.5,77.4,51.6,77.2,51.6z"/>
		<path class="st6" d="M86.2,92.6c-1,0.3-2.2-0.1-2.8-1L72.6,74.8L36.8,42.4c-1-0.9-1.1-2.5-0.2-3.5c0.1-0.2,0.3-0.3,0.5-0.4
			l9.5-6.2c0.8-0.5,1.8-0.5,2.6-0.1l64.7,37.1c1.2,0.7,1.6,2.2,0.9,3.4s-2.2,1.6-3.4,0.9l0,0L48,37.3l-5.5,3.6l33.7,30.5
			c0.2,0.1,0.3,0.3,0.4,0.5l11,17c0.7,1.2,0.4,2.7-0.7,3.4C86.7,92.4,86.5,92.5,86.2,92.6z"/>
		<path class="st6" d="M132.6,145.4c-1.3,0.4-2.7-0.4-3.1-1.7c-0.3-1,0.1-2.1,1-2.7l6.4-4.3c0.1,0,0-0.4-0.3-0.9
			c-0.2-0.3-0.4-0.5-0.7-0.7l-3.6,2.5c-1.2,0.8-2.7,0.4-3.4-0.7s-0.4-2.7,0.7-3.4l0,0l3.7-2.4c2.6-1.7,5.6-0.8,7.5,2.1
			s1.5,6-1.1,7.7l-6.4,4.2C133.1,145.2,132.8,145.3,132.6,145.4z"/>
		<path class="st6" d="M130.5,127.5c-1.3,0.3-2.7-0.5-3-1.8c-0.3-1,0.2-2.1,1-2.7l7.2-4.7l0,0c0,0,0-0.3-0.3-0.8
			c-0.2-0.3-0.4-0.5-0.7-0.7l-4.2,2.8c-1.1,0.8-2.7,0.5-3.5-0.6s-0.5-2.7,0.6-3.5c0,0,0.1,0,0.1-0.1l4.3-2.8
			c2.6-1.7,5.6-0.8,7.5,2.1s1.5,6-1.1,7.7l-7.2,4.7C131,127.3,130.8,127.4,130.5,127.5z"/>
		<path class="st6" d="M125.3,175.5c-1.3,0.4-2.6-0.3-3.1-1.6L107.1,128l-10.9-16.8c-0.8-1.1-0.6-2.7,0.6-3.5s2.7-0.6,3.5,0.6
			c0.1,0.1,0.1,0.1,0.1,0.2l11,17c0.1,0.2,0.2,0.4,0.3,0.6l14.3,43.1l5.5-3.6L124.1,93c-0.1-1.4,1-2.6,2.3-2.6
			c1.3-0.1,2.4,0.8,2.6,2.1l7.6,74.2c0.1,0.9-0.3,1.8-1.1,2.3l-9.5,6.2C125.8,175.3,125.6,175.4,125.3,175.5z"/>
		<path class="st6" d="M53.9,168.6c-1.3,0.3-2.6-0.4-3-1.6l-9.8-29.6c-0.4-1.3,0.3-2.7,1.6-3.1c1.3-0.4,2.7,0.2,3.1,1.5v0.1
			l8.7,26.5l0.4-0.2l1-30.3c0-1.4,1.2-2.5,2.6-2.4c1.4,0,2.5,1.2,2.4,2.6l-1,31.6c0,0.8-0.5,1.6-1.1,2l-4.2,2.7
			C54.4,168.4,54.1,168.5,53.9,168.6z"/>
		<path class="st6" d="M39.6,132c-0.8,0.2-1.7,0-2.4-0.5l-23-20.9c-1-0.9-1.1-2.5-0.2-3.5c0.1-0.2,0.3-0.3,0.5-0.4l4.2-2.7
			c0.7-0.4,1.5-0.5,2.3-0.2l29.3,11.9c1.2,0.6,1.8,2.1,1.2,3.3c-0.5,1.1-1.8,1.7-3,1.3l-28.2-11.4l-0.4,0.2l20.7,18.7
			c1,0.9,1.1,2.5,0.2,3.5l0,0C40.4,131.6,40,131.9,39.6,132z"/>
		<path class="st6" d="M48.5,138c-11.7,3.4-13.4,0.8-14.1-0.4c-0.9-1.4-3-4.5,9.3-17.5c6.5-6.9,13.8-13.1,21.7-18.5l68.2-47.7h0.1
			c18-11.7,39.1-18.9,44.8-10s-9.4,25.1-27.4,36.8l-71.3,43.2c-8.1,5-16.7,9.1-25.6,12.2C52,136.9,50.2,137.5,48.5,138z M38.8,134.7
			c4.8,0.6,25.2-6.4,38.3-15l71.4-43.2c19.7-12.8,28.4-26.1,25.9-30s-18.2-1.4-37.9,11.5l-68.3,47.7C55,114.3,40.2,130,38.8,134.7
			L38.8,134.7z"/>
		<path class="st6" d="M161.4,65.1c0,0.1,0.1,0.2,0.2,0.2c0.1,0,0.1,0,0.1-0.1c2.1-4.2,2.5-8.1,0.6-10.9s-5.6-4.1-10.2-3.8
			c-0.1,0-0.2,0.1-0.2,0.2c0,0.1,0,0.1,0.1,0.1C157.7,53.3,161.4,58.9,161.4,65.1L161.4,65.1z"/>
	</g>
</g>
</svg>
