<?xml version="1.0" encoding="utf-8"?>
<!-- Generator: Adobe Illustrator 16.0.0, SVG Export Plug-In . SVG Version: 6.00 Build 0)  -->
<!DOCTYPE svg PUBLIC "-//W3C//DTD SVG 1.1//EN" "http://www.w3.org/Graphics/SVG/1.1/DTD/svg11.dtd">

<svg xmlns="http://www.w3.org/2000/svg" width="346.264" height="310.369" viewBox="0 0 346.264 310.369">
  <g id="Group_1574" data-name="Group 1574" transform="translate(-1075.695 -272.428)">
    <g id="freepik--background-simple--inject-409" transform="translate(1082.902 284.949)">
      <path id="Path_5521" data-name="Path 5521" d="M306.644,233.392c18.145-34.864,19.368-81.314,6.842-118.561C302.719,82.77,278.7,58.31,250.978,43.744c-32.163-16.891-70.5-21.921-105.019-11.259-9.079,2.8-17.916,5.375-26.479,9.983C84.387,61.359,89.3,83.226,76.992,99.414c-10.355,13.623-28.314,34.289-40.8,44.73C2.478,172.313,21.908,238.23,60.8,260.483,102.044,284.1,261.7,319.748,306.644,233.392Z" transform="translate(-18.871 -26.892)" fill="#d6e3f4">
        <animate dur="15s" repeatCount="indefinite" attributeName="d"
          values="M306.644,233.392c18.145-34.864,19.368-81.314,6.842-118.561C302.719,82.77,278.7,58.31,250.978,43.744c-32.163-16.891-70.5-21.921-105.019-11.259-9.079,2.8-17.916,5.375-26.479,9.983C84.387,61.359,89.3,83.226,76.992,99.414c-10.355,13.623-28.314,34.289-40.8,44.73C2.478,172.313,21.908,238.23,60.8,260.483,102.044,284.1,261.7,319.748,306.644,233.392Z;
          M244.793,175.869c18.146-34.864,44.141-67.146,31.615-104.394
    				c-10.768-32.061-56.559-17.707-84.281-32.273c-32.163-16.891-48.727-60.735-83.246-50.073c-9.079,2.8-17.916,5.375-26.479,9.982
    				C47.309,18.003,33.768,24.348,21.46,40.536c-10.355,13.623,33.819,63.232,21.333,73.674
    				C9.079,142.378-15.17,194.875,23.722,217.127C64.966,240.744,199.85,262.224,244.793,175.869z;
          M306.644,233.392c18.145-34.864,19.368-81.314,6.842-118.561C302.719,82.77,278.7,58.31,250.978,43.744c-32.163-16.891-70.5-21.921-105.019-11.259-9.079,2.8-17.916,5.375-26.479,9.983C84.387,61.359,89.3,83.226,76.992,99.414c-10.355,13.623-28.314,34.289-40.8,44.73C2.478,172.313,21.908,238.23,60.8,260.483,102.044,284.1,261.7,319.748,306.644,233.392Z"/>
      </path>
    </g>
    <g id="freepik--background-simple--inject-409-2" data-name="freepik--background-simple--inject-409" transform="translate(1378.78 580.487) rotate(-171)">
      <path id="Path_5521-2" data-name="Path 5521" d="M289.407,206.5c18.145-34.864,19.368-81.314,6.842-118.561-10.767-32.06-34.786-56.521-62.508-71.086C201.578-.039,163.24-5.068,128.722,5.594c-4.176,1.29-8.3,2.53-12.642,4.036a94.136,94.136,0,0,0-13.836,5.946C67.15,34.467,57.314,53.378,45,69.566,34.648,83.188,20.511,100.877,9.16,125.96-11.792,162,4.671,211.338,43.558,233.592,84.807,257.209,244.462,292.856,289.407,206.5Z" transform="translate(0 0)" fill="none" stroke="#59316d" stroke-width="4">
        <animate dur="15s" repeatCount="indefinite" attributeName="d"
          values="M289.407,206.5c18.145-34.864,19.368-81.314,6.842-118.561-10.767-32.06-34.786-56.521-62.508-71.086C201.578-.039,163.24-5.068,128.722,5.594c-4.176,1.29-8.3,2.53-12.642,4.036a94.136,94.136,0,0,0-13.836,5.946C67.15,34.467,57.314,53.378,45,69.566,34.648,83.188,20.511,100.877,9.16,125.96-11.792,162,4.671,211.338,43.558,233.592,84.807,257.209,244.462,292.856,289.407,206.5Z;
          M296.471,194.35
    				c18.145-34.864,32.862-55.752,20.336-92.999c-10.767-32.06-71.637-41.915-99.359-56.48
    				c-32.163-16.891-33.65-36.527-68.167-25.865c-4.177,1.29-8.3,2.53-12.642,4.036c-4.763,1.61-9.391,3.597-13.836,5.946
    				c-35.094,18.891-70.505,42.652-82.82,58.84c-10.352,13.622,21.246,54.437,9.895,79.52
    				c-20.952,36.04-12.613,88.242,26.275,110.495C117.401,301.461,251.526,280.706,296.471,194.35z;
            M289.407,206.5
            c18.145-34.864,19.368-81.314,6.842-118.561-10.767-32.06-34.786-56.521-62.508-71.086C201.578-.039,163.24-5.068,128.722,5.594
            c-4.176,1.29-8.3,2.53-12.642,4.036a94.136,94.136,0,0,0-13.836,5.946C67.15,34.467,57.314,53.378,45,69.566,34.648,83.188,20.511,100.877,9.16,125.96-11.792,162,4.671,211.338,43.558,233.592,84.807,257.209,244.462,292.856,289.407,206.5Z"/>
      </path>
    </g>
  </g>
</svg>
