<svg xmlns="http://www.w3.org/2000/svg" xmlns:xlink="http://www.w3.org/1999/xlink" width="1429" height="965" viewBox="0 0 1429 965">
  <defs>
    <clipPath id="clip-path">
      <rect id="Rectangle_1646" data-name="Rectangle 1646" width="1429" height="965" transform="translate(0 115)" fill="#fff" stroke="#707070" stroke-width="1"/>
    </clipPath>
  </defs>
  <g id="Mask_Group_40" data-name="Mask Group 40" transform="translate(0 -115)" clip-path="url(#clip-path)">
    <g id="Group_1599" data-name="Group 1599">
      <g id="freepik--background-simple--inject-409" transform="matrix(0.087, -0.996, 0.996, 0.087, -785.532, 991.456)" opacity="0.674">
        <path id="Path_8565" data-name="Path 8565" d="M861.9,794.462c52.986-134.132,56.558-312.838,19.98-456.137C850.438,214.98,780.3,120.874,699.349,64.837,605.429-.15,493.478-19.5,392.682,21.52,366.17,32.307,340.364,42.2,315.361,59.927,212.884,132.6,232.653,311.7,196.705,373.974c-30.237,52.41-88.094,36.955-124.558,77.127C-26.3,559.477-26.51,833.425,87.046,919.041,207.5,1009.906,730.656,1126.7,861.9,794.462Z" transform="translate(0 0)" fill="#ede6f0"/>
        <path id="Path_8566" data-name="Path 8566" d="M861.9,794.462c52.986-134.132,56.558-312.838,19.98-456.137C850.438,214.98,780.3,120.874,699.349,64.837,605.429-.15,493.478-19.5,392.682,21.52,366.17,32.307,340.364,42.2,315.361,59.927,212.884,132.6,234.479,235.983,198.531,298.26,174.613,339.716,132.273,386.083,97.514,423.6c-9.11,9.832-17.745,19.106-25.366,27.5C-26.3,559.477-26.51,833.425,87.046,919.041,207.5,1009.906,730.656,1126.7,861.9,794.462Z" transform="translate(0 0)" fill="#ede6f0" opacity="0.8"/>
      </g>
      <g id="Group_1587" data-name="Group 1587" transform="translate(154.793 280.451)">
        <path id="Path_8567" data-name="Path 8567" d="M217.916,314.39H58.09V55.73H217.916ZM63.058,309.422h149.89V60.7H63.058Z" transform="translate(-45.882 -54.761)" fill="#ebebeb"/>
        <rect id="Rectangle_1369" data-name="Rectangle 1369" width="4.968" height="249.892" transform="translate(89.569 7.24)" fill="#ebebeb"/>
        <rect id="Rectangle_1370" data-name="Rectangle 1370" width="168.843" height="6.918" transform="translate(7.7 11.016)" fill="#ebebeb"/>
        <rect id="Rectangle_1371" data-name="Rectangle 1371" width="168.843" height="6.918" transform="translate(7.7 18.791)" fill="#ebebeb"/>
        <rect id="Rectangle_1372" data-name="Rectangle 1372" width="168.843" height="6.918" transform="translate(7.7 26.577)" fill="#ebebeb"/>
        <rect id="Rectangle_1373" data-name="Rectangle 1373" width="168.843" height="6.918" transform="translate(7.7 34.365)" fill="#ebebeb"/>
        <rect id="Rectangle_1374" data-name="Rectangle 1374" width="168.843" height="6.918" transform="translate(7.7 42.139)" fill="#ebebeb"/>
        <rect id="Rectangle_1375" data-name="Rectangle 1375" width="168.843" height="6.918" transform="translate(7.7 49.926)" fill="#ebebeb"/>
        <rect id="Rectangle_1376" data-name="Rectangle 1376" width="168.843" height="6.918" transform="translate(7.7 57.701)" fill="#ebebeb"/>
        <rect id="Rectangle_1377" data-name="Rectangle 1377" width="168.843" height="6.918" transform="translate(7.7 65.488)" fill="#ebebeb"/>
        <rect id="Rectangle_1378" data-name="Rectangle 1378" width="168.843" height="6.918" transform="translate(7.7 73.275)" fill="#ebebeb"/>
        <rect id="Rectangle_1379" data-name="Rectangle 1379" width="1.242" height="134.615" transform="translate(160.546 9.612)" fill="#a6a6a6"/>
        <path id="Path_8568" data-name="Path 8568" d="M180.669,176.964H176.26l1.105-6.334h2.2Z" transform="translate(-17.291 -26.962)" fill="#a6a6a6"/>
        <rect id="Rectangle_1380" data-name="Rectangle 1380" width="1.242" height="205.828" transform="translate(165.017 9.612)" fill="#a6a6a6"/>
        <path id="Path_8569" data-name="Path 8569" d="M184.269,233.4H179.86l1.105-6.334h2.2Z" transform="translate(-16.42 -13.307)" fill="#a6a6a6"/>
        <rect id="Rectangle_1381" data-name="Rectangle 1381" width="184.255" height="14.469" transform="translate(0 0)" fill="#dbdbdb"/>
      </g>
      <g id="freepik--Shelves--inject-14" transform="translate(857.219 336.294)" opacity="0.708">
        <rect id="Rectangle_1382" data-name="Rectangle 1382" width="224.723" height="5.854" transform="translate(19.846 95.893)" fill="#dbdbdb"/>
        <rect id="Rectangle_1383" data-name="Rectangle 1383" width="224.723" height="5.854" transform="translate(19.846 178.752)" fill="#dbdbdb"/>
        <rect id="Rectangle_1384" data-name="Rectangle 1384" width="224.723" height="5.854" transform="translate(19.846 261.599)" fill="#dbdbdb"/>
        <rect id="Rectangle_1385" data-name="Rectangle 1385" width="23.133" height="65.97" transform="translate(38.804 29.911)" fill="#c7c7c7"/>
        <rect id="Rectangle_1386" data-name="Rectangle 1386" width="23.133" height="7.25" transform="translate(38.804 69.945)" fill="#dbdbdb"/>
        <rect id="Rectangle_1387" data-name="Rectangle 1387" width="23.133" height="2.685" transform="translate(38.804 42.908)" fill="#dbdbdb"/>
        <rect id="Rectangle_1388" data-name="Rectangle 1388" width="23.133" height="65.97" transform="translate(211.701 29.934)" fill="#7f7f7f"/>
        <rect id="Rectangle_1389" data-name="Rectangle 1389" width="23.133" height="7.25" transform="translate(211.689 48.621)" fill="#dbdbdb"/>
        <rect id="Rectangle_1390" data-name="Rectangle 1390" width="23.133" height="2.685" transform="translate(211.689 89.27)" fill="#dbdbdb"/>
        <rect id="Rectangle_1391" data-name="Rectangle 1391" width="23.133" height="2.685" transform="translate(211.701 76.875)" fill="#dbdbdb"/>
        <rect id="Rectangle_1392" data-name="Rectangle 1392" width="17.539" height="65.97" transform="translate(152.543 29.911)" fill="#7f7f7f"/>
        <rect id="Rectangle_1393" data-name="Rectangle 1393" width="17.539" height="7.25" transform="translate(152.543 69.933)" fill="#dbdbdb"/>
        <rect id="Rectangle_1394" data-name="Rectangle 1394" width="17.539" height="2.685" transform="translate(152.531 42.92)" fill="#dbdbdb"/>
        <rect id="Rectangle_1395" data-name="Rectangle 1395" width="16.167" height="76.957" transform="translate(61.937 18.923)" fill="#dbdbdb"/>
        <rect id="Rectangle_1396" data-name="Rectangle 1396" width="9.698" height="29.603" transform="translate(65.095 26.162)" fill="#fff"/>
        <rect id="Rectangle_1397" data-name="Rectangle 1397" width="9.745" height="72.369" transform="translate(234.835 23.512)" fill="#c7c7c7"/>
        <rect id="Rectangle_1398" data-name="Rectangle 1398" width="5.842" height="27.829" transform="translate(236.822 28.527)" fill="#ebebeb"/>
        <rect id="Rectangle_1399" data-name="Rectangle 1399" width="16.167" height="70.37" transform="translate(170.071 25.511)" fill="#dbdbdb"/>
        <rect id="Rectangle_1400" data-name="Rectangle 1400" width="9.698" height="27.06" transform="translate(173.37 62.21)" fill="#fff"/>
        <rect id="Rectangle_1401" data-name="Rectangle 1401" width="27.45" height="58.46" transform="translate(78.093 37.444)" fill="#c7c7c7"/>
        <rect id="Rectangle_1402" data-name="Rectangle 1402" width="27.45" height="5.452" transform="translate(78.093 84.255)" fill="#7f7f7f"/>
        <rect id="Rectangle_1403" data-name="Rectangle 1403" width="27.45" height="2.117" transform="translate(78.093 78.566)" fill="#7f7f7f"/>
        <rect id="Rectangle_1404" data-name="Rectangle 1404" width="18.958" height="54.936" transform="translate(19.846 40.957)" fill="#dbdbdb"/>
        <rect id="Rectangle_1405" data-name="Rectangle 1405" width="18.959" height="5.121" transform="translate(19.845 84.953)" fill="#7f7f7f"/>
        <rect id="Rectangle_1406" data-name="Rectangle 1406" width="18.958" height="5.121" transform="translate(19.857 52.275)" fill="#7f7f7f"/>
        <rect id="Rectangle_1407" data-name="Rectangle 1407" width="18.958" height="1.987" transform="translate(19.846 60.909)" fill="#7f7f7f"/>
        <rect id="Rectangle_1408" data-name="Rectangle 1408" width="25.463" height="76.969" transform="translate(186.226 18.923)" fill="#c7c7c7"/>
        <rect id="Rectangle_1409" data-name="Rectangle 1409" width="25.463" height="7.179" transform="translate(186.226 80.565)" fill="#a6a6a6"/>
        <rect id="Rectangle_1410" data-name="Rectangle 1410" width="25.463" height="7.179" transform="translate(186.238 34.783)" fill="#a6a6a6"/>
        <rect id="Rectangle_1411" data-name="Rectangle 1411" width="25.463" height="2.779" transform="translate(186.226 46.882)" fill="#a6a6a6"/>
        <path id="Path_8570" data-name="Path 8570" d="M342.909,146.136,318.9,83.288l9-2.578,24.009,62.848Z" transform="translate(-199.425 -50.244)" fill="#7f7f7f"/>
        <path id="Path_8571" data-name="Path 8571" d="M337.4,131.7l-2.235-5.854,9-2.578,2.235,5.854Z" transform="translate(-196.454 -42.468)" fill="#dbdbdb"/>
        <path id="Path_8572" data-name="Path 8572" d="M325.325,100.1l-2.235-5.854,9-2.578,2.235,5.854Z" transform="translate(-198.659 -48.241)" fill="#dbdbdb"/>
        <rect id="Rectangle_1412" data-name="Rectangle 1412" width="13.944" height="74.048" transform="translate(105.543 21.845)" fill="#7f7f7f"/>
        <rect id="Rectangle_1413" data-name="Rectangle 1413" width="13.944" height="6.907" transform="translate(105.543 29.698)" fill="#c7c7c7"/>
        <rect id="Rectangle_1414" data-name="Rectangle 1414" width="13.944" height="6.907" transform="translate(105.543 73.729)" fill="#c7c7c7"/>
        <rect id="Rectangle_1415" data-name="Rectangle 1415" width="13.944" height="2.673" transform="translate(105.543 66.326)" fill="#c7c7c7"/>
        <rect id="Rectangle_1416" data-name="Rectangle 1416" width="23.133" height="65.97" transform="translate(202.476 278.441)" fill="#7f7f7f"/>
        <rect id="Rectangle_1417" data-name="Rectangle 1417" width="23.133" height="7.25" transform="translate(202.476 318.474)" fill="#dbdbdb"/>
        <rect id="Rectangle_1418" data-name="Rectangle 1418" width="23.133" height="2.685" transform="translate(202.476 291.462)" fill="#dbdbdb"/>
        <rect id="Rectangle_1419" data-name="Rectangle 1419" width="23.133" height="65.97" transform="translate(45.297 278.464)" fill="#7f7f7f"/>
        <rect id="Rectangle_1420" data-name="Rectangle 1420" width="23.133" height="7.25" transform="translate(45.309 297.151)" fill="#dbdbdb"/>
        <rect id="Rectangle_1421" data-name="Rectangle 1421" width="23.133" height="2.685" transform="translate(45.297 337.8)" fill="#dbdbdb"/>
        <rect id="Rectangle_1422" data-name="Rectangle 1422" width="23.133" height="2.685" transform="translate(45.297 325.405)" fill="#dbdbdb"/>
        <rect id="Rectangle_1423" data-name="Rectangle 1423" width="17.539" height="65.97" transform="translate(84.598 278.441)" fill="#7f7f7f"/>
        <rect id="Rectangle_1424" data-name="Rectangle 1424" width="17.539" height="7.25" transform="translate(84.586 318.475)" fill="#dbdbdb"/>
        <rect id="Rectangle_1425" data-name="Rectangle 1425" width="17.539" height="2.685" transform="translate(84.598 291.45)" fill="#dbdbdb"/>
        <rect id="Rectangle_1426" data-name="Rectangle 1426" width="16.167" height="76.957" transform="translate(186.321 267.453)" fill="#dbdbdb"/>
        <rect id="Rectangle_1427" data-name="Rectangle 1427" width="9.698" height="29.603" transform="translate(189.621 274.691)" fill="#ebebeb"/>
        <rect id="Rectangle_1428" data-name="Rectangle 1428" width="9.745" height="72.369" transform="translate(135.193 272.042)" fill="#dbdbdb"/>
        <rect id="Rectangle_1429" data-name="Rectangle 1429" width="5.842" height="27.829" transform="translate(137.097 277.057)" fill="#c7c7c7"/>
        <rect id="Rectangle_1430" data-name="Rectangle 1430" width="16.167" height="70.37" transform="translate(68.43 274.041)" fill="#dbdbdb"/>
        <rect id="Rectangle_1431" data-name="Rectangle 1431" width="9.698" height="27.06" transform="translate(71.6 310.752)" fill="#ebebeb"/>
        <rect id="Rectangle_1432" data-name="Rectangle 1432" width="27.45" height="58.46" transform="translate(158.871 285.974)" fill="#c7c7c7"/>
        <rect id="Rectangle_1433" data-name="Rectangle 1433" width="27.45" height="5.452" transform="translate(158.871 332.785)" fill="#7f7f7f"/>
        <rect id="Rectangle_1434" data-name="Rectangle 1434" width="27.45" height="2.117" transform="translate(158.871 327.096)" fill="#7f7f7f"/>
        <rect id="Rectangle_1435" data-name="Rectangle 1435" width="18.958" height="54.936" transform="translate(225.621 289.487)" fill="#c7c7c7"/>
        <rect id="Rectangle_1436" data-name="Rectangle 1436" width="18.958" height="5.121" transform="translate(225.61 333.483)" fill="#7f7f7f"/>
        <rect id="Rectangle_1437" data-name="Rectangle 1437" width="18.958" height="5.121" transform="translate(225.61 300.817)" fill="#7f7f7f"/>
        <rect id="Rectangle_1438" data-name="Rectangle 1438" width="18.958" height="1.987" transform="translate(225.61 309.451)" fill="#7f7f7f"/>
        <rect id="Rectangle_1439" data-name="Rectangle 1439" width="25.463" height="76.969" transform="translate(19.846 267.453)" fill="#c7c7c7"/>
        <rect id="Rectangle_1440" data-name="Rectangle 1440" width="25.463" height="7.179" transform="translate(19.845 329.095)" fill="#7f7f7f"/>
        <rect id="Rectangle_1441" data-name="Rectangle 1441" width="25.463" height="7.179" transform="translate(19.845 283.313)" fill="#7f7f7f"/>
        <rect id="Rectangle_1442" data-name="Rectangle 1442" width="25.463" height="2.779" transform="translate(19.846 295.412)" fill="#7f7f7f"/>
        <path id="Path_8573" data-name="Path 8573" d="M313.24,356.286l24.009-62.848-9-2.578L304.24,353.708Z" transform="translate(-202.103 -11.852)" fill="#c7c7c7"/>
        <path id="Path_8574" data-name="Path 8574" d="M315.39,341.843l2.235-5.854-9-2.578-2.235,5.854Z" transform="translate(-201.71 -4.078)" fill="#7f7f7f"/>
        <path id="Path_8575" data-name="Path 8575" d="M327.46,310.243l2.235-5.854-9-2.578-2.235,5.854Z" transform="translate(-199.505 -9.851)" fill="#7f7f7f"/>
        <rect id="Rectangle_1443" data-name="Rectangle 1443" width="13.944" height="74.048" transform="translate(144.939 270.386)" fill="#7f7f7f"/>
        <rect id="Rectangle_1444" data-name="Rectangle 1444" width="13.944" height="6.907" transform="translate(144.939 278.228)" fill="#c7c7c7"/>
        <rect id="Rectangle_1445" data-name="Rectangle 1445" width="13.944" height="6.907" transform="translate(144.938 322.259)" fill="#c7c7c7"/>
        <rect id="Rectangle_1446" data-name="Rectangle 1446" width="13.944" height="2.673" transform="translate(144.938 314.867)" fill="#c7c7c7"/>
        <rect id="Rectangle_1447" data-name="Rectangle 1447" width="23.133" height="65.97" transform="translate(169.42 112.758)" fill="#7f7f7f"/>
        <rect id="Rectangle_1448" data-name="Rectangle 1448" width="23.133" height="7.25" transform="translate(169.42 152.792)" fill="#dbdbdb"/>
        <rect id="Rectangle_1449" data-name="Rectangle 1449" width="23.133" height="2.685" transform="translate(169.42 125.767)" fill="#dbdbdb"/>
        <rect id="Rectangle_1450" data-name="Rectangle 1450" width="23.133" height="65.97" transform="translate(29.579 112.77)" fill="#7f7f7f"/>
        <rect id="Rectangle_1451" data-name="Rectangle 1451" width="23.133" height="7.25" transform="translate(29.591 131.468)" fill="#dbdbdb"/>
        <rect id="Rectangle_1452" data-name="Rectangle 1452" width="23.133" height="2.685" transform="translate(29.591 172.117)" fill="#dbdbdb"/>
        <rect id="Rectangle_1453" data-name="Rectangle 1453" width="23.133" height="2.685" transform="translate(29.579 159.722)" fill="#dbdbdb"/>
        <rect id="Rectangle_1454" data-name="Rectangle 1454" width="17.539" height="65.97" transform="matrix(0.889, -0.457, 0.457, 0.889, 94.314, 120.419)" fill="#7f7f7f"/>
        <rect id="Rectangle_1455" data-name="Rectangle 1455" width="17.539" height="7.25" transform="matrix(0.889, -0.457, 0.457, 0.889, 112.622, 156.009)" fill="#dbdbdb"/>
        <rect id="Rectangle_1456" data-name="Rectangle 1456" width="17.539" height="2.685" transform="translate(100.325 131.996) rotate(-27.23)" fill="#dbdbdb"/>
        <rect id="Rectangle_1457" data-name="Rectangle 1457" width="16.167" height="76.957" transform="translate(153.265 101.771)" fill="#dbdbdb"/>
        <rect id="Rectangle_1458" data-name="Rectangle 1458" width="9.698" height="29.603" transform="translate(156.564 109.009)" fill="#fff"/>
        <rect id="Rectangle_1459" data-name="Rectangle 1459" width="9.745" height="56.331" transform="translate(19.845 122.409)" fill="#c7c7c7"/>
        <rect id="Rectangle_1460" data-name="Rectangle 1460" width="5.854" height="21.667" transform="translate(21.761 126.311)" fill="#ebebeb"/>
        <rect id="Rectangle_1461" data-name="Rectangle 1461" width="16.167" height="70.37" transform="translate(78.176 108.358)" fill="#dbdbdb"/>
        <rect id="Rectangle_1462" data-name="Rectangle 1462" width="9.698" height="27.06" transform="translate(81.345 145.057)" fill="#fff"/>
        <rect id="Rectangle_1463" data-name="Rectangle 1463" width="18.958" height="70.382" transform="translate(225.61 108.358)" fill="#c7c7c7"/>
        <rect id="Rectangle_1464" data-name="Rectangle 1464" width="18.958" height="6.564" transform="translate(225.61 164.725)" fill="#7f7f7f"/>
        <rect id="Rectangle_1465" data-name="Rectangle 1465" width="18.958" height="6.564" transform="translate(225.61 122.87)" fill="#7f7f7f"/>
        <rect id="Rectangle_1466" data-name="Rectangle 1466" width="18.958" height="2.543" transform="translate(225.61 133.928)" fill="#7f7f7f"/>
        <rect id="Rectangle_1467" data-name="Rectangle 1467" width="25.463" height="76.969" transform="translate(52.712 101.771)" fill="#c7c7c7"/>
        <rect id="Rectangle_1468" data-name="Rectangle 1468" width="25.463" height="7.179" transform="translate(52.712 163.412)" fill="#a6a6a6"/>
        <rect id="Rectangle_1469" data-name="Rectangle 1469" width="25.463" height="7.179" transform="translate(52.712 117.642)" fill="#a6a6a6"/>
        <rect id="Rectangle_1470" data-name="Rectangle 1470" width="25.463" height="2.779" transform="translate(52.712 129.718)" fill="#c7c7c7"/>
        <path id="Path_8576" data-name="Path 8576" d="M389.69,216.2,413.7,153.348l-9-2.578L380.69,213.618Z" transform="translate(-188.136 -37.444)" fill="#dbdbdb"/>
        <path id="Path_8577" data-name="Path 8577" d="M391.84,201.753l2.247-5.854-9.012-2.578-2.235,5.854Z" transform="translate(-187.744 -29.671)" fill="#7f7f7f"/>
        <path id="Path_8578" data-name="Path 8578" d="M403.91,170.153l2.247-5.854-9-2.578-2.247,5.854Z" transform="translate(-185.539 -35.444)" fill="#7f7f7f"/>
        <rect id="Rectangle_1471" data-name="Rectangle 1471" width="17.539" height="65.97" transform="translate(210.873 195.617)" fill="#7f7f7f"/>
        <rect id="Rectangle_1472" data-name="Rectangle 1472" width="17.539" height="7.25" transform="translate(210.873 235.651)" fill="#dbdbdb"/>
        <rect id="Rectangle_1473" data-name="Rectangle 1473" width="17.539" height="2.685" transform="translate(210.862 208.627)" fill="#dbdbdb"/>
        <rect id="Rectangle_1474" data-name="Rectangle 1474" width="16.167" height="76.957" transform="translate(228.401 184.63)" fill="#dbdbdb"/>
        <rect id="Rectangle_1475" data-name="Rectangle 1475" width="9.698" height="29.603" transform="translate(231.57 191.88)" fill="#ebebeb"/>
        <rect id="Rectangle_1476" data-name="Rectangle 1476" width="27.45" height="58.46" transform="translate(183.423 203.139)" fill="#c7c7c7"/>
        <rect id="Rectangle_1477" data-name="Rectangle 1477" width="27.45" height="5.452" transform="translate(183.423 209.336)" fill="#a6a6a6"/>
        <rect id="Rectangle_1478" data-name="Rectangle 1478" width="27.45" height="2.117" transform="translate(183.423 218.36)" fill="#a6a6a6"/>
        <rect id="Rectangle_1479" data-name="Rectangle 1479" width="14.24" height="65.97" transform="translate(35.623 195.605)" fill="#7f7f7f"/>
        <rect id="Rectangle_1480" data-name="Rectangle 1480" width="14.24" height="7.25" transform="translate(35.611 235.639)" fill="#dbdbdb"/>
        <rect id="Rectangle_1481" data-name="Rectangle 1481" width="14.24" height="2.685" transform="translate(35.611 208.615)" fill="#dbdbdb"/>
        <rect id="Rectangle_1482" data-name="Rectangle 1482" width="17.539" height="74.415" transform="translate(121.604 187.173)" fill="#7f7f7f"/>
        <rect id="Rectangle_1483" data-name="Rectangle 1483" width="17.539" height="8.172" transform="translate(121.592 232.316)" fill="#dbdbdb"/>
        <rect id="Rectangle_1484" data-name="Rectangle 1484" width="17.539" height="3.04" transform="translate(121.592 201.85)" fill="#dbdbdb"/>
        <rect id="Rectangle_1485" data-name="Rectangle 1485" width="30.348" height="70.37" transform="translate(49.862 191.206)" fill="#dbdbdb"/>
        <rect id="Rectangle_1486" data-name="Rectangle 1486" width="18.213" height="27.06" transform="translate(56.048 227.916)" fill="#ebebeb"/>
        <rect id="Rectangle_1487" data-name="Rectangle 1487" width="27.45" height="62.872" transform="translate(80.21 198.727)" fill="#c7c7c7"/>
        <rect id="Rectangle_1488" data-name="Rectangle 1488" width="27.45" height="5.854" transform="translate(80.21 249.063)" fill="#7f7f7f"/>
        <rect id="Rectangle_1489" data-name="Rectangle 1489" width="27.45" height="2.271" transform="translate(80.21 242.948)" fill="#7f7f7f"/>
        <rect id="Rectangle_1490" data-name="Rectangle 1490" width="15.765" height="70.382" transform="translate(19.845 191.217)" fill="#c7c7c7"/>
        <rect id="Rectangle_1491" data-name="Rectangle 1491" width="15.765" height="6.564" transform="translate(19.846 247.572)" fill="#a6a6a6"/>
        <rect id="Rectangle_1492" data-name="Rectangle 1492" width="15.765" height="6.564" transform="translate(19.846 205.729)" fill="#a6a6a6"/>
        <rect id="Rectangle_1493" data-name="Rectangle 1493" width="15.765" height="2.543" transform="translate(19.846 216.775)" fill="#a6a6a6"/>
        <rect id="Rectangle_1494" data-name="Rectangle 1494" width="16.546" height="66.644" transform="translate(139.131 194.955)" fill="#c7c7c7"/>
        <rect id="Rectangle_1495" data-name="Rectangle 1495" width="16.546" height="6.209" transform="translate(139.132 248.318)" fill="#dbdbdb"/>
        <rect id="Rectangle_1496" data-name="Rectangle 1496" width="16.546" height="6.209" transform="translate(139.131 208.686)" fill="#dbdbdb"/>
        <rect id="Rectangle_1497" data-name="Rectangle 1497" width="16.546" height="2.413" transform="translate(139.131 219.152)" fill="#dbdbdb"/>
        <rect id="Rectangle_1498" data-name="Rectangle 1498" width="13.944" height="70.831" transform="translate(107.66 190.768)" fill="#dbdbdb"/>
        <rect id="Rectangle_1499" data-name="Rectangle 1499" width="13.944" height="6.599" transform="translate(107.66 198.278)" fill="#ebebeb"/>
        <rect id="Rectangle_1500" data-name="Rectangle 1500" width="13.944" height="6.599" transform="translate(107.66 240.394)" fill="#ebebeb"/>
        <rect id="Rectangle_1501" data-name="Rectangle 1501" width="13.944" height="2.555" transform="translate(107.66 233.321)" fill="#ebebeb"/>
        <rect id="Rectangle_1502" data-name="Rectangle 1502" width="244.355" height="27.675" transform="translate(19.846 379.738)" fill="#dbdbdb"/>
        <rect id="Rectangle_1503" data-name="Rectangle 1503" width="244.355" height="8.858" transform="translate(19.846 379.75)" fill="#c7c7c7"/>
        <path id="Path_8579" data-name="Path 8579" d="M482.305,54.95H217.88V434.687H726.661V54.95ZM237.726,399.4V73.849h224.51V399.4Zm469.078,0h-224.5V73.849H706.8Z" transform="translate(-217.88 -54.95)" fill="#dbdbdb"/>
        <rect id="Rectangle_1504" data-name="Rectangle 1504" width="224.723" height="5.854" transform="translate(264.201 95.893)" fill="#dbdbdb"/>
        <rect id="Rectangle_1505" data-name="Rectangle 1505" width="224.723" height="5.854" transform="translate(264.201 178.752)" fill="#dbdbdb"/>
        <rect id="Rectangle_1506" data-name="Rectangle 1506" width="224.723" height="5.854" transform="translate(264.201 261.599)" fill="#dbdbdb"/>
        <rect id="Rectangle_1507" data-name="Rectangle 1507" width="23.133" height="65.97" transform="translate(283.159 195.605)" fill="#c7c7c7"/>
        <rect id="Rectangle_1508" data-name="Rectangle 1508" width="23.133" height="7.25" transform="translate(283.159 235.639)" fill="#dbdbdb"/>
        <rect id="Rectangle_1509" data-name="Rectangle 1509" width="23.133" height="2.685" transform="translate(283.171 208.627)" fill="#dbdbdb"/>
        <rect id="Rectangle_1510" data-name="Rectangle 1510" width="23.133" height="65.97" transform="translate(465.802 195.629)" fill="#c7c7c7"/>
        <rect id="Rectangle_1511" data-name="Rectangle 1511" width="23.133" height="7.25" transform="translate(465.802 214.315)" fill="#dbdbdb"/>
        <rect id="Rectangle_1512" data-name="Rectangle 1512" width="23.133" height="2.685" transform="translate(465.802 254.964)" fill="#dbdbdb"/>
        <rect id="Rectangle_1513" data-name="Rectangle 1513" width="23.133" height="2.685" transform="translate(465.802 242.57)" fill="#dbdbdb"/>
        <rect id="Rectangle_1514" data-name="Rectangle 1514" width="16.167" height="76.957" transform="translate(306.293 184.618)" fill="#dbdbdb"/>
        <rect id="Rectangle_1515" data-name="Rectangle 1515" width="9.698" height="29.603" transform="translate(309.451 191.856)" fill="#ebebeb"/>
        <rect id="Rectangle_1516" data-name="Rectangle 1516" width="9.745" height="72.369" transform="translate(363.831 189.207)" fill="#dbdbdb"/>
        <rect id="Rectangle_1517" data-name="Rectangle 1517" width="5.842" height="27.829" transform="translate(365.829 194.221)" fill="#7f7f7f"/>
        <rect id="Rectangle_1518" data-name="Rectangle 1518" width="16.167" height="70.37" transform="translate(424.183 191.217)" fill="#dbdbdb"/>
        <rect id="Rectangle_1519" data-name="Rectangle 1519" width="9.698" height="27.06" transform="translate(427.483 227.904)" fill="#ebebeb"/>
        <rect id="Rectangle_1520" data-name="Rectangle 1520" width="27.45" height="58.46" transform="translate(322.448 203.139)" fill="#7f7f7f"/>
        <rect id="Rectangle_1521" data-name="Rectangle 1521" width="27.45" height="5.452" transform="translate(322.448 249.95)" fill="#c7c7c7"/>
        <rect id="Rectangle_1522" data-name="Rectangle 1522" width="27.45" height="2.117" transform="translate(322.448 244.261)" fill="#c7c7c7"/>
        <rect id="Rectangle_1523" data-name="Rectangle 1523" width="18.958" height="54.936" transform="translate(264.201 206.651)" fill="#7f7f7f"/>
        <rect id="Rectangle_1524" data-name="Rectangle 1524" width="18.958" height="5.121" transform="translate(264.213 250.659)" fill="#c7c7c7"/>
        <rect id="Rectangle_1525" data-name="Rectangle 1525" width="18.958" height="5.121" transform="translate(264.213 217.993)" fill="#c7c7c7"/>
        <rect id="Rectangle_1526" data-name="Rectangle 1526" width="18.958" height="1.987" transform="translate(264.213 226.603)" fill="#c7c7c7"/>
        <rect id="Rectangle_1527" data-name="Rectangle 1527" width="25.463" height="76.969" transform="translate(440.35 184.63)" fill="#7f7f7f"/>
        <rect id="Rectangle_1528" data-name="Rectangle 1528" width="25.463" height="7.179" transform="translate(440.35 246.271)" fill="#c7c7c7"/>
        <rect id="Rectangle_1529" data-name="Rectangle 1529" width="25.463" height="7.179" transform="translate(440.339 200.49)" fill="#c7c7c7"/>
        <rect id="Rectangle_1530" data-name="Rectangle 1530" width="25.463" height="2.779" transform="translate(440.35 212.577)" fill="#c7c7c7"/>
        <path id="Path_8580" data-name="Path 8580" d="M557.809,286.246,533.8,223.4l9-2.578,24.009,62.848Z" transform="translate(-160.165 -24.647)" fill="#7f7f7f"/>
        <path id="Path_8581" data-name="Path 8581" d="M552.3,271.814l-2.247-5.866,9-2.578,2.247,5.866Z" transform="translate(-157.196 -16.874)" fill="#c7c7c7"/>
        <path id="Path_8582" data-name="Path 8582" d="M540.227,240.214l-2.247-5.866,9-2.578,2.247,5.866Z" transform="translate(-159.401 -22.647)" fill="#c7c7c7"/>
        <rect id="Rectangle_1531" data-name="Rectangle 1531" width="13.944" height="74.048" transform="translate(349.898 187.551)" fill="#c7c7c7"/>
        <rect id="Rectangle_1532" data-name="Rectangle 1532" width="13.944" height="6.907" transform="translate(349.898 195.392)" fill="#c7c7c7"/>
        <rect id="Rectangle_1533" data-name="Rectangle 1533" width="13.944" height="6.895" transform="translate(349.898 239.436)" fill="#c7c7c7"/>
        <rect id="Rectangle_1534" data-name="Rectangle 1534" width="13.944" height="2.673" transform="translate(349.898 232.044)" fill="#c7c7c7"/>
        <rect id="Rectangle_1535" data-name="Rectangle 1535" width="23.133" height="65.97" transform="translate(316.227 29.911)" fill="#c7c7c7"/>
        <rect id="Rectangle_1536" data-name="Rectangle 1536" width="23.133" height="7.25" transform="translate(316.215 69.945)" fill="#dbdbdb"/>
        <rect id="Rectangle_1537" data-name="Rectangle 1537" width="23.133" height="2.685" transform="translate(316.215 42.932)" fill="#dbdbdb"/>
        <rect id="Rectangle_1538" data-name="Rectangle 1538" width="17.539" height="65.97" transform="translate(420.032 29.911)" fill="#c7c7c7"/>
        <rect id="Rectangle_1539" data-name="Rectangle 1539" width="17.539" height="7.25" transform="translate(420.032 69.933)" fill="#dbdbdb"/>
        <rect id="Rectangle_1540" data-name="Rectangle 1540" width="17.539" height="2.685" transform="translate(420.032 42.92)" fill="#dbdbdb"/>
        <rect id="Rectangle_1541" data-name="Rectangle 1541" width="16.167" height="76.957" transform="translate(339.349 18.935)" fill="#dbdbdb"/>
        <rect id="Rectangle_1542" data-name="Rectangle 1542" width="9.698" height="29.603" transform="translate(342.518 26.162)" fill="#fff"/>
        <rect id="Rectangle_1543" data-name="Rectangle 1543" width="9.745" height="56.331" transform="translate(479.19 39.561)" fill="#7f7f7f"/>
        <rect id="Rectangle_1544" data-name="Rectangle 1544" width="5.842" height="21.667" transform="translate(481.177 43.452)" fill="#ebebeb"/>
        <rect id="Rectangle_1545" data-name="Rectangle 1545" width="16.167" height="70.37" transform="translate(463.023 25.511)" fill="#dbdbdb"/>
        <rect id="Rectangle_1546" data-name="Rectangle 1546" width="9.698" height="27.06" transform="translate(466.322 62.21)" fill="#fff"/>
        <rect id="Rectangle_1547" data-name="Rectangle 1547" width="27.45" height="58.46" transform="translate(355.504 37.432)" fill="#7f7f7f"/>
        <rect id="Rectangle_1548" data-name="Rectangle 1548" width="27.45" height="5.452" transform="translate(355.516 84.243)" fill="#c7c7c7"/>
        <rect id="Rectangle_1549" data-name="Rectangle 1549" width="27.45" height="2.117" transform="translate(355.516 78.555)" fill="#c7c7c7"/>
        <rect id="Rectangle_1550" data-name="Rectangle 1550" width="18.958" height="70.382" transform="translate(264.213 25.523)" fill="#7f7f7f"/>
        <rect id="Rectangle_1551" data-name="Rectangle 1551" width="18.959" height="6.564" transform="translate(264.213 81.878)" fill="#c7c7c7"/>
        <rect id="Rectangle_1552" data-name="Rectangle 1552" width="18.958" height="6.564" transform="translate(264.201 40.023)" fill="#c7c7c7"/>
        <rect id="Rectangle_1553" data-name="Rectangle 1553" width="18.958" height="2.543" transform="translate(264.213 51.081)" fill="#c7c7c7"/>
        <rect id="Rectangle_1554" data-name="Rectangle 1554" width="25.463" height="76.969" transform="translate(437.559 18.923)" fill="#7f7f7f"/>
        <rect id="Rectangle_1555" data-name="Rectangle 1555" width="25.463" height="7.179" transform="translate(437.559 80.553)" fill="#c7c7c7"/>
        <rect id="Rectangle_1556" data-name="Rectangle 1556" width="25.463" height="7.179" transform="translate(437.559 34.783)" fill="#c7c7c7"/>
        <rect id="Rectangle_1557" data-name="Rectangle 1557" width="25.463" height="2.779" transform="translate(437.559 46.87)" fill="#c7c7c7"/>
        <path id="Path_8583" data-name="Path 8583" d="M481.359,146.136,457.35,83.288l9-2.578,24.009,62.848Z" transform="translate(-174.132 -50.244)" fill="#dbdbdb"/>
        <path id="Path_8584" data-name="Path 8584" d="M475.847,131.7l-2.247-5.854,9-2.578,2.247,5.854Z" transform="translate(-171.163 -42.468)" fill="#c7c7c7"/>
        <path id="Path_8585" data-name="Path 8585" d="M463.765,100.1l-2.235-5.854,9-2.578,2.247,5.854Z" transform="translate(-173.368 -48.241)" fill="#c7c7c7"/>
        <rect id="Rectangle_1558" data-name="Rectangle 1558" width="13.944" height="74.048" transform="translate(406.088 21.845)" fill="#7f7f7f"/>
        <rect id="Rectangle_1559" data-name="Rectangle 1559" width="13.944" height="6.907" transform="translate(406.088 29.698)" fill="#c7c7c7"/>
        <rect id="Rectangle_1560" data-name="Rectangle 1560" width="13.944" height="6.907" transform="translate(406.088 73.729)" fill="#c7c7c7"/>
        <rect id="Rectangle_1561" data-name="Rectangle 1561" width="13.944" height="2.673" transform="translate(406.088 66.326)" fill="#c7c7c7"/>
        <rect id="Rectangle_1562" data-name="Rectangle 1562" width="23.133" height="65.97" transform="translate(432.9 278.476)" fill="#c7c7c7"/>
        <rect id="Rectangle_1563" data-name="Rectangle 1563" width="23.133" height="7.25" transform="translate(432.9 318.51)" fill="#dbdbdb"/>
        <rect id="Rectangle_1564" data-name="Rectangle 1564" width="23.133" height="2.685" transform="translate(432.9 291.486)" fill="#dbdbdb"/>
        <rect id="Rectangle_1565" data-name="Rectangle 1565" width="23.133" height="65.97" transform="translate(273.946 278.476)" fill="#dbdbdb"/>
        <rect id="Rectangle_1566" data-name="Rectangle 1566" width="23.133" height="7.25" transform="translate(273.946 297.163)" fill="#c7c7c7"/>
        <rect id="Rectangle_1567" data-name="Rectangle 1567" width="23.133" height="2.685" transform="translate(273.946 337.823)" fill="#c7c7c7"/>
        <rect id="Rectangle_1568" data-name="Rectangle 1568" width="23.133" height="2.685" transform="translate(273.946 325.429)" fill="#c7c7c7"/>
        <rect id="Rectangle_1569" data-name="Rectangle 1569" width="17.539" height="65.97" transform="translate(371.684 278.464)" fill="#c7c7c7"/>
        <rect id="Rectangle_1570" data-name="Rectangle 1570" width="17.539" height="7.25" transform="translate(371.684 318.498)" fill="#dbdbdb"/>
        <rect id="Rectangle_1571" data-name="Rectangle 1571" width="17.539" height="2.685" transform="translate(371.684 291.462)" fill="#dbdbdb"/>
        <rect id="Rectangle_1572" data-name="Rectangle 1572" width="16.167" height="76.957" transform="translate(416.732 267.489)" fill="#dbdbdb"/>
        <rect id="Rectangle_1573" data-name="Rectangle 1573" width="9.698" height="29.603" transform="translate(420.044 274.715)" fill="#fff"/>
        <rect id="Rectangle_1574" data-name="Rectangle 1574" width="9.745" height="56.331" transform="translate(264.213 288.115)" fill="#7f7f7f"/>
        <rect id="Rectangle_1575" data-name="Rectangle 1575" width="5.842" height="21.667" transform="translate(266.105 292.006)" fill="#ebebeb"/>
        <rect id="Rectangle_1576" data-name="Rectangle 1576" width="16.167" height="70.37" transform="translate(355.516 274.076)" fill="#dbdbdb"/>
        <rect id="Rectangle_1577" data-name="Rectangle 1577" width="9.698" height="27.06" transform="translate(358.674 310.763)" fill="#fff"/>
        <rect id="Rectangle_1578" data-name="Rectangle 1578" width="27.45" height="58.46" transform="translate(389.306 285.998)" fill="#7f7f7f"/>
        <rect id="Rectangle_1579" data-name="Rectangle 1579" width="27.45" height="5.452" transform="translate(389.306 332.809)" fill="#c7c7c7"/>
        <rect id="Rectangle_1580" data-name="Rectangle 1580" width="27.45" height="2.117" transform="translate(389.306 327.12)" fill="#c7c7c7"/>
        <rect id="Rectangle_1581" data-name="Rectangle 1581" width="18.958" height="70.382" transform="translate(469.977 274.077)" fill="#7f7f7f"/>
        <rect id="Rectangle_1582" data-name="Rectangle 1582" width="18.958" height="6.564" transform="translate(469.977 330.431)" fill="#c7c7c7"/>
        <rect id="Rectangle_1583" data-name="Rectangle 1583" width="18.958" height="6.564" transform="translate(469.977 288.576)" fill="#c7c7c7"/>
        <rect id="Rectangle_1584" data-name="Rectangle 1584" width="18.958" height="2.543" transform="translate(469.977 299.634)" fill="#c7c7c7"/>
        <rect id="Rectangle_1585" data-name="Rectangle 1585" width="25.463" height="76.969" transform="translate(330.053 267.465)" fill="#7f7f7f"/>
        <rect id="Rectangle_1586" data-name="Rectangle 1586" width="25.463" height="7.179" transform="translate(330.053 329.107)" fill="#c7c7c7"/>
        <rect id="Rectangle_1587" data-name="Rectangle 1587" width="25.463" height="7.179" transform="translate(330.053 283.337)" fill="#c7c7c7"/>
        <rect id="Rectangle_1588" data-name="Rectangle 1588" width="25.463" height="2.779" transform="translate(330.053 295.424)" fill="#c7c7c7"/>
        <path id="Path_8586" data-name="Path 8586" d="M478.04,356.3l24.009-62.848-9-2.578L469.04,353.718Z" transform="translate(-171.996 -11.85)" fill="#c7c7c7"/>
        <path id="Path_8587" data-name="Path 8587" d="M480.2,341.863l2.235-5.854-9-2.578-2.247,5.854Z" transform="translate(-171.603 -4.075)" fill="#dbdbdb"/>
        <path id="Path_8588" data-name="Path 8588" d="M492.272,310.263l2.235-5.854-9-2.578-2.247,5.854Z" transform="translate(-169.398 -9.848)" fill="#dbdbdb"/>
        <rect id="Rectangle_1589" data-name="Rectangle 1589" width="13.944" height="74.048" transform="translate(456.033 270.398)" fill="#dbdbdb"/>
        <rect id="Rectangle_1590" data-name="Rectangle 1590" width="13.944" height="6.907" transform="translate(456.033 278.251)" fill="#ebebeb"/>
        <rect id="Rectangle_1591" data-name="Rectangle 1591" width="13.944" height="6.907" transform="translate(456.033 322.283)" fill="#ebebeb"/>
        <rect id="Rectangle_1592" data-name="Rectangle 1592" width="13.944" height="2.673" transform="translate(456.033 314.891)" fill="#ebebeb"/>
        <rect id="Rectangle_1593" data-name="Rectangle 1593" width="17.539" height="65.97" transform="translate(455.229 112.77)" fill="#c7c7c7"/>
        <rect id="Rectangle_1594" data-name="Rectangle 1594" width="17.539" height="7.25" transform="translate(455.229 152.792)" fill="#dbdbdb"/>
        <rect id="Rectangle_1595" data-name="Rectangle 1595" width="17.539" height="2.685" transform="translate(455.229 125.779)" fill="#dbdbdb"/>
        <rect id="Rectangle_1596" data-name="Rectangle 1596" width="16.167" height="76.957" transform="translate(472.768 101.783)" fill="#dbdbdb"/>
        <rect id="Rectangle_1597" data-name="Rectangle 1597" width="9.698" height="29.603" transform="translate(475.938 109.021)" fill="#ebebeb"/>
        <rect id="Rectangle_1598" data-name="Rectangle 1598" width="27.45" height="58.46" transform="translate(427.778 120.28)" fill="#7f7f7f"/>
        <rect id="Rectangle_1599" data-name="Rectangle 1599" width="27.45" height="5.452" transform="translate(427.778 167.091)" fill="#c7c7c7"/>
        <rect id="Rectangle_1600" data-name="Rectangle 1600" width="27.45" height="2.117" transform="translate(427.779 161.402)" fill="#c7c7c7"/>
        <rect id="Rectangle_1601" data-name="Rectangle 1601" width="14.24" height="65.97" transform="translate(289.605 112.758)" fill="#c7c7c7"/>
        <rect id="Rectangle_1602" data-name="Rectangle 1602" width="14.24" height="7.25" transform="translate(289.593 152.792)" fill="#dbdbdb"/>
        <rect id="Rectangle_1603" data-name="Rectangle 1603" width="14.24" height="2.685" transform="translate(289.593 125.767)" fill="#dbdbdb"/>
        <rect id="Rectangle_1604" data-name="Rectangle 1604" width="18.403" height="71.73" transform="translate(409.376 107.01)" fill="#c7c7c7"/>
        <rect id="Rectangle_1605" data-name="Rectangle 1605" width="18.403" height="7.877" transform="translate(409.388 127.352)" fill="#dbdbdb"/>
        <rect id="Rectangle_1606" data-name="Rectangle 1606" width="18.403" height="2.921" transform="translate(409.376 171.549)" fill="#dbdbdb"/>
        <rect id="Rectangle_1607" data-name="Rectangle 1607" width="18.403" height="2.921" transform="translate(409.376 158.067)" fill="#dbdbdb"/>
        <rect id="Rectangle_1608" data-name="Rectangle 1608" width="17.539" height="74.415" transform="translate(365.959 104.314)" fill="#c7c7c7"/>
        <rect id="Rectangle_1609" data-name="Rectangle 1609" width="17.539" height="8.172" transform="translate(365.959 149.469)" fill="#dbdbdb"/>
        <rect id="Rectangle_1610" data-name="Rectangle 1610" width="17.539" height="3.04" transform="translate(365.959 118.991)" fill="#dbdbdb"/>
        <rect id="Rectangle_1611" data-name="Rectangle 1611" width="9.343" height="74.024" transform="translate(400.044 104.704)" fill="#dbdbdb"/>
        <rect id="Rectangle_1612" data-name="Rectangle 1612" width="5.606" height="28.479" transform="translate(401.949 143.295)" fill="#ebebeb"/>
        <rect id="Rectangle_1613" data-name="Rectangle 1613" width="25.392" height="70.382" transform="translate(264.201 108.37)" fill="#7f7f7f"/>
        <rect id="Rectangle_1614" data-name="Rectangle 1614" width="25.392" height="6.564" transform="translate(264.201 164.725)" fill="#c7c7c7"/>
        <rect id="Rectangle_1615" data-name="Rectangle 1615" width="25.392" height="6.564" transform="translate(264.213 122.882)" fill="#c7c7c7"/>
        <rect id="Rectangle_1616" data-name="Rectangle 1616" width="25.392" height="2.543" transform="translate(264.201 133.928)" fill="#c7c7c7"/>
        <rect id="Rectangle_1617" data-name="Rectangle 1617" width="16.546" height="66.644" transform="translate(383.487 112.107)" fill="#7f7f7f"/>
        <rect id="Rectangle_1618" data-name="Rectangle 1618" width="16.546" height="6.209" transform="translate(383.499 165.47)" fill="#c7c7c7"/>
        <rect id="Rectangle_1619" data-name="Rectangle 1619" width="16.546" height="6.209" transform="translate(383.499 125.838)" fill="#c7c7c7"/>
        <rect id="Rectangle_1620" data-name="Rectangle 1620" width="16.546" height="2.413" transform="translate(383.499 136.293)" fill="#c7c7c7"/>
        <rect id="Rectangle_1621" data-name="Rectangle 1621" width="13.944" height="70.831" transform="translate(303.833 107.921)" fill="#dbdbdb"/>
        <rect id="Rectangle_1622" data-name="Rectangle 1622" width="13.944" height="6.599" transform="translate(303.845 115.419)" fill="#ebebeb"/>
        <rect id="Rectangle_1623" data-name="Rectangle 1623" width="13.944" height="6.599" transform="translate(303.833 157.546)" fill="#ebebeb"/>
        <rect id="Rectangle_1624" data-name="Rectangle 1624" width="13.944" height="2.555" transform="translate(303.845 150.462)" fill="#ebebeb"/>
        <rect id="Rectangle_1625" data-name="Rectangle 1625" width="244.58" height="27.675" transform="translate(244.355 379.738)" fill="#dbdbdb"/>
        <rect id="Rectangle_1626" data-name="Rectangle 1626" width="244.568" height="8.858" transform="translate(244.367 379.75)" fill="#c7c7c7"/>
      </g>
      <g id="freepik--Plant--inject-64" transform="translate(4407.454 128.659)">
        <path id="Path_8589" data-name="Path 8589" d="M-4218.91,671.825c-.918-1.377-2.057-1.891-3.388-2.846a7.014,7.014,0,0,1-3.048-3.672c-.4-1.588.588-3.588,2.222-3.671s2.689,1.634,3.405,3.093c1.248,2.58,3.075,5.636,4.332,8.216" transform="translate(-9.834 -36.503)" fill="#f9afa1"/>
        <g id="Group_1588" data-name="Group 1588" transform="translate(-4235.27 625.13)" opacity="0.4">
          <path id="Path_8590" data-name="Path 8590" d="M-4218.91,671.825c-.918-1.377-2.057-1.891-3.388-2.846a7.014,7.014,0,0,1-3.048-3.672c-.4-1.588.588-3.588,2.222-3.671s2.689,1.634,3.405,3.093c1.248,2.58,3.075,5.636,4.332,8.216" transform="translate(4225.436 -661.633)"/>
        </g>
        <path id="Path_8591" data-name="Path 8591" d="M-4233.71,675.073c-4.47-1.083-9.546-1.744-14.035-.744-2.176.487-4.535,1.836-4.709,4.085a4.442,4.442,0,0,0,2.083,3.763c3.057,2.129,7.279,1.4,10.657-.165s7.141-4.323,10.151-5.966" transform="translate(0 -40.945)" fill="#f9afa1"/>
        <g id="Group_1589" data-name="Group 1589" transform="translate(-4252.454 632.892)" opacity="0.4">
          <path id="Path_8592" data-name="Path 8592" d="M-4233.71,675.073c-4.47-1.083-9.546-1.744-14.035-.744-2.176.487-4.535,1.836-4.709,4.085a4.442,4.442,0,0,0,2.083,3.763c3.057,2.129,7.279,1.4,10.657-.165s7.141-4.323,10.151-5.966" transform="translate(4252.454 -673.837)"/>
        </g>
        <path id="Path_8593" data-name="Path 8593" d="M-4205.727,685.8a31.611,31.611,0,0,0-12.851,1.974,9.452,9.452,0,0,0-4.754,3.286c-1.625,2.5-.826,6.113,1.422,8.077a8.934,8.934,0,0,0,8.427,1.451,14.69,14.69,0,0,0,7.012-5.306,41.059,41.059,0,0,0,4.782-7.1" transform="translate(-10.288 -45.281)" fill="#f9afa1"/>
        <g id="Group_1590" data-name="Group 1590" transform="translate(-4234.477 640.47)" opacity="0.4">
          <path id="Path_8594" data-name="Path 8594" d="M-4205.727,685.8a31.611,31.611,0,0,0-12.851,1.974,9.452,9.452,0,0,0-4.754,3.286c-1.625,2.5-.826,6.113,1.422,8.077a8.934,8.934,0,0,0,8.427,1.451,14.69,14.69,0,0,0,7.012-5.306,41.059,41.059,0,0,0,4.782-7.1" transform="translate(4224.189 -685.75)"/>
        </g>
        <path id="Path_8595" data-name="Path 8595" d="M-4178.586,691.319a19.275,19.275,0,0,1-3.452-7.609,6.062,6.062,0,0,1-.119-2.47,2.624,2.624,0,0,1,1.44-1.918,2.672,2.672,0,0,1,2.754.652,7.042,7.042,0,0,1,1.551,2.487c2.13,4.966,2.993,10.556,4.131,15.843" transform="translate(-25.559 -42.89)" fill="#f9afa1"/>
        <g id="Group_1591" data-name="Group 1591" transform="translate(-4207.79 636.292)" opacity="0.4">
          <path id="Path_8596" data-name="Path 8596" d="M-4178.586,691.319a19.275,19.275,0,0,1-3.452-7.609,6.062,6.062,0,0,1-.119-2.47,2.624,2.624,0,0,1,1.44-1.918,2.672,2.672,0,0,1,2.754.652,7.042,7.042,0,0,1,1.551,2.487c2.13,4.966,2.993,10.556,4.131,15.843" transform="translate(4182.231 -679.182)"/>
        </g>
        <path id="Path_8597" data-name="Path 8597" d="M-4182.719,704.546a20.013,20.013,0,0,0-16.174,4.59,9.513,9.513,0,0,0-2.91,3.9,4.81,4.81,0,0,0,.633,4.654c1.359,1.6,3.819,1.78,5.81,1.129,2.369-.772,4.306-2.479,6.169-4.131l8.849-7.9" transform="translate(-18.314 -52.032)" fill="#f9afa1"/>
        <g id="Group_1592" data-name="Group 1592" transform="translate(-4220.451 652.268)" opacity="0.4">
          <path id="Path_8598" data-name="Path 8598" d="M-4182.719,704.546a20.013,20.013,0,0,0-16.174,4.59,9.513,9.513,0,0,0-2.91,3.9,4.81,4.81,0,0,0,.633,4.654c1.359,1.6,3.819,1.78,5.81,1.129,2.369-.772,4.306-2.479,6.169-4.131l8.849-7.9" transform="translate(4202.137 -704.3)"/>
        </g>
        <path id="Path_8599" data-name="Path 8599" d="M-4171.269,656.921a25.7,25.7,0,0,1,10.5-17.816,12.9,12.9,0,0,1,6-2.552,6.5,6.5,0,0,1,5.865,2.313c1.588,2.176,1.211,5.269,0,7.692a18.234,18.234,0,0,1-9.656,8.49,41.448,41.448,0,0,1-12.85,2.57" transform="translate(-29.499 -27.354)" fill="#f9afa1"/>
        <path id="Path_8600" data-name="Path 8600" d="M-4177.843,634.71c.734-4.48,3.094-8.546,5.838-12.153a13.765,13.765,0,0,1,3-3.1,5.507,5.507,0,0,1,4.1-.991,4.956,4.956,0,0,1,3.672,4.3,7.428,7.428,0,0,1-1.891,5.507,15.178,15.178,0,0,1-4.792,3.552,34.465,34.465,0,0,1-9.692,3.286" transform="translate(-27.156 -20.766)" fill="#f9afa1"/>
        <path id="Path_8601" data-name="Path 8601" d="M-4181.236,612.483c.056-5.792,2.4-12.364,6.8-16.127.78-.661,1.836-1.294,2.754-.789a2.452,2.452,0,0,1,.917,1.349,11.6,11.6,0,0,1-6.879,14.9,11.607,11.607,0,0,1-3.622.708" transform="translate(-25.911 -12.39)" fill="#f9afa1"/>
        <path id="Path_8602" data-name="Path 8602" d="M-4188.266,604.791c-.165-5.012-2.754-9.252-5.866-13.181-.716-.918-1.67-1.836-2.817-1.772-1.588.074-2.46,1.909-2.625,3.488a10.8,10.8,0,0,0,2.754,8.261c2.038,2.2,5.507,3.249,8.545,3.194" transform="translate(-19.229 -10.371)" fill="#f9afa1"/>
        <path id="Path_8603" data-name="Path 8603" d="M-4181.242,580.771c-2.589-4.14-3-11.015-.551-15.256a9.03,9.03,0,0,1,3.258-3.414,5.451,5.451,0,0,1,4.589-.45c2.525,1,3.626,4.186,3.03,6.838s-2.488,4.81-4.5,6.636-4.222,3.47-5.837,5.646" transform="translate(-25.125)" fill="#f9afa1"/>
        <path id="Path_8604" data-name="Path 8604" d="M-4191.694,630.992a35.507,35.507,0,0,0-5.167-6.224,13.946,13.946,0,0,0-7.133-3.608,8.759,8.759,0,0,0-7.472,2.286,6.426,6.426,0,0,0-1.193,7.453,8.891,8.891,0,0,0,5,3.6,23.544,23.544,0,0,0,16.247-.183" transform="translate(-14.231 -21.729)" fill="#f9afa1"/>
        <path id="Path_8605" data-name="Path 8605" d="M-4184.159,660.809a17.439,17.439,0,0,0-7.894-6.15,12.85,12.85,0,0,0-9.876.349c-1.478.725-2.91,2.019-2.9,3.671s1.533,2.974,3.02,3.8a20.431,20.431,0,0,0,17.88.817" transform="translate(-17.334 -33.666)" fill="#f9afa1"/>
        <path id="Path_8606" data-name="Path 8606" d="M-4160.262,693.005a16.4,16.4,0,0,1,2-11.988,18.888,18.888,0,0,1,9.839-7.958,10.1,10.1,0,0,1,4.856-.661,5.251,5.251,0,0,1,3.947,2.652c1.239,2.524-.432,5.645-2.753,7.187a33.536,33.536,0,0,1-7.6,3.883c-4.131,1.367-7.884,6.1-9.5,9.436" transform="translate(-33.418 -40.399)" fill="#f9afa1"/>
        <path id="Path_8607" data-name="Path 8607" d="M-4152.651,722.169a26.119,26.119,0,0,1,4.213-15.008,14.275,14.275,0,0,1,6.1-5.865c2.616-1.139,5.994-.918,7.967,1.184,2.524,2.662,1.836,7.215-.533,10.033s-5.829,4.36-9.179,5.893a17.366,17.366,0,0,0-7.949,6.361" transform="translate(-36.321 -50.691)" fill="#f9afa1"/>
        <path id="Path_8608" data-name="Path 8608" d="M-4148.113,747.664c1.293-4.654,2.753-9.372,5.626-13.237s7.526-6.746,12.328-6.287c2.276.22,4.589,1.359,5.507,3.451,1.129,2.607-.331,5.617-2.2,7.747a20.871,20.871,0,0,1-9.922,6.279c-2.139.606-4.378.918-6.426,1.652a7.591,7.591,0,0,0-4.781,4.333" transform="translate(-37.977 -60.692)" fill="#f9afa1"/>
        <path id="Path_8609" data-name="Path 8609" d="M-4163.9,761.1c-1.5-4.911-5.966-8.261-10.464-10.748-3.369-1.836-7.132-3.405-10.941-2.928s-7.509,3.672-7.261,7.508,4.277,6.572,8.142,7.123,7.8-.33,11.7-.247,7.609,1.193,9.234,4.745" transform="translate(-21.792 -67.698)" fill="#f9afa1"/>
        <path id="Path_8610" data-name="Path 8610" d="M-4161.282,736.545a15.606,15.606,0,0,0-11.015-10.1,6.087,6.087,0,0,0-4.416.294,4.663,4.663,0,0,0-1.67,5.654,7.636,7.636,0,0,0,4.709,4.075,22.35,22.35,0,0,0,6.343.918,22.934,22.934,0,0,1,6.342.854" transform="translate(-26.827 -59.991)" fill="#f9afa1"/>
        <path id="Path_8611" data-name="Path 8611" d="M-4204.273,678.276a8.685,8.685,0,0,1-2.4-3.919,1.971,1.971,0,0,1,.055-1.451,1.5,1.5,0,0,1,1.734-.514,4.117,4.117,0,0,1,1.542,1.157,46.684,46.684,0,0,1,5.195,7.618" transform="translate(-16.623 -40.384)" fill="#f9afa1"/>
        <path id="Path_8612" data-name="Path 8612" d="M-4175.425,566.923a2.426,2.426,0,0,1-.138.34c-.11.239-.266.56-.45.964l-.744,1.561c-.257.633-.56,1.359-.918,2.175a59.191,59.191,0,0,0-2,6.141,63.018,63.018,0,0,0-1.579,8.389,82.179,82.179,0,0,0,.541,22.186,186.846,186.846,0,0,0,6.637,26.435c2.9,9.234,5.939,17.963,8.1,26.1a194.98,194.98,0,0,1,4.59,21.846c.918,6.288,1.377,11.419,1.616,14.962.11,1.771.184,3.148.211,4.085v1.065a2.192,2.192,0,0,1,0,.367,2.422,2.422,0,0,1,0-.367l-.083-1.056c-.073-.964-.165-2.331-.293-4.075-.293-3.543-.78-8.656-1.762-14.925a202.736,202.736,0,0,0-4.645-21.791c-2.185-8.1-5.241-16.816-8.142-26.068a183.722,183.722,0,0,1-6.608-26.509,81.441,81.441,0,0,1-.45-22.287,64.407,64.407,0,0,1,1.652-8.427,58.407,58.407,0,0,1,2.093-6.131c.349-.817.661-1.542.917-2.166s.569-1.119.78-1.551.377-.707.5-.918A1.6,1.6,0,0,1-4175.425,566.923Z" transform="translate(-25.608 -2.032)" fill="#263238"/>
        <path id="Path_8613" data-name="Path 8613" d="M-4231.211,674.529a2.808,2.808,0,0,1,.67,0c.44.046,1.083.083,1.909.211a55.018,55.018,0,0,1,6.931,1.386,61.679,61.679,0,0,1,20.946,10.033,58.853,58.853,0,0,1,9.455,8.692,53.778,53.778,0,0,1,6.058,8.564,56.13,56.13,0,0,1,3.121,6.343c.34.762.55,1.377.707,1.79a3.036,3.036,0,0,1,.211.633,3.667,3.667,0,0,1-.294-.6c-.193-.394-.432-1-.79-1.753a67.183,67.183,0,0,0-3.25-6.242,55.234,55.234,0,0,0-6.095-8.445,59.75,59.75,0,0,0-9.408-8.6,63.541,63.541,0,0,0-20.745-10.1,65.662,65.662,0,0,0-6.856-1.487c-.817-.156-1.46-.23-1.891-.3A6.039,6.039,0,0,1-4231.211,674.529Z" transform="translate(-7.732 -41.189)" fill="#263238"/>
        <path id="Path_8614" data-name="Path 8614" d="M-4156.92,648.794a26.133,26.133,0,0,1-2.4,1.661,46.527,46.527,0,0,0-5.507,4.4,47.28,47.28,0,0,0-4.718,5.177,25.654,25.654,0,0,1-1.835,2.295,2.591,2.591,0,0,1,.358-.7c.257-.441.651-1.056,1.175-1.836a36.7,36.7,0,0,1,10.262-9.656c.771-.478,1.414-.836,1.836-1.065A2.722,2.722,0,0,1-4156.92,648.794Z" transform="translate(-29.509 -31.83)" fill="#263238"/>
        <path id="Path_8615" data-name="Path 8615" d="M-4146.364,680.716c0,.083-1.2.5-2.983,1.551a19.279,19.279,0,0,0-9.078,12.768c-.422,2.028-.413,3.332-.5,3.332a3.223,3.223,0,0,1-.064-.918,16.154,16.154,0,0,1,.221-2.478,18.244,18.244,0,0,1,9.252-13,16.491,16.491,0,0,1,2.23-1.01A3.129,3.129,0,0,1-4146.364,680.716Z" transform="translate(-34.016 -43.448)" fill="#263238"/>
        <path id="Path_8616" data-name="Path 8616" d="M-4141.424,710.749c0,.073-.918.679-2.387,1.9a23.305,23.305,0,0,0-7.489,12.291c-.423,1.836-.505,2.993-.6,2.983a2.892,2.892,0,0,1,0-.826,14.339,14.339,0,0,1,.275-2.23,21.413,21.413,0,0,1,2.7-6.921,21.055,21.055,0,0,1,4.911-5.553,15.56,15.56,0,0,1,1.835-1.276A2.757,2.757,0,0,1-4141.424,710.749Z" transform="translate(-36.589 -54.379)" fill="#263238"/>
        <path id="Path_8617" data-name="Path 8617" d="M-4134.013,739.742c0,.083-1.056.532-2.68,1.477a26.865,26.865,0,0,0-10.1,10.4c-.917,1.661-1.313,2.754-1.4,2.754a2.792,2.792,0,0,1,.221-.8,18.491,18.491,0,0,1,.917-2.084,23.943,23.943,0,0,1,10.234-10.547,16.336,16.336,0,0,1,2.057-.918A2.761,2.761,0,0,1-4134.013,739.742Z" transform="translate(-37.95 -64.932)" fill="#263238"/>
        <path id="Path_8618" data-name="Path 8618" d="M-4171.1,732.305a6.179,6.179,0,0,1,2.3,0,14.116,14.116,0,0,1,9.4,5.563,6.708,6.708,0,0,1,1.139,2.01c-.073,0-.5-.725-1.4-1.836a15.865,15.865,0,0,0-9.179-5.434C-4170.222,732.4-4171.1,732.388-4171.1,732.305Z" transform="translate(-29.609 -62.186)" fill="#263238"/>
        <path id="Path_8619" data-name="Path 8619" d="M-4174.567,758.565a1.937,1.937,0,0,1,.689-.477,4.368,4.368,0,0,1,2.258-.312,9.864,9.864,0,0,1,3.2,1.046c1.129.542,2.368,1.147,3.625,1.836a25.075,25.075,0,0,1,5.967,4.415,13.964,13.964,0,0,1,1.432,1.753,2.74,2.74,0,0,1,.4.716c-.073.055-.716-.918-2.074-2.231a28.834,28.834,0,0,0-5.957-4.24c-1.248-.7-2.479-1.313-3.589-1.836a10.385,10.385,0,0,0-3.056-1.111A4.884,4.884,0,0,0-4174.567,758.565Z" transform="translate(-28.348 -71.483)" fill="#263238"/>
        <path id="Path_8620" data-name="Path 8620" d="M-4177.751,707.068a31.355,31.355,0,0,0-7.454,2.423,31.216,31.216,0,0,0-6.333,4.59,7.293,7.293,0,0,1,1.514-1.771,19.689,19.689,0,0,1,9.95-5.076A7.522,7.522,0,0,1-4177.751,707.068Z" transform="translate(-22.171 -53.03)" fill="#263238"/>
        <path id="Path_8621" data-name="Path 8621" d="M-4172.408,699.538a6.35,6.35,0,0,1-1.01-1.579,27.582,27.582,0,0,1-1.771-4.139,27.228,27.228,0,0,1-1.083-4.37,5.966,5.966,0,0,1-.138-1.836c.146,0,.56,2.753,1.67,6.086S-4172.279,699.465-4172.408,699.538Z" transform="translate(-27.671 -45.959)" fill="#263238"/>
        <path id="Path_8622" data-name="Path 8622" d="M-4179.988,665.287a49.278,49.278,0,0,0-6.5-2.5,47.576,47.576,0,0,0-6.885-1.046,6.315,6.315,0,0,1,2.056-.138,21.539,21.539,0,0,1,4.947.726,21.955,21.955,0,0,1,4.645,1.836A7.156,7.156,0,0,1-4179.988,665.287Z" transform="translate(-21.504 -36.482)" fill="#263238"/>
        <path id="Path_8623" data-name="Path 8623" d="M-4165.188,625.573a16.406,16.406,0,0,1-2.011,1.542c-1.248.918-2.946,2.258-4.708,3.855s-3.24,3.157-4.287,4.314a15.546,15.546,0,0,1-1.734,1.836,11.017,11.017,0,0,1,1.478-2.065,41.064,41.064,0,0,1,9.06-8.261A11.527,11.527,0,0,1-4165.188,625.573Z" transform="translate(-27.125 -23.378)" fill="#263238"/>
        <path id="Path_8624" data-name="Path 8624" d="M-4187.116,637.917a22.21,22.21,0,0,1-2.2-1.221,36.319,36.319,0,0,0-11.125-3.974,16.588,16.588,0,0,1-2.423-.469,9.408,9.408,0,0,1,2.478.138,28.616,28.616,0,0,1,11.236,4.011A9.262,9.262,0,0,1-4187.116,637.917Z" transform="translate(-18.048 -25.8)" fill="#263238"/>
        <path id="Path_8625" data-name="Path 8625" d="M-4173.9,605.2c.11.1-1.919,2.157-4.011,5s-3.47,5.388-3.6,5.315a6.616,6.616,0,0,1,.771-1.735,30.666,30.666,0,0,1,2.451-3.855,31.815,31.815,0,0,1,2.965-3.488A6.48,6.48,0,0,1-4173.9,605.2Z" transform="translate(-25.822 -15.962)" fill="#263238"/>
        <path id="Path_8626" data-name="Path 8626" d="M-4187.412,606.929a15.84,15.84,0,0,1-1.11-1.652,24.707,24.707,0,0,0-3.13-3.608c-1.359-1.294-2.69-2.368-3.672-3.157a8.8,8.8,0,0,1-1.5-1.34,8.085,8.085,0,0,1,1.734,1.065,36.01,36.01,0,0,1,3.764,3.075,18.273,18.273,0,0,1,3.084,3.773A5.488,5.488,0,0,1-4187.412,606.929Z" transform="translate(-20.249 -13.041)" fill="#263238"/>
        <path id="Path_8627" data-name="Path 8627" d="M-4198.186,687.643a40.534,40.534,0,0,0-6.085,2.341,42.553,42.553,0,0,0-5.379,3.671,6.144,6.144,0,0,1,1.313-1.432,19.061,19.061,0,0,1,8.261-4.323A5.949,5.949,0,0,1-4198.186,687.643Z" transform="translate(-15.579 -45.969)" fill="#263238"/>
        <path id="Path_8628" data-name="Path 8628" d="M-4229.781,676.376c0,.147-2.9.321-6.343,1.249s-6.049,2.212-6.113,2.083a6.307,6.307,0,0,1,1.652-.964,26.49,26.49,0,0,1,4.342-1.579,25.807,25.807,0,0,1,4.589-.8A6.74,6.74,0,0,1-4229.781,676.376Z" transform="translate(-3.719 -41.843)" fill="#263238"/>
        <path id="Path_8629" data-name="Path 8629" d="M-4215.445,674.736a14.68,14.68,0,0,1-2.047-3.213,15.735,15.735,0,0,1-1.625-3.405,15.342,15.342,0,0,1,2.047,3.213A15.936,15.936,0,0,1-4215.445,674.736Z" transform="translate(-12.134 -38.863)" fill="#263238"/>
        <g id="Group_1593" data-name="Group 1593" transform="translate(-4223.405 631.911)" opacity="0.4">
          <path id="Path_8630" data-name="Path 8630" d="M-4204.273,678.276a8.685,8.685,0,0,1-2.4-3.919,1.971,1.971,0,0,1,.055-1.451,1.5,1.5,0,0,1,1.734-.514,4.117,4.117,0,0,1,1.542,1.157,46.684,46.684,0,0,1,5.195,7.618" transform="translate(4206.781 -672.295)"/>
        </g>
        <path id="Path_8631" data-name="Path 8631" d="M-4178.853,781.709h40.957v17.605a20.478,20.478,0,0,1-20.479,20.478h0a20.478,20.478,0,0,1-20.479-20.478V781.709Z" transform="translate(-26.788 -80.207)" fill="#455a64"/>
        <path id="Path_8632" data-name="Path 8632" d="M-4137.9,799.569a11.517,11.517,0,0,1-1.588-.478c-1.019-.321-2.478-.826-4.323-1.276a20.29,20.29,0,0,0-6.582-.661,14.1,14.1,0,0,0-3.8.863c-1.276.468-2.561,1.074-3.92,1.624a15.485,15.485,0,0,1-4.149,1.166,12.86,12.86,0,0,1-4.011-.266c-2.5-.56-4.589-1.451-6.425-2.01a19.264,19.264,0,0,0-4.388-.918h-1.22a1.4,1.4,0,0,1-.431,0,1.474,1.474,0,0,1,.431-.064,6.527,6.527,0,0,1,1.23-.055,17.568,17.568,0,0,1,4.479.817c1.836.523,3.966,1.376,6.426,1.9a12.31,12.31,0,0,0,3.874.23,14.973,14.973,0,0,0,4.011-1.139c1.35-.541,2.644-1.147,3.947-1.624a14.844,14.844,0,0,1,3.919-.863,19.864,19.864,0,0,1,6.7.772c1.836.5,3.305,1.055,4.306,1.432l1.138.459A2.269,2.269,0,0,1-4137.9,799.569Z" transform="translate(-26.831 -85.693)" fill="#263238"/>
        <path id="Path_8633" data-name="Path 8633" d="M-4137.9,795.693a11.523,11.523,0,0,1-1.588-.477c-1.019-.331-2.478-.826-4.323-1.285a20.541,20.541,0,0,0-6.582-.661,14.492,14.492,0,0,0-3.8.872c-1.276.468-2.561,1.074-3.92,1.625a15.861,15.861,0,0,1-4.149,1.166,12.864,12.864,0,0,1-4.011-.275c-2.5-.56-4.589-1.441-6.425-2.01a19.7,19.7,0,0,0-4.388-.918,8.5,8.5,0,0,0-1.22,0h-.431a1.29,1.29,0,0,1,.431-.074,6.73,6.73,0,0,1,1.23-.046,17.113,17.113,0,0,1,4.479.808c1.836.532,3.966,1.386,6.426,1.9a12.309,12.309,0,0,0,3.874.239,15.663,15.663,0,0,0,4.011-1.138c1.35-.551,2.644-1.156,3.947-1.625a14.486,14.486,0,0,1,3.919-.872,20.328,20.328,0,0,1,6.7.771,42.706,42.706,0,0,1,4.306,1.441l1.138.459C-4138.028,795.61-4137.891,795.675-4137.9,795.693Z" transform="translate(-26.831 -84.277)" fill="#263238"/>
      </g>
      <g id="Group_1596" data-name="Group 1596" transform="translate(3642.205 737.709)">
        <rect id="Rectangle_1627" data-name="Rectangle 1627" width="7.07" height="52.95" transform="translate(-3160.665 -408.369)" fill="#f9afa1"/>
        <path id="Path_8634" data-name="Path 8634" d="M-3160.375-401.159c0,.18,1.48.33,3.31.33s3.32-.15,3.32-.33-1.49-.34-3.32-.34S-3160.375-401.349-3160.375-401.159Z" fill="#fafafa"/>
        <path id="Path_8635" data-name="Path 8635" d="M-3160.525-402.319c0,.19,1.49.34,3.32.34s3.31-.15,3.31-.34-1.48-.33-3.31-.33S-3160.525-402.5-3160.525-402.319Z" fill="#fafafa"/>
        <path id="Path_8636" data-name="Path 8636" d="M-3160.375-359.519c0,.18,1.48.33,3.31.33s3.32-.15,3.32-.33-1.45-.3-3.32-.3S-3160.375-359.7-3160.375-359.519Z" fill="#fafafa"/>
        <path id="Path_8637" data-name="Path 8637" d="M-3160.525-360.669c0,.18,1.49.33,3.32.33s3.31-.15,3.31-.33-1.48-.34-3.31-.34A9.328,9.328,0,0,0-3160.525-360.669Z" fill="#fafafa"/>
        <path id="Path_8638" data-name="Path 8638" d="M-3156.914-367.589c.179,0,.33-6.06.33-13.54s-.151-13.55-.33-13.55-.341,6.06-.341,13.55S-3157.1-367.589-3156.914-367.589Z" fill="#fafafa"/>
        <rect id="Rectangle_1628" data-name="Rectangle 1628" width="14.15" height="52.95" transform="translate(-3128.965 -408.709)" fill="#263238"/>
        <path id="Path_8639" data-name="Path 8639" d="M-3118.8-355.089a2.092,2.092,0,0,0,.17-.28c.1-.19.23-.49.4-.89a15.111,15.111,0,0,0,1-3.59,9.366,9.366,0,0,0-.83-5.82,7.651,7.651,0,0,0-2.51-2.77,5.824,5.824,0,0,0-4.07-1,4.256,4.256,0,0,0-2.11,1,2.773,2.773,0,0,0-1,2.23,3.231,3.231,0,0,0,1.211,2.25,4.35,4.35,0,0,0,2.409,1,6.405,6.405,0,0,0,5-1.82,8.053,8.053,0,0,0,2.52-5.04,13.618,13.618,0,0,0-.729-5.91,10.868,10.868,0,0,0-3.47-5.16,5.661,5.661,0,0,0-3-1.2,3.941,3.941,0,0,0-3.18,1.13,2.576,2.576,0,0,0-.73,1.65,2.991,2.991,0,0,0,.49,1.73,4.573,4.573,0,0,0,2.85,2,6.637,6.637,0,0,0,6.189-2.16,10.353,10.353,0,0,0,2.43-6,14.607,14.607,0,0,0-.61-6.18,8.509,8.509,0,0,0-3.65-4.7,6.28,6.28,0,0,0-5.62-.59,3,3,0,0,0-1.83,2.16,3.4,3.4,0,0,0,.64,2.67,4.439,4.439,0,0,0,4.77,1.26,8.24,8.24,0,0,0,3.76-2.67,12,12,0,0,0,2.82-7.26,11.585,11.585,0,0,0-1.309-5.75,11.453,11.453,0,0,0-2.22-3,8.865,8.865,0,0,0-.74-.64q-.25-.2-.27-.18a13.414,13.414,0,0,1,3,3.93,11.443,11.443,0,0,1-1.64,12.59,7.79,7.79,0,0,1-3.531,2.53,3.921,3.921,0,0,1-4.18-1.1,2.908,2.908,0,0,1-.52-2.23,2.372,2.372,0,0,1,1.5-1.73,5.651,5.651,0,0,1,5.07.58,7.887,7.887,0,0,1,3.37,4.38,13.985,13.985,0,0,1,.56,5.9,9.75,9.75,0,0,1-2.27,5.59,6,6,0,0,1-5.59,1.88,4,4,0,0,1-2.44-1.65,2,2,0,0,1,.16-2.58,3.32,3.32,0,0,1,2.65-.92,5,5,0,0,1,2.69,1.06,10.431,10.431,0,0,1,3.26,4.85,12.989,12.989,0,0,1,.72,5.63,7.424,7.424,0,0,1-2.28,4.73,5.844,5.844,0,0,1-4.55,1.7,3.37,3.37,0,0,1-3.15-2.74,2.272,2.272,0,0,1,.83-1.84,3.791,3.791,0,0,1,1.86-.88,5.359,5.359,0,0,1,3.76.86,7.325,7.325,0,0,1,2.41,2.59,9.061,9.061,0,0,1,.9,5.61,16.257,16.257,0,0,1-.89,3.57C-3118.645-355.509-3118.825-355.1-3118.8-355.089Z" fill="#fafafa"/>
        <rect id="Rectangle_1629" data-name="Rectangle 1629" width="24.55" height="48.22" transform="translate(-3153.715 -403.959)" fill="#f9afa1"/>
        <g id="Group_1594" data-name="Group 1594" opacity="0.2">
          <rect id="Rectangle_1630" data-name="Rectangle 1630" width="24.55" height="48.22" transform="translate(-3153.715 -403.959)"/>
        </g>
        <path id="Path_8640" data-name="Path 8640" d="M-3152.865-395.949c0,.18,5.321.33,11.88.33s11.881-.15,11.881-.33-5.321-.34-11.881-.34S-3152.865-396.139-3152.865-395.949Z" fill="#e0e0e0"/>
        <path id="Path_8641" data-name="Path 8641" d="M-3153.2-392.3c0,.19,5.25.34,11.73.34s11.73-.15,11.73-.34-5.25-.33-11.73-.33S-3153.2-392.479-3153.2-392.3Z" fill="#e0e0e0"/>
        <path id="Path_8642" data-name="Path 8642" d="M-3153.965-361.189c0,.18,5.53.33,12.35.33s12.36-.15,12.36-.33-5.53-.34-12.36-.34S-3153.965-361.379-3153.965-361.189Z" fill="#e0e0e0"/>
        <path id="Path_8643" data-name="Path 8643" d="M-3153.625-365.489c0,.18,5.38.33,12,.33s12-.15,12-.33-5.39-.33-12-.33S-3153.625-365.679-3153.625-365.489Z" fill="#e0e0e0"/>
        <rect id="Rectangle_1631" data-name="Rectangle 1631" width="7.39" height="44.02" transform="translate(-3248.275 -399.649)" fill="#f9afa1"/>
        <g id="Group_1595" data-name="Group 1595" opacity="0.3">
          <rect id="Rectangle_1632" data-name="Rectangle 1632" width="7.39" height="44.02" transform="translate(-3248.275 -399.649)"/>
        </g>
        <rect id="Rectangle_1633" data-name="Rectangle 1633" width="18.41" height="50.16" transform="translate(-3266.824 -405.789)" fill="#e0e0e0"/>
        <path id="Path_8644" data-name="Path 8644" d="M-3267.035-402.159a158.225,158.225,0,0,1,18.81,0,80.3,80.3,0,0,1-9.41.28A80.362,80.362,0,0,1-3267.035-402.159Z" fill="#fafafa"/>
        <path id="Path_8645" data-name="Path 8645" d="M-3266.015-399.819a141.652,141.652,0,0,1,17.82,0,71.847,71.847,0,0,1-8.9.28A71.782,71.782,0,0,1-3266.015-399.819Z" fill="#fafafa"/>
        <path id="Path_8646" data-name="Path 8646" d="M-3258.145-365.509c-.15,0-.27-6.65-.27-14.84s.12-14.84.27-14.84.28,6.64.28,14.84S-3257.985-365.509-3258.145-365.509Z" fill="#fafafa"/>
        <path id="Path_8647" data-name="Path 8647" d="M-3266.815-360.929a145.3,145.3,0,0,1,18,0A144.917,144.917,0,0,1-3266.815-360.929Z" fill="#fafafa"/>
        <path id="Path_8648" data-name="Path 8648" d="M-3266.815-358.769a152.576,152.576,0,0,1,18.47,0A158.063,158.063,0,0,1-3266.815-358.769Z" fill="#fafafa"/>
        <rect id="Rectangle_1634" data-name="Rectangle 1634" width="14.79" height="50.16" transform="translate(-3240.995 -405.789)" fill="#f9afa1"/>
        <path id="Path_8649" data-name="Path 8649" d="M-3241.095-382.749a13.6,13.6,0,0,1,2.29,1.42l5.34,3.64,5.32,3.67a12.394,12.394,0,0,1,2.141,1.63,12.518,12.518,0,0,1-2.35-1.3c-1.421-.86-3.34-2.1-5.43-3.54s-3.94-2.78-5.25-3.78A12.645,12.645,0,0,1-3241.095-382.749Z" fill="#fafafa"/>
        <path id="Path_8650" data-name="Path 8650" d="M-3241.2-390.6a79.21,79.21,0,0,1,7.55,5.49,78.992,78.992,0,0,1,7.22,5.93,74.666,74.666,0,0,1-7.56-5.49A76.614,76.614,0,0,1-3241.2-390.6Z" fill="#fafafa"/>
        <rect id="Rectangle_1635" data-name="Rectangle 1635" width="8.74" height="10.39" transform="translate(-3178.834 -391.999)" fill="#f5f5f5"/>
        <rect id="Rectangle_1636" data-name="Rectangle 1636" width="39.48" height="11.72" transform="translate(-3218.015 -392.679)" fill="#263238"/>
        <path id="Path_8651" data-name="Path 8651" d="M-3169.835-391.689h-9.76v-1h9.76a.49.49,0,0,1,.49.49h0a.49.49,0,0,1-.469.51Z" fill="#263238"/>
        <path id="Path_8652" data-name="Path 8652" d="M-3169.835-380.959h-9.76v-1h9.76a.49.49,0,0,1,.49.49h0a.49.49,0,0,1-.469.51Z" fill="#263238"/>
        <rect id="Rectangle_1637" data-name="Rectangle 1637" width="4.66" height="11.72" transform="translate(-3186.304 -392.679)" fill="#ebebeb"/>
        <rect id="Rectangle_1638" data-name="Rectangle 1638" width="4.66" height="11.72" transform="translate(-3214.265 -392.549)" fill="#ebebeb"/>
        <path id="Path_8653" data-name="Path 8653" d="M-3170.1-390.279h-8.44s1.89-.06,4.22-.06S-3170.1-390.309-3170.1-390.279Z" fill="#e0e0e0"/>
        <path id="Path_8654" data-name="Path 8654" d="M-3170.1-388.729h-4.22C-3172-388.729-3170.1-388.759-3170.1-388.729Z" fill="#e0e0e0"/>
        <path id="Path_8655" data-name="Path 8655" d="M-3170.1-386.819h-8.44s1.89-.05,4.22-.05S-3170.1-386.819-3170.1-386.819Z" fill="#e0e0e0"/>
        <path id="Path_8656" data-name="Path 8656" d="M-3170.1-384.889h-8.44s1.89-.05,4.22-.05S-3170.1-384.919-3170.1-384.889Z" fill="#e0e0e0"/>
        <path id="Path_8657" data-name="Path 8657" d="M-3170.1-382.969s-1.891.05-4.22.05-4.22,0-4.22-.05,1.89-.06,4.22-.06S-3170.1-383-3170.1-382.969Z" fill="#e0e0e0"/>
        <rect id="Rectangle_1639" data-name="Rectangle 1639" width="17.76" height="2.11" transform="translate(-3206.574 -387.859)" fill="#ebebeb"/>
        <rect id="Rectangle_1640" data-name="Rectangle 1640" width="8.87" height="6.33" transform="translate(-3179.064 -380.729)" fill="#fafafa"/>
        <rect id="Rectangle_1641" data-name="Rectangle 1641" width="37.75" height="6.79" transform="translate(-3216.715 -380.959)" fill="#455a64"/>
        <path id="Path_8658" data-name="Path 8658" d="M-3179.2-380.5h9.531a.229.229,0,0,0,.229-.23h0a.229.229,0,0,0-.229-.23h-9.531Z" fill="#455a64"/>
        <path id="Path_8659" data-name="Path 8659" d="M-3179.2-374.179h9.531a.229.229,0,0,0,.229-.23h0a.229.229,0,0,0-.229-.23h-9.531Z" fill="#455a64"/>
        <path id="Path_8660" data-name="Path 8660" d="M-3170.2-379.529h-8.77s2-.05,4.39-.05S-3170.2-379.559-3170.2-379.529Z" fill="#e0e0e0"/>
        <path id="Path_8661" data-name="Path 8661" d="M-3170.2-378.329s-2,.05-4.38.05-4.39,0-4.39-.05,2-.06,4.39-.06S-3170.2-378.359-3170.2-378.329Z" fill="#e0e0e0"/>
        <path id="Path_8662" data-name="Path 8662" d="M-3170.2-377.139h-8.77s2-.05,4.39-.05S-3170.2-377.169-3170.2-377.139Z" fill="#e0e0e0"/>
        <path id="Path_8663" data-name="Path 8663" d="M-3170.2-375.939s-2,.05-4.38.05-4.39,0-4.39-.05,2,0,4.39,0S-3170.2-375.969-3170.2-375.939Z" fill="#e0e0e0"/>
        <rect id="Rectangle_1642" data-name="Rectangle 1642" width="9.05" height="17.15" transform="translate(-3177.905 -373.569)" fill="#ebebeb"/>
        <rect id="Rectangle_1643" data-name="Rectangle 1643" width="42.5" height="18.6" transform="translate(-3220.395 -374.179)" fill="#f9afa1"/>
        <path id="Path_8664" data-name="Path 8664" d="M-3168.135-355.579h-10.93v-1.24h10.93a.6.6,0,0,1,.6.6h0a.6.6,0,0,1-.558.639Z" fill="#f9afa1"/>
        <path id="Path_8665" data-name="Path 8665" d="M-3168.135-372.969h-10.93v-1.21h10.93a.6.6,0,0,1,.6.6v.01h0A.6.6,0,0,1-3168.135-372.969Z" fill="#f9afa1"/>
        <path id="Path_8666" data-name="Path 8666" d="M-3168.845-371.269h-9.06s2-.06,4.53-.06S-3168.845-371.3-3168.845-371.269Z" fill="#e0e0e0"/>
        <path id="Path_8667" data-name="Path 8667" d="M-3168.845-369.069h-9.06s2-.06,4.53-.06S-3168.845-369.1-3168.845-369.069Z" fill="#e0e0e0"/>
        <path id="Path_8668" data-name="Path 8668" d="M-3168.845-366.819h-9.06s2-.06,4.53-.06S-3168.845-366.9-3168.845-366.819Z" fill="#e0e0e0"/>
        <path id="Path_8669" data-name="Path 8669" d="M-3168.845-364.669h-9.06s2-.06,4.53-.06S-3168.845-364.7-3168.845-364.669Z" fill="#e0e0e0"/>
        <path id="Path_8670" data-name="Path 8670" d="M-3168.845-362.469s-2,.05-4.53.05-4.53,0-4.53-.05,2-.06,4.53-.06S-3168.845-362.5-3168.845-362.469Z" fill="#e0e0e0"/>
        <path id="Path_8671" data-name="Path 8671" d="M-3168.845-360.269h-9.06s2-.06,4.53-.06S-3168.845-360.3-3168.845-360.269Z" fill="#e0e0e0"/>
        <path id="Path_8672" data-name="Path 8672" d="M-3168.845-358.069h-9.06s2-.06,4.53-.06S-3168.845-358.1-3168.845-358.069Z" fill="#e0e0e0"/>
        <path id="Path_8673" data-name="Path 8673" d="M-3205.854-363.819v1c0,1.24-.62,2-1.821,2a1.7,1.7,0,0,1-1.85-1.534,1.685,1.685,0,0,1,.02-.466v-4c0-1.25.62-2,1.83-2s1.821.71,1.821,2v.75h-1.16v-.83c0-.56-.24-.77-.63-.77s-.64.21-.64.77v4.2c0,.56.25.76.64.76s.63-.2.63-.76v-1.12Z" fill="#ebebeb"/>
        <path id="Path_8674" data-name="Path 8674" d="M-3205.2-366.819a1.861,1.861,0,0,1,1.853-1.867,1.859,1.859,0,0,1,1.867,1.852v4.015a1.86,1.86,0,0,1-1.852,1.868,1.862,1.862,0,0,1-1.868-1.853v-4.015Zm1.23,4.12c0,.56.24.77.63.77s.64-.21.64-.77v-4.2c0-.56-.25-.77-.64-.77s-.63.21-.63.77Z" fill="#ebebeb"/>
        <path id="Path_8675" data-name="Path 8675" d="M-3200.705-368.739h1.22v6.67h2v1.12h-3.24Z" fill="#ebebeb"/>
        <path id="Path_8676" data-name="Path 8676" d="M-3197.035-366.819a1.86,1.86,0,0,1,1.853-1.867,1.86,1.86,0,0,1,1.867,1.852v4.015a1.86,1.86,0,0,1-1.852,1.868,1.862,1.862,0,0,1-1.868-1.853v-4.015Zm1.23,4.12c0,.56.24.77.63.77s.63-.21.63-.77v-4.2c0-.56-.24-.77-.63-.77s-.63.21-.63.77Z" fill="#ebebeb"/>
        <path id="Path_8677" data-name="Path 8677" d="M-3191.354-368.739v6c0,.56.239.76.63.76s.63-.2.63-.76v-6h1.159v5.92c0,1.24-.62,2-1.82,2a1.709,1.709,0,0,1-1.849-1.558,1.72,1.72,0,0,1,.019-.442v-5.92Z" fill="#ebebeb"/>
        <path id="Path_8678" data-name="Path 8678" d="M-3185.544-360.949a2.624,2.624,0,0,1-.11-1v-1.19c0-.72-.24-1-.8-1h-.42v3.18h-1.221v-7.78h1.84c1.27,0,1.82.59,1.82,1.79v.61a1.557,1.557,0,0,1-.8,1.58c.61.26.81.85.81,1.66v1.2a2.346,2.346,0,0,0,.131,1Zm-1.331-6.68v2.39h.48c.45,0,.73-.2.73-.82v-.76c0-.56-.19-.8-.62-.8Z" fill="#ebebeb"/>
        <path id="Path_8679" data-name="Path 8679" d="M-3206.115-378.289h-.9l.05-.23h2v.23h-.89l-.46,2.3h-.26Z" fill="#e0e0e0"/>
        <path id="Path_8680" data-name="Path 8680" d="M-3203.2-377.889l-1.39,2.14c-.23.36-.41.48-.69.48a.632.632,0,0,1-.45-.17l.14-.19a.43.43,0,0,0,.34.14c.16,0,.281-.08.43-.31l.14-.2-.52-1.89h.26l.4,1.62,1-1.62Z" fill="#e0e0e0"/>
        <path id="Path_8681" data-name="Path 8681" d="M-3201.085-377.109a1.069,1.069,0,0,1-1,1.139,1.084,1.084,0,0,1-.114,0,.708.708,0,0,1-.719-.42l-.22,1.1h-.25l.51-2.6h.25l-.06.3a1,1,0,0,1,.74-.32.77.77,0,0,1,.855.674A.75.75,0,0,1-3201.085-377.109Zm-.26,0a.559.559,0,0,0-.525-.592.6.6,0,0,0-.095,0,.821.821,0,0,0-.823.817c0,.025,0,.049,0,.073a.551.551,0,0,0,.5.593.56.56,0,0,0,.116,0,.829.829,0,0,0,.821-.839v-.051Z" fill="#e0e0e0"/>
        <path id="Path_8682" data-name="Path 8682" d="M-3200.785-376.819a1.08,1.08,0,0,1,1.029-1.129h.071a.77.77,0,0,1,.856.674.75.75,0,0,1,0,.126,1.079,1.079,0,0,1-1.018,1.139c-.027,0-.054,0-.082,0a.79.79,0,0,1-.857-.716C-3200.785-376.756-3200.785-376.788-3200.785-376.819Zm1.7-.31a.55.55,0,0,0-.5-.593.572.572,0,0,0-.117,0,.831.831,0,0,0-.822.838c0,.017,0,.035,0,.052a.551.551,0,0,0,.5.593.561.561,0,0,0,.116,0,.83.83,0,0,0,.821-.839v-.051Z" fill="#e0e0e0"/>
        <path id="Path_8683" data-name="Path 8683" d="M-3196.365-377.889l-.33,1.67a1,1,0,0,1-.993,1.006.761.761,0,0,1-.117-.006,1.166,1.166,0,0,1-.84-.29l.15-.19a1,1,0,0,0,.711.25.739.739,0,0,0,.817-.653l0-.027v-.21a1,1,0,0,1-.76.33.759.759,0,0,1-.836-.675.774.774,0,0,1,0-.1,1.051,1.051,0,0,1,1.019-1.08h.072a.728.728,0,0,1,.739.44l.081-.42Zm-.429.76c0-.35-.24-.55-.631-.55a.8.8,0,0,0-.83.769v.061c0,.35.23.56.63.56a.81.81,0,0,0,.831-.789Z" fill="#e0e0e0"/>
        <path id="Path_8684" data-name="Path 8684" d="M-3194.685-377.909v.25h-.07a.751.751,0,0,0-.77.7l-.19,1h-.26l.38-1.9h.24l-.06.34A.862.862,0,0,1-3194.685-377.909Z" fill="#e0e0e0"/>
        <path id="Path_8685" data-name="Path 8685" d="M-3192.515-377.889l-.37,1.9h-.25l.06-.3a1,1,0,0,1-.74.32.769.769,0,0,1-.828-.706.924.924,0,0,1,0-.1,1.081,1.081,0,0,1,1.029-1.129h.051a.719.719,0,0,1,.72.41l.08-.39Zm-.42.8a.559.559,0,0,0-.524-.593.627.627,0,0,0-.106,0,.831.831,0,0,0-.822.838c0,.017,0,.035,0,.052a.561.561,0,0,0,.526.593.587.587,0,0,0,.094,0,.831.831,0,0,0,.833-.828C-3192.932-377.047-3192.933-377.068-3192.935-377.089Z" fill="#e0e0e0"/>
        <path id="Path_8686" data-name="Path 8686" d="M-3190.044-377.109a1.071,1.071,0,0,1-1,1.138.761.761,0,0,1-.083,0,.708.708,0,0,1-.719-.42l-.211,1.1h-.26l.521-2.6h.239l-.06.3a1,1,0,0,1,.74-.32.771.771,0,0,1,.829.707C-3190.044-377.171-3190.043-377.14-3190.044-377.109Zm-.261,0a.559.559,0,0,0-.525-.592.6.6,0,0,0-.095,0,.821.821,0,0,0-.823.817c0,.025,0,.049,0,.073a.551.551,0,0,0,.5.593.561.561,0,0,0,.116,0,.829.829,0,0,0,.821-.839v-.051Z" fill="#e0e0e0"/>
        <path id="Path_8687" data-name="Path 8687" d="M-3187.745-377.289a.81.81,0,0,1,0,.22l-.219,1.08h-.231l.21-1.09a.941.941,0,0,0,0-.17c0-.27-.159-.43-.489-.43a.741.741,0,0,0-.771.67l-.2,1h-.26l.53-2.68h.261l-.211,1.06a.943.943,0,0,1,.72-.3.6.6,0,0,1,.659.535A.58.58,0,0,1-3187.745-377.289Z" fill="#e0e0e0"/>
        <path id="Path_8688" data-name="Path 8688" d="M-3185.345-377.889l-1.38,2.14c-.24.36-.42.48-.69.48a.6.6,0,0,1-.45-.17l.14-.19a.42.42,0,0,0,.33.14c.16,0,.29-.08.44-.31l.13-.2-.469-1.89h.26l.39,1.62,1-1.62Z" fill="#e0e0e0"/>
        <rect id="Rectangle_1644" data-name="Rectangle 1644" width="171.08" height="9.77" transform="translate(-3278.205 -355.919)" fill="#455a64"/>
        <rect id="Rectangle_1645" data-name="Rectangle 1645" width="14.94" height="9.77" transform="translate(-3122.064 -355.919)" fill="#263238"/>
      </g>
      <g id="freepik--Plant--inject-56" transform="translate(3325.203 864.041)">
        <path id="Path_8689" data-name="Path 8689" d="M-2426.013-39.252c.95-3.3,3-6.48,6.13-7.84s7.06-.6,10.41.61,6.64,2.85,10.2,3.07,7.57-1.47,8.64-4.87c1-3.2-.93-6.61-3.34-8.93a21.082,21.082,0,0,0-29.807.566,21.075,21.075,0,0,0-4.733,7.724" fill="#ffcca9"/>
        <g id="Group_1597" data-name="Group 1597" opacity="0.3">
          <path id="Path_8690" data-name="Path 8690" d="M-2426.013-39.252c.95-3.3,3-6.48,6.13-7.84s7.06-.6,10.41.61,6.64,2.85,10.2,3.07,7.57-1.47,8.64-4.87c1-3.2-.93-6.61-3.34-8.93a21.082,21.082,0,0,0-29.807.566,21.075,21.075,0,0,0-4.733,7.724"/>
        </g>
        <path id="Path_8691" data-name="Path 8691" d="M-2454.2-24.962c-5.22-5-5-13.59-2.36-20.31s8.29-11.86,14.64-15.26a46.371,46.371,0,0,1,40.39-1.31,19.179,19.179,0,0,0-15.54,9.12c-2.86,4.75-3.5,10.52-5.86,15.54a24.46,24.46,0,0,1-31.31,12.24" fill="#ffcca9"/>
        <path id="Path_8692" data-name="Path 8692" d="M-2456.713-54.722c-5.78-6.83-6.55-17.78-5.7-26.68s2.92-17.85,1.51-26.68c-.83-5.23-2.86-10.23-3.54-15.48s.28-11.19,4.35-14.58c4.68-3.9,12-3,16.91.68s7.68,9.41,9.75,15.13c4.52,12.59,6.18,26.55,2.46,39.39s-12.44,24.31-25.24,28.22" fill="#ffcca9"/>
        <path id="Path_8693" data-name="Path 8693" d="M-2459.483,1.218a3.992,3.992,0,0,1,0-.79v-2.25c.07-2,.26-4.79.69-8.27a111.083,111.083,0,0,1,2.22-12.1,55.528,55.528,0,0,1,5.52-14,57.9,57.9,0,0,1,9-12.07,57.252,57.252,0,0,1,9.46-7.86c1.45-1,2.84-1.76,4.05-2.46s2.31-1.17,3.19-1.6l2.08-.87a4.391,4.391,0,0,1,.74-.27,5.516,5.516,0,0,1-.7.37l-2,.95c-.86.46-1.92,1-3.13,1.68a46.823,46.823,0,0,0-4,2.5,59.638,59.638,0,0,0-18.25,19.88c-5.31,9.29-6.76,19.06-7.82,25.91-.48,3.46-.73,6.28-.86,8.23-.06.93-.1,1.68-.14,2.24A6.173,6.173,0,0,1-2459.483,1.218Z" fill="#263238"/>
        <path id="Path_8694" data-name="Path 8694" d="M-2509.333-81.672c-10.69,6.46-10.66,12.33-8.87,17.87s8.34,9.39,13.79,7.32c3.07-1.17,5.3-3.85,7.2-6.53s3.69-5.57,6.36-7.49,6.53-2.67,9.21-.76" fill="#ffcca9"/>
        <g id="Group_1598" data-name="Group 1598" opacity="0.3">
          <path id="Path_8695" data-name="Path 8695" d="M-2509.333-81.672c-10.69,6.46-10.66,12.33-8.87,17.87s8.34,9.39,13.79,7.32c3.07-1.17,5.3-3.85,7.2-6.53s3.69-5.57,6.36-7.49,6.53-2.67,9.21-.76"/>
        </g>
        <path id="Path_8696" data-name="Path 8696" d="M-2517.333-74.592c2.79-3.86,9.7-5,14.06-3.06s7.56,5.75,10.41,9.57,5.65,7.85,9.61,10.5,9.49,3.62,13.44.94a11.542,11.542,0,0,0,4.56-7.9,26.268,26.268,0,0,0-.62-9.33c-.95-4.48-2.49-9.16-6.08-12-4-3.18-9.54-3.33-14.65-3.16-5.85.19-11.8.63-17.3,2.66s-11.1,6.41-13.43,11.79" fill="#ffcca9"/>
        <path id="Path_8697" data-name="Path 8697" d="M-2468.373-4.122a.747.747,0,0,1,0-.24v-.71l-.1-2.75c-.06-2.43-.16-5.87-.28-10.11s-.29-9.34-.57-15-.75-11.79-1.48-18.26a80.693,80.693,0,0,0-1.58-9.33c-.22-.73-.4-1.46-.63-2.17s-.51-1.41-.78-2.09-.56-1.35-.84-2l-.91-1.93a43.378,43.378,0,0,0-8.76-12,32.7,32.7,0,0,0-8.22-5.73c-.54-.25-1-.48-1.44-.67l-1.11-.41-.66-.27-.22-.11a.779.779,0,0,1,.24.06l.68.22,1.1.37c.43.17.91.4,1.46.63a31.577,31.577,0,0,1,8.39,5.65,43.012,43.012,0,0,1,8.94,12q.45,1,.93,2c.28.67.57,1.34.86,2s.52,1.4.78,2.11.43,1.47.65,2.21a77.278,77.278,0,0,1,1.6,9.4c.77,6.48,1.1,12.69,1.38,18.32s.38,10.73.46,15,.11,7.72.12,10.11v3.46A.667.667,0,0,1-2468.373-4.122Z" fill="#263238"/>
        <path id="Path_8698" data-name="Path 8698" d="M-2464.523-2.522a29.006,29.006,0,0,1-1.18-4.59,48.186,48.186,0,0,1-.5-12.9,86.131,86.131,0,0,1,4.07-18.71c2.2-6.88,5.17-14.24,7.72-22.14a103.116,103.116,0,0,0,3.07-11.72,105.762,105.762,0,0,0,1.52-11.14,164.29,164.29,0,0,0,.34-19.11c-.18-5.45-.47-9.85-.65-12.9-.08-1.49-.15-2.66-.2-3.5v-.91a1.324,1.324,0,0,1,0-.32,1.205,1.205,0,0,1,.05.31c0,.24.06.54.09.91.08.84.18,2,.3,3.5.25,3,.59,7.44.82,12.89a157.2,157.2,0,0,1-.24,19.17,101.551,101.551,0,0,1-1.49,11.23,99.762,99.762,0,0,1-3.12,11.73c-2.55,7.93-5.54,15.28-7.75,22.13a87.22,87.22,0,0,0-4.16,18.6,49.6,49.6,0,0,0,.33,12.84c.26,1.5.5,2.66.71,3.43.09.37.16.66.21.89A1.222,1.222,0,0,1-2464.523-2.522Z" fill="#263238"/>
        <path id="Path_8699" data-name="Path 8699" d="M-2438.013,2.318h-50.21l-1.15-9.67h51.36Z" fill="#263238"/>
        <path id="Path_8700" data-name="Path 8700" d="M-2482.833,1.218l6.27,28.99h27.29l5.87-28.99Z" fill="#263238"/>
        <path id="Path_8701" data-name="Path 8701" d="M-2438.023,2.278c0,.14-11,.23-24.65.19s-24.65-.19-24.65-.33,11-.23,24.65-.19S-2438.023,2.168-2438.023,2.278Z" fill="#455a64"/>
        <path id="Path_8702" data-name="Path 8702" d="M-2446.633,16.618a22.349,22.349,0,0,0-4.43-2.52,15.93,15.93,0,0,0-5.37-1.07,18.912,18.912,0,0,0-6.64,1.25c-2.29.78-4.43,1.68-6.51,2.17a15.493,15.493,0,0,1-5.63.17,11.737,11.737,0,0,1-3.62-1.15,7.269,7.269,0,0,1-.87-.56c-.19-.14-.28-.23-.27-.24s.43.24,1.23.61a12.42,12.42,0,0,0,3.58,1,15.722,15.722,0,0,0,5.47-.26c2-.51,4.14-1.42,6.45-2.2a18.747,18.747,0,0,1,6.78-1.2,15.59,15.59,0,0,1,5.5,1.21,13.932,13.932,0,0,1,3.27,1.92q.406.315.78.67C-2446.713,16.545-2446.62,16.611-2446.633,16.618Z" fill="#455a64"/>
        <path id="Path_8703" data-name="Path 8703" d="M-2447.013,18.558a22.772,22.772,0,0,0-4.26-2.49,14.584,14.584,0,0,0-5.17-1.06,18.753,18.753,0,0,0-6.39,1.15c-2.21.74-4.29,1.6-6.27,2.13a15.975,15.975,0,0,1-5.41.6,9.2,9.2,0,0,1-3.55-.95,6.5,6.5,0,0,1-.84-.54c-.18-.14-.27-.22-.26-.23s.42.23,1.19.59a9.9,9.9,0,0,0,3.48.77,16.814,16.814,0,0,0,5.26-.7c1.94-.55,4-1.41,6.23-2.16a18.631,18.631,0,0,1,6.57-1.14,14.407,14.407,0,0,1,5.31,1.2,13.838,13.838,0,0,1,3.13,1.91,9.041,9.041,0,0,1,.75.66C-2447.073,18.458-2447,18.548-2447.013,18.558Z" fill="#fff"/>
        <path id="Path_8704" data-name="Path 8704" d="M-2446.133,14.7a25.542,25.542,0,0,0-4.55-2.66,16.823,16.823,0,0,0-5.51-1.32,17.9,17.9,0,0,0-6.81,1.2,58.416,58.416,0,0,1-6.74,2.2,17.121,17.121,0,0,1-5.81,0,13.123,13.123,0,0,1-3.73-1.19,6.488,6.488,0,0,1-.91-.57c-.19-.14-.29-.23-.28-.24s.45.25,1.27.63a14.73,14.73,0,0,0,3.7,1,17.629,17.629,0,0,0,5.67-.12,66.464,66.464,0,0,0,6.66-2.22,17.876,17.876,0,0,1,7-1.19,16.674,16.674,0,0,1,5.63,1.46,16.272,16.272,0,0,1,3.35,2,7.474,7.474,0,0,1,.8.7C-2446.213,14.588-2446.073,14.688-2446.133,14.7Z" fill="#fff"/>
      </g>
      <g id="freepik--Clock--inject-409" transform="translate(562.088 253.587)">
        <path id="Path_8705" data-name="Path 8705" d="M254.076,29.2a32.076,32.076,0,1,0,32.076,32.076A32.076,32.076,0,0,0,254.076,29.2Zm0,57.736a25.7,25.7,0,1,1,25.7-25.7A25.7,25.7,0,0,1,254.076,86.936Z" transform="translate(-222 -29.2)" fill="#a6a6a6" stroke="#a6a6a6" stroke-linecap="round" stroke-linejoin="round" stroke-width="1"/>
        <line id="Line_118" data-name="Line 118" x2="11.257" y2="2.897" transform="translate(33.299 32.607)" fill="none" stroke="#a6a6a6" stroke-linecap="round" stroke-linejoin="round" stroke-width="1"/>
        <line id="Line_119" data-name="Line 119" x1="13.261" y1="19.376" transform="translate(18.814 12.66)" fill="none" stroke="#a6a6a6" stroke-linecap="round" stroke-linejoin="round" stroke-width="1"/>
        <path id="Path_8706" data-name="Path 8706" d="M257.175,61.167a3.157,3.157,0,1,1-.925-2.243A3.167,3.167,0,0,1,257.175,61.167Z" transform="translate(-221.932 -29.132)" fill="#fff" stroke="#a6a6a6" stroke-miterlimit="10" stroke-width="1"/>
      </g>
    </g>
  </g>
</svg>
