<svg xmlns="http://www.w3.org/2000/svg" width="1292.384" height="1332.416" viewBox="0 0 1292.384 1332.416">
  <g id="Group_1606" data-name="Group 1606" transform="translate(-25.043 42.807)">
    <g id="freepik--background-simple--inject-409" transform="translate(809.713 1289.609) rotate(-150)" opacity="0.362">
      <path id="Path_5521" data-name="Path 5521" d="M861.9,794.462c52.986-134.132,56.558-312.838,19.98-456.137C850.438,214.98,780.3,120.874,699.349,64.837,605.429-.15,493.478-19.5,392.682,21.52,366.17,32.307,340.364,42.2,315.361,59.927,212.884,132.6,232.653,311.7,196.705,373.974c-30.237,52.41-88.094,36.955-124.558,77.127C-26.3,559.477-26.51,833.425,87.046,919.041,207.5,1009.906,730.656,1126.7,861.9,794.462Z" transform="translate(0 0)" fill="#d6e3f4"/>
      <path id="Path_5522" data-name="Path 5522" d="M861.9,794.462c52.986-134.132,56.558-312.838,19.98-456.137C850.438,214.98,780.3,120.874,699.349,64.837,605.429-.15,493.478-19.5,392.682,21.52,366.17,32.307,340.364,42.2,315.361,59.927,212.884,132.6,234.479,235.983,198.531,298.26,174.613,339.716,132.273,386.083,97.514,423.6c-9.11,9.832-17.745,19.106-25.366,27.5C-26.3,559.477-26.51,833.425,87.046,919.041,207.5,1009.906,730.656,1126.7,861.9,794.462Z" transform="translate(0 0)" fill="#d6e3f4" opacity="0.8"/>
    </g>
    <g id="freepik--background-complete--inject-2" transform="translate(264 191)">
      <rect id="Rectangle_1054" data-name="Rectangle 1054" width="67.586" height="0.51" transform="translate(850.498 755.939)" fill="#ebebeb"/>
      <rect id="Rectangle_1055" data-name="Rectangle 1055" width="17.733" height="0.51" transform="translate(658.167 761.49)" fill="#ebebeb"/>
      <rect id="Rectangle_1056" data-name="Rectangle 1056" width="39.16" height="0.51" transform="translate(809.297 737.002)" fill="#ebebeb"/>
      <rect id="Rectangle_1057" data-name="Rectangle 1057" width="88.135" height="0.51" transform="translate(107.052 740.43)" fill="#ebebeb"/>
      <rect id="Rectangle_1058" data-name="Rectangle 1058" width="12.917" height="0.51" transform="translate(213.369 740.43)" fill="#ebebeb"/>
      <rect id="Rectangle_1059" data-name="Rectangle 1059" width="191.167" height="0.51" transform="translate(268.283 749.042)" fill="#ebebeb"/>
      <rect id="Rectangle_1060" data-name="Rectangle 1060" width="1020.32" height="0.51" transform="translate(0 723.105)" fill="#ebebeb"/>
      <rect id="Rectangle_1061" data-name="Rectangle 1061" width="6.959" height="118.194" transform="translate(869.129 84.61)" fill="#e0e0e0"/>
      <rect id="Rectangle_1062" data-name="Rectangle 1062" width="111.174" height="118.194" transform="translate(761.424 84.61)" fill="#f0f0f0"/>
      <rect id="Rectangle_1063" data-name="Rectangle 1063" width="92.563" height="99.563" transform="translate(771.403 93.915)" fill="#fff"/>
      <path id="Path_5824" data-name="Path 5824" d="M440.573,126.247a27.1,27.1,0,0,0,.326,4.51c.224,1.163.49,2.347.775,3.51a10.061,10.061,0,0,1,.551,2.755,5.428,5.428,0,0,1-2.143,4.387,7.775,7.775,0,0,1-5.122,1.775,8.8,8.8,0,0,1-7.04-2.592,11.061,11.061,0,0,1-2.408-6.754,27.61,27.61,0,0,1-9.9,7.142,31.732,31.732,0,0,1-12.1,2.2,19.223,19.223,0,0,1-12.713-4.571,14.733,14.733,0,0,1-5.428-11.815,17.937,17.937,0,0,1,1.694-8.163,13.938,13.938,0,0,1,4.734-5.387,24.2,24.2,0,0,1,7.1-3.224,53.342,53.342,0,0,1,8.958-1.714l9.8-1.1a12.244,12.244,0,0,0,5.163-1.592,4.816,4.816,0,0,0,1.755-4.347,5.305,5.305,0,0,0-2.857-4.938,14.284,14.284,0,0,0-7.244-1.653,15.02,15.02,0,0,0-7.163,1.428,25.286,25.286,0,0,0-5.285,3.959,17.53,17.53,0,0,1-3.061,2.571,5.755,5.755,0,0,1-3.081.837,6.9,6.9,0,0,1-4.9-1.816,5.755,5.755,0,0,1-1.939-4.347,9.041,9.041,0,0,1,1.714-5,16.711,16.711,0,0,1,5-4.734,28.956,28.956,0,0,1,8.163-3.469A40.609,40.609,0,0,1,414.657,82.8q12.1,0,19.08,4.081a13.428,13.428,0,0,1,6.979,12.428Zm-16.06-11.55a7.653,7.653,0,0,1-2.8,1.53,36.07,36.07,0,0,1-4.081,1h0l-5.836.877a18.365,18.365,0,0,0-7.816,2.571,6.122,6.122,0,0,0-2.51,5.346,5.775,5.775,0,0,0,2.408,4.673,10.2,10.2,0,0,0,6.489,1.918,14.876,14.876,0,0,0,10.2-3.469,10.57,10.57,0,0,0,3.9-8.163Z" transform="translate(401.027 28.928)" fill="#ebebeb"/>
      <g id="Group_1493" data-name="Group 1493" transform="translate(-150 -38)">
        <rect id="Rectangle_1064" data-name="Rectangle 1064" width="53.077" height="56.505" transform="translate(857.967 412.193)" fill="#e6e6e6"/>
        <rect id="Rectangle_1065" data-name="Rectangle 1065" width="13.591" height="56.505" transform="translate(844.376 412.193)" fill="#f5f5f5"/>
        <rect id="Rectangle_1066" data-name="Rectangle 1066" width="39.874" height="65.219" transform="translate(885.087 403.48)" fill="#e6e6e6"/>
        <rect id="Rectangle_1067" data-name="Rectangle 1067" width="11.53" height="65.219" transform="translate(873.577 403.48)" fill="#f0f0f0"/>
        <rect id="Rectangle_1068" data-name="Rectangle 1068" width="38.731" height="56.505" transform="translate(896.841 412.193)" fill="#f0f0f0"/>
        <rect id="Rectangle_1069" data-name="Rectangle 1069" width="7.673" height="56.505" transform="translate(889.147 412.193)" fill="#f5f5f5"/>
        <rect id="Rectangle_1070" data-name="Rectangle 1070" width="9.856" height="21.1" transform="translate(763.566 452.843)" fill="#e0e0e0"/>
        <path id="Path_5825" data-name="Path 5825" d="M394.511,297.365a51.587,51.587,0,0,1-36.731-15.223l1.449-1.428a49.883,49.883,0,1,0,70.545-70.545l1.429-1.428a51.934,51.934,0,0,1-36.732,88.625Z" transform="translate(372.32 159.988)" fill="#e0e0e0"/>
        <rect id="Rectangle_1071" data-name="Rectangle 1071" width="208.166" height="253.754" transform="translate(728.019 468.699)" fill="#ebebeb"/>
        <rect id="Rectangle_1072" data-name="Rectangle 1072" width="173.434" height="226.103" transform="translate(744.65 496.982)" fill="#f5f5f5"/>
        <circle id="Ellipse_82" data-name="Ellipse 82" cx="35.038" cy="35.038" r="35.038" transform="translate(734.181 373.136)" fill="#ebebeb"/>
        <path id="Path_5826" data-name="Path 5826" d="M369.924,271.7A35.831,35.831,0,1,1,420.6,221.03l-1.126,1.126a34.27,34.27,0,1,0-48.424,48.506Z" transform="translate(374.032 161.855)" fill="#fff"/>
        <path id="Path_5827" data-name="Path 5827" d="M364.572,266.349l1.122-1.1A34.248,34.248,0,0,0,414.119,216.8l1.122-1.122a35.831,35.831,0,1,1-50.673,50.673Z" transform="translate(379.384 167.21)" fill="#fff"/>
        <path id="Path_5828" data-name="Path 5828" d="M383.9,253.754l-1.122-1.1c8.163-8.163,15.039-23.365,12.244-36.446l1.531-.327C399.554,229.511,392.412,245.245,383.9,253.754Z" transform="translate(398.336 167.418)" fill="#fff"/>
        <path id="Path_5829" data-name="Path 5829" d="M365.13,247.285l.347-1.551c13.06,2.857,28.222-3.959,36.425-12.244l1.122,1.1C394.515,243.2,378.761,250.264,365.13,247.285Z" transform="translate(379.969 185.744)" fill="#fff"/>
        <path id="Path_5830" data-name="Path 5830" d="M371.762,229.647l-1.122-1.1c8.509-8.53,24.263-15.59,37.895-12.611l-.347,1.551C395.128,214.628,379.966,221.444,371.762,229.647Z" transform="translate(385.703 166.752)" fill="#fff"/>
        <path id="Path_5831" data-name="Path 5831" d="M365.194,259.325c-2.979-13.631,4.081-29.365,12.591-37.895l1.122,1.122c-8.163,8.163-15.039,23.365-12.244,36.446Z" transform="translate(379.313 173.193)" fill="#fff"/>
        <rect id="Rectangle_1073" data-name="Rectangle 1073" width="70.076" height="1.571" transform="translate(743.973 432.444) rotate(-45)" fill="#fff"/>
        <rect id="Rectangle_1074" data-name="Rectangle 1074" width="1.571" height="59.321" transform="translate(760.965 374.625) rotate(-45)" fill="#fff"/>
        <rect id="Rectangle_1075" data-name="Rectangle 1075" width="1.571" height="70.035" transform="translate(743.544 384.441) rotate(-45)" fill="#fff"/>
        <rect id="Rectangle_1076" data-name="Rectangle 1076" width="1.571" height="57.75" transform="translate(734.277 402.401) rotate(-45)" fill="#fff"/>
      </g>
      <g id="Group_1491" data-name="Group 1491" transform="translate(-176 -22)">
        <path id="Path_5822" data-name="Path 5822" d="M443.869,632.093H49.842A11.652,11.652,0,0,1,38.21,620.441V66.55A11.652,11.652,0,0,1,49.842,55H443.869a11.652,11.652,0,0,1,11.652,11.652V620.441A11.652,11.652,0,0,1,443.869,632.093ZM49.842,55.408A11.142,11.142,0,0,0,38.72,66.55V620.441a11.142,11.142,0,0,0,11.121,11.142H443.869a11.162,11.162,0,0,0,11.142-11.142V66.55a11.162,11.162,0,0,0-11.142-11.142Z" transform="translate(39.763)" fill="#ebebeb"/>
        <path id="Path_5823" data-name="Path 5823" d="M660.2,632.093H266.152A11.672,11.672,0,0,1,254.5,620.441V66.55A11.672,11.672,0,0,1,266.152,55H660.2a11.652,11.652,0,0,1,11.611,11.55V620.441A11.652,11.652,0,0,1,660.2,632.093ZM266.152,55.408A11.162,11.162,0,0,0,255.01,66.55V620.441a11.162,11.162,0,0,0,11.142,11.142H660.2a11.162,11.162,0,0,0,11.142-11.142V66.55A11.162,11.162,0,0,0,660.2,55.408Z" transform="translate(264.843)" fill="#ebebeb"/>
        <rect id="Rectangle_1077" data-name="Rectangle 1077" width="637.639" height="17.162" transform="translate(78.483 445.66)" fill="#e0e0e0"/>
        <rect id="Rectangle_1078" data-name="Rectangle 1078" width="4.347" height="361.05" transform="translate(691.41 84.467)" fill="#e0e0e0"/>
        <rect id="Rectangle_1079" data-name="Rectangle 1079" width="3.571" height="324.87" transform="translate(116.418 100.302)" fill="#e0e0e0"/>
        <rect id="Rectangle_1080" data-name="Rectangle 1080" width="592.5" height="361.05" transform="translate(98.849 84.609)" fill="#f0f0f0"/>
        <rect id="Rectangle_1081" data-name="Rectangle 1081" width="555.625" height="324.87" transform="translate(116.418 100.302)" fill="#e0e0e0"/>
        <path id="Path_5832" data-name="Path 5832" d="M58.66,170.92V323.968H147.1ZM77.924,248.1l31.161,54.016H77.924Z" transform="translate(61.044 120.631)" fill="#fafafa"/>
        <path id="Path_5833" data-name="Path 5833" d="M262.919,236H197.251v.327a4.816,4.816,0,0,0-3.081,4.51v14.387a4.816,4.816,0,0,0,3.081,4.51v.327h66.913a3.592,3.592,0,0,0,3.592-3.591V240.836A4.836,4.836,0,0,0,262.919,236Z" transform="translate(202.061 188.355)" opacity="0.1"/>
        <path id="Path_5834" data-name="Path 5834" d="M264.444,240.88v8.428a3.592,3.592,0,0,1-3.612,3.592H193.92V240.86Z" transform="translate(201.801 193.413)" fill="#f0f0f0"/>
        <path id="Path_5835" data-name="Path 5835" d="M193.92,246.979V235h65.688a4.836,4.836,0,0,1,4.836,4.836v7.183Z" transform="translate(201.801 187.315)" fill="#e0e0e0"/>
        <path id="Path_5836" data-name="Path 5836" d="M216.49,240.87v7.2a4.857,4.857,0,0,1-4.836,4.836H197.246a4.836,4.836,0,0,1-4.836-4.836v-7.2Z" transform="translate(200.229 193.424)" fill="#fafafa"/>
        <path id="Path_5837" data-name="Path 5837" d="M192.41,247v-7.183a4.836,4.836,0,0,1,4.836-4.836h14.407a4.857,4.857,0,0,1,4.836,4.836V247Z" transform="translate(200.229 187.294)" fill="#ebebeb"/>
        <rect id="Rectangle_1082" data-name="Rectangle 1082" width="49.077" height="1.02" transform="translate(417.147 436.253)" fill="#e6e6e6"/>
      </g>
    </g>
    <g id="freepik--Plant--inject-56" transform="translate(3336.203 862.041)">
      <path id="Path_7312" data-name="Path 7312" d="M-2426.013-39.252c.95-3.3,3-6.48,6.13-7.84s7.06-.6,10.41.61,6.64,2.85,10.2,3.07,7.57-1.47,8.64-4.87c1-3.2-.93-6.61-3.34-8.93a21.082,21.082,0,0,0-29.807.566,21.075,21.075,0,0,0-4.733,7.724" fill="#ffcca9"/>
      <g id="Group_1494" data-name="Group 1494" opacity="0.3">
        <path id="Path_7313" data-name="Path 7313" d="M-2426.013-39.252c.95-3.3,3-6.48,6.13-7.84s7.06-.6,10.41.61,6.64,2.85,10.2,3.07,7.57-1.47,8.64-4.87c1-3.2-.93-6.61-3.34-8.93a21.082,21.082,0,0,0-29.807.566,21.075,21.075,0,0,0-4.733,7.724"/>
      </g>
      <path id="Path_7314" data-name="Path 7314" d="M-2454.2-24.962c-5.22-5-5-13.59-2.36-20.31s8.29-11.86,14.64-15.26a46.371,46.371,0,0,1,40.39-1.31,19.179,19.179,0,0,0-15.54,9.12c-2.86,4.75-3.5,10.52-5.86,15.54a24.46,24.46,0,0,1-31.31,12.24" fill="#ffcca9"/>
      <path id="Path_7315" data-name="Path 7315" d="M-2456.713-54.722c-5.78-6.83-6.55-17.78-5.7-26.68s2.92-17.85,1.51-26.68c-.83-5.23-2.86-10.23-3.54-15.48s.28-11.19,4.35-14.58c4.68-3.9,12-3,16.91.68s7.68,9.41,9.75,15.13c4.52,12.59,6.18,26.55,2.46,39.39s-12.44,24.31-25.24,28.22" fill="#ffcca9"/>
      <path id="Path_7316" data-name="Path 7316" d="M-2459.483,1.218a3.992,3.992,0,0,1,0-.79v-2.25c.07-2,.26-4.79.69-8.27a111.083,111.083,0,0,1,2.22-12.1,55.528,55.528,0,0,1,5.52-14,57.9,57.9,0,0,1,9-12.07,57.252,57.252,0,0,1,9.46-7.86c1.45-1,2.84-1.76,4.05-2.46s2.31-1.17,3.19-1.6l2.08-.87a4.391,4.391,0,0,1,.74-.27,5.516,5.516,0,0,1-.7.37l-2,.95c-.86.46-1.92,1-3.13,1.68a46.823,46.823,0,0,0-4,2.5,59.638,59.638,0,0,0-18.25,19.88c-5.31,9.29-6.76,19.06-7.82,25.91-.48,3.46-.73,6.28-.86,8.23-.06.93-.1,1.68-.14,2.24A6.173,6.173,0,0,1-2459.483,1.218Z" fill="#263238"/>
      <path id="Path_7317" data-name="Path 7317" d="M-2509.333-81.672c-10.69,6.46-10.66,12.33-8.87,17.87s8.34,9.39,13.79,7.32c3.07-1.17,5.3-3.85,7.2-6.53s3.69-5.57,6.36-7.49,6.53-2.67,9.21-.76" fill="#ffcca9"/>
      <g id="Group_1495" data-name="Group 1495" opacity="0.3">
        <path id="Path_7318" data-name="Path 7318" d="M-2509.333-81.672c-10.69,6.46-10.66,12.33-8.87,17.87s8.34,9.39,13.79,7.32c3.07-1.17,5.3-3.85,7.2-6.53s3.69-5.57,6.36-7.49,6.53-2.67,9.21-.76"/>
      </g>
      <path id="Path_7319" data-name="Path 7319" d="M-2517.333-74.592c2.79-3.86,9.7-5,14.06-3.06s7.56,5.75,10.41,9.57,5.65,7.85,9.61,10.5,9.49,3.62,13.44.94a11.542,11.542,0,0,0,4.56-7.9,26.268,26.268,0,0,0-.62-9.33c-.95-4.48-2.49-9.16-6.08-12-4-3.18-9.54-3.33-14.65-3.16-5.85.19-11.8.63-17.3,2.66s-11.1,6.41-13.43,11.79" fill="#ffcca9"/>
      <path id="Path_7320" data-name="Path 7320" d="M-2468.373-4.122a.747.747,0,0,1,0-.24v-.71l-.1-2.75c-.06-2.43-.16-5.87-.28-10.11s-.29-9.34-.57-15-.75-11.79-1.48-18.26a80.693,80.693,0,0,0-1.58-9.33c-.22-.73-.4-1.46-.63-2.17s-.51-1.41-.78-2.09-.56-1.35-.84-2l-.91-1.93a43.378,43.378,0,0,0-8.76-12,32.7,32.7,0,0,0-8.22-5.73c-.54-.25-1-.48-1.44-.67l-1.11-.41-.66-.27-.22-.11a.779.779,0,0,1,.24.06l.68.22,1.1.37c.43.17.91.4,1.46.63a31.577,31.577,0,0,1,8.39,5.65,43.012,43.012,0,0,1,8.94,12q.45,1,.93,2c.28.67.57,1.34.86,2s.52,1.4.78,2.11.43,1.47.65,2.21a77.278,77.278,0,0,1,1.6,9.4c.77,6.48,1.1,12.69,1.38,18.32s.38,10.73.46,15,.11,7.72.12,10.11v3.46A.667.667,0,0,1-2468.373-4.122Z" fill="#263238"/>
      <path id="Path_7321" data-name="Path 7321" d="M-2464.523-2.522a29.006,29.006,0,0,1-1.18-4.59,48.186,48.186,0,0,1-.5-12.9,86.131,86.131,0,0,1,4.07-18.71c2.2-6.88,5.17-14.24,7.72-22.14a103.116,103.116,0,0,0,3.07-11.72,105.762,105.762,0,0,0,1.52-11.14,164.29,164.29,0,0,0,.34-19.11c-.18-5.45-.47-9.85-.65-12.9-.08-1.49-.15-2.66-.2-3.5v-.91a1.324,1.324,0,0,1,0-.32,1.205,1.205,0,0,1,.05.31c0,.24.06.54.09.91.08.84.18,2,.3,3.5.25,3,.59,7.44.82,12.89a157.2,157.2,0,0,1-.24,19.17,101.551,101.551,0,0,1-1.49,11.23,99.762,99.762,0,0,1-3.12,11.73c-2.55,7.93-5.54,15.28-7.75,22.13a87.22,87.22,0,0,0-4.16,18.6,49.6,49.6,0,0,0,.33,12.84c.26,1.5.5,2.66.71,3.43.09.37.16.66.21.89A1.222,1.222,0,0,1-2464.523-2.522Z" fill="#263238"/>
      <path id="Path_7322" data-name="Path 7322" d="M-2438.013,2.318h-50.21l-1.15-9.67h51.36Z" fill="#263238"/>
      <path id="Path_7323" data-name="Path 7323" d="M-2482.833,1.218l6.27,28.99h27.29l5.87-28.99Z" fill="#263238"/>
      <path id="Path_7324" data-name="Path 7324" d="M-2438.023,2.278c0,.14-11,.23-24.65.19s-24.65-.19-24.65-.33,11-.23,24.65-.19S-2438.023,2.168-2438.023,2.278Z" fill="#455a64"/>
      <path id="Path_7325" data-name="Path 7325" d="M-2446.633,16.618a22.349,22.349,0,0,0-4.43-2.52,15.93,15.93,0,0,0-5.37-1.07,18.912,18.912,0,0,0-6.64,1.25c-2.29.78-4.43,1.68-6.51,2.17a15.493,15.493,0,0,1-5.63.17,11.737,11.737,0,0,1-3.62-1.15,7.269,7.269,0,0,1-.87-.56c-.19-.14-.28-.23-.27-.24s.43.24,1.23.61a12.42,12.42,0,0,0,3.58,1,15.722,15.722,0,0,0,5.47-.26c2-.51,4.14-1.42,6.45-2.2a18.747,18.747,0,0,1,6.78-1.2,15.59,15.59,0,0,1,5.5,1.21,13.932,13.932,0,0,1,3.27,1.92q.406.315.78.67C-2446.713,16.545-2446.62,16.611-2446.633,16.618Z" fill="#455a64"/>
      <path id="Path_7326" data-name="Path 7326" d="M-2447.013,18.558a22.772,22.772,0,0,0-4.26-2.49,14.584,14.584,0,0,0-5.17-1.06,18.753,18.753,0,0,0-6.39,1.15c-2.21.74-4.29,1.6-6.27,2.13a15.975,15.975,0,0,1-5.41.6,9.2,9.2,0,0,1-3.55-.95,6.5,6.5,0,0,1-.84-.54c-.18-.14-.27-.22-.26-.23s.42.23,1.19.59a9.9,9.9,0,0,0,3.48.77,16.814,16.814,0,0,0,5.26-.7c1.94-.55,4-1.41,6.23-2.16a18.631,18.631,0,0,1,6.57-1.14,14.407,14.407,0,0,1,5.31,1.2,13.838,13.838,0,0,1,3.13,1.91,9.041,9.041,0,0,1,.75.66C-2447.073,18.458-2447,18.548-2447.013,18.558Z" fill="#fff"/>
      <path id="Path_7327" data-name="Path 7327" d="M-2446.133,14.7a25.542,25.542,0,0,0-4.55-2.66,16.823,16.823,0,0,0-5.51-1.32,17.9,17.9,0,0,0-6.81,1.2,58.416,58.416,0,0,1-6.74,2.2,17.121,17.121,0,0,1-5.81,0,13.123,13.123,0,0,1-3.73-1.19,6.488,6.488,0,0,1-.91-.57c-.19-.14-.29-.23-.28-.24s.45.25,1.27.63a14.73,14.73,0,0,0,3.7,1,17.629,17.629,0,0,0,5.67-.12,66.464,66.464,0,0,0,6.66-2.22,17.876,17.876,0,0,1,7-1.19,16.674,16.674,0,0,1,5.63,1.46,16.272,16.272,0,0,1,3.35,2,7.474,7.474,0,0,1,.8.7C-2446.213,14.588-2446.073,14.688-2446.133,14.7Z" fill="#fff"/>
    </g>
  </g>
</svg>
