<?xml version="1.0" encoding="utf-8"?><svg xmlns="http://www.w3.org/2000/svg" viewBox="0 0 324.77 324.77"><g id="cabide_marrom" data-name="cabide marrom"><g id="Componente_148_14" data-name="Componente 148 14"><g id="Grupo_10237-2" data-name="Grupo 10237-2"><g id="Caminho_17457-5" data-name="Caminho 17457-5"><path d="M281.92,155.48c-.05-.12-.1-.25-.16-.37l-.15-.3c-.07-.14-.13-.28-.2-.41l-.11-.18q-.14-.25-.3-.51h0c-.14-.22-.28-.43-.44-.65a10.21,10.21,0,0,0-.89-1.08l-.11-.13c-.09-.1-.19-.19-.28-.28s-.18-.19-.27-.27l-.21-.19-.38-.33-.26-.2-.36-.28-.18-.12a12.18,12.18,0,0,0-1.85-1.07l-.07,0a12.91,12.91,0,0,0-1.92-.69c-.35-.09-.7-.18-1-.24l-99-17.62a14.77,14.77,0,0,1-11.21-9.26,21.92,21.92,0,0,0-26.37-8.76l-7.28,2.79L124,102.64a23.28,23.28,0,0,0-9.43-43.14h0A23.28,23.28,0,0,0,89,80.16h0a4,4,0,0,0,7.87.85h0a15.36,15.36,0,1,1,22.5,15.19,6.63,6.63,0,0,0-3.11,8.21l5.27,13.71-5.73,2.2A21.91,21.91,0,0,0,102,144.06l.11.7a21.85,21.85,0,0,1-4.37,16.75L38,238.26a12.33,12.33,0,0,0-1.78,12l4,10.47a4.22,4.22,0,0,0,5.46,2.43h0a49.15,49.15,0,0,0,21.2-15.72l.47-.59,189.33-72.68.75.13a49.15,49.15,0,0,0,26.27-2.51h0a4.19,4.19,0,0,0,2.16-1.86,3,3,0,0,0,.18-.36,4.36,4.36,0,0,0,.26-.77,4.22,4.22,0,0,0-.17-2.46h0l-4-10.48h0C282,155.73,282,155.61,281.92,155.48ZM76.74,234.74l62-79.58a3.69,3.69,0,0,1,3.56-1.37l99.3,17.68Z" style="fill:#fff"/></g><g id="Grupo_10229-3" data-name="Grupo 10229-3" style="opacity:0.5899999737739563"><g id="Caminho_17456-3" data-name="Caminho 17456-3"><path d="M134.19,132.94a4,4,0,0,1-5.12-2.27l-9.33-24.3a6.65,6.65,0,0,1,3.11-8.22A15.35,15.35,0,1,0,100.35,83a4,4,0,0,1-7.88-.85,23.28,23.28,0,1,1,46.29,5h0a23.28,23.28,0,0,1-11.22,17.51l8.91,23.22a4,4,0,0,1-2.28,5.12Z" style="fill:#979797"/></g></g><g id="Grupo_10230-3" data-name="Grupo 10230-3"><g id="Caminho_17457-6" data-name="Caminho 17457-6"><path d="M66.18,242.1,261,167.33l2.84,7.4L69,249.5Z" style="fill:#845c47"/></g></g><g id="Grupo_10231-3" data-name="Grupo 10231-3"><g id="Caminho_17458-5" data-name="Caminho 17458-5"><path d="M276.24,150.1l-99-17.63a14.77,14.77,0,0,1-11.2-9.25,21.9,21.9,0,0,0-26.38-8.76l-20.39,7.82A21.9,21.9,0,0,0,105.48,146l.1.7a21.87,21.87,0,0,1-4.37,16.75L41.46,240.22a12.33,12.33,0,0,0-1.78,12l4,10.48a4.24,4.24,0,0,0,5.46,2.43h0a49.15,49.15,0,0,0,21.2-15.71l71.85-92.28a3.69,3.69,0,0,1,3.56-1.36l115.14,20.49a49.24,49.24,0,0,0,26.27-2.5,4.22,4.22,0,0,0,2.43-5.46h0l-4-10.48A12.32,12.32,0,0,0,276.24,150.1Z" style="fill:#aa7a63"/></g></g><g id="Grupo_10233-3" data-name="Grupo 10233-3"><g id="Grupo_10232-3" data-name="Grupo 10232-3"><g id="Caminho_17459-3" data-name="Caminho 17459-3"><path d="M276.24,150.1l-99-17.63a14.78,14.78,0,0,1-11.21-9.25,21.89,21.89,0,0,0-26.37-8.76l-2,.76a22.46,22.46,0,0,1,5.68,1.08,21.44,21.44,0,0,1,12.92,12.32l1.11,2.69a14.77,14.77,0,0,0,11.21,9.26l99,17.62a12.32,12.32,0,0,1,9.34,7.72l3.78,9.82a49.38,49.38,0,0,0,6.48-2,4.24,4.24,0,0,0,2.43-5.46h0l-4-10.47A12.28,12.28,0,0,0,276.24,150.1Z" style="fill:#845c47"/></g></g></g><g id="Grupo_10235-2" data-name="Grupo 10235-2"><g id="Grupo_10229-4" data-name="Grupo 10229-4"><g id="Caminho_17456-4" data-name="Caminho 17456-4"><path d="M120.57,118.48l-5.27-13.71a7.65,7.65,0,0,1,3.58-9.46,14.36,14.36,0,1,0-21-14.19,5,5,0,0,1-5.51,4.35L92,85.41a5,5,0,0,1-4-5.35,24.27,24.27,0,1,1,48.27,5.18,24.39,24.39,0,0,1-11,17.82l4.56,11.87-1.87.72-5.15-13.44.72-.43A22.37,22.37,0,0,0,134.26,85,22.27,22.27,0,1,0,90,80.27a3,3,0,0,0,2.54,3.2l.38,0h0a3,3,0,0,0,2.94-2.61A16.53,16.53,0,0,1,106.9,67.14a16.36,16.36,0,0,1,12.91,29.94,5.65,5.65,0,0,0-2.64,7l5.26,13.7Z" style="fill:#59316d"/></g></g><g id="Grupo_10230-4" data-name="Grupo 10230-4"><g id="Caminho_17457-7" data-name="Caminho 17457-7"><rect x="59.9" y="209.69" width="203.21" height="2" transform="translate(-64.78 71.88) rotate(-21)" style="fill:#59316d"/></g><g id="Caminho_17457-8" data-name="Caminho 17457-8"><rect x="70.39" y="202.29" width="176.55" height="2" transform="translate(-62.32 70.37) rotate(-21)" style="fill:#59316d"/></g></g><g id="Grupo_10231-4" data-name="Grupo 10231-4"><g id="Caminho_17458-6" data-name="Caminho 17458-6"><path d="M43.65,264.62a5.21,5.21,0,0,1-4.87-3.35l-4-10.48a13.4,13.4,0,0,1,1.92-13l59.76-76.74a21,21,0,0,0,4.17-16l-.11-.7a23,23,0,0,1,14.44-24.83l6.2-2.38.72,1.87-6.21,2.38a21,21,0,0,0-13.17,22.66l.1.7A23,23,0,0,1,98,162.32L38.26,239.06a11.36,11.36,0,0,0-1.63,11l4,10.48a3.21,3.21,0,0,0,4.14,1.86h0A48.26,48.26,0,0,0,65.59,247l9.88-12.7,1.58,1.23-9.89,12.69a50.16,50.16,0,0,1-21.43,16l-.15.15h-.24A5.16,5.16,0,0,1,43.65,264.62Z" style="fill:#59316d"/></g><g id="Caminho_17458-7" data-name="Caminho 17458-7"><rect x="121.24" y="115.71" width="7.92" height="2" transform="translate(-33.51 52.62) rotate(-21)" style="fill:#59316d"/></g><g id="Caminho_17458-8" data-name="Caminho 17458-8"><path d="M77,235.54l-1.57-1.23,62-79.58A4.66,4.66,0,0,1,142,153l115.14,20.5A48.18,48.18,0,0,0,282.83,171a3.23,3.23,0,0,0,1.86-4.16l-4-10.47a11.42,11.42,0,0,0-8.59-7.1l-99-17.62a15.86,15.86,0,0,1-11.93-9.79,21,21,0,0,0-25.11-8.28l-6.79,2.61-.72-1.87,6.79-2.6a23,23,0,0,1,27.57,9.15l.09.18a13.86,13.86,0,0,0,10.45,8.63l99,17.63a13.38,13.38,0,0,1,10.1,8.34l4,10.47a5.22,5.22,0,0,1-3,6.75,50.24,50.24,0,0,1-26.81,2.56L141.6,155a2.67,2.67,0,0,0-2.6,1Z" style="fill:#59316d"/></g></g><g id="Grupo_10233-4" data-name="Grupo 10233-4"><g id="Grupo_10232-4" data-name="Grupo 10232-4"><g id="Caminho_17459-4" data-name="Caminho 17459-4"><path d="M276.09,175.13,272,164.49a11.37,11.37,0,0,0-8.59-7.09l-99-17.63a15.87,15.87,0,0,1-12-9.88l-1.09-2.67a20.39,20.39,0,0,0-12.33-11.74,20.79,20.79,0,0,0-5.41-1l-4.66-.27,6.35-2.43a22.94,22.94,0,0,1,27.57,9.16l.09.17a13.86,13.86,0,0,0,10.45,8.63l99,17.63a13.38,13.38,0,0,1,10.11,8.34l4,10.48a5.22,5.22,0,0,1-3,6.74,49.44,49.44,0,0,1-6.61,2ZM137.77,113q1,.22,1.92.54a22.38,22.38,0,0,1,13.54,12.89l1.1,2.69a13.88,13.88,0,0,0,10.46,8.65l99,17.62a13.39,13.39,0,0,1,10.11,8.35l3.46,9a50.16,50.16,0,0,0,5.5-1.74,3.23,3.23,0,0,0,1.85-4.17l-4-10.47a11.41,11.41,0,0,0-8.59-7.1l-99-17.62a15.86,15.86,0,0,1-11.93-9.79A21,21,0,0,0,137.77,113Z" style="fill:#59316d"/></g></g></g></g></g></g></g></svg>