<?xml version="1.0" encoding="utf-8"?>
<!-- Generator: Adobe Illustrator 25.3.1, SVG Export Plug-In . SVG Version: 6.00 Build 0)  -->
<svg version="1.1" id="calendario" xmlns="http://www.w3.org/2000/svg" xmlns:xlink="http://www.w3.org/1999/xlink" x="0px" y="0px"
	 viewBox="0 0 200 200" style="enable-background:new 0 0 200 200;" xml:space="preserve">
<style type="text/css">
	.st0{fill:#FFFFFF;}
	.st1{fill:#FAFAFA;}
	.st2{fill:#59316D;}
	.st3{fill:#F9AFA1;}
	.st4{fill:#E0E0E0;}
	.st5{fill:#424242;}
</style>
<path class="st0" d="M156.1,83.1h-124v85c0,3.5,2.9,6.4,6.4,6.4h119.8c3.5,0,6.4-2.9,6.4-6.4v-85C164.7,83.1,156.1,83.1,156.1,83.1z
	"/>
<path class="st1" d="M162,83.1H37.9v85c0,3.5,2.9,6.4,6.4,6.4H164c3.5,0,6.4-2.9,6.4-6.4v-85C170.4,83.1,162,83.1,162,83.1z"/>
<path class="st2" d="M158.2,176.9H38.5c-4.9,0-8.9-4-8.9-8.9l0,0V83c0-1.4,1.1-2.5,2.5-2.5l0,0h132.5c1.4,0,2.5,1.1,2.5,2.5v85
	C167.1,172.9,163.2,176.9,158.2,176.9C158.3,176.9,158.2,176.9,158.2,176.9z M34.6,85.6V168c0,2.1,1.7,3.9,3.9,3.9l0,0h119.8
	c2.1,0,3.9-1.7,3.9-3.9l0,0V85.6H34.6z"/>
<path class="st0" d="M158.2,50.4H38.5c-3.5,0-6.4,2.9-6.4,6.4v30.7h132.5V56.7C164.6,53.2,161.8,50.4,158.2,50.4z"/>
<path class="st0" d="M91.8,99.7h10.8c1.3,0,2.3,1,2.3,2.3v10.8c0,1.3-1,2.3-2.3,2.3H91.8c-1.3,0-2.3-1-2.3-2.3V102
	C89.5,100.7,90.5,99.7,91.8,99.7z"/>
<path class="st0" d="M67.5,99.7h10.8c1.3,0,2.3,1,2.3,2.3v10.8c0,1.3-1,2.3-2.3,2.3H67.5c-1.3,0-2.3-1-2.3-2.3V102
	C65.2,100.7,66.2,99.7,67.5,99.7z"/>
<path class="st0" d="M116,99.7h10.8c1.3,0,2.3,1,2.3,2.3v10.8c0,1.3-1,2.3-2.3,2.3H116c-1.3,0-2.3-1-2.3-2.3V102
	C113.7,100.7,114.7,99.7,116,99.7z"/>
<path class="st0" d="M140.2,99.7h10.9c1.3,0,2.3,1,2.3,2.3v10.8c0,1.3-1,2.3-2.3,2.3h-10.9c-1.3,0-2.3-1-2.3-2.3V102
	C138,100.7,139,99.7,140.2,99.7z"/>
<path class="st0" d="M67.5,123.4h10.8c1.3,0,2.3,1,2.3,2.3v10.9c0,1.3-1,2.3-2.3,2.3H67.5c-1.3,0-2.3-1-2.3-2.3v-10.9
	C65.2,124.4,66.2,123.4,67.5,123.4z"/>
<path class="st0" d="M91.8,123.4h10.8c1.3,0,2.3,1,2.3,2.3v10.9c0,1.3-1,2.3-2.3,2.3H91.8c-1.3,0-2.3-1-2.3-2.3v-10.9
	C89.5,124.4,90.5,123.4,91.8,123.4z"/>
<path class="st0" d="M116,123.4h10.8c1.3,0,2.3,1,2.3,2.3v10.9c0,1.3-1,2.3-2.3,2.3H116c-1.3,0-2.3-1-2.3-2.3v-10.9
	C113.7,124.4,114.7,123.4,116,123.4z"/>
<path class="st0" d="M116,147.2h10.8c1.3,0,2.3,1,2.3,2.3v10.9c0,1.3-1,2.3-2.3,2.3H116c-1.3,0-2.3-1-2.3-2.3v-10.9
	C113.7,148.2,114.7,147.2,116,147.2z"/>
<path class="st0" d="M140.2,123.4h10.9c1.3,0,2.3,1,2.3,2.3v10.9c0,1.3-1,2.3-2.3,2.3h-10.9c-1.3,0-2.3-1-2.3-2.3v-10.9
	C138,124.4,139,123.4,140.2,123.4z"/>
<path class="st0" d="M67.5,147.2h10.8c1.3,0,2.3,1,2.3,2.3v10.9c0,1.3-1,2.3-2.3,2.3H67.5c-1.3,0-2.3-1-2.3-2.3v-10.9
	C65.2,148.2,66.2,147.2,67.5,147.2z"/>
<path class="st0" d="M43.2,123.4H54c1.3,0,2.3,1,2.3,2.3v10.9c0,1.3-1,2.3-2.3,2.3H43.2c-1.3,0-2.3-1-2.3-2.3v-10.9
	C41,124.4,42,123.4,43.2,123.4z"/>
<path class="st0" d="M43.2,147.2H54c1.3,0,2.3,1,2.3,2.3v10.9c0,1.3-1,2.3-2.3,2.3H43.2c-1.3,0-2.3-1-2.3-2.3v-10.9
	C41,148.2,42,147.2,43.2,147.2z"/>
<path class="st3" d="M164,50.4H44.3c-3.5,0-6.4,2.9-6.4,6.4v30.7h132.5V56.7C170.4,53.2,167.6,50.3,164,50.4
	C164,50.3,164,50.3,164,50.4z"/>
<path class="st4" d="M96.6,99.7h10.8c1.3,0,2.3,1,2.3,2.3v10.8c0,1.3-1,2.3-2.3,2.3H96.6c-1.3,0-2.3-1-2.3-2.3V102
	C94.3,100.7,95.3,99.7,96.6,99.7z"/>
<path class="st4" d="M72.3,99.7h10.8c1.3,0,2.3,1,2.3,2.3v10.8c0,1.3-1,2.3-2.3,2.3H72.3c-1.3,0-2.3-1-2.3-2.3V102
	C70.1,100.7,71.1,99.7,72.3,99.7z"/>
<path class="st4" d="M120.8,99.7h10.9c1.3,0,2.3,1,2.3,2.3v10.8c0,1.3-1,2.3-2.3,2.3h-10.9c-1.3,0-2.3-1-2.3-2.3V102
	C118.6,100.7,119.6,99.7,120.8,99.7z"/>
<path class="st3" d="M145.1,99.7H156c1.3,0,2.3,1,2.3,2.3v10.8c0,1.3-1,2.3-2.3,2.3h-10.9c-1.3,0-2.3-1-2.3-2.3V102
	C142.8,100.7,143.8,99.7,145.1,99.7z"/>
<path class="st4" d="M72.3,123.4h10.8c1.3,0,2.3,1,2.3,2.3v10.9c0,1.3-1,2.3-2.3,2.3H72.3c-1.3,0-2.3-1-2.3-2.3v-10.9
	C70.1,124.4,71.1,123.4,72.3,123.4z"/>
<path class="st4" d="M96.6,123.4h10.8c1.3,0,2.3,1,2.3,2.3v10.9c0,1.3-1,2.3-2.3,2.3H96.6c-1.3,0-2.3-1-2.3-2.3v-10.9
	C94.3,124.4,95.3,123.4,96.6,123.4z"/>
<path class="st4" d="M120.8,123.4h10.9c1.3,0,2.3,1,2.3,2.3v10.9c0,1.3-1,2.3-2.3,2.3h-10.9c-1.3,0-2.3-1-2.3-2.3v-10.9
	C118.6,124.4,119.6,123.4,120.8,123.4z"/>
<path class="st4" d="M120.8,147.2h10.9c1.3,0,2.3,1,2.3,2.3v10.9c0,1.3-1,2.3-2.3,2.3h-10.9c-1.3,0-2.3-1-2.3-2.3v-10.9
	C118.6,148.2,119.6,147.2,120.8,147.2z"/>
<path class="st3" d="M145.1,123.4H156c1.3,0,2.3,1,2.3,2.3v10.9c0,1.3-1,2.3-2.3,2.3h-10.9c-1.3,0-2.3-1-2.3-2.3v-10.9
	C142.8,124.4,143.8,123.4,145.1,123.4z"/>
<path class="st4" d="M72.3,147.2h10.8c1.3,0,2.3,1,2.3,2.3v10.9c0,1.3-1,2.3-2.3,2.3H72.3c-1.3,0-2.3-1-2.3-2.3v-10.9
	C70.1,148.2,71.1,147.2,72.3,147.2z"/>
<path class="st4" d="M48.1,123.4h10.8c1.3,0,2.3,1,2.3,2.3v10.9c0,1.3-1,2.3-2.3,2.3H48.1c-1.3,0-2.3-1-2.3-2.3v-10.9
	C45.8,124.4,46.8,123.4,48.1,123.4z"/>
<path class="st4" d="M48.1,147.2h10.8c1.3,0,2.3,1,2.3,2.3v10.9c0,1.3-1,2.3-2.3,2.3H48.1c-1.3,0-2.3-1-2.3-2.3v-10.9
	C45.8,148.2,46.8,147.2,48.1,147.2z"/>
<path class="st4" d="M96.6,147.2h10.8c1.3,0,2.3,1,2.3,2.3v10.9c0,1.3-1,2.3-2.3,2.3H96.6c-1.3,0-2.3-1-2.3-2.3v-10.9
	C94.3,148.2,95.3,147.2,96.6,147.2z"/>
<path class="st2" d="M164.6,90H32.1c-1.4,0-2.5-1.1-2.5-2.5l0,0V56.7c0-4.9,4-8.9,8.9-8.9h119.8c4.9,0,8.9,4,8.9,8.9v30.7
	C167.1,88.9,166,90,164.6,90L164.6,90z M34.6,85h127.5V56.7c0-2.1-1.7-3.9-3.9-3.9H38.5c-2.1,0-3.9,1.7-3.9,3.9V85z"/>
<path class="st2" d="M102.6,117.6H91.8c-2.6,0-4.8-2.1-4.8-4.8V102c0-2.7,2.1-4.8,4.8-4.8l0,0h10.8c2.7,0,4.8,2.1,4.8,4.8l0,0v10.8
	C107.4,115.5,105.2,117.6,102.6,117.6z M92,112.6h10.4v-10.4H92V112.6z"/>
<path class="st2" d="M78.3,117.6H67.5c-2.6,0-4.8-2.1-4.8-4.8V102c0-2.6,2.2-4.8,4.8-4.8h10.8c2.7,0,4.8,2.1,4.8,4.8l0,0v10.8
	C83.1,115.5,81,117.6,78.3,117.6z M67.7,112.6h10.4v-10.4H67.7V112.6z"/>
<path class="st2" d="M126.8,117.6H116c-2.6,0-4.8-2.1-4.8-4.8V102c0-2.7,2.1-4.8,4.8-4.8l0,0h10.8c2.6,0,4.8,2.2,4.8,4.8v10.8
	C131.6,115.5,129.5,117.6,126.8,117.6z M116.2,112.6h10.4v-10.4h-10.4V112.6z"/>
<path class="st2" d="M151.1,117.6h-10.9c-2.6,0-4.8-2.1-4.8-4.8V102c0-2.7,2.1-4.8,4.8-4.8l0,0h10.9c2.6,0,4.8,2.2,4.8,4.8v10.8
	C155.9,115.5,153.7,117.6,151.1,117.6z M140.5,112.6h10.4v-10.4h-10.4V112.6z M151.1,102.2L151.1,102.2z"/>
<path class="st2" d="M78.3,141.4H67.5c-2.6,0-4.8-2.2-4.8-4.8v-10.9c0-2.6,2.2-4.8,4.8-4.8h10.8c2.7,0,4.8,2.1,4.8,4.8l0,0v10.9
	C83.2,139.2,81,141.4,78.3,141.4L78.3,141.4z M67.7,136.4h10.4V126H67.7V136.4z"/>
<path class="st2" d="M102.6,141.4H91.8c-2.7,0-4.8-2.1-4.8-4.8l0,0v-10.9c0-2.7,2.1-4.8,4.8-4.8l0,0h10.8c2.7,0,4.8,2.1,4.8,4.8l0,0
	v10.9C107.4,139.2,105.3,141.4,102.6,141.4L102.6,141.4z M92,136.4h10.4V126H92V136.4z"/>
<path class="st2" d="M126.8,141.4H116c-2.7,0-4.8-2.1-4.8-4.8l0,0v-10.9c0-2.7,2.1-4.8,4.8-4.8l0,0h10.8c2.6,0,4.8,2.2,4.8,4.8v10.9
	C131.6,139.2,129.5,141.4,126.8,141.4z M116.2,136.4h10.4V126h-10.4V136.4z"/>
<path class="st2" d="M126.8,165.1H116c-2.7,0-4.8-2.1-4.8-4.8l0,0v-10.9c0-2.6,2.2-4.8,4.8-4.8h10.8c2.6,0,4.8,2.1,4.8,4.8v10.9
	C131.6,162.9,129.5,165.1,126.8,165.1z M116.2,160.1h10.4v-10.4h-10.4V160.1z"/>
<path class="st2" d="M151.1,141.4h-10.9c-2.7,0-4.8-2.1-4.8-4.8l0,0v-10.9c0-2.7,2.1-4.8,4.8-4.8l0,0h10.9c2.6,0,4.8,2.2,4.8,4.8
	v10.9C155.9,139.2,153.7,141.4,151.1,141.4z M140.5,136.4h10.4V126h-10.4V136.4z"/>
<path class="st2" d="M78.3,165.1H67.5c-2.6,0-4.8-2.2-4.8-4.8v-10.9c0-2.6,2.2-4.8,4.8-4.8h10.8c2.6,0,4.8,2.1,4.8,4.8v10.9
	C83.2,163,81,165.1,78.3,165.1L78.3,165.1z M67.7,160.1h10.4v-10.4H67.7V160.1z"/>
<path class="st2" d="M54.1,141.4H43.2c-2.6,0-4.8-2.2-4.8-4.8v-10.9c0-2.6,2.2-4.8,4.8-4.8H54c2.7,0,4.8,2.1,4.8,4.8l0,0v10.9
	C58.9,139.2,56.8,141.4,54.1,141.4L54.1,141.4z M43.5,136.4h10.4V126H43.5V136.4z"/>
<path class="st2" d="M54.1,165.1H43.2c-2.6,0-4.8-2.2-4.8-4.8v-10.9c0-2.6,2.2-4.8,4.8-4.8H54c2.6,0,4.8,2.1,4.8,4.8v10.9
	C58.9,163,56.8,165.1,54.1,165.1L54.1,165.1z M43.5,160.1h10.4v-10.4H43.5V160.1z"/>
<path class="st0" d="M59.3,32.8c-3.7,0-6.7,3-6.7,6.7v21.7c0,3.7,3,6.7,6.7,6.7s6.7-3,6.7-6.7V39.5C66.1,35.8,63,32.8,59.3,32.8
	L59.3,32.8z"/>
<path class="st5" d="M64.2,32.8c-3.7,0-6.7,3-6.7,6.7v21.7c0,3.7,3,6.7,6.7,6.7c3.7,0,6.7-3,6.7-6.7V39.5
	C70.9,35.8,67.9,32.8,64.2,32.8L64.2,32.8z"/>
<path class="st2" d="M59.3,70.4c-5.1,0-9.2-4.1-9.2-9.2V39.5c0-5.1,4.1-9.2,9.2-9.2s9.2,4.1,9.2,9.2v21.7
	C68.6,66.3,64.4,70.4,59.3,70.4L59.3,70.4z M59.3,35.3c-2.3,0-4.2,1.9-4.2,4.2v21.7c0,2.3,1.9,4.2,4.2,4.2s4.2-1.9,4.2-4.2V39.5
	C63.5,37.2,61.7,35.3,59.3,35.3z"/>
<path class="st0" d="M128.9,32.8c-3.7,0-6.7,3-6.7,6.7l0,0v21.7c0,3.7,3,6.7,6.7,6.7s6.7-3,6.7-6.7l0,0V39.5
	C135.6,35.8,132.6,32.8,128.9,32.8z"/>
<path class="st5" d="M133.8,32.8c-3.7,0-6.7,3-6.7,6.7l0,0v21.7c0,3.7,3,6.7,6.7,6.7s6.7-3,6.7-6.7V39.5
	C140.5,35.8,137.5,32.8,133.8,32.8z"/>
<path class="st2" d="M128.9,70.4c-5.1,0-9.2-4.1-9.2-9.2V39.5c0-5.1,4.1-9.2,9.2-9.2c5.1,0,9.2,4.1,9.2,9.2v21.7
	C138.2,66.3,134,70.4,128.9,70.4L128.9,70.4z M128.9,35.3c-2.3,0-4.2,1.9-4.2,4.2v21.7c0,2.3,1.9,4.2,4.2,4.2c2.3,0,4.2-1.9,4.2-4.2
	V39.5C133.1,37.2,131.2,35.3,128.9,35.3L128.9,35.3z"/>
<path class="st2" d="M102.6,165.1H91.8c-2.7,0-4.8-2.1-4.8-4.8l0,0v-10.9c0-2.6,2.2-4.8,4.8-4.8h10.8c2.6,0,4.8,2.1,4.8,4.8v10.9
	C107.4,163,105.3,165.1,102.6,165.1L102.6,165.1z M92,160.1h10.4v-10.4H92V160.1z"/>
</svg>
