<?xml version="1.0" encoding="utf-8"?>
<!-- Generator: Adobe Illustrator 25.3.1, SVG Export Plug-In . SVG Version: 6.00 Build 0)  -->
<svg version="1.1" id="camera_fotografica" xmlns="http://www.w3.org/2000/svg" xmlns:xlink="http://www.w3.org/1999/xlink" x="0px"
	 y="0px" viewBox="0 0 324.8 324.8" style="enable-background:new 0 0 324.8 324.8;" xml:space="preserve">
<style type="text/css">
	.st0{fill:#FFFFFF;}
	.st1{fill:#535C89;}
	.st2{fill:#434C6D;}
	.st3{fill:#B5DCFF;}
	.st4{fill:#C7D4E0;}
	.st5{fill:#D6E3F4;}
	.st6{fill:#BBD6F2;}
	.st7{fill:#A5CCEF;}
	.st8{fill:#59316D;}
</style>
<g id="foto">
	<g id="Grupo_10328">
		<g id="Caminho_17952">
			<path class="st0" d="M230.1,74.7L209.9,82l-1.3-3.6c-3.4-9.5-13.9-14.4-23.4-11l-51.3,18.7c-9.4,3.5-14.3,14-10.9,23.4l1.3,3.6
				L80.8,129c2.2-1.3,3.1-4,2.3-6.4l-2.1-5.7c-1-2.8-4.1-4.2-6.8-3.2l-19.4,7.1c-2.8,1-4.2,4.1-3.2,6.8c0,0,0,0,0,0l2.1,5.7
				c0.6,1.7,2,2.9,3.7,3.4c0.7,0.2,1.4,0.2,2.2,0.1l-5.1,1.9c-6.1,2.2-9.2,8.9-7,15l36,99c2.2,6,8.9,9.2,15,7l86.6-31.5
				c19.4,2.4,38.8-4.7,52.1-19l36.9-13.4c6.1-2.2,9.2-8.9,7-15l-36-99C242.8,75.6,236.1,72.5,230.1,74.7z"/>
		</g>
		<g id="Grupo_10324">
			<g id="Caminho_17953">
				<path class="st1" d="M215.3,80.2l-1.3-3.7c-3.4-9.5-13.9-14.4-23.4-11l-51.3,18.7c-9.5,3.5-14.3,14-10.9,23.4l1.3,3.7
					L215.3,80.2z"/>
			</g>
			<g id="Caminho_17954">
				<path class="st2" d="M161.7,76l-22.4,8.2c-9.5,3.5-14.3,14-10.9,23.4l1.3,3.7l22.4-8.2l-1.3-3.7C147.3,90,152.2,79.5,161.7,76z"
					/>
			</g>
			<g id="Caminho_17955">
				<path class="st2" d="M110.2,145.3l31.3,86.2c2.2,6.1-0.9,12.8-7,15l145-52.7c6-2.2,9.2-8.9,7-15l-31.4-86.2L110.2,145.3z"/>
			</g>
			<g id="Caminho_17956">
				<path class="st3" d="M235.5,72.7l-145,52.7c6.1-2.2,12.8,0.9,15,7l5,13.7l145-52.8l-5-13.7C248.2,73.7,241.5,70.5,235.5,72.7z"
					/>
			</g>
			<g id="Caminho_17957">
				<path class="st4" d="M235.5,72.7l-145,52.7c6.1-2.2,12.8,0.9,15,7l5,13.7l145-52.8l-5-13.7C248.2,73.7,241.5,70.5,235.5,72.7z"
					/>
			</g>
			<g id="Caminho_17958">
				<path class="st1" d="M79.6,111.7l-19.4,7.1c-2.8,1-4.2,4.1-3.2,6.8l2.1,5.7c1,2.8,4.1,4.2,6.8,3.2l19.4-7.1
					c2.8-1,4.2-4.1,3.2-6.8l-2.1-5.7C85.4,112.1,82.4,110.7,79.6,111.7z"/>
			</g>
			<g id="Caminho_17959">
				<path class="st2" d="M73.8,126l-2.1-5.7c-1-2.8,0.4-5.8,3.2-6.8l-14.7,5.3c-2.7,1-4.2,4.1-3.2,6.8l2.1,5.7
					c1,2.8,4.1,4.2,6.8,3.2l14.7-5.4C77.8,130.2,74.8,128.7,73.8,126z"/>
			</g>
			<g id="Caminho_17960">
				<path class="st1" d="M57.5,164.5l31.3,86.2c2.2,6.1,8.9,9.2,15,7l31.4-11.4c6.1-2.2,9.2-8.9,7-15L111,145.1L57.5,164.5z"/>
			</g>
			<g id="Caminho_17961">
				<path class="st2" d="M108.8,243.4l-31.3-86.2l-20,7.3l31.4,86.2c2.2,6.1,8.9,9.2,15,7l19.9-7.3
					C117.8,252.6,111.1,249.5,108.8,243.4z"/>
			</g>
			<g id="Caminho_17962">
				<path class="st5" d="M91.3,125.2l-31.4,11.4c-6,2.2-9.2,8.9-7,15l5,13.7l53.5-19.4l-5-13.7C104.1,126.1,97.4,123,91.3,125.2z"/>
			</g>
			<g id="Caminho_17963">
				<path class="st4" d="M79.8,129.3l-20,7.3c-6.1,2.2-9.2,8.9-7,15l5,13.7l20-7.3l-5-13.7C70.7,138.3,73.8,131.6,79.8,129.3z"/>
			</g>
			<g id="Grupo_10321">
				<g id="Grupo_10320">
					<g id="Caminho_17964">
						<path class="st0" d="M213.1,225.1c-31.8,11.6-66.9-4.8-78.5-36.6s4.8-66.9,36.6-78.5c31.8-11.6,66.9,4.8,78.5,36.6
							C261.2,178.3,244.8,213.5,213.1,225.1z"/>
					</g>
				</g>
			</g>
			<g id="Grupo_10323">
				<g id="Grupo_10322">
					<g id="Caminho_17965">
						<path class="st1" d="M218.8,223c-31.8,11.6-66.9-4.8-78.5-36.6s4.8-66.9,36.6-78.5c31.8-11.6,66.9,4.8,78.5,36.6
							C267,176.3,250.6,211.4,218.8,223z"/>
					</g>
				</g>
			</g>
			<g id="Elipse_671">
				<circle class="st5" cx="197.9" cy="165.4" r="48"/>
			</g>
			<g id="Elipse_672">
				<circle class="st6" cx="197.9" cy="165.4" r="29.4"/>
			</g>
			<g id="Elipse_673">
				<circle class="st7" cx="197.9" cy="165.4" r="9"/>
			</g>
		</g>
		<g id="Grupo_10327">
			<g id="Caminho_17966">
				<path class="st8" d="M123.7,114.5l-1.7-4.6c-3.6-10,1.5-21,11.5-24.7l51.3-18.7c10-3.6,21,1.6,24.7,11.6l1.7,4.6l-0.9,0.3
					L123.7,114.5z M191.3,67.4c-2,0-3.9,0.3-5.8,1l-51.3,18.7c-8.9,3.3-13.5,13.2-10.3,22.2l1,2.7l83.7-30.5l-1-2.8
					C205.1,71.9,198.6,67.4,191.3,67.4L191.3,67.4z"/>
			</g>
			<g id="Caminho_17967">
				<path class="st8" d="M237.6,210.1l-0.7-1.9l36.9-13.4c5.5-2,8.4-8.2,6.4-13.8l-36-99c-2.1-5.6-8.2-8.4-13.8-6.4l-145,52.8
					l-0.7-1.9l145-52.8c6.6-2.4,13.9,1,16.3,7.6l36,99c2.4,6.6-1,13.9-7.6,16.3L237.6,210.1z"/>
			</g>
			<g id="Linha_253">
				
					<rect x="127.4" y="237.3" transform="matrix(0.9398 -0.3419 0.3419 0.9398 -72.005 68.072)" class="st8" width="59.5" height="2"/>
			</g>
			<g id="Caminho_17968">
				<path class="st8" d="M58.7,137.8c-2.7,0-5.1-1.7-6-4.2l-2.1-5.7c-1.2-3.3,0.5-6.9,3.8-8.1l19.4-7.1c3.3-1.2,6.9,0.5,8.2,3.8
					c0,0,0,0,0,0l2,5.7c1.2,3.3-0.5,6.9-3.8,8.1l-19.4,7.1C60.1,137.7,59.4,137.8,58.7,137.8z M74.5,114.6l-19.4,7.1
					c-2.2,0.8-3.4,3.3-2.6,5.6l2.1,5.7c0.8,2.2,3.3,3.4,5.5,2.6l19.4-7.1c2.2-0.8,3.4-3.3,2.6-5.6l-2.1-5.7
					C79.2,115,76.8,113.8,74.5,114.6z"/>
			</g>
			<g id="Caminho_17969">
				<path class="st8" d="M94.6,261.3c-5.4,0-10.1-3.3-12-8.4l-36-99c-2.4-6.6,1-13.9,7.6-16.3l31.4-11.5c6.6-2.4,13.9,1,16.3,7.6
					l0,0l36,99c2.4,6.6-1,13.9-7.6,16.3l-31.4,11.5C97.5,261.1,96,261.3,94.6,261.3z M89.9,127.4c-1.2,0-2.5,0.2-3.6,0.6l-31.4,11.4
					c-5.5,2-8.4,8.2-6.4,13.8l36,99c2,5.5,8.2,8.4,13.8,6.4l31.4-11.4c5.5-2.1,8.4-8.2,6.4-13.7l-36-99
					C98.4,130.3,94.4,127.4,89.9,127.4z"/>
			</g>
			<g id="Grupo_10326">
				<g id="Grupo_10325">
					<g id="Caminho_17970">
						<path class="st8" d="M192.6,229.6c-34.4,0-62.2-27.8-62.3-62.1s27.8-62.2,62.1-62.3c34.4,0,62.2,27.8,62.3,62.1
							c0,26.2-16.4,49.6-41,58.5l0,0C207,228.3,199.8,229.6,192.6,229.6z M192.4,107.1c-33.3,0.1-60.2,27.1-60.1,60.4
							c0.1,33.3,27.1,60.2,60.4,60.1c7,0,13.9-1.2,20.4-3.6l0,0c31.3-11.4,47.4-45.9,36-77.2C240.5,123,217.8,107.1,192.4,107.1
							L192.4,107.1z"/>
					</g>
				</g>
			</g>
			<g id="Elipse_674">
				<path class="st8" d="M192.4,216.4c-27.1-0.1-48.9-22.1-48.8-49.2c0.1-20.5,12.9-38.8,32.1-45.8l0,0c25.4-9.3,53.6,3.7,62.9,29.1
					c9.3,25.4-3.7,53.6-29.1,62.9C204,215.4,198.2,216.4,192.4,216.4L192.4,216.4z M192.5,120.4c-5.5,0-10.9,1-16.1,2.9l0,0
					c-24.2,8.9-36.6,35.7-27.7,59.8c8.9,24.2,35.7,36.6,59.8,27.7c24.2-8.9,36.6-35.7,27.7-59.8C229.5,132.5,212,120.4,192.5,120.4z
					"/>
			</g>
		</g>
	</g>
</g>
</svg>
