<?xml version="1.0" encoding="utf-8"?>
<!-- Generator: Adobe Illustrator 25.3.1, SVG Export Plug-In . SVG Version: 6.00 Build 0)  -->
<svg version="1.1" id="destino" xmlns="http://www.w3.org/2000/svg" xmlns:xlink="http://www.w3.org/1999/xlink" x="0px" y="0px"
	 viewBox="0 0 400 400" style="enable-background:new 0 0 400 400;" xml:space="preserve">
<style type="text/css">
	.st0{fill:#FFFFFF;}
	.st1{fill:#E8E8E8;}
	.st2{fill:#59316D;}
	.st3{opacity:0.55;}
	.st4{fill:#DBDBDB;}
	.st5{fill:#9CE5CB;}
	.st6{fill:#A2C8F2;}
	.st7{opacity:0.3;}
	.st8{fill:#9CADB7;}
	.st9{fill:#FFDEA9;}
</style>
<path class="st0" d="M67.2,86c-9.7,0-17.6,6.6-17.6,14.7v207.1c0-0.4,0-0.9,0.1-1.3v-0.2c0-0.4,0.1-0.8,0.2-1.2l0.1-0.2
	c0.1-0.4,0.2-0.8,0.3-1.1c0,0,0,0,0-0.1c0.1-0.4,0.3-0.8,0.5-1.1l0.1-0.2c0.2-0.4,0.4-0.7,0.6-1l0.1-0.2c0.2-0.3,0.4-0.6,0.6-0.9
	l0.1-0.1c0.2-0.3,0.5-0.6,0.8-1l0.2-0.2c0.3-0.3,0.6-0.6,0.9-0.9l0.1-0.1c3.1-2.7,7.1-4.3,11.2-4.6c0.5,0,1.1-0.1,1.6-0.1
	c3.7-0.1,7.4,0.9,10.6,2.9V88.9C74.5,86.9,70.9,86,67.2,86z"/>
<path class="st0" d="M328.1,143.4v169.5c0,5.3-4.3,9.5-9.5,9.5c0,0,0,0,0,0H67.2c-0.5,0-1.1,0-1.6-0.1c-8.9-0.7-15.9-7-15.9-14.6
	s7-13.9,15.9-14.6c0.5,0,1.1-0.1,1.6-0.1c3.7,0,7.3,1,10.5,2.9V96.1h198.8L328.1,143.4z"/>
<path class="st0" d="M71.7,132.1l243.9-34.7c8.8-1.3,17,4.9,18.3,13.7l27.4,192.5c1.3,8.8-4.9,17-13.7,18.3l-243.9,34.7
	c-8.8,1.3-17-4.9-18.3-13.7L58,150.4C56.7,141.5,62.9,133.3,71.7,132.1z"/>
<path class="st1" d="M83.1,132.1L327,97.4c8.8-1.3,17,4.9,18.3,13.7l27.4,192.5c1.3,8.8-4.9,17-13.7,18.3L115,356.6
	c-8.8,1.3-17-4.9-18.3-13.7L69.3,150.4C68.1,141.5,74.2,133.3,83.1,132.1z"/>
<path class="st2" d="M101.4,359.8c-9.6,0-17.6-7-19-16.5L55,150.8c-1.5-10.5,5.8-20.2,16.3-21.7l243.9-34.7
	c10.5-1.5,20.2,5.8,21.7,16.3l27.4,192.5c1.5,10.5-5.8,20.2-16.3,21.7c0,0,0,0,0,0l-243.9,34.7C103.2,359.7,102.3,359.8,101.4,359.8
	z M317.9,100.2c-0.6,0-1.2,0-1.9,0.1L72.1,135.1C64.9,136.1,60,142.8,61,150l27.4,192.5c1,7.2,7.7,12.2,14.9,11.2l243.9-34.7
	c7.2-1,12.2-7.7,11.2-14.9c0,0,0,0,0,0l-27.4-192.5C330,105,324.5,100.2,317.9,100.2z"/>
<path class="st0" d="M75.8,88.9V296c-3.2-1.9-6.8-2.9-10.5-2.9c-0.5,0-1.1,0-1.6,0.1c-8.9,0.7-15.9,7-15.9,14.6V100.6
	c0-8.1,7.9-14.6,17.6-14.6C69,86,72.6,86.9,75.8,88.9z"/>
<g class="st3">
	<path class="st0" d="M75.8,88.9v2.5c-1.3-0.3-2.7-0.4-4-0.4c-9.7,0-17.6,6.6-17.6,14.7v190.7c-4,2.7-6.5,6.8-6.5,11.4V100.6
		c0-8.1,7.9-14.6,17.6-14.6C69,86,72.6,86.9,75.8,88.9z"/>
</g>
<path class="st4" d="M87.2,88.9V296c-3.2-1.9-6.8-2.9-10.5-2.9c-0.6,0-1.1,0-1.6,0.1c-8.9,0.7-15.9,7-15.9,14.6V100.6
	C59.1,92.5,67,86,76.7,86C80.4,86,84,86.9,87.2,88.9z"/>
<g class="st3">
	<path class="st0" d="M87.2,88.9v2.5c-1.3-0.3-2.7-0.4-4-0.4c-9.7,0-17.6,6.6-17.6,14.7v190.7c-4,2.5-6.4,6.8-6.5,11.4V100.6
		C59.1,92.5,67,86,76.7,86C80.4,86,84,86.9,87.2,88.9z"/>
</g>
<path class="st1" d="M337.6,143.4v169.5c0,5.3-4.3,9.5-9.5,9.5c0,0,0,0,0,0H76.7c-0.6,0-1.1,0-1.6-0.1c-8.9-0.7-15.9-7-15.9-14.6
	s7-13.9,15.9-14.6c0.5,0,1.1-0.1,1.6-0.1c3.7,0,7.3,1,10.5,2.9V96.1H286L337.6,143.4z"/>
<polygon class="st5" points="116.1,223.1 142.4,223.1 172.1,242.2 187.2,257.6 126.1,283.2 "/>
<polygon class="st5" points="271.2,170.1 294.1,143.4 337.6,143.4 336.9,217.4 "/>
<path class="st6" d="M258.7,322.4h-22.3l-7.3-8.8c-8.2-9.9-12.7-22.3-12.7-35.1c0-12.9-6.6-25-17.5-31.9l-39.4-25
	c-15.9-10-25.5-27.5-25.5-46.3V96.1H151v79.1c0,12.9,6.6,25,17.5,31.9l39.4,25c15.9,10,25.5,27.5,25.5,46.3c0,8.8,3.1,17.4,8.8,24.2
	L258.7,322.4z"/>
<g class="st7">
	<path class="st2" d="M337.4,156.8h-32.7c-6.7,0-12.1-5.4-12.1-12.1v0v-2.6c1.7,0.8,3.5,1.3,5.4,1.2h39L337.4,156.8z"/>
	<path class="st2" d="M338,157.3h-33.3c-6.9,0-12.6-5.6-12.6-12.6v-3.4l0.7,0.4c1.6,0.8,3.4,1.2,5.1,1.2h39.5L338,157.3z
		 M293.2,142.9v1.8c0,6.4,5.2,11.6,11.6,11.6H337l-0.4-12.4H298C296.3,143.9,294.7,143.6,293.2,142.9L293.2,142.9z"/>
</g>
<polygon class="st0" points="304.9,322.4 293.8,322.4 293.8,266.7 182.4,173.3 176.2,96.6 187.2,95.7 193,167.8 304.9,261.5 "/>
<polygon class="st0" points="132.9,322.4 121.8,322.4 121.8,280.6 200.4,245.5 236.7,210.8 244.3,218.8 206.7,254.8 132.9,287.8 "/>
<polygon class="st5" points="238.1,96.1 243.7,130.3 268.2,128.6 265.7,96.1 "/>
<polygon class="st0" points="121.9,285.1 106.6,193.2 87.2,193.2 87.2,182.1 116,182.1 132.8,283.3 "/>
<polygon class="st8" points="121.8,96.1 112.3,149.4 87.2,164 87.2,96.1 "/>
<polygon class="st0" points="112.5,193.1 110.1,182.3 185.6,165.4 225.9,140.7 218.5,97.1 229.4,95.2 238.1,146.2 189.8,175.8 "/>
<polygon class="st0" points="336.1,220.1 314.9,214.3 228.6,147.8 235.3,139 320,204.2 339,209.5 "/>
<rect x="299.4" y="288.7" class="st0" width="38.2" height="11.1"/>
<polygon class="st8" points="253.3,249.9 283.8,271.1 283.8,299.8 270.2,301.3 244.3,259.7 "/>
<polygon class="st8" points="219.1,167.3 232,158.5 268.2,187.4 258.7,199.2 "/>
<polygon class="st8" points="139.8,293.2 139.8,315.8 201.9,302.5 198.1,267.8 "/>
<g class="st7">
	<path class="st2" d="M99.9,96.1v226.3H76.7c-0.6,0-1.1,0-1.6-0.1c-8.9-0.7-15.9-7-15.9-14.6s7-13.9,15.9-14.6
		c0.5,0,1.1-0.1,1.6-0.1c3.7,0,7.3,1,10.5,2.9V96.1H99.9z"/>
</g>
<g class="st7">
	<path class="st2" d="M96.4,333.5c2.4,0,210.2-4.4,210.2-4.4l8.4-5.5H92.1L96.4,333.5z"/>
</g>
<path class="st2" d="M49.6,310.8c-1.7,0-3-1.3-3-3V100.6c0.1-5,2.3-9.6,6.2-12.7c4.1-3.3,9.1-5.1,14.4-5c4.3,0,8.5,1.1,12.1,3.4
	c0.9,0.5,1.4,1.5,1.4,2.6V296c0,1.7-1.3,3-3,3c-0.6,0-1.2-0.2-1.7-0.5c-2.7-1.6-5.8-2.5-8.9-2.5c-0.5,0-0.9,0-1.3,0.1l0,0
	c-7.4,0.6-13.2,5.6-13.2,11.6C52.7,309.4,51.4,310.8,49.6,310.8C49.7,310.8,49.7,310.8,49.6,310.8z M67.2,89
	c-8,0-14.5,5.2-14.5,11.7v194.6c3.6-3,8-4.8,12.7-5.1c0.6-0.1,1.2-0.1,1.9-0.1c2.5,0,5.1,0.4,7.5,1.2V90.6
	C72.4,89.5,69.8,89,67.2,89z"/>
<path class="st4" d="M328.1,143.4h-39.5c-6.7,0-12.1-5.4-12.1-12c0,0,0,0,0,0V96.1L328.1,143.4z"/>
<path class="st2" d="M328.1,146.4h-39.5c-8.3,0-15.1-6.8-15.1-15.1V96.1c0-1.7,1.3-3,3-3c0.8,0,1.5,0.3,2.1,0.8l51.6,47.3
	c1.2,1.1,1.3,3,0.2,4.2C329.8,146.1,329,146.4,328.1,146.4L328.1,146.4z M279.5,103v28.4c0,5,4,9,9,9h31.8L279.5,103z"/>
<path class="st2" d="M318.5,325.5H67.2c-0.7,0-1.3,0-1.9-0.1c-4.8-0.3-9.5-2.2-13.1-5.5c-6.7-5.8-7.5-15.9-1.7-22.6
	c0.5-0.6,1.1-1.2,1.7-1.7c3.6-3.2,8.3-5.1,13.1-5.5c0.6-0.1,1.2-0.1,1.9-0.1c2.5,0,5.1,0.4,7.5,1.2V96.1c0-1.7,1.3-3,3-3h198.8
	c0.7,0,1.5,0.3,2,0.8l51.6,47.3c0.6,0.6,1,1.4,1,2.2v169.5C331.1,319.8,325.5,325.4,318.5,325.5z M67.2,296.1c-0.5,0-0.9,0-1.3,0.1
	l0,0c-7.4,0.6-13.2,5.6-13.2,11.6s5.8,11,13.2,11.6l0,0c0.4,0,0.8,0,1.3,0h251.3c3.6,0,6.5-2.9,6.5-6.5V144.7l-49.8-45.6H80.7V296
	c0,1.7-1.3,3-3,3c-0.6,0-1.2-0.2-1.7-0.5C73.4,296.9,70.3,296.1,67.2,296.1z"/>
<path class="st0" d="M142.1,29.8c-25,0-45.2,20.2-45.3,45.2c0,18.2,24,52.1,37.1,69.1c3.5,4.5,10,5.4,14.5,1.9
	c0.7-0.5,1.4-1.2,1.9-1.9c13-17,37.1-50.9,37.1-69.1C187.4,50,167.1,29.8,142.1,29.8z M142.1,93.1c-10.6,0-19.1-8.6-19.1-19.1
	c0-10.6,8.6-19.1,19.1-19.1c10.6,0,19.1,8.6,19.1,19.1c0,0,0,0,0,0C161.2,84.5,152.7,93.1,142.1,93.1z"/>
<path class="st9" d="M151.6,29.8c-25,0-45.2,20.2-45.3,45.2c0,18.2,24,52.1,37.1,69.1c3.5,4.5,9.9,5.4,14.5,1.9
	c0.7-0.5,1.4-1.2,1.9-1.9c13-17,37.1-50.9,37.1-69.1C196.9,50,176.6,29.8,151.6,29.8z M151.6,93.1c-10.6,0-19.1-8.6-19.1-19.1
	c0-10.6,8.6-19.1,19.1-19.1c10.6,0,19.1,8.6,19.1,19.1c0,0,0,0,0,0C170.7,84.5,162.2,93.1,151.6,93.1z"/>
<path class="st2" d="M142.1,151.2c-4.1,0-8.1-1.9-10.6-5.2c-8.5-11-16.4-22.5-23.6-34.4c-9.3-15.8-14.1-28-14.1-36.6
	c0.4-26.7,22.3-48,49-47.6C169,27.8,190,48.9,190.4,75c0,8.5-4.7,20.8-14.1,36.6c-7.2,11.9-15.1,23.4-23.6,34.5
	C150.2,149.3,146.3,151.2,142.1,151.2z M142.1,32.8c-23.3,0-42.2,18.9-42.2,42.2c0,12.5,13.3,37,36.5,67.3c2.4,3.2,7,3.8,10.2,1.4
	c0.5-0.4,1-0.9,1.4-1.4c23.2-30.2,36.5-54.8,36.5-67.3C184.3,51.7,165.5,32.8,142.1,32.8z"/>
<path class="st2" d="M142.1,96.1c-12.2,0-22.1-9.9-22.1-22.1c0-12.2,9.9-22.1,22.1-22.1s22.1,9.9,22.1,22.1c0,0,0,0,0,0
	C164.2,86.2,154.4,96.1,142.1,96.1z M142.1,57.9c-8.9,0-16.1,7.2-16.1,16.1c0,8.9,7.2,16.1,16.1,16.1c8.9,0,16.1-7.2,16.1-16.1
	C158.2,65.1,151,57.9,142.1,57.9z"/>
</svg>
