<?xml version="1.0" encoding="utf-8"?>
<!-- Generator: Adobe Illustrator 25.3.1, SVG Export Plug-In . SVG Version: 6.00 Build 0)  -->
<svg version="1.1" id="email" xmlns="http://www.w3.org/2000/svg" xmlns:xlink="http://www.w3.org/1999/xlink" x="0px" y="0px"
	 viewBox="0 0 400 400" style="enable-background:new 0 0 400 400;" xml:space="preserve">
<style type="text/css">
	.st0{fill:#FFFFFF;}
	.st1{fill:#DDBF97;}
	.st2{fill:#59316D;}
	.st3{fill:#ECEFF1;}
	.st4{fill:#FFDEA9;}
</style>
<polygon class="st0" points="62.1,166.1 191.2,68.3 329.4,166.1 329.4,274.5 62.1,274.5 "/>
<polygon class="st1" points="74.1,166.1 203.2,68.3 341.4,166.1 341.4,274.5 74.1,274.5 "/>
<path class="st2" d="M329.4,278H62.1c-1.9,0-3.5-1.6-3.5-3.5V166.1c0-1.1,0.5-2.1,1.4-2.8l129-97.8c1.2-0.9,2.9-0.9,4.1-0.1
	l138.3,97.8c0.9,0.7,1.5,1.7,1.5,2.9v108.4C332.9,276.4,331.4,278,329.4,278z M65.6,271h260.3V167.9L191.2,72.6L65.6,167.9V271z"/>
<path class="st0" d="M282.1,68.3H109.4c-10.4,0-18.9,8.4-18.9,18.8l0,0v167.6H301V87.2C301,76.7,292.6,68.3,282.1,68.3L282.1,68.3z"
	/>
<path class="st3" d="M294.1,68.3H121.4c-10.4,0-18.9,8.4-18.9,18.8l0,0v167.6H313V87.2C313,76.7,304.6,68.3,294.1,68.3L294.1,68.3z"
	/>
<path class="st2" d="M301,258.3H90.6c-1.9,0-3.5-1.6-3.5-3.5V87.2c0-12.3,10-22.3,22.4-22.3h172.7c12.3,0,22.3,10,22.4,22.3v167.6
	C304.5,256.7,302.9,258.2,301,258.3z M94.1,251.3h203.4V87.2c0-8.5-6.9-15.3-15.4-15.4H109.4c-8.5,0-15.3,6.9-15.4,15.4L94.1,251.3z
	"/>
<path class="st2" d="M226,99.8c6.4,3.3,11.7,8.5,15.2,14.8c3.6,6.7,5.5,14.1,5.3,21.7c0,2.4-0.1,4.8-0.4,7.2
	c-1.1,8.9-3.8,15.8-8.2,20.8c-4.4,4.9-10.2,7.4-17.6,7.4c-6.4,0-11.3-1.9-14.7-5.6c-0.3-0.4-0.6-0.4-0.9,0c-1.9,1.8-4.1,3.2-6.6,4.1
	c-2.6,0.9-5.3,1.4-8,1.4c-4.3,0.2-8.5-1.2-11.9-3.8c-3.1-2.4-5.1-5.8-5.8-9.6c-0.3-1.6-0.4-3.2-0.4-4.8c0.1-2.3,0.2-4.6,0.6-6.9
	c0.5-3.9,1.4-7.6,2.7-11.3c2.6-8.3,10.4-13.9,19.1-13.9c4.4,0,7.9,1.4,10.4,4.1c0.2,0.3,0.4,0.4,0.6,0.3s0.3-0.2,0.3-0.5l0.3-2.2
	c0-0.9,0.7-1.5,1.6-1.5c0.1,0,0.1,0,0.2,0h9.5c1.1,0,1.6,0.6,1.5,1.8l-3.4,25.3c-0.1,0.9-0.2,1.8-0.1,2.7c-0.1,2.2,0.4,4.3,1.6,6.1
	c1,1.5,2.8,2.4,4.7,2.3c5.5,0,9.1-5.2,10.6-15.5c0.4-2.5,0.6-5,0.6-7.5c0-9.7-2.8-17.1-8.3-22.2s-13-7.6-22.3-7.6
	c-7.1-0.1-14.1,1.5-20.4,4.8c-6.1,3.2-11.3,8-15,13.8c-4.9,8.2-7.4,17.6-7.3,27.2c0,9.6,2.8,17.2,8.3,22.6
	c5.5,5.4,13.1,8.2,22.7,8.2c4,0,8.1-0.5,12-1.5c3.1-0.8,6.1-2.1,8.9-3.8c0.3-0.2,0.6-0.3,1-0.3c0.5-0.1,1,0.2,1.2,0.7l5.4,7.4
	c0.2,0.3,0.4,0.7,0.4,1.1c0,0.5-0.3,0.9-0.7,1.1c-4,2.8-8.4,4.9-13.1,6.1c-5.4,1.5-11,2.3-16.5,2.2c-7.8,0.1-15.5-1.7-22.3-5.3
	c-6.5-3.5-11.9-8.8-15.4-15.3c-3.7-6.7-5.6-14.5-5.6-23.4c0-2.3,0.1-4.6,0.4-6.8c0.9-9.6,4.3-18.8,9.7-26.8
	c5.2-7.6,12.3-13.8,20.5-18c8.2-4.3,17.4-6.5,26.7-6.4C211.7,94.5,219.4,96.2,226,99.8z M197,159.1c1.4-1.1,2.5-2.5,3.3-4.1
	c1.2-2.7,1.9-5.6,2.2-8.6c0.2-1.8,0.3-3.5,0.3-5.3c0-1,0-2-0.1-3c-0.1-1.6-0.9-3.1-2.1-4.1c-1.3-1.1-3-1.6-4.7-1.6
	c-1.8,0-3.5,0.5-5,1.6c-1.5,1-2.7,2.5-3.5,4.1c-0.9,1.7-1.6,4.7-2.2,9c-0.2,1.7-0.4,3.3-0.4,5c0,1,0.1,1.9,0.3,2.9
	c0.3,1.6,1.1,3.1,2.4,4.2c1.4,1.1,3.1,1.6,4.8,1.5C193.9,160.7,195.6,160.1,197,159.1z"/>
<polygon class="st0" points="211.7,240.4 329.4,314.7 329.4,166.1 "/>
<polygon class="st4" points="223.7,240.4 341.4,314.7 341.4,166.1 "/>
<path class="st2" d="M329.4,318.2c-0.7,0-1.3-0.2-1.9-0.5l-117.7-74.3c-1.6-1-2.1-3.2-1.1-4.8c0.3-0.5,0.7-0.8,1.1-1.1l117.7-74.3
	c1.6-1,3.8-0.5,4.8,1.1c0.4,0.6,0.5,1.2,0.5,1.9v148.5C332.9,316.6,331.4,318.2,329.4,318.2C329.5,318.2,329.4,318.2,329.4,318.2z
	 M218.3,240.4L326,308.3V172.5L218.3,240.4z"/>
<polygon class="st0" points="179.8,240.4 62.1,166.1 62.1,314.7 "/>
<polygon class="st4" points="191.8,240.4 74.1,166.1 74.1,314.7 "/>
<path class="st2" d="M62.1,318.2c-1.9,0-3.5-1.6-3.5-3.5l0,0V166.1c0-1.9,1.5-3.5,3.5-3.5c0.7,0,1.3,0.2,1.9,0.5l117.7,74.3
	c1.6,1,2.1,3.2,1.1,4.8c-0.3,0.4-0.7,0.8-1.1,1.1L64,317.6C63.4,318,62.8,318.2,62.1,318.2z M65.6,172.5v135.9l107.7-67.9
	L65.6,172.5z"/>
<path class="st0" d="M182.4,230.3L67.9,307.7c-10.7,7.2-5.6,24,7.3,24h241.1c12.9,0,18-16.7,7.3-24l-114.5-77.4
	C201,224.9,190.5,224.9,182.4,230.3z"/>
<path class="st4" d="M194.4,230.3L79.9,307.7c-10.7,7.2-5.6,24,7.3,24h241.1c12.9,0,18-16.7,7.3-24l-114.5-77.4
	C213,224.9,202.5,224.9,194.4,230.3z"/>
<path class="st2" d="M316.3,335.2H75.2c-9.2,0-16.6-7.4-16.6-16.6c0-5.5,2.7-10.7,7.3-13.7l114.6-77.4c9.2-6.3,21.4-6.3,30.6,0
	l114.5,77.4c7.6,5.1,9.6,15.5,4.4,23.1C327,332.5,321.8,335.2,316.3,335.2z M195.8,229.7c-4.1,0-8,1.2-11.4,3.5l0,0L69.8,310.6
	c-4.4,3-5.5,8.9-2.6,13.3c1.8,2.6,4.8,4.2,7.9,4.2h241.1c5.3,0,9.6-4.3,9.6-9.6c0-3.2-1.6-6.2-4.2-7.9L207,233.2
	C203.8,230.9,199.8,229.7,195.8,229.7z M182.4,230.3L182.4,230.3z"/>
</svg>
