<?xml version="1.0" encoding="utf-8"?>
<!-- Generator: Adobe Illustrator 25.3.1, SVG Export Plug-In . SVG Version: 6.00 Build 0)  -->
<svg version="1.1" id="fogos_de_artificio_rosa_1_" xmlns="http://www.w3.org/2000/svg" xmlns:xlink="http://www.w3.org/1999/xlink"
	 x="0px" y="0px" viewBox="0 0 324.8 324.8" style="enable-background:new 0 0 324.8 324.8;" xml:space="preserve">
<style type="text/css">
	.st0{fill:#FDE3DE;}
	.st1{fill:#C1C4D5;}
	.st2{fill:#FBC9BF;}
	.st3{fill:#FDCDAA;}
	.st4{fill:#FBC7BD;}
	.st5{fill:#FEDDC6;}
	.st6{fill:#FAC1B6;}
</style>
<g id="fogos_de_artificio_rosa">
	<g id="Grupo_10312">
		<g id="Grupo_10189">
			<g id="Caminho_17152">
				<path class="st0" d="M46.8,175.5v-3.8l0.9,3.9l1.4-3.4l-0.7,4.3c0,0,3.1-2,3.3-2.3s-2.7,4-2.7,4l5.5-1.5l-5,2.9l4.9,1.1h-5
					l2.2,2.9l-2.7-1.8l2.6,5.6l-4-4.6v2.5l-1-2.7l-2,6.6l0.6-6.5l-2.1,2.4l2-3.6l-6,3.4l6.1-4.1l-8.5,0.9l8-1.6l-4.9-1.2l4,0.4
					l-1.2-2.4l2.7,1.7l-2.9-7.2l3.8,6.1l-0.5-2.8L46.8,175.5z"/>
			</g>
			<g id="Caminho_17153">
				<path class="st1" d="M285.6,172.8l0.1-6.2l1.5,6.2l2.3-5.5l-1.1,6.9c0,0,5-3.3,5.4-3.7s-4.4,6.4-4.4,6.4l8.9-2.4l-8,4.6l8,1.8
					l-8.1-0.1l3.6,4.8l-4.3-2.9l4.2,9.1l-6.5-7.5v4l-1.5-4.3l-3.2,10.7l1-10.5l-3.4,3.9l3.2-5.8l-9.8,5.5l9.9-6.6l-13.8,1.5
					l12.9-2.7l-7.9-2l6.4,0.7l-2-3.8l4.3,2.7l-4.7-11.7l6.2,9.9l-0.8-4.6L285.6,172.8z"/>
			</g>
			<g id="Caminho_17154">
				<path class="st0" d="M275.3,202.9v-3.3l0.8,3.3l1.2-3l-0.6,3.7c0,0,2.6-1.8,2.9-2s-2.3,3.4-2.3,3.4l4.7-1.3l-4.2,2.5l4.2,0.9
					h-4.3l1.9,2.5l-2.3-1.5l2.2,4.8l-3.5-4v2.1l-0.8-2.3l-1.7,5.7l0.5-5.4l-1.8,2l1.8-3l-5.2,2.9l5.2-3.5l-7.3,0.8l6.9-1.4l-4.2-1.1
					l3.4,0.4l-1.1-2l2.3,1.4l-2.5-6.2l3.3,5.2l-0.4-2.4L275.3,202.9z"/>
			</g>
			<g id="Caminho_17155">
				<path class="st1" d="M251.2,67.6l0.1-6.2l1.5,6.2l2.3-5.5L254,69c0,0,5-3.3,5.4-3.7s-4.4,6.5-4.4,6.5l8.9-2.4l-8,4.7l8,1.8
					l-8.1-0.1l3.6,4.8l-4.3-2.9l4.2,9.2l-6.6-7.5v4l-1.5-4.3l-3.2,10.7l1-10.5l-3.4,3.9l3.2-5.8l-9.8,5.5l9.9-6.6l-13.8,1.5
					l12.9-2.7l-7.9-2l6.4,0.7l-2-3.8l4.3,2.7l-4.7-11.7l6.2,9.9l-0.8-4.6L251.2,67.6z"/>
			</g>
			<g id="Caminho_17156">
				<path class="st1" d="M200.4,265.1l0.1-5l1.2,5l1.9-4.4l-0.8,5.5c0,0,4-2.6,4.3-3s-3.5,5.1-3.5,5.1l7.1-2l-6.4,3.7l6.4,1.4
					l-6.5-0.1l2.9,3.8l-3.5-2.3l3.4,7.3l-5.2-6v3.2l-1.3-3.5l-2.6,8.6l0.8-8.4l-2.7,3.1l2.6-4.6l-7.8,4.4l7.9-5.3l-11,1.2l10.4-2.1
					l-6.4-1.6l5.2,0.5l-1.6-3l3.4,2.2l-3.8-9.4l5,7.9l-0.6-3.6L200.4,265.1z"/>
			</g>
			<g id="Caminho_17157">
				<path class="st1" d="M129.1,261.9v-2.1l0.5,2.1l0.8-1.9l-0.4,2.4c0,0,1.7-1.1,1.8-1.3s-1.5,2.2-1.5,2.2l3-0.8l-2.7,1.6l2.7,0.6
					h-2.8l1.2,1.6l-1.5-1l1.4,3.1l-2.2-2.5v1.4l-0.5-1.5l-1.1,3.7l0.3-3.6l-1.1,1.3l1.1-2L125,267l3.4-2.3l-4.7,0.5l4.4-0.9
					l-2.7-0.7l2.2,0.2l-0.7-1.3l1.5,0.9l-1.6-4l2.1,3.4l-0.3-1.6L129.1,261.9z"/>
			</g>
			<g id="Caminho_17158">
				<path class="st1" d="M129,187.2v-1.6l0.4,1.6l0.6-1.4l-0.3,1.7c0,0,1.3-0.8,1.4-0.9s-1.1,1.6-1.1,1.6l2.2-0.6l-2,1.2l2,0.5h-2.1
					l0.9,1.2l-1.1-0.7l1.1,2.3l-1.7-1.9v1L129,190l-0.8,2.7l0.2-2.7l-0.8,1l0.8-1.5l-2.5,1.4l2.5-1.7l-3.5,0.4l3.3-0.7l-2-0.5
					l1.6,0.2l-0.5-1l1.1,0.7l-1.2-2.9l1.6,2.5l-0.2-1.1L129,187.2z"/>
			</g>
			<g id="Caminho_17159">
				<path class="st1" d="M126.1,122.2v-1.6l0.4,1.6l0.6-1.4l-0.3,1.7c0,0,1.2-0.8,1.4-0.9s-1.1,1.6-1.1,1.6l2.2-0.6l-2,1.2l2,0.4
					h-2.1l0.9,1.2l-1.1-0.7l1.1,2.3l-1.7-1.9v1l-0.4-1.1l-0.8,2.7l0.2-2.6l-0.8,1l0.8-1.5L123,126l2.5-1.7l-3.5,0.4l3.3-0.7l-2-0.5
					l1.6,0.2l-0.5-1l1.1,0.7l-1.2-2.9l1.6,2.5l-0.2-1.1L126.1,122.2z"/>
			</g>
			<g id="Caminho_17160">
				<path class="st1" d="M185.7,108.5V107l0.4,1.6l0.6-1.4l-0.3,1.8c0,0,1.3-0.8,1.4-0.9s-1.1,1.6-1.1,1.6l2.2-0.6l-2,1.2l2,0.4h-2
					l0.9,1.2l-1.1-0.7l1.1,2.3l-1.7-1.9v1l-0.4-1.1l-0.8,2.7l0.2-2.7l-0.9,1l0.8-1.5l-2.5,1.4l2.5-1.7l-3.5,0.4l3.3-0.7l-2-0.5
					l1.6,0.2l-0.5-1l1.1,0.7l-1.2-3l1.6,2.5l-0.2-1.2L185.7,108.5z"/>
			</g>
			<g id="Caminho_17161">
				<path class="st2" d="M187.1,151.8v-1.6l0.4,1.6l0.6-1.4l-0.3,1.8c0,0,1.3-0.9,1.4-0.9s-1.1,1.6-1.1,1.6l2.2-0.6l-2,1.2l2,0.4
					h-2.1l0.9,1.2l-1.1-0.7l1.1,2.3l-1.7-1.9v1l-0.4-1.1l-0.8,2.7l0.2-2.6l-0.8,1l0.8-1.5l-2.5,1.4l2.5-1.7l-3.5,0.4l3.3-0.7l-2-0.5
					l1.6,0.2l-0.5-0.9l1.1,0.7l-1.2-3l1.6,2.5l-0.2-1.1L187.1,151.8z"/>
			</g>
			<g id="Caminho_17162">
				<path class="st2" d="M92.6,150.8v-1.6l0.4,1.6l0.6-1.4l-0.3,1.7c0,0,1.2-0.8,1.4-0.9s-1.1,1.6-1.1,1.6l2.2-0.6l-2,1.2l2,0.4
					h-2.1l0.9,1.2l-1.1-0.7l1.1,2.3l-1.6-1.9v1l-0.4-1.1l-0.8,2.7l0.2-2.6l-0.8,1l0.8-1.5l-2.5,1.4L92,153l-3.5,0.4l3.3-0.7l-2-0.5
					l1.6,0.2l-0.5-1l1.1,0.7l-1.2-3l1.6,2.5l-0.2-1.1L92.6,150.8z"/>
			</g>
			<g id="Caminho_17163">
				<path class="st2" d="M93,204.4v-1.6l0.4,1.6L94,203l-0.3,1.8c0,0,1.3-0.8,1.4-1s-1.1,1.7-1.1,1.7l2.2-0.6l-2,1.2l2,0.4h-2.1
					l0.9,1.2l-1.1-0.7l1,2.3l-1.7-1.9v1l-0.3-1.1l-0.8,2.7l0.2-2.6l-0.8,1l0.8-1.5l-2.5,1.4l2.5-1.7l-3.5,0.4l3.3-0.7l-2-0.5
					l1.6,0.2l-0.5-1l1.1,0.7l-1.2-3l1.6,2.5l-0.2-1.1L93,204.4z"/>
			</g>
			<g id="Caminho_17164">
				<path class="st2" d="M228.2,167.1v-1.6l0.4,1.6l0.6-1.4l-0.3,1.8c0,0,1.2-0.8,1.4-0.9s-1.1,1.6-1.1,1.6l2.2-0.6l-2,1.2l2,0.4
					h-2.1l0.9,1.2l-1.1-0.7l1.1,2.3l-1.7-1.9v1l-0.4-1.1l-0.8,2.7l0.2-2.6l-0.8,1l0.8-1.5l-2.5,1.4l2.5-1.7l-3.5,0.4l3.3-0.7l-2-0.5
					l1.6,0.2l-0.5-1l1.1,0.7l-1.2-2.9l1.6,2.5l-0.2-1.1L228.2,167.1z"/>
			</g>
			<g id="Caminho_17165">
				<path class="st2" d="M83.2,243v-3.1L84,243l1.2-2.8l-0.5,3.5c0,0,2.5-1.6,2.7-1.9s-2.2,3.2-2.2,3.2l4.5-1.2l-4.1,2.3l4,0.9h-4.1
					l1.8,2.4l-2.1-1.4l2.1,4.6l-3.3-3.8v2l-0.8-2.2l-1.6,5.4l0.5-5.3l-1.7,2l1.6-2.9l-4.9,2.8l5-3.3l-7,0.8l6.5-1.3l-4-1l3.2,0.4
					l-1-1.9l2.2,1.4l-2.4-5.9l3.1,5l-0.4-2.3L83.2,243z"/>
			</g>
			<g id="Caminho_17166">
				<path class="st1" d="M90.2,76.2v-4.4l1.1,4.4l1.7-3.9l-0.8,4.9c0,0,3.5-2.3,3.8-2.6s-3,4.5-3,4.5l6.2-1.7l-5.7,3.3l5.6,1.2
					l-5.7-0.1l2.5,3.4l-3-2l3,6.4l-4.6-5.3v2.9l-1.1-3l-2.4,7.5l0.7-7.4L86.2,87l2.3-4l-6.9,3.9l7-4.7l-9.8,1.1l9.1-1.9L82.4,80
					l4.6,0.5l-1.4-2.7l3,1.9l-3.3-8.2l4.4,7l-0.5-3.2L90.2,76.2z"/>
			</g>
			<g id="Caminho_17167">
				<path class="st2" d="M237.3,95.1v-4.5l1.1,4.5l1.7-4l-0.8,5c0,0,3.6-2.4,3.9-2.7s-3.2,4.6-3.2,4.6l6.4-1.8l-5.8,3.3l5.7,1.3
					l-5.9-0.1l2.6,3.4l-3.1-2.1l3.1,6.6l-4.7-5.4v2.9l-1.1-3.1l-2.3,7.8l0.7-7.6l-2.4,2.8l2.3-4.2l-7.1,3.9l7.2-4.8l-10,1.1l9.3-1.9
					l-5.7-1.4l4.7,0.5l-1.4-2.8l3.1,2l-3.4-8.4l4.5,7.2l-0.6-3.3L237.3,95.1z"/>
			</g>
		</g>
		<g id="Grupo_10190">
			<g id="Caminho_17168">
				<path class="st3" d="M196.7,133.8c-3.4-0.9-6.9,0.5-10,2c-3.4,1.8-7.8,4.8-10.2,7.9c-4.9,6-8.6,12.8-11.1,20.1l0,0
					c2.6-6.7,7.2-12.4,13.1-16.4c3-2,5.9-4.1,8.9-5.9s6.7-2.1,9.3-4.6C197.6,136.3,198.3,134.3,196.7,133.8z"/>
			</g>
			<g id="Caminho_17169">
				<path class="st4" d="M221.4,102.9c-2.3-2.3-5.2-2-8.3-1c-3.1,1-6.1,2.3-8.8,4.1c-5.4,3.4-10.4,7.5-14.8,12.1
					c-4.2,4.3-8,8.9-11.5,13.8c-3.4,5-5.9,10.2-8.8,15.5c-0.1,0.1,0.1,0.2,0.2,0.1c1.4-2.2,2.6-4.5,4-6.6c1.7-2.4,3.7-4.7,5.8-6.8
					c8.6-9.3,18.4-15.3,30.2-19.7C212.4,113.2,227.4,108.9,221.4,102.9z"/>
			</g>
			<g id="Caminho_17170">
				<path class="st5" d="M197.5,68.4c-6.6,0.1-12.1,6.7-15.8,11.6c-4.3,5.6-6.4,12.1-8.2,18.9c-3.5,13.2-6.5,26.9-5.7,40.7
					c0,0.1,0.1,0.1,0.2,0c1-13.4,5.9-26.3,11.8-38.3c2.6-5.4,5.7-10.5,9.5-15.2c3.6-4.4,9-8.2,10.8-13.8
					C200.5,70.5,199.4,68.4,197.5,68.4z"/>
			</g>
			<g id="Caminho_17171">
				<path class="st6" d="M224.5,79.3c-3.2-3-7.9-0.9-11.2,0.9c-4.2,2.2-8.1,5.1-11.5,8.5c-2.8,2.9-5.3,6.1-7.6,9.5
					c-1,1.6-2,3.2-2.9,4.9s-2.3,3-3,4.8c-0.1,0.2,0.1,0.2,0.2,0.1c1.7-2.8,5.2-5.6,7.8-7.5c3-2.2,6-4.2,9.2-6
					c3.3-1.9,6.8-3.7,10.3-5.3s7.1-2.7,9.2-6.3C225.7,81.6,225.5,80.2,224.5,79.3z"/>
			</g>
			<g id="Caminho_17172">
				<path class="st6" d="M268.6,115.8c-4.3-4.1-9.7-4.4-15.4-4.4c-6.4,0.2-12.7,1.2-18.9,2.9c-6,1.6-11.9,4.4-17.5,6.9
					c-1.9,0.9-3.8,1.8-5.7,2.8c-0.2,0.2-0.4,0.3-0.6,0.4c-1.1,0.8-2.2,1.6-3.2,2.5c1.1-0.3,2.2-0.5,3.1-0.8c2.6-0.9,5.1-1.5,7.8-2.2
					c7.7-1.7,15.6-2.8,23.4-3.2c8.7-0.5,17.3,0.5,25.8-2C268.8,118.5,269.7,116.9,268.6,115.8z"/>
			</g>
			<g id="Caminho_17173">
				<path class="st5" d="M281,141c-7.7-3.6-16.3-6.6-24.8-7.5c-8.9-1-18.3,0.2-27.1,1.5c-8.6,1.2-17,3.7-24.8,7.6
					c-7.9,3.9-14.7,9.1-21.9,14c-0.1,0.1,0,0.3,0.1,0.2c9-4.8,17.6-8.9,27.7-10.9c14.5-2.9,29.3-4.3,44.1-4
					c8.7,0.2,17.2,0.7,25.9,1.5C281.4,143.6,282.3,141.6,281,141z"/>
			</g>
			<g id="Caminho_17174">
				<path class="st6" d="M154.4,99.8c-1.3-8.2-3.8-16.2-7.4-23.7c-3.5-7.8-8.2-15-13.9-21.3c-2.6-2.8-5.5-5.4-8.6-7.6
					c-3.1-2.5-6.9-3.9-10.9-4c-1.5-0.1-2.9,2.1-1.6,3.2c2.6,2.2,5,4.5,7.7,6.7c3.1,2.4,6,5.1,8.6,8c5,6.1,9.2,12.7,12.7,19.7
					c7.2,13.5,13.7,28.2,14.9,43.6c0,0.2,0.2,0.1,0.2,0C156.8,116.2,155.6,107.8,154.4,99.8z"/>
			</g>
			<g id="Caminho_17175">
				<path class="st3" d="M165.8,66.2c-1.1-0.3-2.3,0.1-2.9,1c-3.1,3.8-2.1,9.2-1.8,13.7c0,1.1,0.4,2,0.5,3c0.1,1.3,0.2,2.6,0.3,3.9
					c0.2,2.3,0.4,4.6,0.6,7c0.8,9.7,0.9,19.4,0.1,29.1c0,0.3,0.4,0.2,0.4,0c2.3-10.1,4-20.3,5.7-30.5c0.4-2.3,0.7-4.7,1-7.1
					c0.1-1,0.2-2,0.3-3c0.1-1.4,0.5-2.8,0.5-4.2C170.1,75,170.2,68.1,165.8,66.2z"/>
			</g>
			<g id="Caminho_17176">
				<path class="st5" d="M178.9,71.6c0.4-0.6,0.7-1.2,0.9-1.8c0.1-0.5,0.2-0.9,0.3-1.4c0.7-2.5,1.5-5,2.1-7.5c1-3.8,2-10.7-3.7-11.2
					c-1.1,0-2.1,0.6-2.6,1.6c-1.2,3.2-0.1,6.4,0.8,9.6C177.7,63.9,179.6,68.4,178.9,71.6z"/>
			</g>
			<g id="Caminho_17177">
				<path class="st5" d="M154.6,132.4c-0.3-2.3-0.5-4.6-0.9-6.9c-1-5.3-3.1-10.2-5.4-15.1c-2.2-4.6-4.9-9-8-13.2
					c-3.2-4.5-6.4-8.1-11.3-10.8c-1.3-0.7-2.3,1.3-1.8,2.3c4.3,8.9,11.4,15.8,15.9,24.6c2.1,4.2,4.1,8.4,6.2,12.6s4.9,8.3,5.6,13
					c0,0.2,0.4,0.1,0.4-0.1C155.3,136.7,155.1,134.5,154.6,132.4z"/>
			</g>
			<g id="Caminho_17178">
				<path class="st5" d="M134.4,75.6c-1.8-2.3-3.6-4.8-6.7-4.4c-1.3,0.3-2.1,1.6-1.8,2.8c0.8,5.1,8.5,5,11.1,8.7c0,0,0.1,0,0.1,0
					c0,0,0-0.1,0-0.1C136.8,80.1,135.9,77.7,134.4,75.6z"/>
			</g>
			<g id="Caminho_17179">
				<path class="st5" d="M128,117.6c-1.4-0.7-2.6,1.5-1.6,2.6c5.6,6.1,11.3,12,16.3,18.6c2.5,3.4,4.9,6.9,7,10.6
					c2.2,3.8,4.7,7.2,6.4,11.2c0.1,0.3,0.5,0.1,0.5-0.2C155.9,142.7,143.9,125.2,128,117.6z"/>
			</g>
			<g id="Caminho_17180">
				<path class="st3" d="M139.2,117.4c-2.6-8.5-8.2-15.5-14.8-21.3s-15.7-14.2-25.3-11.6c-1.5,0.3-2.4,1.8-2.1,3.3
					c0,0.2,0.1,0.4,0.2,0.6c2,3.6,6.1,5,9.7,6.5c4.2,1.7,7.9,4.5,11.6,7s7.2,4.8,10.8,7.3c3.6,2.5,7,4.8,9.6,8.6
					C139,117.8,139.3,117.6,139.2,117.4z"/>
			</g>
			<g id="Caminho_17181">
				<path class="st6" d="M164,138.9c-0.2-1.1-1.8-0.7-2.1,0.1c-1.1,3.3-1.7,6.7-1.8,10.1c-0.1,1.8,0.1,3.7,0.4,5.5
					c0.3,1.4,1,3.7,0.7,5.2c0,0.2,0.1,0.4,0.3,0.4c0.1,0,0.3,0,0.3-0.1c0.4-0.7,0.6-1.5,0.7-2.3c0.2-2.3,0.6-4.6,0.9-6.9
					C164,147,164.7,143,164,138.9z"/>
			</g>
			<g id="Caminho_17182">
				<path class="st4" d="M152.1,161.9c-0.8-1.4-1.4-2.9-2.1-4.4c-1-1.6-2-3.1-3.2-4.6c-1.9-2.9-3.9-5.7-6.1-8.3
					c-4.8-5.7-10.3-10.7-16.3-15.1c-11.2-8.3-24.7-17.5-39.2-17.1c-1.1,0-2.8,1.9-1.4,2.8c2.5,1.5,5.2,2.6,7.8,3.9
					c3.2,1.5,6.3,3.2,9.5,4.6c6.6,2.8,13,7.1,19,11c5.8,3.8,11.3,8,16.6,12.4c2.6,2.2,5.1,4.6,7.7,6.8c2.8,2.5,5.3,5.2,7.5,8.2
					C151.9,162.2,152.1,162,152.1,161.9z"/>
			</g>
			<g id="Caminho_17183">
				<path class="st6" d="M117.9,114c-2.2-2.8-5.2-4.9-7.9-7.2c-3.6-2.9-7.3-5.5-11.2-8c-3.8-2.4-7.7-4.5-11.8-6.5
					c-4.1-1.9-8.4-3.8-13-2.5c-1.2,0.3-2.6,2.3-1.2,3.3c3.2,2.2,6.9,3.2,10.4,4.5c4,1.6,8,3.3,12,5s7.8,3.5,11.6,5.5
					c3.6,1.9,7.6,3.6,10.6,6.2C117.7,114.7,118.1,114.2,117.9,114z"/>
			</g>
			<g id="Caminho_17184">
				<path class="st6" d="M148.3,163.2c-1.4-2.4-3.4-4.4-5.7-5.9c-3.2-2.2-6.6-4.2-10-6c-3.6-2-7.9-2.7-11.8-3.7
					c-2.8-0.7-6.9-2.1-9.6-0.6c-1.1,0.6-2.2,2.6-0.8,3.6c2.1,1.5,5.7,1.2,8.2,1.8c3.7,0.9,7.3,1.9,11,3c3.3,0.9,6.5,2.1,9.6,3.5
					c1.5,0.8,2.9,1.6,4.4,2.2C145.2,161.6,146.7,162.3,148.3,163.2C148.2,163.4,148.3,163.2,148.3,163.2z"/>
			</g>
			<g id="Caminho_17185">
				<path class="st3" d="M102.1,145.8c-4.4-0.8-8.8-2-13.2-2.7s-9.1-1.2-13.7-1.6c-8.9-0.8-19.1,0-26.5,5.2c-1.4,1-1.7,4.1,0.6,4.2
					c4.3,0.1,8.1-1.5,12.2-2.6c4.3-1.2,8.8-2,13.2-2.4c4.5-0.4,9.1-0.4,13.7-0.5s9.2,0.5,13.7,0.6
					C102.2,145.9,102.2,145.8,102.1,145.8z"/>
			</g>
			<g id="Caminho_17186">
				<path class="st6" d="M117.5,139.6c-3.6-1.9-6.8-4.2-10.6-5.6c-3.9-1.5-7.6-3.5-11.6-4.9c-3.6-1.1-7.3-2-11-2.7
					c-4.2-0.9-8-1.5-12.1,0c-1.1,0.4-1.8,2.7-0.4,3.1c3.4,0.8,6.8,1.5,10.2,1.9c4,0.7,8,1.4,12,2.4c7.8,1.9,15.5,4.1,23.3,6
					C117.5,139.7,117.6,139.6,117.5,139.6z"/>
			</g>
			<g id="Caminho_17187">
				<path class="st5" d="M126.8,159.7c-2.6-0.4-5.1-1.2-7.6-1.7c-3.4-0.6-6.8-1.4-10.2-1.9c-6.4-1.1-13-1.7-19.5-1.7
					c-11.8,0.1-28.9,0.6-36.5,11.4c-1.1,1.6-1,3.8,1.2,4.1c5.6,0.9,11.7-2.6,17-4c6.1-1.6,12.2-2.9,18.5-3.8
					c6.3-0.9,12.6-1.7,18.9-2.3c3.4-0.3,6.8-0.5,10.3-0.5c2.7,0,5.3,0.5,7.9,0.5C126.9,159.9,127,159.7,126.8,159.7z"/>
			</g>
			<g id="Caminho_17188">
				<path class="st6" d="M125.4,165.5c-4.6-1.4-9.4-1.8-14.1-1.3c-6,0.5-12.3,2.7-16.8,6.8c-1.5,1.4-1.5,4.5,1.2,4.1
					c5.1-0.7,9.8-3.3,14.7-4.8s9.8-3.8,14.9-4.5C125.4,165.7,125.5,165.5,125.4,165.5z"/>
			</g>
			<g id="Caminho_17189">
				<path class="st4" d="M116.2,175.8c-7.1,2.6-14.1,5.6-20.8,9c-7.3,3.9-14.2,8.7-20.3,14.3c-6,5.4-11.1,11.7-15.1,18.7
					c-1.9,3.4-3.5,7.1-4.7,10.8c-1.1,3.3-2.5,8.2-1.4,11.6c0.6,1.6,2.3,2.4,3.8,1.8c0,0,0,0,0,0c0.4-0.2,0.7-0.4,1-0.7
					c2.5-2.2,4.3-5.9,5.6-8.9s2.6-6.4,4.1-9.5c3.1-6.4,7.5-12.3,12-17.9c9.8-12.1,22.4-21.3,35.8-29.3
					C116.3,175.9,116.3,175.7,116.2,175.8z"/>
			</g>
			<g id="Caminho_17190">
				<path class="st6" d="M146.3,178.2c-11.1,7.7-21,18-29.2,28.8c-4.5,5.9-7.6,13-10.7,19.7c-2.8,6.1-5.1,13.7-4.4,20.6
					c0.1,1,0.9,1.7,1.9,1.6c0.6-0.1,1-0.4,1.3-0.8c3.8-5,6.3-11.6,8.7-17.4c2.7-6.5,5.7-12.9,9-19.2c3-5.6,6.7-11,10.1-16.4
					c3.7-6.1,8.1-11.7,13.2-16.6C146.5,178.2,146.4,178.1,146.3,178.2z"/>
			</g>
			<g id="Caminho_17191">
				<path class="st3" d="M115.2,195.5c-7,4.9-14.1,9.6-19.9,15.9C89,218.1,83.7,226,81.6,235c-0.9,3.9,4,4,5.5,1.2
					c3.8-7.3,7.6-14.6,12.1-21.6c4.5-7,9.9-13.3,16.1-18.8C115.5,195.6,115.4,195.4,115.2,195.5z"/>
			</g>
			<g id="Caminho_17192">
				<path class="st6" d="M97.2,232.9c-2.6,4.1-5.7,8.1-7.3,12.8c-1.8,5.3-2.8,10.9-2.8,16.6c0,2.6,3.4,1.6,3.8-0.3
					c2.4-9.6,3.7-19.4,6.4-29C97.5,232.8,97.3,232.8,97.2,232.9z"/>
			</g>
			<g id="Caminho_17193">
				<path class="st5" d="M142.2,173.1c-14.1,2.7-32.4,5.8-39.7,20c-0.5,0.8-0.3,1.8,0.5,2.3c0.5,0.3,1.1,0.4,1.7,0.1
					c3.3-1.4,5.8-3.6,8.5-5.9s5.7-4.5,8.6-6.5c6.4-4.5,13.3-7,20.5-9.8C142.3,173.4,142.3,173.1,142.2,173.1z"/>
			</g>
			<g id="Caminho_17194">
				<path class="st6" d="M82.7,184.9c-7.7,1.6-15.4,4.1-22,8.6c-3.6,2.5-6.8,5.4-9.7,8.6c-2.5,2.8-5.2,6.6-4.9,10.6c0,1.1,0.9,2,2,2
					c0.4,0,0.7-0.1,1-0.3c3.1-1.2,5.4-4.1,7.5-6.6c2.4-3,5-5.8,7.8-8.5c5.8-5.4,11.1-10.7,18.3-14.3C82.8,185,82.8,184.9,82.7,184.9
					z"/>
			</g>
			<g id="Caminho_17195">
				<path class="st5" d="M156.5,184.2c0-0.3-0.4-0.3-0.5,0c-4.6,11.2-9.1,22.7-8.5,35c0.2,3.4,4.3,2.1,5-0.3
					C155.6,207.7,156.6,195.8,156.5,184.2z"/>
			</g>
			<g id="Caminho_17196">
				<path class="st6" d="M162.8,174.9c0-0.1-0.2-0.1-0.2,0c-0.6,4.7-1.6,9.2-2.1,13.9c-0.4,5.1-1.1,10.2-1.4,15.4
					c-0.5,10.3-2.1,21.2-0.3,31.4c0.4,2.1,3.1,0.7,3.5-0.7c1.2-4.9,1.5-10.3,1.8-15.4s0.6-10.3,0.6-15.5
					C164.5,194.3,163.9,184.6,162.8,174.9z"/>
			</g>
			<g id="Caminho_17197">
				<path class="st3" d="M145.8,198.2c-3.7,7.2-8,13.8-11,21.3c-1.4,3.7-2.6,7.5-3.6,11.3c-0.9,3.9-1.4,7.8-1.3,11.8
					c-0.1,2.7,3.5,2.2,4.4,0.3c3.1-7.2,4.4-14.6,6.4-22.1c1.1-3.9,1.6-7.9,2.4-11.9c0.8-3.6,2-7.1,2.9-10.7
					C145.9,198.1,145.8,198.1,145.8,198.2z"/>
			</g>
			<g id="Caminho_17198">
				<path class="st5" d="M118.4,234.9c-0.7,1.3-1.4,2.5-2,3.9c-2.9,5.9-6.8,14.3-4.5,20.9c0.6,1.8,2.9,1.7,4,0.3
					c4.5-5.7,5-14.1,7-20.9c1-3.4,1.9-6.9,2.8-10.3c0.5-1.8,1.6-4,2.1-6.1C124.8,226.8,121.5,230.7,118.4,234.9z"/>
			</g>
			<g id="Caminho_17199">
				<path class="st6" d="M150.3,249.1c-0.1-5.1-0.3-10.3-0.6-15.4c0-0.3-0.4-0.2-0.5,0c-3,10.4-6.6,21.5-4.9,32.4
					c0.5,3,4.3,0.9,4.8-1C150.6,259.8,150.4,254.5,150.3,249.1z"/>
			</g>
			<g id="Caminho_17200">
				<path class="st5" d="M156,174.1c-3.1,3.1-6.8,5.4-9.7,8.7c-2.9,3.2-5.1,7.1-6.4,11.2c-0.4,1.5,1.6,2.1,2.4,0.9
					c2.2-3.2,3.9-6.7,5.9-10c2.3-3.9,5.6-6.9,8-10.7C156.3,174.1,156.1,174,156,174.1z"/>
			</g>
			<g id="Caminho_17201">
				<path class="st5" d="M79.2,174.6c-5,0.3-10,1.9-14.6,3.5c-5.8,2-11.2,4.8-15,9.8c-1.2,1.5-0.6,3.9,1.7,3.6
					c5.4-0.7,9.5-4.6,13.7-7.7c4.4-3.2,9.1-7,14.3-8.9C79.4,174.9,79.4,174.6,79.2,174.6z"/>
			</g>
			<g id="Caminho_17202">
				<path class="st3" d="M187,216.5c-1.6-5.5-3.3-11.1-5.3-16.4c-1.9-5.4-4.3-10.5-7.1-15.5c-1.4-2.3-3-4.5-4.7-6.5
					c-0.8-0.9-1.4-1.9-2.1-2.8s-1.9-1.5-2.3-2.5c0-0.1-0.2,0-0.2,0.1c0.1,0.6,0.4,1.1,0.8,1.5c0.8,1.2,1.4,2.5,1.9,3.9
					c1,2.5,1.8,5.1,2.6,7.6c1.8,5.6,4.1,11,5.8,16.6c1.7,5.2,3.2,10.4,4.9,15.6s2.9,10.6,5,15.8c0.6,1.6,2.7,0.5,2.7-0.9
					C189.1,227.5,188.5,221.9,187,216.5z"/>
			</g>
			<g id="Caminho_17203">
				<path class="st6" d="M210.8,243.5c-1.9-5.1-4-10-6.4-14.8c-2.2-4.4-4.5-9-7-13.2c-1.3-2.2-2.8-4.3-4.4-6.2
					c1.6,5.4,2.5,11.2,4,16.7c0.5,1.7,1,3.5,1.6,5.2c1.6,4.9,3.4,9.7,5.1,14.6c1.6,4.6,3,9.1,6.2,12.8c0.6,0.6,1.6,0.6,2.2,0
					c0.2-0.2,0.4-0.5,0.4-0.9C213.2,252.8,212.6,247.9,210.8,243.5z"/>
			</g>
			<g id="Caminho_17204">
				<path class="st5" d="M176.3,288.6c1.2,1.7,2.9,2.9,4.7,0.8c0.5-0.7,1-1.4,1.4-2.2c1-5.2,0.6-10.9,0.5-15.8
					c-0.4-9.5-0.6-18.9-2.1-28.3c-1.5-9.1-4.9-17.3-7.8-25.9c1.3,3.9,0.3,9.9,0.3,13.9c0,4.9-0.1,9.8-0.1,14.6
					c-0.1,9.1,0.3,18.2,1.2,27.3c0.4,3.7,0.6,7.5,0.9,11.2C175.4,285.7,175.7,287.2,176.3,288.6z"/>
			</g>
			<g id="Caminho_17205">
				<path class="st6" d="M221.2,234.9c-1.3-6.5-3.9-12.7-7.7-18.2c-3.7-5.3-7.4-10.5-11.3-15.6c-4.1-5.4-8.6-10.4-13.6-14.9
					c-4.7-4.4-10.3-8.7-16.4-11c-0.1,0-0.2,0.1-0.1,0.2c5.3,3.5,9.2,9.2,13.1,14.2c4.3,5.4,8.1,11.2,12.2,16.7
					c3.4,4.6,6.7,9.3,10,14.1c3.8,5.4,6.8,11.2,10.7,16.5C219.3,238.6,221.6,236.6,221.2,234.9z"/>
			</g>
			<g id="Caminho_17206">
				<path class="st5" d="M246.6,247.9c-1.6-6.4-3.6-12.4-7-18.1c-4.8-8.3-10.7-15.9-17.3-22.8c-6.6-6.7-13.5-10.8-21.5-15.3
					c-0.2-0.1-0.3,0.2-0.2,0.3c1.8,1.9,4,3.5,5.7,5.5c10.1,11.6,19.2,24.1,27.2,37.2c3.3,5.4,6.6,10.4,10.9,15
					C245.4,250.6,246.9,248.9,246.6,247.9z"/>
			</g>
			<g id="Caminho_17207">
				<path class="st6" d="M276.1,168.6c-6.3-5.6-13.9-8.3-22.1-10.1c-17.4-3.8-33.1-4.8-50.7-1.7c-8,1.4-16.4,3.7-23.7,7.4
					c-0.1,0-0.1,0.2,0.1,0.2c15.5-5.4,32.5-4.4,48.5-2c7.7,1.2,15.3,2.6,22.8,4.3c7.9,1.8,15.3,4.6,23.3,5.4
					C276.1,172.3,277.5,169.8,276.1,168.6z"/>
			</g>
			<g id="Caminho_17208">
				<path class="st6" d="M285.5,196c-0.4-4.9-4.9-7.2-8.8-9.4c-4.9-2.7-10.1-5.1-15.4-7c-5-1.8-10.1-3.4-15.2-4.7
					c-5.2-1.3-10.4-2.6-15.7-3.6c-0.1,0-0.1,0.1-0.1,0.1c9.6,3.3,18.9,7.4,27.8,12.2c4.2,2.1,8.3,4.5,12.2,7.1
					C271.9,191.5,286.1,203,285.5,196z"/>
			</g>
			<g id="Caminho_17209">
				<path class="st5" d="M255,194.2c-9.5-9.7-22.4-16.1-35.1-20.6c-6.3-2-12.7-3.6-19.2-4.8c-3.3-0.7-6.6-1-10-1.1
					c-2.1-0.1-4.6-0.2-6.5,0.7c-0.1,0.1-0.1,0.3,0,0.2c2.7-0.4,5.8,0.9,8.4,1.7c3,0.9,5.9,1.8,8.7,3c5.8,2.4,11.8,4.4,17.6,7
					c11.6,5.2,23.1,10.8,34.9,15.8C254.9,196.5,255.8,195,255,194.2z"/>
			</g>
			<g id="Caminho_17210">
				<path class="st4" d="M254.6,215.8c-2.6-6.4-8.8-10.5-14.1-14.5c-5.2-3.9-10.6-7.5-16.2-10.7c-11.5-6.4-24.6-13.1-37.8-14.9
					c-0.1,0-0.1,0.1-0.1,0.1c5.8,2.3,11.1,6.1,16.5,9.1c5.8,3.1,11.5,6.6,17.2,9.9c5.5,3.2,10.8,6.7,15.8,10.6
					c2.7,2.1,5.5,4.1,8.1,6.4c2.8,2.4,5,4.8,8.5,6.1c0.9,0.2,1.9-0.4,2.1-1.3C254.7,216.4,254.7,216.1,254.6,215.8z"/>
			</g>
			<g id="Caminho_17211">
				<path class="st5" d="M283.3,238.7c0.3-2.4-2.6-7.8-3.1-8.8c-2.9-5.8-6.5-11.1-10.9-15.9c-6-6.6-14.1-13.1-23-14.9
					c-0.1,0-0.3,0.2-0.1,0.3c4.9,3.2,8.1,8.5,11.8,12.9c5,6,10.3,11.7,15,18c1.7,2.3,6.1,10,9.3,9.6
					C282.9,239.8,283.4,239.3,283.3,238.7z"/>
			</g>
			<g id="Caminho_17212">
				<path class="st6" d="M257.8,239c-2.8-3.9-5.9-7.6-9.2-11.1c-3.3-3.3-6.9-6.4-10.6-9.3c-0.1-0.1-0.4,0.1-0.3,0.3
					c3,3.2,5.7,6.6,8.3,10.2c2.6,4,5.1,8,7.3,12.2c4.4,8.1,8.3,16.5,13.2,24.3c1.1,1.7,3.6,0,3.5-1.6
					C269.2,254.7,263.1,246.3,257.8,239z"/>
			</g>
			<g id="Caminho_17213">
				<path class="st3" d="M162,263.7c-0.3-2.2-0.8-4.4-1.4-6.6c-0.5-1.8-0.6-3.6-1.1-5.4c-0.2-0.5-0.8-0.1-0.9,0.3
					c-0.2,1.9-0.5,3.8-1,5.7c-0.4,2.3-0.6,4.7-0.9,7c-0.6,4.1-1.1,8.4,0.7,12.3c0.8,1.7,3.4,0.5,3.9-0.8
					C162.9,272.2,162.6,268,162,263.7z"/>
			</g>
			<g id="Caminho_17214">
				<path class="st4" d="M297,162.6c-0.6-6.6-8.9-9.1-14.3-10.4c-3.6-0.8-7.2-1.4-10.9-1.6c-3.3-0.2-6.7-0.6-10-0.1
					c-0.2,0-0.3,0.3-0.1,0.4c5.8,1.7,11.4,4.9,16.9,7.3c2.7,1.2,5.4,2.5,8,4c2.4,1.4,5,3.1,7.9,2.9
					C295.7,165.1,297.1,164.1,297,162.6z"/>
			</g>
			<g id="Caminho_17215">
				<path class="st6" d="M232.1,127.2c-2.4-0.4-4.8-0.4-7.1,0.1c-3.8,1-7.4,2.7-10.6,5c5.7-1.5,11.8-0.8,17.5-2.6
					C233,129.3,233.6,127.5,232.1,127.2z"/>
			</g>
		</g>
	</g>
</g>
</svg>
