<svg xmlns="http://www.w3.org/2000/svg" xmlns:xlink="http://www.w3.org/1999/xlink" width="902" height="295" viewBox="0 0 902 295">
  <defs>
    <clipPath id="clip-path">
      <rect id="Rectangle_656" data-name="Rectangle 656" width="902" height="295" transform="translate(509 785)" fill="#fff" stroke="#707070" stroke-width="1"/>
    </clipPath>
  </defs>
  <g id="Mask_Group_26" data-name="Mask Group 26" transform="translate(-509 -785)" clip-path="url(#clip-path)">
    <g id="Group_875" data-name="Group 875" transform="matrix(0.616, -0.788, 0.788, 0.616, 147.494, 633.201)">
      <path id="Path_5521" data-name="Path 5521" d="M918.8,409.726c-45.344,18.6-55.078,288.777,108.522,400.549,75,51.238,210.31,85.513,287.092,13.813,44.38-41.443,65.079-114.436,44.4-171.664-25.077-69.389-104.8-98.472-175.611-124.308-65.092-23.747-79.6-13.584-138.119-40.448C957.521,447.47,939.152,401.377,918.8,409.726Z" transform="translate(-966.865 294)" fill="#ffcca9"/>
      <path id="Path_5522" data-name="Path 5522" d="M927.43,728.034C930.893,760.2,876.059,803.061,877.114,833c1.551,44.054,124.523,72.442,152.681,78.942,93.252,21.528,163.609,10.685,191.718,5.205,54.8-10.683,116.731-22.756,138.8-70.269,1.374-2.959,19.6-43.806-1.735-76.339-11.311-17.246-32.773-30.687-55.521-31.23-54.1-1.3-86.065,71.056-115.378,58.99-8.726-3.592-12.74-12.824-17.349-23.423-12.648-29.079,3.164-46.538-3.47-68.532-8.6-28.506-47.4-39.781-80.677-49.449-10.379-3.014-73.333-20.46-115.38,4.339-12.26,7.23-22.116,17.686-23.423,19.084-7.653,8.211-17.828,19.411-19.951,35.569A47.163,47.163,0,0,0,927.43,728.034Z" transform="matrix(0.391, -0.921, 0.921, 0.391, -1162.721, 1459.877)" fill="#535c89"/>
      <path id="Path_5523" data-name="Path 5523" d="M862.76,430.741c-92.162-48.35-172.272-50.653-287.153-52.587-85.266-1.435-109.462,7.161-126.625,24.91C416.847,436.3,411.653,499.269,436.526,520c24.677,20.567,58.448-17.522,119.014-13.838,86.938,5.287,99.733,88.781,185.44,109.326,96.179,23.056,216.331-49.426,215.884-103.1C956.594,479.968,912.336,456.75,862.76,430.741Z" transform="translate(-519.565 721.664) rotate(-11)" fill="#f9afa1"/>
      <path id="Path_5524" data-name="Path 5524" d="M915.936,409.627c-40.825,16.749-49.588,259.993,97.706,360.625,67.521,46.131,189.348,76.989,258.477,12.436,39.956-37.312,58.592-103.029,39.972-154.554-22.578-62.473-94.351-88.657-158.107-111.918-58.6-21.38-71.665-12.23-124.352-36.417C950.8,443.609,934.26,402.111,915.936,409.627Z" transform="matrix(0.995, -0.105, 0.105, 0.995, -977.482, 412.837)" fill="none" stroke="#59316d" stroke-width="5"/>
    </g>
  </g>
</svg>
