<svg xmlns="http://www.w3.org/2000/svg" xmlns:xlink="http://www.w3.org/1999/xlink" width="241" height="537" viewBox="0 0 241 537">
  <defs>
    <clipPath id="clip-path">
      <rect id="Rectangle_1365" data-name="Rectangle 1365" width="241" height="537" transform="translate(1679)" fill="#fff" stroke="#707070" stroke-width="1"/>
    </clipPath>
  </defs>
  <g id="Mask_Group_36" data-name="Mask Group 36" transform="translate(-1679)" clip-path="url(#clip-path)">
    <path id="Path_8560" data-name="Path 8560" d="M368.53,277.8c22.048-42.362,23.534-98.8,8.314-144.058-13.082-38.955-42.267-68.676-75.95-86.374-39.08-20.524-85.662-26.635-127.6-13.68-11.032,3.407-21.769,6.531-32.173,12.13-42.64,22.953-36.667,49.523-51.625,69.192-12.582,16.552-34.4,41.663-49.575,54.35-40.963,34.227-17.355,114.319,29.9,141.358C119.931,339.415,313.92,382.727,368.53,277.8Z" transform="matrix(-0.391, 0.921, -0.921, -0.391, 2203.101, 214.512)" fill="#d6e3f4"/>
    <path id="Path_8561" data-name="Path 8561" d="M918.8,409.726c-45.344,18.6-55.078,288.777,108.522,400.549,75,51.238,210.31,85.513,287.092,13.813,44.38-41.443,65.079-114.436,44.4-171.664-25.077-69.389-104.8-98.472-175.611-124.308-65.092-23.747-79.6-13.584-138.119-40.448C957.521,447.47,939.152,401.377,918.8,409.726Z" transform="translate(775.693 -532.429) rotate(-2)" fill="#ffcca9"/>
    <path id="Path_8562" data-name="Path 8562" d="M915.936,409.627c-40.825,16.749-49.588,259.993,97.706,360.625,67.521,46.131,189.348,76.989,258.477,12.436,39.956-37.312,58.592-103.029,39.972-154.554-22.578-62.473-94.351-88.657-158.107-111.918-58.6-21.38-71.665-12.23-124.352-36.417C950.8,443.609,934.26,402.111,915.936,409.627Z" transform="translate(769.229 -413.293) rotate(-8)" fill="none" stroke="#59316d" stroke-width="5"/>
  </g>
</svg>
