<svg xmlns="http://www.w3.org/2000/svg" xmlns:xlink="http://www.w3.org/1999/xlink" width="1277" height="858" viewBox="0 0 1277 858">
  <defs>
    <clipPath id="clip-path">
      <rect id="Rectangle_1367" data-name="Rectangle 1367" width="1277" height="858" transform="translate(278 222)" fill="#fff" stroke="#707070" stroke-width="1"/>
    </clipPath>
  </defs>
  <g id="Mask_Group_38" data-name="Mask Group 38" transform="translate(-278 -222)" clip-path="url(#clip-path)">
    <g id="freepik--background-simple--inject-409" transform="translate(928.662 359.557)" opacity="0.67">
      <path id="Path_8563" data-name="Path 8563" d="M1124.677,837.8c68.479-136.908,73.1-319.313,25.822-465.577-40.633-125.9-131.28-221.952-235.9-279.149C793.218,26.739,648.534,6.99,518.266,48.858c-34.264,11.01-67.615,21.106-99.929,39.2C285.9,162.24,311.447,345.04,264.988,408.606,225.91,462.1,151.136,446.327,104.011,487.33c-127.232,110.618-127.5,390.236,19.255,477.624C278.936,1057.7,955.06,1176.908,1124.677,837.8Z" transform="translate(-616.769 -125.892)" fill="#ede6f0"/>
    </g>
    <g id="freepik--background-simple--inject-409-2" data-name="freepik--background-simple--inject-409" transform="matrix(-0.485, -0.875, 0.875, -0.485, 736.012, 1505.925)">
      <path id="Path_8564" data-name="Path 8564" d="M909.956,801.828C965.235,670.993,968.961,496.679,930.8,356.9,898,236.588,824.826,144.8,740.374,90.135,642.391,26.746,525.6,7.873,420.439,47.883,392.78,58.4,365.858,68.054,339.773,85.346c-106.911,70.891-84.381,171.729-121.884,232.476C192.936,358.259,148.764,403.486,112.5,440.08c-9.5,9.591-18.513,18.636-26.464,26.826C-16.669,572.618-16.888,839.833,101.58,923.346,227.243,1011.977,773.035,1125.9,909.956,801.828Z" transform="translate(-10.769 -26.892)" fill="none" stroke="#59316d" stroke-width="5" opacity="0.8"/>
    </g>
  </g>
</svg>
