<svg xmlns="http://www.w3.org/2000/svg" width="303.339" height="242.217" viewBox="0 0 303.339 242.217">
  <g id="Group_1581" data-name="Group 1581" transform="translate(-837.04 -149.432)">
    <g id="Group_880" data-name="Group 880" transform="translate(842.04 154.431)">
      <g id="Path_5555" data-name="Path 5555" transform="translate(-969.786 -422.604)" fill="#fff">
        <path d="M 995.2640991210938 654.111083984375 L 999.9370727539062 647.025634765625 C 1006.030517578125 637.7863159179688 1011.484130859375 628.037353515625 1016.151977539062 618.040771484375 C 1007.104858398438 612.48779296875 1002.544921875 608.9713134765625 999.5755615234375 606.5185546875 C 993.789794921875 601.7393798828125 989.19189453125 596.7432861328125 985.5191040039062 591.2446899414062 C 981.8441162109375 585.742431640625 978.6529541015625 579.7781372070312 976.0342407226562 573.517333984375 C 973.5033569335938 567.4663696289062 971.48828125 561.095458984375 970.0451049804688 554.58154296875 C 968.6284790039062 548.1884765625 967.7470703125 541.633544921875 967.4254150390625 535.098876953125 C 967.0971069335938 528.4300537109375 967.3513793945312 521.7640991210938 968.1812744140625 515.2862548828125 C 969.0379638671875 508.599365234375 970.513916015625 502.0725708007812 972.568115234375 495.88720703125 C 974.7064208984375 489.4489135742188 977.4930419921875 483.3175659179688 980.8507690429688 477.6635437011719 C 984.2223510742188 471.9866027832031 988.2007446289062 466.6487426757812 992.675537109375 461.7980346679688 C 996.9512939453125 457.1630249023438 1001.792846679688 452.8509521484375 1007.065673828125 448.9814758300781 C 1012.080200195312 445.3015747070312 1017.617370605469 441.9247741699219 1023.523315429688 438.9449462890625 C 1029.1162109375 436.1230163574219 1035.188110351562 433.5823669433594 1041.5703125 431.3934936523438 C 1053.2392578125 427.391357421875 1066.376831054688 424.4151916503906 1080.618041992188 422.547607421875 C 1092.982055664062 420.9262084960938 1106.455200195312 420.1040649414062 1120.6630859375 420.1040649414062 C 1122.591674804688 420.1040649414062 1124.564208984375 420.1192321777344 1126.525756835938 420.1492004394531 C 1139.676025390625 420.3497924804688 1152.591918945312 421.7185363769531 1164.914672851562 424.2173767089844 C 1177.982177734375 426.8672485351562 1190.216430664062 430.7607727050781 1201.277465820312 435.7897644042969 C 1213.146728515625 441.1862487792969 1223.653564453125 447.8918151855469 1232.506103515625 455.7202758789062 C 1242.039672851562 464.1510620117188 1249.72509765625 473.9529113769531 1255.348754882812 484.8534851074219 C 1258.110717773438 490.2072448730469 1260.354736328125 495.9230346679688 1262.0185546875 501.8421936035156 C 1263.64013671875 507.611328125 1264.728759765625 513.6366577148438 1265.254150390625 519.7507934570312 C 1265.7705078125 525.7593383789062 1265.747802734375 531.9081420898438 1265.186889648438 538.0264282226562 C 1264.630126953125 544.0984497070312 1263.538940429688 550.1884765625 1261.943603515625 556.1273803710938 C 1260.343627929688 562.0835571289062 1258.22412109375 567.9337768554688 1255.643920898438 573.515625 C 1253.029663085938 579.171142578125 1249.919799804688 584.5999145507812 1246.400512695312 589.6510620117188 C 1242.802490234375 594.8151245117188 1238.738891601562 599.6381225585938 1234.322509765625 603.986083984375 C 1229.775268554688 608.462890625 1224.7958984375 612.4924926757812 1219.522827148438 615.962890625 C 1213.8564453125 619.6923217773438 1207.422729492188 623.0034790039062 1200.400390625 625.8043823242188 C 1194.032592773438 628.3441772460938 1186.983276367188 630.5424194335938 1179.4482421875 632.3380737304688 C 1166.976196289062 635.3101806640625 1152.841796875 637.2918090820312 1136.237426757812 638.3960571289062 C 1130.150756835938 638.8009643554688 1123.923706054688 639.0062866210938 1117.729370117188 639.0062866210938 C 1104.409423828125 639.0062866210938 1090.8330078125 638.0643920898438 1077.377075195312 636.2067260742188 C 1064.230224609375 634.3917236328125 1051.097778320312 631.6892700195312 1038.337036132812 628.173095703125 C 1032.45166015625 633.8759765625 1025.122802734375 638.435791015625 1018.697387695312 642.2701416015625 C 1013.778198242188 645.2058715820312 1008.516540527344 648.2742309570312 1003.03173828125 650.68994140625 L 995.2640991210938 654.111083984375 Z" stroke="none"/>
        <path d="M 1002.024047851562 648.4020385742188 C 1007.383911132812 646.0413208007812 1012.494445800781 643.0606689453125 1017.416259765625 640.1233520507812 C 1024.296630859375 636.0174560546875 1031.262329101562 631.6294555664062 1036.88330078125 626.0985107421875 C 1036.9111328125 626.07177734375 1036.941528320312 626.053955078125 1036.970825195312 626.0283203125 C 1036.994140625 626.007080078125 1037.019653320312 625.9893798828125 1037.043823242188 625.96923828125 C 1037.106323242188 625.9190063476562 1037.166870117188 625.868896484375 1037.231567382812 625.82861328125 C 1037.253540039062 625.8152465820312 1037.280029296875 625.805419921875 1037.303344726562 625.7918090820312 C 1037.563842773438 625.6487426757812 1037.835205078125 625.5842895507812 1038.101440429688 625.5842895507812 C 1038.268798828125 625.5842895507812 1038.434204101562 625.6097412109375 1038.593505859375 625.6571044921875 C 1038.616577148438 625.6624755859375 1038.637329101562 625.6624755859375 1038.661865234375 625.669189453125 C 1064.116088867188 632.7157592773438 1091.003784179688 636.5062255859375 1117.729248046875 636.5062255859375 C 1123.857055664062 636.5062255859375 1129.98046875 636.3067626953125 1136.071533203125 635.9015502929688 C 1163.9052734375 634.0504760742188 1195.004638671875 629.1072387695312 1218.1484375 613.8745727539062 C 1260.01904296875 586.31787109375 1274.966918945312 528.3341674804688 1253.126953125 485.9996948242188 C 1230.360961914062 441.8713989257812 1177.08154296875 423.420654296875 1126.487548828125 422.64892578125 C 1124.55615234375 422.6194458007812 1122.614379882812 422.6040954589844 1120.662963867188 422.6040954589844 C 1068.516235351562 422.6040954589844 1009.946166992188 433.5699157714844 983.0003051757812 478.9400634765625 C 969.6280517578125 501.4575805664062 966.9725341796875 529.1593017578125 972.4859008789062 554.040771484375 C 975.2720336914062 566.6160278320312 980.2750854492188 578.8922119140625 987.5979614257812 589.8560791015625 C 995.2335205078125 601.2872924804688 1006.007568359375 608.9191284179688 1018.020385742188 616.2532958984375 C 1018.674865722656 616.6524047851562 1018.895141601562 617.243408203125 1018.836608886719 617.8078002929688 C 1018.840270996094 618.0442504882812 1018.792541503906 618.2905883789062 1018.675842285156 618.5425415039062 C 1013.882141113281 628.8818969726562 1008.348815917969 638.8119506835938 1002.024047851562 648.4020385742188 M 988.5040283203125 659.8203735351562 L 997.8500366210938 645.6492919921875 C 1003.46826171875 637.1305541992188 1008.536071777344 628.1746826171875 1012.937316894531 618.989990234375 C 1005.005187988281 614.0276489257812 1000.798278808594 610.7711181640625 997.9834594726562 608.4459838867188 C 992.00732421875 603.5096435546875 987.2501831054688 598.3372192382812 983.440185546875 592.63330078125 C 979.6760864257812 586.9976806640625 976.408447265625 580.8907470703125 973.7279052734375 574.4821166992188 C 971.1398315429688 568.29443359375 969.0795288085938 561.7808837890625 967.604248046875 555.122314453125 C 966.1572875976562 548.5922241210938 965.2570190429688 541.8966674804688 964.9284057617188 535.2218017578125 C 964.5928344726562 528.40625 964.85302734375 521.5921020507812 965.7015380859375 514.9685668945312 C 966.57861328125 508.1222229003906 968.0906372070312 501.4371948242188 970.195556640625 495.0992431640625 C 972.3902587890625 488.4908752441406 975.2520141601562 482.1951904296875 978.7012939453125 476.3869934082031 C 982.1618041992188 470.5603332519531 986.2451782226562 465.0816040039062 990.8380126953125 460.1029052734375 C 995.2224731445312 455.3501281738281 1000.1845703125 450.9302673339844 1005.586608886719 446.9660034179688 C 1010.712280273438 443.2044982910156 1016.3681640625 439.7549133300781 1022.397155761719 436.7129516601562 C 1028.091552734375 433.8398132324219 1034.269409179688 431.2544555664062 1040.759155273438 429.0286865234375 C 1052.585571289062 424.9725952148438 1065.886596679688 421.9580993652344 1080.292846679688 420.0688781738281 C 1092.764282226562 418.4333801269531 1106.346801757812 417.6040954589844 1120.662963867188 417.6040954589844 C 1122.606079101562 417.6040954589844 1124.591430664062 417.6193542480469 1126.56396484375 417.6495056152344 C 1139.867797851562 417.8524169921875 1152.938110351562 419.2378234863281 1165.411499023438 421.7672424316406 C 1178.6640625 424.4546508789062 1191.079223632812 428.4068298339844 1202.312133789062 433.5139465332031 C 1214.40771484375 439.0132751464844 1225.12353515625 445.8544616699219 1234.162231445312 453.8475036621094 C 1243.928588867188 462.4841918945312 1251.804321289062 472.5304565429688 1257.570434570312 483.707275390625 C 1260.409545898438 489.2106323242188 1262.7158203125 495.08447265625 1264.425170898438 501.1656799316406 C 1266.089233398438 507.0856323242188 1267.206176757812 513.2666015625 1267.744995117188 519.5368041992188 C 1268.27392578125 525.6920776367188 1268.250854492188 531.9896850585938 1267.676391601562 538.2547607421875 C 1267.106689453125 544.46826171875 1265.990234375 550.69970703125 1264.35791015625 556.7759399414062 C 1262.72119140625 562.8690185546875 1260.552856445312 568.8540649414062 1257.913208007812 574.5646362304688 C 1255.237670898438 580.3526611328125 1252.054443359375 585.9093017578125 1248.451782226562 591.0802001953125 C 1244.765991210938 596.3703002929688 1240.602294921875 601.3118896484375 1236.076416015625 605.767578125 C 1231.413208007812 610.3585205078125 1226.306274414062 614.4913940429688 1220.897216796875 618.0512084960938 C 1215.090087890625 621.873291015625 1208.505493164062 625.2631225585938 1201.326538085938 628.1265258789062 C 1194.846435546875 630.7111206054688 1187.680419921875 632.9463500976562 1180.02783203125 634.7699584960938 C 1167.418212890625 637.7748413085938 1153.148559570312 639.7769165039062 1136.4033203125 640.8905639648438 C 1130.26171875 641.299072265625 1123.978759765625 641.5062255859375 1117.729125976562 641.5062255859375 C 1104.295288085938 641.5062255859375 1090.603759765625 640.556396484375 1077.035034179688 638.6831665039062 C 1064.246704101562 636.917724609375 1051.471801757812 634.3193359375 1039.033813476562 630.954833984375 C 1033.15771484375 636.3809814453125 1026.155517578125 640.7307739257812 1019.978515625 644.4169311523438 C 1014.99267578125 647.3924560546875 1009.654968261719 650.5045776367188 1004.039428710938 652.9778442382812 L 988.5040283203125 659.8203735351562 Z" stroke="none" fill="#59316d"/>
      </g>
    </g>
  </g>
</svg>
