<svg id="icone_home_-_neg" data-name="icone home - neg" xmlns="http://www.w3.org/2000/svg" width="29.311" height="29.051" viewBox="0 0 29.311 29.051">
  <path id="Path_4246" data-name="Path 4246" d="M37,22,23.262,8.315a.876.876,0,0,0-1.277,0L8.245,22a.858.858,0,0,0-.2.985.894.894,0,0,0,.839.566h3.284V36.177a.912.912,0,0,0,.912.912H32.166a.912.912,0,0,0,.912-.912V23.551h3.284a.894.894,0,0,0,.839-.566A.858.858,0,0,0,37,22ZM24.886,35.338H20.361V28.477h4.525Zm7.3-13.539a.912.912,0,0,0-.912.912V35.338H26.711V27.565a.912.912,0,0,0-.912-.912h-6.35a.912.912,0,0,0-.912.912v7.773H13.993V22.565a.912.912,0,0,0-.912-.912H11.092l11.532-11.4L34.155,21.726Z" transform="translate(-7.968 -8.038)" fill="#59316d"/>
</svg>
