<svg version="1.1" id="Layer_1" xmlns="http://www.w3.org/2000/svg" width="30" height="30" viewBox="0 0 30 30">
<g>
	<path id="Subtraction_1" fill="#59316D" d="M15,29.7c-2.41,0-4.41-1.88-4.54-4.29H4.9c-1.67,0.03-3.06-1.3-3.08-2.98
		c-0.03-1.67,1.3-3.06,2.98-3.08c0.04,0,0.07,0,0.11,0c0-0.02,0-6,0-6.06c0-4.22,2.61-7.99,6.56-9.47V3.68
		c0.09-1.95,1.75-3.46,3.7-3.37c1.83,0.08,3.29,1.55,3.37,3.37v0.13c0.47,0.17,0.92,0.38,1.36,0.63c-0.45,0.51-0.79,1.11-1,1.75
		c-0.52-0.29-1.07-0.51-1.65-0.68L16.51,5.3V3.68c-0.02-0.84-0.72-1.5-1.55-1.48c-0.81,0.02-1.46,0.67-1.48,1.48V5.3l-0.73,0.21
		c-3.46,1-5.84,4.17-5.83,7.77v6.06c0,1.12-0.9,2.02-2.02,2.02c-0.56-0.02-1.02,0.42-1.04,0.98c-0.02,0.56,0.42,1.02,0.98,1.04
		c0.02,0,0.04,0,0.06,0h20.2c0.56,0.02,1.02-0.42,1.04-0.98c0.02-0.56-0.42-1.02-0.98-1.04c-0.02,0-0.04,0-0.06,0
		c-1.11,0-2.02-0.91-2.02-2.02v-6.06c0-0.13,0-0.26-0.01-0.39c0.23,0.03,0.45,0.04,0.68,0.04c0.45,0,0.9-0.06,1.33-0.18
		c0.01,0.19,0.01,0.36,0.01,0.52v6.06c1.67-0.03,3.05,1.31,3.08,2.98c0.03,1.67-1.31,3.05-2.98,3.08c-0.04,0-0.07,0-0.11,0h-5.56
		C19.41,27.82,17.41,29.7,15,29.7z M12.49,25.41c0.13,1.39,1.36,2.41,2.75,2.28c1.21-0.11,2.16-1.07,2.28-2.28
		C17.52,25.41,12.49,25.41,12.49,25.41z"/>
	<circle id="Ellipse_75" fill="#59316D" cx="23.76" cy="7.81" r="3.26"/>
</g>
</svg>
