<svg version="1.1" id="Layer_1" xmlns="http://www.w3.org/2000/svg" width="30" height="30" viewBox="0 0 30 30">
<g>
	<path id="Caminho_8" fill="#59316D" d="M28.31,11.66l-1.86-0.25c-0.21-0.69-0.49-1.35-0.83-1.98l1.14-1.49
		c0.49-0.64,0.44-1.55-0.12-2.13l-2.48-2.48c-0.58-0.56-1.49-0.62-2.13-0.12l-1.46,1.17c-0.63-0.34-1.3-0.62-1.98-0.84L18.34,1.7
		c-0.1-0.81-0.79-1.41-1.61-1.39h-3.47c-0.8,0.01-1.48,0.6-1.61,1.39l-0.25,1.86c-0.69,0.21-1.35,0.49-1.98,0.84L7.98,3.24
		C7.33,2.75,6.43,2.81,5.84,3.37L3.37,5.84C2.8,6.42,2.75,7.33,3.24,7.97l1.14,1.49c-0.34,0.63-0.62,1.3-0.83,1.98L1.7,11.69
		c-0.81,0.1-1.42,0.79-1.4,1.61v3.5c0.01,0.8,0.6,1.48,1.39,1.61l1.86,0.25c0.21,0.69,0.49,1.35,0.83,1.98l-1.15,1.39
		c-0.49,0.64-0.44,1.55,0.12,2.13l2.48,2.47c0.58,0.56,1.49,0.61,2.13,0.12l1.49-1.14c0.63,0.34,1.3,0.62,1.98,0.83l0.25,1.86
		c0.1,0.81,0.79,1.41,1.61,1.39h3.5c0.8-0.01,1.48-0.6,1.61-1.39l0.25-1.86c0.69-0.21,1.35-0.49,1.98-0.83l1.49,1.14
		c0.64,0.49,1.55,0.44,2.13-0.12l2.48-2.48c0.58-0.58,0.63-1.49,0.12-2.13l-1.24-1.45c0.34-0.63,0.62-1.29,0.84-1.98l1.86-0.25
		c0.81-0.1,1.41-0.79,1.39-1.61v-3.47C29.7,12.47,29.11,11.78,28.31,11.66z M27.66,16.37l-2.13,0.28c-0.42,0.05-0.76,0.36-0.87,0.77
		c-0.25,0.95-0.62,1.87-1.11,2.72c-0.21,0.36-0.19,0.81,0.06,1.14l1.33,1.7l-1.95,1.92l-1.7-1.33c-0.33-0.25-0.79-0.27-1.14-0.06
		c-0.84,0.51-1.76,0.89-2.72,1.11c-0.41,0.1-0.72,0.45-0.77,0.87l-0.28,2.17h-2.72l-0.28-2.17c-0.05-0.42-0.36-0.77-0.77-0.87
		c-0.96-0.24-1.87-0.62-2.72-1.11c-0.36-0.21-0.81-0.19-1.14,0.06l-1.7,1.33L5.1,22.98l1.33-1.7c0.25-0.33,0.27-0.79,0.06-1.14
		c-0.51-0.84-0.88-1.76-1.11-2.72c-0.1-0.41-0.45-0.72-0.87-0.77l-2.13-0.28v-2.72l2.13-0.28c0.42-0.05,0.77-0.36,0.87-0.77
		c0.24-0.96,0.62-1.87,1.11-2.72c0.21-0.36,0.19-0.81-0.06-1.14L5.1,7.02L7.02,5.1l1.7,1.33C9.05,6.68,9.5,6.7,9.86,6.49
		c0.84-0.52,1.76-0.9,2.72-1.11c0.41-0.1,0.72-0.45,0.77-0.87l0.28-2.17h2.72l0.28,2.17c0.05,0.42,0.36,0.77,0.77,0.87
		c0.96,0.24,1.88,0.62,2.73,1.11c0.36,0.21,0.81,0.19,1.14-0.06l1.7-1.33l1.92,1.92l-1.33,1.7c-0.25,0.33-0.27,0.79-0.06,1.14
		c0.51,0.84,0.89,1.76,1.11,2.72c0.1,0.41,0.44,0.72,0.86,0.77l2.13,0.28v2.72L27.66,16.37z"/>
	<path id="Caminho_9" fill="#59316D" d="M15,7.79c-3.98,0-7.21,3.23-7.21,7.21s3.23,7.21,7.21,7.21s7.21-3.23,7.21-7.21
		C22.21,11.02,18.98,7.8,15,7.79z M15,20.17c-2.85,0-5.17-2.31-5.17-5.17S12.15,9.84,15,9.84s5.17,2.31,5.17,5.17
		C20.16,17.85,17.85,20.16,15,20.17L15,20.17z"/>
</g>
</svg>
