<svg xmlns="http://www.w3.org/2000/svg" width="30.774" height="30.773" viewBox="0 0 30.774 30.773">
  <path id="Path_8" data-name="Path 8" d="M31.82,14.388l-1.944-.259A11.743,11.743,0,0,0,29,12.056L30.2,10.5a1.721,1.721,0,0,0-.129-2.235L27.479,5.675a1.717,1.717,0,0,0-2.235-.129l-1.524,1.23A12.766,12.766,0,0,0,21.649,5.9l-.259-1.944A1.658,1.658,0,0,0,19.7,2.5H16.076a1.735,1.735,0,0,0-1.684,1.458L14.132,5.9a11.743,11.743,0,0,0-2.073.874l-1.522-1.2A1.721,1.721,0,0,0,8.3,5.706L5.711,8.3a1.717,1.717,0,0,0-.129,2.235l1.2,1.555a12.766,12.766,0,0,0-.874,2.073l-1.944.259A1.658,1.658,0,0,0,2.5,16.1v3.661a1.735,1.735,0,0,0,1.458,1.684l1.944.259a11.743,11.743,0,0,0,.874,2.073l-1.2,1.459a1.721,1.721,0,0,0,.129,2.235L8.3,30.067a1.72,1.72,0,0,0,2.235.129L12.091,29a12.766,12.766,0,0,0,2.073.874l.259,1.944a1.658,1.658,0,0,0,1.684,1.458h3.661a1.735,1.735,0,0,0,1.684-1.458l.259-1.944A11.743,11.743,0,0,0,23.785,29l1.555,1.2a1.721,1.721,0,0,0,2.235-.129l2.592-2.592a1.682,1.682,0,0,0,.129-2.235L29,23.718a11.646,11.646,0,0,0,.874-2.073l1.944-.259A1.658,1.658,0,0,0,33.278,19.7V16.073a1.711,1.711,0,0,0-1.458-1.684Zm-.681,4.924L28.9,19.6a1.074,1.074,0,0,0-.907.81,11.471,11.471,0,0,1-1.167,2.851,1.074,1.074,0,0,0,.065,1.2l1.393,1.782-2.04,2.009L24.467,26.86a1.08,1.08,0,0,0-1.2-.065,9.984,9.984,0,0,1-2.851,1.167,1.073,1.073,0,0,0-.81.907l-.291,2.268H16.465l-.291-2.268a1.074,1.074,0,0,0-.81-.907A10.981,10.981,0,0,1,12.513,26.8a1.077,1.077,0,0,0-1.2.065L9.532,28.253,7.524,26.245l1.393-1.782a1.08,1.08,0,0,0,.065-1.2,9.984,9.984,0,0,1-1.167-2.851,1.073,1.073,0,0,0-.907-.81l-2.235-.291V16.462l2.235-.291a1.074,1.074,0,0,0,.907-.81A10.981,10.981,0,0,1,8.982,12.51a1.074,1.074,0,0,0-.065-1.2L7.524,9.529,9.532,7.521l1.782,1.393a1.08,1.08,0,0,0,1.2.065,9.155,9.155,0,0,1,2.851-1.167,1.073,1.073,0,0,0,.81-.907l.291-2.268h2.851L19.606,6.9a1.074,1.074,0,0,0,.81.907,10.981,10.981,0,0,1,2.851,1.167,1.074,1.074,0,0,0,1.2-.065l1.782-1.393,2.008,2.008-1.393,1.782a1.08,1.08,0,0,0-.065,1.2,9.984,9.984,0,0,1,1.167,2.851,1.073,1.073,0,0,0,.907.81l2.235.291v2.851Z" transform="translate(-2.504 -2.5)" fill="#59316d"/>
</svg>
