<svg xmlns="http://www.w3.org/2000/svg" width="167.896" height="110.791" viewBox="0 0 167.896 110.791">
  <g id="Group_1580" data-name="Group 1580" transform="translate(-837 -149.758)">
    <g id="Group_880" data-name="Group 880" transform="translate(837 149.758)">
      <g id="Group_879" data-name="Group 879" transform="translate(5.025 4.279)">
        <path id="Path_5557" data-name="Path 5557" d="M1117.481,543.918c-11-.74-23.292-2.717-32.439-8.808-16.549-11.019-22.456-34.2-13.824-51.132,9-17.645,30.055-25.023,50.051-25.331,21.162-.327,45.662,3.688,56.71,22.509,5.285,9,6.335,20.08,4.156,30.029a42.536,42.536,0,0,1-5.974,14.321c-3.018,4.571-7.275,7.623-12.023,10.555a.635.635,0,0,0-.323.622.68.68,0,0,0,.063.294,91.981,91.981,0,0,0,6.581,11.94,56.1,56.1,0,0,1-6.083-3.31,40.236,40.236,0,0,1-7.694-5.607c-.011-.011-.024-.018-.034-.029s-.02-.016-.029-.024c-.025-.02-.049-.04-.074-.056l-.029-.015a.645.645,0,0,0-.51-.054l-.026,0A115.27,115.27,0,0,1,1117.481,543.918Z" transform="translate(-1020.33 -442.405)" fill="#ede6f0"/>
        <path id="Path_5556" data-name="Path 5556" d="M1031.833,505.259c10.737-.732,22.734-2.687,31.662-8.711,16.152-10.9,21.918-33.827,13.493-50.568-8.782-17.451-29.335-24.747-48.852-25.052-20.655-.323-44.568,3.647-55.352,22.26-5.158,8.9-6.183,19.859-4.056,29.7a42.373,42.373,0,0,0,5.829,14.163c2.946,4.52,7.1,7.538,11.736,10.439a.629.629,0,0,1,.315.615.673.673,0,0,1-.062.291,91.293,91.293,0,0,1-6.424,11.808,54.529,54.529,0,0,0,5.938-3.274,39.293,39.293,0,0,0,7.51-5.546c.011-.011.022-.018.034-.028s.019-.015.028-.023a.751.751,0,0,1,.073-.056l.028-.015a.625.625,0,0,1,.5-.053l.026,0A111.118,111.118,0,0,0,1031.833,505.259Z" transform="translate(-967.688 -420.911)" fill="#d6e3f4"/>
      </g>
      <path id="Path_5555" data-name="Path 5555" d="M1124,458.468c-4.469-8.643-12.486-15.073-21.943-18.919-9.805-3.987-20.549-5.157-31.2-5.333a42.92,42.92,0,0,0-8.463-6.987c-8.436-5.306-19.025-8.042-29.12-8.962a115.514,115.514,0,0,0-17.217-.028,87.892,87.892,0,0,0-17.072,2.392c-10.087,2.621-19.449,7.553-25.807,15.312-7.343,8.961-9.575,20.719-7.9,31.666a42.7,42.7,0,0,0,6.148,16.494c3.031,4.747,7.28,7.953,12.171,10.978a88.9,88.9,0,0,1-7.355,12.741.673.673,0,0,0,.8.953,45.176,45.176,0,0,0,8.274-4.118,42.649,42.649,0,0,0,7.54-5.366,117.346,117.346,0,0,0,28.781,4.119,39.1,39.1,0,0,0,6.551,6.137c8.763,6.48,20.618,8.691,31.568,9.7a114.959,114.959,0,0,0,40.419-3.7,42.6,42.6,0,0,0,7.541,5.367,45.2,45.2,0,0,0,8.274,4.118.673.673,0,0,0,.8-.953,88.866,88.866,0,0,1-7.354-12.74c4.2-2.586,8.092-5.31,10.957-9.2a40.867,40.867,0,0,0,6.478-13.933C1129.388,478.469,1128.707,467.579,1124,458.468Zm-16.055,52.964a88.736,88.736,0,0,0,6.455,11.574,55.271,55.271,0,0,1-5.967-3.209,39.417,39.417,0,0,1-7.545-5.436c-.01-.01-.022-.016-.032-.026s-.025-.019-.037-.029-.043-.034-.064-.048-.026-.013-.038-.019a.64.64,0,0,0-.491-.049l-.027,0a115.786,115.786,0,0,1-34.389,4.135c-9.871-.315-20.442-1.78-29.462-5.637a36.288,36.288,0,0,1-9.327-5.8,37.349,37.349,0,0,1-3.553-3.473c1.752,0,3.5-.035,5.245-.117,10.242-.484,21.357-2.088,30.488-6.581,18.049-8.882,25.77-30.646,20.238-48.147a37.513,37.513,0,0,0-7.373-13.012q.99.033,1.978.078c.351.016.7.035,1.054.051a96.332,96.332,0,0,1,16.185,1.873c9.962,2.207,19.479,6.612,26.135,13.887,7.855,8.587,10.491,20.178,9.1,31.143a41.851,41.851,0,0,1-5.564,16.188c-3.08,5.157-7.484,8.541-12.752,11.758a.611.611,0,0,0-.316.6A.639.639,0,0,0,1107.941,511.433Zm-115.134-13.5a.641.641,0,0,0-.5.052l-.028.014a.759.759,0,0,0-.073.054l-.028.023c-.011.01-.023.017-.034.027a39.441,39.441,0,0,1-7.546,5.436,55.228,55.228,0,0,1-5.967,3.209,88.851,88.851,0,0,0,6.455-11.575.646.646,0,0,0,.062-.285.611.611,0,0,0-.316-.6c-4.657-2.843-8.833-5.8-11.793-10.232a40.973,40.973,0,0,1-5.858-13.883c-2.137-9.645-1.108-20.383,4.076-29.112,10.836-18.245,34.865-22.137,55.62-21.82,19.612.3,40.265,7.451,49.09,24.557,8.466,16.41,2.672,38.887-13.559,49.568-8.971,5.9-21.026,7.821-31.816,8.538a114.327,114.327,0,0,1-37.759-3.966Z" transform="translate(-964.746 -417.931)" fill="#59316d"/>
    </g>
  </g>
</svg>
