<svg xmlns="http://www.w3.org/2000/svg" xmlns:xlink="http://www.w3.org/1999/xlink" width="1178.136" height="1178.254" viewBox="0 0 1178.136 1178.254">
  <defs>
    <clipPath id="clip-path">
      <path id="Path_8489" data-name="Path 8489" d="M827.545,602.437c50.874-101.712,54.3-237.224,19.183-345.887C816.541,163.018,749.2,91.658,671.474,49.165,581.3-.114,473.809-14.785,377.03,16.319,351.574,24.5,326.8,32,302.791,45.442,204.4,100.553,223.38,236.359,188.865,283.583c-29.032,39.742-84.583,28.023-119.593,58.485-94.523,82.18-94.725,289.914,14.3,354.837,100.73,60.013,541.677,244.562,725.231,96.191C835.658,771.393,811.288,634.939,827.545,602.437Z" transform="translate(753.394 1170.648) rotate(-150)" fill="#cbe7de"/>
    </clipPath>
  </defs>
  <g id="Group_1585" data-name="Group 1585" transform="translate(19.983 -196.738)">
    <g id="freepik--background-simple--inject-409" transform="translate(743.551 1374.992) rotate(-150)">
      <path id="Path_5521" data-name="Path 5521" d="M827.545,602.437c50.874-101.712,54.3-237.224,19.183-345.887C816.541,163.018,749.2,91.658,671.474,49.165,581.3-.114,473.809-14.785,377.03,16.319,351.574,24.5,326.8,32,302.791,45.442,204.4,100.553,223.38,236.359,188.865,283.583c-29.032,39.742-84.583,28.023-119.593,58.485-94.523,82.18-94.725,289.914,14.3,354.837C199.227,765.807,701.533,854.37,827.545,602.437Z" transform="translate(0 0)" fill="#d6e3f4"/>
      <path id="Path_5522" data-name="Path 5522" d="M827.545,602.437c50.874-101.712,54.3-237.224,19.183-345.887C816.541,163.018,749.2,91.658,671.474,49.165,581.3-.114,473.809-14.785,377.03,16.319,351.574,24.5,326.8,32,302.791,45.442c-98.393,55.111-77.658,133.5-112.173,180.727-22.964,31.436-63.617,66.6-96.991,95.044C84.88,328.67,76.589,335.7,69.271,342.069c-94.523,82.18-94.725,289.914,14.3,354.837C199.227,765.807,701.533,854.37,827.545,602.437Z" transform="translate(0 0)" fill="#d6e3f4" opacity="0.8"/>
    </g>
    <g id="freepik--background-simple--inject-409-2" data-name="freepik--background-simple--inject-409" transform="matrix(0.891, 0.454, -0.454, 0.891, 346.574, 283.58)">
      <path id="Path_5522-2" data-name="Path 5522" d="M827.545,602.437c50.874-101.712,54.3-237.224,19.183-345.887C816.541,163.018,749.2,91.658,671.474,49.165,581.3-.114,473.809-14.785,377.03,16.319,351.574,24.5,326.8,32,302.791,45.442c-98.393,55.111-77.658,133.5-112.173,180.727-22.964,31.436-63.617,66.6-96.991,95.044C84.88,328.67,76.589,335.7,69.271,342.069c-94.523,82.18-94.725,289.914,14.3,354.837C199.226,765.807,701.533,854.37,827.545,602.437Z" transform="translate(0 0)" fill="none" stroke="#59316d" stroke-width="4" opacity="0.8"/>
    </g>
    <g id="Mask_Group_31" data-name="Mask Group 31" transform="translate(-19.983 196.738)" clip-path="url(#clip-path)">
      <g id="freepik--character-2--inject-72" transform="translate(184.711 154.982)">
        <path id="Path_8423" data-name="Path 8423" d="M-3401.018,31.532l-46.365,106.019s63.273,48.33,58.485,68.053l-202.516-60.449,47.852-163.067Z" transform="translate(3740.393 1905.017)" fill="#263238"/>
        <path id="Path_8424" data-name="Path 8424" d="M-3560.779,11.919c0,1.011-4.89,1.437-9.461,4.628s-6.911,7.28-7.873,6.962,0-6.116,5.849-9.943S-3560.356,10.8-3560.779,11.919Z" transform="translate(3845.923 2023.949)" fill="#263238"/>
        <path id="Path_8425" data-name="Path 8425" d="M-3581.348,28.708c-.953,0-.9-5.315,3.3-10.046s9.41-5.32,9.568-4.52-3.561,3.027-6.911,6.911S-3580.337,28.924-3581.348,28.708Z" transform="translate(3871.165 2036.188)" fill="#263238"/>
        <path id="Path_8426" data-name="Path 8426" d="M-3485.382-7.628l-4.095,108.892s109.261,40.727,110.488,60.875l-211.4-.318-.585-170.137Z" transform="translate(3728.466 1944.654)" fill="#455a64"/>
        <path id="Path_8427" data-name="Path 8427" d="M-3560.323,14.978c0,1.011-4.252,2.714-7.762,7.07s-4.52,8.989-5.582,8.932-1.648-5.849,2.817-11.216S-3560.373,13.967-3560.323,14.978Z" transform="translate(3824.889 2039.073)" fill="#263238"/>
        <path id="Path_8428" data-name="Path 8428" d="M-3577.21,34.151c-.959,0-2.4-4.941.262-10.631s7.5-7.87,7.927-7.019-2.555,3.879-4.629,8.558S-3576.2,34.048-3577.21,34.151Z" transform="translate(3854.326 2046.43)" fill="#263238"/>
        <path id="Path_8429" data-name="Path 8429" d="M-3612.456-314.032s38.495,25.786,48.6,72.414c7.972,36.632,29.773,230.057,29.773,230.057l38.173,74.435-24.936,59.284h0a91.212,91.212,0,0,1-59.7-17.229l-16.753-12.175-30.784-45.616Z" transform="translate(4035.835 681.857)" fill="#fff"/>
        <path id="Path_8430" data-name="Path 8430" d="M-3592.723-63.039l-31.366-5.316s66.194-182.737,105.542-200.6l28.6-13.134v-.529l47.16-19.25,55.184-20.256h0l4.2-1.544-1.755,1.7,110.589,7.07,8.615,6.541,56.73,29.665h0s25.251,8.4,48.171,38.228,56.356,182.209,56.356,182.209l-74.17,30.517L-3197.31,95.4l47.109,235.054-404.079-7.711L-3466.924,78.6l-13.56-121.914Z" transform="translate(3624.089 642.046)" fill="#535c89"/>
        <g id="Group_1559" data-name="Group 1559" transform="translate(135.948 760.738)" opacity="0.3">
          <path id="Path_8431" data-name="Path 8431" d="M-3309.641-216.291a344.115,344.115,0,0,1-131.692,32.328c-15.953.636-33.338,0-46.951-8.774a107.006,107.006,0,0,0-17.013-11.221c-8.615-3.453-18.289-1.806-27.489-.8a185.7,185.7,0,0,1-64.066-4.2,17,17,0,0,1-8.666-4.038,6.165,6.165,0,0,1-.266-8.563,9.453,9.453,0,0,1,5.58-1.488l288.387-14.407Z" transform="translate(3607.385 237.45)"/>
        </g>
        <path id="Path_8432" data-name="Path 8432" d="M-3589.4-290.073c-.8,0-6.539,37.8-12.868,84.7s-10.9,85.071-10.153,85.071,6.537-37.8,12.867-84.7S-3588.656-289.965-3589.4-290.073Z" transform="translate(4049.251 780.822)" fill="#263238"/>
        <path id="Path_8433" data-name="Path 8433" d="M-3595.545-198.457a22.447,22.447,0,0,0,4.093-3.935c2.55-2.658,6.06-6.542,10.637-11.38l15.2-17.116c5.639-6.49,12.018-13.56,17.974-21.59a91.908,91.908,0,0,0,13.612-24.827,56.938,56.938,0,0,0,2.867-23.021,39.46,39.46,0,0,0-4.2-15,16.037,16.037,0,0,0-3.241-4.73,52.252,52.252,0,0,1,5.315,19.886,59.133,59.133,0,0,1-3.352,22.01,95.031,95.031,0,0,1-13.452,24.032c-5.847,7.922-12.118,14.992-17.706,21.533l-14.723,17.547c-4.148,5-7.445,9.092-9.728,11.96A27.666,27.666,0,0,0-3595.545-198.457Z" transform="translate(3903.922 656.987)" fill="#263238"/>
        <path id="Path_8434" data-name="Path 8434" d="M-3582.955-321.6a27.673,27.673,0,0,0,.636,6.434,90.529,90.529,0,0,0,4.945,17.013,154.165,154.165,0,0,0,33.232,47.853c15.575,16.479,29.982,31.1,40.46,41.63l12.493,12.385a30.742,30.742,0,0,0,4.837,4.31,27.873,27.873,0,0,0-4.041-5.054L-3502.3-210l-39.822-42.214a165.272,165.272,0,0,1-33.442-46.576A193.294,193.294,0,0,1-3582.955-321.6Z" transform="translate(3794.727 650.609)" fill="#263238"/>
        <path id="Path_8435" data-name="Path 8435" d="M-3444.977-252.712l-12.816,71.511,170.511,25.1-9.835,78.473s-210.6,11.539-233.942,6.382c-29.4-6.49-51.891-41.738-51.146-93.2.268-20.363,9.733-61.039,21.749-108.41Z" transform="translate(3591.882 851.923)" fill="#fff"/>
        <path id="Path_8436" data-name="Path 8436" d="M-3558.279-314.455c0,.318,3.718.426,10.051,2.4a56.945,56.945,0,0,1,23.288,14.884,68.827,68.827,0,0,1,17.808,36.581,102.094,102.094,0,0,1,1.17,24.4,164.732,164.732,0,0,1-4.2,26.053c-7.813,35.463-14.939,67.524-20.146,91.238-2.5,11.7-4.412,21.266-5.316,27.808-.585,3.294-1.011,5.849-1.227,7.6a8.857,8.857,0,0,0,0,2.709s.9-3.612,2.448-10.1,3.718-16.269,6.382-27.592c5.316-23.288,13.186-55.349,20.944-91.079a165.519,165.519,0,0,0,4.2-26.582,102.194,102.194,0,0,0-1.378-25.042,69.516,69.516,0,0,0-18.927-37.484,55.441,55.441,0,0,0-24.94-14.463,44.382,44.382,0,0,0-7.654-1.272A14.54,14.54,0,0,0-3558.279-314.455Z" transform="translate(3684.395 679.991)" fill="#263238"/>
        <path id="Path_8437" data-name="Path 8437" d="M-3615.427-197.482c0,.8,90.653,2.925,202.467,4.731s202.569,2.765,202.569,1.965-90.383-2.868-202.514-4.73S-3615.427-198.225-3615.427-197.482Z" transform="translate(3685.341 1162.172)" fill="#263238"/>
        <path id="Path_8438" data-name="Path 8438" d="M-3360.568-179.936l90.011,475.27a283.352,283.352,0,0,1-16.478,160.891l-190.98,462.561-150.575-96.025,154.19-457.246-97.621-405.458,31.9-169.87Z" transform="translate(3808.086 1112.35)" fill="#535c89"/>
        <path id="Path_8439" data-name="Path 8439" d="M-3311.672-55.94l-68.853,546.514-11.907,443.157-171.307,2.658s6.167-448.9,6.167-475.963V17.853a569.4,569.4,0,0,1-34.4-54.282c-9.836-19.671,0-117.979,0-117.979s36.528-74.81,174.553-51.891S-3311.672-55.94-3311.672-55.94Z" transform="translate(3685.442 1108.837)" fill="#535c89"/>
        <path id="Path_8440" data-name="Path 8440" d="M-3597.527,865.243a25.939,25.939,0,0,0,0-2.714,69.864,69.864,0,0,1,.376-8.081c.317-7.229.745-17.649,1.271-30.994.959-27.064,2.34-65.985,4.095-113.992s3.512-105.486,5.639-169.131c1.17-31.9,2.282-65.236,3.935-99.8s3.72-70.449,8.024-106.866c2.129-18.239,4.839-36.156,7.821-53.81s6.114-35.037,9.09-52.1c5.691-34.19,10.314-67.314,14.356-98.949,8.03-63.163,13.771-120.267,19.038-168.115s9.885-86.61,13.392-113.3c1.812-13.237,3.193-23.606,4.152-30.727.422-3.407.8-6.064,1.007-7.978a8.739,8.739,0,0,0,0-2.765,10.917,10.917,0,0,1-.53,2.714c-.532,1.806-.743,4.52-1.328,7.973-1.119,6.967-2.765,17.28-4.628,30.625-3.878,26.587-8.825,65.343-14.248,113.248s-11.482,104.9-19.62,168.013c-4.094,31.584-8.824,64.651-14.567,98.841-2.98,17.064-6,34.452-9.146,52.05s-5.633,35.678-7.762,53.964c-4.363,36.53-6.326,72.419-8.03,107.03s-2.708,68.053-3.771,99.847c-1.915,63.8-3.618,120.96-5.054,169.131s-2.446,87.036-3.19,114.043c-.319,13.4-.585,23.822-.745,31.051v8.029A6.756,6.756,0,0,0-3597.527,865.243Z" transform="translate(3890.537 1177.325)" fill="#263238"/>
        <path id="Path_8441" data-name="Path 8441" d="M-3579.937,829.03c.743,0,13.452-227.03,28.285-507.065s26.269-507.224,25.469-507.28-13.4,226.979-28.237,507.121S-3580.681,829.03-3579.937,829.03Z" transform="translate(3819.194 1213.538)" fill="#263238"/>
        <path id="Path_8442" data-name="Path 8442" d="M-3582.555-187.335a17.532,17.532,0,0,0,3.507,4.577,73.013,73.013,0,0,0,11.857,10.2,78.746,78.746,0,0,0,96.771-4.782,69.055,69.055,0,0,0,10.629-11.38,19.165,19.165,0,0,0,3.033-4.838,160.091,160.091,0,0,1-15.047,14.725,80.066,80.066,0,0,1-94.425,4.679A146.367,146.367,0,0,1-3582.555-187.335Z" transform="translate(3763.061 1179.51)" fill="#263238"/>
        <path id="Path_8443" data-name="Path 8443" d="M-3622.749,827.363l1.221-2.5,3.35-7.445,12.55-28.762c10.631-25.094,26.581-61.249,45.667-105.911s41.738-98.2,66.887-157.433,52.636-124.515,79.75-193.742c1.595-4.361,3.243-8.717,4.9-13.027a77.916,77.916,0,0,0,2.865-13.822,176.058,176.058,0,0,0,.853-27.49c-.691-18.183-2.763-35.94-5-53.169-4.89-34.77-11.221-68-17.706-99.529-13.078-63.112-27.065-119.415-39.08-166.627s-22.594-85.071-29.984-111.391l-8.666-30.142c-1.011-3.35-1.812-5.905-2.34-7.763a20.278,20.278,0,0,0-.908-2.663,8.886,8.886,0,0,0,.642,2.714c.636,1.755,1.168,4.52,2.072,7.87,1.915,7.07,4.629,17.224,8.189,30.307,7.02,26.264,17.223,64.333,29.08,111.652s25.576,103.572,38.5,166.627c6.433,31.528,12.653,64.759,17.489,99.426,2.238,17.331,4.255,35.037,4.948,53.164a178.3,178.3,0,0,1-1.115,26.638,69.672,69.672,0,0,1-2.714,13.186c-1.649,4.31-3.242,8.666-4.891,12.975-27.065,69.12-54.711,134.356-79.755,193.742s-47.478,112.771-66.353,157.644l-44.872,106.337c-5.313,12.493-9.25,22.226-12.066,28.921l-3.083,7.552A15.151,15.151,0,0,1-3622.749,827.363Z" transform="translate(3917.038 1177.453)" fill="#263238"/>
        <path id="Path_8444" data-name="Path 8444" d="M-3595.965-54.164c.745.959,10.632-11.005,21.9-26a208.053,208.053,0,0,0,19.353-28.126,219.527,219.527,0,0,0-21.265,26.582c-5.691,7.5-10.633,14.412-14.249,19.409A63.645,63.645,0,0,0-3595.965-54.164Z" transform="translate(3929.809 1531.712)" fill="#263238"/>
        <g id="Group_1560" data-name="Group 1560" transform="translate(325.709 1015.731)" opacity="0.3">
          <path id="Path_8445" data-name="Path 8445" d="M-3541.821-187.75l-24.774,424.6-22.384,37.218-8.136-33.6Z" transform="translate(3597.115 187.75)"/>
        </g>
        <g id="Group_1561" data-name="Group 1561" transform="translate(90.653 965.168)" opacity="0.3">
          <path id="Path_8446" data-name="Path 8446" d="M-3247.887-190.853l3.4,17.812h-367.707l1.859-24.564Z" transform="translate(3612.192 197.605)"/>
        </g>
        <path id="Path_8447" data-name="Path 8447" d="M-3208.914-255.005-3455.3-163.768l-207.728,31.741L-3416.059-252.4Z" transform="translate(3928.066 925.675)" fill="#263238"/>
        <path id="Path_8448" data-name="Path 8448" d="M-3626.082-192.617A104.576,104.576,0,0,1-3613-229.835a28.552,28.552,0,0,0,3.4-7.013,8.141,8.141,0,0,0-1.433-7.393c-3.142-3.4-8.934-1.913-12.818.693a45.342,45.342,0,0,0-16.587,23.231,135.832,135.832,0,0,0-5.315,28.5" transform="translate(4239.8 961.965)" fill="#ffbe9d"/>
        <path id="Path_8449" data-name="Path 8449" d="M-3599.275-205.233h12.074a23.852,23.852,0,0,1,10.629-6.167,8.466,8.466,0,0,1,8.088,3.191c-5.322-9.04-11.38-18.983-12.5-21.692-2.231-5.315,2.66-9.25,10.636-9.25s42.8,49.392,42.8,49.392-21.693-39.716-23.766-45.832c-5.322-15.151,11.323-16.269,17.332-8.932,7.5,9.04,37.695,54.764,37.695,54.764a21.259,21.259,0,0,1,1.81,18.075c-3.99,8.825-15.473,5.321-15.473,5.321a14.769,14.769,0,0,1-8.081,12.278c-8.825,4.895-20.471-.8-20.471-.8l-45.088,10.153-16.321-1.647a50.031,50.031,0,0,1-44.5-42.533h0Z" transform="translate(4116.917 950.815)" fill="#ffbe9d"/>
        <path id="Path_8450" data-name="Path 8450" d="M-3635.126-241.119a147.055,147.055,0,0,0,13.238,21.266c3.935,5.638,7.5,10.636,10.21,14.355a38.276,38.276,0,0,0,4.518,5.69,37.911,37.911,0,0,0-3.725-6.275c-2.44-3.771-5.952-8.932-9.836-14.566s-7.44-10.636-10.046-14.407l-3.14-4.31C-3634.7-240.642-3635.018-241.119-3635.126-241.119Z" transform="translate(4183.184 983.033)" fill="#eb996e"/>
        <path id="Path_8451" data-name="Path 8451" d="M-3607.319-191.391a40.972,40.972,0,0,0-3.986-7.337c-2.659-4.464-6.432-10.636-10.635-17.229-2.073-3.345-4.038-6.537-5.69-9.461a11.136,11.136,0,0,1-1.006-8.4,20.623,20.623,0,0,1,3.88-7.178,5.923,5.923,0,0,0-1.757,1.488,13.955,13.955,0,0,0-3.083,5.315,11.747,11.747,0,0,0,.8,9.25c1.65,3.084,3.614,6.275,5.688,9.625,4.152,6.752,8.081,12.709,10.955,17.013A67.965,67.965,0,0,0-3607.319-191.391Z" transform="translate(4158.034 983.549)" fill="#eb996e"/>
        <path id="Path_8452" data-name="Path 8452" d="M-3615.96-201.039a27.931,27.931,0,0,0-2.4-7.019l-3.247-7.337a59.794,59.794,0,0,1-3.29-9.143,10.627,10.627,0,0,1,1.431-8.774,7.547,7.547,0,0,1,3.188-2.288,8.722,8.722,0,0,1,3.351-.954,14.181,14.181,0,0,1,4.9,1.7c1.112.585,1.806.852,1.806.744s-.479-.528-1.546-1.221a19.36,19.36,0,0,0-2.014-1.221,8.118,8.118,0,0,0-3.142-1.011,10.171,10.171,0,0,0-3.827.852,10.226,10.226,0,0,0-3.774,2.55,11.748,11.748,0,0,0-1.757,9.943,49.682,49.682,0,0,0,3.51,9.3c1.276,2.765,2.5,5.32,3.458,7.286C-3617.238-203.589-3616.177-200.988-3615.96-201.039Z" transform="translate(4143.019 997.717)" fill="#eb996e"/>
        <path id="Path_8453" data-name="Path 8453" d="M-3607.031-238.756a5.008,5.008,0,0,0-1.914.585,22.409,22.409,0,0,0-4.68,2.765,25.572,25.572,0,0,0-7.285,32.646,19.817,19.817,0,0,0,3.084,4.515c.851.959,1.435,1.385,1.487,1.334a39.658,39.658,0,0,1-3.668-6.275,26,26,0,0,1,7.018-31.476C-3609.588-237.535-3606.662-238.546-3607.031-238.756Z" transform="translate(4125.743 992.794)" fill="#eb996e"/>
        <path id="Path_8454" data-name="Path 8454" d="M-3643.635-243.813a257.609,257.609,0,0,0,21.59,31.9A267.966,267.966,0,0,0-3643.635-243.813Z" transform="translate(4241.72 971.905)" fill="#eb996e"/>
        <path id="Path_8455" data-name="Path 8455" d="M-3604.81-217.257l28.125-6.383,27.172-25.468a19.333,19.333,0,0,1,12.067-5.315l49.232-2.817a19.278,19.278,0,0,1,13.505,4.52L-3439.516-223l-153.6,74.963-21.267,1.862Z" transform="translate(3909.094 916.32)" fill="#ffbe9d"/>
        <path id="Path_8456" data-name="Path 8456" d="M-3610.276-249.538s3.671-.426,9.518-1.17a41.245,41.245,0,0,1,22.277,2.288,59.25,59.25,0,0,1,10.633,6.644c3.084,2.34,5.9,4.52,8.349,6.167a49.905,49.905,0,0,0,6.112,3.561,7.912,7.912,0,0,0,2.395.852,59.96,59.96,0,0,1-7.923-5.315c-2.338-1.755-5.318-3.986-8.186-6.382a54.78,54.78,0,0,0-10.637-6.911,32.652,32.652,0,0,0-12.6-2.817,55.445,55.445,0,0,0-10.628.8,69.877,69.877,0,0,0-6.86,1.437A8.282,8.282,0,0,0-3610.276-249.538Z" transform="translate(3999.519 935.467)" fill="#eb996e"/>
        <path id="Path_8457" data-name="Path 8457" d="M-3603.446-244.852a28.878,28.878,0,0,1,5.315-.96,27.887,27.887,0,0,1,12.659,1.755,64.761,64.761,0,0,1,11.588,5.957,23.8,23.8,0,0,0,4.78,2.658,19,19,0,0,0-4.2-3.509A48.609,48.609,0,0,0-3585-245.385a25.13,25.13,0,0,0-13.238-1.432A11.08,11.08,0,0,0-3603.446-244.852Z" transform="translate(3982.587 958.163)" fill="#eb996e"/>
        <path id="Path_8458" data-name="Path 8458" d="M-3588.1-225.344c.319,0,4.306-5.69,9.519-12.652a157.8,157.8,0,0,0,9.41-12.76A95.065,95.065,0,0,0-3588.1-225.344Z" transform="translate(3903.92 943.226)" fill="#eb996e"/>
        <path id="Path_8459" data-name="Path 8459" d="M-3538.861-201.57l-62.418-58.109a5.951,5.951,0,0,1-.319-8.414,5.861,5.861,0,0,1,.743-.677h0a5.952,5.952,0,0,1,7.6.267l73.209,65.605" transform="translate(3932.201 863.677)" fill="#535c89"/>
        <g id="Group_1562" data-name="Group 1562" transform="translate(329.013 593.662)" opacity="0.3">
          <path id="Path_8460" data-name="Path 8460" d="M-3538.861-201.57l-62.418-58.109a5.951,5.951,0,0,1-.319-8.414,5.861,5.861,0,0,1,.743-.677h0a5.952,5.952,0,0,1,7.6.267l73.209,65.605" transform="translate(3603.187 270.014)"/>
        </g>
        <path id="Path_8461" data-name="Path 8461" d="M-3422.209-285.431a74.435,74.435,0,0,0-16.43-66.139,97.041,97.041,0,0,0-45.3-26.956,104.849,104.849,0,0,0-70.284,1.6c-22.069,9.3-39.985,29.881-42.538,53.646-1.115,10.636.851,22.067-2.6,32.38a24.054,24.054,0,0,0-2.714,13.612,11.212,11.212,0,0,0,9.727,7.388,25.266,25.266,0,0,0,12.55-2.55,135.7,135.7,0,0,0,35.678-25.627" transform="translate(3827.245 393.58)" fill="#263238"/>
        <path id="Path_8462" data-name="Path 8462" d="M-3421.815-304.773c-2.18-33.708-24.616-74.964-58.166-71.352l-104.741,26.587a19.775,19.775,0,0,0-17.6,20.04l11.748,252.709h0l68.593,81.4s43.808-50.988,46.575-66.462h0a43.228,43.228,0,0,0,.745-5.315,165.35,165.35,0,0,0,.419-34.668h0v-28.6c0,.159,43.016-7.229,51.789-63.374C-3417.882-221.565-3419.366-267.34-3421.815-304.773Z" transform="translate(3827.22 424.461)" fill="#ffbe9d"/>
        <path id="Path_8463" data-name="Path 8463" d="M-3584.233-349.219a7.278,7.278,0,0,1-6.96,7.286,6.966,6.966,0,0,1-7.444-6.454v-.031a7.226,7.226,0,0,1,6.96-7.286,6.9,6.9,0,0,1,7.434,6.347Z" transform="translate(3973.049 509.634)" fill="#263238"/>
        <path id="Path_8464" data-name="Path 8464" d="M-3571.372-351.672c-.853.954-6.328-3.084-14.09-3.032s-13.4,3.935-14.253,2.976.483-2.124,2.982-3.93a19.49,19.49,0,0,1,11.374-3.566,19.232,19.232,0,0,1,11.223,3.617C-3571.746-353.8-3570.895-352.1-3571.372-351.672Z" transform="translate(3966.891 495.182)" fill="#263238"/>
        <path id="Path_8465" data-name="Path 8465" d="M-3569.43-349.216a7.237,7.237,0,0,1-6.915,7.286,6.91,6.91,0,0,1-7.432-6.347l-.011-.139a7.178,7.178,0,0,1,6.911-7.285,6.857,6.857,0,0,1,7.429,6.239Z" transform="translate(3882.062 509.63)" fill="#263238"/>
        <path id="Path_8466" data-name="Path 8466" d="M-3556.478-351.355c-.9.9-6.375-3.083-14.088-3.083s-13.453,3.935-14.3,2.976.48-2.124,2.98-3.935a20.223,20.223,0,0,1,11.429-3.5,18.83,18.83,0,0,1,11.216,3.561C-3556.847-353.479-3556.051-351.781-3556.478-351.355Z" transform="translate(3875.857 496.511)" fill="#263238"/>
        <path id="Path_8467" data-name="Path 8467" d="M-3590.684-294.279a52.086,52.086,0,0,1,12.6-2.288c1.966,0,3.829-.636,4.146-1.965a9.936,9.936,0,0,0-1.329-5.849c-1.864-4.787-3.827-9.784-5.85-15.048-8.187-21.267-14.088-39.08-13.235-39.4s8.188,16.8,16.377,38.228l5.632,15.151a11.442,11.442,0,0,1,1.011,7.763,4.847,4.847,0,0,1-3.242,2.873,11.758,11.758,0,0,1-3.351.477A49.407,49.407,0,0,1-3590.684-294.279Z" transform="translate(3938.299 496.806)" fill="#263238"/>
        <path id="Path_8468" data-name="Path 8468" d="M-3516.459-312.379A142.492,142.492,0,0,1-3591.7-332.26s18.982,38.808,75.128,33.441Z" transform="translate(3869.656 606.564)" fill="#eb996e"/>
        <path id="Path_8469" data-name="Path 8469" d="M-3567.052-338.269a13.931,13.931,0,0,0-12.5-5.315,12.811,12.811,0,0,0-8.826,4.782,8.031,8.031,0,0,0-.585,9.2,9.309,9.309,0,0,0,10.159,2.555,29.373,29.373,0,0,0,9.885-5.905,8.367,8.367,0,0,0,2.233-2.34,2.547,2.547,0,0,0,0-2.868" transform="translate(3911.424 559.456)" fill="#eb996e"/>
        <path id="Path_8470" data-name="Path 8470" d="M-3589.706-345.192c1.219,0,1.272,8.347,8.451,14.3s15.949,5,16.269,6.167-2.023,1.652-5.793,1.755a21.275,21.275,0,0,1-13.56-4.679,18.6,18.6,0,0,1-6.595-12.016C-3591.25-343.176-3590.291-345.249-3589.706-345.192Z" transform="translate(3914.568 553.142)" fill="#263238"/>
        <path id="Path_8471" data-name="Path 8471" d="M-3550.414-355.523c-.744,2.124-8.508,1.113-17.6,2.232s-16.436,3.617-17.656,1.755c-.532-.9.744-2.873,3.726-4.946a30.733,30.733,0,0,1,26.581-3.032C-3551.8-357.97-3550.1-356.324-3550.414-355.523Z" transform="translate(3873.255 486.857)" fill="#263238"/>
        <path id="Path_8472" data-name="Path 8472" d="M-3573.03-355.77c-1.381,1.755-6.7,0-13.131,0s-11.856,1.221-13.084-.636c-.583-.852.268-2.658,2.656-4.31a18.367,18.367,0,0,1,10.638-2.924,18.68,18.68,0,0,1,10.635,3.509C-3573.192-358.479-3572.448-356.672-3573.03-355.77Z" transform="translate(3965.677 476.894)" fill="#263238"/>
        <path id="Path_8473" data-name="Path 8473" d="M-3595.37-187.768c14.567,6.008,27.54-38.87,40.885-47.217s26.581,20.1,27.859,4.361c.9-13.822-3.724-29.029,3.452-40.937,9.519-15.951,34.243-16.326,43.87-31.9,5.313-9.092,4.463-21.267,10.629-30.04s15.951-11.7,26.11-13.237,20.308-1.914,29.294-6.49,15.948-14.992,12.655-24.458a532.95,532.95,0,0,0-126.118,5.849c-9.674,1.652-19.884,3.827-26.581,10.636s-9.091,18.342-10.635,28.6c-7.336,49.926-23.875,94.855-31.154,144.776" transform="translate(3771.838 413.156)" fill="#263238"/>
        <path id="Path_8474" data-name="Path 8474" d="M-3350.93-258.643c-2.816-32.913-22.594-74.435-52.527-88.688s-65.185-15.628-92.459,3.14c-29.454,20.256-37.218,54.39-40.994,89.96s1.863,48.382,10.155,83.208l3.565,76.616c-20.58,23.447-47.479-3.084-51.416-4.946s-18.448-26.587-20.52-30.307c-21.267-40.091,11.59-45.991,5.951-68.535a109.283,109.283,0,0,1,4.2-68.319c4.252-10.1,10.261-19.512,13.663-29.881,3.778-11.38,4.311-23.714,9.04-34.719a63.42,63.42,0,0,1,27.117-28.922,131.079,131.079,0,0,1,37.8-13.56c30.36-6.8,50.512-18.5,79.752-7.814s49.607,26.053,63.22,64.174a138.273,138.273,0,0,1,3.508,58.484" transform="translate(3757.239 385.724)" fill="#535c89"/>
        <path id="Path_8475" data-name="Path 8475" d="M-3414.666-337.478a15.311,15.311,0,0,0-1.81-3.14,69.205,69.205,0,0,0-6.324-8.291,96.7,96.7,0,0,0-30.252-23.447,95.09,95.09,0,0,0-55.724-9.2,98.832,98.832,0,0,0-60.555,32.805,128.665,128.665,0,0,0-27.333,63.8,210.114,210.114,0,0,0-2.072,56.786A119.219,119.219,0,0,0-3589-190.947a75.074,75.074,0,0,0,4.837,9.251,14.745,14.745,0,0,0,2.073,2.976,123.1,123.1,0,0,1-5.954-12.652,128.3,128.3,0,0,1-8.776-36.792,216.635,216.635,0,0,1,2.658-56.144,127.2,127.2,0,0,1,26.955-62.209,97.262,97.262,0,0,1,58.808-31.9,93.835,93.835,0,0,1,54.5,8.455A100.043,100.043,0,0,1-3423.6-347.58C-3417.8-341.572-3414.881-337.319-3414.666-337.478Z" transform="translate(3809.281 399.215)" fill="#263238"/>
        <path id="Path_8476" data-name="Path 8476" d="M-3567.532-327.39c0,.267,1.915,2.868,6.645,5.315a35.673,35.673,0,0,0,20.471,4.253,36.084,36.084,0,0,0,19.244-8.081c4.1-3.509,5.741-6.485,5.316-6.7s-2.5,2.181-6.695,5.316a37.486,37.486,0,0,1-37.594,3.673C-3564.713-325.692-3567.27-327.708-3567.532-327.39Z" transform="translate(3745.011 605.096)" fill="#263238"/>
        <path id="Path_8477" data-name="Path 8477" d="M-3566.9-321.019a123.776,123.776,0,0,0,12.391-10.636,122.28,122.28,0,0,0,12.709-9.995,31.268,31.268,0,0,0-14.463,7.865A30.8,30.8,0,0,0-3566.9-321.019Z" transform="translate(3767.767 567.782)" fill="#263238"/>
        <path id="Path_8478" data-name="Path 8478" d="M-3563.353-328.192a35.275,35.275,0,0,1,5.315-13.345,34.86,34.86,0,0,1,11.914-8.24c0-.318-1.863-.641-4.735,0a19.069,19.069,0,0,0-9.36,6.326,19.365,19.365,0,0,0-4.254,10.631C-3564.364-329.839-3563.673-328.141-3563.353-328.192Z" transform="translate(3759.651 532.684)" fill="#263238"/>
        <path id="Path_8479" data-name="Path 8479" d="M-3563.545-342.555c.694.37,2.659-2.391,5.9-4.679s6.332-3.458,6.224-4.254-4.043-.851-7.872,2.022S-3564.236-342.821-3563.545-342.555Z" transform="translate(3761.171 525.195)" fill="#263238"/>
        <path id="Path_8480" data-name="Path 8480" d="M-3569.63-376.925c-.266.749,1.966,2.18,4.516,4.094s4.575,3.668,5.32,3.191-.64-3.191-3.567-5.315S-3569.419-377.612-3569.63-376.925Z" transform="translate(3799.692 420.9)" fill="#263238"/>
        <path id="Path_8481" data-name="Path 8481" d="M-3570.437-377.48c-.483.585.527,2.34,2.34,3.879s3.667,2.4,4.144,1.811-.532-2.34-2.338-3.884S-3569.91-378.065-3570.437-377.48Z" transform="translate(3808.58 419.012)" fill="#263238"/>
        <path id="Path_8482" data-name="Path 8482" d="M-3529.795-336.617c0-4.2-4.89-14.038-8.983-14.678-11.063-1.7-30.945-.744-31.052,27.223,0,38.279,38.28,30.573,38.386,29.455S-3529.74-322.21-3529.795-336.617Z" transform="translate(3770.807 525.799)" fill="#ffbe9d"/>
        <path id="Path_8483" data-name="Path 8483" d="M-3550.222-318.842s-.691.426-1.811.959a6.58,6.58,0,0,1-5,0,16.594,16.594,0,0,1-7.549-14.838,22.721,22.721,0,0,1,1.914-9.517,7.654,7.654,0,0,1,5.05-5.315,3.352,3.352,0,0,1,3.933,1.862c.479,1.062.268,1.806.427,1.862s.851-.585.528-2.18a3.927,3.927,0,0,0-1.487-2.4,4.8,4.8,0,0,0-3.669-1.011,9.328,9.328,0,0,0-7.02,5.905,22.388,22.388,0,0,0-2.338,10.631c0,7.763,4.149,15,9.625,16.592a7.042,7.042,0,0,0,6.116-.959C-3550.277-317.939-3550.062-318.791-3550.222-318.842Z" transform="translate(3777.943 535.509)" fill="#eb996e"/>
        <path id="Path_8484" data-name="Path 8484" d="M-3591.348-344.333s44.927,40.353,88.254,34.4,58.483-34.4,58.483-34.4,6.86,41.415-12.331,61.942c-21.266,22.754-30.994,29.029-76.134,21.267s-69.546-58.91-69.546-58.91Z" transform="translate(3852.673 556.695)" fill="#fff"/>
        <path id="Path_8485" data-name="Path 8485" d="M-3573.881-350.8a78.475,78.475,0,0,0,10.635,17.921,79.251,79.251,0,0,0,12.92,16.372,82.638,82.638,0,0,0-10.634-17.916A79.663,79.663,0,0,0-3573.881-350.8Z" transform="translate(3812.127 529.982)" fill="#f5f5f5"/>
        <path id="Path_8486" data-name="Path 8486" d="M-3571.6-339.885c0,.8,4.2,1.6,9.25,2.765s9.142,2.34,9.461,1.6-3.512-3.032-8.876-4.253S-3571.6-340.628-3571.6-339.885Z" transform="translate(3802.996 572.236)" fill="#f5f5f5"/>
        <path id="Path_8487" data-name="Path 8487" d="M-3602.379-340.487a29.153,29.153,0,0,0,4.146,4.838,121.4,121.4,0,0,0,13.024,11.431,100.615,100.615,0,0,0,52.584,21.692,71.769,71.769,0,0,0,53.488-17.973,49.566,49.566,0,0,0,10.63-13.714,22.415,22.415,0,0,0,2.446-5.9,77.612,77.612,0,0,1-14.4,18.183,72.1,72.1,0,0,1-52,16.638,105.43,105.43,0,0,1-51.68-20.466C-3595.787-334.212-3602.009-340.861-3602.379-340.487Z" transform="translate(3874.072 572.52)" fill="#263238"/>
        <path id="Path_8488" data-name="Path 8488" d="M-3596.8-334.931a37.205,37.205,0,0,0,10.629,7.5,85.466,85.466,0,0,0,61.835,6.967,38.724,38.724,0,0,0,12.123-4.946c0-.426-4.837,1.38-12.6,3.027a96.322,96.322,0,0,1-60.4-6.8C-3592.45-332.54-3596.544-335.356-3596.8-334.931Z" transform="translate(3891.625 595.356)" fill="#263238"/>
      </g>
    </g>
  </g>
</svg>
