<svg xmlns="http://www.w3.org/2000/svg" width="235.27" height="230.11" viewBox="0 0 235.27 230.11">
  <g id="Group_879" data-name="Group 879" transform="translate(-978.47 -275.447)">
    <path id="Path_1" data-name="Path 1" d="M1571.657,330.757c-3.448,60.005-48.806,105.7-108.829,108.829C1391.757,443.287,1354,390.861,1354,330.757s37.757-104.387,108.828-108.829C1522.816,218.179,1575.359,266.348,1571.657,330.757Z" transform="translate(-358.102 58.046)" fill="#d6e3f4"/>
    <path id="Path_2" data-name="Path 2" d="M1338,453.547l57.458-87.593L1433.5,304s4.565,6.175,3.023,9.011-5.244,50.956-32.636,59.1c0,0-39.238,85.878-42.939,88.84S1338.74,465.392,1338,453.547Z" transform="translate(-353.947 36.681)" fill="#8099af"/>
    <path id="Path_3" data-name="Path 3" d="M1483,306.663l10.85,16.3-5.667-20,11.425,15.754-6.242-17.235,15.547,21.47L1500.028,300s20.729,35.536,18.508,39.237,9.972,34.728,22.014,54.38,51.279,55.929,38.693,68.515-33.143-36.011-33.143-36.011-30.035-68.231-35.833-74.226l-7.754-3.459-6.094-4.482-12.678-25.446Z" transform="translate(-391.599 37.72)" fill="#8099af"/>
    <g id="TxaKGi" transform="translate(978.47 275.447)">
      <g id="Group_3" data-name="Group 3">
        <path id="Path_9" data-name="Path 9" d="M1525.229,409.105c3.822,5.785,7.7,11.292,11.157,17.054a29.043,29.043,0,0,1,3.446,8.835c.947,4.526-1.23,8.065-5.362,10a9.191,9.191,0,0,1-11.222-2.271,57.688,57.688,0,0,1-9.332-14.883c-.97-2.106-1.823-4.268-2.773-6.506-22.13,15.808-46.546,24.244-73.808,22.716-27.212-1.524-50.607-12.558-71.281-30.143-1.6,3.24-3.174,6.526-4.845,9.759-2.43,4.7-4.274,9.758-7.9,13.755-3.119,3.436-6.909,5.533-11.7,4.551-5.488-1.127-7.5-6.858-4.278-11.383,6.188-8.692,12.273-17.458,18.4-26.2.26-.371.483-.768.631-1.006-2.852-4.54-5.826-8.868-8.386-13.429-7.038-12.544-12.7-25.649-15.474-39.864a114.6,114.6,0,0,1,14.5-80.526c12.655-20.7,30.5-35.379,52.8-44.7a112.931,112.931,0,0,1,47.068-8.939c22.706.62,43.31,7.755,61.9,20.7,17.748,12.361,31.177,28.335,39.7,48.285a111.588,111.588,0,0,1,8.54,35.257,116.128,116.128,0,0,1-4.994,44.626,109.851,109.851,0,0,1-25.941,43.39C1525.766,408.518,1525.462,408.854,1525.229,409.105Zm-18.212-166.58-.319.141c-.852-1.141-1.653-2.322-2.562-3.417-6.322-7.617-14.6-12.315-23.747-15.594a104.784,104.784,0,0,0-48.569-5.173,112.632,112.632,0,0,0-56.429,22.8c-19.774,15.28-32.329,35.361-38.773,59.371a112.057,112.057,0,0,0-2.651,46c2.9,19.463,10.852,36.744,22.978,52.164.409.52.862,1.007,1.332,1.552a8.377,8.377,0,0,0,.557-.684q9.721-15.621,19.453-31.237a1.991,1.991,0,0,0,.011-2.325,74.219,74.219,0,0,1-9.055-32.692,71.21,71.21,0,0,1,11.807-42.678c19.634-30.343,55.343-41.364,87.907-30.277,24.311,8.278,39.845,25.578,47.7,49.853a58.574,58.574,0,0,1,2.673,25.686c-1.786,13.839-7.124,26.348-14.922,37.842a1.933,1.933,0,0,0-.115,2.436c3.251,5.5,6.333,11.1,9.687,16.536,3.137,5.083,6.54,10,10.013,15.277,20.012-21.952,31.112-47.281,31.473-76.81.315-25.734-7.3-49.1-22.577-70.122.117,2.331.219,4.378.322,6.424-1.675-7.722-5.14-14.207-11.381-19.17l1.25,5.435a33.042,33.042,0,0,1-2.11-3.475c-.724-1.227-1.5-2.426-2.334-3.582-.757-1.053-1.617-2.031-2.716-3.4.864,2.7,1.562,4.887,2.26,7.07-3.708-6.517-6.519-10.261-8.357-10.793l2.682,6.479c-4.064-6.1-7.03-9.636-9.243-10.575C1504.5,237.875,1505.758,240.2,1507.017,242.525Zm-90.458,153.086a16.248,16.248,0,0,0,10.445,5.5c-.388-.979-.71-1.791-1.031-2.6l.255-.153,4.883,3.838.206-1.924c2.545,2.7,5.438,4.044,9.008,3.617a10.368,10.368,0,0,1-6.049-4.1l9.845,4.227-2.752-3.1c3.5,2,6.78,4.153,11.026,3.076-2.429-.288-4.7-.891-6.276-3.069l3.977,1.624c-.13-.541-.236-.982-.365-1.516l5.645,2.164-1.812-2.526,5.979,1.772-1.626-2.552,5.278,1.5-1.394-2.18,5.946.869-1.587-2.251h4.8l.048-.477-4.223-1.464c.053-.185.053-.269.085-.283.411-.188.822-.375,1.24-.544,10.252-4.147,19.944-9.106,26.892-18.166a1.965,1.965,0,0,0,.346-2.4c-1.337-2.836-2.542-5.733-3.848-8.583-3.611-7.88-7.148-15.8-10.905-23.605-3.089-6.419-7.847-11.1-14.788-13.426a18.973,18.973,0,0,1-10.262-8.66,122.707,122.707,0,0,1-10.64-23.682c-1.267-3.709-1.964-7.613-2.92-11.428l.586-.19,14.02,23.982.326-.167-9.371-26.645.6-.429a14.784,14.784,0,0,1,2.027,2.365c3.178,5.8,6.186,11.7,9.452,17.45a43.41,43.41,0,0,0,4.243,5.374l.53-.375c-.14-.344-.267-.694-.422-1.03-2.877-6.21-5.788-12.4-8.619-18.635a12.5,12.5,0,0,1-1.433-7.156l15.051,22.893a.732.732,0,0,0,.031-.707q-3.037-6.792-6.08-13.581c-1.231-2.76-2.482-5.513-3.644-8.3-.511-1.227-.8-2.535.474-3.754.369.464.6.711.783.991q9.772,15.283,19.531,30.576A12.42,12.42,0,0,1,1481.206,320a11.636,11.636,0,0,0,.243,9.8c3.682,7.972,7.389,15.933,11.187,23.85,2.368,4.935,4.9,9.793,7.422,14.653.239.461,1.064,1.064,1.4.953a13.1,13.1,0,0,0,6.011-4.341l-4.858,1.484,7.143-5.512-.269-.4-3.211.642,5.943-4.914H1509.4l3.836-4.509-.36-.376-2.625,1.07,4.451-5.273-.2-.2-2.376.9,4.051-6.1-2.955.871c.615-.732,1.06-1.181,1.4-1.7a3.309,3.309,0,0,0,.563-1.317,16.868,16.868,0,0,1,.261-3c.525-1.57,1.33-3.046,2.152-4.857l-2.207,1.019c.588-1.768,1.15-3.457,1.812-5.448l-1.963.608,1.892-6.649-.457-.21-1.719,1.447c.471-2,.842-3.571,1.244-5.277l-1.632.62c-.406-2,2.918-4.418-.792-5.875.249-1.2.486-2.339.764-3.683l-1.7.6c-.195-3.564-.534-5.576-2.559-8.662-3.654-5.571-7.126-11.36-11.479-16.358-17.891-20.538-40.748-28.85-67.419-24.382-26.772,4.486-45.1,20.557-55.288,45.49-6.871,16.811-6.207,34.019-.167,51.04,1.111,3.131,2.565,6.14,4.021,9.586,2.156-3.559,4.053-6.657,5.919-9.774q22.026-36.786,44.031-73.584c.691-1.156,1.426-2.1,2.952-1.772a3.175,3.175,0,0,1,2.721,2.912,14.877,14.877,0,0,1-.1,3.916,120.274,120.274,0,0,1-17.5,45.507c-4.6,7.2-9.956,13.648-17.785,17.607a13.379,13.379,0,0,0-5.9,6.248q-4.163,8.349-8.244,16.737a1.547,1.547,0,0,0-.141,1.224c.732,1.1,1.593,2.115,2.63,3.446l.275-3.407,5.77,9.237.3-.134v-2.316l.269-.086c.725,1.7,1.45,3.4,2.329,5.458.177-1.042.277-1.624.451-2.647l2.668,4.932.259-.084c-.034-.707-.068-1.413-.113-2.348l3.84,5.288.352-.15c-.145-.909-.29-1.818-.5-3.129a25.379,25.379,0,0,0,10.108,8.524c-.295-.985-.481-1.608-.669-2.24l3.77,3.452a2.49,2.49,0,0,0-.458-1.433C1416.956,396.534,1416.768,396.067,1416.559,395.611Zm81.717-14.191c-.652.849-.987,1.387-1.417,1.831-17.423,17.907-38.217,26.37-63.291,21.952a78.9,78.9,0,0,1-41.674-21.116c-2.531-2.425-4.822-5.1-7.317-7.762-5.633,11.412-11.253,22.8-16.908,34.253,14.927,14.14,32.107,23.994,52.109,28.864l-1.458-1.615,9,3.964.207-.435c-.731-.532-1.5-1.022-2.18-1.609s-1.273-1.262-1.9-1.9a56.08,56.08,0,0,0,12.126,4.628l.31-.453-2.3-1.7.243-.377c4,2.21,8.184,3.283,12.618,2.409l-6.062-3.142.225-.516a30.973,30.973,0,0,0,13.532,2.7l-5.065-2.21.093-.207,14.423,1.833.073-.321-6.04-3.04A40.178,40.178,0,0,0,1470.5,438.6l-4.8-1.966h13.27l-4.614-2.242a27.669,27.669,0,0,0,12.008-.571l-4.065-1.69a19.387,19.387,0,0,0,10.675-1.213c6.268-2.48,11.719-6.342,17.059-10.36a1.585,1.585,0,0,0,.373-1.392c-2.887-9.487-5.789-18.971-8.77-28.429C1500.7,387.762,1499.524,384.862,1498.275,381.421Zm-21.944-50.166-.157-.425a29.328,29.328,0,0,0,2.846-1.327c.393-.232.929-.941.824-1.189-1.454-3.434.441-7.129-.862-10.557a.925.925,0,0,1,.124-.643c2.154-4.117.893-7.98-1.225-11.537-3.472-5.829-7.227-11.49-10.879-17.211-2.113-3.312-4.258-6.6-6.388-9.9a2.234,2.234,0,0,0,.067,1.387c2.123,5.28,4.2,10.582,6.436,15.811.78,1.821,2.062,3.421,2.958,5.2.641,1.273,1.4,2.674-.209,4.466l-14.578-21.8-.135.054,10.505,24.1a5.238,5.238,0,0,1-4.672-2.614c-2.008-3.176-3.867-6.45-5.706-9.729-1.933-3.45-3.77-6.955-5.649-10.435l-.307.14c3.147,8.5,6.294,16.993,9.524,25.716-2.941-.566-4.185-2.568-5.305-4.618-2.354-4.3-4.619-8.655-6.934-12.981-1.026-1.918-2.083-3.821-3.248-5.952a2.731,2.731,0,0,0-.1.644,128.4,128.4,0,0,0,12.312,30.9c2.544,4.464,6.028,7.88,11.007,9.52,6.694,2.2,11.281,6.764,14.371,12.922,6.73,13.412,13.249,26.941,18.382,41.045,3.621,9.952,6.507,20.173,9.73,30.27,2.628,8.233,5.747,16.241,10.728,23.4a9.411,9.411,0,0,1,1.185,2.42c1.078,3.293,4.9,6.373,7.856,6.258l-.659-.531,4.989-.413.082.209-3.066,1.118a8.43,8.43,0,0,0,7.875-4.677,9.3,9.3,0,0,0-.283-10.2c-4.81-7.287-9.673-14.539-14.433-21.858-6.037-9.28-12.551-18.306-17.856-27.991-8.325-15.2-15.813-30.853-23.641-46.321a3.685,3.685,0,0,1-.324-1.3c-.2-2.152-1.383-2.83-3.416-1.962C1477.526,330.908,1476.92,331.061,1476.331,331.255ZM1344.415,439.836l-.087-.236a11.594,11.594,0,0,0,1.752-.509c2.124-.985,4.522-.808,6.414-3.04a41.219,41.219,0,0,0,5.8-8.368q14.4-29.146,28.8-58.288c2.8-5.664,5.578-11.337,8.4-17.071-.534-.288-.988-.516-1.425-.774s-.838-.535-1.256-.8a13.3,13.3,0,0,0,8.827-1.861c4.775-2.689,8.451-6.6,11.69-10.9a112.533,112.533,0,0,0,19.612-42.751,88.673,88.673,0,0,0,1.648-9.758,3.887,3.887,0,0,0-2.208-4.329c-.292.387-.588.723-.82,1.1-5.683,9.161-11.471,18.26-17.013,27.5-12.228,20.4-24.249,40.926-36.508,61.308-12.708,21.127-26.083,41.823-40.781,61.64-1.51,2.037-1.6,3.322.2,4.928a22.055,22.055,0,0,0,5.388,3.491,3.365,3.365,0,0,0,4.474-1.283Zm147.747-56.974-7.12,5.758C1486.484,389.664,1491.441,385.735,1492.162,382.861Zm-21.5,12.867a5.144,5.144,0,0,0,6.589-1A7.916,7.916,0,0,0,1470.657,395.728Zm9.854-4.472a4,4,0,0,0,4.546-1.173C1483.126,388.8,1482.115,390.277,1480.51,391.256Zm.2,1.122-.2-.54-3.856,1.216C1478.4,394.2,1479.859,393.791,1480.708,392.378Zm14.756-12.149-.589-.568-2.483,2.6.693.62Z" transform="translate(-1330.459 -215.885)" fill="#59316d"/>
        <path id="Path_10" data-name="Path 10" d="M1546.382,441.428c-.721,2.873-5.678,6.8-7.121,5.758Z" transform="translate(-1384.679 -274.452)" fill="#fff"/>
        <path id="Path_11" data-name="Path 11" d="M1519.831,458.341a7.916,7.916,0,0,1,6.589-1A5.144,5.144,0,0,1,1519.831,458.341Z" transform="translate(-1379.633 -278.498)" fill="#fff"/>
        <path id="Path_12" data-name="Path 12" d="M1533.141,452.18c1.6-.979,2.615-2.456,4.545-1.173A4,4,0,0,1,1533.141,452.18Z" transform="translate(-1383.089 -276.809)" fill="#fff"/>
        <path id="Path_13" data-name="Path 13" d="M1531.985,454.092c-.849,1.413-2.309,1.823-4.057.676l3.856-1.216Z" transform="translate(-1381.736 -277.6)" fill="#fff"/>
        <path id="Path_14" data-name="Path 14" d="M1552.262,437.673l-2.379,2.652-.693-.62,2.483-2.6Z" transform="translate(-1387.257 -273.329)" fill="#fff"/>
        <path id="Path_15" data-name="Path 15" d="M1532.854,227.525c4.028,1.8,6.526,5.032,8.461,8.78l-.321.3Z" transform="translate(-1383.015 -218.908)" fill="#59316d"/>
        <path id="Path_16" data-name="Path 16" d="M1597.316,277.574l-3.961-10.73a15.346,15.346,0,0,1,4.454,10.537Z" transform="translate(-1398.725 -229.118)" fill="#59316d"/>
        <path id="Path_17" data-name="Path 17" d="M1557.985,245.484l-7.84-9.062C1553.208,237.558,1557.973,243.119,1557.985,245.484Z" transform="translate(-1387.505 -221.218)" fill="#59316d"/>
        <path id="Path_18" data-name="Path 18" d="M1542.247,232.264c2.357.4,7.338,6.214,7.584,8.651Z" transform="translate(-1385.454 -220.138)" fill="#59316d"/>
        <path id="Path_19" data-name="Path 19" d="M1431.72,287.115a13.711,13.711,0,0,1,2.952-2.175c7.908-3.035,15.856-5.969,23.814-8.874.789-.288,1.978-.593,2.307.646a1.681,1.681,0,0,1-1.651,2.151c-9.216.663-17,5.555-25.427,8.523-.552.194-1.135.3-1.7.449Z" transform="translate(-1356.753 -231.446)" fill="#59316d"/>
        <path id="Path_20" data-name="Path 20" d="M1455.91,463.262l-5.326-4.58c1.556-.188,3.729,1.534,5.768,4.087Z" transform="translate(-1361.652 -278.929)" fill="#59316d"/>
        <path id="Path_21" data-name="Path 21" d="M1585.758,507.666c3.522,4.372,6.527,9.483,13.6,7.363l.091.473a9.531,9.531,0,0,1-2.067.9,7.8,7.8,0,0,1-5.684-1.35A15.53,15.53,0,0,1,1585.758,507.666Z" transform="translate(-1396.752 -291.652)" fill="#59316d"/>
        <path id="Path_22" data-name="Path 22" d="M1344.857,510.133a3.345,3.345,0,0,1,.877.208c2.842,1.574,4.749,1.51,7.089-.708a65.823,65.823,0,0,0,4.448-5.145c.426-.5.874-.976,1.313-1.463l.364.241a13.392,13.392,0,0,1-1.482,2.469,55.154,55.154,0,0,1-5.777,5.713,4.976,4.976,0,0,1-6.194-.01,6.877,6.877,0,0,1-.885-.979Z" transform="translate(-1334.133 -290.447)" fill="#59316d"/>
      </g>
    </g>
  </g>
</svg>
