<?xml version="1.0" encoding="utf-8"?>
<!-- Generator: Adobe Illustrator 25.3.1, SVG Export Plug-In . SVG Version: 6.00 Build 0)  -->
<svg version="1.1" id="relogio" xmlns="http://www.w3.org/2000/svg" xmlns:xlink="http://www.w3.org/1999/xlink" x="0px" y="0px"
	 viewBox="0 0 200 200" style="enable-background:new 0 0 200 200;" xml:space="preserve">
<style type="text/css">
	.st0{fill:#F9AFA1;}
	.st1{fill:#FFFFFF;}
	.st2{fill:#59316D;}
</style>
<path class="st0" d="M174.8,100c0-0.9,0-1.7,0-2.6c-1.5-39.1-34.4-69.6-73.5-68.2c-37.1,1.4-66.8,31.1-68.2,68.2c0,0.8,0,1.7,0,2.6
	s0,1.9,0.1,2.9c1.6,39.1,34.6,69.5,73.7,67.9c36.8-1.5,66.4-31,67.9-67.9C174.8,102,174.8,101,174.8,100z"/>
<path class="st1" d="M160,97.8v-0.2c-1.3-30.9-27.5-55-58.4-53.7c-29.1,1.2-52.4,24.6-53.7,53.7c0,0.1,0,0.1,0,0.2
	c0,0.7,0,1.5,0,2.2c-1.4,30.9,22.5,57.2,53.4,58.6c30.9,1.4,57.2-22.5,58.6-53.4c0.1-1.7,0.1-3.5,0-5.2C160,99.3,160,98.5,160,97.8z
	"/>
<path class="st2" d="M109,98.1L109,98.1c-1.1-2.8-4.2-4.2-7-3.2c-1.5,0.6-2.6,1.7-3.2,3.2l0,0c-0.2,0.6-0.3,1.3-0.3,1.9
	c0,3,2.4,5.5,5.4,5.5s5.5-2.4,5.5-5.4C109.4,99.4,109.2,98.7,109,98.1z"/>
<path class="st2" d="M82.4,127.7c-0.6,0-1.1-0.2-1.6-0.6c-1-0.9-1.1-2.4-0.3-3.4l20.2-23.8L78.9,74c-0.8-1.1-0.6-2.6,0.5-3.4
	c1-0.7,2.4-0.6,3.2,0.3l24.5,29.1l-22.9,26.9C83.8,127.4,83.1,127.7,82.4,127.7z"/>
<path class="st2" d="M105.9,59.1V53c0.3-1.1-0.4-2.2-1.5-2.4c-1.1-0.3-2.2,0.4-2.4,1.5c-0.1,0.3-0.1,0.7,0,1v6
	c-0.2,1.1,0.5,2.1,1.5,2.4c1.1,0.2,2.1-0.5,2.4-1.5C106,59.6,106,59.3,105.9,59.1L105.9,59.1z"/>
<path class="st2" d="M102,140.9v6.1c-0.2,1.1,0.5,2.1,1.5,2.4c1.1,0.2,2.1-0.5,2.4-1.5c0.1-0.3,0.1-0.6,0-0.8V141
	c0.2-1.1-0.5-2.1-1.5-2.4c-1.1-0.2-2.1,0.5-2.4,1.5C101.9,140.4,101.9,140.7,102,140.9L102,140.9z"/>
<path class="st2" d="M150.9,102c1.1-0.2,1.8-1.3,1.5-2.4c-0.2-0.7-0.8-1.3-1.5-1.5h-6.1c-1.1-0.2-2.1,0.4-2.4,1.5
	c-0.2,1.1,0.4,2.1,1.5,2.4c0.3,0.1,0.6,0.1,0.9,0H150.9z"/>
<path class="st2" d="M57,98.1c-1.1-0.2-2.1,0.4-2.4,1.5c-0.2,1.1,0.4,2.1,1.5,2.4c0.3,0.1,0.6,0.1,0.9,0h6c1.1-0.2,1.8-1.3,1.5-2.4
	c-0.2-0.7-0.8-1.3-1.5-1.5H57z"/>
<path class="st2" d="M98.5,173.3c-39.3,0.1-71.7-31-73.2-70.3c0-1-0.1-2-0.1-3s0-1.8,0-2.7c1.5-40.4,35.5-72,75.9-70.5
	c38.3,1.4,69.1,32.2,70.5,70.5c0,0.9,0.1,1.8,0.1,2.7c0,1,0,2.1-0.1,3.1C170.1,142.4,137.8,173.4,98.5,173.3z M98.5,31.5
	c-36.9-0.1-67.2,29.1-68.4,66c0,0.8,0,1.7,0,2.5s0,1.9,0.1,2.8c1.6,37.8,33.4,67.1,71.2,65.6c35.6-1.5,64.1-29.9,65.6-65.5
	c0-1,0.1-1.9,0.1-2.9s0-1.7,0-2.5C165.7,60.6,135.4,31.4,98.5,31.5z"/>
<path class="st2" d="M98.5,157.8c-31.9,0-57.7-25.9-57.8-57.8c0-0.8,0-1.5,0-2.3c0-0.1,0-0.2,0-0.3c1.4-31.9,28.4-56.6,60.2-55.2
	c29.9,1.3,53.9,25.3,55.2,55.2v0.2c0,0.8,0.1,1.5,0.1,2.3C156.2,131.8,130.4,157.7,98.5,157.8z M98.5,46.8
	c-28.5-0.1-52,22.4-53.2,50.9v0.2c0,0.7,0,1.4,0,2.1c0,29.4,23.8,53.3,53.3,53.3s53.3-23.8,53.3-53.3c0-0.7,0-1.4,0-2.1v-0.2
	C150.6,69.1,127,46.6,98.5,46.8L98.5,46.8z"/>
</svg>
