<?xml version="1.0" encoding="utf-8"?><svg xmlns="http://www.w3.org/2000/svg" viewBox="0 0 563 1026"><g id="roupa_de_baixo_short" data-name="roupa de baixo short"><path d="M361,642.6c-11.92,4.76-68.57,4.76-75.53.95l-6-69.43-7,69.43c-19.87,2.85-58.63,2.85-77.51-.95.77-54.88,7.08-132.32,7.08-132.32C202.5,492,209.57,464,209.57,464c19.88,5.71,116.13,13.32,136,0,0,0,10.05,29,10.44,47.35C356,511.35,360.38,587.84,361,642.6Z" style="fill:#fff"/><path d="M353,642.6c-11.92,4.76-68.57,4.76-75.53.95l-6-69.43-7,69.43c-19.87,2.85-58.63,2.85-77.51-.95.77-54.88,7.08-132.32,7.08-132.32C194.5,492,201.57,464,201.57,464c19.88,5.71,116.13,13.32,136,0,0,0,10.05,29,10.44,47.35C348,511.35,352.38,587.84,353,642.6Z" style="fill:#c4c4c4"/><path d="M319.31,647.3c-16,0-30.94-1-34.33-2.87a1,1,0,0,1-.51-.79l-5.05-58.72-5.88,58.73a1,1,0,0,1-.85.89c-19.34,2.78-58.38,3-77.86-1a1,1,0,0,1-.81-1c.77-54.29,7-131.61,7.1-132.39.38-18.15,7.41-46.16,7.48-46.45a1,1,0,0,1,.48-.62,1,1,0,0,1,.77-.09c19.48,5.59,115.8,13.1,135.17.13a1,1,0,0,1,.87-.12,1,1,0,0,1,.63.62c.1.29,10.1,29.4,10.49,47.66,0,.73,4.38,77.1,5,131.26a1,1,0,0,1-.63.94C354.86,646.12,336.48,647.3,319.31,647.3Zm-32.9-4.41c8.27,3.34,60.75,3.41,73.58-1-.64-54.07-4.94-129.74-5-130.5-.34-15.9-8.12-40.28-10-45.9-22.06,12.43-112.91,5.39-134.73-.28-1.24,5.13-6.85,29-7.19,45.08-.06.82-6.25,77.3-7.07,131.47,19.29,3.67,56.43,3.5,75.59.89L278.51,574a1,1,0,0,1,1-.9h0a1,1,0,0,1,1,.92Z" style="fill:#59316d"/></g></svg>