<?xml version="1.0" encoding="utf-8"?><svg xmlns="http://www.w3.org/2000/svg" viewBox="0 0 563 1026"><g id="roupa_de_baixo_top" data-name="roupa de baixo top"><path d="M206.07,235.5l31.48-11.29,3.79,24.16a35.67,35.67,0,0,0,35.24,30.13h0a35.67,35.67,0,0,0,35.51-32.36l2.05-21.93,31.93,10.29s-11,68-4,106c0,0,.5,98.5,10.5,160.5,0,0-105.72,20-156-6,0,0,13.09-127.12,8.5-151.5,0,0,5-26.84,5-46S206.07,235.5,206.07,235.5Z" style="fill:#1d1d1b"/><path d="M206.07,235.5l31.48-11.29,3.79,24.16a35.67,35.67,0,0,0,35.24,30.13h0a35.67,35.67,0,0,0,35.51-32.36l2.05-21.93,31.93,10.29s-11,68-4,106c0,0,.5,98.5,10.5,160.5,0,0-105.72,20-156-6,0,0,13.09-127.12,8.5-151.5,0,0,5-26.84,5-46S206.07,235.5,206.07,235.5Z" style="fill:#fff"/><path d="M212.07,235.5l31.48-11.29,3.79,24.16a35.67,35.67,0,0,0,35.24,30.13h0a35.67,35.67,0,0,0,35.51-32.36l2.05-21.93,31.93,10.29s-11,68-4,106c0,0,.5,98.5,10.5,160.5,0,0-105.72,20-156-6,0,0,13.09-127.12,8.5-151.5,0,0,5-26.84,5-46S212.07,235.5,212.07,235.5Z" style="fill:#1d1d1b"/><path d="M212.07,235.5l31.48-11.29,3.79,24.16a35.67,35.67,0,0,0,35.24,30.13h0a35.67,35.67,0,0,0,35.51-32.36l2.05-21.93,31.93,10.29s-11,68-4,106c0,0,.5,98.5,10.5,160.5,0,0-105.72,20-156-6,0,0,13.09-127.12,8.5-151.5,0,0,5-26.84,5-46S212.07,235.5,212.07,235.5Z" style="fill:#e2dfe5"/><path d="M272,509.26c-27.36,0-56-3.1-75.84-13.37a1,1,0,0,1-.53-1c.13-1.27,13-127.25,8.51-151.22a1.09,1.09,0,0,1,0-.36c0-.27,4.93-27,5-45.82s-3.95-61.48-4-61.91a1,1,0,0,1,.66-1l31.47-11.29a1,1,0,0,1,.85.08,1,1,0,0,1,.48.71l3.79,24.15a34.67,34.67,0,0,0,68.77-2.16l2-21.93a1,1,0,0,1,1.31-.86l31.93,10.29a1,1,0,0,1,.68,1.11c-.11.68-10.89,68.27-4,105.66a1.09,1.09,0,0,1,0,.18c0,1,.62,99.13,10.49,160.34a1,1,0,0,1-.8,1.14C352.12,502.1,313.48,509.26,272,509.26Zm-74.31-14.84c47.1,23.79,143.15,7.66,153.79,5.77-9.62-60.62-10.33-156.14-10.36-159.6-6.49-35.45,2.65-97.42,3.88-105.4L315,225.55l-1.93,20.69a36.67,36.67,0,0,1-72.74,2.28l-3.6-23-29.61,10.62c.55,5.89,4,43.75,3.93,61.32,0,18.21-4.55,43.59-5,46C210.43,367.5,198.77,483.35,197.64,494.42Z" style="fill:#59316d"/></g></svg>