<?xml version="1.0" encoding="utf-8"?>
<!-- Generator: Adobe Illustrator 25.3.1, SVG Export Plug-In . SVG Version: 6.00 Build 0)  -->
<svg version="1.1" id="agendamento" xmlns="http://www.w3.org/2000/svg" xmlns:xlink="http://www.w3.org/1999/xlink" x="0px"
	 y="0px" viewBox="0 0 400 400" style="enable-background:new 0 0 400 400;" xml:space="preserve">
<style type="text/css">
	.st0{fill:#FFFFFF;}
	.st1{fill:#FAFAFA;}
	.st2{fill:#59316D;}
	.st3{fill:#FFDEA9;}
	.st4{fill:#E0E0E0;}
	.st5{fill:#424242;}
</style>
<path class="st0" d="M325.1,150.8H68.5v175.7c0,7.3,5.9,13.2,13.2,13.2c0,0,0,0,0,0h247.7c7.3,0,13.2-5.9,13.2-13.2c0,0,0,0,0,0
	V150.8H325.1z"/>
<path class="st1" d="M337.1,150.8H80.5v175.7c0,7.3,5.9,13.2,13.2,13.2c0,0,0,0,0,0h247.7c7.3,0,13.2-5.9,13.2-13.2c0,0,0,0,0,0
	V150.8H337.1z"/>
<path class="st2" d="M329.4,343.2H81.7c-9.2,0-16.7-7.4-16.7-16.7c0,0,0,0,0,0V150.8c0-1.9,1.6-3.5,3.5-3.5h274
	c1.9,0,3.5,1.6,3.5,3.5v175.7C346,335.7,338.6,343.2,329.4,343.2z M72,154.3v172.2c0,5.3,4.3,9.7,9.7,9.7h247.7
	c5.3,0,9.7-4.3,9.7-9.7V154.3H72z"/>
<path class="st0" d="M329.4,83.2H81.7c-7.3,0-13.2,5.9-13.2,13.2l0,0v63.6h274V96.4C342.5,89.1,336.7,83.2,329.4,83.2z"/>
<path class="st0" d="M191.9,185.2h22.4c2.6,0,4.7,2.1,4.7,4.7v22.4c0,2.6-2.1,4.7-4.7,4.7h-22.4c-2.6,0-4.7-2.1-4.7-4.7v-22.4
	C187.2,187.3,189.3,185.2,191.9,185.2z"/>
<path class="st0" d="M141.8,185.2h22.4c2.6,0,4.7,2.1,4.7,4.7v22.4c0,2.6-2.1,4.7-4.7,4.7h-22.4c-2.6,0-4.7-2.1-4.7-4.7v-22.4
	C137,187.3,139.1,185.2,141.8,185.2z"/>
<path class="st0" d="M242,185.2h22.4c2.6,0,4.7,2.1,4.7,4.7v22.4c0,2.6-2.1,4.7-4.7,4.7H242c-2.6,0-4.7-2.1-4.7-4.7v-22.4
	C237.3,187.3,239.4,185.2,242,185.2z"/>
<path class="st0" d="M292.2,185.2h22.4c2.6,0,4.7,2.1,4.7,4.7v22.4c0,2.6-2.1,4.7-4.7,4.7h-22.4c-2.6,0-4.7-2.1-4.7-4.7v-22.4
	C287.4,187.3,289.6,185.2,292.2,185.2z"/>
<path class="st0" d="M141.8,234.3h22.4c2.6,0,4.7,2.1,4.7,4.7v22.4c0,2.6-2.1,4.7-4.7,4.7h-22.4c-2.6,0-4.7-2.1-4.7-4.7V239
	C137,236.4,139.1,234.3,141.8,234.3z"/>
<path class="st0" d="M191.9,234.3h22.4c2.6,0,4.7,2.1,4.7,4.7v22.4c0,2.6-2.1,4.7-4.7,4.7h-22.4c-2.6,0-4.7-2.1-4.7-4.7V239
	C187.2,236.4,189.3,234.3,191.9,234.3z"/>
<path class="st0" d="M242,234.3h22.4c2.6,0,4.7,2.1,4.7,4.7v22.4c0,2.6-2.1,4.7-4.7,4.7H242c-2.6,0-4.7-2.1-4.7-4.7V239
	C237.3,236.4,239.4,234.3,242,234.3z"/>
<path class="st0" d="M242,283.4h22.4c2.6,0,4.7,2.1,4.7,4.7v22.4c0,2.6-2.1,4.7-4.7,4.7H242c-2.6,0-4.7-2.1-4.7-4.7v-22.4
	C237.3,285.5,239.4,283.4,242,283.4z"/>
<path class="st0" d="M292.2,234.3h22.4c2.6,0,4.7,2.1,4.7,4.7v22.4c0,2.6-2.1,4.7-4.7,4.7h-22.4c-2.6,0-4.7-2.1-4.7-4.7V239
	C287.4,236.4,289.6,234.3,292.2,234.3z"/>
<path class="st0" d="M141.8,283.4h22.4c2.6,0,4.7,2.1,4.7,4.7v22.4c0,2.6-2.1,4.7-4.7,4.7h-22.4c-2.6,0-4.7-2.1-4.7-4.7v-22.4
	C137,285.5,139.1,283.4,141.8,283.4z"/>
<path class="st0" d="M91.6,234.3H114c2.6,0,4.7,2.1,4.7,4.7v22.4c0,2.6-2.1,4.7-4.7,4.7H91.6c-2.6,0-4.7-2.1-4.7-4.7V239
	C86.9,236.4,89,234.3,91.6,234.3z"/>
<path class="st0" d="M91.6,283.4H114c2.6,0,4.7,2.1,4.7,4.7v22.4c0,2.6-2.1,4.7-4.7,4.7H91.6c-2.6,0-4.7-2.1-4.7-4.7v-22.4
	C86.9,285.5,89,283.4,91.6,283.4z"/>
<path class="st3" d="M341.4,83.2H93.7c-7.3,0-13.2,5.9-13.2,13.2l0,0v63.6h274V96.4C354.5,89.1,348.7,83.2,341.4,83.2z"/>
<path class="st4" d="M201.9,185.2h22.4c2.6,0,4.7,2.1,4.7,4.7v22.4c0,2.6-2.1,4.7-4.7,4.7h-22.4c-2.6,0-4.7-2.1-4.7-4.7v-22.4
	C197.2,187.3,199.3,185.2,201.9,185.2z"/>
<path class="st4" d="M151.8,185.2h22.4c2.6,0,4.7,2.1,4.7,4.7v22.4c0,2.6-2.1,4.7-4.7,4.7h-22.4c-2.6,0-4.7-2.1-4.7-4.7v-22.4
	C147,187.3,149.1,185.2,151.8,185.2z"/>
<path class="st4" d="M252,185.2h22.4c2.6,0,4.7,2.1,4.7,4.7v22.4c0,2.6-2.1,4.7-4.7,4.7H252c-2.6,0-4.7-2.1-4.7-4.7v-22.4
	C247.3,187.3,249.4,185.2,252,185.2z"/>
<path class="st3" d="M302.2,185.2h22.4c2.6,0,4.7,2.1,4.7,4.7v22.4c0,2.6-2.1,4.7-4.7,4.7h-22.4c-2.6,0-4.7-2.1-4.7-4.7v-22.4
	C297.4,187.3,299.6,185.2,302.2,185.2z"/>
<path class="st4" d="M151.8,234.3h22.4c2.6,0,4.7,2.1,4.7,4.7v22.4c0,2.6-2.1,4.7-4.7,4.7h-22.4c-2.6,0-4.7-2.1-4.7-4.7V239
	C147,236.4,149.1,234.3,151.8,234.3z"/>
<path class="st4" d="M201.9,234.3h22.4c2.6,0,4.7,2.1,4.7,4.7v22.4c0,2.6-2.1,4.7-4.7,4.7h-22.4c-2.6,0-4.7-2.1-4.7-4.7V239
	C197.2,236.4,199.3,234.3,201.9,234.3z"/>
<path class="st4" d="M252,234.3h22.4c2.6,0,4.7,2.1,4.7,4.7v22.4c0,2.6-2.1,4.7-4.7,4.7H252c-2.6,0-4.7-2.1-4.7-4.7V239
	C247.3,236.4,249.4,234.3,252,234.3z"/>
<path class="st4" d="M252,283.4h22.4c2.6,0,4.7,2.1,4.7,4.7v22.4c0,2.6-2.1,4.7-4.7,4.7H252c-2.6,0-4.7-2.1-4.7-4.7v-22.4
	C247.3,285.5,249.4,283.4,252,283.4z"/>
<path class="st3" d="M302.2,234.3h22.4c2.6,0,4.7,2.1,4.7,4.7v22.4c0,2.6-2.1,4.7-4.7,4.7h-22.4c-2.6,0-4.7-2.1-4.7-4.7V239
	C297.4,236.4,299.6,234.3,302.2,234.3z"/>
<path class="st4" d="M151.8,283.4h22.4c2.6,0,4.7,2.1,4.7,4.7v22.4c0,2.6-2.1,4.7-4.7,4.7h-22.4c-2.6,0-4.7-2.1-4.7-4.7v-22.4
	C147,285.5,149.1,283.4,151.8,283.4z"/>
<path class="st4" d="M101.6,234.3H124c2.6,0,4.7,2.1,4.7,4.7v22.4c0,2.6-2.1,4.7-4.7,4.7h-22.4c-2.6,0-4.7-2.1-4.7-4.7V239
	C96.9,236.4,99,234.3,101.6,234.3z"/>
<path class="st4" d="M101.6,283.4H124c2.6,0,4.7,2.1,4.7,4.7v22.4c0,2.6-2.1,4.7-4.7,4.7h-22.4c-2.6,0-4.7-2.1-4.7-4.7v-22.4
	C96.9,285.5,99,283.4,101.6,283.4z"/>
<path class="st4" d="M201.9,283.4h22.4c2.6,0,4.7,2.1,4.7,4.7v22.4c0,2.6-2.1,4.7-4.7,4.7h-22.4c-2.6,0-4.7-2.1-4.7-4.7v-22.4
	C197.2,285.5,199.3,283.4,201.9,283.4z"/>
<path class="st2" d="M342.6,163.4h-274c-1.9,0-3.5-1.6-3.5-3.5V96.4c0-9.2,7.5-16.7,16.7-16.7h247.7c9.2,0,16.7,7.5,16.7,16.7v63.6
	C346.1,161.9,344.5,163.4,342.6,163.4z M72,156.4h267V96.4c0-5.3-4.3-9.7-9.7-9.7H81.7c-5.4,0-9.7,4.3-9.7,9.7c0,0,0,0,0,0V156.4z"
	/>
<path class="st2" d="M214.3,220.6h-22.4c-4.5,0-8.2-3.7-8.2-8.2v-22.4c0-4.5,3.7-8.2,8.2-8.2h22.4c4.5,0,8.2,3.7,8.2,8.2v22.4
	C222.6,216.9,218.9,220.6,214.3,220.6z M191.9,188.7c-0.7,0-1.2,0.6-1.2,1.2v22.4c0,0.7,0.6,1.2,1.2,1.2h22.4c0.7,0,1.2-0.6,1.2-1.2
	v-22.4c0-0.7-0.6-1.2-1.2-1.2L191.9,188.7z"/>
<path class="st2" d="M164.2,220.6h-22.4c-4.5,0-8.2-3.7-8.2-8.2v-22.4c0-4.5,3.7-8.2,8.2-8.2h22.4c4.5,0,8.2,3.7,8.2,8.2v22.4
	C172.4,216.9,168.7,220.6,164.2,220.6z M141.8,188.7c-0.7,0-1.2,0.6-1.2,1.2v22.4c0,0.7,0.6,1.2,1.2,1.2h22.4c0.7,0,1.2-0.6,1.2-1.2
	v-22.4c0-0.7-0.6-1.2-1.2-1.2L141.8,188.7z"/>
<path class="st2" d="M264.5,220.6H242c-4.5,0-8.2-3.7-8.2-8.2v-22.4c0-4.5,3.7-8.2,8.2-8.2h22.4c4.5,0,8.2,3.7,8.2,8.2v22.4
	C272.7,216.9,269,220.5,264.5,220.6z M242,188.7c-0.7,0-1.2,0.6-1.2,1.2v22.4c0,0.7,0.6,1.2,1.2,1.2h22.4c0.7,0,1.2-0.6,1.2-1.2l0,0
	v-22.4c0-0.7-0.6-1.2-1.2-1.2l0,0H242z"/>
<path class="st2" d="M314.6,220.6h-22.4c-4.5,0-8.2-3.7-8.2-8.2v-22.4c0-4.5,3.7-8.2,8.2-8.2h22.4c4.5,0,8.2,3.7,8.2,8.2v22.4
	C322.8,216.9,319.2,220.6,314.6,220.6z M292.2,188.7c-0.7,0-1.2,0.5-1.2,1.2v22.4c0,0.7,0.6,1.2,1.2,1.2h22.4c0.7,0,1.2-0.5,1.2-1.2
	v-22.4c0-0.7-0.6-1.2-1.2-1.2L292.2,188.7z"/>
<path class="st2" d="M164.2,269.7h-22.4c-4.5,0-8.2-3.7-8.2-8.2V239c0-4.5,3.7-8.2,8.2-8.2h22.4c4.5,0,8.2,3.7,8.2,8.2v22.4
	C172.4,266,168.7,269.7,164.2,269.7z M141.8,237.8c-0.7,0-1.2,0.6-1.2,1.2v22.4c0,0.7,0.6,1.2,1.2,1.2l0,0h22.4
	c0.7,0,1.2-0.6,1.2-1.2l0,0V239c0-0.7-0.6-1.2-1.2-1.2L141.8,237.8z"/>
<path class="st2" d="M214.3,269.7h-22.4c-4.5,0-8.2-3.7-8.2-8.2V239c0-4.5,3.7-8.2,8.2-8.2h22.4c4.5,0,8.2,3.7,8.2,8.2v22.4
	C222.6,266,218.9,269.7,214.3,269.7z M191.9,237.8c-0.7,0-1.2,0.6-1.2,1.2v22.4c0,0.7,0.6,1.2,1.2,1.2l0,0h22.4
	c0.7,0,1.2-0.6,1.2-1.2l0,0V239c0-0.7-0.6-1.2-1.2-1.2L191.9,237.8z"/>
<path class="st2" d="M264.5,269.7H242c-4.5,0-8.2-3.7-8.2-8.2V239c0-4.5,3.7-8.2,8.2-8.2h22.4c4.6,0,8.2,3.7,8.3,8.2c0,0,0,0,0,0
	v22.4C272.7,266,269,269.7,264.5,269.7z M242,237.8c-0.7,0-1.2,0.6-1.2,1.2v22.4c0,0.7,0.6,1.2,1.2,1.2l0,0h22.4
	c0.7,0,1.2-0.6,1.2-1.2c0,0,0,0,0,0V239c0-0.7-0.6-1.2-1.2-1.2l0,0H242z"/>
<path class="st2" d="M264.5,318.8H242c-4.5,0-8.2-3.7-8.2-8.2v-22.4c0-4.5,3.7-8.2,8.2-8.2h22.4c4.5,0,8.2,3.7,8.2,8.2v22.4
	C272.7,315.1,269,318.7,264.5,318.8z M242,286.9c-0.7,0-1.2,0.6-1.2,1.2l0,0v22.4c0,0.7,0.6,1.2,1.2,1.2l0,0h22.4
	c0.7,0,1.2-0.6,1.2-1.2c0,0,0,0,0,0v-22.4c0-0.7-0.6-1.2-1.2-1.2c0,0,0,0,0,0H242z"/>
<path class="st2" d="M314.6,269.7h-22.4c-4.5,0-8.2-3.7-8.2-8.2V239c0-4.5,3.7-8.2,8.2-8.2h22.4c4.5,0,8.2,3.7,8.2,8.2v22.4
	C322.8,266,319.2,269.7,314.6,269.7z M292.2,237.8c-0.7,0-1.2,0.5-1.2,1.2v22.4c0,0.7,0.6,1.2,1.2,1.2h22.4c0.7,0,1.2-0.5,1.2-1.2
	V239c0-0.7-0.6-1.2-1.2-1.2L292.2,237.8z"/>
<path class="st2" d="M164.2,318.8h-22.4c-4.5,0-8.2-3.7-8.2-8.2v-22.4c0-4.5,3.7-8.2,8.2-8.2h22.4c4.5,0,8.2,3.7,8.2,8.2v22.4
	C172.4,315.1,168.7,318.8,164.2,318.8z M141.8,286.9c-0.7,0-1.2,0.6-1.2,1.2l0,0v22.4c0,0.7,0.6,1.2,1.2,1.2l0,0h22.4
	c0.7,0,1.2-0.6,1.2-1.2l0,0v-22.4c0-0.7-0.6-1.2-1.2-1.2l0,0H141.8z"/>
<path class="st2" d="M114.1,269.7H91.6c-4.5,0-8.2-3.7-8.2-8.2V239c0-4.5,3.7-8.2,8.2-8.2h22.4c4.5,0,8.2,3.7,8.2,8.2v22.4
	C122.3,266,118.6,269.7,114.1,269.7z M91.6,237.8c-0.7,0-1.2,0.6-1.2,1.2v22.4c0,0.7,0.6,1.2,1.2,1.2c0,0,0,0,0,0h22.4
	c0.7,0,1.2-0.6,1.2-1.2l0,0V239c0-0.7-0.6-1.2-1.2-1.2L91.6,237.8z"/>
<path class="st2" d="M114.1,318.8H91.6c-4.5,0-8.2-3.7-8.2-8.2v-22.4c0-4.5,3.7-8.2,8.2-8.2h22.4c4.5,0,8.2,3.7,8.2,8.2v22.4
	C122.3,315.1,118.6,318.8,114.1,318.8z M91.6,286.9c-0.7,0-1.2,0.6-1.2,1.2l0,0v22.4c0,0.7,0.6,1.2,1.2,1.2c0,0,0,0,0,0h22.4
	c0.7,0,1.2-0.6,1.2-1.2l0,0v-22.4c0-0.7-0.6-1.2-1.2-1.2c0,0,0,0,0,0H91.6z"/>
<path class="st0" d="M124.9,46.9c-7.7,0-13.9,6.2-13.9,13.9v44.8c0,7.7,6.2,13.9,13.9,13.9c7.7,0,13.9-6.2,13.9-13.9V60.8
	C138.8,53.1,132.5,46.9,124.9,46.9z"/>
<path class="st5" d="M134.9,46.9c-7.7,0-13.9,6.2-13.9,13.9v44.8c0,7.7,6.2,13.9,13.9,13.9c7.7,0,13.9-6.2,13.9-13.9V60.8
	C148.8,53.1,142.5,46.9,134.9,46.9z"/>
<path class="st2" d="M124.9,123c-9.6,0-17.4-7.8-17.4-17.4V60.8c0-9.6,7.8-17.4,17.4-17.4c9.6,0,17.4,7.8,17.4,17.4c0,0,0,0,0,0
	v44.8C142.3,115.2,134.5,123,124.9,123z M124.9,50.4c-5.8,0-10.4,4.7-10.4,10.4v44.8c0,5.8,4.7,10.4,10.4,10.4
	c5.7,0,10.4-4.7,10.4-10.4V60.8C135.3,55,130.6,50.4,124.9,50.4z"/>
<path class="st0" d="M268.7,46.9c-7.7,0-13.9,6.2-13.9,13.9v44.8c0,7.7,6.2,13.9,13.9,13.9s13.9-6.2,13.9-13.9V60.8
	C282.7,53.1,276.4,46.9,268.7,46.9L268.7,46.9z"/>
<path class="st5" d="M278.7,46.9c-7.7,0-13.9,6.2-13.9,13.9c0,0,0,0,0,0v44.8c0,7.7,6.2,13.9,13.9,13.9c7.7,0,13.9-6.2,13.9-13.9
	V60.8C292.7,53.1,286.4,46.9,278.7,46.9z"/>
<path class="st2" d="M268.7,123c-9.6,0-17.4-7.8-17.4-17.4V60.8c0-9.6,7.8-17.4,17.4-17.4c9.6,0,17.4,7.8,17.4,17.4v44.8
	C286.1,115.2,278.4,123,268.7,123z M268.7,50.4c-5.8,0-10.4,4.7-10.4,10.4v44.8c0,5.8,4.7,10.4,10.4,10.4c5.7,0,10.4-4.7,10.4-10.4
	V60.8C279.1,55,274.5,50.4,268.7,50.4z"/>
<path class="st2" d="M214.3,318.8h-22.4c-4.5,0-8.2-3.7-8.2-8.2v-22.4c0-4.5,3.7-8.2,8.2-8.2h22.4c4.5,0,8.2,3.7,8.2,8.2v22.4
	C222.6,315.1,218.9,318.8,214.3,318.8z M191.9,286.9c-0.7,0-1.2,0.6-1.2,1.2l0,0v22.4c0,0.7,0.6,1.2,1.2,1.2l0,0h22.4
	c0.7,0,1.2-0.6,1.2-1.2l0,0v-22.4c0-0.7-0.6-1.2-1.2-1.2l0,0H191.9z"/>
<path class="st2" d="M214.3,317.3h-22.4c-3.7,0-6.7-3-6.7-6.7v-22.4c0-3.7,3-6.7,6.7-6.7h22.4c3.7,0,6.7,3,6.7,6.7v22.4
	C221.1,314.3,218,317.3,214.3,317.3z M191.9,285.4c-1.5,0-2.7,1.2-2.7,2.7l0,0v22.4c0,1.5,1.2,2.7,2.7,2.7h22.4
	c1.5,0,2.7-1.2,2.7-2.7l0,0v-22.4c0-1.5-1.2-2.7-2.7-2.7l0,0H191.9z"/>
</svg>
