<?xml version="1.0" encoding="utf-8"?>
<!-- Generator: Adobe Illustrator 25.3.1, SVG Export Plug-In . SVG Version: 6.00 Build 0)  -->
<svg version="1.1" id="ariel" xmlns="http://www.w3.org/2000/svg" xmlns:xlink="http://www.w3.org/1999/xlink" x="0px" y="0px"
	 viewBox="0 0 450 450" style="enable-background:new 0 0 450 450;" xml:space="preserve">
<style type="text/css">
	.st0{fill:#F9AFA1;}
	.st1{fill:none;}
	.st2{fill:#263238;}
	.st3{fill:#FFFFFF;}
	.st4{fill:#F7F7F7;}
	.st5{fill:#59316D;}
	.st6{fill:#9C6151;}
	.st7{fill:#754739;}
	.st8{fill:#995037;}
	.st9{fill:#723628;}
	.st10{fill:#455A64;}
</style>
<g>
	<circle class="st0" cx="225" cy="225" r="189.9"/>
	<g>
		<path class="st1" d="M414.9,225c0-104.9-85-189.9-189.9-189.9S35.1,120.1,35.1,225c0,53.3,22,101.5,57.4,136l0.6-14.6
			c-0.1-17.5,7.7-31.5,21.2-38.3c3.8-1.9,7.8-3.1,11.9-3.6c11.8-3.8,27.2-5.9,44.7-6.1c3-11.3,6.4-28.9,8.5-45.3
			c-0.1,0.1-0.3,0.1-0.5,0.1c0,0,0,0-0.1,0c-3.1-0.2-4.6-4.6-6.1-9.3c-1.4-4.4-3.1-9.4-5.8-9.9c-4.6-0.8-10.8-2-13.8-6.3
			c-1.5-2.1-2-4.8-1.5-7.9c-2.2-1.3-9.2-6-10.9-13.1c-1-4.2,0-8.4,2.9-12.6c2.1-2.6,4.4-5.1,6.9-7.2c-1-2.6-2.2-5.2-3.5-7.7
			c-6.4-10.9-7-24.3-1.7-35.8c5.1-10.8,15.7-18.1,27.6-19c2.3-9.9,10.4-17.2,20.6-18.2c2.7,0,5.3,0.3,7.8,1
			c2.4-6.3,7.3-12.8,12.2-16.1c13.7-9.3,32.4-5.9,42,7.5c8.8-2.5,17.9-3.9,27-4.1c0.2,0,0.3,0,0.5,0c9.6,0,18.6,3.6,25.5,10.3
			c6.6,7.2,8.4,17.8,4.5,25.4c3.9,1.4,11.6,8,11.6,8.1c3.5,3.5,6.1,7.9,7.6,12.6c3.7,12.7,2.8,23.5-2.7,32.3
			c-5.8,9.2-15.6,14-22.7,15.5c0.7,1.8,1.3,3.6,1.7,5.5c4.6,19.9-7.7,39.8-27.5,44.6c-2.2,11-6.9,19.2-14.1,25
			c-3.7,2.8-8.2,4.3-12.8,4.3c-8.8,0.3-16.1-3.1-23.2-6.4c-1.2-0.6-2.4-1.1-3.7-1.7c-2.3,6.2-2.5,16.2-2.6,25.8
			c0,2.4-0.1,4.7-0.1,6.9c17.4,3,32,7.2,39.9,11.7c5.3,1.8,9.6,3.6,12.6,5.5c19.7,12.3,28.9,44.5,33,75.1
			C372.2,363.7,414.9,299.4,414.9,225z"/>
		<path class="st2" d="M226.5,108.5c4.5,0.8,8.5,3.6,13,4.6c3.4-1,6.7-2.1,9.9-3.5c2.8-1.1,5.7-1.9,8.6-2.4c3.2-0.5,6.5-0.3,9.7,0.6
			c7.7,2.3,13.5,8.5,15.4,16.2c2.3-1.8,5.1-3,8-3.3c2.5-0.2,5.1,0.1,7.4,1c1.5,0.6,2.9,1.4,4.1,2.5c0.4,0.3,0.8,0.7,1.1,1.2
			c-1.7-1.3-3.5-2.3-5.5-3.1c-2.3-0.8-4.6-1-7-0.6c-3.1,0.3-5.9,1.7-8.1,3.8l-0.9,0.9l-0.2-1.2c-1.7-7.6-7.3-13.7-14.8-16
			c-5.8-1.3-11.9-0.7-17.4,1.7c-2.5,1-5,1.9-7.5,2.6c5.2,0.4,10.6-0.9,15.8-0.5c7.6,0.7,14.4,5,18.2,11.6c2.6,4.7,3.8,10.2,7.4,13.8
			c7.5,0.8,14.4,4.6,19.1,10.7c2.6,3.5,4.2,7.6,4.7,11.9c0.9,9.3-2.9,18.4-10.1,24.3c-1.1,0.9-2.3,1.6-3.6,2.2
			c-0.3,0.2-0.7,0.5-1.1,0.6c1.7-0.9,3.3-2.1,4.7-3.3c3.9-3.5,6.8-8,8.3-13c1-3.4,1.3-7,0.9-10.6c-0.5-4.1-2.1-8-4.6-11.2
			c-4.1-5.2-9.9-8.6-16.1-9.8c1.9,1.3,4.2,2.1,6.1,3.3c4.1,2.8,7.1,6.9,8.5,11.7c1.4,4.7,2.2,9.6,2.4,14.5
			c-5.4,1.7-10.9-2.2-14.6-6.7c-1.2-1.4-2.3-2.9-3.5-4.4l0.1,1.2v0.1c1,7.8,0.9,16,0.6,24.3c-0.4,10-1.1,20.1-1.7,29.9
			c0,0.3,0,0.6-0.1,0.9c0.1,0.4,0.1,0.7-0.1,0.8c-0.4,6.7-0.9,13.5-1.2,20.2c-0.1,2.4-0.3,4.8-0.6,7.1l0,0c-0.1,1-0.3,2-0.5,3
			c18.2-4.9,29.5-23.5,25.1-42c-0.5-2.2-1.2-4.3-2.1-6.3c-0.1-0.3-0.1-0.6,0-0.9c0.1-0.3,0.4-0.5,0.7-0.5
			c6.8-1.1,16.8-5.6,22.6-14.8c5.2-8.3,6.1-18.6,2.5-30.6c-1.4-4.4-3.9-8.5-7.1-11.7c-1.3-1.3-9.4-7.6-11.3-7.8
			c-0.3,0.3-0.8,0.3-1.2,0.1c-0.5-0.3-0.6-0.9-0.3-1.4c4.5-7,3-17.5-3.4-24.4c-6.6-6.3-15.3-9.8-24.5-9.7
			c-9.2,0.2-18.3,1.6-27.2,4.2c-0.4,0.1-0.9,0-1.1-0.4c-8.8-13-26.6-16.4-39.6-7.6c-4.8,3.2-9.6,9.8-11.8,16c3,1,5.9,2.6,8.4,4.6
			C215.8,109.7,221,107.5,226.5,108.5z"/>
		<path class="st3" d="M170.9,303.9c-0.4-1.1-0.5-2.3-0.4-3.5c-13,0.2-25.5,1.4-36.3,3.9c4.1,0.4,8.1,1.4,11.9,3.1
			C153.7,305.6,162.1,304.5,170.9,303.9z"/>
		<path class="st3" d="M239.3,308.2c2.8,0.5,5.5,1.1,8.1,1.6c-6.7-2-14.5-3.7-23.1-5.2c0,0.2,0,0.3,0,0.5
			C229.7,305.8,234.8,306.8,239.3,308.2z"/>
		<path class="st3" d="M239.3,308.2c-4.6-1.4-9.6-2.4-15-3.1c0,0.2,0,0.5,0,0.7C229.5,306.5,234.6,307.3,239.3,308.2z"/>
		<path class="st3" d="M172.6,360.6c-0.1-3.6-2.2-7.9-5.5-12.5c-0.2,18.1-2.1,37.4-4.3,56.4c2.4,0.8,4.7,1.6,7.1,2.3
			C171.7,385.7,172.7,367.2,172.6,360.6z"/>
		<path class="st4" d="M276.9,319.8c-3-1.9-7.3-3.8-12.6-5.5c0.3,0.2,0.7,0.4,1,0.6c17.7,11,29.2,38.5,34.2,81.6
			c0.1,1,0.2,2,0.3,3.1c3.4-1.5,6.8-3,10.1-4.7C305.8,364.3,296.7,332.2,276.9,319.8z"/>
		<path class="st4" d="M250.3,313c30.3,18.7,39,53.4,44.6,88.6c1-0.4,2-0.8,3-1.2c-3.5-33-12.2-70.5-33.6-83.8
			c-3.8-2.4-9.6-4.7-16.8-6.8c-2.6-0.6-5.3-1.1-8.1-1.6C243.4,309.5,247.1,311,250.3,313z"/>
		<path class="st4" d="M150.5,309.7c6.8-1.1,14.2-2.3,21.9-3.2c-0.7-0.8-1.1-1.7-1.4-2.6c-8.8,0.6-17.2,1.7-24.8,3.5
			c0.7,0.3,1.3,0.6,2,0.9C148.9,308.8,149.7,309.2,150.5,309.7z"/>
		<path class="st4" d="M224,310.2c0,0.4-0.3,0.7-0.7,0.9c-5.5,1.7-14.6,3-23.7,3c-10.7,0-21.4-1.7-26.4-6.5c-0.3-0.3-0.7-0.7-0.9-1
			c-7.7,0.9-15.1,2.1-21.9,3.2c9.2,5.7,15.4,15.3,16.8,26.1c0.3,1.9,0.3,3.8,0.1,5.7c-0.1,1.2-0.2,2.4-0.2,3.6c0,1,0,1.9,0,2.9
			c3.3,4.6,5.4,9,5.5,12.5c0.1,6.6-0.9,25.1-2.7,46.2c17.4,5.3,35.9,8.1,55.1,8.1c24.7,0,48.3-4.7,69.9-13.3
			c-5.6-35.2-14.3-69.9-44.6-88.6c-3.2-2-6.9-3.6-11-4.8c-4.8-0.9-9.8-1.7-15-2.3C224.2,307.4,224.1,308.8,224,310.2z"/>
		<path class="st5" d="M170.6,299.3c0.1-0.3,0.1-0.6,0.2-0.8c0-0.1,0-0.1,0-0.2c-17.5,0.3-32.9,2.4-44.7,6.1c1.5-0.2,3-0.3,4.5-0.3
			C142.3,301,156.2,299.6,170.6,299.3z"/>
		<path class="st5" d="M258,312.4c2.2,0.6,4.3,1.3,6.3,1.9c-7.9-4.5-22.5-8.8-39.9-11.7c0,0.3,0,0.7,0,1
			C238,306,249.8,309.1,258,312.4z"/>
		<path class="st5" d="M247.5,309.8c3.7,0.8,7.3,1.7,10.5,2.6c-8.2-3.3-20-6.4-33.6-8.8c0,0.3,0,0.7,0,1
			C232.9,306.1,240.8,307.9,247.5,309.8z"/>
		<path class="st5" d="M134.2,304.3c10.8-2.5,23.3-3.7,36.3-3.9c0-0.3,0.1-0.7,0.1-1c-14.4,0.2-28.3,1.7-40,4.8
			C131.8,304.2,133,304.2,134.2,304.3z"/>
		<path class="st5" d="M264.8,315.8c21.7,13.6,30.6,51.1,34.1,84.2c0.3-0.1,0.6-0.3,1-0.4c-0.1-1-0.2-2-0.3-3.1
			c-5-43.1-16.5-70.6-34.2-81.6c-0.3-0.2-0.6-0.4-1-0.6c-2-0.7-4.1-1.3-6.3-1.9C260.7,313.5,263,314.6,264.8,315.8z"/>
		<path class="st5" d="M264.2,316.6c21.4,13.3,30.1,50.8,33.6,83.8c0.3-0.1,0.7-0.3,1-0.4c-3.5-33.1-12.4-70.7-34.1-84.2
			c-1.8-1.1-4.1-2.3-6.8-3.4c-3.3-0.9-6.8-1.8-10.5-2.6C254.6,311.9,260.4,314.2,264.2,316.6z"/>
		<path class="st6" d="M126.1,316.5c-4.7-3.9-8.1-6.5-8.6-6.9c-0.7,0.3-1.3,0.6-2,0.9c-12.6,6.3-19.8,19.4-19.8,35.9L95,363.5
			c6.7,6.3,13.9,12.1,21.5,17.4C115.9,352.9,117.8,325.9,126.1,316.5z"/>
		<path class="st6" d="M159.4,356.5c-0.2-10.9-21-29.8-33.3-40.1c-8.3,9.4-10.2,36.4-9.6,64.4c12.4,8.6,25.9,15.8,40.2,21.4
			C158.5,381.5,159.5,363.3,159.4,356.5z"/>
		<path class="st6" d="M130.2,312.8c3.5-1.6,7.4-3,11.5-4.2c-6.2-2-12.9-2.3-19.2-0.7c-0.9,0.3-1.7,0.7-2.5,1
			c1.5,1.2,4.3,3.4,7.6,6.1c1-0.8,2.1-1.4,3.3-1.8C130.4,313,130.2,312.8,130.2,312.8z"/>
		<path class="st6" d="M161.4,356.5c0.1,6.9-0.9,25.4-2.7,46.5c0.5,0.2,0.9,0.4,1.4,0.5c2.2-19.8,4.2-39.8,4.2-58.4
			c0-0.2,0-0.4,0-0.6c-11-13.6-29.6-28.2-33.4-31.2c-1.2,0.3-2.3,0.9-3.3,1.8C140.1,325.5,161.1,344.8,161.4,356.5z"/>
		<path class="st6" d="M146.3,310.4c-1.5-0.7-3-1.4-4.6-1.9c-4.2,1.2-8,2.6-11.5,4.2c0,0,0.3,0.2,0.7,0.5c0.2-0.1,0.5-0.1,0.7-0.2
			C135.9,312.3,140.9,311.4,146.3,310.4z"/>
		<path class="st6" d="M164.5,336.2c-1.7-11.4-8-20.4-17.7-25.5c-0.2-0.1-0.4-0.2-0.6-0.3c-5.4,0.9-10.4,1.9-14.7,2.7
			c-0.2,0-0.5,0.1-0.7,0.2c3.8,3,22.4,17.6,33.4,31.2c0-1.1,0.1-2.2,0.2-3.3C164.8,339.6,164.8,337.9,164.5,336.2z"/>
		<path class="st6" d="M126.8,315.8c-4-3.3-7-5.7-8.2-6.6c-0.4,0.1-0.7,0.3-1.1,0.4c0.5,0.4,3.9,3,8.6,6.9
			C126.3,316.2,126.6,316,126.8,315.8z"/>
		<path class="st6" d="M159.4,356.5c0.1,6.8-0.9,25-2.6,45.7c0.3,0.1,0.6,0.2,1,0.4c1.8-21,2.8-39.5,2.7-46.1
			c-0.2-11.3-21.2-30.5-33.6-40.8c-0.2,0.2-0.5,0.5-0.7,0.7C138.3,326.7,159.2,345.6,159.4,356.5z"/>
		<path class="st6" d="M127.6,315.1c-3.3-2.8-6.1-4.9-7.6-6.1c0.8-0.4,1.7-0.7,2.5-1c-1.3,0.3-2.6,0.7-3.9,1.2
			c1.2,0.9,4.3,3.3,8.2,6.6C127,315.5,127.3,315.3,127.6,315.1z"/>
		<path class="st6" d="M160.4,356.5c0.1,6.6-0.9,25.1-2.7,46.1c0.3,0.1,0.6,0.2,1,0.4c1.8-21.1,2.8-39.6,2.7-46.5
			c-0.2-11.7-21.3-31-33.8-41.4c-0.3,0.2-0.5,0.4-0.8,0.7C139.1,326.1,160.1,345.2,160.4,356.5z"/>
		<path class="st5" d="M95.7,346.4c-0.1-16.5,7.1-29.6,19.8-35.9c0.7-0.3,1.3-0.6,2-0.9c0,0-0.1,0-0.1-0.1c-0.3-0.2-0.4-0.6-0.4-0.9
			s0.3-0.7,0.6-0.8c2.6-1.2,5.5-2.3,8.6-3.3c-4.1,0.5-8.1,1.7-11.9,3.6c-13.6,6.8-21.3,20.8-21.2,38.3L92.4,361
			c0.9,0.8,1.7,1.7,2.6,2.5L95.7,346.4z"/>
		<path class="st5" d="M141.7,308.6c1.5-0.4,2.9-0.8,4.5-1.2c-3.8-1.7-7.8-2.7-11.9-3.1c-4.2,1-8.1,2.2-11.7,3.6
			C128.8,306.3,135.5,306.5,141.7,308.6z"/>
		<path class="st5" d="M167.1,348.1c-0.8-1.2-1.8-2.4-2.7-3.6c0,0.2,0,0.4,0,0.6c0,18.6-2,38.7-4.2,58.4c0.9,0.3,1.8,0.6,2.7,0.9
			C164.9,385.5,166.9,366.2,167.1,348.1z"/>
		<path class="st5" d="M150.5,309.7c-0.8-0.5-1.5-0.9-2.4-1.4c-0.6-0.3-1.3-0.6-2-0.9c-1.5,0.4-3,0.7-4.5,1.2
			c1.6,0.5,3.1,1.1,4.6,1.9C147.6,310.2,149,310,150.5,309.7z"/>
		<path class="st5" d="M167.1,345.2c0-1.2,0.1-2.4,0.2-3.6c0.3-1.9,0.2-3.8-0.1-5.7c-1.4-10.8-7.6-20.4-16.8-26.1
			c-1.4,0.2-2.8,0.5-4.2,0.7c0.2,0.1,0.4,0.2,0.6,0.3c9.7,5.1,16,14.1,17.7,25.5c0.2,1.7,0.2,3.3,0,5c-0.1,1.1-0.2,2.2-0.2,3.3
			c1,1.2,1.9,2.4,2.7,3.6C167.1,347.1,167.1,346.1,167.1,345.2z"/>
		<path class="st5" d="M117,308.6c0,0.3,0.1,0.7,0.4,0.9c0,0,0,0,0.1,0.1c0.4-0.2,0.7-0.3,1.1-0.4c-0.4-0.3-0.6-0.4-0.6-0.4
			c3.8-1.8,8.1-3.3,12.6-4.5c-1.5,0-3,0.1-4.5,0.3c-3.1,1-6,2.1-8.6,3.3C117.3,308,117,308.3,117,308.6z"/>
		<path class="st5" d="M134.2,304.3c-1.2-0.1-2.4-0.2-3.6-0.1c-4.6,1.2-8.8,2.7-12.6,4.5c0,0,0.2,0.1,0.6,0.4
			c1.3-0.5,2.6-0.9,3.9-1.2C126.1,306.5,130,305.3,134.2,304.3z"/>
		<path class="st6" d="M198.1,299.3c3.4,0.3,6.8,0.6,10.1,1c-1-19.8-2.5-39.4-10.1-57.9c14.9,14.2,22.7,21.2,28.3,25.2
			c0.2,0,0.4,0,0.6,0c1.6,0.7,3.1,1.4,4.6,2.1c6.9,3.2,13.9,6.4,22.3,6.2h0.1c4.2,0,8.2-1.4,11.5-3.9c6.9-5.5,11.3-13.4,13.4-24
			c-12.7,2.4-26.3-2.1-35-12.8l-29.8-86.6l-1.2-0.7c-0.9,4-2.2,7.8-4,11.5c0,0.1-0.1,0.1-0.1,0.1c-3.3,4.6-7.1,8.9-11.4,12.6
			c0.7,2,1,4.2,1,6.3c0.3,6.2-0.5,11.5-2.5,15.8c-0.9,2.2-2.4,4.1-4.4,5.4c-1.3,0.7-2.7,1.1-4.2,1.1c-1.8,0-3.7-0.6-5.2-1.8
			c-1.4-1.3-5-5.4-6.1-6.7c-3.5,0.7-6.5,2.8-8.3,5.8c0,0,0,0.1-0.1,0.1c-2.1,4-2,8.8,0.3,12.7c2.5,4.5,7.9,7.8,13.8,8.5l0,0
			c0.1,0,0.2,0,0.3,0c0.5,0,0.9,0.4,0.9,0.9c1.5,18.8-4.9,57.8-10.2,78C180.9,298.3,189.4,298.6,198.1,299.3z M239.4,242
			c0.3-0.1,0.8,0.8,1.8,2.1c1.3-1.1,3.8-0.6,7.4,1c3.2,1.4,5.3,2.7,5.9,4.2c1.6-0.2,2.7-0.5,2.9-0.3c0.4,0.6-0.8,1.3-3,2.1l0,0
			c-1,2.2-4.9,4.5-9.5,2.5c-3.9-1.7-5.1-5.1-4.8-7.4c-0.1-0.2-0.3-0.5-0.4-0.8C238.9,243.4,239,242.1,239.4,242z M234.2,210.6
			c0.1-0.5,0.2-0.9,0.5-0.9s0.3,0.5,0.2,1c-0.1,0.6-0.3,0.9-0.5,0.9S234.1,211.1,234.2,210.6z M230.4,205.5c0.1-0.3,0.4-0.5,0.6-0.4
			c0.2,0.2,0.2,0.5,0.1,0.7c-0.1,0.3-0.3,0.4-0.6,0.4C230.3,206.1,230.3,205.8,230.4,205.5z M183.1,212.5c-3.5,0.9-2.5-4.4-3.1-6.3
			c-0.5-1.4-1.5-2.6-2.9-3.3c-1.5-0.8-3.2-0.6-4.8-1.1c-0.2-0.1-0.4-0.2-0.5-0.4c-0.5-0.6-0.5-1.5,0.2-2c2.6-2.5,7.4-0.9,9.8,1.1
			c2.8,2.4,4.2,6.1,3.5,9.8C185,211.4,184.2,212.2,183.1,212.5z"/>
		<path class="st6" d="M280.4,236.2c0.4-7.3,0.9-14.8,1.4-22c0.6-9.8,1.3-19.9,1.7-29.8c0.1-3,0.2-5.9,0.2-8.9
			c-0.4,0-0.7-0.1-0.9-0.4c-2.9-3.2-7.8-3.7-11.3-1.1c-0.6,0.5-1.4,0.4-1.9-0.2c-0.5-0.6-0.4-1.4,0.2-1.9c4.2-3.2,10-3,13.9,0.4
			c-0.1-5-0.4-9.9-1.2-14.5c-1.7-1.8-4.1-3.9-7.1-4.7c-2.7-0.8-5.9-0.4-8.9-0.1c-4.6,0.5-9.3,1-13-2.1c-2-1.6-3.1-4-4.2-6.3
			c-1.2-2.5-2.3-4.8-4.3-6c-2.9-1.7-6.5-0.7-10.2,0.3c-1.1,0.3-2.2,0.6-3.3,0.8c-6.1,1.2-12.2-0.1-17.3-3.5c0.1,4-0.3,7.9-1.2,11.8
			l1.2,0.7l29.8,86.6c8.7,10.8,22.3,15.2,35,12.8c0.3-1.6,0.6-3.2,0.8-4.8C280,240.9,280.2,238.6,280.4,236.2z M238.8,208.5
			c-0.2,0-0.4-0.4-0.5-0.9s0-0.9,0.2-0.9s0.4,0.3,0.4,0.9C239.1,208.1,239,208.5,238.8,208.5z M238,194.2c-2.2,0-4.1-1.8-4.1-4.1
			s1.8-4.1,4.1-4.1s4.1,1.8,4.1,4.1S240.3,194.2,238,194.2z M244,172.9c-0.3,0-0.6-0.1-0.9-0.3c-3.2-3-8.2-3.1-11.5-0.1
			c-0.6,0.5-1.4,0.5-1.9-0.1s-0.5-1.4,0.1-1.9c4.3-3.9,10.8-3.9,15.1,0c0.6,0.5,0.6,1.3,0.2,1.9C244.8,172.7,244.4,172.9,244,172.9
			L244,172.9z M245.2,211.5c-0.3,0-0.4-0.4-0.6-0.9c-0.2-0.5-0.1-1,0.1-1.1c0.2-0.1,0.4,0.4,0.6,0.9
			C245.4,210.9,245.4,211.5,245.2,211.5z M261.3,225c-0.1,0-0.2,0-0.3,0c-0.1,0-0.2,0-0.3,0c-2.5,0-5.1-1-5.8-2.4s0.6-3,3-3.2
			c-1.9-2.2-2.8-5.1-2.7-8c0-1,0.5-2,1.4-2.6c0.7-0.4,1.8-0.7,2.8-0.7c0,0,0,0-0.1-0.1c-0.5-0.4,0.6-0.9,1.3-0.6
			c5.4,2.8,10.4,6.4,10.9,10.6C271.7,221.1,267.6,225,261.3,225z M275.1,207.6c-0.1,0.2-0.3,0.4-0.6,0.4c-0.2-0.1-0.2-0.4-0.1-0.7
			s0.4-0.5,0.6-0.5C275.2,207,275.2,207.3,275.1,207.6z M274.6,194.5c-2.2,0-4.1-1.8-4.1-4.1s1.8-4.1,4.1-4.1s4.1,1.8,4.1,4.1
			S276.8,194.5,274.6,194.5z M279,212.5c-0.1,0.5-0.3,0.9-0.5,0.9s-0.3-0.5-0.2-1c0.1-0.5,0.2-0.9,0.5-0.9
			C279,211.5,279.1,211.9,279,212.5z"/>
		<path class="st6" d="M173,303.8c11.3-0.7,23.1-0.4,34.7,0.4c0.3,0,0.5,0,0.8,0c0-0.6-0.1-1.2-0.1-1.8c-11.6-1.3-23.9-2.1-35.8-2
			C172.4,301.6,172.5,302.7,173,303.8z"/>
		<path class="st6" d="M208.4,304.2c-0.3,0-0.5,0-0.8,0C207.9,304.2,208.2,304.2,208.4,304.2L208.4,304.2z"/>
		<path class="st6" d="M174.8,306.2c10.9-1.3,22.1-2.1,32.8-2c-11.6-0.9-23.4-1.1-34.7-0.4c0.4,0.8,0.9,1.6,1.7,2.3
			C174.7,306.1,174.8,306.2,174.8,306.2z"/>
		<path class="st6" d="M174.8,306.2c5.7,5.3,20.9,6.6,34,5.5c-0.1-2.5-0.2-5-0.4-7.5c-0.3,0-0.5,0-0.8-0.1
			C196.9,304.1,185.7,305,174.8,306.2z"/>
		<path class="st6" d="M208.3,301.3c0-0.3,0-0.7-0.1-1c-3.3-0.4-6.7-0.7-10.1-1c-8.7-0.7-17.2-1-25.2-1c-0.1,0.2-0.1,0.5-0.2,0.7
			c0,0.1,0,0.2-0.1,0.3C184.6,299.2,196.7,300,208.3,301.3z"/>
		<path class="st6" d="M208.3,302.3c0-0.3,0-0.7-0.1-1c-11.5-1.3-23.7-2.1-35.6-2c-0.1,0.4-0.1,0.7-0.2,1
			C184.4,300.3,196.7,301,208.3,302.3z"/>
		<path class="st7" d="M208.2,300.3c4.9,0.6,9.6,1.2,14.2,2c0.1-2.1,0.1-4.3,0.1-6.6c0.1-10.4,0.3-21.1,3.1-27.5
			c0.1-0.3,0.4-0.5,0.7-0.6c-5.6-4-13.4-11-28.3-25.2C205.8,260.9,207.2,280.5,208.2,300.3z"/>
		<path class="st7" d="M222.4,304.3c-4.5-0.7-9.2-1.4-14.1-1.9c0,0.6,0.1,1.2,0.1,1.8c4.8,0,9.5,0.3,13.9,0.7
			C222.4,304.7,222.4,304.5,222.4,304.3z"/>
		<path class="st7" d="M222.3,305.6c0-0.2,0-0.5,0-0.7c-4.5-0.5-9.1-0.7-13.9-0.7c0,0,0,0,0,0.1
			C213.1,304.6,217.8,305.1,222.3,305.6z"/>
		<path class="st7" d="M222.3,305.6c-4.5-0.6-9.2-1-13.9-1.4c0.1,2.5,0.2,5,0.4,7.5c4.9-0.4,9.6-1.2,13.3-2.3
			C222.2,308.2,222.3,306.9,222.3,305.6z"/>
		<path class="st7" d="M208.3,301.3c4.8,0.6,9.6,1.2,14.1,2c0-0.3,0-0.7,0-1c-4.6-0.7-9.3-1.4-14.2-2
			C208.2,300.7,208.3,301,208.3,301.3z"/>
		<path class="st7" d="M208.3,302.3c4.8,0.6,9.5,1.2,14.1,1.9c0-0.3,0-0.7,0-1c-4.6-0.7-9.3-1.4-14.1-2
			C208.3,301.7,208.3,302,208.3,302.3z"/>
		<path class="st7" d="M185.2,210.3c0.7-3.6-0.6-7.4-3.5-9.8c-2.4-2-7.2-3.6-9.8-1.1c-0.6,0.5-0.7,1.4-0.2,2
			c0.1,0.2,0.3,0.3,0.5,0.4c1.6,0.5,3.2,0.4,4.8,1.1c1.4,0.7,2.4,1.9,2.9,3.3c0.7,1.9-0.4,7.2,3.1,6.3
			C184.2,212.2,185,211.4,185.2,210.3z"/>
		<path class="st7" d="M260.9,223.8c1.8-1,3.9-1.4,5.1-2.8c1.1-1.2,1.4-3,0.7-4.5c-1.1-3.1-4.7-5.7-7.5-8.4c-1,0-2.1,0.3-2.8,0.7
			c-0.9,0.6-1.4,1.5-1.4,2.6c-0.1,2.9,0.8,5.8,2.7,8c-2.4,0.2-3.8,1.8-3,3.2s3.4,2.3,5.8,2.4c0.1,0,0.2,0,0.3,0
			C259.6,224.9,259.7,224.4,260.9,223.8z"/>
		<path class="st5" d="M260.5,207.4c-0.7-0.3-1.8,0.1-1.3,0.6c0,0,0,0,0.1,0.1c0.7,0,1.3,0.1,1.8,0.4c2.9,2.2,5.8,4.5,7.3,7.1
			s1.4,5.6-1.4,7.6c-1.8,1.2-3.8,1.8-5.9,1.8c0.1,0,0.2,0,0.3,0c6.3,0,10.4-3.9,10.1-7C270.9,213.8,265.9,210.2,260.5,207.4z"/>
		<path class="st5" d="M268.3,215.6c-1.5-2.6-4.4-4.9-7.3-7.1c-0.4-0.3-1.1-0.4-1.8-0.4c2.8,2.7,6.4,5.3,7.5,8.4
			c0.7,1.5,0.4,3.3-0.7,4.5c-1.2,1.3-3.3,1.8-5.1,2.8c-1.2,0.6-1.3,1.1,0.1,1.2c2.1,0,4.2-0.6,5.9-1.8
			C269.7,221.2,269.8,218.2,268.3,215.6z"/>
		<path class="st8" d="M238.6,206.7c-0.2,0-0.3,0.4-0.2,0.9s0.3,0.9,0.5,0.9s0.3-0.5,0.2-1C239,207,238.8,206.6,238.6,206.7z"/>
		<path class="st8" d="M230.5,206.2c0.3,0,0.5-0.2,0.6-0.4s0.1-0.5-0.1-0.7c-0.1-0.1-0.4,0.1-0.6,0.4S230.3,206.1,230.5,206.2z"/>
		<path class="st8" d="M234.4,211.6c0.2,0,0.4-0.4,0.5-0.9s0.1-1-0.2-1s-0.4,0.4-0.5,0.9C234.1,211.1,234.2,211.6,234.4,211.6z"/>
		<path class="st8" d="M244.7,209.5c-0.2,0.1-0.2,0.5-0.1,1.1c0.2,0.5,0.3,0.9,0.6,0.9c0.2,0,0.2-0.5,0.1-1.1
			C245.1,209.8,244.9,209.4,244.7,209.5z"/>
		<path class="st8" d="M274.4,207.3c-0.1,0.3-0.1,0.6,0.1,0.7c0.3,0,0.5-0.2,0.6-0.4s0.1-0.5-0.1-0.7
			C274.8,206.8,274.6,207,274.4,207.3z"/>
		<path class="st8" d="M278.8,211.5c-0.3,0-0.4,0.4-0.5,0.9s0,1,0.2,1s0.4-0.4,0.5-0.9C279.1,211.9,279,211.5,278.8,211.5z"/>
		<path class="st8" d="M283.7,215.2c0,0.3,0,0.6-0.1,0.8C283.7,216,283.7,215.6,283.7,215.2z"/>
		<path class="st5" d="M244.9,170.5c-4.3-3.9-10.8-3.9-15.1,0c-0.6,0.5-0.6,1.4-0.1,1.9c0.5,0.6,1.4,0.6,1.9,0.1
			c3.3-2.9,8.3-2.9,11.5,0.1c0.2,0.2,0.6,0.3,0.9,0.3v-0.1c0.4,0,0.8-0.2,1-0.5C245.5,171.8,245.4,171,244.9,170.5z"/>
		<path class="st5" d="M283.7,172.3c-3.9-3.3-9.7-3.6-13.9-0.4c-0.6,0.5-0.7,1.3-0.2,1.9c0.5,0.6,1.3,0.7,1.9,0.2
			c3.5-2.6,8.4-2.1,11.3,1.1c0.3,0.2,0.6,0.4,0.9,0.4C283.7,174.4,283.7,173.3,283.7,172.3z"/>
		<circle class="st5" cx="238" cy="190.2" r="4.1"/>
		<circle class="st5" cx="274.6" cy="190.4" r="4.1"/>
		<path class="st9" d="M246.9,248.6c2.9,1.1,5.6,1,7.5,0.7c-0.6-1.4-2.6-2.7-5.9-4.2c-3.7-1.6-6.1-2.1-7.4-1
			C242.3,245.6,244,247.5,246.9,248.6z"/>
		<path class="st9" d="M245.7,251c-2.4-0.9-4.4-2.6-5.6-4.8c-0.4,2.3,0.9,5.7,4.8,7.4c4.6,2,8.5-0.2,9.5-2.5l0,0l0,0
			C251.6,252.1,248.5,252,245.7,251z"/>
		<path class="st5" d="M240.1,246.2c0.1-0.4,0.2-0.7,0.3-1.1c0.2-0.4,0.4-0.8,0.8-1c-1-1.2-1.5-2.2-1.8-2.1
			c-0.4,0.1-0.5,1.4,0.3,3.4C239.8,245.7,239.9,245.9,240.1,246.2z"/>
		<path class="st5" d="M254.4,251.1c2.1-0.8,3.4-1.5,3-2.1c-0.2-0.3-1.3,0-2.9,0.3C254.7,249.8,254.7,250.5,254.4,251.1z"/>
		<path class="st5" d="M240.4,245.1c-0.1,0.3-0.2,0.7-0.3,1.1c1.3,2.2,3.3,3.9,5.6,4.8c2.8,1,5.8,1.1,8.6,0.1l0,0
			c0.3-0.6,0.3-1.3,0.1-1.8c-2,0.3-4.7,0.4-7.5-0.7c-2.8-1.1-4.6-3-5.7-4.5C240.8,244.3,240.6,244.7,240.4,245.1z"/>
		<path class="st5" d="M182.3,225l-2.4,27.2c0,0.4-0.3,0.6-0.5,0.8c-2.1,16.5-5.5,34-8.5,45.3c0.3,0,0.7,0,1,0
			C176.6,280.2,182.6,245.3,182.3,225z"/>
		<path class="st5" d="M280.4,248.7c-0.2,0-0.3-0.1-0.5-0.1c-1.9,9.2-5.8,17.9-13.7,24.3c-3.5,2.7-7.8,4.1-12.2,4.1
			c-8.5,0.3-15.5-2.9-22.4-6.1c0.1,0.1,0.2,0.1,0.3,0.2c0,0-3.7-1.6-5.2-2.4c-3.5,8.7-2.7,21.9-3.2,33.8c0.3,0.1,0.7,0.1,1,0.2
			c0.1-2.2,0.1-4.5,0.1-6.9c0.1-9.7,0.3-19.6,2.6-25.8c1.2,0.5,2.4,1.1,3.7,1.7c7.1,3.3,14.4,6.6,23.2,6.4c4.6,0,9.1-1.5,12.8-4.3
			c7.2-5.8,11.9-14,14.1-25c-0.1,0-0.2,0.1-0.3,0.1C280.5,248.7,280.4,248.7,280.4,248.7z"/>
		<path class="st5" d="M281.7,243.4c0.3-2.2,0.5-4.6,0.6-7.1c0.4-6.7,0.8-13.6,1.2-20.2c0,0,0,0.1-0.1,0.1c-0.3,0-0.4-0.4-0.6-0.9
			s-0.1-1,0.1-1.1s0.4,0.4,0.6,0.9c0,0.1,0,0.1,0,0.2c0-0.3,0-0.6,0.1-0.9c0.7-9.8,1.3-19.9,1.7-29.9c0.3-8.4,0.5-16.6-0.6-24.3
			c0,0.5-0.4,0.9-0.9,1c0.5,4,0.7,8.1,0.7,12.2c0.5,0.5,0.5,1.3,0,1.8c0,3.1-0.1,6.2-0.2,9.4c-0.3,8.3-0.9,16.7-1.4,25
			c0,0.3,0,0.5,0,0.7c-0.6,8.7-1.2,17.4-1.6,26.2c-0.1,2.3-0.3,4.7-0.6,7l0,0l0,0l0,0c-0.1,1.1-0.3,2.3-0.5,3.4
			c0.4-0.1,0.7-0.2,1.1-0.3C281.5,245.4,281.6,244.4,281.7,243.4L281.7,243.4z"/>
		<path class="st5" d="M224.4,305.1c0-0.2,0-0.3,0-0.5c-0.3-0.1-0.7-0.1-1-0.2c0,0.2,0,0.4,0,0.6C223.7,305.1,224,305.1,224.4,305.1
			z"/>
		<path class="st5" d="M170.9,303.9c0.3,0,0.7,0,1-0.1c-0.4-1-0.6-2.2-0.4-3.4c-0.3,0-0.7,0-1,0
			C170.4,301.6,170.5,302.8,170.9,303.9z"/>
		<path class="st5" d="M224.3,305.9c0-0.2,0-0.5,0-0.7c-0.3,0-0.7-0.1-1-0.1c0,0.2,0,0.5,0,0.7C223.7,305.8,224,305.8,224.3,305.9z"
			/>
		<path class="st5" d="M173.5,306.4c-0.7-0.8-1.3-1.6-1.6-2.5c-0.3,0-0.7,0-1,0.1c0.3,0.9,0.8,1.8,1.4,2.6
			C172.7,306.5,173.1,306.4,173.5,306.4z"/>
		<path class="st5" d="M199.6,314.1c9.1,0,18.2-1.3,23.7-3c0.4-0.1,0.7-0.5,0.7-0.9c0.1-1.4,0.2-2.8,0.3-4.4c-0.3,0-0.7-0.1-1-0.1
			c-0.1,1.5-0.2,3-0.3,4.4c-0.5,0.2-1,0.3-1.5,0.4c-3.6,1.5-8.8,3.3-12.6,2.6c0-0.2,0-0.3,0-0.5c-13.5,1.2-29.6-0.1-35.3-6.3
			c-0.4,0-0.8,0.1-1.2,0.1c0.3,0.4,0.6,0.7,0.9,1C178.3,312.3,189,314.1,199.6,314.1z"/>
		<path class="st5" d="M223.4,302.7c0,0.3,0,0.5,0,0.8c0.3,0.1,0.7,0.1,1,0.2c0-0.3,0-0.7,0-1c-0.3-0.1-0.7-0.1-1-0.2
			C223.4,302.5,223.4,302.6,223.4,302.7z"/>
		<path class="st5" d="M170.6,299.3c0.3,0,0.7,0,1,0c0-0.2,0.1-0.4,0.1-0.6c0-0.1,0.1-0.3,0.1-0.4c-0.3,0-0.7,0-1,0
			c0,0.1,0,0.1,0,0.2C170.7,298.8,170.7,299.1,170.6,299.3z"/>
		<path class="st5" d="M171.5,300.4c0-0.3,0.1-0.7,0.2-1c-0.3,0-0.7,0-1,0c-0.1,0.4-0.1,0.7-0.1,1
			C170.8,300.4,171.1,300.4,171.5,300.4z"/>
		<path class="st5" d="M224.4,304.6c0-0.3,0-0.7,0-1c-0.3-0.1-0.7-0.1-1-0.2c0,0.3,0,0.7,0,1C223.7,304.5,224,304.6,224.4,304.6z"/>
		<path class="st5" d="M167.9,198c0,0,0,0.1-0.1,0.1C167.8,198.1,167.8,198.1,167.9,198L167.9,198z"/>
		<path class="st5" d="M177.1,152.2c0,0,1.8-8,8.5-16.3C178.9,144.2,177,152.3,177.1,152.2c0,0-6.5,20.6-0.7,37.9c0,0,0,0,0.1,0
			C170.6,172.9,177.1,152.2,177.1,152.2z"/>
		<path class="st5" d="M279.4,247.9L279.4,247.9c-0.1,0-0.3,0-0.4,0.1c-2.1,10.6-6.6,18.5-13.4,24c-3.3,2.5-7.3,3.9-11.5,3.9H254
			c-8.4,0.3-15.4-3-22.3-6.2c-1.6-0.7-3.1-1.4-4.6-2.1c-0.2-0.1-0.4-0.1-0.6,0c1.9,1.4,3.6,2.4,5.2,3.2c6.9,3.2,14,6.4,22.4,6.1
			c4.4,0,8.7-1.4,12.2-4.1c7.9-6.4,11.8-15.1,13.7-24.3C279.6,248.4,279.5,248.2,279.4,247.9z"/>
		<path class="st5" d="M183.1,220.4c0-0.5-0.4-0.9-0.9-0.9c-0.1,0-0.2,0-0.3,0c0.5,0.1,0.9,0.5,0.9,1.1l-0.4,4.6
			c0.3,20.2-5.6,55.2-10.4,73.3c0.3,0,0.7,0,1,0C178.2,278.1,184.6,239.2,183.1,220.4z"/>
		<path class="st5" d="M282.9,160.2l-0.2-2.3c-0.1-0.1-0.1-0.1-0.2-0.2c0.8,4.7,1.1,9.5,1.2,14.5c0.3,0.3,0.7,0.6,1,0.9
			c0,0,0,0.1,0.1,0.1c0-4.1-0.2-8.2-0.7-12.2l0,0C283.4,161.1,283,160.7,282.9,160.2z"/>
		<path class="st5" d="M280.8,243.3L280.8,243.3L280.8,243.3c0.3-2.3,0.5-4.7,0.6-7c0.5-8.7,1.1-17.5,1.6-26.2
			c0,0.1-0.1,0.2-0.2,0.2c-0.2,0-0.4-0.3-0.5-0.9c-0.1-0.5,0-1,0.2-1s0.4,0.3,0.5,0.9c0,0,0,0,0,0.1c0.5-8.3,1.1-16.6,1.4-25
			c0.1-3.1,0.2-6.2,0.2-9.4l0,0c-0.3,0.3-0.6,0.4-1,0.4l0,0l0,0c0,2.9-0.1,5.9-0.2,8.9c-0.4,10-1.1,20.1-1.7,29.8
			c-0.5,7.2-1,14.7-1.4,22c-0.1,2.4-0.3,4.7-0.6,6.9c-0.2,1.7-0.5,3.3-0.8,4.8c0.1,0,0.3-0.1,0.4-0.1c-0.1-0.5,0.2-1.1,0.7-1.2h0.1
			C280.4,245.6,280.6,244.4,280.8,243.3L280.8,243.3z"/>
		<path class="st5" d="M223.4,305c0-0.2,0-0.4,0-0.6l0,0C223.3,304.6,223.3,304.8,223.4,305C223.3,305,223.3,305,223.4,305z"/>
		<path class="st5" d="M171.9,303.8c0.3,0,0.7,0,1-0.1c-0.5-1-0.6-2.2-0.5-3.4c-0.3,0-0.7,0-1,0
			C171.4,301.6,171.5,302.8,171.9,303.8z"/>
		<path class="st5" d="M223.3,305.7c0-0.2,0-0.5,0-0.7l0,0C223.3,305.3,223.3,305.5,223.3,305.7L223.3,305.7z"/>
		<path class="st5" d="M174.8,306.2l-0.1-0.1c-0.8-0.7-1.3-1.5-1.7-2.3c-0.3,0-0.7,0-1,0.1c0.4,0.9,0.9,1.8,1.6,2.5
			C174,306.3,174.4,306.3,174.8,306.2z"/>
		<path class="st5" d="M208.8,312.7c0-0.3,0-0.6,0-1c-13.1,1.2-28.3-0.2-34-5.5c-0.4,0-0.8,0.1-1.3,0.2
			C179.2,312.5,195.4,313.9,208.8,312.7z"/>
		<path class="st5" d="M221.5,310.6c0.5-0.1,1-0.3,1.5-0.4c0.1-1.4,0.2-2.8,0.3-4.4c0,0,0,0-0.1,0c-0.1,1.4-0.2,2.9-0.4,4.2
			C222.4,310.2,222,310.4,221.5,310.6z"/>
		<path class="st5" d="M223.4,303.5c0-0.2,0-0.5,0-0.8C223.4,303,223.4,303.2,223.4,303.5L223.4,303.5z"/>
		<path class="st5" d="M172.7,299c0.1-0.2,0.1-0.5,0.2-0.7c-0.3,0-0.7,0-1,0c0,0.1-0.1,0.3-0.1,0.4c-0.1,0.2-0.1,0.4-0.1,0.6
			c0.3,0,0.7,0,1,0C172.7,299.2,172.7,299.1,172.7,299z"/>
		<path class="st5" d="M223.4,304.5L223.4,304.5c0-0.3,0.1-0.7,0.1-1l0,0C223.4,303.8,223.4,304.1,223.4,304.5z"/>
		<path class="st5" d="M172.5,300.4c0-0.3,0.1-0.7,0.2-1c-0.3,0-0.7,0-1,0c-0.1,0.4-0.1,0.7-0.2,1
			C171.8,300.4,172.2,300.4,172.5,300.4z"/>
		<path class="st5" d="M223.4,302.4C223.4,302.4,223.5,302.4,223.4,302.4c0.5-11.9-0.3-25.2,3.2-33.8c1.6,0.8,5.2,2.4,5.2,2.4
			c-0.1-0.1-0.2-0.1-0.3-0.2c-1.7-0.8-3.3-1.5-4.9-2.2C223.2,276.3,223.8,290.7,223.4,302.4z"/>
		<path class="st5" d="M208.9,313.2c3.8,0.7,9.1-1.1,12.6-2.6c-3.5,0.9-7.9,1.7-12.6,2.1C208.9,312.8,208.9,313,208.9,313.2z"/>
		<path class="st5" d="M223.4,302.7c0-0.1,0-0.2,0-0.3l0,0C223.4,302.5,223.4,302.6,223.4,302.7z"/>
		<path class="st5" d="M225.7,268.2c-2.8,6.5-3,17.2-3.1,27.5c0,2.3-0.1,4.5-0.1,6.6c0.3,0.1,0.7,0.1,1,0.2
			c0.3-11.7-0.2-26.1,3.2-33.9c1.7,0.7,3.3,1.5,4.9,2.2c-1.6-0.8-3.2-1.8-5.2-3.2C226.1,267.7,225.8,267.9,225.7,268.2z"/>
		<path class="st5" d="M222.4,304.9c0.3,0,0.6,0.1,1,0.1c0-0.2,0-0.4,0-0.6c-0.3-0.1-0.6-0.1-1-0.2
			C222.4,304.5,222.4,304.7,222.4,304.9z"/>
		<path class="st5" d="M223.3,305.7c0-0.2,0-0.5,0.1-0.7c-0.3,0-0.6-0.1-1-0.1c0,0.2,0,0.5,0,0.7C222.6,305.7,223,305.7,223.3,305.7
			z"/>
		<path class="st5" d="M221.5,310.6c0.5-0.2,1-0.4,1.4-0.6c0.2-1.4,0.3-2.8,0.4-4.2c-0.3,0-0.6-0.1-0.9-0.1
			c-0.1,1.3-0.1,2.6-0.2,3.7c-3.7,1.1-8.3,1.9-13.3,2.3c0,0.3,0,0.6,0,1C213.6,312.2,218,311.5,221.5,310.6z"/>
		<path class="st5" d="M222.5,302.3c0,0.3,0,0.7,0,1c0.3,0.1,0.7,0.1,1,0.2c0-0.2,0-0.5,0-0.7c0-0.1,0-0.2,0-0.3
			C223.1,302.4,222.8,302.3,222.5,302.3z"/>
		<path class="st5" d="M223.4,304.5c0-0.3,0-0.7,0-1c-0.3-0.1-0.7-0.1-1-0.2c0,0.3,0,0.7,0,1C222.7,304.3,223,304.4,223.4,304.5z"/>
		<path class="st5" d="M283.1,209.4c0,0.2,0,0.5,0,0.7C283.1,209.9,283.1,209.7,283.1,209.4z"/>
		<path class="st5" d="M282.6,208.5c-0.2,0-0.3,0.5-0.2,1c0.1,0.6,0.3,0.9,0.5,0.9c0.1,0,0.1-0.1,0.2-0.2c0-0.2,0-0.5,0-0.7
			c0,0,0,0,0-0.1C283,208.8,282.8,208.4,282.6,208.5z"/>
		<path class="st5" d="M283,214.1c-0.2,0.1-0.2,0.5-0.1,1.1c0.2,0.5,0.3,0.9,0.6,0.9c0,0,0,0,0.1-0.1c0-0.3,0-0.6,0.1-0.8
			c0-0.1,0-0.1,0-0.2C283.5,214.5,283.3,214.1,283,214.1z"/>
		<path class="st5" d="M284.7,175c0.5-0.5,0.5-1.3,0-1.8C284.7,173.8,284.7,174.4,284.7,175z"/>
		<path class="st5" d="M283.7,172.3c0,1.1,0,2.2,0,3.2l0,0l0,0c0.4,0,0.7-0.1,1-0.4l0,0c0-0.6,0-1.2,0-1.8c0,0,0-0.1-0.1-0.1
			C284.3,172.8,284,172.5,283.7,172.3z"/>
		<path class="st5" d="M202.1,107.2c2.2-5.8,6.8-12.2,11.8-15.6c13.5-9.1,31.9-5.6,41,7.9c8.9-2.6,18.1-4,27.4-4.2
			c9.4-0.1,18.5,3.5,25.2,10c6.3,6.8,8.5,17.8,3.5,25.6c1.1-1.7,11.7,6.8,12.7,7.9c3.4,3.4,5.9,7.6,7.4,12.2
			c9.4,32.1-14.1,44.8-25.9,46.7c6.7,15,2.4,32.6-10.3,42.9c-4.2,3.4-8.9,5.7-13.8,6.9c-0.1,0.4-0.1,0.7-0.2,1.1
			c19.8-4.8,32.1-24.8,27.5-44.6c-0.4-1.9-1-3.7-1.7-5.5c7.1-1.5,16.9-6.3,22.7-15.5c5.5-8.8,6.5-19.6,2.7-32.3
			c-1.5-4.7-4.1-9.1-7.6-12.6c-0.1-0.1-7.7-6.7-11.6-8.1c3.9-7.6,2.1-18.2-4.5-25.4c-6.9-6.6-15.9-10.3-25.5-10.3
			c-0.2,0-0.3,0-0.5,0c-9.1,0.2-18.2,1.6-27,4.1c-9.6-13.4-28.2-16.8-42-7.5c-4.9,3.3-9.8,9.8-12.2,16.1
			C201.5,107,201.8,107.1,202.1,107.2L202.1,107.2z"/>
		<path class="st5" d="M202.7,108.4C202.7,108.4,202.7,108.5,202.7,108.4C202.7,108.5,202.7,108.5,202.7,108.4
			c2.2-6.2,7-12.7,11.8-15.9c13-8.8,30.8-5.4,39.6,7.6c0.2,0.4,0.7,0.5,1.1,0.4c8.8-2.6,18-4,27.2-4.2c9.2-0.1,17.9,3.3,24.5,9.7
			c6.4,6.9,7.9,17.4,3.4,24.4c-0.3,0.5-0.2,1.1,0.3,1.4c0.4,0.2,0.8,0.2,1.2-0.1c1.9,0.2,10,6.5,11.3,7.8c3.3,3.3,5.7,7.4,7.1,11.7
			c3.5,12.1,2.7,22.4-2.5,30.6c-5.8,9.2-15.8,13.7-22.6,14.8c-0.3,0-0.6,0.2-0.7,0.5s-0.2,0.6,0,0.9c0.9,2,1.6,4.1,2.1,6.3
			c4.3,18.5-6.9,37.1-25.1,42c-0.1,0.4-0.1,0.7-0.2,1.1c4.9-1.2,9.6-3.5,13.8-6.9c12.8-10.3,17-27.9,10.3-42.9
			c11.8-1.9,35.3-14.6,25.9-46.7c-1.5-4.6-4-8.8-7.4-12.2c-1-1-11.6-9.5-12.7-7.9c5-7.8,2.8-18.8-3.5-25.6
			c-6.8-6.5-15.8-10.1-25.2-10c-9.3,0.2-18.5,1.6-27.4,4.2c-9.1-13.5-27.5-17-41-7.9c-5,3.4-9.6,9.8-11.8,15.6
			C202.6,107.4,202.9,107.9,202.7,108.4z M311.9,131.5L311.9,131.5L311.9,131.5z"/>
		<path class="st5" d="M280,247.8c-0.1,0.3-0.1,0.5-0.2,0.8c0.1,0.1,0.3,0.1,0.5,0.1c0.1,0,0.2,0,0.2,0c0.1,0,0.2-0.1,0.3-0.1
			c0.1-0.4,0.1-0.7,0.2-1.1C280.7,247.6,280.4,247.7,280,247.8z"/>
		<path class="st5" d="M280.2,246.7c-0.1,0.4-0.1,0.7-0.2,1.1c0.4-0.1,0.7-0.2,1.1-0.3c0.1-0.4,0.1-0.7,0.2-1.1
			C280.9,246.5,280.6,246.6,280.2,246.7z"/>
		<path class="st5" d="M279.4,247.9c0.1,0.3,0.2,0.5,0.5,0.6c0.1-0.3,0.1-0.5,0.2-0.8C279.8,247.8,279.6,247.9,279.4,247.9
			L279.4,247.9z"/>
		<path class="st5" d="M280.1,246.7c-0.5,0.1-0.9,0.7-0.7,1.2c0.2,0,0.4-0.1,0.6-0.1C280.1,247.4,280.2,247.1,280.1,246.7
			C280.2,246.7,280.2,246.7,280.1,246.7z"/>
		<path class="st2" d="M175.3,190.3c-5.7-17.3,0.5-37.5,0.7-38.3c0-0.2,2.4-10,10.9-19.2l-10.8-6.2c-0.5-3.3-0.3-4.9,0.8-7.7
			c-1.1,2-1.9,4.2-2.4,6.6c-0.1,0.4-0.5,0.8-0.9,0.8c-11.5,0.6-21.7,7.5-26.6,17.9c-5.1,10.9-4.5,23.6,1.6,34
			c1.5,2.8,2.8,5.7,3.9,8.7c0.1,0.4,0,0.8-0.3,1.1c-2.6,2.2-5,4.7-7.1,7.4c-2.6,3.6-3.4,7.3-2.6,10.9c1.8,7.4,10.5,12.1,10.5,12.2
			c0.4,0.2,0.6,0.6,0.5,1.1c-0.5,2.9-0.2,5.3,1.1,7.1c2.5,3.7,8.3,4.7,12.5,5.5c3.9,0.7,5.7,6.1,7.4,11.2c1,3,2.1,6.3,3.4,7.5
			l2.7-29.5c-6.1-0.9-11.7-4.5-14.3-9.3c-2.6-4.6-2.7-10.1-0.2-14.8c0,0,0,0,0-0.1l0,0l0,0C168.2,193.6,171.5,191.2,175.3,190.3z"/>
		<path class="st2" d="M176.2,126.5l10.8,6.2c4.4-4.8,10.4-9.4,18.6-12.4c-0.1-0.8-0.2-1.6-0.2-2.5c-0.7,0.7-1.4,1.4-2.1,2l2.1-2.1
			v0.1c1.8-1.7,3.7-3.4,5.7-4.8c-2.5-2-5.3-3.6-8.4-4.6l0,0c0,0.1-0.1,0.2-0.2,0.3l0,0c-0.3,0.3-0.7,0.5-1.1,0.3l0,0
			c-2.6-0.8-5.2-1.1-7.9-1.1c-7.1,0.7-13.1,4.9-16.5,10.8C175.9,121.6,175.6,123.2,176.2,126.5z"/>
		<path class="st2" d="M166.3,211.9c2.7,4.8,8.2,8.4,14.3,9.3l0,0C174.4,220.3,169,216.7,166.3,211.9c-2.6-4.6-2.7-10.1-0.2-14.8
			C163.6,201.8,163.7,207.3,166.3,211.9z"/>
		<path class="st2" d="M177,152.2c0,0,2.3-9.8,10.8-19l-0.8-0.5c-8.5,9.2-10.9,19-10.9,19.2c-0.3,0.9-6.5,21-0.7,38.3
			c-3.8,0.9-7.1,3.3-9.2,6.8l0,0c2.2-3.7,5.8-6.2,10-6.9c0.1,0,0.2,0,0.2,0C170.5,172.9,177,152.2,177,152.2z"/>
		<path class="st2" d="M205.7,121.3c-0.1-0.3-0.1-0.6-0.2-1c-8.2,3-14.2,7.6-18.6,12.4l0.8,0.5C192,128.6,197.8,124.2,205.7,121.3z"
			/>
		<path class="st2" d="M177,152.3c0,0,1.9-8.1,8.5-16.4c0.7-0.9,1.5-1.8,2.3-2.6l0,0C179.3,142.4,177,152.2,177,152.3
			c0,0-6.5,20.6-0.7,37.9l0,0C170.6,172.8,177,152.3,177,152.3z"/>
		<path class="st2" d="M205.7,121.4C205.7,121.3,205.7,121.3,205.7,121.4c-7.9,2.9-13.7,7.3-18,11.9l0,0
			C192,128.7,197.8,124.3,205.7,121.4z"/>
		<path class="st2" d="M202.7,108.5L202.7,108.5c0,0.1-0.1,0.2-0.2,0.3C202.6,108.7,202.7,108.6,202.7,108.5L202.7,108.5z"/>
		<path class="st2" d="M202.5,108.8c-0.2,0.3-0.7,0.4-1.1,0.3c0,0,0,0-0.1,0l0,0C201.9,109.2,202.3,109.1,202.5,108.8z"/>
		<path class="st2" d="M187.7,134.8c-7.6,8.6-9.7,17.6-9.7,17.7c-0.1,0.3-6.5,21.4-0.4,38.3c0.7,0.8,4.7,5.3,6,6.6
			c2,1.5,4.7,1.7,7,0.5c1.6-1.1,2.9-2.6,3.6-4.5c1.8-4,2.6-9.1,2.3-14.9c0-2.2-0.4-4.3-1.1-6.4c-0.1-0.4,0-0.8,0.3-1.1
			c4.3-3.7,8.2-8,11.6-12.6c1.8-3.7,3.1-7.6,3.9-11.6l-22.5-13C188.3,134.1,188,134.4,187.7,134.8z"/>
		<path class="st2" d="M212.1,134.6V134c0-0.2,0.1-0.5,0.3-0.6c-3.2-2.9-5.4-6.7-6.4-11.1c-6.7,2.5-12.4,6.3-17.2,11.5l22.5,13
			C212,142.8,212.3,138.7,212.1,134.6z"/>
		<path class="st2" d="M176.4,190.2h0.1l0.5,0.1h0.1c0.1,0,0.2,0.1,0.2,0.1l0.1,0.1l0.1,0.1c0,0,0,0,0.1,0.1
			c-6.1-16.9,0.3-38,0.4-38.3c0-0.1,2.2-9.1,9.7-17.7c0.3-0.3,0.6-0.7,0.9-1l-0.9-0.5c-0.8,0.9-1.6,1.7-2.3,2.6
			c-6.6,8.3-8.5,16.3-8.5,16.3S170.6,172.9,176.4,190.2z"/>
		<path class="st2" d="M205.9,122.3c-0.1-0.3-0.1-0.6-0.2-0.9c-7.9,2.9-13.7,7.3-17.9,11.9l0.9,0.5
			C193.5,128.6,199.2,124.8,205.9,122.3z"/>
		<path class="st2" d="M187.8,133.2c-0.8,0.9-1.6,1.7-2.3,2.6C186.2,135,187,134.1,187.8,133.2L187.8,133.2z"/>
		<path class="st2" d="M205.7,121.4L205.7,121.4c-7.9,2.9-13.7,7.3-17.9,11.9l0,0C192.1,128.7,197.9,124.3,205.7,121.4z"/>
		<path class="st2" d="M215.6,117.7c4.6-0.8,9.7-1,15.3-0.7c14.7,0.8,30,2.6,41.7,15.1c1.9,2.1,3.6,4.2,5,6.4c2.1-0.2,4.1-0.2,6.1,0
			c-3.6-3.7-4.8-9.2-7.4-13.8c-3.9-6.6-10.6-10.9-18.2-11.6c-5.2-0.4-10.6,0.9-15.8,0.5c-2.3,0.7-4.5,1.2-6.8,1.7
			c-3.4,0.6-6.9,0.4-10.1-0.7c-0.9-0.3-1.7-0.7-2.5-1.2c-0.5-0.4-0.8-0.6-0.8-0.6c1.1,0.5,2.3,0.9,3.4,1.3c3.2,0.8,6.5,0.9,9.8,0.2
			c1.4-0.3,2.8-0.7,4.1-1.1c-4.5-1-8.4-3.9-13-4.6c-5.5-1-10.7,1.2-15.4,4.5C212.8,114.4,214.3,116,215.6,117.7z"/>
		<path class="st2" d="M278.4,140c3,5.2,4.9,10.9,5.9,16.8l0,0c0.1,0.2,0.2,0.4,0.3,0.6l0.1,1.4c1.2,1.4,2.4,2.9,3.5,4.4
			c3.7,4.5,9.2,8.4,14.6,6.7c-0.2-4.9-1.1-9.8-2.4-14.5c-1.4-4.8-4.4-8.9-8.5-11.7c-2-1.3-4.2-2.1-6.1-3.3
			C283.4,139.9,280.9,139.7,278.4,140z"/>
		<path class="st2" d="M274.5,140.7c-0.8,0.2-1.7,0.5-2.5,0.9l-1.2,0.4l0.2-1.2c0.4-2.2,0-4.4-1.2-6.3c-1.2-1.9-2.8-3.4-4.6-4.6
			c-3.5-2.3-7.7-3.4-11.9-3.2c-7.7,0.3-14.6,2.4-20.7,2.2c-3.2,1.6-12.4,4.7-17.3,5.6c4.6,3.2,10.2,4.3,15.7,3.2
			c1-0.2,2.1-0.5,3.2-0.8c4-1.1,8.1-2.2,11.7-0.1c2.5,1.5,3.9,4.2,5.1,6.9c1.1,2.2,2.1,4.3,3.7,5.7c3,2.5,7.1,2.1,11.5,1.6
			c3.2-0.3,6.6-0.7,9.7,0.2c2.3,0.6,4.3,1.9,5.9,3.2c-1.1-5-2.9-9.7-5.5-14.1C275.7,140.4,275.1,140.6,274.5,140.7z"/>
		<path class="st2" d="M253.2,125.2c2.2-0.1,4.4,0.1,6.5,0.5c1.6,0.4,3.1,1,4.5,1.7c-9.9-6.7-21.4-7.9-33.3-8.5
			c-4.9-0.3-9.5-0.1-13.9,0.5c0.1,0.2,0.3,0.4,0.4,0.7c2.3,3.6,10.7,6.2,15.4,7.5c2.9-0.1,5.9-0.4,8.8-1
			C245.4,126,249.3,125.5,253.2,125.2z"/>
		<path class="st2" d="M272.3,139.8l1.5-0.5c0.6-0.1,1.1-0.2,1.7-0.4c-1.2-1.9-2.7-3.7-4.3-5.4c-0.5-0.6-1.1-1.1-1.7-1.7
			c0.5,0.6,0.9,1.2,1.3,1.8C271.9,135.5,272.4,137.7,272.3,139.8z"/>
		<path class="st2" d="M216.4,118.6c4.4-0.7,9.2-0.9,14.5-0.6c15.3,0.8,29.8,2.7,41,14.8c1.8,1.9,3.3,3.8,4.6,5.9h0.1
			c0.3,0,0.7-0.1,1-0.1c-1.4-2.2-3.1-4.4-5-6.4c-11.7-12.6-27-14.4-41.7-15.1c-5.6-0.3-10.7,0-15.3,0.7
			C215.9,118,216.1,118.3,216.4,118.6C216.3,118.6,216.3,118.6,216.4,118.6L216.4,118.6z"/>
		<path class="st2" d="M283.1,155.5c0.5,0.4,0.9,0.9,1.3,1.3c-1.1-5.9-2.9-11.6-5.9-16.8c-0.4,0-0.7,0.1-1.1,0.1
			C280.2,144.9,282,150.1,283.1,155.5z"/>
		<path class="st2" d="M230.8,119c11.9,0.6,23.5,1.8,33.3,8.5c0.6,0.3,1.2,0.7,1.8,1c1.3,0.9,2.5,2,3.6,3.3c0.6,0.5,1.1,1.1,1.7,1.7
			c1.6,1.7,3,3.5,4.3,5.4c0.3-0.1,0.7-0.2,1-0.2c-1.3-2-2.8-4-4.6-5.9c-11.2-12.1-25.7-14-41-14.8c-5.3-0.3-10.2,0-14.5,0.6
			c0.2,0.3,0.4,0.6,0.6,0.9C221.3,118.9,225.9,118.7,230.8,119z"/>
		<path class="st2" d="M277.1,140.1c-0.3,0-0.6,0.1-0.8,0.2c2.7,4.4,4.4,9.1,5.5,14.1c0.5,0.4,0.9,0.8,1.3,1.2
			c-1.1-5.4-2.9-10.6-5.8-15.4C277.3,140.1,277.2,140.1,277.1,140.1z"/>
		<path class="st2" d="M211.1,113.1c-2,1.5-3.9,3.1-5.7,4.8c0,0.8,0.1,1.7,0.2,2.5c3.1-1.1,6.4-2,10.1-2.6
			C214.3,116,212.8,114.4,211.1,113.1z"/>
		<path class="st2" d="M203.3,119.9c0.7-0.7,1.4-1.4,2.1-2v-0.1L203.3,119.9z"/>
		<path class="st2" d="M213.2,119.2c0.1,0,0.2,0,0.3-0.1c0.6-0.1,1.3-0.2,1.9-0.4v-0.1c0,0,0,0.1,0.1,0.1c0.2,0,0.3-0.1,0.5-0.1
			c0.1,0,0.2,0,0.4-0.1c-0.2-0.3-0.4-0.6-0.7-0.9c-3.7,0.6-7,1.5-10.1,2.6c0,0.3,0.1,0.6,0.2,1C208,120.5,210.5,119.8,213.2,119.2z"
			/>
		<path class="st2" d="M205.7,121.3L205.7,121.3c2.3-0.8,4.8-1.6,7.5-2.1C210.5,119.8,208,120.5,205.7,121.3z"/>
		<path class="st2" d="M215.4,118.8c-0.6,0.1-1.3,0.2-1.9,0.4C214.1,119,214.8,118.9,215.4,118.8L215.4,118.8z"/>
		<path class="st2" d="M215.9,118.7c-0.2,0-0.3,0.1-0.5,0.1l0,0C215.6,118.7,215.8,118.7,215.9,118.7z"/>
		<path class="st2" d="M231.6,128.8c-5-0.1-9.9-2-13.6-5.5c-1-1-1.7-2.1-2.3-3.3c0-0.1-0.1-0.2-0.1-0.2c-3.4,0.6-6.7,1.4-9.8,2.5
			c1,4.3,3.3,8.2,6.4,11.1c0.1-0.1,0.2-0.2,0.3-0.3c0.3-0.2,0.8-0.1,1.1,0.1c0.5,0.4,1,0.8,1.6,1.2c4.9-0.8,14.1-4,17.3-5.6
			C232.2,128.8,231.9,128.8,231.6,128.8z"/>
		<path class="st2" d="M217.4,120.2c-0.1-0.2-0.3-0.4-0.4-0.7c-0.3,0-0.7,0.1-1,0.2c0.7,1.2,1.5,2.3,2.4,3.2
			c3.7,3.1,8.3,4.9,13.2,4.8c0.4,0,0.8,0,1.2,0C228.1,126.4,219.7,123.8,217.4,120.2z"/>
		<path class="st2" d="M216.4,118.6L216.4,118.6C216.3,118.6,216.3,118.6,216.4,118.6C216.3,118.6,216.3,118.6,216.4,118.6
			C216.3,118.6,216.3,118.6,216.4,118.6z"/>
		<path class="st2" d="M216.9,119.5c-0.2-0.3-0.4-0.6-0.6-0.9c0,0,0,0-0.1,0l0,0c-0.3,0-0.6,0.1-0.9,0.2c0.1,0.3,0.3,0.6,0.5,0.9
			C216.3,119.6,216.6,119.6,216.9,119.5z"/>
		<path class="st2" d="M215.7,119.7c-0.1-0.3-0.2-0.6-0.3-0.9c-3.5,0.6-6.8,1.5-9.7,2.6c0.1,0.3,0.1,0.6,0.2,0.9
			C209,121.1,212.2,120.3,215.7,119.7z"/>
		<path class="st2" d="M213.2,119.2c0.1,0,0.2,0,0.3-0.1C213.4,119.1,213.3,119.2,213.2,119.2z"/>
		<path class="st2" d="M216.3,118.6c-0.1,0-0.2,0-0.4,0.1C216.1,118.7,216.2,118.6,216.3,118.6L216.3,118.6z"/>
		<path class="st2" d="M215.4,118.8c-0.6,0.1-1.3,0.2-1.9,0.3c-0.1,0-0.2,0-0.3,0.1c-2.7,0.6-5.2,1.3-7.5,2.2l0,0
			C208.7,120.3,211.9,119.4,215.4,118.8L215.4,118.8z"/>
		<path class="st2" d="M215.5,118.8c0.3,0,0.6-0.1,0.9-0.2l0,0c-0.1,0-0.2,0-0.4,0.1C215.8,118.7,215.6,118.7,215.5,118.8
			C215.4,118.8,215.5,118.8,215.5,118.8z"/>
		<path class="st5" d="M181.3,225l-2.4,27.2c-5.1-0.3-5.5-18-11.8-19.2c-6.4-1.2-16.4-3-14.4-13.8c0,0-18.6-9.9-8.3-24.6
			c2.2-2.7,4.6-5.2,7.3-7.5c-1.1-2.9-2.3-5.8-3.8-8.5c-6.3-10.7-6.9-23.7-1.7-34.9c5.1-10.7,15.6-17.8,27.5-18.4
			c1.9-9.8,10-17.2,19.9-18.2c2.5,0,5,0.3,7.3,0.9c0,0,0,0,0-0.1c0.1-0.3,0.2-0.6,0.3-0.9c-2.5-0.7-5.1-1-7.8-1
			c-10.2,1.1-18.3,8.3-20.6,18.2c-11.9,0.9-22.4,8.1-27.6,19c-5.4,11.5-4.7,24.9,1.7,35.8c1.3,2.5,2.5,5.1,3.5,7.7
			c-2.5,2.2-4.8,4.6-6.9,7.2c-2.9,4.2-3.9,8.4-2.9,12.6c1.7,7.2,8.7,11.8,10.9,13.1c-0.5,3.1,0.1,5.8,1.5,7.9
			c3,4.4,9.2,5.5,13.8,6.3c2.8,0.5,4.4,5.5,5.8,9.9c1.5,4.7,3,9.2,6.1,9.3c0,0,0,0,0.1,0c0.2,0,0.3-0.1,0.5-0.1
			C180.6,242.6,181.4,232.7,181.3,225z"/>
		<path class="st5" d="M168.1,210.9c-2.3-4-2.4-8.7-0.3-12.7C165.7,202.2,165.8,206.9,168.1,210.9c2.5,4.6,7.9,7.9,13.8,8.5l0,0
			C175.9,218.7,170.6,215.4,168.1,210.9z"/>
		<path class="st5" d="M176.2,192.2C176.2,192.2,176.2,192.1,176.2,192.2c-3.5,0.7-6.5,2.8-8.3,5.8l0,0
			C169.7,195,172.7,192.9,176.2,192.2z"/>
		<path class="st5" d="M165.9,208.3c0.1,0.4,0.3,0.9,0.4,1.3C166.1,209.1,166,208.7,165.9,208.3z"/>
		<path class="st5" d="M166.5,210c0.2,0.4,0.4,0.8,0.6,1.2C166.9,210.8,166.7,210.4,166.5,210z"/>
		<path class="st5" d="M179.8,252.2l2.4-27.2c0-1.6-0.1-3.2-0.2-4.6c-0.1,0-0.3,0-0.4,0l-0.4,4.6c0.1,7.7-0.7,17.7-2,28.1
			C179.6,252.9,179.8,252.6,179.8,252.2z"/>
		<path class="st5" d="M165.5,206.5c0.1,0.5,0.2,0.9,0.3,1.4C165.6,207.4,165.5,206.9,165.5,206.5z"/>
		<path class="st5" d="M166.2,199.2c-0.2,0.5-0.4,1.1-0.5,1.6C165.9,200.3,166,199.7,166.2,199.2z"/>
		<path class="st5" d="M165.4,202.8c-0.1,0.5-0.1,1-0.1,1.5C165.3,203.8,165.3,203.3,165.4,202.8z"/>
		<path class="st5" d="M165.7,201c-0.1,0.5-0.2,1-0.3,1.6C165.5,202,165.6,201.5,165.7,201z"/>
		<path class="st5" d="M165.3,204.6c0,0.5,0,1,0.1,1.4C165.4,205.6,165.3,205.1,165.3,204.6z"/>
		<path class="st5" d="M167,197.5c-0.3,0.5-0.5,1.1-0.8,1.6C166.5,198.6,166.7,198,167,197.5z"/>
		<path class="st5" d="M176.4,190.2L176.4,190.2c0,0.1,0,0.1,0,0.2l0,0C176.4,190.3,176.4,190.2,176.4,190.2z"/>
		<path class="st5" d="M181.8,219.4c-5.9-0.6-11.3-3.9-13.8-8.5c-2.3-4-2.4-8.8-0.3-12.8c0,0,0-0.1,0.1-0.1l0,0l0,0
			c1.8-3.1,4.8-5.2,8.3-5.9c-0.1-0.1-0.2-0.2-0.2-0.3c-0.1-0.2-0.2-0.4-0.2-0.6c-3.6,0.8-6.8,3-8.7,6.2c-0.3,0.5-0.5,1.1-0.8,1.6
			c0,0,0,0,0,0.1c-0.2,0.5-0.4,1.1-0.5,1.6c0,0.1,0,0.1,0,0.2c-0.1,0.5-0.2,1-0.3,1.6c0,0.1,0,0.2,0,0.2c-0.1,0.5-0.1,1-0.1,1.5
			c0,0.1,0,0.2,0,0.3c0,0.5,0,1,0.1,1.4c0,0.1,0,0.3,0.1,0.4c0.1,0.5,0.2,0.9,0.3,1.4c0,0.1,0.1,0.3,0.1,0.4
			c0.1,0.4,0.3,0.9,0.4,1.3c0.1,0.2,0.1,0.3,0.2,0.5c0.2,0.4,0.4,0.8,0.6,1.2c0,0.1,0.1,0.2,0.1,0.2c2.8,5,8.5,8.3,14.5,9l0,0
			c0.1,0,0.3,0,0.4,0c0.1,1.4,0.2,3,0.2,4.6l0.4-4.6C182.8,219.9,182.4,219.5,181.8,219.4z"/>
		<path class="st5" d="M200.8,107.9c0.3,0.1,0.6,0.2,1,0.3c0.1-0.3,0.2-0.6,0.3-0.9c0,0,0,0-0.1,0c-0.3-0.1-0.6-0.2-0.9-0.2
			C201.1,107.2,200.9,107.5,200.8,107.9L200.8,107.9z"/>
		<path class="st5" d="M202.7,108.4c0.2-0.5-0.1-1-0.6-1.2c-0.1,0.3-0.2,0.6-0.3,0.9C202.1,108.2,202.4,108.4,202.7,108.4
			C202.7,108.5,202.7,108.4,202.7,108.4z"/>
		<path class="st5" d="M166.1,197.1L166.1,197.1C166.1,197,166.1,197,166.1,197.1L166.1,197.1z"/>
		<path class="st5" d="M180.6,221.3l-2.7,29.5c-1.3-1.2-2.4-4.5-3.4-7.5c-1.7-5.2-3.4-10.5-7.4-11.2c-4.2-0.8-9.9-1.8-12.5-5.5
			c-1.3-1.9-1.6-4.2-1.1-7.1c0.1-0.4-0.1-0.9-0.5-1.1c-0.1,0-8.8-4.7-10.5-12.2c-0.9-3.6,0-7.3,2.6-10.9c2.1-2.7,4.5-5.2,7.1-7.4
			c0.3-0.3,0.4-0.7,0.3-1.1c-1.1-3-2.4-5.9-3.9-8.7c-6.1-10.4-6.7-23.1-1.6-34c4.9-10.4,15.1-17.3,26.6-17.9c0.5,0,0.8-0.4,0.9-0.8
			c0.5-2.4,1.3-4.6,2.4-6.6c0.1-0.3,0.3-0.6,0.4-1c3.3-7.6,13.9-12.4,23.4-9.9l0,0c-2.4-0.6-4.8-0.9-7.3-0.9
			c-9.9,1-18,8.4-19.9,18.2c-11.9,0.6-22.4,7.7-27.5,18.4c-5.2,11.2-4.6,24.3,1.7,34.9c1.5,2.7,2.7,5.6,3.8,8.5
			c-2.7,2.3-5.1,4.8-7.3,7.5c-10.3,14.7,8.3,24.6,8.3,24.6c-2,10.8,8,12.6,14.4,13.8s6.7,18.9,11.8,19.2l2.4-27.2
			c0-1.3-0.1-2.5-0.1-3.6C181,221.3,180.8,221.3,180.6,221.3z"/>
		<path class="st5" d="M193.5,108c2.7,0,5.3,0.3,7.9,1.1c-0.5-0.2-0.7-0.7-0.6-1.2c-9.5-2.4-20.2,2.3-23.4,9.9
			c-0.1,0.3-0.3,0.7-0.4,1C180.4,112.9,186.4,108.7,193.5,108z"/>
		<path class="st5" d="M202.6,108.7C202.6,108.8,202.6,108.8,202.6,108.7C202.6,108.8,202.6,108.8,202.6,108.7z"/>
		<path class="st5" d="M167.2,211.4c0-0.1-0.1-0.2-0.1-0.2c-0.2-0.4-0.4-0.8-0.6-1.2c-0.1-0.2-0.1-0.3-0.2-0.5
			c-0.2-0.4-0.3-0.8-0.4-1.3c0-0.1-0.1-0.3-0.1-0.4c-0.1-0.5-0.2-0.9-0.3-1.4c0-0.1,0-0.3-0.1-0.4c-0.1-0.5-0.1-1-0.1-1.4
			c0-0.1,0-0.2,0-0.3c0-0.5,0-1,0.1-1.5c0-0.1,0-0.2,0-0.2c0.1-0.5,0.2-1.1,0.3-1.6c0-0.1,0-0.1,0-0.2c0.1-0.5,0.3-1.1,0.5-1.6
			c0,0,0,0,0-0.1c0.2-0.6,0.5-1.1,0.8-1.6c1.9-3.2,5.1-5.5,8.7-6.3c0-0.3,0.1-0.5,0.4-0.7c0.1-0.1,0.2-0.1,0.3-0.1
			c0-0.1,0-0.1-0.1-0.2c-0.1,0-0.2,0-0.2,0c-4.2,0.7-7.8,3.2-10,6.9c0,0,0,0,0,0.1c-2.5,4.7-2.4,10.2,0.2,14.8
			c2.7,4.9,8.1,8.4,14.3,9.4l0,0c0.2,0,0.4,0.1,0.5,0.1c0.1,1.1,0.1,2.4,0.1,3.6l0.4-4.6C175.7,219.7,169.9,216.4,167.2,211.4z"/>
		<path class="st5" d="M165.7,207.8c0,0.1,0.1,0.3,0.1,0.4C165.8,208.1,165.8,208,165.7,207.8z"/>
		<path class="st5" d="M165.7,200.8c0,0.1,0,0.1,0,0.2C165.7,200.9,165.7,200.9,165.7,200.8z"/>
		<path class="st5" d="M176.3,190.2L176.3,190.2c0,0.1,0,0.1,0,0.2l0,0C176.4,190.3,176.4,190.2,176.3,190.2z"/>
		<path class="st5" d="M167.2,211.4c0-0.1-0.1-0.2-0.1-0.2C167.1,211.3,167.1,211.4,167.2,211.4c2.7,5,8.5,8.3,14.5,9l0,0
			C175.7,219.7,170,216.4,167.2,211.4z"/>
		<path class="st5" d="M165.4,202.6c0,0.1,0,0.2,0,0.2C165.4,202.7,165.4,202.7,165.4,202.6z"/>
		<path class="st5" d="M166.2,199.1C166.2,199.2,166.2,199.2,166.2,199.1C166.2,199.2,166.2,199.2,166.2,199.1z"/>
		<path class="st5" d="M165.4,206.1c0,0.1,0,0.3,0.1,0.4C165.4,206.3,165.4,206.2,165.4,206.1z"/>
		<path class="st5" d="M167,197.5c1.9-3.2,5.1-5.5,8.7-6.2c0,0,0,0,0-0.1C172.1,192,168.9,194.3,167,197.5z"/>
		<path class="st5" d="M166.3,209.5c0.1,0.2,0.1,0.3,0.2,0.5C166.4,209.8,166.4,209.7,166.3,209.5z"/>
		<path class="st5" d="M165.3,204.6c0-0.1,0-0.2,0-0.3C165.3,204.4,165.3,204.5,165.3,204.6z"/>
		<path class="st5" d="M201.8,108.2C201.8,108.1,201.8,108.1,201.8,108.2c-0.3-0.1-0.6-0.2-1-0.3l0,0
			C201.1,108,201.5,108.1,201.8,108.2z"/>
		<path class="st5" d="M200.8,107.9c-0.1,0.5,0.1,1,0.6,1.2c0,0,0,0,0.1,0c0.4,0.1,0.8,0,1.1-0.3l0,0c0.1-0.1,0.1-0.2,0.2-0.3
			c-0.3-0.1-0.6-0.2-0.9-0.3l0,0C201.5,108.1,201.1,108,200.8,107.9z"/>
		<path class="st5" d="M177.3,190.5l0.1,0.1C177.4,190.5,177.3,190.5,177.3,190.5z"/>
		<path class="st5" d="M176.5,190.2h-0.1v0.1c0.2-0.1,0.4,0,0.6,0h-0.1L176.5,190.2z"/>
		<path class="st5" d="M284.9,160.1V160l-0.1-1.2l-0.1-0.1C284.8,159.2,284.8,159.6,284.9,160.1z"/>
		<path class="st5" d="M208.1,158.9c-3.4,4.7-7.3,9.1-11.8,12.9c2.8,6.7,1.6,30.2-10.4,27.7c-0.8-0.2-1.5-0.5-2.2-0.9v0.4
			c-0.7-1.1-1.5-2.1-2.3-3.1c-1.2-1.4-2.7-2.7-4.3-3.7c-0.2,0.1-0.4,0.1-0.6,0l-0.2-0.1l0,0c1.1,1.3,4.7,5.3,6.1,6.7
			c1.5,1.2,3.3,1.8,5.2,1.8c1.4,0,2.8-0.4,4.2-1.1c2-1.3,3.6-3.2,4.4-5.4c2-4.3,2.8-9.6,2.5-15.8c0-2.2-0.4-4.3-1-6.3
			c4.3-3.7,8.1-8,11.4-12.6l0.1-0.1c1.8-3.7,3.1-7.5,4-11.5l-0.9-0.5C211.2,151.3,209.9,155.2,208.1,158.9z"/>
		<path class="st5" d="M231.4,139.6c1.1-0.2,2.2-0.5,3.3-0.8c3.7-1,7.3-2,10.2-0.3c2,1.2,3.1,3.5,4.3,6c1.1,2.3,2.3,4.7,4.2,6.3
			c3.6,3,8.4,2.6,13,2.1c3.1-0.3,6.2-0.6,8.9,0.1c3,0.8,5.4,2.9,7.1,4.7c-0.1-0.6-0.2-1.1-0.3-1.7c-1.9-1.8-4-3.3-6.5-4
			c-7-2-15.8,2.7-21.5-2c-3.9-3.2-4.5-10-8.7-12.5s-9.5,0-14.2,1c-1.3,0.3-2.6,0.4-3.9,0.4c-5.1,0.1-9.8-1.6-13.5-4.5
			c-0.3,0-0.5,0-0.7,0c0.2,4.3-0.2,8.5-1,12.7l0.9,0.5c0.8-3.9,1.2-7.8,1.2-11.8C219.2,139.5,225.4,140.8,231.4,139.6z"/>
		<path class="st5" d="M283.5,157.3c0.2,1.3,0.4,2.5,0.6,3.8c0.5-0.1,0.9-0.5,0.9-1c-0.1-0.5-0.1-0.9-0.2-1.4
			C284.3,158.2,283.9,157.8,283.5,157.3z"/>
		<path class="st5" d="M282.2,156c0.1,0.6,0.2,1.1,0.3,1.7c0.1,0.1,0.1,0.1,0.2,0.2l0.2,2.3c0.1,0.5,0.5,1,1.1,0.9l0,0
			c-0.2-1.3-0.3-2.5-0.6-3.8C283,156.9,282.6,156.4,282.2,156z"/>
		<path class="st5" d="M181.4,195.9c0.8,1,1.6,2,2.3,3.1v-0.4c0.7,0.4,1.4,0.7,2.2,0.9c12,2.5,13.1-20.9,10.4-27.7
			c4.4-3.8,8.4-8.1,11.8-12.9c1.8-3.7,3.1-7.6,4-11.6l-0.9-0.5c-0.8,4-2.1,7.9-3.9,11.6c-3.3,4.7-7.2,8.9-11.6,12.6
			c-0.3,0.3-0.4,0.7-0.3,1.1c0.7,2,1.1,4.2,1.1,6.4c0.3,5.8-0.5,10.9-2.3,14.9c-0.7,1.9-2,3.4-3.6,4.5c-2.3,1.2-5,1-7-0.5
			c-1.3-1.3-5.3-5.8-6-6.6v0.1l0,0c0.1,0.2,0.1,0.4,0,0.6c-0.1,0.3-0.3,0.5-0.6,0.6C178.7,193.2,180.1,194.4,181.4,195.9z"/>
		<path class="st5" d="M212.1,134v0.6c0.2,4.1-0.1,8.2-1,12.1l0.9,0.5c0.9-4.2,1.2-8.4,1-12.7c0.2,0,0.5,0,0.7,0
			c-0.5-0.4-1-0.8-1.5-1.2C212.2,133.5,212.1,133.7,212.1,134z"/>
		<path class="st5" d="M177.4,190.5c0.1,0.1,0.2,0.2,0.2,0.4l0,0v-0.1c0,0,0-0.1-0.1-0.1C177.5,190.6,177.4,190.6,177.4,190.5z"/>
		<path class="st5" d="M177.3,190.5c-0.1,0-0.1-0.1-0.2-0.1C177.2,190.4,177.2,190.4,177.3,190.5z"/>
		<path class="st5" d="M284.4,156.8L284.4,156.8c0.1,0.6,0.2,1.2,0.3,1.9l0.1,0.1l-0.1-1.4C284.6,157.2,284.6,157,284.4,156.8z"/>
		<path class="st5" d="M275.9,151.1c-3.1-0.9-6.4-0.5-9.7-0.2c-4.4,0.5-8.5,0.9-11.5-1.6c-1.6-1.4-2.6-3.4-3.7-5.7
			c-1.3-2.7-2.6-5.4-5.1-6.9c-3.6-2.1-7.8-1-11.7,0.1c-1.1,0.3-2.2,0.6-3.2,0.8c-5.5,1.1-11.1-0.1-15.7-3.2c-0.6,0.1-1,0.2-1.5,0.2
			c3.7,2.9,8.4,4.6,13.5,4.5c1.3,0,2.6-0.2,3.9-0.4c4.8-1,10-3.5,14.2-1s4.9,9.2,8.7,12.5c5.7,4.7,14.6,0,21.5,2
			c2.5,0.7,4.6,2.2,6.5,4c-0.1-0.6-0.2-1.1-0.4-1.7C280.2,153,278.3,151.7,275.9,151.1z"/>
		<path class="st5" d="M283.1,155.5c0.1,0.6,0.2,1.2,0.3,1.8c0.4,0.5,0.8,0.9,1.2,1.4c-0.1-0.6-0.2-1.3-0.3-1.9
			C284,156.4,283.6,155.9,283.1,155.5z"/>
		<path class="st5" d="M283.5,157.3c-0.1-0.6-0.2-1.2-0.3-1.8c-0.4-0.4-0.8-0.8-1.3-1.2c0.1,0.6,0.2,1.1,0.4,1.7
			C282.6,156.4,283,156.9,283.5,157.3z"/>
		<path class="st5" d="M213.7,133.2c-0.3-0.2-0.7-0.3-1.1-0.1c-0.1,0.1-0.2,0.2-0.3,0.3c0.5,0.4,1,0.8,1.5,1.2
			c0.4,0,0.9-0.1,1.5-0.2C214.8,134,214.2,133.6,213.7,133.2z"/>
		<path class="st5" d="M176.2,192.2l0.2,0.1c0.2,0.1,0.4,0,0.6,0l0,0c-0.2,0.1-0.4,0.1-0.6,0L176.2,192.2
			C176.2,192.1,176.2,192.1,176.2,192.2C176.2,192.1,176.2,192.2,176.2,192.2L176.2,192.2z"/>
		<path class="st5" d="M176.4,192.2c0.2,0.1,0.4,0,0.6,0c-0.1-0.1-0.3-0.2-0.4-0.3c-0.2-0.2-0.3-0.5-0.5-0.7c-0.1,0-0.3,0.1-0.4,0.1
			c0,0.2,0,0.4,0.2,0.6c0,0.1,0.1,0.1,0.2,0.3c0,0,0,0,0.1,0L176.4,192.2z"/>
		<path class="st5" d="M176.5,190.3C176.4,190.3,176.4,190.3,176.5,190.3c0,0.3,0.1,0.6,0.2,0.9h0.1
			C176.6,190.9,176.6,190.6,176.5,190.3z"/>
		<path class="st5" d="M176.3,191.1L176.3,191.1l0.4,0.1c-0.1-0.3-0.2-0.6-0.3-0.9c-0.1,0-0.2,0.1-0.3,0.1c-0.2,0.2-0.4,0.5-0.4,0.7
			C175.9,191.2,176.1,191.1,176.3,191.1L176.3,191.1z"/>
		<path class="st5" d="M176.7,191.2c-0.1-0.3-0.2-0.6-0.3-0.9l0,0C176.5,190.6,176.6,190.9,176.7,191.2L176.7,191.2z"/>
		<path class="st5" d="M176.1,191.1h0.2l0,0c-0.2,0-0.3,0.1-0.5,0.1c0,0,0,0,0,0.1C175.9,191.2,176,191.2,176.1,191.1
			C176.1,191.2,176.1,191.1,176.1,191.1z"/>
		<path class="st5" d="M177.7,191.5c0.1-0.2,0-0.4,0-0.6c0.1,0.3,0,0.7-0.2,1c-0.1,0.1-0.2,0.2-0.4,0.2l0,0
			C177.4,192.1,177.6,191.8,177.7,191.5z"/>
		<path class="st5" d="M177.6,190.9c-0.1-0.1-0.1-0.3-0.2-0.4l-0.1-0.1c-0.1,0-0.1-0.1-0.2-0.1c-0.2-0.1-0.4-0.1-0.6,0
			c0.1,0.3,0.2,0.6,0.3,0.9h-0.1c0,0,0,0,0,0.1l-0.5-0.1h-0.1c0.2,0.2,0.3,0.5,0.5,0.7c0.1,0.1,0.3,0.2,0.4,0.3
			c0.1-0.1,0.3-0.1,0.4-0.2C177.7,191.6,177.7,191.2,177.6,190.9z"/>
		<path class="st5" d="M176.7,191.2l-0.4-0.1l0,0L176.7,191.2L176.7,191.2z"/>
		<path class="st5" d="M176.7,191.3C176.7,191.2,176.7,191.2,176.7,191.3L176.7,191.3C176.7,191.2,176.7,191.2,176.7,191.3l-0.4-0.2
			h-0.2l0,0h0.1L176.7,191.3z"/>
		<path class="st10" d="M285,139.7c0.3,0.2,0.6,0.4,0.9,0.6c6.3,1.2,12.1,4.6,16.1,9.8c2.5,3.3,4.1,7.2,4.6,11.2
			c0.4,3.6,0.1,7.2-0.9,10.6c-1.5,5-4.3,9.5-8.3,13c-1.5,1.3-3,2.4-4.7,3.3c0.4-0.2,0.8-0.4,1.1-0.6c1.3-0.6,2.5-1.3,3.6-2.2
			c7.2-5.9,11-15,10.1-24.3c-0.5-4.3-2.1-8.4-4.7-11.9c-4.7-6.1-11.7-9.8-19.1-10.7C284.1,139,284.5,139.4,285,139.7z"/>
		<path class="st10" d="M277.6,138.6c0.3,0.5,0.6,0.9,0.9,1.4c2.5-0.2,5-0.1,7.4,0.4c-0.3-0.2-0.6-0.4-0.9-0.6
			c-0.5-0.4-0.9-0.7-1.3-1.2C281.7,138.3,279.6,138.3,277.6,138.6z"/>
		<path class="st10" d="M272.2,141c0.1-0.4,0.1-0.8,0.1-1.2l-1.1,0.4L272.2,141z"/>
		<path class="st10" d="M273.8,139.3l-1.5,0.5c0,0.4-0.1,0.8-0.1,1.2l-1-0.8l1.1-0.4c0.1-2.1-0.4-4.3-1.5-6.1
			c-0.4-0.6-0.8-1.3-1.3-1.8c-1.7-1.6-3.5-3.1-5.3-4.3c-1.4-0.8-2.9-1.3-4.5-1.7c-2.1-0.5-4.3-0.7-6.5-0.5
			c-3.9,0.3-7.8,0.8-11.6,1.5c-2.9,0.6-5.8,0.9-8.8,1c0.3,0.1,0.5,0.1,0.7,0.2c0.4,0.1,0,0.4-0.9,0.9c6.1,0.2,13-1.9,20.7-2.2
			c4.2-0.3,8.4,0.8,11.9,3.2c1.9,1.2,3.5,2.7,4.6,4.6c1.1,1.9,1.6,4.2,1.2,6.3l-0.2,1.2l1.2-0.4c0.8-0.3,1.6-0.6,2.5-0.9
			c0.6-0.1,1.2-0.3,1.8-0.4c-0.3-0.5-0.6-0.9-0.9-1.4C274.9,139,274.3,139.2,273.8,139.3z"/>
		<path class="st10" d="M276.5,138.7c0.3,0.5,0.6,0.9,0.9,1.4c0.4,0,0.7-0.1,1.1-0.1c-0.3-0.5-0.6-0.9-0.9-1.4
			C277.2,138.6,276.9,138.6,276.5,138.7L276.5,138.7z"/>
		<path class="st10" d="M276.3,140.3c0.3-0.1,0.5-0.1,0.8-0.2c0.1,0,0.1,0,0.2,0c-0.3-0.5-0.6-0.9-0.9-1.4c-0.4,0.1-0.7,0.1-1,0.2
			C275.7,139.4,276,139.8,276.3,140.3z"/>
		<path class="st10" d="M266,128.5c-0.6-0.4-1.2-0.7-1.8-1c1.8,1.2,3.6,2.7,5.3,4.3C268.5,130.6,267.3,129.4,266,128.5z"/>
		<path class="st10" d="M215.4,118.7L215.4,118.7L215.4,118.7C215.4,118.7,215.4,118.7,215.4,118.7z"/>
		<path class="st10" d="M215.4,118.8L215.4,118.8L215.4,118.8L215.4,118.8L215.4,118.8z"/>
		<path class="st10" d="M218,123.3c3.7,3.4,8.5,5.4,13.6,5.5c0.3,0,0.6,0,1,0c0.9-0.5,1.3-0.8,0.9-0.9c-0.2-0.1-0.5-0.1-0.7-0.2
			c-0.4,0-0.8,0-1.2,0c-4.8,0-9.5-1.7-13.2-4.8c-1-1-1.8-2-2.4-3.2c-0.1,0-0.2,0-0.2,0c0,0.1,0.1,0.2,0.1,0.2
			C216.3,121.2,217.1,122.4,218,123.3z"/>
		<path class="st10" d="M215.5,118.8C215.4,118.8,215.4,118.8,215.5,118.8c0,0.3,0.1,0.6,0.2,0.9c0.1,0,0.2,0,0.2,0
			C215.8,119.4,215.6,119.1,215.5,118.8z"/>
		<path class="st10" d="M215.4,118.8L215.4,118.8L215.4,118.8L215.4,118.8C215.5,118.8,215.4,118.8,215.4,118.8z"/>
		<path class="st10" d="M283.3,125c-0.1-0.3-0.1-0.6-0.2-1c-0.3,0.2-0.6,0.5-0.9,0.7L283.3,125z"/>
		<path class="st10" d="M242.3,113.6c2.6-0.7,5.1-1.6,7.5-2.6c5.5-2.4,11.6-3,17.4-1.7c7.5,2.3,13.1,8.4,14.8,16l0.2,1.2l0.9-0.9
			c2.2-2.1,5-3.5,8.1-3.8c2.4-0.3,4.7-0.1,7,0.6c2,0.8,3.8,1.8,5.5,3.1c-0.3-0.5-0.7-0.9-1.1-1.2c-1.2-1.1-2.6-1.9-4.1-2.5
			c-2.4-0.9-4.9-1.2-7.4-1c-2.9,0.3-5.7,1.4-8,3.3c0.1,0.3,0.2,0.6,0.2,1l-1.1-0.2c0.3-0.3,0.6-0.5,0.9-0.7
			c-1.9-7.7-7.7-13.9-15.4-16.2c-3.1-0.9-6.5-1.1-9.7-0.6c-2.9,0.5-5.8,1.3-8.6,2.4c-3.2,1.4-6.6,2.5-9.9,3.5l0,0
			C240.4,113.4,241.4,113.5,242.3,113.6z"/>
		<path class="st10" d="M225.5,114c-1.2-0.4-2.3-0.8-3.4-1.3c0,0.1,0.2,0.2,0.8,0.6c0.8,0.5,1.6,0.9,2.5,1.2c3.3,1,6.7,1.3,10.1,0.7
			c2.3-0.4,4.6-1,6.8-1.7c-0.9-0.1-1.9-0.2-2.8-0.4l0,0c-1.4,0.4-2.7,0.8-4.1,1.1C232.1,114.9,228.7,114.8,225.5,114z"/>
	</g>
</g>
</svg>
