<svg xmlns="http://www.w3.org/2000/svg" xmlns:xlink="http://www.w3.org/1999/xlink" width="104" height="104.001" viewBox="0 0 104 104.001">
  <defs>
    <clipPath id="clip-path">
      <circle id="Ellipse_2" data-name="Ellipse 2" cx="52" cy="52" r="52" transform="translate(0 0.002)" fill="#fff" stroke="#d6e3f4" stroke-width="5"/>
    </clipPath>
    <clipPath id="clip-path-2">
      <path id="SVGID" d="M469.212,244.4c-1.383-.668-2.774-1.22-4.122-1.885a19.95,19.95,0,0,1-1.823-1.009c-.32-.2-.635-.415-.947-.647-.12-.09-.234-.184-.348-.278-8.32,5.7-14.506,1.828-16.622.08-.083.066-.162.134-.248.2-.379.282-.765.537-1.156.776-.571.348-1.155.656-1.746.944-1.362.663-2.764,1.22-4.157,1.9-3.385,1.657-6.715,4.066-9.264,10.623h49.865C476.052,248.441,472.655,246.062,469.212,244.4Z" transform="translate(-428.779 -240.584)" fill="none" stroke="#59316d" stroke-miterlimit="10" stroke-width="1"/>
    </clipPath>
  </defs>
  <g id="Group_877" data-name="Group 877" transform="translate(0 -0.001)">
    <g id="Ellipse_1" data-name="Ellipse 1" transform="translate(0 0.001)" fill="#ffcca9" stroke="#d6e3f4" stroke-width="5">
      <circle cx="52" cy="52" r="52" stroke="none"/>
      <circle cx="52" cy="52" r="49.5" fill="none"/>
    </g>
    <g id="Mask_Group_1" data-name="Mask Group 1" transform="translate(0 0)" clip-path="url(#clip-path)">
      <g id="Group_24" data-name="Group 24" transform="translate(25.072 24.892)">
        <g id="Group_20" data-name="Group 20" transform="translate(2.831 53.232)">
          <g id="Group_19" data-name="Group 19">
            <path id="Path_45" data-name="Path 45" d="M472.871,231.671c-3.539-4.127-2.41-10.266-2.41-10.266l-8.89-.108-.565.108s1.163,6.3-2.545,10.426C461.071,233.557,466.225,235.637,472.871,231.671Z" transform="translate(-440.802 -221.297)" fill="#fff" stroke="#59316d" stroke-linecap="round" stroke-linejoin="round" stroke-width="1"/>
            <path id="Path_46" data-name="Path 46" d="M473.254,239.835a9.08,9.08,0,0,1-1.124-1.1c-6.646,3.966-11.8,1.886-14.41.159a9.116,9.116,0,0,1-1.088,1.021C458.749,241.662,464.934,245.53,473.254,239.835Z" transform="translate(-440.061 -228.36)" fill="#fff" stroke="#59316d" stroke-linecap="round" stroke-linejoin="round" stroke-width="1"/>
            <path id="Path_47" data-name="Path 47" d="M469.212,244.4c-1.383-.668-2.774-1.22-4.122-1.885a19.95,19.95,0,0,1-1.823-1.009c-.32-.2-.635-.415-.947-.647-.12-.09-.234-.184-.348-.278-8.32,5.7-14.506,1.828-16.622.08-.083.066-.162.134-.248.2-.379.282-.765.537-1.156.776-.571.348-1.155.656-1.746.944-1.362.663-2.764,1.22-4.157,1.9-3.385,1.657-6.715,4.066-9.264,10.623h49.865C476.052,248.441,472.655,246.062,469.212,244.4Z" transform="translate(-428.779 -229.109)" fill="#59316d"/>
            <g id="Group_18" data-name="Group 18" transform="translate(0 11.475)">
              <g id="Group_17" data-name="Group 17" clip-path="url(#clip-path-2)">
                <g id="Group_16" data-name="Group 16" transform="translate(-2.903 1.658)">
                  <line id="Line_2" data-name="Line 2" x2="53.377" transform="translate(0 3.743)" fill="none" stroke="#fff" stroke-linecap="round" stroke-linejoin="round" stroke-width="1"/>
                  <line id="Line_3" data-name="Line 3" x2="53.377" transform="translate(0 7.367)" fill="none" stroke="#fff" stroke-linecap="round" stroke-linejoin="round" stroke-width="1"/>
                  <line id="Line_4" data-name="Line 4" x2="53.377" transform="translate(0 10.991)" fill="none" stroke="#fff" stroke-linecap="round" stroke-linejoin="round" stroke-width="1"/>
                  <line id="Line_5" data-name="Line 5" x2="53.377" fill="none" stroke="#fff" stroke-linecap="round" stroke-linejoin="round" stroke-width="1"/>
                </g>
              </g>
              <path id="SVGID-2" data-name="SVGID" d="M469.212,244.4c-1.383-.668-2.774-1.22-4.122-1.885a19.95,19.95,0,0,1-1.823-1.009c-.32-.2-.635-.415-.947-.647-.12-.09-.234-.184-.348-.278-8.32,5.7-14.506,1.828-16.622.08-.083.066-.162.134-.248.2-.379.282-.765.537-1.156.776-.571.348-1.155.656-1.746.944-1.362.663-2.764,1.22-4.157,1.9-3.385,1.657-6.715,4.066-9.264,10.623h49.865C476.052,248.441,472.655,246.062,469.212,244.4Z" transform="translate(-428.779 -240.584)" fill="none" stroke="#59316d" stroke-miterlimit="10" stroke-width="1"/>
            </g>
          </g>
        </g>
        <g id="Group_23" data-name="Group 23">
          <g id="Group_22" data-name="Group 22" transform="translate(6.265 8.216)">
            <path id="Path_48" data-name="Path 48" d="M477.527,176.612c-.13-1.522-.751-2.8-2.525-2.39a3.166,3.166,0,0,0-1.089.578c.227-1.245.4-2.513.519-3.8,1.144-12.58-1.976-25.369-18.2-25.369h-.375c-16.219,0-19.339,12.789-18.194,25.369.117,1.284.292,2.552.518,3.8a3.167,3.167,0,0,0-1.089-.578c-1.774-.411-2.4.868-2.525,2.39-.234,2.75,1.6,5.32,4.24,6.659a8.056,8.056,0,0,0,2.335.577c3.006,5.841,7.91,9.763,14.9,9.4,6.993.358,11.9-3.564,14.9-9.4a8.051,8.051,0,0,0,2.335-.577C475.931,181.932,477.762,179.362,477.527,176.612Z" transform="translate(-434.551 -145.633)" fill="#fff" stroke="#59316d" stroke-linecap="round" stroke-linejoin="round" stroke-width="1"/>
            <g id="Group_21" data-name="Group 21" transform="translate(2.066 15.931)">
              <path id="Path_49" data-name="Path 49" d="M470.046,184.4c.327,1.493,2.806,7.237,2.025,8.174-.74.888-2.907.655-3.825.256-.318-.138-.089-.591-.359-.807" transform="translate(-450.121 -177.268)" fill="none" stroke="#59316d" stroke-miterlimit="10" stroke-width="1"/>
              <path id="Path_50" data-name="Path 50" d="M447.944,174.917a8.97,8.97,0,0,1,3.125-1.934,14.549,14.549,0,0,1,4.188-.568" transform="translate(-442.042 -172.411)" fill="none" stroke="#59316d" stroke-miterlimit="10" stroke-width="3"/>
              <path id="Path_51" data-name="Path 51" d="M463.439,204.818s3.674,4.159,8.734,0" transform="translate(-448.319 -185.537)" fill="none" stroke="#59316d" stroke-miterlimit="10" stroke-width="1"/>
              <path id="Path_52" data-name="Path 52" d="M488.449,174.917a8.969,8.969,0,0,0-3.124-1.934,14.556,14.556,0,0,0-4.188-.568" transform="translate(-455.487 -172.411)" fill="none" stroke="#59316d" stroke-miterlimit="10" stroke-width="3"/>
              <path id="Path_53" data-name="Path 53" d="M438.024,198.826a5.414,5.414,0,0,1,2.048,2.018c.441.677.727,1.445,1.117,2.12" transform="translate(-438.024 -183.11)" fill="none" stroke="#59316d" stroke-miterlimit="10" stroke-width="1"/>
              <path id="Path_54" data-name="Path 54" d="M501.193,198.826a5.409,5.409,0,0,0-2.048,2.018c-.441.677-.727,1.445-1.117,2.12" transform="translate(-462.329 -183.11)" fill="none" stroke="#59316d" stroke-miterlimit="10" stroke-width="1"/>
              <path id="Path_55" data-name="Path 55" d="M455.337,188.807a1.557,1.557,0,1,1,0-2.2A1.557,1.557,0,0,1,455.337,188.807Z" transform="translate(-443.96 -177.975)" fill="#59316d"/>
              <path id="Path_56" data-name="Path 56" d="M483.94,188.807a1.557,1.557,0,1,0,0-2.2A1.557,1.557,0,0,0,483.94,188.807Z" transform="translate(-456.438 -177.975)" fill="#59316d"/>
            </g>
          </g>
          <path id="Path_57" data-name="Path 57" d="M477.569,153.411c-.245-2.483-1.954-3.965-3.154-5.984-.446-.75-.908-1.512-1.377-2.274a19.757,19.757,0,0,0-2.322-4.345,9.368,9.368,0,0,0-2.927-2.629,7.34,7.34,0,0,0-3.288-.861,3.514,3.514,0,0,0,1.141-2.5,21.039,21.039,0,0,1-2.3,2.2c.557-.848.309-1.888.613-2.8a6.883,6.883,0,0,1-1.478,2.61c-3.748-6.093-11.2-6.042-18.176-2.956-3.84,1.7-7.146,4.145-10.8,6.167a29.064,29.064,0,0,1-5.833,2.595c-1.187.342-2.558.272-3.645.591,1.228,1.283,2.938,1.546,4.447,2.324a4.312,4.312,0,0,1-2.737.914,10.542,10.542,0,0,0,2.6.807,31.889,31.889,0,0,1-4.306,1.3c.285,1.1,2.4,1,3.2.65a6.322,6.322,0,0,0-2.339,6.307,7.5,7.5,0,0,1,3.393-3.306c-1.212.785-1.476,2.317-1.608,3.646a10.755,10.755,0,0,0,1.978,7.209,32.1,32.1,0,0,0,3.243,3.862c.307.335.629.7.977,1.033a5.532,5.532,0,0,0,2.647,2.219c-.246-1.733-.327-12.056.443-14.774a12.97,12.97,0,0,1,3.242-5.182,12.586,12.586,0,0,1,4.134-2.824c.383.9-.371,1.848-1.061,2.387,2.418.607,6.176-.71,8.455-1.687a12.036,12.036,0,0,0,5.476-4.935c-.127.969-1.84,3.491-2.461,4.163,1.419.023,4.178-1.655,5.074-2.729-.817,2.74-1.821,3.2-2.289,4.382a8.706,8.706,0,0,0,5.248-4.191,7.46,7.46,0,0,0,.641,4.157c.971,1.787,2.284,3.236,3.01,5.181a16.283,16.283,0,0,1,1.458,5.366,14.425,14.425,0,0,0,.568-2.464,20.858,20.858,0,0,1,1.073,3.982c.126.538.215,1.17.326,1.813,0,.118.011.226.014.347.054,2.352.32,4.1.311,6.365.377-1.4-.491,2.378,1.559-.918A25.286,25.286,0,0,0,472,166.1c.393-.63.745-1.353,1-1.749.537-.848,1.671-2.2,1.582-3.274.029.778-.378,1.784-.185,2.49a41.244,41.244,0,0,0,1.93-3.932,10.345,10.345,0,0,0,.382-2.853,4.1,4.1,0,0,1,.386,1.975A13.059,13.059,0,0,0,477.569,153.411Z" transform="translate(-424.021 -131.823)" fill="#59316d"/>
        </g>
      </g>
    </g>
  </g>
</svg>
