<?xml version="1.0" encoding="utf-8"?>
<!-- Generator: Adobe Illustrator 25.4.1, SVG Export Plug-In . SVG Version: 6.00 Build 0)  -->
<svg version="1.1" id="Banco" xmlns="http://www.w3.org/2000/svg" xmlns:xlink="http://www.w3.org/1999/xlink" x="0px" y="0px"
	 viewBox="0 0 200 200" style="enable-background:new 0 0 200 200;" xml:space="preserve">
<style type="text/css">
	.st0{fill:#5A316B;}
</style>
<path class="st0" d="M169.7,151.6h-2.8v-8.4c0-1.7-1.3-3-3-3h-1.8V98.1h1.8c1.7,0,3-1.3,3-3v-8.4h1.5c3.2,0,5.7-2.6,5.8-5.8v-9.4
	c0-2-1.1-3.9-2.8-5l-68.4-40.1c-1.8-1-4-1-5.8,0L28.7,66.5c-1.8,1-2.8,2.9-2.8,5v9.4c0,3.2,2.6,5.8,5.8,5.8h1.5v8.4c0,1.7,1.3,3,3,3
	h1.8v42.1h-1.8c-1.7,0-3,1.3-3,3v8.4h-2.7c-2.5,0-4.5,2-4.5,4.5v13.7c0,2.5,2,4.5,4.5,4.5h139.3c2.5,0,4.5-2,4.5-4.5v-13.8
	C174.1,153.6,172.1,151.6,169.7,151.6z M31.8,80.7l-0.1-9l68.2-40.1l68.3,40v9.1L31.8,80.7z M160.9,146.2v5.5H141v-5.5H160.9z
	 M145.7,140.2V98.1h10.5v42.1L145.7,140.2z M141,92.1v-5.5h20v5.5H141z M100,99.2c-11.5,0-20.7,9.3-20.7,20.8v31.7H65v-8.4
	c0-1.7-1.3-3-3-3h-1.7V98.1H62c1.7,0,3-1.3,3-3c0,0,0,0,0,0v-8.4h70v8.4c0,1.7,1.3,3,3,3h1.7v42.1H138c-1.7,0-3,1.3-3,3v8.4h-14.3
	V120C120.7,108.6,111.4,99.3,100,99.2z M114.7,120v31.7H85.2V120c0.2-8.1,7-14.6,15.1-14.4C108.2,105.8,114.5,112.1,114.7,120z
	 M59,146.1v5.5H39v-5.5H59z M43.7,140.1V98.1h10.6v42.1L43.7,140.1z M39,92.1v-5.5h20v5.5H39z M168.2,168.4H31.8v-10.8h136.4
	L168.2,168.4z"/>
<path class="st0" d="M100,46.5c-7.3,0-13.1,5.9-13.1,13.1s5.9,13.1,13.1,13.1s13.1-5.9,13.1-13.1l0,0
	C113.2,52.4,107.3,46.6,100,46.5C100,46.5,100,46.5,100,46.5z M100,66.8c-4,0-7.2-3.2-7.2-7.2c0-4,3.2-7.2,7.2-7.2s7.2,3.2,7.2,7.2
	c0,0,0,0,0,0C107.2,63.6,104,66.8,100,66.8C100,66.9,100,66.9,100,66.8z"/>
</svg>
