<svg xmlns="http://www.w3.org/2000/svg" width="1289.708" height="1205.414" viewBox="0 0 1289.708 1205.414">
  <g id="Group_1604" data-name="Group 1604" transform="translate(-140 -44)">
    <g id="Group_1602" data-name="Group 1602">
      <g id="freepik--background-simple--inject-409" transform="translate(401.069 44) rotate(16)" opacity="0.472">
        <path id="Path_5521" data-name="Path 5521" d="M1017.938,741.04c62.579-125.113,66.8-291.8,23.6-425.465C1004.4,200.524,921.565,112.746,825.96,60.477,715.037-.14,582.818-18.187,463.773,20.073,432.461,30.135,401.984,39.361,372.454,55.9c-121.03,67.79-97.681,234.84-140.137,292.93-35.711,48.886-104.043,34.47-147.108,71.941C-31.061,521.856-31.309,777.383,102.8,857.242,245.063,942,862.934,1050.935,1017.938,741.04Z" fill="rgba(203,231,222,0.6)"/>
        <path id="Path_5522" data-name="Path 5522" d="M1017.938,741.04c62.579-125.113,66.8-291.8,23.6-425.465C1004.4,200.524,921.565,112.746,825.96,60.477,715.037-.14,582.818-18.187,463.773,20.073,432.461,30.135,401.984,39.361,372.454,55.9c-121.03,67.79-95.525,164.217-137.981,222.307-28.247,38.668-78.253,81.918-119.305,116.911-10.759,9.171-20.958,17.821-29.959,25.653C-31.061,521.856-31.309,777.383,102.8,857.242,245.063,942,862.934,1050.935,1017.938,741.04Z" fill="rgba(203,231,222,0.6)" opacity="0.8"/>
      </g>
    </g>
    <g id="freepik--background-complete--inject-33" transform="translate(348.28 312.339)">
      <rect id="Rectangle_1253" data-name="Rectangle 1253" width="725.09" height="321.503" transform="translate(118.851 307.276)" fill="#f5f5f5"/>
      <rect id="Rectangle_1254" data-name="Rectangle 1254" width="11.609" height="233.521" transform="translate(488.92 398.113)" fill="#ebebeb"/>
      <path id="Path_7328" data-name="Path 7328" d="M-2093.519,1516.608h86.027a17.682,17.682,0,0,1,17.682,17.682v6.64h-121.452v-6.64a17.681,17.681,0,0,1,17.681-17.682Z" transform="translate(2547.027 -1141.887)" fill="#e0e0e0"/>
      <rect id="Rectangle_1255" data-name="Rectangle 1255" width="116.674" height="3.975" transform="translate(438.051 406.931)" fill="#e0e0e0"/>
      <path id="Path_7329" data-name="Path 7329" d="M-1991.57,1813.266h-3.154v-14.858a48.109,48.109,0,0,0-48.061-48.092h-19.905a48.109,48.109,0,0,0-48.061,48.092v14.858h-3.154v-14.858a51.247,51.247,0,0,1,51.216-51.247h19.905a51.263,51.263,0,0,1,51.216,51.2Z" transform="translate(2547.462 -1179.786)" fill="#ebebeb"/>
      <rect id="Rectangle_1256" data-name="Rectangle 1256" width="763.987" height="23.281" transform="translate(100.317 298.427)" fill="#e0e0e0"/>
      <rect id="Rectangle_1257" data-name="Rectangle 1257" width="192.653" height="14.89" transform="translate(116.075 75.537)" fill="#ebebeb"/>
      <rect id="Rectangle_1258" data-name="Rectangle 1258" width="8.344" height="32.777" transform="translate(131.375 85.475)" fill="#ebebeb"/>
      <rect id="Rectangle_1259" data-name="Rectangle 1259" width="6.767" height="32.777" transform="translate(283.759 85.475)" fill="#ebebeb"/>
      <path id="Path_7330" data-name="Path 7330" d="M-2459.488,1079.174l-.757,11.988a14.778,14.778,0,0,1-1.862,7.287l-4.069,7.051a3.261,3.261,0,0,0-.409,1.577V1144.4a.961.961,0,0,0,.946.962h20.884a.961.961,0,0,0,.962-.962h0v-37.019a3.227,3.227,0,0,0-.457-1.578l-4.085-7.256a16.716,16.716,0,0,1-1.877-7.16l-1.42-12.051Z" transform="translate(2605.438 -1069.979)" fill="#e0e0e0"/>
      <path id="Path_7331" data-name="Path 7331" d="M-2442.056,1119.833H-2456.2v24.843h14.148" transform="translate(2603.731 -1076.662)" fill="#fafafa"/>
      <rect id="Rectangle_1260" data-name="Rectangle 1260" width="10.521" height="3.344" rx="1.672" transform="translate(144.64 5.931)" fill="#e0e0e0"/>
      <path id="Path_7332" data-name="Path 7332" d="M-2452.415,1092.225h-6.546l.426-7.35h6.12Z" transform="translate(2604.184 -1070.916)" fill="#fafafa"/>
      <path id="Path_7333" data-name="Path 7333" d="M-2441.377,1133.61a11.083,11.083,0,0,1-.315-1.214,5.163,5.163,0,0,0-1.893-2.635,4.861,4.861,0,0,0-4.559-.615,4.733,4.733,0,0,0-2.924,6.02,4.733,4.733,0,0,0,2.924,2.924,4.862,4.862,0,0,0,4.559-.615,5.131,5.131,0,0,0,1.893-2.651,11.081,11.081,0,0,1,.315-1.214,2.335,2.335,0,0,1,0,1.293,5.126,5.126,0,0,1-1.861,3.028,5.378,5.378,0,0,1-5.158.867,5.489,5.489,0,0,1-3.369-6.993,5.488,5.488,0,0,1,3.369-3.369,5.378,5.378,0,0,1,5.158.867,5.22,5.22,0,0,1,1.861,3.012C-2441.236,1133.153-2441.33,1133.626-2441.377,1133.61Z" transform="translate(2603.052 -1078.026)" fill="#e0e0e0"/>
      <path id="Path_7334" data-name="Path 7334" d="M-2441.923,1121.024a23.51,23.51,0,0,1-3.644.206c-2.3,0-5.6.11-9.464.157l.363-.363v22.65l-.363-.363c3.927,0,7.224.079,9.464.142a22.127,22.127,0,0,1,3.644.221,22.047,22.047,0,0,1-3.644.221c-2.3,0-5.6.111-9.464.142h-.363v-23.391h.363c3.927,0,7.224.079,9.464.142A22.147,22.147,0,0,1-2441.923,1121.024Z" transform="translate(2603.598 -1076.796)" fill="#e0e0e0"/>
      <path id="Path_7335" data-name="Path 7335" d="M-2453.952,1087.116c0,.221-.993.41-2.24.41s-2.239-.19-2.239-.41,1.009-.41,2.239-.41S-2453.952,1086.88-2453.952,1087.116Z" transform="translate(2604.097 -1071.217)" fill="#e0e0e0"/>
      <path id="Path_7336" data-name="Path 7336" d="M-2453.952,1090.287c0,.236-.993.41-2.24.41s-2.239-.174-2.239-.41,1.009-.41,2.239-.41S-2453.952,1090.067-2453.952,1090.287Z" transform="translate(2604.097 -1071.738)" fill="#e0e0e0"/>
      <path id="Path_7337" data-name="Path 7337" d="M-2418.131,1079.174l-.757,11.988a14.779,14.779,0,0,1-1.94,7.287l-4.069,7.051a3.28,3.28,0,0,0-.425,1.577V1144.4a.977.977,0,0,0,.962.962h20.994a.962.962,0,0,0,.963-.962h0v-37.019a3.239,3.239,0,0,0-.458-1.578l-4.085-7.256a16.946,16.946,0,0,1-1.893-7.16l-1.4-12.051Z" transform="translate(2598.654 -1069.979)" fill="#e0e0e0"/>
      <path id="Path_7338" data-name="Path 7338" d="M-2400.68,1119.833h-14.149v24.843h14.149" transform="translate(2596.929 -1076.662)" fill="#fafafa"/>
      <rect id="Rectangle_1261" data-name="Rectangle 1261" width="10.521" height="3.344" rx="1.672" transform="translate(179.215 5.931)" fill="#e0e0e0"/>
      <path id="Path_7339" data-name="Path 7339" d="M-2411.038,1092.225h-6.546l.426-7.35h6.12Z" transform="translate(2597.382 -1070.916)" fill="#fafafa"/>
      <path id="Path_7340" data-name="Path 7340" d="M-2400,1133.61a10.817,10.817,0,0,1-.316-1.214,5.158,5.158,0,0,0-1.893-2.635,4.859,4.859,0,0,0-4.558-.615,4.731,4.731,0,0,0-2.924,6.02,4.729,4.729,0,0,0,2.924,2.924,4.86,4.86,0,0,0,4.558-.615,5.124,5.124,0,0,0,1.893-2.651,10.815,10.815,0,0,1,.316-1.214,2.557,2.557,0,0,1,0,1.293,5.209,5.209,0,0,1-1.862,3.028,5.377,5.377,0,0,1-5.157.867,5.489,5.489,0,0,1-3.37-6.993,5.488,5.488,0,0,1,3.37-3.369,5.377,5.377,0,0,1,5.157.867,5.223,5.223,0,0,1,1.862,3.012A2.484,2.484,0,0,1-2400,1133.61Z" transform="translate(2596.251 -1078.026)" fill="#e0e0e0"/>
      <path id="Path_7341" data-name="Path 7341" d="M-2400.549,1121.024a23.513,23.513,0,0,1-3.644.206c-2.319,0-5.6.11-9.542.157l.363-.363v22.65l-.363-.363c3.943,0,7.224.079,9.542.142a22.14,22.14,0,0,1,3.644.221,22.06,22.06,0,0,1-3.644.221c-2.319,0-5.6.111-9.542.142h-.3v-23.391h.363c3.943,0,7.224.079,9.543.142A22.126,22.126,0,0,1-2400.549,1121.024Z" transform="translate(2596.799 -1076.796)" fill="#e0e0e0"/>
      <path id="Path_7342" data-name="Path 7342" d="M-2412.576,1087.116c0,.221-1.009.41-2.239.41s-2.24-.19-2.24-.41.994-.41,2.24-.41S-2412.576,1086.88-2412.576,1087.116Z" transform="translate(2597.295 -1071.217)" fill="#e0e0e0"/>
      <path id="Path_7343" data-name="Path 7343" d="M-2412.576,1090.287c0,.236-1.009.41-2.239.41s-2.24-.174-2.24-.41.994-.41,2.24-.41S-2412.576,1090.067-2412.576,1090.287Z" transform="translate(2597.295 -1071.738)" fill="#e0e0e0"/>
      <path id="Path_7344" data-name="Path 7344" d="M-2386.982,1079.174l-.757,11.988a14.779,14.779,0,0,1-1.94,7.287l-4.069,7.051a3.253,3.253,0,0,0-.41,1.577V1144.4a.961.961,0,0,0,.947.962h20.994a.961.961,0,0,0,.962-.962h0v-37.019a3.235,3.235,0,0,0-.457-1.578l-4.085-7.256a16.72,16.72,0,0,1-1.846-7.318l-1.42-12.051Z" transform="translate(2593.531 -1069.979)" fill="#e0e0e0"/>
      <path id="Path_7345" data-name="Path 7345" d="M-2369.534,1119.833h-14.148v24.843h14.148" transform="translate(2591.809 -1076.662)" fill="#fafafa"/>
      <rect id="Rectangle_1262" data-name="Rectangle 1262" width="10.521" height="3.344" rx="1.672" transform="translate(205.24 5.931)" fill="#e0e0e0"/>
      <path id="Path_7346" data-name="Path 7346" d="M-2379.893,1092.225h-6.546l.426-7.35h6.12Z" transform="translate(2592.262 -1070.916)" fill="#fafafa"/>
      <path id="Path_7347" data-name="Path 7347" d="M-2368.856,1133.61a11.027,11.027,0,0,1-.315-1.214,5.159,5.159,0,0,0-1.894-2.635,4.859,4.859,0,0,0-4.558-.615,4.732,4.732,0,0,0-2.924,6.02,4.732,4.732,0,0,0,2.924,2.924,4.859,4.859,0,0,0,4.558-.615,5.128,5.128,0,0,0,1.894-2.651,11.025,11.025,0,0,1,.315-1.214,2.33,2.33,0,0,1,0,1.293,5.205,5.205,0,0,1-1.861,3.028,5.378,5.378,0,0,1-5.158.867,5.49,5.49,0,0,1-3.37-6.993,5.491,5.491,0,0,1,3.37-3.369,5.378,5.378,0,0,1,5.158.867,5.22,5.22,0,0,1,1.861,3.012C-2368.714,1133.153-2368.808,1133.626-2368.856,1133.61Z" transform="translate(2591.131 -1078.026)" fill="#e0e0e0"/>
      <path id="Path_7348" data-name="Path 7348" d="M-2369.4,1121.024a23.507,23.507,0,0,1-3.643.206c-2.3,0-5.6.11-9.464.157l.363-.363v22.65l-.363-.363c3.927,0,7.224.079,9.464.142a22.13,22.13,0,0,1,3.643.221,22.05,22.05,0,0,1-3.643.221c-2.3,0-5.6.111-9.464.142h-.363v-23.391h.363c3.927,0,7.224.079,9.464.142A22.144,22.144,0,0,1-2369.4,1121.024Z" transform="translate(2591.676 -1076.796)" fill="#e0e0e0"/>
      <path id="Path_7349" data-name="Path 7349" d="M-2381.43,1087.116c0,.221-.994.41-2.24.41s-2.24-.19-2.24-.41,1.01-.41,2.24-.41S-2381.43,1086.88-2381.43,1087.116Z" transform="translate(2592.176 -1071.217)" fill="#e0e0e0"/>
      <path id="Path_7350" data-name="Path 7350" d="M-2381.43,1090.287c0,.236-.994.41-2.24.41s-2.24-.174-2.24-.41,1.01-.41,2.24-.41S-2381.43,1090.067-2381.43,1090.287Z" transform="translate(2592.176 -1071.738)" fill="#e0e0e0"/>
      <path id="Path_7351" data-name="Path 7351" d="M-2326.73,1079.174l-.741,11.988a14.622,14.622,0,0,1-1.956,7.287l-4.054,7.051a3.156,3.156,0,0,0-.426,1.577V1144.4a.962.962,0,0,0,.963.962h20.994a.977.977,0,0,0,.962-.962v-37.019a3.151,3.151,0,0,0-.473-1.578l-4.086-7.256a16.948,16.948,0,0,1-1.876-7.16l-1.42-12.209Z" transform="translate(2583.627 -1069.979)" fill="#e0e0e0"/>
      <path id="Path_7352" data-name="Path 7352" d="M-2309.225,1119.833h-14.149v24.843h14.149" transform="translate(2581.896 -1076.662)" fill="#fafafa"/>
      <rect id="Rectangle_1263" data-name="Rectangle 1263" width="10.521" height="3.344" rx="1.672" transform="translate(255.619 5.931)" fill="#e0e0e0"/>
      <path id="Path_7353" data-name="Path 7353" d="M-2319.587,1092.225h-6.562l.426-7.35h6.136Z" transform="translate(2582.352 -1070.916)" fill="#fafafa"/>
      <path id="Path_7354" data-name="Path 7354" d="M-2308.54,1133.61a7.87,7.87,0,0,1-.315-1.214,5.274,5.274,0,0,0-1.894-2.635,4.874,4.874,0,0,0-4.558-.615,4.732,4.732,0,0,0-2.924,6.02,4.733,4.733,0,0,0,2.924,2.924,4.874,4.874,0,0,0,4.558-.615,5.225,5.225,0,0,0,1.894-2.651,7.866,7.866,0,0,1,.315-1.214,2.463,2.463,0,0,1,0,1.293,5.083,5.083,0,0,1-1.845,3.028,5.411,5.411,0,0,1-5.174.867,5.5,5.5,0,0,1-3.323-7.04,5.5,5.5,0,0,1,3.323-3.323,5.409,5.409,0,0,1,5.174.867,5.094,5.094,0,0,1,1.845,3.012A2.414,2.414,0,0,1-2308.54,1133.61Z" transform="translate(2581.21 -1078.026)" fill="#e0e0e0"/>
      <path id="Path_7355" data-name="Path 7355" d="M-2309.107,1121.024a23.922,23.922,0,0,1-3.643.206c-2.319,0-5.615.11-9.543.157l.363-.363v22.65l-.363-.363c3.927,0,7.224.079,9.543.142a22.331,22.331,0,0,1,3.643.221,22.222,22.222,0,0,1-3.643.221c-2.319,0-5.615.111-9.543.142h-.363v-23.391h.363c3.927,0,7.224.079,9.543.142A22.331,22.331,0,0,1-2309.107,1121.024Z" transform="translate(2581.777 -1076.796)" fill="#e0e0e0"/>
      <path id="Path_7356" data-name="Path 7356" d="M-2321.121,1087.116c0,.221-1.01.41-2.24.41s-2.24-.19-2.24-.41.993-.41,2.24-.41S-2321.121,1086.88-2321.121,1087.116Z" transform="translate(2582.261 -1071.217)" fill="#e0e0e0"/>
      <path id="Path_7357" data-name="Path 7357" d="M-2321.121,1090.287c0,.236-1.01.41-2.24.41s-2.24-.174-2.24-.41.993-.41,2.24-.41S-2321.121,1090.067-2321.121,1090.287Z" transform="translate(2582.261 -1071.738)" fill="#e0e0e0"/>
      <path id="Path_7358" data-name="Path 7358" d="M-1769.373,1343.4l-.741,11.988a14.522,14.522,0,0,1-1.956,7.271l-4.038,7.067a3.149,3.149,0,0,0-.426,1.577v37.3a.963.963,0,0,0,.962.963h20.995a.963.963,0,0,0,.962-.963v-37.1a3.05,3.05,0,0,0-.473-1.578l-4.085-7.256a17.016,17.016,0,0,1-1.877-7.16l-1.4-12.051Z" transform="translate(2492.003 -1113.414)" fill="#e0e0e0"/>
      <path id="Path_7359" data-name="Path 7359" d="M-1751.909,1384.042h-14.148V1408.9h14.148" transform="translate(2490.281 -1120.095)" fill="#fafafa"/>
      <rect id="Rectangle_1264" data-name="Rectangle 1264" width="10.521" height="3.344" rx="1.672" transform="translate(721.321 226.723)" fill="#e0e0e0"/>
      <path id="Path_7360" data-name="Path 7360" d="M-1762.268,1356.453h-6.546l.426-7.35h6.12Z" transform="translate(2490.734 -1114.351)" fill="#fafafa"/>
      <path id="Path_7361" data-name="Path 7361" d="M-1751.226,1397.835s-.094-.457-.315-1.214a5.19,5.19,0,0,0-1.894-2.635,4.732,4.732,0,0,0-6.6,1.1,4.733,4.733,0,0,0,1.1,6.6,4.733,4.733,0,0,0,5.506,0,5.191,5.191,0,0,0,1.894-2.634,7.894,7.894,0,0,1,.315-1.215,2.428,2.428,0,0,1,0,1.293,5.081,5.081,0,0,1-1.845,3.028,5.425,5.425,0,0,1-5.158.867,5.5,5.5,0,0,1-3.353-7.026,5.5,5.5,0,0,1,3.353-3.353,5.427,5.427,0,0,1,5.158.867,5.083,5.083,0,0,1,1.845,3.028A2.428,2.428,0,0,1-1751.226,1397.835Z" transform="translate(2489.597 -1121.459)" fill="#e0e0e0"/>
      <path id="Path_7362" data-name="Path 7362" d="M-1751.791,1385.236a22.141,22.141,0,0,1-3.643.221c-2.319,0-5.615.11-9.543.142l.363-.363V1407.9l-.363-.379c3.927,0,7.224.1,9.543.158a22.141,22.141,0,0,1,3.643.221,23.508,23.508,0,0,1-3.643.206c-2.319,0-5.615.11-9.543.158h-.363v-23.392h.363c3.927,0,7.224.1,9.543.158A23.508,23.508,0,0,1-1751.791,1385.236Z" transform="translate(2490.163 -1120.231)" fill="#e0e0e0"/>
      <path id="Path_7363" data-name="Path 7363" d="M-1763.805,1351.324c0,.236-1.009.41-2.24.41s-2.239-.174-2.239-.41.994-.41,2.239-.41S-1763.805,1351.1-1763.805,1351.324Z" transform="translate(2490.647 -1114.649)" fill="#e0e0e0"/>
      <path id="Path_7364" data-name="Path 7364" d="M-1763.805,1354.458c0,.221-1.009.41-2.24.41s-2.239-.189-2.239-.41.994-.41,2.239-.41S-1763.805,1354.285-1763.805,1354.458Z" transform="translate(2490.647 -1115.164)" fill="#e0e0e0"/>
      <rect id="Rectangle_1265" data-name="Rectangle 1265" width="362.829" height="14.89" transform="translate(438.509 69.607)" fill="#ebebeb"/>
      <rect id="Rectangle_1266" data-name="Rectangle 1266" width="8.344" height="32.777" transform="translate(453.793 79.544)" fill="#ebebeb"/>
      <rect id="Rectangle_1267" data-name="Rectangle 1267" width="6.767" height="32.777" transform="translate(609.568 79.544)" fill="#ebebeb"/>
      <rect id="Rectangle_1268" data-name="Rectangle 1268" width="6.767" height="32.777" transform="translate(776.511 79.544)" fill="#ebebeb"/>
      <path id="Path_7365" data-name="Path 7365" d="M-2068.81,1072.077l-.757,11.988a14.782,14.782,0,0,1-1.94,7.287l-4.069,7.066A3.154,3.154,0,0,0-2076,1100v37.318a.963.963,0,0,0,.962.963h20.994a.962.962,0,0,0,.962-.963V1100.2a3.021,3.021,0,0,0-.473-1.578l-4.069-7.256a17.012,17.012,0,0,1-1.893-7.176l-1.4-12.05Z" transform="translate(2541.231 -1068.812)" fill="#e0e0e0"/>
      <path id="Path_7366" data-name="Path 7366" d="M-2051.359,1112.736h-14.148v24.843h14.148" transform="translate(2539.506 -1075.496)" fill="#fafafa"/>
      <rect id="Rectangle_1269" data-name="Rectangle 1269" width="10.521" height="3.344" rx="1.672" transform="translate(471.112)" fill="#e0e0e0"/>
      <path id="Path_7367" data-name="Path 7367" d="M-2061.718,1085.128h-6.546l.426-7.35h6.12Z" transform="translate(2539.959 -1069.749)" fill="#fafafa"/>
      <path id="Path_7368" data-name="Path 7368" d="M-2050.68,1126.528a10.521,10.521,0,0,1-.315-1.23,5.161,5.161,0,0,0-1.894-2.634,4.857,4.857,0,0,0-4.558-.615,4.732,4.732,0,0,0-2.924,6.019,4.733,4.733,0,0,0,2.924,2.924,4.857,4.857,0,0,0,4.558-.615,5.159,5.159,0,0,0,1.894-2.634c.237-.757.237-1.23.315-1.215a2.484,2.484,0,0,1,0,1.294,5.222,5.222,0,0,1-1.861,3.013,5.38,5.38,0,0,1-5.158.867,5.489,5.489,0,0,1-3.369-6.993,5.489,5.489,0,0,1,3.369-3.37,5.38,5.38,0,0,1,5.158.867,5.226,5.226,0,0,1,1.861,3.092A2.581,2.581,0,0,1-2050.68,1126.528Z" transform="translate(2538.827 -1076.859)" fill="#e0e0e0"/>
      <path id="Path_7369" data-name="Path 7369" d="M-2051.248,1113.927a23.613,23.613,0,0,1-3.643.2c-2.319,0-5.6.126-9.543.158l.363-.363v22.65l-.363-.363c3.943,0,7.224.094,9.543.142a22.063,22.063,0,0,1,3.643.221,22.157,22.157,0,0,1-3.643.22c-2.319,0-5.6.11-9.543.142h-.394v-23.391h.363c3.943,0,7.224,0,9.542.142A21.984,21.984,0,0,1-2051.248,1113.927Z" transform="translate(2539.394 -1075.629)" fill="#e0e0e0"/>
      <path id="Path_7370" data-name="Path 7370" d="M-2063.255,1080.019c0,.221-1.009.41-2.24.41s-2.24-.189-2.24-.41.994-.409,2.24-.409S-2063.255,1079.782-2063.255,1080.019Z" transform="translate(2539.872 -1070.05)" fill="#e0e0e0"/>
      <path id="Path_7371" data-name="Path 7371" d="M-2063.255,1083.208c0,.222-1.009.41-2.24.41s-2.24-.189-2.24-.41.994-.409,2.24-.409S-2063.255,1082.972-2063.255,1083.208Z" transform="translate(2539.872 -1070.574)" fill="#e0e0e0"/>
      <path id="Path_7372" data-name="Path 7372" d="M-2028.733,1072.077l-.757,11.988a14.615,14.615,0,0,1-1.94,7.287l-4.069,7.066a3.151,3.151,0,0,0-.41,1.578v37.318a.962.962,0,0,0,.962.963h20.979a.963.963,0,0,0,.962-.963V1100.2a3.169,3.169,0,0,0-.457-1.578l-4.023-7.318a16.812,16.812,0,0,1-1.94-7.177l-1.419-12.05Z" transform="translate(2534.641 -1068.812)" fill="#e0e0e0"/>
      <path id="Path_7373" data-name="Path 7373" d="M-2011.285,1112.736h-14.149v24.843h14.149" transform="translate(2532.918 -1075.496)" fill="#fafafa"/>
      <rect id="Rectangle_1270" data-name="Rectangle 1270" width="10.521" height="3.344" rx="1.672" transform="translate(504.598)" fill="#e0e0e0"/>
      <path id="Path_7374" data-name="Path 7374" d="M-2021.644,1085.128h-6.546l.426-7.35h6.12Z" transform="translate(2533.371 -1069.749)" fill="#fafafa"/>
      <path id="Path_7375" data-name="Path 7375" d="M-2010.607,1126.528a3.643,3.643,0,0,0-.315-1.23,5.08,5.08,0,0,0-1.894-2.634,4.732,4.732,0,0,0-6.6,1.115,4.732,4.732,0,0,0,1.115,6.6,4.73,4.73,0,0,0,5.483,0,5.08,5.08,0,0,0,1.894-2.634c.237-.757.252-1.23.315-1.215s.142.458,0,1.293a5.1,5.1,0,0,1-1.845,3.013,5.413,5.413,0,0,1-5.174.867,5.49,5.49,0,0,1-3.37-6.993,5.492,5.492,0,0,1,3.37-3.37,5.413,5.413,0,0,1,5.174.867,5.1,5.1,0,0,1,1.845,3.092A2.383,2.383,0,0,1-2010.607,1126.528Z" transform="translate(2532.24 -1076.859)" fill="#e0e0e0"/>
      <path id="Path_7376" data-name="Path 7376" d="M-2011.152,1113.927a23.614,23.614,0,0,1-3.643.2c-2.3,0-5.6.126-9.464.158l.363-.363v22.65l-.363-.363c3.927,0,7.224.094,9.464.142a22.063,22.063,0,0,1,3.643.221,22.157,22.157,0,0,1-3.643.22c-2.3,0-5.6.11-9.464.142h-.363v-23.391h.363c3.927,0,7.224,0,9.464.142A21.99,21.99,0,0,1-2011.152,1113.927Z" transform="translate(2532.785 -1075.629)" fill="#e0e0e0"/>
      <path id="Path_7377" data-name="Path 7377" d="M-2023.165,1080.019c0,.221-1.01.41-2.256.41s-2.239-.189-2.239-.41,1.009-.409,2.239-.409S-2023.165,1079.782-2023.165,1080.019Z" transform="translate(2533.284 -1070.05)" fill="#e0e0e0"/>
      <path id="Path_7378" data-name="Path 7378" d="M-2023.165,1083.208c0,.222-1.01.41-2.256.41s-2.239-.189-2.239-.41,1.009-.409,2.239-.409S-2023.165,1082.972-2023.165,1083.208Z" transform="translate(2533.284 -1070.574)" fill="#e0e0e0"/>
      <path id="Path_7379" data-name="Path 7379" d="M-1950.983,1072.077l-.757,11.988a14.6,14.6,0,0,1-1.94,7.287l-4.069,7.066a3.151,3.151,0,0,0-.41,1.578v37.318a.962.962,0,0,0,.962.963h20.978a.962.962,0,0,0,.962-.963V1100.2a3.154,3.154,0,0,0-.457-1.578l-4.085-7.256a16.784,16.784,0,0,1-1.813-7.24l-1.42-12.05Z" transform="translate(2521.859 -1068.812)" fill="#e0e0e0"/>
      <path id="Path_7380" data-name="Path 7380" d="M-1933.535,1112.736h-14.148v24.843h14.148" transform="translate(2520.137 -1075.496)" fill="#fafafa"/>
      <rect id="Rectangle_1271" data-name="Rectangle 1271" width="10.521" height="3.344" rx="1.672" transform="translate(569.568)" fill="#e0e0e0"/>
      <path id="Path_7381" data-name="Path 7381" d="M-1943.893,1085.128h-6.546l.426-7.35h6.12Z" transform="translate(2520.59 -1069.749)" fill="#fafafa"/>
      <path id="Path_7382" data-name="Path 7382" d="M-1932.913,1126.528a3.634,3.634,0,0,0-.316-1.23,5.075,5.075,0,0,0-1.893-2.634,4.732,4.732,0,0,0-6.6,1.115,4.731,4.731,0,0,0,1.114,6.6,4.731,4.731,0,0,0,5.484,0,5.074,5.074,0,0,0,1.893-2.634c.237-.757.252-1.23.316-1.215s.142.458,0,1.293a5.1,5.1,0,0,1-1.846,3.013,5.411,5.411,0,0,1-5.173.867,5.489,5.489,0,0,1-3.37-6.993,5.489,5.489,0,0,1,3.37-3.37,5.411,5.411,0,0,1,5.173.867,5.1,5.1,0,0,1,1.846,3.092A2.38,2.38,0,0,1-1932.913,1126.528Z" transform="translate(2519.468 -1076.859)" fill="#e0e0e0"/>
      <path id="Path_7383" data-name="Path 7383" d="M-1933.458,1113.927a23.614,23.614,0,0,1-3.643.2c-2.3,0-5.6.126-9.464.158l.363-.363v22.65l-.363-.363c3.927,0,7.224.094,9.464.142a22.062,22.062,0,0,1,3.643.221,22.155,22.155,0,0,1-3.643.22c-2.3,0-5.6.11-9.464.142h-.363v-23.391h.363c3.927,0,7.224,0,9.464.142A21.989,21.989,0,0,1-1933.458,1113.927Z" transform="translate(2520.013 -1075.629)" fill="#e0e0e0"/>
      <path id="Path_7384" data-name="Path 7384" d="M-1945.431,1080.019c0,.221-.993.41-2.239.41s-2.24-.189-2.24-.41,1.009-.409,2.24-.409S-1945.431,1079.782-1945.431,1080.019Z" transform="translate(2520.503 -1070.05)" fill="#e0e0e0"/>
      <path id="Path_7385" data-name="Path 7385" d="M-1945.431,1083.208c0,.222-.993.41-2.239.41s-2.24-.189-2.24-.41,1.009-.409,2.24-.409S-1945.431,1082.972-1945.431,1083.208Z" transform="translate(2520.503 -1070.574)" fill="#e0e0e0"/>
      <path id="Path_7386" data-name="Path 7386" d="M-1913.347,1072.077l-.757,11.988a14.623,14.623,0,0,1-1.956,7.287l-4.054,7.066a3.161,3.161,0,0,0-.425,1.578v37.318a.962.962,0,0,0,.962.963h20.994a.962.962,0,0,0,.962-.963V1100.2a3,3,0,0,0-.473-1.578l-4.069-7.256a16.789,16.789,0,0,1-1.893-7.176l-1.4-12.114Z" transform="translate(2515.675 -1068.812)" fill="#e0e0e0"/>
      <path id="Path_7387" data-name="Path 7387" d="M-1895.858,1112.736h-14.148v24.843h14.148" transform="translate(2513.944 -1075.496)" fill="#fafafa"/>
      <rect id="Rectangle_1272" data-name="Rectangle 1272" width="10.521" height="3.344" rx="1.672" transform="translate(601.051)" fill="#e0e0e0"/>
      <path id="Path_7388" data-name="Path 7388" d="M-1906.217,1085.128h-6.546l.426-7.35h6.12Z" transform="translate(2514.397 -1069.749)" fill="#fafafa"/>
      <path id="Path_7389" data-name="Path 7389" d="M-1895.161,1126.528a10.568,10.568,0,0,1-.315-1.23,5.159,5.159,0,0,0-1.894-2.634,4.857,4.857,0,0,0-4.558-.615,4.732,4.732,0,0,0-2.924,6.019,4.732,4.732,0,0,0,2.924,2.924,4.857,4.857,0,0,0,4.558-.615,5.158,5.158,0,0,0,1.894-2.634c.237-.757.237-1.23.315-1.215a2.479,2.479,0,0,1,0,1.294,5.22,5.22,0,0,1-1.861,3.013,5.38,5.38,0,0,1-5.158.867,5.489,5.489,0,0,1-3.369-6.993,5.488,5.488,0,0,1,3.369-3.37,5.38,5.38,0,0,1,5.158.867,5.1,5.1,0,0,1,1.861,3.092A2.51,2.51,0,0,1-1895.161,1126.528Z" transform="translate(2513.262 -1076.859)" fill="#e0e0e0"/>
      <path id="Path_7390" data-name="Path 7390" d="M-1895.721,1113.927a23.612,23.612,0,0,1-3.643.2c-2.319,0-5.615.126-9.543.158l.363-.363v22.65l-.363-.363c3.943,0,7.224.094,9.543.142a22.061,22.061,0,0,1,3.643.221,22.154,22.154,0,0,1-3.643.22c-2.319,0-5.6.11-9.543.142h-.363v-23.391h.363c3.927,0,7.224,0,9.543.142A21.983,21.983,0,0,1-1895.721,1113.927Z" transform="translate(2513.823 -1075.629)" fill="#e0e0e0"/>
      <path id="Path_7391" data-name="Path 7391" d="M-1907.754,1080.019c0,.221-1.009.41-2.24.41s-2.24-.189-2.24-.41.994-.409,2.24-.409S-1907.754,1079.782-1907.754,1080.019Z" transform="translate(2514.31 -1070.05)" fill="#e0e0e0"/>
      <path id="Path_7392" data-name="Path 7392" d="M-1907.754,1083.208c0,.222-1.009.41-2.24.41s-2.24-.189-2.24-.41.994-.409,2.24-.409S-1907.754,1082.972-1907.754,1083.208Z" transform="translate(2514.31 -1070.574)" fill="#e0e0e0"/>
      <path id="Path_7393" data-name="Path 7393" d="M-1871.175,1072.077l-.757,11.988a14.608,14.608,0,0,1-1.94,7.287l-4.069,7.066a3.149,3.149,0,0,0-.409,1.578v37.318a.946.946,0,0,0,.93.963h21.01a.963.963,0,0,0,.963-.963V1100.2a3.163,3.163,0,0,0-.458-1.578l-4.085-7.256a16.8,16.8,0,0,1-1.877-7.24l-1.42-12.05Z" transform="translate(2508.74 -1068.812)" fill="#e0e0e0"/>
      <path id="Path_7394" data-name="Path 7394" d="M-1853.727,1112.736h-14.149v24.843h14.149" transform="translate(2507.018 -1075.496)" fill="#fafafa"/>
      <rect id="Rectangle_1273" data-name="Rectangle 1273" width="10.521" height="3.344" rx="1.672" transform="translate(636.256)" fill="#e0e0e0"/>
      <path id="Path_7395" data-name="Path 7395" d="M-1864.085,1085.128h-6.546l.426-7.35h6.12Z" transform="translate(2507.471 -1069.749)" fill="#fafafa"/>
      <path id="Path_7396" data-name="Path 7396" d="M-1853.048,1126.528a3.634,3.634,0,0,0-.316-1.23,5.079,5.079,0,0,0-1.893-2.634,4.733,4.733,0,0,0-6.6,1.115,4.732,4.732,0,0,0,1.115,6.6,4.731,4.731,0,0,0,5.484,0,5.078,5.078,0,0,0,1.893-2.634c.237-.757.252-1.23.316-1.215s.142.458,0,1.293a5.177,5.177,0,0,1-1.846,3.013,5.412,5.412,0,0,1-5.173.867,5.489,5.489,0,0,1-3.37-6.993,5.49,5.49,0,0,1,3.37-3.37,5.412,5.412,0,0,1,5.173.867,5.179,5.179,0,0,1,1.846,3.092A2.38,2.38,0,0,1-1853.048,1126.528Z" transform="translate(2506.339 -1076.859)" fill="#e0e0e0"/>
      <path id="Path_7397" data-name="Path 7397" d="M-1853.593,1113.927a23.618,23.618,0,0,1-3.644.2c-2.3,0-5.6.126-9.463.158l.363-.363v22.65l-.363-.363c3.927,0,7.224.094,9.463.142a22.069,22.069,0,0,1,3.644.221,22.162,22.162,0,0,1-3.644.22c-2.3,0-5.6.11-9.463.142h-.363v-23.391h.363c3.927,0,7.224,0,9.463.142A21.994,21.994,0,0,1-1853.593,1113.927Z" transform="translate(2506.885 -1075.629)" fill="#e0e0e0"/>
      <path id="Path_7398" data-name="Path 7398" d="M-1865.623,1080.019c0,.221-.994.41-2.24.41s-2.24-.189-2.24-.41,1.01-.409,2.24-.409S-1865.623,1079.782-1865.623,1080.019Z" transform="translate(2507.384 -1070.05)" fill="#e0e0e0"/>
      <path id="Path_7399" data-name="Path 7399" d="M-1865.623,1083.208c0,.222-.994.41-2.24.41s-2.24-.189-2.24-.41,1.01-.409,2.24-.409S-1865.623,1082.972-1865.623,1083.208Z" transform="translate(2507.384 -1070.574)" fill="#e0e0e0"/>
      <path id="Path_7400" data-name="Path 7400" d="M-1804.693,1072.077l-.757,11.988a14.615,14.615,0,0,1-1.94,7.287l-4.069,7.066a3.161,3.161,0,0,0-.41,1.578v37.318a.963.963,0,0,0,.963.963h20.978a.962.962,0,0,0,.962-.963V1100.2a3.151,3.151,0,0,0-.457-1.578l-4.085-7.256a16.8,16.8,0,0,1-1.877-7.24l-1.42-12.05Z" transform="translate(2497.812 -1068.812)" fill="#e0e0e0"/>
      <path id="Path_7401" data-name="Path 7401" d="M-1787.245,1112.736h-14.149v24.843h14.149" transform="translate(2496.089 -1075.496)" fill="#fafafa"/>
      <rect id="Rectangle_1274" data-name="Rectangle 1274" width="10.521" height="3.344" rx="1.672" transform="translate(691.809)" fill="#e0e0e0"/>
      <path id="Path_7402" data-name="Path 7402" d="M-1797.6,1085.128h-6.546l.426-7.35h6.12Z" transform="translate(2496.542 -1069.749)" fill="#fafafa"/>
      <path id="Path_7403" data-name="Path 7403" d="M-1786.567,1126.528a3.644,3.644,0,0,0-.315-1.23,5.084,5.084,0,0,0-1.893-2.634,4.732,4.732,0,0,0-6.6,1.115,4.732,4.732,0,0,0,1.115,6.6,4.731,4.731,0,0,0,5.484,0,5.084,5.084,0,0,0,1.893-2.634c.236-.757.252-1.23.315-1.215s.142.458,0,1.293a5.1,5.1,0,0,1-1.845,3.013,5.413,5.413,0,0,1-5.174.867,5.489,5.489,0,0,1-3.369-6.993,5.489,5.489,0,0,1,3.369-3.37,5.413,5.413,0,0,1,5.174.867,5.1,5.1,0,0,1,1.845,3.092A2.378,2.378,0,0,1-1786.567,1126.528Z" transform="translate(2495.411 -1076.859)" fill="#e0e0e0"/>
      <path id="Path_7404" data-name="Path 7404" d="M-1787.109,1113.927a23.61,23.61,0,0,1-3.643.2c-2.3,0-5.6.126-9.464.158l.363-.363v22.65l-.363-.363c3.927,0,7.224.094,9.464.142a22.056,22.056,0,0,1,3.643.221,22.149,22.149,0,0,1-3.643.22c-2.3,0-5.6.11-9.464.142h-.347v-23.391h.363c3.927,0,7.224,0,9.464.142A21.955,21.955,0,0,1-1787.109,1113.927Z" transform="translate(2495.953 -1075.629)" fill="#e0e0e0"/>
      <path id="Path_7405" data-name="Path 7405" d="M-1799.125,1080.019c0,.221-1.01.41-2.256.41s-2.239-.189-2.239-.41,1.009-.409,2.239-.409S-1799.125,1079.782-1799.125,1080.019Z" transform="translate(2496.456 -1070.05)" fill="#e0e0e0"/>
      <path id="Path_7406" data-name="Path 7406" d="M-1799.125,1083.2c0,.222-1.01.41-2.256.41s-2.239-.189-2.239-.41.978-.473,2.239-.473S-1799.125,1082.959-1799.125,1083.2Z" transform="translate(2496.456 -1070.562)" fill="#e0e0e0"/>
      <path id="Path_7407" data-name="Path 7407" d="M-1763.581,1072.077l-.757,11.988a14.784,14.784,0,0,1-1.94,7.287l-4.069,7.066a3.159,3.159,0,0,0-.41,1.578v37.318a.947.947,0,0,0,.931.963h21.01a.962.962,0,0,0,.962-.963V1100.2a3.152,3.152,0,0,0-.457-1.578l-4.085-7.256a16.794,16.794,0,0,1-1.877-7.24l-1.42-12.05Z" transform="translate(2491.053 -1068.812)" fill="#e0e0e0"/>
      <path id="Path_7408" data-name="Path 7408" d="M-1746.133,1112.736h-14.148v24.843h14.148" transform="translate(2489.331 -1075.496)" fill="#fafafa"/>
      <rect id="Rectangle_1275" data-name="Rectangle 1275" width="10.521" height="3.344" rx="1.672" transform="translate(726.163)" fill="#e0e0e0"/>
      <path id="Path_7409" data-name="Path 7409" d="M-1756.492,1085.128h-6.546l.426-7.35h6.12Z" transform="translate(2489.784 -1069.749)" fill="#fafafa"/>
      <path id="Path_7410" data-name="Path 7410" d="M-1745.454,1126.528a10.668,10.668,0,0,1-.315-1.23,5.164,5.164,0,0,0-1.893-2.634,4.859,4.859,0,0,0-4.559-.615,4.732,4.732,0,0,0-2.924,6.019,4.732,4.732,0,0,0,2.924,2.924,4.859,4.859,0,0,0,4.559-.615,5.163,5.163,0,0,0,1.893-2.634c.236-.757.236-1.23.315-1.215s.142.458,0,1.294a5.143,5.143,0,0,1-1.861,3.013,5.38,5.38,0,0,1-5.158.867,5.489,5.489,0,0,1-3.369-6.993,5.489,5.489,0,0,1,3.369-3.37,5.38,5.38,0,0,1,5.158.867,5.224,5.224,0,0,1,1.861,3.092A2.38,2.38,0,0,1-1745.454,1126.528Z" transform="translate(2488.652 -1076.859)" fill="#e0e0e0"/>
      <path id="Path_7411" data-name="Path 7411" d="M-1746,1113.927a23.607,23.607,0,0,1-3.643.2c-2.3,0-5.6.126-9.464.158l.363-.363v22.65l-.363-.363c3.927,0,7.224.094,9.464.142a22.056,22.056,0,0,1,3.643.221,22.149,22.149,0,0,1-3.643.22c-2.3,0-5.6.11-9.464.142h-.363v-23.391h.363c3.927,0,7.224,0,9.464.142A21.984,21.984,0,0,1-1746,1113.927Z" transform="translate(2489.198 -1075.629)" fill="#e0e0e0"/>
      <path id="Path_7412" data-name="Path 7412" d="M-1758.029,1080.019c0,.221-.994.41-2.24.41s-2.24-.189-2.24-.41,1.01-.409,2.24-.409S-1758.029,1079.782-1758.029,1080.019Z" transform="translate(2489.698 -1070.05)" fill="#e0e0e0"/>
      <path id="Path_7413" data-name="Path 7413" d="M-1758.029,1083.208c0,.222-.994.41-2.24.41s-2.24-.189-2.24-.41,1.01-.409,2.24-.409S-1758.029,1082.972-1758.029,1083.208Z" transform="translate(2489.698 -1070.574)" fill="#e0e0e0"/>
      <path id="Path_7414" data-name="Path 7414" d="M-1895.626,1344.133a6.152,6.152,0,0,1,1.605-8.55,6.153,6.153,0,0,1,5.6-.694,8.738,8.738,0,0,1,8.845-8.63,8.738,8.738,0,0,1,7.291,4.088,13.358,13.358,0,0,1,11.83-1.987c4.259,1.34,7.524,4.732,10.332,8.249a19.157,19.157,0,0,1,4.275,7.744,7.587,7.587,0,0,1-2.713,7.886" transform="translate(2511.757 -1110.596)" fill="#fafafa"/>
      <path id="Path_7415" data-name="Path 7415" d="M-1900.874,1344.8h57.84v45.395a20.506,20.506,0,0,1-20.505,20.505h-16.846a20.505,20.505,0,0,1-20.5-20.505h0V1344.8Z" transform="translate(2512.445 -1113.644)" fill="#e0e0e0"/>
      <path id="Path_7416" data-name="Path 7416" d="M-1843.361,1377.42c.473-.363,1.467.173,3.028.946a20.947,20.947,0,0,0,6.529,2.13,13.726,13.726,0,0,0,8.912-1.688,13.1,13.1,0,0,0,6.31-8.329,13.44,13.44,0,0,0-1.8-10.316,7.767,7.767,0,0,0-3.028-2.776,7.592,7.592,0,0,0-3.691-.615,17.8,17.8,0,0,0-6.436,2c-1.577.773-2.712,1.183-3.154.789s-.142-1.578,1.041-3.154a14.193,14.193,0,0,1,7.334-5.269,12.717,12.717,0,0,1,7.051-.142,13.724,13.724,0,0,1,6.829,4.59,19.576,19.576,0,0,1,3.817,16.8,18.938,18.938,0,0,1-4.2,8.234,19.8,19.8,0,0,1-6.783,5.031,18.531,18.531,0,0,1-7.413,1.656,17.429,17.429,0,0,1-6.4-1.151,15.22,15.22,0,0,1-7.082-5.457C-1843.661,1378.966-1843.787,1377.735-1843.361,1377.42Z" transform="translate(2503.025 -1114.592)" fill="#e0e0e0"/>
      <path id="Path_7417" data-name="Path 7417" d="M-1686.722,1364.961a15.774,15.774,0,0,1,19.275-8,14.779,14.779,0,0,1,18.936-8.848,14.775,14.775,0,0,1,7.878,6.719,10.284,10.284,0,0,1,11.76,8.557,10.284,10.284,0,0,1-1.412,7.01" transform="translate(2477.239 -1114.042)" fill="#e0e0e0"/>
      <path id="Path_7418" data-name="Path 7418" d="M-1657.018,1413.256h0a36.5,36.5,0,0,1-36.5-36.5h0v-8.533h73.013v8.533a36.5,36.5,0,0,1-36.5,36.5Z" transform="translate(2478.356 -1117.494)" fill="#f5f5f5"/>
      <path id="Path_7419" data-name="Path 7419" d="M-2448.411,1417.66h-20.537l-7.587-38.96h36.042Z" transform="translate(2607.073 -1119.216)" fill="#ebebeb"/>
      <path id="Path_7420" data-name="Path 7420" d="M-2270.636,1417.66h-20.537l-7.587-38.96h36.026Z" transform="translate(2577.849 -1119.216)" fill="#e0e0e0"/>
      <path id="Path_7421" data-name="Path 7421" d="M-2290.625,1417.66h-20.537l-7.587-38.96h36.026Z" transform="translate(2581.135 -1119.216)" fill="#f5f5f5"/>
      <path id="Path_7422" data-name="Path 7422" d="M-2405.39,1403.494v-80.837a11.309,11.309,0,0,1,11.309-11.293h.394v-18.739h14.464v18.281h0a11.31,11.31,0,0,1,11.293,11.294v81.294Z" transform="translate(2595.378 -1105.067)" fill="#e0e0e0"/>
      <rect id="Rectangle_1276" data-name="Rectangle 1276" width="763.987" height="9.259" transform="translate(100.317 339.674)" fill="#e0e0e0"/>
      <rect id="Rectangle_1277" data-name="Rectangle 1277" width="11.609" height="233.521" transform="translate(814.082 398.113)" fill="#ebebeb"/>
      <path id="Path_7423" data-name="Path 7423" d="M-1704.407,1516.608h86.027a17.682,17.682,0,0,1,17.682,17.682h0v6.64h-121.453v-6.64a17.682,17.682,0,0,1,17.682-17.682Z" transform="translate(2483.063 -1141.887)" fill="#e0e0e0"/>
      <rect id="Rectangle_1278" data-name="Rectangle 1278" width="116.674" height="3.975" transform="translate(763.214 406.931)" fill="#e0e0e0"/>
      <path id="Path_7424" data-name="Path 7424" d="M-1602.452,1813.266h-3.155v-14.858a48.093,48.093,0,0,0-48.045-48.092h-19.905a48.093,48.093,0,0,0-48.045,48.045v14.858h-3.154v-14.858a51.246,51.246,0,0,1,51.2-51.2h19.905a51.247,51.247,0,0,1,51.2,51.2Z" transform="translate(2483.491 -1179.786)" fill="#ebebeb"/>
      <rect id="Rectangle_1279" data-name="Rectangle 1279" width="11.609" height="233.521" transform="translate(246.645 398.113)" fill="#ebebeb"/>
      <path id="Path_7425" data-name="Path 7425" d="M-2383.55,1516.608h86.027a17.682,17.682,0,0,1,17.682,17.682v6.64h-121.453v-6.64a17.681,17.681,0,0,1,17.681-17.682Z" transform="translate(2594.704 -1141.887)" fill="#e0e0e0"/>
      <rect id="Rectangle_1280" data-name="Rectangle 1280" width="116.674" height="3.975" transform="translate(195.776 406.931)" fill="#e0e0e0"/>
      <path id="Path_7426" data-name="Path 7426" d="M-2281.44,1813.266h-3.154v-14.858a48.109,48.109,0,0,0-48.108-48.092h-19.922a48.108,48.108,0,0,0-48.045,48.045v14.858h-3.155v-14.858a51.263,51.263,0,0,1,51.2-51.2h19.922a51.262,51.262,0,0,1,51.262,51.247Z" transform="translate(2595.121 -1179.786)" fill="#ebebeb"/>
      <rect id="Rectangle_1281" data-name="Rectangle 1281" width="11.609" height="233.521" transform="translate(55.348 398.113)" fill="#ebebeb"/>
      <path id="Path_7427" data-name="Path 7427" d="M-2612.387,1516.608h86.011a17.682,17.682,0,0,1,17.681,17.682v6.64h-121.453v-6.64a17.682,17.682,0,0,1,17.682-17.682Z" transform="translate(2632.325 -1141.887)" fill="#e0e0e0"/>
      <rect id="Rectangle_1282" data-name="Rectangle 1282" width="116.674" height="3.975" transform="translate(4.48 406.931)" fill="#e0e0e0"/>
      <path id="Path_7428" data-name="Path 7428" d="M-2510.432,1813.266h-3.155v-14.858a48.108,48.108,0,0,0-48.06-48.092h-19.906a48.107,48.107,0,0,0-48.044,48.045v14.858h-3.155v-14.858a51.247,51.247,0,0,1,51.2-51.2h19.906a51.262,51.262,0,0,1,51.215,51.2Z" transform="translate(2632.753 -1179.786)" fill="#ebebeb"/>
    </g>
    <g id="freepik--Plants--inject-33" transform="translate(404.627 732.734)">
      <path id="Path_7633" data-name="Path 7633" d="M-1737.7,1709.692a18.6,18.6,0,0,0-12.855,6.719,32.781,32.781,0,0,0-6.468,13.312c-2.413,9.322-.788,20.285,1.94,29.512,10.047-3.691,16.152-14.48,18.927-20.143,4.369-8.959,6.8-27.793-1.577-29.4" transform="translate(2432.642 -1594.022)" fill="#455a64"/>
      <path id="Path_7634" data-name="Path 7634" d="M-1776.047,1777.392a15.77,15.77,0,0,0,.615-15.868,21.019,21.019,0,0,0-12.744-10.047c-2.461-.741-5.316-1.025-7.429.425a6.736,6.736,0,0,0-2.555,6.31,13.9,13.9,0,0,0,2.95,6.483c4.953,6.577,10.947,12.05,19.164,12.619" transform="translate(2439.222 -1600.791)" fill="#455a64"/>
      <path id="Path_7635" data-name="Path 7635" d="M-1774.626,1810.683a12.423,12.423,0,0,0,.426-1.94c.267-1.372.6-3.155.994-5.3a55.2,55.2,0,0,0,.946-17.808,34.145,34.145,0,0,0-6.735-16.452,23.639,23.639,0,0,0-3.849-3.817,13.148,13.148,0,0,0-1.214-.852,1.67,1.67,0,0,0-.442-.252,36.045,36.045,0,0,1,5.111,5.236,35.03,35.03,0,0,1,6.451,16.231,59.289,59.289,0,0,1-.757,17.618c-.331,2.256-.615,4.085-.772,5.347A11.479,11.479,0,0,0-1774.626,1810.683Z" transform="translate(2436.965 -1602.993)" fill="#263238"/>
      <path id="Path_7636" data-name="Path 7636" d="M-1743.287,1726.661a4.815,4.815,0,0,0-.394.773l-1.025,2.24c-.867,1.955-2.1,4.811-3.581,8.344-2.981,7.067-6.94,16.894-11.041,27.84s-7.65,20.946-10.1,28.2c-1.23,3.643-2.192,6.593-2.839,8.628-.284.978-.536,1.751-.71,2.366a6.225,6.225,0,0,0-.221.836,3.307,3.307,0,0,0,.347-.789l.852-2.319c.741-2.1,1.782-5,3.028-8.548,2.571-7.225,6.167-17.193,10.3-28.123s8.029-20.789,10.883-27.9c1.4-3.5,2.539-6.31,3.376-8.423.363-.947.663-1.7.9-2.3A5.063,5.063,0,0,0-1743.287,1726.661Z" transform="translate(2435.106 -1596.811)" fill="#263238"/>
      <path id="Path_7637" data-name="Path 7637" d="M-1758.627,1791.519a36.975,36.975,0,0,1,28.55-18.076c2.982-.252,6.561.222,7.887,2.887s-.394,5.852-2.413,8.059a31.546,31.546,0,0,1-34.149,7.887" transform="translate(2432.733 -1604.492)" fill="#455a64"/>
      <path id="Path_7638" data-name="Path 7638" d="M-1736.6,1783.023a9.284,9.284,0,0,0-1.877.1,14.027,14.027,0,0,0-2.161.268,27.876,27.876,0,0,0-2.855.552,32.4,32.4,0,0,0-3.375.979,34.8,34.8,0,0,0-3.77,1.467,40.619,40.619,0,0,0-7.886,4.732,41.966,41.966,0,0,0-6.53,6.561,38.4,38.4,0,0,0-2.288,3.344,29.246,29.246,0,0,0-1.687,3.076,25.582,25.582,0,0,0-1.167,2.666,16.413,16.413,0,0,0-.725,2.067,9.965,9.965,0,0,0-.474,1.8c.158,0,.852-2.524,2.792-6.31q.8-1.549,1.751-3.012a35.564,35.564,0,0,1,2.318-3.234,40.821,40.821,0,0,1,6.452-6.435,42.962,42.962,0,0,1,7.76-4.732c1.278-.568,2.492-1.12,3.691-1.578a32.445,32.445,0,0,1,3.312-1.025C-1739.254,1783.339-1736.588,1783.181-1736.6,1783.023Z" transform="translate(2434.812 -1606.074)" fill="#263238"/>
      <path id="Path_7639" data-name="Path 7639" d="M-2514.338,1571.383c-8.944,1.436-12.935,12.429-12.146,21.435s4.48,17.839,3.486,26.815c-1.246,11.42-9.891,21.073-10.884,32.524-1.2,13.5,8.344,25.474,11.2,38.723,1.388,6.451,1.2,13.265,3.6,19.4a24.259,24.259,0,0,0,31.43,13.754,24.259,24.259,0,0,0,15.416-22.114c.2-10.378-6.2-20.142-5.411-30.473.568-7.65,5.048-14.89,4.085-22.493-1.136-9.038-9.463-15.473-12.477-24.086s-.126-18.139-1.135-27.208c-1.829-16.262-10.851-27.587-27.161-26.293" transform="translate(2560.17 -1571.267)" fill="#f9afa1"/>
      <path id="Path_7640" data-name="Path 7640" d="M-2565.09,1665.635c-1.578,15.064,5.142,32.792,12.9,45.742a71.817,71.817,0,0,0,33.723,29.275c1.577.663,3.533,1.214,4.857.126a4.734,4.734,0,0,0,1.231-3.865,73.929,73.929,0,0,0-52.714-71.279" transform="translate(2565.321 -1586.78)" fill="#f9afa1"/>
      <g id="Group_1506" data-name="Group 1506" transform="translate(0 78.855)" opacity="0.2">
        <path id="Path_7641" data-name="Path 7641" d="M-2565.09,1665.635c-1.578,15.064,5.142,32.792,12.9,45.742a71.817,71.817,0,0,0,33.723,29.275c1.577.663,3.533,1.214,4.857.126a4.734,4.734,0,0,0,1.231-3.865,73.929,73.929,0,0,0-52.714-71.279" transform="translate(2565.321 -1665.635)"/>
      </g>
      <path id="Path_7642" data-name="Path 7642" d="M-2495.658,1777.564a4.694,4.694,0,0,1-.426-.836l-1.073-2.476c-.9-2.145-2.255-5.253-3.974-9.054-3.454-7.6-8.549-17.95-14.969-28.96a320.818,320.818,0,0,0-17.886-27.24c-2.477-3.375-4.511-6.072-5.931-7.887l-1.577-2.145a3.735,3.735,0,0,1-.521-.789,4.329,4.329,0,0,1,.647.679c.473.536,1.041,1.215,1.75,2.051,1.578,1.782,3.627,4.432,6.152,7.76a272.552,272.552,0,0,1,18.155,27.177,278.616,278.616,0,0,1,14.78,29.149c1.656,3.832,2.918,6.972,3.738,9.164.364,1.024.678,1.861.915,2.539A3.478,3.478,0,0,1-2495.658,1777.564Z" transform="translate(2561.49 -1592.129)" fill="#263238"/>
      <path id="Path_7643" data-name="Path 7643" d="M-2498.169,1621.3a8.024,8.024,0,0,1,.173,1.451c0,1.009.174,2.4.3,4.148.236,3.675.568,8.881.978,15.268.821,12.887,1.956,30.695,3.344,50.348s2.745,37.461,3.739,50.347c.489,6.31.9,11.562,1.167,15.252.126,1.736.221,3.155.283,4.149a8.417,8.417,0,0,1,0,1.451,8.161,8.161,0,0,1-.221-1.435c-.094-1.025-.252-2.4-.441-4.133l-1.436-15.237c-1.151-12.871-2.6-30.663-3.991-50.332s-2.429-37.476-3.155-50.379c-.3-6.4-.536-11.593-.71-15.284q-.094-2.634-.141-4.164A11.073,11.073,0,0,1-2498.169,1621.3Z" transform="translate(2554.3 -1579.491)" fill="#263238"/>
      <path id="Path_7644" data-name="Path 7644" d="M-2514.72,1767.472h37.729v27.7a18.108,18.108,0,0,1-18.108,18.108h0a18.107,18.107,0,0,1-18.091-17.146Z" transform="translate(2557.003 -1603.52)" fill="#263238"/>
    </g>
  </g>
</svg>
