<?xml version="1.0" encoding="utf-8"?>
<!-- Generator: Adobe Illustrator 25.4.1, SVG Export Plug-In . SVG Version: 6.00 Build 0)  -->
<svg version="1.1" id="Casa" xmlns="http://www.w3.org/2000/svg" xmlns:xlink="http://www.w3.org/1999/xlink" x="0px" y="0px"
	 viewBox="0 0 200 200" style="enable-background:new 0 0 200 200;" xml:space="preserve">
<style type="text/css">
	.st0{fill:#5A316B;}
</style>
<path class="st0" d="M177.1,90.6l-7.7-7.5V25.3c0-3.9-3.1-7-7-7h-24.4c-3.9,0-7,3.1-7,7v20.3L105.8,21l-0.2-0.2
	c-2.7-2.6-6.8-3-9.9-1c-0.3,0.2-0.6,0.4-0.9,0.7c-0.2,0.2-0.4,0.3-0.6,0.5L22.9,90.6c-1.6,1.5-2.5,3.6-2.4,5.7c0,4.4,3.5,8,7.9,8
	c0.7,0,1.5-0.1,2.2-0.3v74.1c0,1.9,1.5,3.5,3.4,3.5c0,0,0,0,0,0h130c1.9,0,3.4-1.5,3.4-3.4v-74.9c1.2,0.7,2.6,1.1,4,1.1h0.1
	c4.4,0,8-3.6,8-8C179.5,94.2,178.6,92.1,177.1,90.6L177.1,90.6z M137.9,52.3v-27c0-0.1,0.1-0.2,0.1-0.2c0,0,0,0,0,0h24.3
	c0.1,0,0.2,0.1,0.2,0.1c0,0,0,0,0,0v51.1L137.9,52.3z M102.8,119.6h-3.6c-11.8,0-21.3,9.6-21.3,21.4c0,0,0,0,0,0v33.9H37.5v-76
	L100,37.8l31.2,30.5l29.4,28.7v77.9h-36.5V141C124.1,129.2,114.6,119.6,102.8,119.6z M84.7,141c0-8,6.5-14.4,14.4-14.4h3.6
	c8,0,14.4,6.5,14.4,14.4v33.8H84.7V141z M99,26l0.3-0.3c0,0,0.1-0.1,0.1-0.1c0.3-0.2,0.7-0.2,1.1-0.1c0.1,0.1,0.2,0.1,0.3,0.2
	l71.6,69.8c0.2,0.2,0.4,0.5,0.4,0.8c0,0.3-0.1,0.6-0.3,0.8l0,0c-0.2,0.2-0.5,0.4-0.9,0.4c-0.3,0-0.6-0.1-0.8-0.3l-68.3-66.7
	c-1.3-1.3-3.5-1.3-4.8,0L29.3,97.2c-0.2,0.2-0.5,0.3-0.9,0.3c-0.3,0-0.6-0.1-0.8-0.4c-0.2-0.2-0.3-0.5-0.3-0.8
	c0-0.3,0.1-0.6,0.4-0.8L99,26z"/>
</svg>
