<svg xmlns="http://www.w3.org/2000/svg" xmlns:xlink="http://www.w3.org/1999/xlink" width="1920" height="1080" viewBox="0 0 1920 1080">
  <defs>
    <clipPath id="clip-Cenário_1_32">
      <rect width="1920" height="1080"/>
    </clipPath>
  </defs>
  <g id="Cenário_1_32" data-name="Cenário 1 – 32" clip-path="url(#clip-Cenário_1_32)">
    <g id="Grupo_8606" data-name="Grupo 8606" transform="translate(-1876.791 -1258.462)" opacity="0.25">
      <rect id="Retângulo_2319" data-name="Retângulo 2319" width="786.715" height="786.715" transform="translate(2933.03 1532.713)" fill="#ebebeb"/>
      <rect id="Retângulo_2320" data-name="Retângulo 2320" width="712.401" height="699.72" transform="translate(2970.201 1575.664)" fill="#c7c7c7"/>
      <rect id="Retângulo_2321" data-name="Retângulo 2321" width="712.401" height="24.871" transform="translate(2970.201 2100.25)" fill="#ebebeb"/>
      <rect id="Retângulo_2322" data-name="Retângulo 2322" width="712.401" height="24.871" transform="translate(2970.201 1914.48)" fill="#ebebeb"/>
      <rect id="Retângulo_2323" data-name="Retângulo 2323" width="712.401" height="24.871" transform="translate(2970.201 1728.71)" fill="#ebebeb"/>
      <rect id="Retângulo_2324" data-name="Retângulo 2324" width="69.378" height="69.378" rx="3.09" transform="translate(2987.791 1659.305)" fill="#fff"/>
      <rect id="Retângulo_2325" data-name="Retângulo 2325" width="69.378" height="69.378" rx="3.09" transform="translate(3059.405 1659.305)" fill="#fff"/>
      <rect id="Retângulo_2326" data-name="Retângulo 2326" width="69.378" height="69.378" rx="3.09" transform="translate(2987.791 1588.373)" fill="#fff"/>
      <rect id="Retângulo_2327" data-name="Retângulo 2327" width="69.378" height="69.378" rx="3.09" transform="translate(3059.405 1588.373)" fill="#fff"/>
      <rect id="Retângulo_2328" data-name="Retângulo 2328" width="69.378" height="69.378" rx="3.09" transform="translate(3130.936 1659.305)" fill="#fff"/>
      <rect id="Retângulo_2329" data-name="Retângulo 2329" width="69.378" height="69.378" rx="3.09" transform="translate(3130.936 1588.373)" fill="#fff"/>
      <rect id="Retângulo_2330" data-name="Retângulo 2330" width="220.295" height="55.033" transform="translate(2983.182 1638.961)" fill="#dbdbdb"/>
      <rect id="Retângulo_2331" data-name="Retângulo 2331" width="69.378" height="69.378" rx="3.09" transform="translate(3214.549 1659.305)" fill="#fff"/>
      <rect id="Retângulo_2332" data-name="Retângulo 2332" width="69.378" height="69.378" rx="3.09" transform="translate(3286.163 1659.305)" fill="#fff"/>
      <rect id="Retângulo_2333" data-name="Retângulo 2333" width="69.378" height="69.378" rx="3.09" transform="translate(3214.549 1588.373)" fill="#fff"/>
      <rect id="Retângulo_2334" data-name="Retângulo 2334" width="69.378" height="69.378" rx="3.09" transform="translate(3286.163 1588.373)" fill="#fff"/>
      <rect id="Retângulo_2335" data-name="Retângulo 2335" width="69.378" height="69.378" rx="3.09" transform="translate(3357.695 1659.305)" fill="#fff"/>
      <rect id="Retângulo_2336" data-name="Retângulo 2336" width="69.378" height="69.378" rx="3.09" transform="translate(3357.695 1588.373)" fill="#fff"/>
      <rect id="Retângulo_2337" data-name="Retângulo 2337" width="220.295" height="55.033" transform="translate(3209.968 1638.961)" fill="#ebebeb"/>
      <rect id="Retângulo_2338" data-name="Retângulo 2338" width="69.378" height="69.378" rx="3.09" transform="translate(3441.308 1659.305)" fill="#fff"/>
      <rect id="Retângulo_2339" data-name="Retângulo 2339" width="69.378" height="69.378" rx="3.09" transform="translate(3512.922 1659.305)" fill="#fff"/>
      <rect id="Retângulo_2340" data-name="Retângulo 2340" width="69.378" height="69.378" rx="3.09" transform="translate(3441.308 1588.373)" fill="#fff"/>
      <rect id="Retângulo_2341" data-name="Retângulo 2341" width="69.378" height="69.378" rx="3.09" transform="translate(3512.922 1588.373)" fill="#fff"/>
      <rect id="Retângulo_2342" data-name="Retângulo 2342" width="69.378" height="69.378" rx="3.09" transform="translate(3584.454 1659.305)" fill="#fff"/>
      <rect id="Retângulo_2343" data-name="Retângulo 2343" width="69.378" height="69.378" rx="3.09" transform="translate(3584.454 1588.373)" fill="#fff"/>
      <rect id="Retângulo_2344" data-name="Retângulo 2344" width="220.295" height="55.033" transform="translate(3436.727 1638.961)" fill="#dbdbdb"/>
      <path id="Caminho_17013" data-name="Caminho 17013" d="M3011.376,1725.92v37.607h-60V1725.92c0-17.126,9.354-27.571,9.354-32.943s-6.927-13.635-6.927-24.08,13.635-19.09,13.635-26.917v-21.817h27.816v21.817c0,7.772,13.635,16.362,13.635,26.917s-6.954,18.762-6.954,24.08S3011.376,1708.794,3011.376,1725.92Z" transform="translate(31.692 151.036)" fill="#dbdbdb"/>
      <rect id="Retângulo_2345" data-name="Retângulo 2345" width="36.407" height="12.299" transform="translate(2994.962 1763.589)" fill="#ebebeb"/>
      <rect id="Retângulo_2346" data-name="Retângulo 2346" width="59.942" height="21.817" transform="translate(2983.182 1879.246)" fill="#fff"/>
      <path id="Caminho_17014" data-name="Caminho 17014" d="M3035.826,1725.92v37.607h-60V1725.92c0-17.126,9.354-27.571,9.354-32.943s-6.954-13.635-6.954-24.08,13.635-19.09,13.635-26.917v-21.817h27.817v21.817c0,7.772,13.635,16.362,13.635,26.917s-6.926,18.762-6.926,24.08S3035.826,1708.794,3035.826,1725.92Z" transform="translate(73.92 151.036)" fill="#dbdbdb"/>
      <rect id="Retângulo_2347" data-name="Retângulo 2347" width="36.407" height="12.299" transform="translate(3061.559 1763.589)" fill="#ebebeb"/>
      <rect id="Retângulo_2348" data-name="Retângulo 2348" width="59.942" height="21.817" transform="translate(3049.805 1879.246)" fill="#fff"/>
      <path id="Caminho_17015" data-name="Caminho 17015" d="M3060.247,1725.92v37.607h-60V1725.92c0-17.126,9.353-27.571,9.353-32.943s-6.927-13.635-6.927-24.08,13.635-19.09,13.635-26.917v-21.817h27.925v21.817c0,7.772,13.636,16.362,13.636,26.917s-6.954,18.762-6.954,24.08S3060.247,1708.794,3060.247,1725.92Z" transform="translate(116.095 151.036)" fill="#dbdbdb"/>
      <rect id="Retângulo_2349" data-name="Retângulo 2349" width="36.407" height="12.299" transform="translate(3128.182 1763.589)" fill="#ebebeb"/>
      <rect id="Retângulo_2350" data-name="Retângulo 2350" width="59.942" height="21.817" transform="translate(3116.401 1879.246)" fill="#fff"/>
      <path id="Caminho_17016" data-name="Caminho 17016" d="M3084.666,1725.92v37.607h-60V1725.92c0-17.126,9.327-27.571,9.327-32.943s-6.927-13.635-6.927-24.08,13.635-19.09,13.635-26.917v-21.817h27.816v21.817c0,7.772,13.635,16.362,13.635,26.917s-6.927,18.762-6.927,24.08S3084.666,1708.794,3084.666,1725.92Z" transform="translate(158.271 151.036)" fill="#dbdbdb"/>
      <rect id="Retângulo_2351" data-name="Retângulo 2351" width="36.407" height="12.299" transform="translate(3194.777 1763.589)" fill="#ebebeb"/>
      <rect id="Retângulo_2352" data-name="Retângulo 2352" width="59.942" height="21.817" transform="translate(3183.024 1879.246)" fill="#fff"/>
      <path id="Caminho_17017" data-name="Caminho 17017" d="M3109.1,1725.92v37.607h-60V1725.92c0-17.126,9.354-27.571,9.354-32.943s-6.954-13.635-6.954-24.08,13.635-19.09,13.635-26.917v-21.817h27.817v21.817c0,7.772,13.635,16.362,13.635,26.917s-6.927,18.762-6.927,24.08S3109.1,1708.794,3109.1,1725.92Z" transform="translate(200.465 151.036)" fill="#dbdbdb"/>
      <rect id="Retângulo_2353" data-name="Retângulo 2353" width="36.407" height="12.299" transform="translate(3261.374 1763.589)" fill="#ebebeb"/>
      <rect id="Retângulo_2354" data-name="Retângulo 2354" width="59.942" height="21.817" transform="translate(3249.62 1879.246)" fill="#fff"/>
      <path id="Caminho_17018" data-name="Caminho 17018" d="M3158.33,1643.371v95.667a12.081,12.081,0,0,1-12.08,12.081h-54.979a12.084,12.084,0,0,1-12.082-12.081v-95.667a12.083,12.083,0,0,1,12.082-12.054h.381v-5.754h54.215v5.754h.383A12.079,12.079,0,0,1,3158.33,1643.371Z" transform="translate(252.433 160.362)" fill="#fff"/>
      <rect id="Retângulo_2355" data-name="Retângulo 2355" width="69.078" height="96.676" rx="4.2" transform="translate(3336.669 1809.923)" fill="#a6a6a6"/>
      <rect id="Retângulo_2356" data-name="Retângulo 2356" width="69.95" height="11.508" transform="translate(3336.069 1774.089)" fill="#dbdbdb"/>
      <rect id="Retângulo_2357" data-name="Retângulo 2357" width="41.07" height="41.452" transform="translate(3350.659 1848.702)" fill="#ebebeb"/>
      <path id="Caminho_17019" data-name="Caminho 17019" d="M2993.975,1724.75v54.542a6.873,6.873,0,0,1-6.873,6.872h-31.28a6.875,6.875,0,0,1-6.872-6.872h0V1724.75a6.872,6.872,0,0,1,6.872-6.845h.219v-3.272h30.844v3.272h.217A6.871,6.871,0,0,1,2993.975,1724.75Z" transform="translate(27.495 314.196)" fill="#fff"/>
      <rect id="Retângulo_2358" data-name="Retângulo 2358" width="39.298" height="55.006" rx="1.68" transform="translate(2979.309 2042.463)" fill="#ebebeb"/>
      <rect id="Retângulo_2359" data-name="Retângulo 2359" width="39.788" height="6.545" transform="translate(2978.982 2022.092)" fill="#a6a6a6"/>
      <path id="Caminho_17020" data-name="Caminho 17020" d="M2993.911,1696.175v54.406a6.873,6.873,0,0,1-6.872,6.872h-31.308a6.875,6.875,0,0,1-6.871-6.872h0v-54.406a6.872,6.872,0,0,1,6.844-6.9h.246V1686h30.9v3.272h.218a6.869,6.869,0,0,1,6.845,6.9Z" transform="translate(27.34 264.748)" fill="#fff"/>
      <rect id="Retângulo_2360" data-name="Retângulo 2360" width="39.298" height="55.006" rx="1.68" transform="translate(2979.119 1964.413)" fill="#ebebeb"/>
      <rect id="Retângulo_2361" data-name="Retângulo 2361" width="39.788" height="6.545" transform="translate(2978.791 1944.015)" fill="#a6a6a6"/>
      <path id="Caminho_17021" data-name="Caminho 17021" d="M3011.513,1724.819v54.542a6.873,6.873,0,0,1-6.873,6.872h-31.28a6.877,6.877,0,0,1-6.981-6.763v-54.76a6.873,6.873,0,0,1,6.873-6.845h.218v-3.272h31.088v3.272h0a6.869,6.869,0,0,1,6.955,6.788C3011.516,1724.708,3011.516,1724.762,3011.513,1724.819Z" transform="translate(57.598 314.126)" fill="#fff"/>
      <rect id="Retângulo_2362" data-name="Retângulo 2362" width="39.298" height="55.006" rx="1.68" transform="translate(3026.952 2042.463)" fill="#ebebeb"/>
      <rect id="Retângulo_2363" data-name="Retângulo 2363" width="39.788" height="6.545" transform="translate(3026.625 2022.092)" fill="#a6a6a6"/>
      <path id="Caminho_17022" data-name="Caminho 17022" d="M3011.323,1696.158v54.406a6.873,6.873,0,0,1-6.872,6.872h-31.28a6.875,6.875,0,0,1-6.791-6.9v-54.378a6.873,6.873,0,0,1,6.873-6.872h.218v-3.273h30.762v3.273h.327A6.868,6.868,0,0,1,3011.323,1696.158Z" transform="translate(57.598 264.766)" fill="#fff"/>
      <rect id="Retângulo_2364" data-name="Retângulo 2364" width="39.298" height="55.006" rx="1.68" transform="translate(3026.761 1964.413)" fill="#ebebeb"/>
      <rect id="Retângulo_2365" data-name="Retângulo 2365" width="39.788" height="6.545" transform="translate(3026.406 1944.015)" fill="#a6a6a6"/>
      <path id="Caminho_17023" data-name="Caminho 17023" d="M3028.912,1724.75v54.542a6.873,6.873,0,0,1-6.872,6.872h-31.308a6.875,6.875,0,0,1-6.872-6.872h0V1724.75a6.872,6.872,0,0,1,6.872-6.845h.218v-3.272h30.844v3.272h.218a6.87,6.87,0,0,1,6.9,6.845Z" transform="translate(87.789 314.196)" fill="#fff"/>
      <rect id="Retângulo_2366" data-name="Retângulo 2366" width="39.298" height="55.006" rx="1.68" transform="translate(3074.595 2042.463)" fill="#ebebeb"/>
      <rect id="Retângulo_2367" data-name="Retângulo 2367" width="39.788" height="6.545" transform="translate(3074.24 2022.092)" fill="#a6a6a6"/>
      <path id="Caminho_17024" data-name="Caminho 17024" d="M3028.766,1696.158v54.406a6.874,6.874,0,0,1-6.873,6.872h-31.144a6.877,6.877,0,0,1-6.9-6.845v-54.433a6.873,6.873,0,0,1,6.873-6.872h.027v-3.273h30.843v3.273h.219a6.87,6.87,0,0,1,6.954,6.788Z" transform="translate(87.771 264.766)" fill="#fff"/>
      <rect id="Retângulo_2368" data-name="Retângulo 2368" width="39.298" height="55.006" rx="1.68" transform="translate(3074.376 1964.413)" fill="#ebebeb"/>
      <rect id="Retângulo_2369" data-name="Retângulo 2369" width="39.788" height="6.545" transform="translate(3074.049 1944.015)" fill="#a6a6a6"/>
      <path id="Caminho_17025" data-name="Caminho 17025" d="M3046.4,1724.75v54.542a6.874,6.874,0,0,1-6.873,6.872h-31.28a6.876,6.876,0,0,1-6.9-6.845V1724.75a6.873,6.873,0,0,1,6.9-6.845h.19v-3.272h30.872v3.272h.3A6.87,6.87,0,0,1,3046.4,1724.75Z" transform="translate(117.995 314.196)" fill="#fff"/>
      <rect id="Retângulo_2370" data-name="Retângulo 2370" width="39.298" height="55.006" rx="1.68" transform="translate(3122.21 2042.463)" fill="#ebebeb"/>
      <rect id="Retângulo_2371" data-name="Retângulo 2371" width="39.788" height="6.545" transform="translate(3121.882 2022.092)" fill="#a6a6a6"/>
      <path id="Caminho_17026" data-name="Caminho 17026" d="M3046.3,1696.158v54.406a6.873,6.873,0,0,1-6.872,6.872h-31.28a6.875,6.875,0,0,1-6.872-6.872h0v-54.406a6.873,6.873,0,0,1,6.872-6.872h.218v-3.273h30.843v3.273h.219a6.871,6.871,0,0,1,6.872,6.872Z" transform="translate(117.875 264.766)" fill="#fff"/>
      <rect id="Retângulo_2372" data-name="Retângulo 2372" width="39.298" height="55.006" rx="1.68" transform="translate(3122.019 1964.413)" fill="#ebebeb"/>
      <rect id="Retângulo_2373" data-name="Retângulo 2373" width="39.788" height="6.545" transform="translate(3121.692 1944.015)" fill="#a6a6a6"/>
      <path id="Caminho_17027" data-name="Caminho 17027" d="M3063.911,1724.75v54.542a6.873,6.873,0,0,1-6.871,6.872h-31.308a6.875,6.875,0,0,1-6.871-6.872h0V1724.75a6.872,6.872,0,0,1,6.871-6.845h0v-3.272h30.844v3.272h.219a6.872,6.872,0,0,1,7.115,6.621C3063.911,1724.6,3063.911,1724.674,3063.911,1724.75Z" transform="translate(148.237 314.196)" fill="#fff"/>
      <rect id="Retângulo_2374" data-name="Retângulo 2374" width="39.298" height="55.006" rx="1.68" transform="translate(3169.852 2042.463)" fill="#ebebeb"/>
      <rect id="Retângulo_2375" data-name="Retângulo 2375" width="39.788" height="6.545" transform="translate(3169.525 2022.092)" fill="#a6a6a6"/>
      <path id="Caminho_17028" data-name="Caminho 17028" d="M3063.774,1696.158v54.406a6.873,6.873,0,0,1-6.873,6.872h-31.279a6.875,6.875,0,0,1-6.873-6.872h0v-54.406a6.873,6.873,0,0,1,6.873-6.872h.3v-3.273h30.844v3.273h.219A6.87,6.87,0,0,1,3063.774,1696.158Z" transform="translate(148.047 264.766)" fill="#fff"/>
      <rect id="Retângulo_2376" data-name="Retângulo 2376" width="39.298" height="55.006" rx="1.68" transform="translate(3169.661 1964.413)" fill="#ebebeb"/>
      <rect id="Retângulo_2377" data-name="Retângulo 2377" width="39.788" height="6.545" transform="translate(3169.334 1944.015)" fill="#a6a6a6"/>
      <path id="Caminho_17029" data-name="Caminho 17029" d="M3081.314,1724.75v54.542a6.873,6.873,0,0,1-6.873,6.872h-31.28a6.875,6.875,0,0,1-6.873-6.872h0V1724.75a6.873,6.873,0,0,1,6.873-6.845h.218v-3.272h30.844v3.272h.218A6.872,6.872,0,0,1,3081.314,1724.75Z" transform="translate(178.341 314.196)" fill="#fff"/>
      <rect id="Retângulo_2378" data-name="Retângulo 2378" width="39.298" height="55.006" rx="1.68" transform="translate(3217.494 2042.463)" fill="#ebebeb"/>
      <rect id="Retângulo_2379" data-name="Retângulo 2379" width="39.788" height="6.545" transform="translate(3217.168 2022.092)" fill="#a6a6a6"/>
      <path id="Caminho_17030" data-name="Caminho 17030" d="M3081.244,1696.158v54.406a6.873,6.873,0,0,1-6.872,6.872h-31.28a6.875,6.875,0,0,1-6.873-6.872h0v-54.406a6.873,6.873,0,0,1,6.873-6.872h.218v-3.273h30.843v3.273h.219a6.871,6.871,0,0,1,6.872,6.872Z" transform="translate(178.219 264.766)" fill="#fff"/>
      <rect id="Retângulo_2380" data-name="Retângulo 2380" width="39.298" height="55.006" rx="1.68" transform="translate(3217.303 1964.413)" fill="#ebebeb"/>
      <rect id="Retângulo_2381" data-name="Retângulo 2381" width="39.788" height="6.545" transform="translate(3216.949 1944.015)" fill="#a6a6a6"/>
      <path id="Caminho_17031" data-name="Caminho 17031" d="M3098.784,1724.75v54.542a6.873,6.873,0,0,1-6.872,6.872h-31.28a6.875,6.875,0,0,1-6.873-6.872h0V1724.75a6.874,6.874,0,0,1,6.873-6.845h.272v-3.272h30.844v3.272h.218A6.868,6.868,0,0,1,3098.784,1724.75Z" transform="translate(208.514 314.196)" fill="#fff"/>
      <rect id="Retângulo_2382" data-name="Retângulo 2382" width="39.298" height="55.006" rx="1.68" transform="translate(3265.137 2042.463)" fill="#ebebeb"/>
      <rect id="Retângulo_2383" data-name="Retângulo 2383" width="39.788" height="6.545" transform="translate(3264.81 2022.092)" fill="#a6a6a6"/>
      <path id="Caminho_17032" data-name="Caminho 17032" d="M3098.7,1696.158v54.406a6.873,6.873,0,0,1-6.873,6.872h-31.253a6.877,6.877,0,0,1-6.9-6.845v-54.433a6.874,6.874,0,0,1,6.873-6.872h.218v-3.273h30.871v3.273h.19A6.871,6.871,0,0,1,3098.7,1696.158Z" transform="translate(208.375 264.766)" fill="#fff"/>
      <rect id="Retângulo_2384" data-name="Retângulo 2384" width="39.298" height="55.006" rx="1.68" transform="translate(3264.919 1964.413)" fill="#ebebeb"/>
      <rect id="Retângulo_2385" data-name="Retângulo 2385" width="39.788" height="6.545" transform="translate(3264.592 1944.015)" fill="#a6a6a6"/>
      <path id="Caminho_17033" data-name="Caminho 17033" d="M3190.552,1643.371v95.667a12.081,12.081,0,0,1-12.081,12.081h-55.061a12.083,12.083,0,0,1-12.081-12.081v-95.667a12.083,12.083,0,0,1,12.081-12.054h.382v-5.754h54.215v5.754h.382a12.077,12.077,0,0,1,12.163,12Z" transform="translate(307.942 160.362)" fill="#fff"/>
      <rect id="Retângulo_2386" data-name="Retângulo 2386" width="69.078" height="96.676" rx="4.2" transform="translate(3424.291 1809.923)" fill="#a6a6a6"/>
      <rect id="Retângulo_2387" data-name="Retângulo 2387" width="69.95" height="11.508" transform="translate(3423.718 1774.089)" fill="#dbdbdb"/>
      <rect id="Retângulo_2388" data-name="Retângulo 2388" width="41.07" height="41.452" transform="translate(3438.308 1848.702)" fill="#ebebeb"/>
      <path id="Caminho_17034" data-name="Caminho 17034" d="M3222.628,1643.371v95.667a12.107,12.107,0,0,1-12.108,12.081h-54.952a12.11,12.11,0,0,1-12.108-12.081v-95.667a12.108,12.108,0,0,1,12.108-12.054h.355v-5.754h54.242v5.754h.355A12.106,12.106,0,0,1,3222.628,1643.371Z" transform="translate(363.434 160.362)" fill="#fff"/>
      <rect id="Retângulo_2389" data-name="Retângulo 2389" width="69.078" height="96.676" rx="4.2" transform="translate(3511.94 1809.923)" fill="#a6a6a6"/>
      <rect id="Retângulo_2390" data-name="Retângulo 2390" width="69.95" height="11.508" transform="translate(3511.34 1774.089)" fill="#dbdbdb"/>
      <rect id="Retângulo_2391" data-name="Retângulo 2391" width="41.07" height="41.452" transform="translate(3525.93 1848.702)" fill="#ebebeb"/>
      <path id="Caminho_17035" data-name="Caminho 17035" d="M3254.74,1643.371v95.667a12.082,12.082,0,0,1-12.082,12.081h-54.978a12.083,12.083,0,0,1-12.081-12.081v-95.667a12.082,12.082,0,0,1,12.081-12.054h.381v-5.754h54.215v5.754h.381A12.079,12.079,0,0,1,3254.74,1643.371Z" transform="translate(418.943 160.362)" fill="#fff"/>
      <rect id="Retângulo_2392" data-name="Retângulo 2392" width="69.078" height="96.676" rx="4.2" transform="translate(3599.59 1809.923)" fill="#a6a6a6"/>
      <rect id="Retângulo_2393" data-name="Retângulo 2393" width="69.95" height="11.508" transform="translate(3598.99 1774.089)" fill="#dbdbdb"/>
      <rect id="Retângulo_2394" data-name="Retângulo 2394" width="41.07" height="41.452" transform="translate(3613.579 1848.702)" fill="#ebebeb"/>
      <rect id="Retângulo_2395" data-name="Retângulo 2395" width="108.539" height="152.827" transform="translate(3315.752 1947.178)" fill="#dbdbdb"/>
      <rect id="Retângulo_2396" data-name="Retângulo 2396" width="77.613" height="6.709" transform="translate(3331.215 1992.039)" fill="#a6a6a6"/>
      <rect id="Retângulo_2397" data-name="Retângulo 2397" width="61.714" height="6.709" transform="translate(3339.178 2004.774)" fill="#a6a6a6"/>
      <rect id="Retângulo_2398" data-name="Retângulo 2398" width="61.714" height="6.709" transform="translate(3339.178 1968.64)" fill="#ebebeb"/>
      <ellipse id="Elipse_627" data-name="Elipse 627" cx="42.161" cy="23.535" rx="42.161" ry="23.535" transform="translate(3327.861 2030.627)" fill="#fff"/>
      <rect id="Retângulo_2399" data-name="Retângulo 2399" width="108.539" height="152.827" transform="translate(3435.663 1947.178)" fill="#dbdbdb"/>
      <rect id="Retângulo_2400" data-name="Retângulo 2400" width="77.613" height="6.709" transform="translate(3451.125 1992.039)" fill="#a6a6a6"/>
      <rect id="Retângulo_2401" data-name="Retângulo 2401" width="61.714" height="6.709" transform="translate(3459.089 2004.774)" fill="#a6a6a6"/>
      <rect id="Retângulo_2402" data-name="Retângulo 2402" width="61.714" height="6.709" transform="translate(3459.089 1968.64)" fill="#ebebeb"/>
      <ellipse id="Elipse_628" data-name="Elipse 628" cx="42.161" cy="23.535" rx="42.161" ry="23.535" transform="translate(3447.771 2030.627)" fill="#fff"/>
      <rect id="Retângulo_2403" data-name="Retângulo 2403" width="108.539" height="152.827" transform="translate(3555.574 1947.178)" fill="#dbdbdb"/>
      <rect id="Retângulo_2404" data-name="Retângulo 2404" width="77.613" height="6.709" transform="translate(3571.037 1992.039)" fill="#a6a6a6"/>
      <rect id="Retângulo_2405" data-name="Retângulo 2405" width="61.714" height="6.709" transform="translate(3579 2004.774)" fill="#a6a6a6"/>
      <rect id="Retângulo_2406" data-name="Retângulo 2406" width="61.714" height="6.709" transform="translate(3579 1968.64)" fill="#ebebeb"/>
      <ellipse id="Elipse_629" data-name="Elipse 629" cx="42.161" cy="23.535" rx="42.161" ry="23.535" transform="translate(3567.682 2030.627)" fill="#fff"/>
      <rect id="Retângulo_2407" data-name="Retângulo 2407" width="140.364" height="135.646" transform="translate(2987.791 2139.711)" fill="#ebebeb"/>
      <rect id="Retângulo_2408" data-name="Retângulo 2408" width="99.348" height="51.242" transform="translate(3008.299 2210.807)" fill="#fff"/>
      <rect id="Retângulo_2409" data-name="Retângulo 2409" width="151.082" height="21.135" transform="translate(2982.446 2139.711)" fill="#dbdbdb"/>
      <rect id="Retângulo_2410" data-name="Retângulo 2410" width="140.364" height="135.646" transform="translate(3147.108 2139.711)" fill="#ebebeb"/>
      <rect id="Retângulo_2411" data-name="Retângulo 2411" width="99.348" height="51.242" transform="translate(3167.616 2210.807)" fill="#fff"/>
      <rect id="Retângulo_2412" data-name="Retângulo 2412" width="151.082" height="21.135" transform="translate(3141.736 2139.711)" fill="#dbdbdb"/>
      <rect id="Retângulo_2413" data-name="Retângulo 2413" width="80.831" height="103.821" transform="translate(3305.771 2171.537)" fill="#ebebeb"/>
      <rect id="Retângulo_2414" data-name="Retângulo 2414" width="59.342" height="22.117" transform="translate(3315.916 2200.798)" fill="#fff"/>
      <rect id="Retângulo_2415" data-name="Retângulo 2415" width="59.342" height="33.625" transform="translate(3315.916 2233.469)" fill="#fff"/>
      <rect id="Retângulo_2416" data-name="Retângulo 2416" width="90.267" height="16.172" transform="translate(3301.053 2171.537)" fill="#dbdbdb"/>
      <rect id="Retângulo_2417" data-name="Retângulo 2417" width="80.831" height="103.821" transform="translate(3400.511 2171.537)" fill="#ebebeb"/>
      <rect id="Retângulo_2418" data-name="Retângulo 2418" width="59.342" height="22.117" transform="translate(3410.656 2200.798)" fill="#fff"/>
      <rect id="Retângulo_2419" data-name="Retângulo 2419" width="59.342" height="33.625" transform="translate(3410.656 2233.469)" fill="#fff"/>
      <rect id="Retângulo_2420" data-name="Retângulo 2420" width="90.267" height="16.172" transform="translate(3395.793 2171.537)" fill="#dbdbdb"/>
      <rect id="Retângulo_2421" data-name="Retângulo 2421" width="80.831" height="103.821" transform="translate(3495.25 2171.537)" fill="#ebebeb"/>
      <rect id="Retângulo_2422" data-name="Retângulo 2422" width="59.342" height="22.117" transform="translate(3505.395 2200.798)" fill="#fff"/>
      <rect id="Retângulo_2423" data-name="Retângulo 2423" width="59.342" height="33.625" transform="translate(3505.395 2233.469)" fill="#fff"/>
      <rect id="Retângulo_2424" data-name="Retângulo 2424" width="90.267" height="16.172" transform="translate(3490.532 2171.537)" fill="#dbdbdb"/>
      <rect id="Retângulo_2425" data-name="Retângulo 2425" width="80.831" height="103.821" transform="translate(3589.99 2171.537)" fill="#ebebeb"/>
      <rect id="Retângulo_2426" data-name="Retângulo 2426" width="59.342" height="22.117" transform="translate(3600.135 2200.798)" fill="#fff"/>
      <rect id="Retângulo_2427" data-name="Retângulo 2427" width="59.342" height="33.625" transform="translate(3600.135 2233.469)" fill="#fff"/>
      <rect id="Retângulo_2428" data-name="Retângulo 2428" width="90.267" height="16.172" transform="translate(3585.272 2171.537)" fill="#dbdbdb"/>
      <rect id="Retângulo_2429" data-name="Retângulo 2429" width="712.401" height="19.035" transform="translate(2970.201 2319.427)" fill="#c7c7c7"/>
    </g>
    <g id="Grupo_8608" data-name="Grupo 8608" transform="translate(446.108 243.319)" opacity="0.61">
      <path id="Caminho_17082" data-name="Caminho 17082" d="M712.04,146.145V218.1c0,3.141-2.529,6.4-7.208,8.861a43.561,43.561,0,0,1-19.953,4.166h-.149c-16.994,0-27.16-6.712-27.16-13.026V146c0-7.026,5.207-14.349,10.4-21.59,3.488-4.844,4.331-11.82,4.5-15.9v-1.322h-.479a3.8,3.8,0,0,1-4.05-3.471v-3.042a3.8,3.8,0,0,1,4.05-3.5h25.54a4.115,4.115,0,0,1,3.736,2.116,3.088,3.088,0,0,1,.314,1.389v3.042a3.786,3.786,0,0,1-4.05,3.471h-.479V108.5c.165,4.083,1.008,11.059,4.5,15.9,5.191,7.241,10.365,14.564,10.4,21.59C712.056,146.062,712.04,146.112,712.04,146.145Z" transform="translate(-382.338 -96.469)" fill="#fafafa"/>
      <path id="Caminho_17083" data-name="Caminho 17083" d="M712.213,146.416v-.727a15.241,15.241,0,0,0-.3-2.149,27.255,27.255,0,0,0-3.009-7.753,104.53,104.53,0,0,0-7.373-11.109c-3.075-4.414-4.4-10.563-4.546-17.225v-.364h.4a3.686,3.686,0,0,0,4.1-2.728V101.3a2.912,2.912,0,0,0-1.042-2.513,4.128,4.128,0,0,0-2.761-.893H672.7A4,4,0,0,0,669.562,99a2.809,2.809,0,0,0-.744,1.438,13.551,13.551,0,0,0,0,1.868v1.918a2.657,2.657,0,0,0,.711,1.488,4.033,4.033,0,0,0,3.306,1.157h.546v.562a43.021,43.021,0,0,1-.959,8.761,24.072,24.072,0,0,1-3.438,8.48c-3.471,4.959-7.307,9.919-9.423,15.936a19.7,19.7,0,0,0-.992,4.563v70.406a20.773,20.773,0,0,0,.182,4.116,7.714,7.714,0,0,0,1.9,3.389,18.828,18.828,0,0,0,6.612,4.513,44.527,44.527,0,0,0,15.49,3.174,53.174,53.174,0,0,0,15.043-1.356c4.711-1.207,9.324-3.141,12.266-6.612a8.271,8.271,0,0,0,1.653-2.827,10.9,10.9,0,0,0,.265-3.306v-19.06c.083-15.82.149-28.632.2-37.558,0-4.381.083-7.819.116-10.216s.1-3.554.1-3.554a26.876,26.876,0,0,1,.132,3.554c0,2.4,0,5.835.116,10.216,0,8.927.1,21.738.182,37.558v19.06a11.849,11.849,0,0,1-.3,3.521,8.971,8.971,0,0,1-1.769,3.174c-3.19,3.719-7.951,5.687-12.762,6.943a54.312,54.312,0,0,1-15.357,1.455,45.679,45.679,0,0,1-15.886-3.306,19.948,19.948,0,0,1-7.026-4.794,8.678,8.678,0,0,1-2.165-3.885,22.193,22.193,0,0,1-.232-4.381V144.862a19.678,19.678,0,0,1,1.058-4.844c2.215-6.2,6.133-11.258,9.588-16.217s4.1-11.026,4.265-16.531l.529.529a5.038,5.038,0,0,1-4.05-1.5,3.722,3.722,0,0,1-.975-2.066v-2.05a17.64,17.64,0,0,1,0-2.05,3.957,3.957,0,0,1,1.025-1.967,4.955,4.955,0,0,1,3.885-1.405h24.978a4.847,4.847,0,0,1,3.306,1.124,3.769,3.769,0,0,1,1.339,3.157V104.2a4.431,4.431,0,0,1-4.959,3.306l.4-.38c0,6.612,1.339,12.6,4.265,16.878a99.741,99.741,0,0,1,7.257,11.258,26.339,26.339,0,0,1,2.843,7.918,14.183,14.183,0,0,1,.182,2.166C712.279,146.168,712.245,146.416,712.213,146.416Z" transform="translate(-382.51 -96.74)" fill="#e0e0e0"/>
      <path id="Caminho_17084" data-name="Caminho 17084" d="M708.825,134.275c-2.3-1.488-5.323-.843-7.786.331s-4.794,2.794-7.472,3.224a14.317,14.317,0,0,1-9.125-2.331,57.064,57.064,0,0,0-8.464-4.612A16.53,16.53,0,0,0,659,134.936V196.63s3.306,10.53,27.26,8.877,21.97-12.183,21.97-12.183Z" transform="translate(-381.404 -74.994)" fill="#ebebeb"/>
      <path id="Caminho_17085" data-name="Caminho 17085" d="M676.24,146.145v71.96c0,3.141-2.529,6.4-7.208,8.861a43.5,43.5,0,0,1-19.953,4.166h-.1c-17.01,0-27.161-6.712-27.161-13.026V146c0-7.026,5.191-14.349,10.381-21.589,3.5-4.844,4.331-11.82,4.5-15.9v-1.322h-.463a3.8,3.8,0,0,1-4.067-3.472v-3.042a3.8,3.8,0,0,1,4.067-3.5h25.557a4.13,4.13,0,0,1,3.753,2.116,3.3,3.3,0,0,1,.3,1.389v3.042a3.786,3.786,0,0,1-4.05,3.472h-.463V108.5c.165,4.083.992,11.059,4.48,15.9,5.207,7.241,10.365,14.564,10.4,21.589A.188.188,0,0,1,676.24,146.145Z" transform="translate(-405.686 -96.47)" fill="#fafafa"/>
      <path id="Caminho_17086" data-name="Caminho 17086" d="M676.456,146.318v-.727a17.068,17.068,0,0,0-.281-2.149,28.226,28.226,0,0,0-3.009-7.753,105.086,105.086,0,0,0-7.389-11.109c-3.075-4.414-4.4-10.563-4.546-17.225v-.364h.4a3.653,3.653,0,0,0,4.083-2.728V101.2a2.912,2.912,0,0,0-1.041-2.513,4.111,4.111,0,0,0-2.761-.893H636.88a4.018,4.018,0,0,0-3.141,1.108,2.809,2.809,0,0,0-.744,1.438v3.786a2.9,2.9,0,0,0,.711,1.488,4.084,4.084,0,0,0,3.306,1.157h.546v.562a45.381,45.381,0,0,1-.959,8.761,24.782,24.782,0,0,1-3.438,8.48c-3.488,4.959-7.323,9.919-9.423,15.936a18.917,18.917,0,0,0-1.008,4.563c-.083,1.521,0,3.306,0,4.844V215.5a22.116,22.116,0,0,0,.182,4.116,7.885,7.885,0,0,0,1.9,3.389,18.979,18.979,0,0,0,6.612,4.513,44.527,44.527,0,0,0,15.49,3.174,53.29,53.29,0,0,0,15.06-1.356c4.695-1.207,9.307-3.141,12.266-6.612a8.022,8.022,0,0,0,1.653-2.827,10.4,10.4,0,0,0,.264-3.306v-19.06c0-15.82.149-28.632.182-37.558,0-4.381,0-7.819.116-10.216s.1-3.554.1-3.554a23.627,23.627,0,0,1,.132,3.554c0,2.4,0,5.835.116,10.216,0,8.927.116,21.738.2,37.558v19.06a11.839,11.839,0,0,1-.281,3.521,9.5,9.5,0,0,1-1.769,3.174c-3.207,3.719-7.951,5.687-12.779,6.943a54.19,54.19,0,0,1-15.357,1.455,45.679,45.679,0,0,1-15.886-3.306,19.95,19.95,0,0,1-7.026-4.794,9,9,0,0,1-2.166-3.885,20.887,20.887,0,0,1-.215-4.381V145.012a19.675,19.675,0,0,1,1.058-4.844c2.232-6.2,6.133-11.258,9.6-16.217s4.1-11.026,4.248-16.531l.529.529a5.038,5.038,0,0,1-4.05-1.5,3.811,3.811,0,0,1-.975-2.066v-2.05a14.6,14.6,0,0,1,0-2.05,3.816,3.816,0,0,1,1.008-1.967,4.956,4.956,0,0,1,3.885-1.405h24.978a4.959,4.959,0,0,1,3.306,1.124,3.7,3.7,0,0,1,1.322,3.157v3.157a4.414,4.414,0,0,1-4.959,3.306l.38-.38c.1,6.612,1.356,12.6,4.265,16.878a99.732,99.732,0,0,1,7.257,11.258,26.945,26.945,0,0,1,2.86,7.918,14.167,14.167,0,0,1,.182,2.166C676.522,146.07,676.489,146.318,676.456,146.318Z" transform="translate(-405.902 -96.642)" fill="#e0e0e0"/>
      <path id="Caminho_17087" data-name="Caminho 17087" d="M673.068,134.276c-2.3-1.488-5.323-.843-7.8.331s-4.794,2.794-7.472,3.224a14.361,14.361,0,0,1-9.125-2.331,55.259,55.259,0,0,0-8.464-4.612,16.531,16.531,0,0,0-16.994,4.05v61.694s3.405,10.53,27.26,8.877,21.986-12.183,21.986-12.183Z" transform="translate(-404.778 -74.996)" fill="#ebebeb"/>
      <path id="Caminho_17088" data-name="Caminho 17088" d="M640.507,146.145V218.1c0,3.141-2.546,6.4-7.207,8.861a43.608,43.608,0,0,1-19.953,4.166h-.116c-16.994,0-27.161-6.712-27.161-13.026V146c0-7.026,5.207-14.349,10.4-21.59,3.488-4.844,4.331-11.82,4.48-15.9v-1.322h-.479a3.786,3.786,0,0,1-4.05-3.471v-3.042a3.786,3.786,0,0,1,4.047-3.5h25.527a4.13,4.13,0,0,1,3.753,2.116,3.31,3.31,0,0,1,.314,1.389v3.042a3.8,3.8,0,0,1-4.067,3.471h-.364V108.5c.165,4.083,1.008,11.059,4.5,15.9,5.191,7.241,10.348,14.564,10.4,21.59A1.131,1.131,0,0,1,640.507,146.145Z" transform="translate(-429.035 -96.47)" fill="#fafafa"/>
      <path id="Caminho_17089" data-name="Caminho 17089" d="M640.74,146.317v-.727a15.248,15.248,0,0,0-.3-2.149,27.707,27.707,0,0,0-3.009-7.753,107.188,107.188,0,0,0-7.373-11.109c-3.091-4.414-4.414-10.563-4.546-17.225v-.364h.4a3.653,3.653,0,0,0,4.083-2.728V101.2a2.828,2.828,0,0,0-1.157-2.48,4.066,4.066,0,0,0-2.744-.893H601.1a4.03,4.03,0,0,0-3.141,1.108,2.907,2.907,0,0,0-.727,1.438,16.759,16.759,0,0,0,0,1.868v1.918a2.657,2.657,0,0,0,.711,1.488,4.035,4.035,0,0,0,3.306,1.157h.529v.562a42.99,42.99,0,0,1-.959,8.761,24.435,24.435,0,0,1-3.438,8.48c-3.472,4.959-7.307,9.919-9.423,15.936a18.2,18.2,0,0,0-.992,4.563c-.083,1.521,0,3.306,0,4.844v65.562a22.121,22.121,0,0,0,.182,4.116,8.045,8.045,0,0,0,1.9,3.389,19.061,19.061,0,0,0,6.612,4.513,44.353,44.353,0,0,0,15.473,3.174,53.288,53.288,0,0,0,15.06-1.356c4.695-1.207,9.307-3.141,12.266-6.612a8.275,8.275,0,0,0,1.653-2.827,10.9,10.9,0,0,0,.265-3.306v-19.06c0-15.82.149-28.632.2-37.558,0-4.381,0-7.819.1-10.216s.1-3.554.1-3.554a24.547,24.547,0,0,1,.149,3.554c0,2.4,0,5.835.116,10.216,0,8.927.1,21.738.182,37.558v19.06a11.315,11.315,0,0,1-.281,3.521,9.237,9.237,0,0,1-1.769,3.174c-3.19,3.719-7.951,5.687-12.778,6.943A54.141,54.141,0,0,1,611.05,231.7a45.814,45.814,0,0,1-15.9-3.306,20.1,20.1,0,0,1-7.026-4.794,9.016,9.016,0,0,1-2.166-3.885,22.076,22.076,0,0,1-.215-4.381V145.012a20.453,20.453,0,0,1,1.075-4.844c2.215-6.2,6.133-11.258,9.588-16.217s4.1-11.026,4.249-16.531l.546.529a5.106,5.106,0,0,1-4.067-1.5,3.8,3.8,0,0,1-.959-2.066v-2.05a17.667,17.667,0,0,1,0-2.05,3.841,3.841,0,0,1,1.025-1.967,4.959,4.959,0,0,1,3.868-1.405H626.06a4.958,4.958,0,0,1,3.306,1.124,3.7,3.7,0,0,1,1.322,3.157v3.157a4.4,4.4,0,0,1-4.959,3.306l.4-.38c0,6.612,1.339,12.6,4.265,16.878a101.751,101.751,0,0,1,7.257,11.258,26.818,26.818,0,0,1,2.843,7.918,14.191,14.191,0,0,1,.182,2.166C640.74,146.069,640.74,146.317,640.74,146.317Z" transform="translate(-429.268 -96.642)" fill="#e0e0e0"/>
      <path id="Caminho_17090" data-name="Caminho 17090" d="M637.281,134.275c-2.3-1.488-5.323-.843-7.786.331s-4.794,2.794-7.472,3.224A14.317,14.317,0,0,1,612.9,135.5a56.241,56.241,0,0,0-8.48-4.612,16.53,16.53,0,0,0-16.977,4.05V196.63s3.306,10.53,27.243,8.877,21.986-12.183,21.986-12.183Z" transform="translate(-428.14 -74.994)" fill="#ebebeb"/>
      <path id="Caminho_17091" data-name="Caminho 17091" d="M604.69,146.145v71.96c0,3.141-2.529,6.4-7.208,8.861a43.5,43.5,0,0,1-19.953,4.166h-.116c-16.994,0-27.144-6.712-27.144-13.026V146c0-7.026,5.191-14.349,10.381-21.589,3.5-4.844,4.331-11.82,4.5-15.9v-1.322H564.7a3.8,3.8,0,0,1-4.067-3.472v-3.042a3.8,3.8,0,0,1,4.067-3.5h25.524a4.151,4.151,0,0,1,3.753,2.116,3.3,3.3,0,0,1,.3,1.389v3.042a3.786,3.786,0,0,1-4.05,3.472h-.479V108.5c.149,4.083.992,11.059,4.48,15.9,5.207,7.241,10.365,14.564,10.4,21.589A.144.144,0,0,1,604.69,146.145Z" transform="translate(-452.416 -96.47)" fill="#fafafa"/>
      <path id="Caminho_17092" data-name="Caminho 17092" d="M604.928,146.318v-.727a17.73,17.73,0,0,0-.3-2.149,27.571,27.571,0,0,0-2.992-7.753,107.588,107.588,0,0,0-7.389-11.109c-3.075-4.414-4.4-10.563-4.546-17.225v-.364h.4a3.686,3.686,0,0,0,4.1-2.728V101.2a2.908,2.908,0,0,0-1.157-2.48,4.128,4.128,0,0,0-2.761-.893H565.3a4,4,0,0,0-3.141,1.108,2.809,2.809,0,0,0-.744,1.438,16.759,16.759,0,0,0,0,1.868v1.918a2.78,2.78,0,0,0,.711,1.488,4.035,4.035,0,0,0,3.306,1.157h.546v.562a43,43,0,0,1-.959,8.761,24.073,24.073,0,0,1-3.438,8.48c-3.471,4.959-7.307,9.919-9.423,15.936a19.675,19.675,0,0,0-.992,4.563v70.406a20.778,20.778,0,0,0,.182,4.116,7.714,7.714,0,0,0,1.9,3.389,18.845,18.845,0,0,0,6.612,4.513,44.526,44.526,0,0,0,15.49,3.174,53.175,53.175,0,0,0,15.043-1.356c4.711-1.207,9.323-3.141,12.283-6.612a8.557,8.557,0,0,0,1.653-2.827,10.9,10.9,0,0,0,.264-3.306v-19.06c0-15.82.132-28.632.182-37.558,0-4.381.083-7.819.116-10.216s.1-3.554.1-3.554a26.866,26.866,0,0,1,.132,3.554c0,2.4,0,5.835.116,10.216,0,8.927.116,21.738.182,37.558v19.06a11.845,11.845,0,0,1-.3,3.521,9.188,9.188,0,0,1-1.752,3.174c-3.207,3.719-7.968,5.687-12.778,6.943a54.25,54.25,0,0,1-15.357,1.455,45.679,45.679,0,0,1-15.886-3.306,19.949,19.949,0,0,1-7.026-4.794,8.836,8.836,0,0,1-2.166-3.885,22.208,22.208,0,0,1-.231-4.381V145.012a19.678,19.678,0,0,1,1.058-4.844c2.215-6.2,6.133-11.258,9.6-16.217s4.1-11.026,4.249-16.531l.529.529a5.038,5.038,0,0,1-4.05-1.5,3.723,3.723,0,0,1-.975-2.066v-2.05a14.653,14.653,0,0,1,0-2.05,3.829,3.829,0,0,1,1.009-1.967,4.955,4.955,0,0,1,3.885-1.405h24.978a4.83,4.83,0,0,1,3.306,1.124,3.72,3.72,0,0,1,1.339,3.157v3.157a4.431,4.431,0,0,1-4.959,3.306l.4-.38c.083,6.612,1.339,12.6,4.265,16.878a99.767,99.767,0,0,1,7.257,11.258,26.325,26.325,0,0,1,2.959,7.951,14.4,14.4,0,0,1,.2,2.166C604.994,146.07,604.961,146.318,604.928,146.318Z" transform="translate(-452.654 -96.642)" fill="#e0e0e0"/>
      <path id="Caminho_17093" data-name="Caminho 17093" d="M601.5,134.276c-2.3-1.488-5.323-.843-7.786.331s-4.794,2.794-7.472,3.224a14.351,14.351,0,0,1-9.125-2.331,57.06,57.06,0,0,0-8.464-4.612,16.531,16.531,0,0,0-16.994,4.05v61.694s3.389,10.53,27.26,8.877,21.97-12.183,21.97-12.183Z" transform="translate(-451.508 -74.996)" fill="#ebebeb"/>
      <path id="Caminho_17094" data-name="Caminho 17094" d="M568.9,146.145V218.1c0,3.141-2.529,6.4-7.208,8.861a43.515,43.515,0,0,1-19.92,4.166h-.1c-17.01,0-27.16-6.712-27.16-13.026V146c0-7.026,5.191-14.349,10.4-21.59,3.488-4.844,4.314-11.82,4.48-15.9v-1.322h-.463a3.785,3.785,0,0,1-4.05-3.471v-3.042a3.786,3.786,0,0,1,4.047-3.5h25.527A4.134,4.134,0,0,1,558.3,99.28a3.31,3.31,0,0,1,.314,1.389v3.042a3.8,3.8,0,0,1-4.067,3.471h-.463V108.5c.165,4.083.992,11.059,4.5,15.9,5.191,7.241,10.349,14.564,10.382,21.59A.268.268,0,0,0,568.9,146.145Z" transform="translate(-475.771 -96.47)" fill="#fafafa"/>
      <path id="Caminho_17095" data-name="Caminho 17095" d="M569.106,146.317a5.927,5.927,0,0,0,0-.727,17.068,17.068,0,0,0-.281-2.149,28.226,28.226,0,0,0-3.009-7.753,107.167,107.167,0,0,0-7.373-11.109c-3.091-4.414-4.414-10.563-4.562-17.225v-.364h.4a3.653,3.653,0,0,0,4.083-2.728V101.2a2.825,2.825,0,0,0-1.041-2.513,4.111,4.111,0,0,0-2.761-.893H529.58a4.014,4.014,0,0,0-3.141,1.108,2.808,2.808,0,0,0-.744,1.438v3.786a2.9,2.9,0,0,0,.711,1.488,4.081,4.081,0,0,0,3.306,1.157h.546v.562a44.088,44.088,0,0,1-.959,8.761,24.815,24.815,0,0,1-3.438,8.48c-3.488,4.959-7.307,9.919-9.423,15.936a18.908,18.908,0,0,0-1.008,4.563V215.5a21.965,21.965,0,0,0,.182,4.116,8.043,8.043,0,0,0,1.9,3.389,18.978,18.978,0,0,0,6.612,4.513,44.526,44.526,0,0,0,15.49,3.174,53.292,53.292,0,0,0,15.06-1.356c4.695-1.207,9.307-3.141,12.266-6.612a8.274,8.274,0,0,0,1.653-2.827,10.9,10.9,0,0,0,.264-3.306v-19.06c.083-15.82.149-28.632.182-37.558,0-4.381.1-7.819.116-10.216s.1-3.554.1-3.554a24.556,24.556,0,0,1,.149,3.554c0,2.4,0,5.835.1,10.216,0,8.927.116,21.738.2,37.558v19.06a11.313,11.313,0,0,1-.281,3.521,9.5,9.5,0,0,1-1.769,3.174c-3.207,3.719-7.951,5.687-12.778,6.943a54.194,54.194,0,0,1-15.357,1.455,45.8,45.8,0,0,1-15.886-3.306,19.933,19.933,0,0,1-7.026-4.794,9,9,0,0,1-2.166-3.885,20.879,20.879,0,0,1-.215-4.381V145.012a20.337,20.337,0,0,1,1.058-4.844c2.232-6.2,6.133-11.258,9.6-16.217s4.1-11.026,4.248-16.531l.529.529a5.073,5.073,0,0,1-4.05-1.5,3.677,3.677,0,0,1-.959-2.066v-2.05a17.64,17.64,0,0,1,0-2.05,3.721,3.721,0,0,1,1.025-1.967,4.959,4.959,0,0,1,3.868-1.405h24.979a4.958,4.958,0,0,1,3.306,1.124,3.7,3.7,0,0,1,1.322,3.157v3.157a4.414,4.414,0,0,1-4.959,3.306l.38-.38c.1,6.612,1.356,12.6,4.282,16.878a99.168,99.168,0,0,1,7.241,11.258,26.95,26.95,0,0,1,2.86,7.918,14.167,14.167,0,0,1,.182,2.166C569.172,146.069,569.139,146.317,569.106,146.317Z" transform="translate(-475.98 -96.642)" fill="#e0e0e0"/>
      <path id="Caminho_17096" data-name="Caminho 17096" d="M565.665,134.268c-2.3-1.488-5.323-.843-7.786.331s-4.794,2.794-7.472,3.224a14.386,14.386,0,0,1-9.142-2.331,55.26,55.26,0,0,0-8.464-4.612,16.53,16.53,0,0,0-16.911,4.05v61.694s3.389,10.53,27.243,8.877,21.986-12.183,21.986-12.183Z" transform="translate(-474.869 -74.988)" fill="#ebebeb"/>
      <rect id="Retângulo_2433" data-name="Retângulo 2433" width="391.372" height="19.093" transform="translate(0 124.313)" fill="#e0e0e0"/>
      <path id="Caminho_17097" data-name="Caminho 17097" d="M712.04,271.589a.666.666,0,0,0,0,.116v71.844c0,3.157-2.529,6.414-7.208,8.877a43.784,43.784,0,0,1-19.953,4.166h-.149c-16.994,0-27.16-6.728-27.16-13.043V271.7a.666.666,0,0,0,0-.116v-.132c0-7.026,5.207-14.365,10.4-21.606,3.488-4.844,4.331-11.8,4.5-15.9v-1.323h-.479a3.8,3.8,0,0,1-4.05-3.471v-3.042a3.8,3.8,0,0,1,4.05-3.488h25.54a4.083,4.083,0,0,1,3.736,2.116,2.994,2.994,0,0,1,.314,1.372v3.042a3.786,3.786,0,0,1-4.05,3.471h-.479v1.323c.165,4.1,1.008,11.059,4.5,15.9,5.191,7.241,10.365,14.58,10.4,21.606C712.056,271.506,712.04,271.555,712.04,271.589Z" transform="translate(-382.338 -14.531)" fill="#fafafa"/>
      <path id="Caminho_17098" data-name="Caminho 17098" d="M712.213,271.891v-.727a15.24,15.24,0,0,0-.3-2.149,27.371,27.371,0,0,0-3.009-7.753,104.528,104.528,0,0,0-7.373-11.109c-3.075-4.414-4.4-10.563-4.546-17.225v-.413h.4a3.686,3.686,0,0,0,4.1-2.728v-3.058a2.89,2.89,0,0,0-1.042-2.5,4.063,4.063,0,0,0-2.761-.909H672.7a4.056,4.056,0,0,0-3.141,1.108,2.809,2.809,0,0,0-.744,1.438,13.791,13.791,0,0,0,0,1.885v1.9a2.6,2.6,0,0,0,.711,1.488,3.982,3.982,0,0,0,3.306,1.157h.546v.562a42.9,42.9,0,0,1-.959,8.761,24,24,0,0,1-3.438,8.48c-3.471,4.959-7.307,10.018-9.423,15.952a19.51,19.51,0,0,0-.992,4.563V341.09a20.612,20.612,0,0,0,.182,4.1,7.687,7.687,0,0,0,1.9,3.405,19.022,19.022,0,0,0,6.612,4.5,44.932,44.932,0,0,0,15.49,3.191,53.794,53.794,0,0,0,15.043-1.372c4.711-1.19,9.324-3.141,12.266-6.612a8.412,8.412,0,0,0,1.653-2.843,10.9,10.9,0,0,0,.265-3.306v-19.06c.083-15.8.149-28.615.2-37.558,0-4.381.083-7.8.116-10.2s.1-3.571.1-3.571a27.126,27.126,0,0,1,.132,3.571c0,2.4,0,5.819.116,10.2,0,8.943.1,21.755.182,37.558v19.06a11.849,11.849,0,0,1-.3,3.521,8.971,8.971,0,0,1-1.769,3.174c-3.19,3.72-7.951,5.687-12.762,6.96a54.859,54.859,0,0,1-15.357,1.438,45.641,45.641,0,0,1-15.886-3.306,19.826,19.826,0,0,1-7.026-4.777,8.743,8.743,0,0,1-2.165-3.9,22.027,22.027,0,0,1-.232-4.364V270.337a20,20,0,0,1,1.058-4.844c2.215-6.2,6.133-11.258,9.588-16.2s4.1-11.043,4.265-16.614l.529.546a5.127,5.127,0,0,1-4.05-1.521,3.722,3.722,0,0,1-.975-2.066V227.6a17.64,17.64,0,0,1,0-2.05,4.008,4.008,0,0,1,1.025-1.984,5.057,5.057,0,0,1,3.885-1.405h24.978a4.959,4.959,0,0,1,3.306,1.124,3.791,3.791,0,0,1,1.339,3.157v3.174a4.448,4.448,0,0,1-4.959,3.306l.4-.4c0,6.612,1.339,12.613,4.265,16.878a102.789,102.789,0,0,1,7.257,11.258,26.34,26.34,0,0,1,2.843,7.918,14.416,14.416,0,0,1,.182,2.182C712.279,271.643,712.245,271.891,712.213,271.891Z" transform="translate(-382.51 -14.833)" fill="#e0e0e0"/>
      <path id="Caminho_17099" data-name="Caminho 17099" d="M689.61,228.805c0,.331-5.092.6-11.373.6s-11.357-.264-11.357-.6,5.092-.6,11.357-.6S689.61,228.475,689.61,228.805Z" transform="translate(-376.257 -10.877)" fill="#e0e0e0"/>
      <path id="Caminho_17100" data-name="Caminho 17100" d="M708.825,259.71c-2.3-1.488-5.323-.843-7.786.331s-4.794,2.81-7.472,3.306A14.422,14.422,0,0,1,684.441,261a57.064,57.064,0,0,0-8.464-4.612A16.53,16.53,0,0,0,659,260.322v61.71s3.306,10.514,27.26,8.861,21.97-12.183,21.97-12.183Z" transform="translate(-381.404 6.952)" fill="#ebebeb"/>
      <path id="Caminho_17101" data-name="Caminho 17101" d="M676.24,271.589a.654.654,0,0,0,0,.116v71.844c0,3.157-2.529,6.414-7.208,8.877a43.72,43.72,0,0,1-19.953,4.166h-.1c-17.01,0-27.161-6.728-27.161-13.043V271.7a.678.678,0,0,0,0-.116v-.132c0-7.026,5.191-14.365,10.381-21.606,3.5-4.844,4.331-11.8,4.5-15.9v-1.323h-.463a3.8,3.8,0,0,1-4.067-3.471v-3.042a3.8,3.8,0,0,1,4.067-3.488h25.557a4.1,4.1,0,0,1,3.753,2.116,3.2,3.2,0,0,1,.3,1.372v3.042a3.786,3.786,0,0,1-4.05,3.471h-.463v1.323c.165,4.1.992,11.059,4.48,15.9,5.207,7.241,10.365,14.58,10.4,21.606A.146.146,0,0,1,676.24,271.589Z" transform="translate(-405.686 -14.531)" fill="#fafafa"/>
      <path id="Caminho_17102" data-name="Caminho 17102" d="M676.456,271.9v-.727a17.068,17.068,0,0,0-.281-2.149,28.483,28.483,0,0,0-3.009-7.753,105.082,105.082,0,0,0-7.389-11.109c-3.075-4.414-4.4-10.563-4.546-17.225v-.413h.4a3.653,3.653,0,0,0,4.083-2.728v-3.058a2.89,2.89,0,0,0-1.041-2.5,4.033,4.033,0,0,0-2.761-.909H636.88a4.082,4.082,0,0,0-3.141,1.108,2.809,2.809,0,0,0-.744,1.438v3.786a2.84,2.84,0,0,0,.711,1.488,4.033,4.033,0,0,0,3.306,1.157h.546v.562a45.252,45.252,0,0,1-.959,8.761,24.594,24.594,0,0,1-3.438,8.48c-3.488,4.959-7.323,10.018-9.423,15.952a18.753,18.753,0,0,0-1.008,4.563c-.083,1.521,0,3.207,0,4.827v65.6a21.938,21.938,0,0,0,.182,4.1,7.847,7.847,0,0,0,1.9,3.405,19.168,19.168,0,0,0,6.612,4.5,44.934,44.934,0,0,0,15.49,3.191,53.919,53.919,0,0,0,15.06-1.372c4.695-1.19,9.307-3.141,12.266-6.612a8.08,8.08,0,0,0,1.653-2.843,10.311,10.311,0,0,0,.264-3.306V323.05c0-15.8.149-28.615.182-37.558,0-4.381,0-7.8.116-10.2s.1-3.571.1-3.571a23.614,23.614,0,0,1,.132,3.571c0,2.4,0,5.819.116,10.2,0,8.943.116,21.755.2,37.558v19.06a11.843,11.843,0,0,1-.281,3.521,9.5,9.5,0,0,1-1.769,3.174c-3.207,3.72-7.951,5.687-12.779,6.96a54.8,54.8,0,0,1-15.357,1.438,45.679,45.679,0,0,1-15.886-3.306,19.826,19.826,0,0,1-7.026-4.777,9.045,9.045,0,0,1-2.166-3.9,20.73,20.73,0,0,1-.215-4.364V270.316a19.983,19.983,0,0,1,1.058-4.844c2.232-6.2,6.133-11.258,9.6-16.2s4.1-11.043,4.248-16.614l.529.546a5.127,5.127,0,0,1-4.05-1.521,3.811,3.811,0,0,1-.975-2.066v-2.033a14.6,14.6,0,0,1,0-2.05,3.86,3.86,0,0,1,1.008-1.984,5.093,5.093,0,0,1,3.885-1.405h24.978a4.959,4.959,0,0,1,3.306,1.124,3.719,3.719,0,0,1,1.322,3.157V229.6a4.431,4.431,0,0,1-4.959,3.306l.38-.4c.1,6.612,1.356,12.613,4.265,16.878a102.552,102.552,0,0,1,7.257,11.258,26.929,26.929,0,0,1,2.86,7.918,14.174,14.174,0,0,1,.182,2.182C676.522,271.655,676.489,271.9,676.456,271.9Z" transform="translate(-405.902 -14.846)" fill="#e0e0e0"/>
      <path id="Caminho_17103" data-name="Caminho 17103" d="M653.83,228.805c0,.331-5.091.6-11.357.6s-11.373-.264-11.373-.6,5.092-.6,11.373-.6S653.83,228.475,653.83,228.805Z" transform="translate(-399.625 -10.877)" fill="#e0e0e0"/>
      <path id="Caminho_17104" data-name="Caminho 17104" d="M673.068,259.705c-2.3-1.488-5.323-.843-7.8.331s-4.794,2.81-7.472,3.306a14.487,14.487,0,0,1-9.125-2.347,55.255,55.255,0,0,0-8.464-4.612,16.531,16.531,0,0,0-16.994,4v61.71s3.405,10.514,27.26,8.861,21.986-12.183,21.986-12.183Z" transform="translate(-404.778 6.957)" fill="#ebebeb"/>
      <path id="Caminho_17105" data-name="Caminho 17105" d="M640.507,271.589a.338.338,0,0,0,0,.116v71.844c0,3.157-2.546,6.414-7.207,8.877a43.832,43.832,0,0,1-19.953,4.166h-.116c-16.994,0-27.161-6.728-27.161-13.043V271.7a.666.666,0,0,0,0-.116v-.132c0-7.026,5.207-14.365,10.4-21.606,3.488-4.844,4.331-11.8,4.48-15.9v-1.322h-.479a3.786,3.786,0,0,1-4.05-3.471v-3.042a3.785,3.785,0,0,1,4.05-3.488h25.524a4.1,4.1,0,0,1,3.753,2.116,3.206,3.206,0,0,1,.314,1.372v3.042a3.8,3.8,0,0,1-4.067,3.471h-.364v1.322c.165,4.1,1.008,11.059,4.5,15.9,5.191,7.241,10.348,14.58,10.4,21.606A.409.409,0,0,0,640.507,271.589Z" transform="translate(-429.035 -14.531)" fill="#fafafa"/>
      <path id="Caminho_17106" data-name="Caminho 17106" d="M640.766,271.813v-.727a15.248,15.248,0,0,0-.3-2.149,27.894,27.894,0,0,0-3.009-7.753,107.176,107.176,0,0,0-7.373-11.109c-3.091-4.414-4.414-10.563-4.546-17.225v-.413h.4a3.653,3.653,0,0,0,4.083-2.728V226.65a2.812,2.812,0,0,0-1.042-2.5,4,4,0,0,0-2.744-.909H601.241a4.1,4.1,0,0,0-3.141,1.108,2.906,2.906,0,0,0-.727,1.438,17.057,17.057,0,0,0,0,1.885v1.9a2.6,2.6,0,0,0,.711,1.488,3.982,3.982,0,0,0,3.306,1.157h.529v.562a42.892,42.892,0,0,1-.959,8.761,24.3,24.3,0,0,1-3.438,8.48c-3.472,4.959-7.307,10.018-9.423,15.952a17.98,17.98,0,0,0-.992,4.563c-.083,1.521,0,3.207,0,4.827v65.579a21.94,21.94,0,0,0,.182,4.1,8.021,8.021,0,0,0,1.9,3.405,19.246,19.246,0,0,0,6.612,4.5,44.759,44.759,0,0,0,15.473,3.19,53.852,53.852,0,0,0,15.06-1.372c4.695-1.19,9.307-3.141,12.266-6.612a8.415,8.415,0,0,0,1.653-2.843,10.9,10.9,0,0,0,.264-3.306v-19.06c0-15.8.149-28.615.2-37.559,0-4.381,0-7.8.1-10.2s.1-3.571.1-3.571a24.784,24.784,0,0,1,.149,3.571c0,2.4,0,5.819.116,10.2,0,8.943.1,21.755.182,37.559V342a11.322,11.322,0,0,1-.281,3.521,9.239,9.239,0,0,1-1.769,3.174c-3.191,3.719-7.951,5.687-12.778,6.96a54.71,54.71,0,0,1-15.523,1.719,45.852,45.852,0,0,1-15.9-3.306,20.052,20.052,0,0,1-7.026-4.777,9.045,9.045,0,0,1-2.166-3.9,21.9,21.9,0,0,1-.215-4.364V270.458a20.776,20.776,0,0,1,1.075-4.844c2.215-6.2,6.133-11.258,9.588-16.2s4.1-11.043,4.249-16.614l.545.546a5.17,5.17,0,0,1-4.067-1.521,3.8,3.8,0,0,1-.959-2.066v-2.033a17.639,17.639,0,0,1,0-2.05,3.885,3.885,0,0,1,1.025-1.984,4.959,4.959,0,0,1,3.868-1.405h24.995a4.959,4.959,0,0,1,3.306,1.124,3.718,3.718,0,0,1,1.322,3.157v3.174a4.431,4.431,0,0,1-4.959,3.306l.4-.4c0,6.612,1.339,12.613,4.265,16.878a104.957,104.957,0,0,1,7.257,11.258,26.82,26.82,0,0,1,2.843,7.918,14.2,14.2,0,0,1,.182,2.182A5.779,5.779,0,0,1,640.766,271.813Z" transform="translate(-429.294 -14.756)" fill="#e0e0e0"/>
      <path id="Caminho_17107" data-name="Caminho 17107" d="M618.06,228.805c0,.331-5.092.6-11.373.6s-11.357-.264-11.357-.6,5.075-.6,11.357-.6S618.06,228.475,618.06,228.805Z" transform="translate(-422.987 -10.877)" fill="#e0e0e0"/>
      <path id="Caminho_17108" data-name="Caminho 17108" d="M637.281,259.7c-2.3-1.488-5.323-.843-7.786.331s-4.794,2.81-7.472,3.306a14.423,14.423,0,0,1-9.125-2.347,56.244,56.244,0,0,0-8.48-4.612,16.531,16.531,0,0,0-16.977,4v61.71s3.306,10.514,27.243,8.861,21.986-12.183,21.986-12.183Z" transform="translate(-428.14 6.959)" fill="#ebebeb"/>
      <path id="Caminho_17109" data-name="Caminho 17109" d="M604.69,271.589a.666.666,0,0,0,0,.116v71.844c0,3.157-2.529,6.414-7.208,8.877a43.72,43.72,0,0,1-19.953,4.166h-.116c-16.994,0-27.144-6.728-27.144-13.043V271.7a.691.691,0,0,0,0-.116v-.132c0-7.026,5.191-14.365,10.381-21.606,3.5-4.844,4.331-11.8,4.5-15.9v-1.323H564.7a3.8,3.8,0,0,1-4.067-3.471v-3.042a3.8,3.8,0,0,1,4.067-3.488h25.524a4.13,4.13,0,0,1,3.753,2.116,3.2,3.2,0,0,1,.3,1.372v3.042a3.786,3.786,0,0,1-4.05,3.471h-.479v1.323c.149,4.1.992,11.059,4.48,15.9,5.207,7.241,10.365,14.58,10.4,21.606A.116.116,0,0,1,604.69,271.589Z" transform="translate(-452.416 -14.531)" fill="#fafafa"/>
      <path id="Caminho_17110" data-name="Caminho 17110" d="M604.909,271.806v-.727a17.73,17.73,0,0,0-.3-2.149,27.808,27.808,0,0,0-2.992-7.753,107.6,107.6,0,0,0-7.389-11.109c-3.075-4.414-4.4-10.563-4.546-17.225v-.413h.4a3.686,3.686,0,0,0,4.1-2.728v-3.058a2.89,2.89,0,0,0-1.041-2.5,4.064,4.064,0,0,0-2.761-.909H565.4a4.056,4.056,0,0,0-3.141,1.108,2.809,2.809,0,0,0-.744,1.438,17.057,17.057,0,0,0,0,1.885v1.9a2.722,2.722,0,0,0,.711,1.488,3.982,3.982,0,0,0,3.306,1.157h.546v.562a42.838,42.838,0,0,1-1.157,8.877,23.962,23.962,0,0,1-3.306,8.431c-3.471,4.959-7.307,10.018-9.423,15.952a19.516,19.516,0,0,0-.992,4.563V341a20.617,20.617,0,0,0,.182,4.1,7.688,7.688,0,0,0,1.9,3.405,19.023,19.023,0,0,0,6.612,4.5,44.933,44.933,0,0,0,15.49,3.191,53.735,53.735,0,0,0,15.043-1.372c4.711-1.19,9.324-3.141,12.283-6.612a8.648,8.648,0,0,0,1.653-2.843,10.8,10.8,0,0,0,.265-3.306V323c0-15.8.132-28.615.182-37.559,0-4.381.083-7.8.116-10.2s.1-3.571.1-3.571a27.126,27.126,0,0,1,.132,3.571c0,2.4,0,5.819.116,10.2,0,8.943.116,21.755.182,37.559v19.06a11.847,11.847,0,0,1-.3,3.521,9.189,9.189,0,0,1-1.752,3.174c-3.207,3.719-7.968,5.687-12.779,6.96a54.858,54.858,0,0,1-15.357,1.438,45.641,45.641,0,0,1-15.886-3.306,19.825,19.825,0,0,1-7.026-4.777,8.9,8.9,0,0,1-2.166-3.9,22.022,22.022,0,0,1-.231-4.364v-70.34a20,20,0,0,1,1.058-4.844c2.215-6.2,6.133-11.258,9.6-16.2s4.1-11.043,4.248-16.614l.529.546a5.127,5.127,0,0,1-4.05-1.521,3.721,3.721,0,0,1-.975-2.066v-2.033a14.6,14.6,0,0,1,0-2.05,3.873,3.873,0,0,1,1.008-1.984,5.058,5.058,0,0,1,3.885-1.405h24.978a4.959,4.959,0,0,1,3.306,1.124,3.741,3.741,0,0,1,1.339,3.157v3.174a4.448,4.448,0,0,1-4.959,3.306l.4-.4c.083,6.612,1.339,12.613,4.265,16.878A102.585,102.585,0,0,1,601.85,260.8a26.344,26.344,0,0,1,2.843,7.918,14.641,14.641,0,0,1,.2,2.182C604.975,271.558,604.942,271.806,604.909,271.806Z" transform="translate(-452.634 -14.749)" fill="#e0e0e0"/>
      <path id="Caminho_17111" data-name="Caminho 17111" d="M582.28,228.805c0,.331-5.092.6-11.357.6s-11.373-.264-11.373-.6,5.092-.6,11.373-.6S582.28,228.475,582.28,228.805Z" transform="translate(-446.355 -10.877)" fill="#e0e0e0"/>
      <path id="Caminho_17112" data-name="Caminho 17112" d="M601.5,259.705c-2.3-1.488-5.323-.843-7.786.331s-4.794,2.81-7.472,3.306a14.466,14.466,0,0,1-9.125-2.347,57.06,57.06,0,0,0-8.464-4.612,16.531,16.531,0,0,0-16.994,4v61.71s3.389,10.514,27.26,8.861,21.97-12.183,21.97-12.183Z" transform="translate(-451.508 6.957)" fill="#ebebeb"/>
      <path id="Caminho_17113" data-name="Caminho 17113" d="M568.9,271.589a.691.691,0,0,0,0,.116v71.844c0,3.157-2.529,6.414-7.208,8.877a43.738,43.738,0,0,1-19.92,4.166h-.1c-17.01,0-27.16-6.728-27.16-13.043V271.7a.678.678,0,0,0,0-.116v-.132c0-7.026,5.191-14.365,10.4-21.606,3.488-4.844,4.314-11.8,4.48-15.9v-1.322h-.463a3.785,3.785,0,0,1-4.05-3.471v-3.042a3.785,3.785,0,0,1,4.05-3.488h25.524a4.1,4.1,0,0,1,3.852,2.116,3.206,3.206,0,0,1,.314,1.372v3.042a3.8,3.8,0,0,1-4.067,3.471h-.463v1.322c.165,4.1.992,11.059,4.5,15.9,5.191,7.241,10.349,14.58,10.382,21.606A.2.2,0,0,0,568.9,271.589Z" transform="translate(-475.771 -14.531)" fill="#fafafa"/>
      <path id="Caminho_17114" data-name="Caminho 17114" d="M569.106,271.9a5.927,5.927,0,0,0,0-.727,17.069,17.069,0,0,0-.281-2.149,28.478,28.478,0,0,0-3.009-7.753,107.164,107.164,0,0,0-7.373-11.109c-3.091-4.414-4.414-10.563-4.562-17.225v-.413h.4a3.653,3.653,0,0,0,4.083-2.728v-3.058a2.812,2.812,0,0,0-1.041-2.5,4.034,4.034,0,0,0-2.761-.909H529.58a4.082,4.082,0,0,0-3.141,1.108,2.808,2.808,0,0,0-.744,1.438v3.786a2.839,2.839,0,0,0,.711,1.488,4.033,4.033,0,0,0,3.306,1.157h.546v.562a44.088,44.088,0,0,1-.959,8.761,24.593,24.593,0,0,1-3.438,8.48c-3.488,4.959-7.307,10.018-9.423,15.952a18.685,18.685,0,0,0-1.008,4.563v70.422a21.923,21.923,0,0,0,.182,4.1,8.022,8.022,0,0,0,1.9,3.405,19.168,19.168,0,0,0,6.612,4.5,44.932,44.932,0,0,0,15.49,3.191,53.858,53.858,0,0,0,15.06-1.372c4.695-1.19,9.307-3.141,12.266-6.612a8.413,8.413,0,0,0,1.653-2.843,10.9,10.9,0,0,0,.264-3.306v-19.06c.083-15.8.149-28.615.182-37.558,0-4.381.1-7.8.116-10.2s.1-3.571.1-3.571a24.784,24.784,0,0,1,.149,3.571c0,2.4,0,5.819.1,10.2,0,8.943.116,21.755.2,37.558v19.06a11.317,11.317,0,0,1-.281,3.521,9.5,9.5,0,0,1-1.769,3.174c-3.207,3.719-7.951,5.687-12.778,6.96a54.8,54.8,0,0,1-15.357,1.438,45.836,45.836,0,0,1-15.886-3.306,19.825,19.825,0,0,1-7.026-4.777,9.045,9.045,0,0,1-2.166-3.9,20.721,20.721,0,0,1-.215-4.364V270.318a20.681,20.681,0,0,1,1.058-4.844c2.232-6.2,6.133-11.258,9.6-16.2s4.1-11.043,4.248-16.614l.529.546a5.139,5.139,0,0,1-4.05-1.521,3.677,3.677,0,0,1-.959-2.066v-2.033a17.64,17.64,0,0,1,0-2.05,3.776,3.776,0,0,1,1.025-1.984,4.959,4.959,0,0,1,3.868-1.405h24.979a4.958,4.958,0,0,1,3.306,1.124,3.723,3.723,0,0,1,1.322,3.157V229.6a4.431,4.431,0,0,1-4.959,3.306l.38-.4c.1,6.612,1.356,12.613,4.282,16.878a102.432,102.432,0,0,1,7.241,11.258,26.934,26.934,0,0,1,2.86,7.918,14.182,14.182,0,0,1,.182,2.182C569.172,271.657,569.139,271.9,569.106,271.9Z" transform="translate(-475.98 -14.847)" fill="#e0e0e0"/>
      <path id="Caminho_17115" data-name="Caminho 17115" d="M546.5,228.805c0,.331-5.075.6-11.357.6s-11.373-.264-11.373-.6,5.092-.6,11.373-.6S546.5,228.475,546.5,228.805Z" transform="translate(-469.723 -10.877)" fill="#e0e0e0"/>
      <path id="Caminho_17116" data-name="Caminho 17116" d="M565.691,259.7c-2.3-1.488-5.323-.843-7.786.331s-4.794,2.81-7.472,3.306a14.493,14.493,0,0,1-9.142-2.347,55.253,55.253,0,0,0-8.464-4.612,16.531,16.531,0,0,0-16.977,4v61.71s3.389,10.514,27.243,8.861,21.986-12.183,21.986-12.183Z" transform="translate(-474.896 6.959)" fill="#ebebeb"/>
      <rect id="Retângulo_2434" data-name="Retângulo 2434" width="391.372" height="19.093" transform="translate(0 331.695)" fill="#e0e0e0"/>
      <path id="Caminho_17117" data-name="Caminho 17117" d="M712.04,391.475a.49.49,0,0,0,0,.1v71.844c0,3.157-2.529,6.414-7.208,8.877a43.56,43.56,0,0,1-19.953,4.166h-.149c-16.994,0-27.16-6.712-27.16-13.043V391.574a.49.49,0,0,0,0-.1v-.149c0-7.026,5.207-14.365,10.4-21.606,3.488-4.827,4.331-11.8,4.5-15.886v-1.323h-.479a3.8,3.8,0,0,1-4.05-3.488v-3.042a3.8,3.8,0,0,1,4.05-3.488h25.54a4.115,4.115,0,0,1,3.736,2.116,3.058,3.058,0,0,1,.314,1.372v3.042a3.8,3.8,0,0,1-4.05,3.488h-.479v1.323c.165,4.083,1.008,11.059,4.5,15.886,5.191,7.241,10.365,14.58,10.4,21.606C712.056,391.376,712.04,391.425,712.04,391.475Z" transform="translate(-382.338 63.756)" fill="#fafafa"/>
      <path id="Caminho_17118" data-name="Caminho 17118" d="M712.258,391.646V390.9a14.473,14.473,0,0,0-.3-2.132,27.258,27.258,0,0,0-3.009-7.753,106.253,106.253,0,0,0-7.472-11.059c-3.075-4.4-4.4-10.547-4.546-17.209v-.43h.4a3.686,3.686,0,0,0,4.1-2.728v-3.058a2.89,2.89,0,0,0-1.041-2.5,4.055,4.055,0,0,0-2.761-.893H672.65a4,4,0,0,0-3.141,1.124,2.69,2.69,0,0,0-.744,1.438,13.551,13.551,0,0,0,0,1.868v1.918a2.626,2.626,0,0,0,.711,1.471,3.982,3.982,0,0,0,3.306,1.157h.546v.579a43.132,43.132,0,0,1-.959,8.761,23.909,23.909,0,0,1-3.438,8.464c-3.471,4.959-7.307,10.018-9.423,15.952a19.506,19.506,0,0,0-.992,4.563v70.439a20.608,20.608,0,0,0,.182,4.1,7.688,7.688,0,0,0,1.9,3.405,18.794,18.794,0,0,0,6.612,4.5,44.615,44.615,0,0,0,15.49,3.19,53.786,53.786,0,0,0,15.043-1.356c4.711-1.207,9.323-3.141,12.266-6.612a8.412,8.412,0,0,0,1.653-2.843,10.784,10.784,0,0,0,.265-3.223v-19.06c.083-15.8.149-28.615.2-37.542,0-4.4.083-7.819.116-10.216s.1-3.554.1-3.554a26.315,26.315,0,0,1,.132,3.554c0,2.4,0,5.819.116,10.216,0,8.927.1,21.738.182,37.542v19.06a11.737,11.737,0,0,1-.3,3.5,9.058,9.058,0,0,1-1.769,3.19c-3.19,3.719-7.951,5.67-12.762,6.943a54.924,54.924,0,0,1-15.357,1.438,45.68,45.68,0,0,1-15.886-3.306,19.827,19.827,0,0,1-7.042-4.662,8.752,8.752,0,0,1-2.166-3.885,22.188,22.188,0,0,1-.231-4.381V390.34a20,20,0,0,1,1.058-4.844c2.215-6.183,6.133-11.258,9.588-16.2s4.1-11.043,4.265-16.531l.529.529a5.058,5.058,0,0,1-4.05-1.521,3.722,3.722,0,0,1-.975-2.066v-2.033a17.667,17.667,0,0,1,0-2.05,3.9,3.9,0,0,1,1.025-1.967,5.079,5.079,0,0,1,3.885-1.422h24.929a4.958,4.958,0,0,1,3.306,1.124,3.791,3.791,0,0,1,1.339,3.157v3.174A4.447,4.447,0,0,1,697.2,353l.4-.38c0,6.53,1.339,12.6,4.265,16.862a101.1,101.1,0,0,1,7.257,11.274,26.27,26.27,0,0,1,2.843,7.9,14.2,14.2,0,0,1,.182,2.182C712.324,391.448,712.291,391.646,712.258,391.646Z" transform="translate(-382.556 63.585)" fill="#e0e0e0"/>
      <path id="Caminho_17119" data-name="Caminho 17119" d="M689.61,348.675c0,.331-5.092.6-11.373.6s-11.357-.264-11.357-.6,5.092-.6,11.357-.6S689.61,348.345,689.61,348.675Z" transform="translate(-376.257 67.411)" fill="#e0e0e0"/>
      <path id="Caminho_17120" data-name="Caminho 17120" d="M708.825,379.574c-2.3-1.488-5.323-.827-7.786.331s-4.794,2.81-7.472,3.306a14.317,14.317,0,0,1-9.125-2.331,57.067,57.067,0,0,0-8.464-4.612A16.53,16.53,0,0,0,659,380.2V441.9s3.306,10.53,27.26,8.861,21.97-12.167,21.97-12.167Z" transform="translate(-381.404 85.246)" fill="#ebebeb"/>
      <path id="Caminho_17121" data-name="Caminho 17121" d="M676.24,391.475a.481.481,0,0,0,0,.1v71.844c0,3.157-2.529,6.414-7.208,8.877a43.5,43.5,0,0,1-19.953,4.166h-.1c-17.01,0-27.161-6.711-27.161-13.043V391.575a.5.5,0,0,0,0-.1v-.149c0-7.026,5.191-14.365,10.381-21.606,3.5-4.827,4.331-11.8,4.5-15.886v-1.323h-.463a3.818,3.818,0,0,1-4.067-3.488v-3.042a3.8,3.8,0,0,1,4.067-3.488h25.557a4.133,4.133,0,0,1,3.753,2.116,3.308,3.308,0,0,1,.3,1.372v3.042a3.8,3.8,0,0,1-4.05,3.488h-.463v1.323c.165,4.083.992,11.059,4.48,15.886,5.207,7.241,10.365,14.58,10.4,21.606C676.257,391.376,676.24,391.426,676.24,391.475Z" transform="translate(-405.686 63.756)" fill="#fafafa"/>
      <path id="Caminho_17122" data-name="Caminho 17122" d="M676.455,391.665v-.744a16.86,16.86,0,0,0-.281-2.133,28.231,28.231,0,0,0-3.009-7.753,106.886,106.886,0,0,0-7.389-11.125c-3.075-4.4-4.4-10.547-4.546-17.209v-.43h.4a3.653,3.653,0,0,0,4.083-2.728v-3.058a2.889,2.889,0,0,0-1.041-2.5,4.036,4.036,0,0,0-2.761-.893H636.88a4.036,4.036,0,0,0-3.141,1.124,2.689,2.689,0,0,0-.744,1.438v3.786a2.865,2.865,0,0,0,.711,1.471,4.033,4.033,0,0,0,3.306,1.157h.546v.579a45.656,45.656,0,0,1-.959,8.761,24.5,24.5,0,0,1-3.438,8.464c-3.488,4.959-7.323,10.018-9.423,15.952a18.758,18.758,0,0,0-1.008,4.563c-.083,1.521,0,3.207,0,4.827V460.8a21.79,21.79,0,0,0,.182,4.1,7.848,7.848,0,0,0,1.9,3.405,18.951,18.951,0,0,0,6.612,4.5,44.648,44.648,0,0,0,15.49,3.19,53.905,53.905,0,0,0,15.06-1.356c4.695-1.207,9.307-3.141,12.266-6.612a8.08,8.08,0,0,0,1.653-2.843,10.272,10.272,0,0,0,.264-3.223v-19.06c0-15.8.149-28.615.182-37.542,0-4.4,0-7.819.116-10.216s.1-3.554.1-3.554a23.388,23.388,0,0,1,.132,3.554c0,2.4,0,5.819.116,10.216,0,8.927.116,21.738.2,37.542v19.06a11.733,11.733,0,0,1-.281,3.5,9.588,9.588,0,0,1-1.769,3.191c-3.207,3.719-7.951,5.67-12.779,6.943a54.86,54.86,0,0,1-15.357,1.438,45.677,45.677,0,0,1-15.886-3.306,19.824,19.824,0,0,1-7.026-4.777,9.118,9.118,0,0,1-2.166-3.885,20.994,20.994,0,0,1-.215-4.381V390.31a20,20,0,0,1,1.058-4.844c2.232-6.183,6.133-11.258,9.6-16.2s4.1-11.043,4.248-16.531l.529.529a5.058,5.058,0,0,1-4.05-1.521,3.812,3.812,0,0,1-.975-2.066v-2.033a14.616,14.616,0,0,1,0-2.05,3.749,3.749,0,0,1,1.008-1.967,5.106,5.106,0,0,1,3.885-1.422h24.945a4.959,4.959,0,0,1,3.306,1.124,3.723,3.723,0,0,1,1.322,3.157v3.174a4.431,4.431,0,0,1-4.959,3.306l.38-.38c.1,6.53,1.355,12.6,4.265,16.862a101.1,101.1,0,0,1,7.257,11.274,26.892,26.892,0,0,1,2.86,7.9,14.2,14.2,0,0,1,.182,2.182C676.522,391.467,676.489,391.665,676.455,391.665Z" transform="translate(-405.901 63.566)" fill="#e0e0e0"/>
      <path id="Caminho_17123" data-name="Caminho 17123" d="M653.83,348.675c0,.331-5.091.6-11.357.6s-11.373-.264-11.373-.6,5.092-.6,11.373-.6S653.83,348.345,653.83,348.675Z" transform="translate(-399.625 67.411)" fill="#e0e0e0"/>
      <path id="Caminho_17124" data-name="Caminho 17124" d="M673.068,379.569c-2.3-1.488-5.323-.827-7.8.331s-4.794,2.81-7.472,3.306a14.362,14.362,0,0,1-9.125-2.331,55.255,55.255,0,0,0-8.464-4.612,16.531,16.531,0,0,0-16.994,4v61.694s3.405,10.481,27.26,8.827,21.986-12.167,21.986-12.167Z" transform="translate(-404.778 85.251)" fill="#ebebeb"/>
      <path id="Caminho_17125" data-name="Caminho 17125" d="M640.507,391.475v71.943c0,3.157-2.546,6.414-7.207,8.877a43.608,43.608,0,0,1-19.953,4.166h-.116c-16.994,0-27.161-6.712-27.161-13.043V391.575a.49.49,0,0,0,0-.1v-.149c0-7.026,5.207-14.365,10.4-21.606,3.488-4.827,4.331-11.8,4.48-15.886v-1.323h-.479a3.8,3.8,0,0,1-4.05-3.488v-3.042a3.785,3.785,0,0,1,4.05-3.488h25.524a4.133,4.133,0,0,1,3.753,2.116,3.31,3.31,0,0,1,.314,1.372v3.042a3.819,3.819,0,0,1-4.067,3.488h-.364v1.323c.165,4.083,1.008,11.059,4.5,15.886,5.191,7.241,10.348,14.58,10.4,21.606A.456.456,0,0,0,640.507,391.475Z" transform="translate(-429.035 63.756)" fill="#fafafa"/>
      <path id="Caminho_17126" data-name="Caminho 17126" d="M640.694,391.666v-.744a14.476,14.476,0,0,0-.3-2.133,27.705,27.705,0,0,0-3.009-7.753,109.028,109.028,0,0,0-7.373-11.125c-3.091-4.4-4.414-10.547-4.546-17.209v-.43h.4a3.653,3.653,0,0,0,4.083-2.728v-3.058a2.81,2.81,0,0,0-1.042-2.5,3.982,3.982,0,0,0-2.744-.893H601.169a4.048,4.048,0,0,0-3.141,1.124,2.778,2.778,0,0,0-.727,1.438,16.789,16.789,0,0,0,0,1.868v1.918a2.626,2.626,0,0,0,.711,1.471,3.983,3.983,0,0,0,3.306,1.157h.529v.579a43.125,43.125,0,0,1-.959,8.761,24.209,24.209,0,0,1-3.438,8.464c-3.472,4.959-7.307,10.018-9.423,15.952a17.983,17.983,0,0,0-.992,4.563c-.083,1.521,0,3.207,0,4.827V460.8a21.8,21.8,0,0,0,.182,4.1,8.021,8.021,0,0,0,1.9,3.405,19.01,19.01,0,0,0,6.612,4.5,44.362,44.362,0,0,0,15.473,3.19,53.9,53.9,0,0,0,15.06-1.356c4.695-1.207,9.307-3.141,12.266-6.612a8.417,8.417,0,0,0,1.653-2.843,10.788,10.788,0,0,0,.264-3.224V442.9c0-15.8.149-28.615.2-37.542,0-4.4,0-7.819.1-10.216s.1-3.554.1-3.554a24.545,24.545,0,0,1,.149,3.554c0,2.4,0,5.819.116,10.216,0,8.927.1,21.738.182,37.542v19.06a11.217,11.217,0,0,1-.281,3.5,9.328,9.328,0,0,1-1.769,3.19c-3.19,3.719-7.951,5.67-12.778,6.943a54.745,54.745,0,0,1-15.341,1.438,45.854,45.854,0,0,1-15.9-3.306,20.054,20.054,0,0,1-7.026-4.777,9.122,9.122,0,0,1-2.166-3.885,22.08,22.08,0,0,1-.215-4.381V390.31a20.789,20.789,0,0,1,1.075-4.844c2.215-6.183,6.133-11.258,9.588-16.2s4.1-11.043,4.249-16.531l.546.529a5.124,5.124,0,0,1-4.067-1.521,3.8,3.8,0,0,1-.959-2.066v-2.033a17.667,17.667,0,0,1,0-2.05,3.774,3.774,0,0,1,1.025-1.967,5.04,5.04,0,0,1,3.868-1.422h24.945a4.959,4.959,0,0,1,3.306,1.124,3.723,3.723,0,0,1,1.323,3.157v3.174a4.431,4.431,0,0,1-4.959,3.306l.4-.38c0,6.53,1.339,12.6,4.265,16.862a103.426,103.426,0,0,1,7.257,11.274,26.718,26.718,0,0,1,2.843,7.9,14.215,14.215,0,0,1,.182,2.182Z" transform="translate(-429.222 63.566)" fill="#e0e0e0"/>
      <path id="Caminho_17127" data-name="Caminho 17127" d="M618.06,348.675c0,.331-5.092.6-11.373.6s-11.357-.264-11.357-.6,5.075-.6,11.357-.6S618.06,348.345,618.06,348.675Z" transform="translate(-422.987 67.411)" fill="#e0e0e0"/>
      <path id="Caminho_17128" data-name="Caminho 17128" d="M637.281,379.573c-2.3-1.488-5.323-.827-7.786.331s-4.794,2.81-7.472,3.306a14.318,14.318,0,0,1-9.125-2.331,56.244,56.244,0,0,0-8.48-4.612,16.431,16.431,0,0,0-16.977,4v61.694s3.306,10.53,27.243,8.861,21.986-12.167,21.986-12.167Z" transform="translate(-428.14 85.247)" fill="#ebebeb"/>
      <path id="Caminho_17129" data-name="Caminho 17129" d="M604.69,391.475a.49.49,0,0,0,0,.1v71.844c0,3.157-2.529,6.414-7.208,8.877a43.5,43.5,0,0,1-19.953,4.166h-.116c-16.994,0-27.144-6.711-27.144-13.043V391.575a.508.508,0,0,0,0-.1v-.149c0-7.026,5.191-14.365,10.381-21.606,3.5-4.827,4.331-11.8,4.5-15.886v-1.323H564.7a3.819,3.819,0,0,1-4.067-3.488v-3.042a3.8,3.8,0,0,1,4.067-3.488h25.524a4.151,4.151,0,0,1,3.753,2.116,3.308,3.308,0,0,1,.3,1.372v3.042a3.8,3.8,0,0,1-4.05,3.488h-.479v1.323c.149,4.083.992,11.059,4.48,15.886,5.207,7.241,10.365,14.58,10.4,21.606C604.707,391.376,604.69,391.426,604.69,391.475Z" transform="translate(-452.416 63.756)" fill="#fafafa"/>
      <path id="Caminho_17130" data-name="Caminho 17130" d="M604.909,391.666v-.744a17.837,17.837,0,0,0-.3-2.133,27.569,27.569,0,0,0-2.992-7.753,109.422,109.422,0,0,0-7.389-11.125c-3.075-4.4-4.4-10.547-4.546-17.209v-.43h.4a3.686,3.686,0,0,0,4.1-2.728v-3.058a2.89,2.89,0,0,0-1.041-2.5,4.055,4.055,0,0,0-2.761-.893H565.4a4,4,0,0,0-3.141,1.124,2.688,2.688,0,0,0-.744,1.438,16.76,16.76,0,0,0,0,1.868v1.918a2.725,2.725,0,0,0,.711,1.471,3.982,3.982,0,0,0,3.306,1.157h.546v.579a43.125,43.125,0,0,1-.959,8.761,23.867,23.867,0,0,1-3.5,8.563c-3.471,4.959-7.307,10.018-9.423,15.952a19.516,19.516,0,0,0-.992,4.563V460.9a20.617,20.617,0,0,0,.182,4.1,7.688,7.688,0,0,0,1.9,3.405,18.794,18.794,0,0,0,6.612,4.5,44.623,44.623,0,0,0,15.49,3.19,53.788,53.788,0,0,0,15.043-1.356c4.711-1.207,9.324-3.141,12.283-6.612a8.648,8.648,0,0,0,1.653-2.843,10.789,10.789,0,0,0,.265-3.224v-19.06c0-15.8.132-28.615.182-37.542,0-4.4.083-7.819.116-10.216s.1-3.554.1-3.554a26.315,26.315,0,0,1,.132,3.554c0,2.4,0,5.819.116,10.216,0,8.927.116,21.738.182,37.542v19.06a11.738,11.738,0,0,1-.3,3.5,9.247,9.247,0,0,1-1.752,3.19c-3.207,3.72-7.968,5.67-12.779,6.943a54.859,54.859,0,0,1-15.357,1.438,45.678,45.678,0,0,1-15.886-3.306,19.827,19.827,0,0,1-7.026-4.778,8.917,8.917,0,0,1-2.166-3.885,22.187,22.187,0,0,1-.231-4.381V390.31a20,20,0,0,1,1.058-4.844c2.215-6.183,6.133-11.258,9.6-16.2s4.1-11.043,4.248-16.531l.529.529a5.058,5.058,0,0,1-4.05-1.521,3.721,3.721,0,0,1-.975-2.066v-2.033a14.6,14.6,0,0,1,0-2.05,3.748,3.748,0,0,1,1.008-1.967,5.079,5.079,0,0,1,3.885-1.422H590.2a4.958,4.958,0,0,1,3.306,1.124,3.736,3.736,0,0,1,1.339,3.157v3.174a4.448,4.448,0,0,1-4.959,3.306l.4-.38c.083,6.53,1.339,12.6,4.265,16.862a101.091,101.091,0,0,1,7.257,11.274,26.266,26.266,0,0,1,2.843,7.9,14.634,14.634,0,0,1,.2,2.182C604.975,391.467,604.942,391.666,604.909,391.666Z" transform="translate(-452.634 63.566)" fill="#e0e0e0"/>
      <path id="Caminho_17131" data-name="Caminho 17131" d="M582.28,348.675c0,.331-5.092.6-11.357.6s-11.373-.264-11.373-.6,5.092-.6,11.373-.6S582.28,348.345,582.28,348.675Z" transform="translate(-446.355 67.411)" fill="#e0e0e0"/>
      <path id="Caminho_17132" data-name="Caminho 17132" d="M601.5,379.569c-2.3-1.488-5.323-.827-7.786.331s-4.794,2.81-7.472,3.306a14.351,14.351,0,0,1-9.125-2.331,57.058,57.058,0,0,0-8.464-4.612,16.531,16.531,0,0,0-16.994,4v61.694s3.389,10.53,27.26,8.861,21.97-12.167,21.97-12.167Z" transform="translate(-451.508 85.251)" fill="#ebebeb"/>
      <path id="Caminho_17133" data-name="Caminho 17133" d="M568.9,391.475a.508.508,0,0,0,0,.1v71.844c0,3.157-2.529,6.414-7.208,8.877a43.515,43.515,0,0,1-19.92,4.166h-.1c-17.01,0-27.16-6.712-27.16-13.043V391.575a.5.5,0,0,0,0-.1v-.149c0-7.026,5.191-14.365,10.4-21.606,3.488-4.827,4.314-11.8,4.48-15.886v-1.323h-.463a3.8,3.8,0,0,1-4.05-3.488v-3.042a3.785,3.785,0,0,1,4.05-3.488h25.524a4.133,4.133,0,0,1,3.753,2.116,3.312,3.312,0,0,1,.314,1.372v3.042a3.819,3.819,0,0,1-4.067,3.488h-.463v1.323c.165,4.083.992,11.059,4.5,15.886,5.191,7.241,10.348,14.58,10.382,21.606C568.914,391.376,568.9,391.426,568.9,391.475Z" transform="translate(-475.771 63.756)" fill="#fafafa"/>
      <path id="Caminho_17134" data-name="Caminho 17134" d="M569.106,391.666a6.2,6.2,0,0,0,0-.744,16.85,16.85,0,0,0-.281-2.133,28.224,28.224,0,0,0-3.009-7.753,109.018,109.018,0,0,0-7.373-11.125c-3.091-4.4-4.414-10.547-4.562-17.209v-.43h.4a3.653,3.653,0,0,0,4.083-2.728v-3.058a2.81,2.81,0,0,0-1.041-2.5,4.036,4.036,0,0,0-2.761-.893H529.58a4.034,4.034,0,0,0-3.141,1.124,2.689,2.689,0,0,0-.744,1.438v3.786a2.864,2.864,0,0,0,.711,1.471,4.033,4.033,0,0,0,3.306,1.157h.546v.579a44.343,44.343,0,0,1-.959,8.761,24.529,24.529,0,0,1-3.438,8.464c-3.488,4.959-7.307,10.018-9.423,15.952a18.684,18.684,0,0,0-1.008,4.563V460.8a21.79,21.79,0,0,0,.182,4.1,8.023,8.023,0,0,0,1.9,3.405,18.95,18.95,0,0,0,6.612,4.5,44.649,44.649,0,0,0,15.49,3.19,53.9,53.9,0,0,0,15.06-1.356c4.695-1.207,9.307-3.141,12.266-6.612a8.414,8.414,0,0,0,1.653-2.843,10.79,10.79,0,0,0,.264-3.224V442.9c.083-15.8.149-28.615.182-37.542,0-4.4.1-7.819.116-10.216s.1-3.554.1-3.554a24.545,24.545,0,0,1,.149,3.554c0,2.4,0,5.819.1,10.216,0,8.927.116,21.738.2,37.542v19.06a11.208,11.208,0,0,1-.281,3.5,9.587,9.587,0,0,1-1.769,3.19c-3.207,3.719-7.951,5.67-12.778,6.943a54.86,54.86,0,0,1-15.357,1.438,45.835,45.835,0,0,1-15.886-3.306,19.826,19.826,0,0,1-7.026-4.777,9.119,9.119,0,0,1-2.166-3.885,20.879,20.879,0,0,1-.215-4.381V390.31a20.682,20.682,0,0,1,1.058-4.844c2.232-6.183,6.133-11.258,9.6-16.2s4.1-11.043,4.248-16.531l.529.529a5.074,5.074,0,0,1-4.05-1.521,3.677,3.677,0,0,1-.959-2.066v-2.033a17.64,17.64,0,0,1,0-2.05,3.653,3.653,0,0,1,1.025-1.967,5.04,5.04,0,0,1,3.868-1.422h24.945a4.959,4.959,0,0,1,3.306,1.124,3.723,3.723,0,0,1,1.322,3.157v3.174a4.431,4.431,0,0,1-4.959,3.306l.38-.38c.1,6.53,1.356,12.6,4.282,16.862a100.746,100.746,0,0,1,7.241,11.274,26.9,26.9,0,0,1,2.86,7.9,14.4,14.4,0,0,1,.182,2.182C569.172,391.467,569.139,391.666,569.106,391.666Z" transform="translate(-475.98 63.566)" fill="#e0e0e0"/>
      <path id="Caminho_17135" data-name="Caminho 17135" d="M546.5,348.675c0,.331-5.075.6-11.357.6s-11.373-.264-11.373-.6,5.092-.6,11.373-.6S546.5,348.345,546.5,348.675Z" transform="translate(-469.723 67.411)" fill="#e0e0e0"/>
      <path id="Caminho_17136" data-name="Caminho 17136" d="M565.691,379.574c-2.3-1.488-5.323-.827-7.786.331s-4.794,2.81-7.472,3.306a14.386,14.386,0,0,1-9.142-2.331,55.255,55.255,0,0,0-8.464-4.612,16.417,16.417,0,0,0-16.977,4v61.694s3.389,10.53,27.243,8.861,21.986-12.167,21.986-12.167Z" transform="translate(-474.896 85.246)" fill="#ebebeb"/>
      <rect id="Retângulo_2435" data-name="Retângulo 2435" width="391.372" height="19.093" transform="translate(0 529.869)" fill="#e0e0e0"/>
    </g>
  </g>
</svg>
