<svg id="Base" xmlns="http://www.w3.org/2000/svg" viewBox="0 0 1142.04 1109.04"><defs><style>.cls-1{fill:#59316d;}.cls-2{fill:#fff;}</style></defs><g id="Grupo_3023" data-name="Grupo 3023"><rect id="Retângulo_1702" data-name="Retângulo 1702" class="cls-1" x="449.5" y="51.27" width="487.78" height="985.14" rx="60.67"/></g><path class="cls-2" d="M917.2,125.75c.17-28.32-23-51.42-51.7-51.6H799.42a16.29,16.29,0,0,0-16.11,16.47h0v11.8a16.25,16.25,0,0,1-16.06,16.45h0l-128.81-.57a16.31,16.31,0,0,1-16-16.62V89.89a16.33,16.33,0,0,0-16-16.62H583.17L525.31,73c-28.64-.17-52,22.53-52.32,50.76l-3.41,822.29a52.64,52.64,0,0,0,.36,6.19v19.45a39,39,0,0,0,39,39H875.14a39,39,0,0,0,39-39V933.77h-.29Z"/></svg>