<?xml version="1.0" encoding="utf-8"?>
<!-- Generator: Adobe Illustrator 25.3.1, SVG Export Plug-In . SVG Version: 6.00 Build 0)  -->
<svg version="1.1" id="celular_icone_1_" xmlns="http://www.w3.org/2000/svg" xmlns:xlink="http://www.w3.org/1999/xlink" x="0px"
	 y="0px" viewBox="0 0 324.8 324.8" style="enable-background:new 0 0 324.8 324.8;" xml:space="preserve">
<style type="text/css">
	.st0{fill:#59316D;}
	.st1{fill:#FFFFFF;}
</style>
<g id="celular_icone">
	<g id="Componente_80_1">
		<g id="Componente_79_1">
			<g id="Retângulo_1742-2">
				<path class="st0" d="M70.8,79.4H254c22.6,0,41,18.3,41,41V574c0,22.6-18.3,41-41,41H70.8c-22.6,0-41-18.3-41-41V120.4
					C29.8,97.8,48.1,79.4,70.8,79.4z"/>
			</g>
			<g id="Grupo_3370">
				<g id="Caminho_9501">
					<path class="st1" d="M256.6,91.9h-36c-4.9,0.1-8.9,4.1-8.8,9.1c0,0,0,0,0,0l0,0v6.5c0.1,4.9-3.8,9-8.8,9.1c0,0,0,0,0,0l0,0
						l-70.2-0.3c-4.9-0.1-8.8-4.2-8.7-9.2v-6.5c0.1-4.9-3.8-9-8.7-9.2h-12.7l-31.5-0.2c-15.6-0.1-28.4,12.4-28.5,28l-1.9,452.9
						c0,15.6,12.6,28.3,28.2,28.3c0,0,0.1,0,0.1,0l0,0l185.4,0.8c15.6,0.1,28.4-12.5,28.5-28.1c0,0,0,0,0,0l0,0l1.9-452.9
						C284.9,104.7,272.2,91.9,256.6,91.9C256.6,91.9,256.6,91.9,256.6,91.9z"/>
				</g>
			</g>
		</g>
	</g>
</g>
</svg>
