<svg xmlns="http://www.w3.org/2000/svg" viewBox="0 0 121.51 121.51"><defs><style>.cls-1{fill:#ffdea9;}.cls-2{fill:none;stroke:#59316d;stroke-miterlimit:10;}.cls-3{fill:#fff;}.cls-4{fill:#59316d;}.cls-5{fill:#eceff1;}.cls-6{fill:#d6e3f4;}</style></defs><g id="Layer_2" data-name="Layer 2"><g id="Layer_2-2" data-name="Layer 2"><g id="Group_11472" data-name="Group 11472"><g id="Group_9650" data-name="Group 9650"><g id="Group_9647" data-name="Group 9647"><g id="Group_3660" data-name="Group 3660"><circle id="Ellipse_3" data-name="Ellipse 3" class="cls-1" cx="62" cy="63.22" r="50.73"/></g></g><g id="Group_9648" data-name="Group 9648"><path id="Path_58" data-name="Path 58" class="cls-2" d="M60.76.72l8.16,8.5L79.31,3.66l5.13,10.6L96,12.19l1.61,11.67,11.67,1.61-2.07,11.6,10.6,5.14L112.29,52.6l8.5,8.16-8.5,8.16,5.56,10.39-10.6,5.14,2.07,11.6L97.65,97.66,96,109.33l-11.6-2.08-5.14,10.6-10.38-5.56-8.17,8.5-8.16-8.5L42.2,117.85l-5.13-10.6-11.6,2.08L23.86,97.66,12.19,96.05l2.07-11.6L3.66,79.31,9.22,68.92.72,60.76l8.5-8.16L3.66,42.21l10.6-5.14-2.07-11.6,11.67-1.61,1.61-11.67,11.6,2.07,5.14-10.6L52.6,9.22Z"/></g></g></g><g id="Group_10614" data-name="Group 10614"><g id="Group_10399" data-name="Group 10399"><path id="Path_18069" data-name="Path 18069" class="cls-3" d="M30,55,59.22,32.82,90.58,55V79.57H30Z"/></g><g id="Group_10400" data-name="Group 10400"><path id="Path_18070" data-name="Path 18070" class="cls-1" d="M32.67,55,61.94,32.82,93.3,55V79.57H32.67Z"/></g><g id="Group_10401" data-name="Group 10401"><path id="Path_18071" data-name="Path 18071" class="cls-4" d="M90.58,80.37H30a.8.8,0,0,1-.79-.8h0V55a.83.83,0,0,1,.31-.64L58.74,32.18a.81.81,0,0,1,.94,0L91,54.35a.79.79,0,0,1,.33.65V79.57a.8.8,0,0,1-.79.8ZM30.75,78.78h59V55.41L59.24,33.8,30.75,55.39Z"/></g><g id="Group_10403" data-name="Group 10403"><path id="Path_18073" data-name="Path 18073" class="cls-3" d="M79.85,32.82H40.68a4.28,4.28,0,0,0-4.28,4.27v38H84.13v-38a4.28,4.28,0,0,0-4.28-4.27Z"/></g><g id="Group_10404" data-name="Group 10404"><path id="Path_18074" data-name="Path 18074" class="cls-5" d="M82.57,32.82H43.4a4.28,4.28,0,0,0-4.28,4.27v38H86.85v-38a4.28,4.28,0,0,0-4.28-4.27Z"/></g><g id="Group_10405" data-name="Group 10405"><path id="Path_18075" data-name="Path 18075" class="cls-4" d="M84.12,75.9H36.4a.8.8,0,0,1-.79-.8h0v-38A5.07,5.07,0,0,1,40.68,32H79.85a5.08,5.08,0,0,1,5.07,5.07v38A.8.8,0,0,1,84.12,75.9ZM37.2,74.31H83.33V37.09a3.48,3.48,0,0,0-3.48-3.48H40.68a3.48,3.48,0,0,0-3.48,3.48Z"/></g><g id="Group_10407" data-name="Group 10407"><g id="Group_10406" data-name="Group 10406"><path id="Path_18076" data-name="Path 18076" class="cls-4" d="M67.13,40a8.4,8.4,0,0,1,3.46,3.35,10,10,0,0,1,1.2,4.93,14.84,14.84,0,0,1-.09,1.63,8.55,8.55,0,0,1-1.86,4.71,5,5,0,0,1-4,1.69A4.38,4.38,0,0,1,62.52,55q-.09-.12-.21,0a4,4,0,0,1-1.5.93,5.6,5.6,0,0,1-1.81.31,4.28,4.28,0,0,1-2.7-.85A3.55,3.55,0,0,1,55,53.2a5.64,5.64,0,0,1-.1-1.08c0-.53.06-1,.13-1.58A11.93,11.93,0,0,1,55.63,48a4.61,4.61,0,0,1,1.72-2.33A4.44,4.44,0,0,1,60,44.83a3,3,0,0,1,2.35.93c0,.06.08.08.12.07s.06,0,.06-.1l.06-.5a.35.35,0,0,1,.36-.34h2.21c.24,0,.36.13.34.4L64.68,51c0,.2,0,.41,0,.61A2.42,2.42,0,0,0,65,53a1.19,1.19,0,0,0,1.06.53c1.26,0,2.06-1.17,2.41-3.52a10.81,10.81,0,0,0,.13-1.7,6.5,6.5,0,0,0-1.89-5,7.23,7.23,0,0,0-5.06-1.73A9.87,9.87,0,0,0,57,42.66a8.85,8.85,0,0,0-3.4,3.14,10.8,10.8,0,0,0-1.59,4.83A9.87,9.87,0,0,0,52,52a6.86,6.86,0,0,0,1.88,5.13A7,7,0,0,0,59,58.94a10,10,0,0,0,2.72-.34,7,7,0,0,0,2-.86.31.31,0,0,1,.21-.07.28.28,0,0,1,.28.16l1.23,1.67a.43.43,0,0,1,.1.24.27.27,0,0,1-.16.25,8.69,8.69,0,0,1-3,1.37,13.57,13.57,0,0,1-3.75.51,10.41,10.41,0,0,1-5.07-1.2,8.7,8.7,0,0,1-3.49-3.47,10.74,10.74,0,0,1-1.26-5.3A13.43,13.43,0,0,1,49,50.35a13,13,0,0,1,2.21-6.07,12.73,12.73,0,0,1,4.65-4.09,13,13,0,0,1,6-1.45A10.93,10.93,0,0,1,67.13,40ZM60.55,53.4a2.52,2.52,0,0,0,.74-.94,5.77,5.77,0,0,0,.49-2,9.66,9.66,0,0,0,.07-1.2,5.17,5.17,0,0,0,0-.68,1.38,1.38,0,0,0-.47-.94,1.59,1.59,0,0,0-1.07-.35,1.91,1.91,0,0,0-1.13.35,2.4,2.4,0,0,0-.79.94,6.55,6.55,0,0,0-.49,2,7.3,7.3,0,0,0-.09,1.14,3.49,3.49,0,0,0,.06.65,1.55,1.55,0,0,0,.54,1,1.87,1.87,0,0,0,2.18,0Z"/></g></g><g id="Group_10408" data-name="Group 10408"><path id="Path_18077" data-name="Path 18077" class="cls-3" d="M63.88,71.84l26.7,16.85V55Z"/></g><g id="Group_10409" data-name="Group 10409"><path id="Path_18078" data-name="Path 18078" class="cls-6" d="M66.6,71.84,93.3,88.69V55Z"/></g><g id="Group_10410" data-name="Group 10410"><path id="Path_18079" data-name="Path 18079" class="cls-4" d="M90.58,89.48a.76.76,0,0,1-.42-.12L63.46,72.51a.79.79,0,0,1-.37-.67.8.8,0,0,1,.37-.67l26.7-16.84a.78.78,0,0,1,1.21.67V88.69a.77.77,0,0,1-.41.7A.85.85,0,0,1,90.58,89.48ZM65.37,71.84,89.79,87.25V56.44Z"/></g><g id="Group_10411" data-name="Group 10411"><path id="Path_18080" data-name="Path 18080" class="cls-3" d="M56.65,71.84,30,55V88.69Z"/></g><g id="Group_10412" data-name="Group 10412"><path id="Path_18081" data-name="Path 18081" class="cls-6" d="M59.37,71.84,32.67,55V88.69Z"/></g><g id="Group_10413" data-name="Group 10413"><path id="Path_18082" data-name="Path 18082" class="cls-4" d="M30,89.48a.86.86,0,0,1-.38-.1.81.81,0,0,1-.41-.7V55a.8.8,0,0,1,1.22-.68l26.7,16.85a.78.78,0,0,1,.37.67.8.8,0,0,1-.37.67L30.38,89.35A.83.83,0,0,1,30,89.48Zm.8-33V87.25L55.16,71.84Z"/></g><g id="Group_10414" data-name="Group 10414"><path id="Path_18083" data-name="Path 18083" class="cls-3" d="M57.24,69.55l-26,17.57a3,3,0,0,0,1.66,5.43H87.6a3,3,0,0,0,1.67-5.43l-26-17.57A5.42,5.42,0,0,0,57.24,69.55Z"/></g><g id="Group_10415" data-name="Group 10415"><path id="Path_18084" data-name="Path 18084" class="cls-6" d="M60,69.55,34,87.12a3,3,0,0,0,1.66,5.43H90.32A3,3,0,0,0,92,87.12L66,69.55A5.42,5.42,0,0,0,60,69.55Z"/></g><g id="Group_10416" data-name="Group 10416"><path id="Path_18085" data-name="Path 18085" class="cls-4" d="M87.6,93.34H32.92a3.76,3.76,0,0,1-2.11-6.88l26-17.56a6.15,6.15,0,0,1,6.94,0l26,17.56a3.76,3.76,0,0,1-2.11,6.88ZM60.26,69.42a4.57,4.57,0,0,0-2.58.8h0l-26,17.55a2.18,2.18,0,0,0,1.22,4H87.6a2.17,2.17,0,0,0,1.22-4l-26-17.56A4.62,4.62,0,0,0,60.26,69.42Z"/></g></g></g></g></svg>