<?xml version="1.0" encoding="utf-8"?><svg xmlns="http://www.w3.org/2000/svg" viewBox="0 0 324.77 324.77"><g id="envelope_icone" data-name="envelope icone"><g id="Componente_145_37" data-name="Componente 145 37"><g id="Grupo_10015" data-name="Grupo 10015"><g id="Grupo_10009" data-name="Grupo 10009"><g id="Grupo_10007" data-name="Grupo 10007"><g id="Caminho_17001" data-name="Caminho 17001"><path d="M249.79,89.36l-73.74,97.85a10,10,0,0,1-14,2h0L64,115.32a6.78,6.78,0,0,0-.44,3.48L80.1,236.55a6.76,6.76,0,0,0,7.63,5.75l174.13-24.48a6.74,6.74,0,0,0,5.74-7.62h0L251.05,92.45A6.62,6.62,0,0,0,249.79,89.36Z" style="fill:#b1c4dd"/></g></g><g id="Grupo_10008" data-name="Grupo 10008"><g id="Caminho_17002" data-name="Caminho 17002"><path d="M176.05,187.21l73.74-97.85a6.75,6.75,0,0,0-6.36-2.65L69.3,111.18a6.73,6.73,0,0,0-3.87,2l-1.06,1.4a7,7,0,0,0-.38.78l98,73.87a10,10,0,0,0,14-2Z" style="fill:#d6e3f4"/></g></g></g><g id="Grupo_10014" data-name="Grupo 10014"><g id="Grupo_10010" data-name="Grupo 10010"><g id="Caminho_17003" data-name="Caminho 17003"><path d="M59,112.1a.9.9,0,0,1-1-.77.87.87,0,0,1,.11-.57,7.68,7.68,0,0,1,1.19-1.59.9.9,0,0,1,1.37,1.18l-1.06,1.4A.87.87,0,0,1,59,112.1Z" style="fill:#59316d"/></g></g><g id="Grupo_10011" data-name="Grupo 10011"><g id="Caminho_17004" data-name="Caminho 17004"><path d="M256.49,215.38,82.36,239.85a7.66,7.66,0,0,1-8.64-6.51L57.17,115.59a7.62,7.62,0,0,1,.5-4,.91.91,0,0,1,1.18-.49.56.56,0,0,1,.2.11l98,73.87a9.12,9.12,0,0,0,12.76-1.8l73.74-97.85a.89.89,0,0,1,1.26-.18.85.85,0,0,1,.19.19,7.72,7.72,0,0,1,1.44,3.5L263,206.74A7.66,7.66,0,0,1,256.49,215.38ZM59,113.49a5.75,5.75,0,0,0,0,1.85L75.51,233.09a5.85,5.85,0,0,0,6.6,5l174.13-24.48a5.85,5.85,0,0,0,5-6.6L244.67,89.24a5.81,5.81,0,0,0-.46-1.59l-72.93,96.77A10.93,10.93,0,0,1,156,186.57Z" style="fill:#59316d"/></g></g><g id="Grupo_10012" data-name="Grupo 10012"><g id="Caminho_17005" data-name="Caminho 17005"><path d="M58.63,112.88a.89.89,0,0,1-.67-.18l-.14-.1a.92.92,0,0,1-.17-1.27l.51-.67a.91.91,0,0,1,1.51,1,5.94,5.94,0,0,0-.33.67.88.88,0,0,1-.71.55Z" style="fill:#59316d"/></g></g><g id="Grupo_10013" data-name="Grupo 10013"><g id="Caminho_17006" data-name="Caminho 17006"><path d="M164.08,188.66a10.85,10.85,0,0,1-8.09-2.09L58,112.7a.91.91,0,0,1-.29-1.06,7.94,7.94,0,0,1,.43-.88l.06-.1,1.05-1.4.08-.09A7.57,7.57,0,0,1,63.68,107L237.81,82.48a7.64,7.64,0,0,1,7.21,3,.9.9,0,0,1,0,1.08l-73.74,97.85A10.86,10.86,0,0,1,164.08,188.66Zm-104.45-77,97.43,73.42a9.13,9.13,0,0,0,12.77-1.79l73.31-97.27a5.81,5.81,0,0,0-5.07-1.79L63.94,108.74a5.77,5.77,0,0,0-3.32,1.66l-1,1.3Z" style="fill:#59316d"/></g></g></g></g></g></g></svg>