<?xml version="1.0" encoding="utf-8"?>
<svg xmlns="http://www.w3.org/2000/svg" width="247.334" height="216.44" viewBox="0 0 247.334 216.44">
  <g id="Grupo_9663" data-name="Grupo 9663" transform="translate(-949.871 -145.278) rotate(-16)">
    <g id="Grupo_9623" data-name="Grupo 9623" transform="translate(841.72 454.105)">
      <g id="Grupo_9585" data-name="Grupo 9585" transform="translate(83.383 9.83)">
        <g id="Grupo_9584" data-name="Grupo 9584" transform="translate(0)">
          <path id="Caminho_16770" data-name="Caminho 16770" d="M2057.543-1824.147l-14.57,1.335-59.25,5.436-18.623,1.708a8.748,8.748,0,0,1-9.506-7.908l-.343-3.735-5.731-62.51-6.7-73.07a8.746,8.746,0,0,1,7.908-9.507l28.52-2.615,24.089-2.209,39.834-3.653a8.747,8.747,0,0,1,9.507,7.908l1.227,13.391,7.657,83.5,3.892,42.426A8.747,8.747,0,0,1,2057.543-1824.147Z" transform="translate(-1942.781 1980.914)" fill="#fff"/>
        </g>
      </g>
      <g id="Grupo_9587" data-name="Grupo 9587" transform="translate(87.205 13.653)">
        <g id="Grupo_9586" data-name="Grupo 9586" transform="translate(0 0)">
          <path id="Caminho_16771" data-name="Caminho 16771" d="M2063.544-1818.148l-14.571,1.335-59.251,5.436-18.621,1.708a8.748,8.748,0,0,1-9.507-7.908l-.343-3.735-5.732-62.51-6.7-73.07a8.747,8.747,0,0,1,7.908-9.507l28.52-2.615,24.088-2.209,39.834-3.653a8.748,8.748,0,0,1,9.506,7.908l1.228,13.39,7.657,83.5,3.891,42.426A8.745,8.745,0,0,1,2063.544-1818.148Z" transform="translate(-1948.781 1974.914)" fill="#f7f7f7"/>
        </g>
      </g>
      <g id="Grupo_9589" data-name="Grupo 9589" transform="translate(82.746 9.192)">
        <g id="Grupo_9588" data-name="Grupo 9588" transform="translate(0 0)">
          <path id="Caminho_16772" data-name="Caminho 16772" d="M1963.932-1815.358a9.4,9.4,0,0,1-9.336-8.524L1941.821-1963.2a9.392,9.392,0,0,1,8.484-10.2l92.443-8.478a9.392,9.392,0,0,1,10.2,8.483l12.775,139.317a9.392,9.392,0,0,1-8.484,10.2h0L1964.8-1815.4C1964.506-1815.372,1964.217-1815.358,1963.932-1815.358Zm79.678-165.283c-.247,0-.5.012-.746.034l-92.443,8.479a8.116,8.116,0,0,0-7.332,8.814L1955.866-1824a8.12,8.12,0,0,0,8.814,7.332l92.442-8.478a8.117,8.117,0,0,0,7.332-8.815l-12.775-139.315A8.127,8.127,0,0,0,2043.611-1980.641Z" transform="translate(-1941.782 1981.916)" fill="#59316d"/>
        </g>
      </g>
      <g id="Grupo_9591" data-name="Grupo 9591" transform="translate(66.733 0)">
        <g id="Grupo_9590" data-name="Grupo 9590" transform="translate(0 0)">
          <path id="Retângulo_2236" data-name="Retângulo 2236" d="M13.723,0h129.94a13.723,13.723,0,0,1,13.723,13.723V96.591a13.722,13.722,0,0,1-13.722,13.722H13.723A13.723,13.723,0,0,1,0,96.591V13.723A13.723,13.723,0,0,1,13.723,0Z" transform="translate(0 148.598) rotate(-70.764)" fill="#fff"/>
        </g>
      </g>
      <g id="Grupo_9593" data-name="Grupo 9593" transform="translate(70.555 3.823)">
        <g id="Grupo_9592" data-name="Grupo 9592" transform="translate(0 0)">
          <path id="Retângulo_2237" data-name="Retângulo 2237" d="M13.723,0h129.94a13.722,13.722,0,0,1,13.722,13.722V96.591a13.722,13.722,0,0,1-13.722,13.722H13.723A13.723,13.723,0,0,1,0,96.591V13.723A13.723,13.723,0,0,1,13.723,0Z" transform="translate(0 148.598) rotate(-70.764)" fill="#f7f7f7"/>
        </g>
      </g>
      <g id="Grupo_9595" data-name="Grupo 9595" transform="translate(68.483 1.755)">
        <g id="Grupo_9594" data-name="Grupo 9594" transform="translate(0)">
          <path id="Caminho_16773" data-name="Caminho 16773" d="M2016.417-1812.157a9.318,9.318,0,0,1-3.081-.524l-87.647-30.584a9.326,9.326,0,0,1-5.357-4.779,9.32,9.32,0,0,1-.407-7.167l46.091-132.089a9.393,9.393,0,0,1,11.946-5.766l87.647,30.583a9.32,9.32,0,0,1,5.357,4.779,9.319,9.319,0,0,1,.408,7.167l-46.091,132.089A9.4,9.4,0,0,1,2016.417-1812.157Zm-41.539-180.158a8.122,8.122,0,0,0-7.66,5.436l-46.091,132.088a8.051,8.051,0,0,0,.352,6.194,8.057,8.057,0,0,0,4.63,4.13l87.646,30.583a8.113,8.113,0,0,0,10.324-4.983l46.092-132.088a8.054,8.054,0,0,0-.352-6.194,8.056,8.056,0,0,0-4.63-4.129l-87.645-30.583A8.066,8.066,0,0,0,1974.878-1992.315Z" transform="translate(-1919.395 1993.589)" fill="#59316d"/>
        </g>
      </g>
      <g id="Grupo_9577" data-name="Grupo 9577" transform="translate(0.633 57.191)">
        <g id="Grupo_9576" data-name="Grupo 9576">
          <path id="Caminho_16767" data-name="Caminho 16767" d="M1935.86-1872.088l-103.35,53.967a9.288,9.288,0,0,1-12.536-3.935l-6.021-11.529a9.288,9.288,0,0,1,3.935-12.536l103.351-53.967,1.051-.166,31.216-4.876,9.036-1.412a2.531,2.531,0,0,1,2.219,4.249l-6.323,6.608-21.842,22.829Z" transform="translate(-1812.896 1906.575)" fill="#fff"/>
        </g>
      </g>
      <g id="Grupo_9579" data-name="Grupo 9579" transform="translate(0.633 112.378)">
        <g id="Grupo_9578" data-name="Grupo 9578" transform="translate(0 0)">
          <path id="Caminho_16768" data-name="Caminho 16768" d="M1842.6-1791.952l-10.087,5.268a9.288,9.288,0,0,1-12.536-3.935l-6.021-11.529a9.289,9.289,0,0,1,3.935-12.536l10.089-5.267Z" transform="translate(-1812.896 1819.951)" fill="#fff"/>
        </g>
      </g>
      <g id="Grupo_9581" data-name="Grupo 9581" transform="translate(15.714 107.755)">
        <g id="Grupo_9580" data-name="Grupo 9580" transform="translate(0 0)">
          <rect id="Retângulo_2235" data-name="Retângulo 2235" width="9.987" height="31.587" transform="translate(0 4.623) rotate(-27.573)" fill="#fff"/>
        </g>
      </g>
      <g id="Grupo_9583" data-name="Grupo 9583" transform="translate(107.223 57.191)">
        <g id="Grupo_9582" data-name="Grupo 9582">
          <path id="Caminho_16769" data-name="Caminho 16769" d="M1997.313-1872.855c-2.408-2.7-6.773.2-9.034-3.243-2.235-3.606,2.595-6.4.732-9.856-1.772-3.5-6.824-1.137-8.507-5.032-1.537-3.825,3.345-5.745,2.5-9.267l31.216-4.876,9.037-1.412a2.531,2.531,0,0,1,2.218,4.249l-6.322,6.608Z" transform="translate(-1980.203 1906.575)" fill="#fff"/>
        </g>
      </g>
      <g id="Grupo_9597" data-name="Grupo 9597" transform="translate(152.194 50.588)">
        <g id="Grupo_9596" data-name="Grupo 9596" transform="translate(0)">
          <path id="Caminho_16774" data-name="Caminho 16774" d="M2062.782-1915.138a15.633,15.633,0,0,1,3.849-1.486,12.392,12.392,0,0,1,4.208-.235,11.646,11.646,0,0,1,7.406,3.829,11.421,11.421,0,0,1,2.159,3.62,12.89,12.89,0,0,1,.771,4.031,16.271,16.271,0,0,1-1.716,7.648,21.482,21.482,0,0,1-4.611,6.027,41.294,41.294,0,0,1-5.786,4.431c-4,2.6-8.106,4.748-11.494,7.685q-.632.551-1.229,1.132c-.385.384-.753.779-1.1,1.193a10.925,10.925,0,0,0-1.655,2.658,7.363,7.363,0,0,0-.425,1.423,5.569,5.569,0,0,0-.045,1.422,4.739,4.739,0,0,0,1.136,2.54,8.054,8.054,0,0,0,5.558,2.351c.265.024.53,0,.8.006s.528-.042.793-.061c.261-.038.517-.086.781-.131l.838-.193c.572-.134,1.164-.278,1.8-.365a6.1,6.1,0,0,1,2.032.017,3.741,3.741,0,0,1,1.955,1.036,3.852,3.852,0,0,1,1,1.941,6.312,6.312,0,0,1-.6,3.889,20.625,20.625,0,0,1-2.056,3,9.22,9.22,0,0,0-1.614,2.838,6.15,6.15,0,0,0,1.431,5.963,6.3,6.3,0,0,0,6.034,1.64h0a.375.375,0,0,1,.461.262.376.376,0,0,1-.251.459,7.165,7.165,0,0,1-6.941-1.66,7.251,7.251,0,0,1-1.912-7,10.453,10.453,0,0,1,1.707-3.292,19.655,19.655,0,0,0,1.822-2.832,4.838,4.838,0,0,0,.378-2.935,2.242,2.242,0,0,0-.61-1.114,2.085,2.085,0,0,0-1.12-.535,7.809,7.809,0,0,0-3.075.437l-.862.23c-.311.066-.626.135-.94.191-.317.035-.634.087-.953.106s-.636.042-.955.025a11.369,11.369,0,0,1-3.762-.686,8.73,8.73,0,0,1-3.331-2.127,6.981,6.981,0,0,1-1.8-3.7,7.9,7.9,0,0,1,0-2.071,9.593,9.593,0,0,1,.506-1.95,16.5,16.5,0,0,1,4.452-6.062c3.6-3.323,7.777-5.672,11.515-8.294a38.193,38.193,0,0,0,5.2-4.255,21.228,21.228,0,0,0,2.114-2.461,15.243,15.243,0,0,0,1.6-2.705,12.608,12.608,0,0,0,1.142-5.935,8.107,8.107,0,0,0-2.12-5.12,7.5,7.5,0,0,0-4.848-2.3,8.045,8.045,0,0,0-2.751.253,11.234,11.234,0,0,0-2.633,1.125l-.051.03a2.252,2.252,0,0,1-3.077-.826,2.254,2.254,0,0,1,.826-3.078Z" transform="translate(-2050.79 1916.94)" fill="#59316d"/>
        </g>
      </g>
      <g id="Grupo_9612" data-name="Grupo 9612" transform="translate(4.456 59.102)">
        <g id="Grupo_9599" data-name="Grupo 9599" transform="translate(0 0)">
          <g id="Grupo_9598" data-name="Grupo 9598">
            <path id="Caminho_16775" data-name="Caminho 16775" d="M1941.859-1869.088l-103.35,53.968a9.288,9.288,0,0,1-12.535-3.936l-6.021-11.529a9.288,9.288,0,0,1,3.934-12.535l103.351-53.967,1.051-.167,31.216-4.877,9.036-1.412a2.531,2.531,0,0,1,2.219,4.249l-6.323,6.608-21.842,22.83Z" transform="translate(-1818.896 1903.575)" fill="#ffbe06"/>
          </g>
        </g>
        <g id="Grupo_9601" data-name="Grupo 9601" transform="translate(0 55.187)">
          <g id="Grupo_9600" data-name="Grupo 9600">
            <path id="Caminho_16776" data-name="Caminho 16776" d="M1848.6-1788.952l-10.088,5.268a9.286,9.286,0,0,1-12.535-3.935l-6.021-11.529a9.287,9.287,0,0,1,3.934-12.535l10.088-5.268Z" transform="translate(-1818.896 1816.951)" fill="#f9afa1"/>
          </g>
        </g>
        <g id="Grupo_9603" data-name="Grupo 9603" transform="translate(15.081 50.564)">
          <g id="Grupo_9602" data-name="Grupo 9602" transform="translate(0 0)">
            <rect id="Retângulo_2238" data-name="Retângulo 2238" width="9.987" height="31.587" transform="translate(0 4.623) rotate(-27.573)" fill="#d7dcf0"/>
          </g>
        </g>
        <g id="Grupo_9605" data-name="Grupo 9605" transform="translate(106.59 0)">
          <g id="Grupo_9604" data-name="Grupo 9604">
            <path id="Caminho_16777" data-name="Caminho 16777" d="M2003.314-1869.854c-2.408-2.705-6.774.2-9.035-3.243-2.235-3.606,2.594-6.4.733-9.857-1.772-3.5-6.825-1.137-8.508-5.031-1.537-3.825,3.345-5.746,2.5-9.267l31.217-4.877,9.036-1.412a2.531,2.531,0,0,1,2.219,4.249l-6.323,6.608Z" transform="translate(-1986.203 1903.575)" fill="#ffdc9c"/>
          </g>
        </g>
        <g id="Grupo_9607" data-name="Grupo 9607" transform="translate(3.208 2.162)" opacity="0.3">
          <g id="Grupo_9606" data-name="Grupo 9606">
            <path id="Caminho_16778" data-name="Caminho 16778" d="M1943.688-1867.857l-103.351,53.967a9.29,9.29,0,0,1-12.536-3.935l-3.87-7.411a9.287,9.287,0,0,0,12.536,3.935l102.408-53.475a6.509,6.509,0,0,0,1.679-1.26h0l32.714-24.146a2.462,2.462,0,0,1-.679,2.121l-6.322,6.608-21.842,22.83Z" transform="translate(-1823.931 1900.182)" fill="#59316d"/>
          </g>
        </g>
        <g id="Grupo_9609" data-name="Grupo 9609" transform="translate(0)" opacity="0.55">
          <g id="Grupo_9608" data-name="Grupo 9608">
            <path id="Caminho_16779" data-name="Caminho 16779" d="M1971.327-1900.2a2.561,2.561,0,0,0-1.065-.052l-9.036,1.412-31.217,4.877-1.05.166-103.351,53.967a9.289,9.289,0,0,0-3.935,12.536l-1.72-3.294a9.288,9.288,0,0,1,3.934-12.536l103.351-53.967,1.051-.167,31.216-4.876,9.036-1.411A2.541,2.541,0,0,1,1971.327-1900.2Z" transform="translate(-1818.896 1903.574)" fill="#fff"/>
          </g>
        </g>
        <g id="Grupo_9611" data-name="Grupo 9611" transform="translate(140.61 0)">
          <g id="Grupo_9610" data-name="Grupo 9610">
            <path id="Caminho_16780" data-name="Caminho 16780" d="M2044.535-1892.684a12.347,12.347,0,0,1-4.933-9.446l9.036-1.412a2.531,2.531,0,0,1,2.219,4.249Z" transform="translate(-2039.602 1903.575)" fill="#59316d"/>
          </g>
        </g>
      </g>
      <g id="Grupo_9616" data-name="Grupo 9616" transform="translate(0 111.518)">
        <g id="Grupo_9615" data-name="Grupo 9615">
          <path id="Caminho_16782" data-name="Caminho 16782" d="M1827.865-1785.483a9.939,9.939,0,0,1-8.817-5.331l-6.021-11.529a9.939,9.939,0,0,1,4.206-13.4l10.653-5.563,15.21,29.128-10.653,5.563A9.865,9.865,0,0,1,1827.865-1785.483Zm-.519-34.1-9.524,4.973a8.665,8.665,0,0,0-3.665,11.676l6.021,11.529a8.662,8.662,0,0,0,11.675,3.665l9.522-4.972Z" transform="translate(-1811.902 1821.301)" fill="#59316d"/>
        </g>
      </g>
      <g id="Grupo_9618" data-name="Grupo 9618" transform="translate(14.855 106.896)">
        <g id="Grupo_9617" data-name="Grupo 9617" transform="translate(0 0)">
          <path id="Caminho_16783" data-name="Caminho 16783" d="M1850.428-1794.216l-15.21-29.128,9.982-5.213,15.21,29.129Zm-13.49-28.588,14.03,26.869,7.724-4.032-14.031-26.87Z" transform="translate(-1835.218 1828.557)" fill="#59316d"/>
        </g>
      </g>
      <g id="Grupo_9620" data-name="Grupo 9620" transform="translate(106.587 56.555)">
        <g id="Grupo_9619" data-name="Grupo 9619">
          <path id="Caminho_16784" data-name="Caminho 16784" d="M1996.935-1872.278l-.459-.516c-.945-1.061-2.268-1.09-3.8-1.122-1.832-.04-3.908-.084-5.292-2.195-1.337-2.157-.5-4.058.24-5.736.654-1.484,1.22-2.767.465-4.168-.726-1.435-2.1-1.7-3.694-2.016-1.8-.352-3.837-.751-4.838-3.066-.947-2.357.2-4.086,1.218-5.612.848-1.275,1.581-2.377,1.25-3.76l-.16-.671,40.934-6.394a3.127,3.127,0,0,1,3.3,1.664,3.125,3.125,0,0,1-.518,3.655Zm-13.565-27.806a6.6,6.6,0,0,1-1.534,4.082c-.963,1.447-1.793,2.7-1.1,4.417.728,1.683,2.2,1.971,3.905,2.3,1.678.328,3.58.7,4.579,2.676,1.042,1.935.261,3.708-.428,5.272-.7,1.59-1.306,2.964-.332,4.537,1.008,1.536,2.508,1.569,4.245,1.605a6.6,6.6,0,0,1,4.226,1.074l27.727-28.979a1.849,1.849,0,0,0,.309-2.185,1.854,1.854,0,0,0-1.969-.995Z" transform="translate(-1979.204 1907.573)" fill="#59316d"/>
        </g>
      </g>
      <g id="Grupo_9622" data-name="Grupo 9622" transform="translate(141.244 57.191)">
        <g id="Grupo_9621" data-name="Grupo 9621" transform="translate(0)">
          <path id="Caminho_16785" data-name="Caminho 16785" d="M2038.535-1895.684a12.35,12.35,0,0,1-4.933-9.445l9.037-1.412a2.531,2.531,0,0,1,2.219,4.249Z" transform="translate(-2033.602 1906.575)" fill="#59316d"/>
        </g>
      </g>
      <g id="Grupo_9614" data-name="Grupo 9614" transform="translate(0 56.555)">
        <g id="Grupo_9613" data-name="Grupo 9613">
          <path id="Caminho_16781" data-name="Caminho 16781" d="M1827.865-1816.792a9.937,9.937,0,0,1-8.817-5.332l-6.021-11.528a9.94,9.94,0,0,1,4.206-13.4l103.444-54.015,1.152-.184,40.254-6.288a3.123,3.123,0,0,1,3.3,1.664,3.125,3.125,0,0,1-.517,3.654l-28.974,30.281-.092.048-103.351,53.967A9.857,9.857,0,0,1,1827.865-1816.792Zm93.216-83.045-103.258,53.919a8.665,8.665,0,0,0-3.665,11.677l6.021,11.529a8.59,8.59,0,0,0,5.077,4.252,8.6,8.6,0,0,0,6.6-.587l103.258-53.918.664-.692,28.164-29.437a1.85,1.85,0,0,0,.309-2.185,1.853,1.853,0,0,0-1.969-.994Z" transform="translate(-1811.902 1907.574)" fill="#59316d"/>
        </g>
      </g>
    </g>
  </g>
</svg>
