<?xml version="1.0" encoding="utf-8"?>
<!-- Generator: Adobe Illustrator 25.4.1, SVG Export Plug-In . SVG Version: 6.00 Build 0)  -->
<svg version="1.1" id="Farmácia" xmlns="http://www.w3.org/2000/svg" xmlns:xlink="http://www.w3.org/1999/xlink" x="0px" y="0px"
	 viewBox="0 0 200 200" style="enable-background:new 0 0 200 200;" xml:space="preserve">
<style type="text/css">
	.st0{fill:none;}
	.st1{fill:#5A316B;}
</style>
<polygon class="st0" points="78,179.1 78,179.3 78,179.1 78,179.1 "/>
<path class="st1" d="M174.7,74.1h-48.8V25.3c0-2.1-1.7-3.9-3.8-3.9H78c-2.1,0-3.9,1.7-3.9,3.9v22.3c-0.1,1,0.3,2,1,2.8
	c0.7,0.8,1.7,1.2,2.7,1.2c2.1,0,3.9-1.6,4-3.8V29.2h36.1V78c0,2.1,1.7,3.9,3.9,3.9h48.8V118H122c-2.1,0-3.9,1.7-3.9,3.9v18.4
	c0.1,2.1,1.9,3.8,4,3.7c2-0.1,3.7-1.7,3.8-3.8v-14.4h48.8c2.1,0,3.9-1.7,3.9-3.9V78C178.6,75.9,176.8,74.1,174.7,74.1z"/>
<path class="st1" d="M122,178.6L122,178.6c2.1,0,3.9-1.7,3.9-3.9v-18.4c-0.1-2.2-1.9-3.8-4.1-3.7c-2,0.1-3.6,1.7-3.7,3.7v14.4H81.9
	V122c0-1-0.4-2-1.1-2.8c-0.7-0.7-1.7-1.1-2.7-1.1H29.2V81.9h48.8c2.1,0,3.9-1.7,3.9-3.9c0,0,0,0,0,0V64.6c0.1-2.1-1.6-4-3.8-4
	s-4,1.6-4,3.8c0,0.1,0,0.2,0,0.3v9.6H25.3c-2.1,0-3.9,1.7-3.9,3.8v44c0,2.1,1.7,3.9,3.9,3.9c0,0,0,0,0,0h48.8v48.8
	c0,2.1,1.7,3.8,3.8,3.9v0.5l0,0v-0.5H122z"/>
</svg>
