<?xml version="1.0" encoding="utf-8"?>
<!-- Generator: Adobe Illustrator 25.3.1, SVG Export Plug-In . SVG Version: 6.00 Build 0)  -->
<svg version="1.1" id="fogos_de_artificio_azul_1_" xmlns="http://www.w3.org/2000/svg" xmlns:xlink="http://www.w3.org/1999/xlink"
	 x="0px" y="0px" viewBox="0 0 324.8 324.8" style="enable-background:new 0 0 324.8 324.8;" xml:space="preserve">
<style type="text/css">
	.st0{fill:#B8BCCF;}
	.st1{fill:#FDCCA9;}
	.st2{fill:#FEDEC8;}
	.st3{fill:#838AAA;}
</style>
<g id="fogos_de_artificio_azul">
	<g id="Grupo_10242">
		<g id="Grupo_10240">
			<g id="Caminho_17379">
				<path class="st0" d="M39.1,178.1l0-4l1,4l1.5-3.6L41,179c0,0,3.2-2.1,3.5-2.4s-2.9,4.2-2.9,4.2l5.8-1.6l-5.2,3l5.2,1.1l-5.4-0.1
					l2.3,3.1l-2.8-1.9l2.8,6l-4.3-4.9v2.6l-1-2.8l-2.1,7l0.6-6.8l-2.2,2.5l2.1-3.8l-6.4,3.6l6.5-4.3l-9,1l8.4-1.8l-5.2-1.3L36,182
					l-1.3-2.5l2.8,1.8l-3-7.6l4,6.5l-0.5-3L39.1,178.1z"/>
			</g>
			<g id="Caminho_17380">
				<path class="st1" d="M291.2,175.2l0.1-6.6l1.6,6.6l2.5-5.9l-1.1,7.3c0,0,5.2-3.5,5.7-3.9s-4.6,6.8-4.6,6.8l9.3-2.6l-8.5,4.9
					l8.4,1.9l-8.6-0.1l3.8,5l-4.5-3.1l4.5,9.6l-6.9-7.9l0,4.3l-1.6-4.6l-3.4,11.3l1-11.1l-3.5,4.1l3.4-6.1l-10.3,5.8l10.5-7
					l-14.5,1.6l13.6-2.8l-8.4-2.1l6.8,0.7l-2.1-4l4.5,2.8l-5-12.3l6.6,10.5l-0.8-4.8L291.2,175.2z"/>
			</g>
			<g id="Caminho_17381">
				<path class="st0" d="M280.3,207v-3.5l0.8,3.5l1.3-3.1l-0.6,3.9c0,0,2.8-1.8,3-2.1s-2.5,3.6-2.5,3.6l5-1.4l-4.5,2.6l4.5,1
					l-4.5-0.1l2,2.7l-2.4-1.6l2.4,5.1l-3.7-4.2v2.3l-0.9-2.4l-1.8,6l0.6-5.9l-1.9,2.2l1.8-3.2l-5.5,3.1l5.6-3.7l-7.7,0.9l7.2-1.5
					L274,210l3.6,0.4l-1.1-2.1l2.4,1.5l-2.6-6.5l3.5,5.6l-0.4-2.6L280.3,207z"/>
			</g>
			<g id="Caminho_17382">
				<path class="st1" d="M254.8,64.2l0.1-6.5l1.6,6.6l2.5-5.8l-1.1,7.3c0,0,5.2-3.5,5.7-3.9s-4.6,6.8-4.6,6.8l9.3-2.6l-8.5,4.9
					l8.4,1.9l-8.6-0.1l3.8,5l-4.6-3.1l4.5,9.7l-6.9-7.9v4.3l-1.6-4.5l-3.4,11.3l1-11.1l-3.5,4.1l3.4-6.1l-10.3,5.8l10.5-7l-14.6,1.6
					l13.6-2.8l-8.4-2.1l6.8,0.7l-2.1-4l4.5,2.9l-5-12.3l6.6,10.5l-0.8-4.8L254.8,64.2z"/>
			</g>
			<g id="Caminho_17383">
				<path class="st2" d="M201.2,272.6l0.1-5.2l1.3,5.3l2-4.7l-0.9,5.8c0,0,4.2-2.8,4.5-3.1s-3.7,5.4-3.7,5.4l7.5-2.1l-6.8,3.9
					l6.7,1.5l-6.9-0.1l3,4l-3.6-2.5l3.6,7.7l-5.5-6.3v3.4l-1.3-3.6l-2.7,9l0.9-8.9l-2.8,3.3l2.7-4.9l-8.3,4.6l8.4-5.6l-11.7,1.3
					l10.9-2.2l-6.7-1.7l5.4,0.6l-1.7-3.2l3.6,2.3l-4-9.9l5.2,8.4l-0.6-3.8L201.2,272.6z"/>
			</g>
			<g id="Caminho_17384">
				<path class="st2" d="M126,269.2V267l0.6,2.2l0.8-2l-0.4,2.5c0,0,1.8-1.2,1.9-1.4s-1.6,2.3-1.6,2.3l3.2-0.9l-2.9,1.7l2.9,0.6
					h-2.9l1.3,1.7l-1.6-1l1.5,3.3l-2.3-2.7v1.5l-0.6-1.6l-1.2,3.9l0.4-3.8l-1.2,1.4l1.2-2.1l-3.5,2l3.6-2.4l-5,0.5l4.7-1l-2.9-0.7
					l2.3,0.3l-0.7-1.4l1.5,1l-1.7-4.2l2.2,3.6l-0.3-1.6L126,269.2z"/>
			</g>
			<g id="Caminho_17385">
				<path class="st2" d="M125.9,190.4v-1.6l0.4,1.7l0.6-1.5l-0.3,1.8c0,0,1.3-0.9,1.4-1c0.1-0.1-1.2,1.7-1.2,1.7l2.4-0.7l-2.1,1.2
					l2.1,0.5h-2.2l1,1.3l-1.1-0.8l1.1,2.4l-1.7-2v1.1l-0.4-1.2l-0.9,2.9l0.3-2.8l-0.9,1.1l0.8-1.6l-2.6,1.5l2.7-1.8l-3.7,0.4
					l3.4-0.7l-2.1-0.5l1.7,0.2l-0.5-1l1.1,0.7l-1.3-3.1l1.7,2.7l-0.2-1.2L125.9,190.4z"/>
			</g>
			<g id="Caminho_17386">
				<path class="st2" d="M122.7,121.9v-1.7l0.4,1.7l0.6-1.5l-0.3,1.8c0,0,1.3-0.9,1.4-1s-1.2,1.7-1.2,1.7l2.4-0.7l-2.1,1.3l2.1,0.5
					H124l1,1.3l-1.2-0.8l1.1,2.4l-1.7-2v1.1l-0.4-1.2l-0.9,2.9l0.3-2.8l-0.9,1l0.9-1.6l-2.6,1.5l2.7-1.8l-3.7,0.4l3.4-0.7l-2.1-0.5
					l1.7,0.2l-0.5-1l1.1,0.7l-1.4-3.2l1.7,2.7l-0.2-1.2L122.7,121.9z"/>
			</g>
			<g id="Caminho_17387">
				<path class="st2" d="M185.7,107.4v-1.6l0.4,1.6l0.6-1.5l-0.3,1.8c0,0,1.3-0.9,1.4-1s-1.2,1.7-1.2,1.7l2.4-0.7l-2.1,1.2l2.1,0.5
					h-2.2l1,1.3l-1.1-0.8l1.1,2.4l-1.8-2v1.1l-0.4-1.2l-0.9,2.9l0.3-2.8l-0.9,1l0.8-1.5l-2.6,1.5l2.6-1.8l-3.7,0.4l3.5-0.7l-2.1-0.5
					l1.7,0.2l-0.5-1l1.1,0.7l-1.2-3.1l1.7,2.7l-0.2-1.2L185.7,107.4z"/>
			</g>
			<g id="Caminho_17388">
				<path class="st3" d="M187.2,153v-1.7l0.4,1.7l0.6-1.5l-0.3,1.8c0,0,1.3-0.9,1.4-1s-1.2,1.7-1.2,1.7l2.4-0.7l-2.1,1.3l2.1,0.4
					h-2.2l1,1.3l-1.2-0.8l1.1,2.4l-1.8-2v1.1l-0.4-1.1l-0.9,2.9l0.3-2.8l-0.9,1l0.9-1.6l-2.6,1.5l2.6-1.8l-3.7,0.4l3.5-0.7l-2.1-0.5
					l1.7,0.2l-0.5-1l1.1,0.7l-1.3-3.1l1.7,2.6l-0.2-1.2L187.2,153z"/>
			</g>
			<g id="Caminho_17389">
				<path class="st3" d="M87.4,152v-1.6l0.4,1.7l0.6-1.5l-0.3,1.8c0,0,1.3-0.9,1.4-1s-1.2,1.7-1.2,1.7l2.4-0.7l-2.2,1.2l2.1,0.5
					h-2.2l1,1.3l-1.1-0.8l1.1,2.4l-1.8-2v1.1l-0.5-1.2l-0.9,2.9l0.3-2.8l-0.9,1.1l0.8-1.6l-2.6,1.5l2.7-1.8l-3.7,0.4l3.4-0.7
					l-2.1-0.5l1.7,0.2l-0.5-1l1.1,0.7l-1.2-3.1l1.7,2.7l-0.2-1.2L87.4,152z"/>
			</g>
			<g id="Caminho_17390">
				<path class="st3" d="M87.8,208.5v-1.6l0.4,1.7l0.6-1.5l-0.3,1.8c0,0,1.3-0.9,1.4-1s-1.2,1.7-1.2,1.7l2.4-0.7l-2.1,1.2l2.1,0.5
					H89l1,1.3l-1.2-0.8l1.2,2.4l-1.8-2v1.1l-0.4-1.2l-0.9,2.9l0.3-2.8l-0.9,1l0.8-1.6l-2.6,1.5l2.7-1.8l-3.7,0.4l3.4-0.7l-2.2-0.4
					l1.7,0.2l-0.5-1l1.1,0.7l-1.2-3.1l1.7,2.7l-0.2-1.2L87.8,208.5z"/>
			</g>
			<g id="Caminho_17391">
				<path class="st3" d="M230.6,169.2v-1.6l0.4,1.6l0.6-1.5l-0.3,1.9c0,0,1.3-0.9,1.4-1s-1.2,1.7-1.2,1.7l2.4-0.6l-2.1,1.2l2.1,0.5
					h-2.2l1,1.2l-1.1-0.8l1.1,2.4l-1.8-2v1.1l-0.4-1.1l-0.9,2.8l0.3-2.8l-0.9,1l0.9-1.5l-2.6,1.5l2.7-1.8l-3.7,0.4l3.4-0.7l-2.1-0.5
					l1.7,0.2l-0.5-1l1.1,0.7l-1.2-3.1l1.6,2.7l-0.2-1.2L230.6,169.2z"/>
			</g>
			<g id="Caminho_17392">
				<path class="st3" d="M77.5,249.3V246l0.8,3.3l1.2-3l-0.6,3.7c0,0,2.6-1.8,2.8-2s-2.3,3.4-2.3,3.4l4.7-1.3l-4.2,2.5l4.2,0.9h-4.3
					l1.9,2.5l-2.3-1.6l2.2,4.9l-3.5-4v2.1l-0.8-2.3l-1.8,5.7l0.5-5.6l-1.8,2.1l1.7-3.1l-5.2,2.9l5.3-3.5l-7.3,0.8l6.9-1.4l-4.2-1
					l3.4,0.4l-1.1-2l2.3,1.4l-2.5-6.2l3.3,5.2l-0.4-2.4L77.5,249.3z"/>
			</g>
			<g id="Caminho_17393">
				<path class="st1" d="M84.9,73.3v-4.6l1.1,4.6l1.7-4.1L87,74.3c0,0,3.7-2.5,4-2.8s-3.3,4.8-3.3,4.8l6.6-1.8L88.4,78l5.9,1.3
					l-6-0.1l2.7,3.5l-3.3-2.2l3.2,6.8L86,81.8v3l-1.1-3.2l-2.4,8l0.7-7.8l-2.5,2.9l2.4-4.3l-7.3,4.1l7.4-4.9l-10.3,1.1l9.6-2
					l-5.9-1.5l4.8,0.5L80,74.9l3.2,2l-3.5-8.7l4.6,7.4l-0.6-3.4L84.9,73.3z"/>
			</g>
			<g id="Caminho_17394">
				<path class="st3" d="M240.2,93.2v-4.7l1.2,4.8l1.8-4.2l-0.8,5.3c0,0,3.8-2.5,4.1-2.8s-3.4,4.9-3.4,4.9l6.8-1.9l-6.1,3.5l6.1,1.3
					l-6.2-0.1l2.7,3.6l-3.3-2.2l3.2,7l-5-5.7v3.1l-1.2-3.3l-2.5,8.2l0.8-8l-2.5,3l2.5-4.4l-7.5,4.2l7.6-5l-10.5,1.1l9.9-2l-6.1-1.5
					l4.9,0.5l-1.5-2.9l3.3,2l-3.6-9l4.7,7.6l-0.6-3.5L240.2,93.2z"/>
			</g>
		</g>
		<g id="Grupo_10241">
			<g id="Caminho_17395">
				<path class="st0" d="M197.3,134.1c-3.6-1-7.4,0.5-10.6,2.2c-3.6,1.9-8.2,5.1-10.8,8.3c-5.1,6.3-9.1,13.5-11.7,21.2
					c0,0,0,0,0.1,0c2.8-7,7.6-13.1,13.9-17.3c3.1-2.1,6.2-4.3,9.4-6.2s7-2.3,9.9-4.8C198.2,136.7,199,134.5,197.3,134.1z"/>
			</g>
			<g id="Caminho_17396">
				<path class="st1" d="M223.4,101.4c-2.4-2.4-5.5-2.2-8.7-1.1c-3.3,1-6.4,2.5-9.3,4.3c-5.7,3.6-11,7.9-15.7,12.7
					c-4.4,4.6-8.5,9.4-12.1,14.6c-3.6,5.3-6.2,10.8-9.3,16.4c-0.1,0.1,0.1,0.2,0.2,0.1c1.5-2.3,2.7-4.7,4.2-7
					c1.8-2.5,3.9-4.9,6.1-7.2c9.1-9.8,19.4-16.1,31.9-20.8C213.9,112.3,229.7,107.8,223.4,101.4z"/>
			</g>
			<g id="Caminho_17397">
				<path class="st1" d="M198.1,65c-7,0.1-12.8,7.1-16.6,12.2c-4.5,6-6.8,12.8-8.7,19.9c-3.7,14-6.9,28.4-6,42.9
					c0,0.1,0.2,0.1,0.2,0c1-14.2,6.3-27.7,12.4-40.4c2.7-5.7,6.1-11.1,10-16c3.8-4.7,9.5-8.6,11.4-14.6
					C201.3,67.3,200.1,65,198.1,65z"/>
			</g>
			<g id="Caminho_17398">
				<path class="st3" d="M226.7,76.5c-3.4-3.2-8.4-1-11.9,0.9c-4.5,2.4-8.5,5.4-12.1,9c-3,3.1-5.7,6.4-8,10
					c-1.1,1.7-2.1,3.4-3.1,5.2s-2.4,3.2-3.2,5c-0.1,0.2,0.1,0.2,0.2,0.1c1.8-2.9,5.4-5.9,8.2-7.9c3.1-2.3,6.4-4.4,9.8-6.3
					c3.5-2,7.2-3.9,10.9-5.6s7.5-2.8,9.7-6.7C227.8,78.9,227.6,77.5,226.7,76.5z"/>
			</g>
			<g id="Caminho_17399">
				<path class="st3" d="M273.2,115.1c-4.5-4.4-10.2-4.7-16.2-4.6c-6.7,0.2-13.4,1.2-19.9,3c-6.3,1.7-12.5,4.6-18.5,7.3
					c-2,0.9-4,1.9-6,3c-0.2,0.2-0.4,0.3-0.7,0.5c-1.1,0.9-2.3,1.7-3.4,2.7c1.1-0.3,2.3-0.6,3.3-0.9c2.7-0.9,5.4-1.7,8.2-2.3
					c8.1-1.8,16.4-3,24.8-3.3c9.2-0.5,18.3,0.5,27.2-2.2C273.4,117.9,274.4,116.2,273.2,115.1z"/>
			</g>
			<g id="Caminho_17400">
				<path class="st1" d="M286.3,141.6c-8.2-3.8-17.2-6.9-26.2-7.9c-9.4-1-19.3,0.2-28.6,1.6c-9.1,1.2-18,3.9-26.2,8
					c-8.3,4.2-15.5,9.6-23.1,14.8c-0.1,0.1-0.1,0.3,0.1,0.2c9.6-5.1,18.5-9.3,29.2-11.4c15.3-3.1,30.9-4.5,46.5-4.2
					c9.2,0.2,18.2,0.7,27.3,1.6C286.7,144.4,287.7,142.3,286.3,141.6z"/>
			</g>
			<g id="Caminho_17401">
				<path class="st3" d="M152.6,98.2c-1.4-8.7-4-17.1-7.7-25c-3.7-8.2-8.7-15.8-14.7-22.5c-2.8-3-5.8-5.6-9.1-8
					c-3.3-2.6-7.3-4-11.5-4.2c-1.6-0.1-3,2.2-1.7,3.4c2.7,2.3,5.3,4.8,8.1,7.1c3.3,2.5,6.3,5.4,9.1,8.4c5.2,6.4,9.7,13.3,13.4,20.7
					c7.5,14.2,14.4,29.7,15.7,46c0,0.2,0.2,0.1,0.2,0C155.1,115.5,153.9,106.7,152.6,98.2z"/>
			</g>
			<g id="Caminho_17402">
				<path class="st0" d="M164.6,62.7c-1.1-0.3-2.4,0.1-3.1,1.1c-3.3,4-2.2,9.7-2,14.4c0.1,1.1,0.5,2.1,0.5,3.2
					c0.1,1.4,0.2,2.8,0.3,4.1c0.2,2.4,0.5,4.9,0.6,7.3c0.9,10.2,0.9,20.5,0.1,30.7c0,0.3,0.4,0.2,0.4,0c2.4-10.6,4.2-21.4,6.1-32.2
					c0.4-2.5,0.8-5,1-7.5c0.1-1.1,0.2-2.1,0.3-3.2c0.1-1.4,0.6-3,0.5-4.4C169.3,71.9,169.4,64.7,164.6,62.7z"/>
			</g>
			<g id="Caminho_17403">
				<path class="st2" d="M178.5,68.4c0.4-0.6,0.7-1.2,1-1.9c0.1-0.5,0.2-1,0.4-1.5c0.7-2.6,1.6-5.2,2.2-7.9c1-4.1,2.1-11.2-3.9-11.8
					c-1.2,0-2.2,0.6-2.7,1.7c-1.2,3.4-0.1,6.8,0.9,10.1C177.2,60.3,179.2,65,178.5,68.4z"/>
			</g>
			<g id="Caminho_17404">
				<path class="st1" d="M152.9,132.6c-0.3-2.4-0.5-4.8-0.9-7.2c-1-5.7-3.3-10.8-5.6-16c-2.4-4.9-5.2-9.5-8.4-13.9
					c-3.4-4.7-6.8-8.6-11.9-11.4c-1.4-0.7-2.5,1.4-2,2.4c4.5,9.4,12.1,16.7,16.8,25.9c2.3,4.4,4.4,8.9,6.6,13.3
					c2.2,4.4,5.1,8.8,5.9,13.8c0,0.3,0.4,0.1,0.4-0.1C153.6,137.1,153.3,134.8,152.9,132.6z"/>
			</g>
			<g id="Caminho_17405">
				<path class="st2" d="M131.5,72.7c-1.9-2.4-3.8-5.1-7.1-4.6c-1.4,0.3-2.3,1.6-2,3c0.9,5.4,9,5.3,11.7,9.2c0.1,0.1,0.2,0,0.2-0.1
					C134.1,77.4,133.1,74.8,131.5,72.7z"/>
			</g>
			<g id="Caminho_17406">
				<path class="st2" d="M124.8,116.9c-1.5-0.7-2.7,1.6-1.7,2.7c5.9,6.5,11.9,12.7,17.2,19.7c2.7,3.6,5.1,7.3,7.4,11.2
					c2.3,4,5,7.6,6.8,11.9c0.1,0.3,0.5,0.1,0.5-0.2C154.2,143.5,141.6,125,124.8,116.9z"/>
			</g>
			<g id="Caminho_17407">
				<path class="st0" d="M136.6,116.7c-2.7-9-8.6-16.4-15.6-22.5s-16.6-15-26.8-12.2c-1.6,0.3-2.6,1.9-2.2,3.4
					c0,0.2,0.1,0.4,0.2,0.6c2.1,3.8,6.4,5.3,10.2,6.8c4.4,1.8,8.4,4.7,12.3,7.4s7.6,5.1,11.3,7.8s7.4,5.1,10.1,9
					C136.4,117.2,136.7,116.9,136.6,116.7z"/>
			</g>
			<g id="Caminho_17408">
				<path class="st3" d="M162.7,139.5c-0.2-1.2-1.9-0.7-2.2,0.1c-1.2,3.4-1.8,7.1-1.9,10.7c-0.1,1.9,0.1,3.9,0.4,5.8
					c0.3,1.5,1.1,3.9,0.8,5.5c0,0.2,0.1,0.4,0.3,0.4c0.1,0,0.3,0,0.4-0.2c0.4-0.7,0.7-1.5,0.7-2.4c0.2-2.4,0.7-4.8,1-7.2
					C162.7,148,163.5,143.7,162.7,139.5z"/>
			</g>
			<g id="Caminho_17409">
				<path class="st1" d="M150.2,163.7c-0.8-1.5-1.5-3.1-2.3-4.6c-1-1.7-2.2-3.3-3.4-4.9c-2.1-3-4.1-6-6.5-8.8
					c-5.1-6-10.9-11.3-17.2-15.9c-11.8-8.8-26.1-18.4-41.4-18c-1.2,0-2.9,2-1.4,2.9c2.7,1.5,5.5,2.9,8.3,4.1
					c3.4,1.6,6.6,3.4,10.1,4.8c7,3,13.7,7.4,20,11.6c6.1,4,12,8.4,17.5,13.1c2.7,2.4,5.4,4.8,8.1,7.2c2.9,2.6,5.6,5.5,7.9,8.6
					C150.1,164,150.2,163.8,150.2,163.7z"/>
			</g>
			<g id="Caminho_17410">
				<path class="st3" d="M114.1,113.1c-2.3-3-5.4-5.2-8.3-7.6c-3.7-3-7.7-5.8-11.8-8.4c-4-2.5-8.2-4.8-12.5-6.8
					c-4.4-2-8.8-4-13.7-2.6c-1.2,0.3-2.8,2.4-1.2,3.4c3.4,2.3,7.3,3.3,11,4.8c4.2,1.7,8.5,3.4,12.6,5.3s8.2,3.7,12.2,5.8
					c3.8,2,8,3.8,11.2,6.6C113.9,113.9,114.4,113.4,114.1,113.1z"/>
			</g>
			<g id="Caminho_17411">
				<path class="st3" d="M146.2,165.1c-1.5-2.5-3.6-4.6-6-6.2c-3.4-2.3-6.9-4.4-10.5-6.3c-3.8-2.1-8.3-2.8-12.4-3.9
					c-3-0.8-7.3-2.2-10.1-0.7c-1.2,0.6-2.3,2.7-0.9,3.8c2.2,1.6,6,1.2,8.6,1.9c3.9,1,7.7,2,11.6,3.2c3.5,1,6.8,2.2,10.1,3.7
					c1.6,0.8,3,1.7,4.7,2.3c1.7,0.6,3.4,1.3,4.9,2.3C146.1,165.2,146.2,165.1,146.2,165.1z"/>
			</g>
			<g id="Caminho_17412">
				<path class="st0" d="M97.4,146.7c-4.7-0.8-9.2-2.1-14-2.9s-9.6-1.3-14.5-1.7c-9.4-0.8-20.1,0-28,5.4c-1.5,1-1.8,4.4,0.6,4.4
					c4.5,0.1,8.6-1.5,12.9-2.7c4.6-1.2,9.3-2.1,14-2.6c4.8-0.5,9.6-0.5,14.4-0.5s9.6,0.5,14.5,0.6C97.5,146.9,97.6,146.7,97.4,146.7
					z"/>
			</g>
			<g id="Caminho_17413">
				<path class="st3" d="M113.7,140.1c-3.8-1.9-7.2-4.4-11.2-5.9c-4.1-1.6-8.1-3.7-12.2-5.1c-3.8-1.2-7.7-2.1-11.7-2.8
					c-4.4-0.9-8.4-1.6-12.8,0c-1.2,0.4-1.9,2.8-0.4,3.3c3.6,0.9,7.2,1.5,10.8,2c4.2,0.7,8.5,1.5,12.7,2.5c8.2,2,16.4,4.3,24.6,6.3
					C113.7,140.3,113.8,140.2,113.7,140.1z"/>
			</g>
			<g id="Caminho_17414">
				<path class="st1" d="M123.5,161.3c-2.7-0.4-5.3-1.3-8.1-1.8c-3.6-0.6-7.1-1.4-10.7-2c-6.8-1.1-13.7-1.7-20.6-1.8
					c-12.5,0.1-30.5,0.6-38.5,12c-1.1,1.6-1,4,1.3,4.4c5.9,1,12.4-2.7,17.9-4.3c6.4-1.7,12.9-3,19.5-3.9c6.6-0.9,13.3-1.8,20-2.4
					c3.6-0.3,7.2-0.5,10.8-0.5c2.8,0,5.6,0.5,8.4,0.5C123.6,161.6,123.7,161.4,123.5,161.3z"/>
			</g>
			<g id="Caminho_17415">
				<path class="st3" d="M122,167.5c-4.8-1.4-9.9-1.9-14.9-1.4c-6.3,0.6-13,2.8-17.7,7.2c-1.6,1.5-1.6,4.7,1.2,4.3
					c5.4-0.7,10.4-3.4,15.5-5.1s10.3-4,15.8-4.8C122.1,167.8,122.2,167.5,122,167.5z"/>
			</g>
			<g id="Caminho_17416">
				<path class="st1" d="M112.3,178.4c-7.5,2.8-14.8,6-22,9.6c-7.8,4.1-15,9.2-21.4,15.1c-6.3,5.7-11.7,12.4-15.9,19.8
					c-2,3.6-3.7,7.4-5,11.4c-1.1,3.5-2.7,8.7-1.4,12.3c0.6,1.6,2.4,2.5,4.1,1.9c0,0,0,0,0,0c0.4-0.2,0.8-0.4,1.1-0.7
					c2.7-2.3,4.5-6.2,5.9-9.4s2.7-6.7,4.3-10c3.3-6.8,8-13,12.7-18.9c10.4-12.9,23.7-22.5,37.8-30.9
					C112.4,178.5,112.4,178.3,112.3,178.4z"/>
			</g>
			<g id="Caminho_17417">
				<path class="st3" d="M144.1,180.9c-11.7,8.1-22.2,19-30.8,30.4c-4.7,6.2-8,13.8-11.3,20.9c-3,6.5-5.4,14.5-4.7,21.7
					c0.1,1,1,1.7,2,1.6c0.6-0.1,1.1-0.4,1.4-0.9c4-5.3,6.7-12.2,9.2-18.3c2.8-6.9,6-13.6,9.5-20.2c3.2-6,7.1-11.6,10.7-17.4
					c3.9-6.4,8.6-12.3,14-17.6C144.3,180.9,144.2,180.8,144.1,180.9z"/>
			</g>
			<g id="Caminho_17418">
				<path class="st0" d="M111.2,199.2c-7.4,5.1-14.9,10.1-21,16.7c-6.6,7.1-12.2,15.4-14.4,24.9c-0.9,4.1,4.3,4.2,5.8,1.2
					c4.1-7.8,8-15.4,12.8-22.8c4.7-7.4,10.4-14.1,17-19.9C111.6,199.3,111.4,199,111.2,199.2z"/>
			</g>
			<g id="Caminho_17419">
				<path class="st3" d="M92.3,238.7c-2.7,4.4-6,8.6-7.7,13.5c-1.9,5.6-3,11.5-3,17.5c0,2.7,3.6,1.7,4.1-0.3
					c2.5-10.2,3.9-20.5,6.8-30.7C92.6,238.6,92.4,238.6,92.3,238.7z"/>
			</g>
			<g id="Caminho_17420">
				<path class="st2" d="M139.7,175.6c-14.9,2.9-34.2,6.1-41.9,21.1c-0.5,0.8-0.3,1.9,0.6,2.5c0.5,0.3,1.2,0.4,1.7,0.1
					c3.4-1.5,6.2-3.8,9-6.2s6-4.7,9-6.9c6.8-4.8,14-7.4,21.7-10.3C139.9,175.8,139.9,175.5,139.7,175.6z"/>
			</g>
			<g id="Caminho_17421">
				<path class="st3" d="M76.9,188c-8.2,1.7-16.3,4.4-23.2,9.1c-3.8,2.6-7.2,5.7-10.2,9.1c-2.6,2.9-5.5,7-5.2,11.2
					c0,1.2,1,2.2,2.2,2.1c0.3,0,0.7-0.1,1-0.3c3.3-1.3,5.7-4.3,7.9-7c2.5-3.2,5.3-6.2,8.3-9C63.8,197.5,69.4,192,76.9,188
					C77,188.2,77.1,188,76.9,188z"/>
			</g>
			<g id="Caminho_17422">
				<path class="st1" d="M154.9,187.3c0-0.3-0.4-0.3-0.5,0c-4.8,11.8-9.6,23.9-9,36.9c0.2,3.5,4.5,2.2,5.2-0.4
					C153.9,212,155,199.5,154.9,187.3z"/>
			</g>
			<g id="Caminho_17423">
				<path class="st3" d="M161.5,177.5c0-0.2-0.2-0.1-0.3,0c-0.7,4.9-1.7,9.6-2.2,14.6c-0.5,5.4-1.2,10.8-1.5,16.2
					c-0.5,10.9-2.2,22.4-0.3,33.2c0.4,2.2,3.3,0.7,3.6-0.7c1.3-5.2,1.6-10.9,1.8-16.2s0.6-10.9,0.7-16.3
					C163.3,197.9,162.7,187.7,161.5,177.5z"/>
			</g>
			<g id="Caminho_17424">
				<path class="st0" d="M143.5,202c-3.9,7.6-8.5,14.6-11.6,22.5c-1.5,3.9-2.8,7.9-3.9,11.9c-1,4.1-1.5,8.2-1.4,12.4
					c-0.1,2.9,3.7,2.4,4.6,0.3c3.3-7.6,4.6-15.4,6.8-23.4c1.1-4.1,1.6-8.4,2.6-12.5C141.4,209.5,142.7,205.8,143.5,202
					C143.7,201.9,143.6,201.9,143.5,202z"/>
			</g>
			<g id="Caminho_17425">
				<path class="st2" d="M114.7,240.7c-0.7,1.3-1.4,2.7-2.1,4.1c-3,6.2-7.2,15.1-4.8,22.1c0.7,2,3.1,1.7,4.2,0.3
					c4.7-6,5.3-14.8,7.3-22c1-3.6,2-7.3,3-10.9c0.5-1.9,1.7-4.2,2.2-6.4C121.4,232.2,117.9,236.4,114.7,240.7z"/>
			</g>
			<g id="Caminho_17426">
				<path class="st3" d="M148.3,255.7c-0.1-5.4-0.4-10.9-0.6-16.3c0-0.4-0.4-0.2-0.5,0c-3.2,11-7,22.7-5.2,34.2
					c0.5,3.1,4.6,0.9,5.1-1C148.6,267.1,148.4,261.5,148.3,255.7z"/>
			</g>
			<g id="Caminho_17427">
				<path class="st2" d="M154.3,176.6c-3.3,3.3-7.2,5.7-10.2,9.2c-3.1,3.4-5.4,7.4-6.8,11.8c-0.4,1.6,1.7,2.2,2.6,1
					c2.3-3.4,4.1-7,6.2-10.5c2.4-4.1,5.9-7.3,8.5-11.3C154.6,176.6,154.4,176.5,154.3,176.6z"/>
			</g>
			<g id="Caminho_17428">
				<path class="st2" d="M73.3,177.1c-5.2,0.3-10.5,2-15.4,3.7C51.8,183,46,185.9,42,191.2c-1.2,1.6-0.6,4.1,1.7,3.8
					c5.7-0.8,10-4.9,14.5-8.1c4.7-3.4,9.6-7.4,15.1-9.4C73.4,177.4,73.5,177.1,73.3,177.1z"/>
			</g>
			<g id="Caminho_17429">
				<path class="st3" d="M187.1,221.4c-1.7-5.8-3.5-11.6-5.6-17.4c-2-5.6-4.5-11.1-7.5-16.3c-1.5-2.4-3.1-4.7-5-6.8
					c-0.8-0.9-1.5-2-2.3-2.9s-2-1.6-2.4-2.6c-0.1-0.1-0.2,0-0.2,0.1c0.2,0.6,0.5,1.2,0.9,1.6c0.8,1.3,1.5,2.7,2,4.1
					c1.1,2.6,1.8,5.4,2.7,8.1c1.9,5.9,4.3,11.6,6.2,17.5c1.8,5.5,3.4,10.9,5.1,16.4s3.1,11.2,5.3,16.6c0.7,1.7,2.8,0.5,2.9-1
					C189.3,232.9,188.6,227,187.1,221.4z"/>
			</g>
			<g id="Caminho_17430">
				<path class="st3" d="M212.1,249.8c-2-5.3-4.2-10.6-6.7-15.6c-2.3-4.7-4.7-9.5-7.4-13.9c-1.4-2.3-2.9-4.5-4.6-6.6
					c1.7,5.8,2.7,11.8,4.2,17.6c0.5,1.8,1.1,3.6,1.7,5.4c1.7,5.2,3.6,10.3,5.4,15.4c1.7,4.8,3.1,9.6,6.6,13.5c0.6,0.6,1.7,0.6,2.3,0
					c0.3-0.3,0.4-0.6,0.5-1C214.7,259.6,214,254.5,212.1,249.8z"/>
			</g>
			<g id="Caminho_17431">
				<path class="st1" d="M175.8,297.4c1.3,1.8,3.1,3.1,4.9,0.9c0.6-0.7,1.1-1.5,1.5-2.3c1.1-5.5,0.7-11.5,0.5-16.7
					c-0.4-10-0.7-20-2.3-29.9c-1.5-9.6-5.1-18.2-8.2-27.4c1.4,4.1,0.4,10.4,0.4,14.7c0,5.1-0.1,10.3-0.1,15.4
					c-0.1,9.6,0.3,19.2,1.2,28.8c0.4,3.9,0.6,7.9,0.9,11.8C174.8,294.3,175.2,295.9,175.8,297.4z"/>
			</g>
			<g id="Caminho_17432">
				<path class="st3" d="M223.2,240.8c-1.4-6.9-4.2-13.4-8.2-19.2c-3.9-5.5-7.9-11-11.9-16.4c-4.3-5.7-9.1-10.9-14.4-15.8
					c-5-4.6-10.9-9.2-17.3-11.6c-0.1-0.1-0.2,0.1-0.1,0.2c5.6,3.7,9.7,9.8,13.8,15c4.5,5.7,8.5,11.8,12.9,17.7
					c3.6,4.9,7.1,9.9,10.6,14.8c4,5.7,7.2,11.8,11.3,17.4C221.2,244.7,223.6,242.6,223.2,240.8z"/>
			</g>
			<g id="Caminho_17433">
				<path class="st1" d="M250,254.5c-1.5-6.7-4-13.1-7.4-19.1c-5.1-8.8-11.3-16.9-18.3-24.1c-6.9-7.1-14.2-11.4-22.7-16.2
					c-0.2-0.1-0.3,0.2-0.2,0.3c1.9,2,4.2,3.7,6,5.8c10.6,12.3,20.2,25.4,28.7,39.3c3.3,5.7,7.1,11,11.6,15.8
					C248.7,257.4,250.2,255.6,250,254.5z"/>
			</g>
			<g id="Caminho_17434">
				<path class="st3" d="M281.1,170.8c-6.6-6-14.7-8.8-23.3-10.7c-18.4-4-34.9-5.1-53.5-1.8c-8.7,1.4-17.1,4-25,7.8
					c-0.1,0.1-0.1,0.2,0.1,0.2c16.4-5.7,34.3-4.7,51.2-2.1c8.1,1.2,16.1,2.8,24.1,4.6c8.3,1.9,16.1,4.8,24.6,5.7
					C281.1,174.7,282.6,172.1,281.1,170.8z"/>
			</g>
			<g id="Caminho_17435">
				<path class="st3" d="M291.1,199.7c-0.4-5.2-5.2-7.6-9.2-9.9c-5.2-2.9-10.6-5.4-16.2-7.4c-5.3-2-10.6-3.6-16.1-5
					c-5.4-1.3-11-2.8-16.5-3.8c-0.1,0-0.1,0.1-0.1,0.2c10.1,3.4,20,7.7,29.4,12.8c4.4,2.3,8.7,4.8,12.9,7.5
					C276.7,195,291.7,207.1,291.1,199.7z"/>
			</g>
			<g id="Caminho_17436">
				<path class="st2" d="M258.9,197.8c-10-10.2-23.7-17-37.1-21.7c-6.6-2.2-13.4-3.9-20.3-5.1c-3.5-0.7-7-1.1-10.5-1.1
					c-2.2-0.1-4.8-0.2-6.9,0.7c-0.1,0.1-0.1,0.3,0,0.3c2.9-0.5,6.1,0.9,8.8,1.7c3.1,1,6.2,1.9,9.2,3.2c6.2,2.5,12.5,4.6,18.6,7.3
					c12.3,5.5,24.4,11.4,36.8,16.6C258.7,200.2,259.6,198.6,258.9,197.8z"/>
			</g>
			<g id="Caminho_17437">
				<path class="st1" d="M258.4,220.6c-2.7-6.8-9.3-11.1-14.9-15.3c-5.5-4.1-11.2-7.9-17.1-11.3c-12.1-6.8-25.9-13.8-39.9-15.7
					c-0.1,0-0.1,0.1-0.1,0.2c6.1,2.4,11.7,6.5,17.5,9.6c6.1,3.3,12.1,6.9,18.1,10.4c5.8,3.3,11.3,7.1,16.6,11.1
					c2.9,2.2,5.9,4.3,8.6,6.7c2.9,2.5,5.3,5,9,6.4C257.4,223.3,258.9,221.8,258.4,220.6z"/>
			</g>
			<g id="Caminho_17438">
				<path class="st2" d="M288.8,244.8c0.3-2.6-2.7-8.2-3.2-9.2c-3-6.1-6.9-11.8-11.5-16.8c-6.3-6.9-14.9-13.8-24.3-15.8
					c-0.1,0-0.3,0.2-0.1,0.3c5.2,3.4,8.5,8.9,12.5,13.6c5.3,6.3,10.9,12.4,15.8,19c1.8,2.4,6.4,10.6,9.9,10.2
					C288.4,246,288.7,245.5,288.8,244.8z"/>
			</g>
			<g id="Caminho_17439">
				<path class="st3" d="M261.8,245.1c-3-4.1-6.2-8-9.7-11.7c-3.5-3.5-7.3-6.8-11.2-9.8c-0.2-0.1-0.4,0.1-0.3,0.3
					c3.1,3.4,6,7,8.7,10.8c2.8,4.1,5.3,8.5,7.7,12.9c4.6,8.6,8.7,17.4,13.9,25.7c1.1,1.8,3.8,0,3.6-1.7
					C273.8,261.7,267.4,252.8,261.8,245.1z"/>
			</g>
			<g id="Caminho_17440">
				<path class="st0" d="M160.6,271.2c-0.3-2.3-0.8-4.7-1.4-7c-0.5-1.9-0.6-3.8-1.1-5.7c-0.2-0.5-0.9-0.1-0.9,0.3
					c-0.2,2-0.5,4-1.1,6c-0.5,2.5-0.6,5-0.9,7.4c-0.6,4.4-1.1,8.9,0.7,13c0.8,1.8,3.6,0.5,4.1-0.8
					C161.6,280.2,161.3,275.7,160.6,271.2z"/>
			</g>
			<g id="Caminho_17441">
				<path class="st2" d="M303.1,164.5c-0.7-6.9-9.4-9.6-15.1-11c-3.8-0.9-7.6-1.5-11.5-1.7c-3.5-0.2-7.1-0.7-10.6-0.1
					c-0.2,0-0.3,0.4-0.1,0.4c6.1,1.8,12.1,5.1,17.9,7.8c2.9,1.2,5.7,2.6,8.4,4.2c2.5,1.5,5.3,3.3,8.4,3.1
					C301.9,167.1,303.1,165.9,303.1,164.5z"/>
			</g>
			<g id="Caminho_17442">
				<path class="st3" d="M234.7,127.1c-2.5-0.5-5.1-0.5-7.6,0.1c-4,1.1-7.8,2.9-11.2,5.3c6-1.6,12.5-0.9,18.4-2.7
					C235.6,129.3,236.3,127.4,234.7,127.1z"/>
			</g>
		</g>
	</g>
</g>
</svg>
