<?xml version="1.0" encoding="utf-8"?>
<!-- Generator: Adobe Illustrator 25.4.1, SVG Export Plug-In . SVG Version: 6.00 Build 0)  -->
<svg version="1.1" id="Hospital" xmlns="http://www.w3.org/2000/svg" xmlns:xlink="http://www.w3.org/1999/xlink" x="0px" y="0px"
	 viewBox="0 0 200 200" style="enable-background:new 0 0 200 200;" xml:space="preserve">
<style type="text/css">
	.st0{fill:#5A316B;}
</style>
<path class="st0" d="M56.8,19c-1.5,0-2.7,1.2-2.7,2.7v10.8c0,1.5,1.2,2.7,2.7,2.7c0,0,0,0,0,0h75.7v129.7h-10.8v-40.5
	c0-1.5-1.2-2.7-2.7-2.7h-38c-1.4,0.1-2.5,1.3-2.6,2.7v32.4c0,1.5,1.2,2.7,2.7,2.7c1.5,0,2.7-1.2,2.7-2.7V127h13.5v37.8H67.6V43.3
	c0.1-1.5-1-2.8-2.5-2.9c-1.5-0.1-2.8,1-2.9,2.5c0,0.1,0,0.2,0,0.3v13.5H21.6c-1.5,0-2.6,1.2-2.6,2.7v10.8c0,1.5,1.2,2.7,2.6,2.7
	h32.4c1.5-0.1,2.6-1.4,2.5-2.9c-0.1-1.4-1.2-2.5-2.5-2.5H24.3v-5.4h37.8v102.7H29.7V81.1c0-1.5-1.2-2.7-2.7-2.7s-2.7,1.2-2.7,2.7
	c0,0,0,0,0,0v83.8h-2.7c-1.5,0-2.6,1.2-2.6,2.7l0,0v10.8c0,1.5,1.2,2.7,2.7,2.7c0,0,0,0,0,0h156.7c1.5,0,2.7-1.2,2.7-2.7
	c0,0,0,0,0,0v-10.8c0-1.5-1.2-2.7-2.7-2.7c0,0,0,0,0,0h-2.7V73h2.7c1.5,0,2.7-1.2,2.7-2.7c0,0,0,0,0,0V59.5c0-1.5-1.2-2.7-2.7-2.7
	c0,0,0,0,0,0h-40.6V35.2h5.4c1.5,0,2.7-1.2,2.7-2.7c0,0,0,0,0,0V21.6c0-1.5-1.2-2.6-2.7-2.6H56.8z M59.5,24.4h81.1v5.4H59.5
	L59.5,24.4z M94.4,46c-1.4,0.1-2.6,1.3-2.6,2.7v8.1h-8.1c-1.5,0-2.7,1.2-2.7,2.7v10.8c0,1.5,1.2,2.7,2.7,2.7h8.1v8.1
	c0,1.5,1.2,2.7,2.7,2.7c0,0,0,0,0,0h10.8c1.5,0,2.7-1.2,2.7-2.6c0,0,0,0,0,0V73h8.1c1.5,0,2.7-1.2,2.7-2.7V59.5
	c0-1.5-1.2-2.7-2.7-2.7c0,0,0,0,0,0h-8.1v-8.1c0-1.5-1.2-2.7-2.7-2.7c0,0,0,0,0,0H94.4z M97.3,51.4h5.4v8.1c0,1.5,1.2,2.7,2.7,2.7
	h8.1v5.4h-8.1c-1.5,0-2.7,1.2-2.7,2.7v8.1h-5.4v-8.1c0-1.5-1.2-2.7-2.7-2.7h-8.1v-5.4h8.1c1.5,0,2.7-1.2,2.7-2.7L97.3,51.4z
	 M137.8,62.2h37.8v5.4h-29.7c-3.6,0-3.6,5.4,0,5.4h24.3v91.9h-32.4V62.2z M40.5,83.8c-1.5,0-2.7,1.2-2.7,2.7v10.8
	c0,1.5,1.2,2.7,2.7,2.7c0,0,0,0,0,0h10.8c1.5,0,2.7-1.2,2.7-2.7c0,0,0,0,0,0V86.5c0-1.5-1.2-2.7-2.7-2.7c0,0,0,0,0,0H40.5z
	 M148.6,83.8c-1.5,0-2.7,1.2-2.7,2.7c0,0,0,0,0,0v10.8c0,1.5,1.2,2.7,2.7,2.7c0,0,0,0,0,0h10.8c1.5,0,2.7-1.2,2.7-2.7c0,0,0,0,0,0
	V86.5c0-1.5-1.2-2.7-2.7-2.7c0,0,0,0,0,0H148.6z M43.3,89.2h5.4v5.4h-5.4V89.2z M151.3,89.2h5.4v5.4h-5.4V89.2z M81.1,94.6
	c-1.5,0-2.7,1.2-2.7,2.7v10.8c0,1.5,1.2,2.7,2.7,2.7c0,0,0,0,0,0h10.8c1.5,0,2.7-1.2,2.7-2.7c0,0,0,0,0,0V97.3
	c0-1.5-1.2-2.7-2.7-2.7c0,0,0,0,0,0H81.1z M108.1,94.6c-1.5,0-2.7,1.2-2.7,2.7c0,0,0,0,0,0v10.8c0,1.5,1.2,2.7,2.7,2.7c0,0,0,0,0,0
	h10.8c1.5,0,2.7-1.2,2.7-2.7c0,0,0,0,0,0V97.3c0-1.5-1.2-2.7-2.7-2.7H108.1z M83.8,100h5.4v5.4h-5.4V100z M110.8,100h5.4v5.4h-5.4
	V100z M40.5,108.1c-1.5,0-2.7,1.2-2.7,2.7v10.8c0,1.5,1.2,2.7,2.7,2.7h10.8c1.5,0,2.7-1.2,2.7-2.7c0,0,0,0,0,0v-10.8
	c0-1.5-1.2-2.7-2.7-2.7c0,0,0,0,0,0H40.5z M148.6,108.1c-1.5,0-2.7,1.2-2.7,2.7c0,0,0,0,0,0v10.8c0,1.5,1.2,2.7,2.7,2.7c0,0,0,0,0,0
	h10.8c1.5,0,2.7-1.2,2.7-2.7c0,0,0,0,0,0v-10.8c0-1.5-1.2-2.7-2.7-2.7c0,0,0,0,0,0H148.6z M43.3,113.5h5.4v5.4h-5.4V113.5z
	 M151.3,113.5h5.4v5.4h-5.4V113.5z M102.7,127h13.5v37.8h-13.5V127z M40.4,132.4c-1.4,0.1-2.5,1.3-2.6,2.7v10.8
	c0,1.5,1.2,2.7,2.7,2.7h10.8c1.5,0,2.7-1.2,2.7-2.7v-10.8c0-1.5-1.2-2.7-2.7-2.7L40.4,132.4z M148.5,132.4c-1.4,0.1-2.6,1.3-2.6,2.7
	v10.8c0,1.5,1.2,2.7,2.7,2.7c0,0,0,0,0,0h10.8c1.5,0,2.7-1.2,2.7-2.7v-10.8c0-1.5-1.2-2.7-2.7-2.7L148.5,132.4z M43.3,137.8h5.4v5.4
	h-5.4V137.8z M151.3,137.8h5.4v5.4h-5.4V137.8z M24.3,170.2h151.3v5.4H24.3L24.3,170.2z"/>
</svg>
