<svg version="1.1" id="Layer_1" xmlns="http://www.w3.org/2000/svg" width="30" height="30" viewBox="0 0 30 30">
<path id="_x3C_Compound_Path_x3E_" fill="#59316D" d="M29.42,14.43L15.64,0.71c-0.33-0.35-0.89-0.37-1.24-0.04
	c-0.01,0.01-0.03,0.03-0.04,0.04L0.58,14.43c-0.27,0.25-0.35,0.65-0.2,0.99c0.14,0.35,0.47,0.57,0.84,0.57h3.29v12.67
	c0,0.51,0.41,0.91,0.91,0.91h19.15c0.51,0,0.91-0.41,0.91-0.91V15.99h3.29c0.37,0,0.71-0.22,0.84-0.57
	C29.78,15.08,29.7,14.69,29.42,14.43z M17.27,27.81h-4.54v-6.88h4.54V27.81z M24.59,14.23c-0.51,0-0.91,0.41-0.91,0.91c0,0,0,0,0,0
	v12.67H19.1v-7.8c0-0.51-0.41-0.91-0.91-0.91c0,0,0,0,0,0h-6.37c-0.51,0-0.91,0.41-0.91,0.91c0,0,0,0,0,0v7.8H6.34V15
	c0-0.51-0.41-0.91-0.91-0.91l0,0h-2L15,2.65l11.57,11.51L24.59,14.23z"/>
</svg>
