<svg xmlns="http://www.w3.org/2000/svg" width="268.576" height="185.713" viewBox="0 0 268.576 185.713"><defs><style>.a{fill:#bc7261;}.b{fill:#975b4e;}.c{opacity:0.2;isolation:isolate;}.d{fill:#59316d;}.e{fill:none;}</style></defs><g transform="translate(143.581 901.495)"><g transform="translate(-143.581 -900.492)"><g transform="translate(5.2 71.845)"><rect class="a" width="251.172" height="111.864" rx="2.24"/></g><g transform="translate(79.525)"><path class="b" d="M-20.069-846.959h-65.2a18.676,18.676,0,0,1-18.647-18.647v-16.742a18.675,18.675,0,0,1,18.647-18.647h65.2A18.645,18.645,0,0,1-1.422-882.348h0v16.662a18.647,18.647,0,0,1-18.563,18.731h-.084Zm-65.2-40.342a5.036,5.036,0,0,0-4.983,4.955v16.662a5.038,5.038,0,0,0,5.037,5.037h65.2a5.036,5.036,0,0,0,5.037-5.037v-16.662a5.035,5.035,0,0,0-5.037-5.037Z" transform="translate(103.919 900.995)"/></g><g class="c" transform="translate(5.199 71.845)"><path class="d" d="M104.059-865.163H-134.863a6.1,6.1,0,0,0-6.125,6.069v32.017l124.416,24.5a5.49,5.49,0,0,0,2.314,0l124.442-24.5v-31.989a6.1,6.1,0,0,0-6.1-6.1Z" transform="translate(140.988 865.163)"/></g><g transform="translate(0 30.956)"><path class="a" d="M112.954-813.468l-124.661,24.5a6.755,6.755,0,0,1-2.342,0l-124.661-24.5a6.043,6.043,0,0,1-4.872-5.907v-60.166a6.015,6.015,0,0,1,6.015-6.015h249.43a6.015,6.015,0,0,1,6.015,6.015v60.274A6.013,6.013,0,0,1,112.954-813.468Z" transform="translate(143.581 885.556)"/></g><g transform="translate(112.138 111.238)"><rect class="b" width="37.324" height="27.85" rx="2.12"/></g><g transform="translate(112.138 111.238)"><rect class="e" width="37.324" height="27.85" rx="2.12"/></g></g><g transform="translate(-143.581 -900.492)"><g transform="translate(5.2 71.845)"><rect class="a" width="251.172" height="111.864" rx="2.24"/></g><g transform="translate(79.525)"><path class="b" d="M-20.069-846.959h-65.2a18.676,18.676,0,0,1-18.647-18.647v-16.742a18.675,18.675,0,0,1,18.647-18.647h65.2A18.645,18.645,0,0,1-1.422-882.348h0v16.662a18.647,18.647,0,0,1-18.563,18.731h-.084Zm-65.2-40.342a5.036,5.036,0,0,0-4.983,4.955v16.662a5.038,5.038,0,0,0,5.037,5.037h65.2a5.036,5.036,0,0,0,5.037-5.037v-16.662a5.035,5.035,0,0,0-5.037-5.037Z" transform="translate(103.919 900.995)"/></g><g class="c" transform="translate(5.199 71.845)"><path class="d" d="M104.059-865.163H-134.863a6.1,6.1,0,0,0-6.125,6.069v32.017l124.416,24.5a5.49,5.49,0,0,0,2.314,0l124.442-24.5v-31.989a6.1,6.1,0,0,0-6.1-6.1Z" transform="translate(140.988 865.163)"/></g><g transform="translate(0 30.956)"><path class="a" d="M112.954-813.468l-124.661,24.5a6.755,6.755,0,0,1-2.342,0l-124.661-24.5a6.043,6.043,0,0,1-4.872-5.907v-60.166a6.015,6.015,0,0,1,6.015-6.015h249.43a6.015,6.015,0,0,1,6.015,6.015v60.274A6.013,6.013,0,0,1,112.954-813.468Z" transform="translate(143.581 885.556)"/></g><g transform="translate(112.138 111.238)"><rect class="b" width="37.324" height="27.85" rx="2.12"/></g><g transform="translate(112.138 111.238)"><rect class="e" width="37.324" height="27.85" rx="2.12"/></g></g><g transform="translate(-138.47 -901.495)"><g transform="translate(94.093 14.615)"><path class="e" d="M-23.863-894.206l-65.257.082a5.037,5.037,0,0,0-4.985,4.955v12.307h75.276v-12.307A5.035,5.035,0,0,0-23.863-894.206Z" transform="translate(94.104 894.206)"/></g><g transform="translate(79.426)"><path class="d" d="M3.083-868.534H-12.479v-13.309a4.037,4.037,0,0,0-4.032-4.034l-65.255.082a4.013,4.013,0,0,0-3.984,3.96v13.3h-15.67v-13.312a19.711,19.711,0,0,1,19.65-19.65h65.2a19.671,19.671,0,0,1,19.65,19.65Zm-13.556-2.005H1.078v-11.306A17.664,17.664,0,0,0-16.567-899.49h-65.2a17.7,17.7,0,0,0-17.647,17.647v11.3h11.659v-11.323a6.009,6.009,0,0,1,5.975-5.939l65.267-.082a6.044,6.044,0,0,1,6.039,6.039Z" transform="translate(101.419 901.495)"/></g><g transform="translate(5.103 102.86)"><path class="d" d="M109.194-767.342H-132.993a5.5,5.5,0,0,1-5.494-5.492v-77.329l108.943,21.414v11.535a3.251,3.251,0,0,0,3.248,3.248H2.527a3.253,3.253,0,0,0,3.248-3.248v-11.575L114.688-850.2v77.361A5.5,5.5,0,0,1,109.194-767.342Zm-245.676-80.383v74.891a3.491,3.491,0,0,0,3.489,3.487H109.194a3.491,3.491,0,0,0,3.489-3.487v-74.923L7.78-827.139v9.925a5.261,5.261,0,0,1-5.253,5.253H-26.3a5.26,5.26,0,0,1-5.253-5.253V-827.1Z" transform="translate(138.487 850.195)"/></g><g transform="translate(0 30.956)"><path class="d" d="M-26.892-790.663l-108.46-21.32a7.064,7.064,0,0,1-5.68-6.887v-60.168a7.025,7.025,0,0,1,7.018-7.018h249.43a7.025,7.025,0,0,1,7.018,7.018v60.274a7.046,7.046,0,0,1-5.745,6.783L8.429-790.7v-9.819a3.251,3.251,0,0,0-3.248-3.248H-23.642a3.252,3.252,0,0,0-3.25,3.248Zm-107.122-93.388a5.017,5.017,0,0,0-5.013,5.013v60.166a5.051,5.051,0,0,0,4.062,4.923l.327.064L-28.9-793.1v-7.419a5.26,5.26,0,0,1,5.255-5.253H5.181a5.26,5.26,0,0,1,5.253,5.253v7.38l105.713-20.778a5.086,5.086,0,0,0,4.281-4.866v-60.254a5.017,5.017,0,0,0-5.013-5.013Z" transform="translate(141.032 886.056)"/></g><g transform="translate(112.041 111.239)"><path class="d" d="M-51.077-816.161H-79.9a5.26,5.26,0,0,1-5.253-5.253v-19.349a5.258,5.258,0,0,1,5.253-5.253h28.823a5.26,5.26,0,0,1,5.253,5.253v19.349A5.261,5.261,0,0,1-51.077-816.161ZM-79.9-844.011a3.25,3.25,0,0,0-3.248,3.248v19.349a3.251,3.251,0,0,0,3.248,3.248h28.823a3.253,3.253,0,0,0,3.248-3.248v-19.349a3.251,3.251,0,0,0-3.248-3.248Z" transform="translate(85.153 846.016)"/></g></g></g></svg>