<svg xmlns="http://www.w3.org/2000/svg" xmlns:xlink="http://www.w3.org/1999/xlink" width="915" height="1099" viewBox="0 0 915 1099">
  <defs>
    <clipPath id="clip-path">
      <rect id="Retângulo_2565" data-name="Retângulo 2565" width="915" height="1099" transform="translate(-1900 11428)" fill="none"/>
    </clipPath>
  </defs>
  <g id="Grupo_de_máscara_54" data-name="Grupo de máscara 54" transform="translate(1900 -11428)" clip-path="url(#clip-path)">
    <g id="Grupo_8474" data-name="Grupo 8474" transform="translate(-4180.637 7910.792)">
      <g id="Grupo_8532" data-name="Grupo 8532" transform="translate(2343.892 3425.011)">
        <g id="Retângulo_2129-2" data-name="Retângulo 2129-2">
          <g id="Grupo_8530" data-name="Grupo 8530" transform="translate(0 0)">
            <rect id="Retângulo_2189" data-name="Retângulo 2189" width="810.884" height="1118.268" rx="53" fill="#fff"/>
          </g>
          <g id="Grupo_8531" data-name="Grupo 8531" transform="translate(-11 9)">
            <path id="Caminho_15737" data-name="Caminho 15737" d="M3107.187,4619.1H2391.482c-26.242,0-47.589-21.98-47.589-49V3549.835c0-27.018,21.348-49,47.589-49h715.705c26.242,0,47.59,21.98,47.59,49V4570.107C3154.777,4597.125,3133.429,4619.1,3107.187,4619.1ZM2391.482,3502.686c-25.251,0-45.794,21.152-45.794,47.149V4570.107c0,26,20.542,47.149,45.794,47.149h715.705c25.251,0,45.794-21.151,45.794-47.149V3549.835c0-26-20.542-47.149-45.794-47.149Z" transform="translate(-2343.892 -3500.837)" fill="#5a316b"/>
          </g>
        </g>
      </g>
      <g id="Linha_193" data-name="Linha 193" transform="translate(2343.889 3668.307)">
        <rect id="Retângulo_2190" data-name="Retângulo 2190" width="810.392" height="0.898" fill="#ede6f0"/>
      </g>
      <g id="Linha_207" data-name="Linha 207" transform="translate(2343.889 3621.615)">
        <rect id="Retângulo_2191" data-name="Retângulo 2191" width="810.392" height="0.898" fill="#ede6f0"/>
      </g>
      <g id="Linha_194" data-name="Linha 194" transform="translate(2343.889 3715.896)">
        <rect id="Retângulo_2192" data-name="Retângulo 2192" width="810.392" height="0.898" fill="#ede6f0"/>
      </g>
      <g id="Linha_195" data-name="Linha 195" transform="translate(2343.889 3856.868)">
        <rect id="Retângulo_2193" data-name="Retângulo 2193" width="810.392" height="0.898" fill="#ede6f0"/>
      </g>
      <g id="Linha_196" data-name="Linha 196" transform="translate(2343.889 3903.56)">
        <rect id="Retângulo_2194" data-name="Retângulo 2194" width="810.392" height="0.898" fill="#ede6f0"/>
      </g>
      <g id="Linha_197" data-name="Linha 197" transform="translate(2343.889 3951.149)">
        <rect id="Retângulo_2195" data-name="Retângulo 2195" width="810.392" height="0.898" fill="#ede6f0"/>
      </g>
      <g id="Linha_198" data-name="Linha 198" transform="translate(2344.382 3997.841)">
        <rect id="Retângulo_2196" data-name="Retângulo 2196" width="810.391" height="0.898" fill="#ede6f0"/>
      </g>
      <g id="Linha_199" data-name="Linha 199" transform="translate(2343.889 4044.532)">
        <rect id="Retângulo_2197" data-name="Retângulo 2197" width="810.392" height="0.898" fill="#ede6f0"/>
      </g>
      <g id="Linha_200" data-name="Linha 200" transform="translate(2343.889 4092.122)">
        <rect id="Retângulo_2198" data-name="Retângulo 2198" width="810.392" height="0.898" fill="#ede6f0"/>
      </g>
      <g id="Linha_201" data-name="Linha 201" transform="translate(2343.889 4138.813)">
        <rect id="Retângulo_2199" data-name="Retângulo 2199" width="810.392" height="0.898" fill="#ede6f0"/>
      </g>
      <g id="Linha_202" data-name="Linha 202" transform="translate(2343.889 4185.505)">
        <rect id="Retângulo_2200" data-name="Retângulo 2200" width="810.392" height="0.898" transform="translate(0 0)" fill="#ede6f0"/>
      </g>
      <g id="Linha_203" data-name="Linha 203" transform="translate(2344.382 4233.094)">
        <rect id="Retângulo_2201" data-name="Retângulo 2201" width="810.391" height="0.898" fill="#ede6f0"/>
      </g>
      <g id="Linha_206" data-name="Linha 206" transform="translate(2344.382 4279.786)">
        <rect id="Retângulo_2202" data-name="Retângulo 2202" width="810.391" height="0.898" transform="translate(0 0)" fill="#ede6f0"/>
      </g>
      <g id="Linha_208" data-name="Linha 208" transform="translate(2344.382 4326.478)">
        <rect id="Retângulo_2203" data-name="Retângulo 2203" width="810.391" height="0.898" fill="#ede6f0"/>
      </g>
      <g id="Linha_210" data-name="Linha 210" transform="translate(2344.382 4374.067)">
        <rect id="Retângulo_2204" data-name="Retângulo 2204" width="810.391" height="0.898" fill="#ede6f0"/>
      </g>
      <g id="Linha_211" data-name="Linha 211" transform="translate(2344.382 4420.758)">
        <rect id="Retângulo_2205" data-name="Retângulo 2205" width="810.391" height="0.898" transform="translate(0 0)" fill="#ede6f0"/>
      </g>
      <g id="Linha_212" data-name="Linha 212" transform="translate(2344.382 4467.45)">
        <rect id="Retângulo_2206" data-name="Retângulo 2206" width="810.391" height="0.898" fill="#ede6f0"/>
      </g>
      <g id="Linha_204" data-name="Linha 204" transform="translate(2343.889 3762.588)">
        <rect id="Retângulo_2208" data-name="Retângulo 2208" width="810.392" height="0.898" fill="#ede6f0"/>
      </g>
      <g id="Linha_205" data-name="Linha 205" transform="translate(2343.889 3809.279)">
        <rect id="Retângulo_2209" data-name="Retângulo 2209" width="810.392" height="0.898" fill="#ede6f0"/>
      </g>
      <g id="Ingredientes:_" data-name="Ingredientes: " transform="translate(2424.594 3586.045)" style="isolation: isolate">
        <g id="Grupo_8533" data-name="Grupo 8533" style="isolation: isolate">
          <path id="Caminho_15738" data-name="Caminho 15738" d="M2433.88,3618.917a.361.361,0,0,1-.11-.268v-21.245a.374.374,0,0,1,.377-.377h4.463a.375.375,0,0,1,.377.377v21.245a.376.376,0,0,1-.377.377h-4.463A.362.362,0,0,1,2433.88,3618.917Z" transform="translate(-2433.77 -3595.865)"/>
          <path id="Caminho_15739" data-name="Caminho 15739" d="M2455.968,3604.709a5.682,5.682,0,0,1,1.571,4.227v10.339a.374.374,0,0,1-.377.377H2452.7a.374.374,0,0,1-.377-.377v-9.207a2.6,2.6,0,0,0-.6-1.76,1.94,1.94,0,0,0-1.54-.692,2,2,0,0,0-1.572.676,2.582,2.582,0,0,0-.6,1.776v9.207a.374.374,0,0,1-.377.377h-4.463a.374.374,0,0,1-.377-.377v-15.492a.374.374,0,0,1,.377-.377h4.463a.374.374,0,0,1,.377.377v1.162c0,.084.015.131.047.142s.068-.016.11-.078a4.159,4.159,0,0,1,3.771-1.855A5.477,5.477,0,0,1,2455.968,3604.709Z" transform="translate(-2434.692 -3596.491)"/>
          <path id="Caminho_15740" data-name="Caminho 15740" d="M2471.981,3603.515a.365.365,0,0,1,.267-.109h4.463a.374.374,0,0,1,.377.377v14.047q0,4.3-2.483,6.16a10.222,10.222,0,0,1-6.285,1.854,18.976,18.976,0,0,1-2.985-.25c-.21-.021-.315-.157-.315-.409l.157-3.9a.325.325,0,0,1,.126-.3.354.354,0,0,1,.314-.016,11.2,11.2,0,0,0,2.388.283,4.454,4.454,0,0,0,2.829-.818,3.079,3.079,0,0,0,1.036-2.577l-.22.22a4.424,4.424,0,0,1-3.267,1.131,8.028,8.028,0,0,1-3.8-.911,5.261,5.261,0,0,1-2.482-3.206,11.813,11.813,0,0,1-.5-3.708,11.079,11.079,0,0,1,.6-3.96,6.608,6.608,0,0,1,2.309-3.111,6.082,6.082,0,0,1,3.693-1.163,4.417,4.417,0,0,1,3.488,1.383.131.131,0,0,0,.126.047c.042-.011.062-.047.062-.11v-.69A.364.364,0,0,1,2471.981,3603.515Zm-.111,7.841a11.121,11.121,0,0,0-.062-1.335,3.5,3.5,0,0,0-.252-.927,2.151,2.151,0,0,0-2.137-1.478,2.161,2.161,0,0,0-2.106,1.478,4.934,4.934,0,0,0-.471,2.325,4.778,4.778,0,0,0,.409,2.263,2.5,2.5,0,0,0,.849,1.069,2.245,2.245,0,0,0,1.352.408,2.077,2.077,0,0,0,2.136-1.446A7.043,7.043,0,0,0,2471.871,3611.356Z" transform="translate(-2436.611 -3596.491)"/>
          <path id="Caminho_15741" data-name="Caminho 15741" d="M2492.156,3603.6a.412.412,0,0,1,.188.47l-.723,4.368q-.032.378-.44.22a5.015,5.015,0,0,0-1.069-.125,4.071,4.071,0,0,0-.817.062,2.9,2.9,0,0,0-1.65.754,2.167,2.167,0,0,0-.676,1.666v8.265a.374.374,0,0,1-.377.377h-4.462a.374.374,0,0,1-.377-.377v-15.492a.374.374,0,0,1,.377-.377h4.462a.374.374,0,0,1,.377.377v1.006a.124.124,0,0,0,.063.125c.041.021.073,0,.094-.063a3.912,3.912,0,0,1,3.268-1.665A3.222,3.222,0,0,1,2492.156,3603.6Z" transform="translate(-2438.668 -3596.494)"/>
          <path id="Caminho_15742" data-name="Caminho 15742" d="M2509.96,3612.578a.366.366,0,0,1-.409.377h-9.585a.211.211,0,0,0-.126.048.08.08,0,0,0-.031.11,4.3,4.3,0,0,0,.314.912,2.8,2.8,0,0,0,1.132,1.067,3.84,3.84,0,0,0,1.854.409,3.924,3.924,0,0,0,3.111-1.287.357.357,0,0,1,.284-.158.3.3,0,0,1,.25.126l2.42,2.766a.3.3,0,0,1,.125.251.362.362,0,0,1-.125.251,7.139,7.139,0,0,1-2.718,1.823,9.68,9.68,0,0,1-3.536.63,9.014,9.014,0,0,1-4.855-1.242,7,7,0,0,1-2.876-3.472,10.188,10.188,0,0,1-.66-3.928,9.88,9.88,0,0,1,.5-3.143,7.367,7.367,0,0,1,2.688-3.662,7.446,7.446,0,0,1,4.446-1.336,7.588,7.588,0,0,1,3.708.9,7.278,7.278,0,0,1,2.656,2.483,9.2,9.2,0,0,1,1.335,3.6A12.528,12.528,0,0,1,2509.96,3612.578Zm-9.963-3.426a2.765,2.765,0,0,0-.157.66c-.042.1,0,.157.126.157h4.462a.111.111,0,0,0,.126-.126,2.671,2.671,0,0,0-.927-1.823,2.487,2.487,0,0,0-1.462-.408A2.107,2.107,0,0,0,2500,3609.152Z" transform="translate(-2439.973 -3596.487)"/>
          <path id="Caminho_15743" data-name="Caminho 15743" d="M2524.217,3597.138a.368.368,0,0,1,.268-.109h4.462a.376.376,0,0,1,.377.377v21.245a.376.376,0,0,1-.377.377h-4.462a.374.374,0,0,1-.377-.377v-1.037c0-.062-.021-.1-.063-.109a.129.129,0,0,0-.126.048,4.2,4.2,0,0,1-3.614,1.729,5.982,5.982,0,0,1-3.787-1.29,6.92,6.92,0,0,1-2.341-3.52,12.749,12.749,0,0,1-.5-3.644,11.221,11.221,0,0,1,.66-3.961,6.8,6.8,0,0,1,2.309-3.143,6.224,6.224,0,0,1,3.85-1.194,4.1,4.1,0,0,1,3.426,1.477c.041.063.083.084.126.063a.126.126,0,0,0,.063-.125v-6.538A.366.366,0,0,1,2524.217,3597.138Zm-.11,13.781a5.569,5.569,0,0,0-.6-2.827,2.15,2.15,0,0,0-3.771.031,5.47,5.47,0,0,0-.629,2.8,5.632,5.632,0,0,0,.566,2.7,2.13,2.13,0,0,0,1.98,1.193,2.078,2.078,0,0,0,1.917-1.224A5.72,5.72,0,0,0,2524.108,3610.919Z" transform="translate(-2441.927 -3595.865)"/>
          <path id="Caminho_15744" data-name="Caminho 15744" d="M2534.884,3600.432a2.912,2.912,0,0,1,0-3.945,2.934,2.934,0,0,1,3.928,0,2.784,2.784,0,0,1-3.928,3.945Zm-.565,18.353a.362.362,0,0,1-.111-.268v-15.492a.376.376,0,0,1,.377-.377h4.463a.374.374,0,0,1,.377.377v15.492a.374.374,0,0,1-.377.377h-4.463A.359.359,0,0,1,2534.319,3618.785Z" transform="translate(-2444.014 -3595.733)"/>
          <path id="Caminho_15745" data-name="Caminho 15745" d="M2558.154,3612.578a.365.365,0,0,1-.409.377h-9.584a.214.214,0,0,0-.127.048.08.08,0,0,0-.031.11,4.249,4.249,0,0,0,.313.912,2.8,2.8,0,0,0,1.133,1.067,3.84,3.84,0,0,0,1.854.409,3.92,3.92,0,0,0,3.11-1.287.36.36,0,0,1,.284-.158.3.3,0,0,1,.251.126l2.419,2.766a.3.3,0,0,1,.127.251.359.359,0,0,1-.127.251,7.118,7.118,0,0,1-2.718,1.823,9.681,9.681,0,0,1-3.535.63,9.017,9.017,0,0,1-4.856-1.242,7,7,0,0,1-2.875-3.472,10.187,10.187,0,0,1-.661-3.928,9.88,9.88,0,0,1,.5-3.143,7.366,7.366,0,0,1,2.688-3.662,7.448,7.448,0,0,1,4.448-1.336,7.589,7.589,0,0,1,3.708.9,7.274,7.274,0,0,1,2.655,2.483,9.191,9.191,0,0,1,1.335,3.6A12.531,12.531,0,0,1,2558.154,3612.578Zm-9.961-3.426a2.725,2.725,0,0,0-.158.66c-.041.1,0,.157.127.157h4.463a.11.11,0,0,0,.125-.126,2.655,2.655,0,0,0-.927-1.823,2.482,2.482,0,0,0-1.461-.408A2.1,2.1,0,0,0,2548.192,3609.152Z" transform="translate(-2444.893 -3596.487)"/>
          <path id="Caminho_15746" data-name="Caminho 15746" d="M2575.456,3604.709a5.678,5.678,0,0,1,1.572,4.227v10.339a.374.374,0,0,1-.377.377h-4.462a.374.374,0,0,1-.377-.377v-9.207a2.6,2.6,0,0,0-.6-1.76,1.941,1.941,0,0,0-1.541-.692,2,2,0,0,0-1.571.676,2.586,2.586,0,0,0-.6,1.776v9.207a.374.374,0,0,1-.377.377h-4.462a.374.374,0,0,1-.377-.377v-15.492a.373.373,0,0,1,.377-.377h4.462a.373.373,0,0,1,.377.377v1.162c0,.084.016.131.048.142s.068-.016.11-.078a4.157,4.157,0,0,1,3.771-1.855A5.475,5.475,0,0,1,2575.456,3604.709Z" transform="translate(-2446.89 -3596.491)"/>
          <path id="Caminho_15747" data-name="Caminho 15747" d="M2591.375,3607.01a.363.363,0,0,1-.268.109h-2.86a.139.139,0,0,0-.157.158V3613q0,1.79,1.446,1.79h1.163a.376.376,0,0,1,.377.377v3.646a.389.389,0,0,1-.377.409c-1.005.04-1.739.063-2.2.063a7.522,7.522,0,0,1-4.054-.865q-1.32-.865-1.352-3.284v-7.857a.139.139,0,0,0-.157-.158h-1.792a.373.373,0,0,1-.377-.377v-3.425a.364.364,0,0,1,.109-.268.368.368,0,0,1,.268-.109h1.792a.139.139,0,0,0,.157-.157v-3.8a.376.376,0,0,1,.377-.376h4.243a.374.374,0,0,1,.377.376v3.8a.139.139,0,0,0,.157.157h2.86a.373.373,0,0,1,.377.377v3.425A.365.365,0,0,1,2591.375,3607.01Z" transform="translate(-2448.777 -3596.026)"/>
          <path id="Caminho_15748" data-name="Caminho 15748" d="M2610.024,3612.578a.366.366,0,0,1-.408.377h-9.585a.209.209,0,0,0-.125.048.08.08,0,0,0-.031.11,4.235,4.235,0,0,0,.314.912,2.8,2.8,0,0,0,1.131,1.067,3.841,3.841,0,0,0,1.854.409,3.925,3.925,0,0,0,3.111-1.287.357.357,0,0,1,.283-.158.3.3,0,0,1,.251.126l2.42,2.766a.3.3,0,0,1,.126.251.361.361,0,0,1-.126.251,7.132,7.132,0,0,1-2.719,1.823,9.675,9.675,0,0,1-3.535.63,9.015,9.015,0,0,1-4.856-1.242,7,7,0,0,1-2.875-3.472,10.188,10.188,0,0,1-.66-3.928,9.853,9.853,0,0,1,.5-3.143,7.364,7.364,0,0,1,2.687-3.662,7.448,7.448,0,0,1,4.447-1.336,7.59,7.59,0,0,1,3.708.9,7.27,7.27,0,0,1,2.655,2.483,9.2,9.2,0,0,1,1.336,3.6A12.664,12.664,0,0,1,2610.024,3612.578Zm-9.962-3.426a2.709,2.709,0,0,0-.157.66c-.042.1,0,.157.125.157h4.463a.111.111,0,0,0,.126-.126,2.669,2.669,0,0,0-.927-1.823,2.485,2.485,0,0,0-1.461-.408A2.1,2.1,0,0,0,2600.062,3609.152Z" transform="translate(-2450.188 -3596.487)"/>
          <path id="Caminho_15749" data-name="Caminho 15749" d="M2616.914,3619.291a5.719,5.719,0,0,1-2.561-1.729,3.975,3.975,0,0,1-.9-2.561v-.347a.377.377,0,0,1,.377-.377h4.243a.376.376,0,0,1,.377.377,1.143,1.143,0,0,0,.66.99,3.211,3.211,0,0,0,1.666.393,2.8,2.8,0,0,0,1.4-.3.9.9,0,0,0,.518-.8.779.779,0,0,0-.55-.738,8.957,8.957,0,0,0-1.776-.456,15.478,15.478,0,0,1-3.206-.91,7.3,7.3,0,0,1-2.545-1.651,3.785,3.785,0,0,1-.943-2.719,4.6,4.6,0,0,1,1.9-3.881,8.134,8.134,0,0,1,5.012-1.43,9.366,9.366,0,0,1,3.693.676,5.693,5.693,0,0,1,2.467,1.9,4.728,4.728,0,0,1,.88,2.828.375.375,0,0,1-.376.378h-4.118a.377.377,0,0,1-.377-.378,1.133,1.133,0,0,0-.565-.974,2.756,2.756,0,0,0-1.54-.377,2.984,2.984,0,0,0-1.429.3.918.918,0,0,0-.55.833.8.8,0,0,0,.6.77,13.118,13.118,0,0,0,2.011.518q1.822.378,2.546.6a7.554,7.554,0,0,1,3.033,1.7,3.836,3.836,0,0,1,1.085,2.861,4.334,4.334,0,0,1-1.933,3.787,9,9,0,0,1-5.2,1.336A11.271,11.271,0,0,1,2616.914,3619.291Z" transform="translate(-2452.114 -3596.491)"/>
          <path id="Caminho_15750" data-name="Caminho 15750" d="M2634.491,3608.727a2.909,2.909,0,0,1,0-3.945,2.693,2.693,0,0,1,1.964-.754,2.642,2.642,0,0,1,1.949.754,2.932,2.932,0,0,1-.016,3.945,2.621,2.621,0,0,1-1.933.769A2.659,2.659,0,0,1,2634.491,3608.727Zm0,10.182a2.909,2.909,0,0,1,0-3.945,2.69,2.69,0,0,1,1.964-.754,2.638,2.638,0,0,1,1.949.754,2.932,2.932,0,0,1-.016,3.945,2.62,2.62,0,0,1-1.933.769A2.658,2.658,0,0,1,2634.491,3618.909Z" transform="translate(-2454.182 -3596.58)"/>
        </g>
      </g>
      <g id="Grupo_8464" data-name="Grupo 8464" transform="translate(2458.073 3766.992)">
        <g id="Retângulo_2130" data-name="Retângulo 2130" opacity="0.32">
          <g id="Grupo_8545" data-name="Grupo 8545" transform="translate(0 0)">
            <rect id="Retângulo_2210" data-name="Retângulo 2210" width="37.712" height="37.712" fill="#fff"/>
          </g>
          <g id="Grupo_8546" data-name="Grupo 8546">
            <path id="Caminho_16736" data-name="Caminho 16736" d="M2508.767,3834.964h-37.712v-37.712h37.712Zm-36.814-.9h35.917V3798.15h-35.917Z" transform="translate(-2471.055 -3797.252)" fill="#707070"/>
          </g>
        </g>
      </g>
      <g id="Grupo_8465" data-name="Grupo 8465" transform="translate(2458.073 3861.272)">
        <g id="Retângulo_2130-2" data-name="Retângulo 2130-2" opacity="0.32">
          <g id="Grupo_8547" data-name="Grupo 8547" transform="translate(0 0)">
            <rect id="Retângulo_2211" data-name="Retângulo 2211" width="37.712" height="37.712" fill="#fff"/>
          </g>
          <g id="Grupo_8548" data-name="Grupo 8548">
            <path id="Caminho_16737" data-name="Caminho 16737" d="M2508.767,3939.963h-37.712v-37.712h37.712Zm-36.814-.9h35.917v-35.917h-35.917Z" transform="translate(-2471.055 -3902.251)" fill="#707070"/>
          </g>
        </g>
      </g>
      <g id="Retângulo_2130-3" data-name="Retângulo 2130-3" transform="translate(2458.073 3956.451)" opacity="0.32">
        <g id="Grupo_8549" data-name="Grupo 8549" transform="translate(0 0)">
          <rect id="Retângulo_2212" data-name="Retângulo 2212" width="37.712" height="37.712" fill="#fff"/>
        </g>
        <g id="Grupo_8550" data-name="Grupo 8550">
          <path id="Caminho_16738" data-name="Caminho 16738" d="M2508.767,4045.964h-37.712v-37.712h37.712Zm-36.814-.9h35.917v-35.917h-35.917Z" transform="translate(-2471.055 -4008.251)" fill="#707070"/>
        </g>
      </g>
      <g id="Retângulo_2130-4" data-name="Retângulo 2130-4" transform="translate(2458.073 4049.834)" opacity="0.32">
        <g id="Grupo_8551" data-name="Grupo 8551">
          <rect id="Retângulo_2213" data-name="Retângulo 2213" width="37.712" height="37.712" fill="#fff"/>
        </g>
        <g id="Grupo_8552" data-name="Grupo 8552">
          <path id="Caminho_16739" data-name="Caminho 16739" d="M2508.767,4149.963h-37.712v-37.712h37.712Zm-36.814-.9h35.917v-35.917h-35.917Z" transform="translate(-2471.055 -4112.251)" fill="#707070"/>
        </g>
      </g>
      <g id="Retângulo_2130-5" data-name="Retângulo 2130-5" transform="translate(2458.073 4144.287)" opacity="0.32">
        <g id="Grupo_8553" data-name="Grupo 8553" transform="translate(0 0)">
          <rect id="Retângulo_2214" data-name="Retângulo 2214" width="37.712" height="37.712" fill="#fff"/>
        </g>
        <g id="Grupo_8554" data-name="Grupo 8554">
          <path id="Caminho_16740" data-name="Caminho 16740" d="M2508.767,4255.155h-37.712v-37.712h37.712Zm-36.814-.9h35.917v-35.917h-35.917Z" transform="translate(-2471.055 -4217.443)" fill="#707070"/>
        </g>
      </g>
      <g id="Retângulo_2130-6" data-name="Retângulo 2130-6" transform="translate(2458.073 4237.67)" opacity="0.32">
        <g id="Grupo_8555" data-name="Grupo 8555" transform="translate(0 0)">
          <rect id="Retângulo_2215" data-name="Retângulo 2215" width="37.712" height="37.712" fill="#fff"/>
        </g>
        <g id="Grupo_8556" data-name="Grupo 8556">
          <path id="Caminho_16741" data-name="Caminho 16741" d="M2508.767,4359.155h-37.712v-37.712h37.712Zm-36.814-.9h35.917v-35.917h-35.917Z" transform="translate(-2471.055 -4321.443)" fill="#707070"/>
        </g>
      </g>
      <g id="Retângulo_2130-7" data-name="Retângulo 2130-7" transform="translate(2458.073 4331.951)" opacity="0.32">
        <g id="Grupo_8557" data-name="Grupo 8557" transform="translate(0 0)">
          <rect id="Retângulo_2216" data-name="Retângulo 2216" width="37.712" height="37.712" fill="#fff"/>
        </g>
        <g id="Grupo_8558" data-name="Grupo 8558" transform="translate(0 0)">
          <path id="Caminho_16742" data-name="Caminho 16742" d="M2508.767,4464.155h-37.712v-37.712h37.712Zm-36.814-.9h35.917v-35.917h-35.917Z" transform="translate(-2471.055 -4426.443)" fill="#707070"/>
        </g>
      </g>
      <g id="Retângulo_2130-8" data-name="Retângulo 2130-8" transform="translate(2458.073 4424.264)" opacity="0.32">
        <g id="Grupo_8559" data-name="Grupo 8559" transform="translate(0 0)">
          <rect id="Retângulo_2217" data-name="Retângulo 2217" width="37.712" height="37.712" fill="#fff"/>
        </g>
        <g id="Grupo_8560" data-name="Grupo 8560">
          <path id="Caminho_16743" data-name="Caminho 16743" d="M2508.767,4566.964h-37.712v-37.713h37.712Zm-36.814-.9h35.917v-35.917h-35.917Z" transform="translate(-2471.055 -4529.251)" fill="#707070"/>
        </g>
      </g>
      <g id="Grupo_8472" data-name="Grupo 8472" transform="translate(2458.666 3673.608)">
        <g id="Retângulo_2131" data-name="Retângulo 2131" opacity="0.32">
          <g id="Grupo_8561" data-name="Grupo 8561" transform="translate(0 0)">
            <rect id="Retângulo_2218" data-name="Retângulo 2218" width="37.712" height="37.712" fill="#fff"/>
          </g>
          <g id="Grupo_8562" data-name="Grupo 8562" transform="translate(0)">
            <path id="Caminho_16744" data-name="Caminho 16744" d="M2509.427,3730.963h-37.712v-37.712h37.712Zm-36.814-.9h35.917v-35.917h-35.917Z" transform="translate(-2471.715 -3693.251)" fill="#707070"/>
          </g>
        </g>
      </g>
      <g id="Linha_209" data-name="Linha 209" transform="translate(2414.784 3500.846)">
        <rect id="Retângulo_2219" data-name="Retângulo 2219" width="0.898" height="1042.434" fill="#ede6f0"/>
      </g>
      <g id="Retângulo_2132" data-name="Retângulo 2132" transform="translate(2332.889 3434.011)">
        <g id="Grupo_8563" data-name="Grupo 8563" transform="translate(0 0)">
          <rect id="Retângulo_2220" data-name="Retângulo 2220" width="810.884" height="1118.267" rx="53" fill="none"/>
        </g>
        <g id="Grupo_8564" data-name="Grupo 8564">
          <path id="Caminho_16745" data-name="Caminho 16745" d="M3107.184,4619.106H2391.478c-26.241,0-47.589-21.98-47.589-49V3549.836c0-27.018,21.348-49,47.589-49h715.706c26.24,0,47.589,21.98,47.589,49V4570.108C3154.773,4597.125,3133.425,4619.106,3107.184,4619.106ZM2391.478,3502.687c-25.251,0-45.793,21.152-45.793,47.149V4570.108c0,26,20.542,47.149,45.793,47.149h715.706c25.25,0,45.793-21.152,45.793-47.149V3549.836c0-26-20.543-47.149-45.793-47.149Z" transform="translate(-2343.889 -3500.838)" fill="#5a316b"/>
        </g>
      </g>
    </g>
  </g>
</svg>
