<svg id="freepik--social-idea--inject-4" xmlns="http://www.w3.org/2000/svg" xmlns:xlink="http://www.w3.org/1999/xlink" width="122" height="170.726" viewBox="0 0 122 170.726">
  <defs>
    <filter id="Caminho_9922" x="0" y="0" width="122" height="170.726" filterUnits="userSpaceOnUse">
      <feOffset input="SourceAlpha"/>
      <feGaussianBlur result="blur"/>
      <feFlood flood-opacity="0.161"/>
      <feComposite operator="in" in2="blur"/>
      <feComposite in="SourceGraphic"/>
    </filter>
    <filter id="Caminho_9925" x="0" y="0" width="122" height="170.726" filterUnits="userSpaceOnUse">
      <feOffset input="SourceAlpha"/>
      <feGaussianBlur result="blur-2"/>
      <feFlood flood-opacity="0.161"/>
      <feComposite operator="in" in2="blur-2"/>
      <feComposite in="SourceGraphic"/>
    </filter>
  </defs>
  <g id="Grupo_3612" data-name="Grupo 3612" transform="translate(34.77 129.942)">
    <rect id="Ret창ngulo_1806" data-name="Ret창ngulo 1806" width="52.461" height="17.904" fill="#75448e"/>
  </g>
  <g id="Grupo_3613" data-name="Grupo 3613" transform="translate(-7.346 1.404)">
    <path id="Caminho_9902" data-name="Caminho 9902" d="M438.3,157.669a59.594,59.594,0,1,0-84.983,53.914v15.028h52.241s.309-8.435.422-15.97A59.568,59.568,0,0,0,438.3,157.669Z" transform="translate(-310.117 -99.074)" fill="#ede6f0"/>
  </g>
  <g id="Grupo_3614" data-name="Grupo 3614" transform="translate(33.062 135.527)">
    <rect id="Ret창ngulo_1807" data-name="Ret창ngulo 1807" width="57.165" height="6.734" rx="1.97" fill="#59316d"/>
  </g>
  <g id="Grupo_3615" data-name="Grupo 3615" transform="translate(32.843 147.845)">
    <path id="Caminho_9903" data-name="Caminho 9903" d="M396.038,202.247H345.606a3.374,3.374,0,1,0-.436,6.734,3.221,3.221,0,0,0,.436,0h6.759l6.537,12.428a4.3,4.3,0,0,0,3.824,2.306h16.027a4.288,4.288,0,0,0,3.838-2.348l6.326-12.357h7.135a3.374,3.374,0,0,0,0-6.734Z" transform="translate(-342.014 -202.24)" fill="#59316d"/>
  </g>
  <g id="Grupo_3616" data-name="Grupo 3616" transform="translate(43.616 154.375)">
    <path id="Caminho_9904" data-name="Caminho 9904" d="M385.877,207.251c0,.2-8.1.365-18.093.365s-18.107-.169-18.107-.365,8.1-.366,18.107-.366S385.877,207.04,385.877,207.251Z" transform="translate(-349.677 -206.885)" fill="#75448e"/>
  </g>
  <g id="Grupo_3617" data-name="Grupo 3617" transform="translate(46.78 159.929)">
    <path id="Caminho_9905" data-name="Caminho 9905" d="M382.167,210.961a25.031,25.031,0,0,1-4.414.45c-2.741.169-6.523.323-10.7.394s-7.971,0-10.7-.1a24.2,24.2,0,0,1-4.428-.323,28.245,28.245,0,0,1,4.428-.183l10.684-.141,10.684-.169A28.411,28.411,0,0,1,382.167,210.961Z" transform="translate(-351.927 -210.836)" fill="#75448e"/>
  </g>
  <g id="Grupo_3636" data-name="Grupo 3636" transform="translate(27.447 60.522)">
    <g id="Grupo_3618" data-name="Grupo 3618" transform="translate(20.017 2.203)">
      <path id="Caminho_9906" data-name="Caminho 9906" d="M357.121,142.081a3.011,3.011,0,0,0-1.49-.389,3.089,3.089,0,0,0-.991.163,3.14,3.14,0,0,0-1.759,1.828,7.612,7.612,0,0,0,.36,6.073,14.131,14.131,0,0,0,4.913,5.623,16.315,16.315,0,0,0,.865-2.11,15.5,15.5,0,0,0,.824-6.249A5.773,5.773,0,0,0,357.121,142.081Z" transform="translate(-352.414 -141.692)" fill="none"/>
    </g>
    <g id="Grupo_3619" data-name="Grupo 3619" transform="translate(41.312 5.147)">
      <path id="Caminho_9907" data-name="Caminho 9907" d="M374.026,147.79a3.888,3.888,0,0,0-.359-2.639,2.421,2.421,0,0,0-1.916-1.357c-.073-.006-.146-.008-.221-.008a3.5,3.5,0,0,0-2.221.807,4.41,4.41,0,0,0-1.468,2.306,11.034,11.034,0,0,0,.322,6.062c.131.434.283.859.451,1.277a16.265,16.265,0,0,0,1.691-1.247A10.283,10.283,0,0,0,374.026,147.79Z" transform="translate(-367.562 -143.786)" fill="none"/>
    </g>
    <g id="Grupo_3620" data-name="Grupo 3620" transform="translate(14.059 18.443)">
      <path id="Caminho_9908" data-name="Caminho 9908" d="M374.038,203.239c.075-.551.173-1.255.309-2.147l.247-1.718q.116-.814.252-1.759c.186-1.442.4-3.055.666-4.87.439-3,1.163-7.615,2.389-13.015a88.033,88.033,0,0,1,5.455-16.7q.508-1.168,1.073-2.318c-.508-.2-1.011-.418-1.5-.664a17.252,17.252,0,0,1-7.241-6.8,18.541,18.541,0,0,1-10.507,1.639,16.238,16.238,0,0,1-4.475-1.392,18.343,18.343,0,0,1-6.668,6.066,18.774,18.774,0,0,1-5.858,1.957q.264.658.524,1.307l.678,1.688c4.9,12.36,8.3,22.359,10.431,28.806,1.127,3.437,1.972,6.125,2.535,7.942l.308,1.035c.121.406.222.751.311,1.029a5.174,5.174,0,0,1,.209.841l.006.059h11A1.531,1.531,0,0,1,374.038,203.239Z" transform="translate(-348.176 -153.244)" fill="none"/>
    </g>
    <g id="Grupo_3621" data-name="Grupo 3621" transform="translate(1.679 16.992)">
      <path id="Caminho_9909" data-name="Caminho 9909" d="M344.135,152.883a3.068,3.068,0,0,0-1.9-.671,2.876,2.876,0,0,0-1.773,5.131,8.416,8.416,0,0,0,4.707,2.473,16.928,16.928,0,0,0,3.765.38c-.533-1.268-1.09-2.545-1.686-3.815A7.39,7.39,0,0,0,344.135,152.883Z" transform="translate(-339.37 -152.212)" fill="none"/>
    </g>
    <g id="Grupo_3622" data-name="Grupo 3622" transform="translate(52.963 16.723)">
      <path id="Caminho_9910" data-name="Caminho 9910" d="M386.5,152.622a4.929,4.929,0,0,0-4.44-.141,9.691,9.691,0,0,0-3.579,3.211q-1.413,2.077-2.635,4.279a14.847,14.847,0,0,0,7.975-.361,7.211,7.211,0,0,0,3.82-3.3A2.84,2.84,0,0,0,386.5,152.622Z" transform="translate(-375.849 -152.02)" fill="none"/>
    </g>
    <g id="Grupo_3635" data-name="Grupo 3635">
      <g id="Grupo_3623" data-name="Grupo 3623" transform="translate(14.059 18.443)">
        <path id="Caminho_9911" data-name="Caminho 9911" d="M374.038,203.239c.075-.551.173-1.255.309-2.147l.247-1.718q.116-.814.252-1.759c.186-1.442.4-3.055.666-4.87.439-3,1.163-7.615,2.389-13.015a88.033,88.033,0,0,1,5.455-16.7q.508-1.168,1.073-2.318c-.508-.2-1.011-.418-1.5-.664a17.252,17.252,0,0,1-7.241-6.8,18.541,18.541,0,0,1-10.507,1.639,16.238,16.238,0,0,1-4.475-1.392,18.343,18.343,0,0,1-6.668,6.066,18.774,18.774,0,0,1-5.858,1.957q.264.658.524,1.307l.678,1.688c4.9,12.36,8.3,22.359,10.431,28.806,1.127,3.437,1.972,6.125,2.535,7.942l.308,1.035c.121.406.222.751.311,1.029a5.174,5.174,0,0,1,.209.841l.006.059h10.759C373.976,203.776,374.017,203.39,374.038,203.239Z" transform="translate(-348.176 -153.244)" fill="none"/>
      </g>
      <g id="Grupo_3624" data-name="Grupo 3624" transform="translate(1.679 16.992)">
        <path id="Caminho_9912" data-name="Caminho 9912" d="M344.135,152.883a3.068,3.068,0,0,0-1.9-.671,2.876,2.876,0,0,0-1.773,5.131,8.416,8.416,0,0,0,4.707,2.473,16.928,16.928,0,0,0,3.765.38c-.533-1.268-1.09-2.545-1.686-3.815A7.39,7.39,0,0,0,344.135,152.883Z" transform="translate(-339.37 -152.212)" fill="none"/>
      </g>
      <g id="Grupo_3625" data-name="Grupo 3625" transform="translate(52.963 16.723)">
        <path id="Caminho_9913" data-name="Caminho 9913" d="M386.5,152.622a4.929,4.929,0,0,0-4.44-.141,9.691,9.691,0,0,0-3.579,3.211q-1.413,2.077-2.635,4.279a14.847,14.847,0,0,0,7.975-.361,7.211,7.211,0,0,0,3.82-3.3A2.84,2.84,0,0,0,386.5,152.622Z" transform="translate(-375.849 -152.02)" fill="none"/>
      </g>
      <g id="Grupo_3626" data-name="Grupo 3626" transform="translate(20.017 2.203)">
        <path id="Caminho_9914" data-name="Caminho 9914" d="M357.121,142.081a3.011,3.011,0,0,0-1.49-.389,3.089,3.089,0,0,0-.991.163,3.14,3.14,0,0,0-1.759,1.828,7.612,7.612,0,0,0,.36,6.073,14.131,14.131,0,0,0,4.913,5.623,16.315,16.315,0,0,0,.865-2.11,15.5,15.5,0,0,0,.824-6.249A5.773,5.773,0,0,0,357.121,142.081Z" transform="translate(-352.414 -141.692)" fill="none"/>
      </g>
      <g id="Grupo_3627" data-name="Grupo 3627" transform="translate(41.312 5.147)">
        <path id="Caminho_9915" data-name="Caminho 9915" d="M374.026,147.79a3.888,3.888,0,0,0-.359-2.639,2.421,2.421,0,0,0-1.916-1.357c-.073-.006-.146-.008-.221-.008a3.5,3.5,0,0,0-2.221.807,4.41,4.41,0,0,0-1.468,2.306,11.034,11.034,0,0,0,.322,6.062c.131.434.283.859.451,1.277a16.265,16.265,0,0,0,1.691-1.247A10.283,10.283,0,0,0,374.026,147.79Z" transform="translate(-367.562 -143.786)" fill="none"/>
      </g>
      <g id="Grupo_3634" data-name="Grupo 3634">
        <g id="Grupo_3628" data-name="Grupo 3628" transform="translate(20.017 2.203)">
          <path id="Caminho_9916" data-name="Caminho 9916" d="M357.121,142.081a3.011,3.011,0,0,0-1.49-.389,3.089,3.089,0,0,0-.991.163,3.14,3.14,0,0,0-1.759,1.828,7.612,7.612,0,0,0,.36,6.073,14.131,14.131,0,0,0,4.913,5.623,16.315,16.315,0,0,0,.865-2.11,15.5,15.5,0,0,0,.824-6.249A5.773,5.773,0,0,0,357.121,142.081Z" transform="translate(-352.414 -141.692)" fill="none"/>
        </g>
        <g id="Grupo_3629" data-name="Grupo 3629" transform="translate(1.679 16.992)">
          <path id="Caminho_9917" data-name="Caminho 9917" d="M344.135,152.883a3.068,3.068,0,0,0-1.9-.671,2.876,2.876,0,0,0-1.773,5.131,8.416,8.416,0,0,0,4.707,2.473,16.928,16.928,0,0,0,3.765.38c-.533-1.268-1.09-2.545-1.686-3.815A7.39,7.39,0,0,0,344.135,152.883Z" transform="translate(-339.37 -152.212)" fill="none"/>
        </g>
        <g id="Grupo_3630" data-name="Grupo 3630" transform="translate(14.059 18.443)">
          <path id="Caminho_9918" data-name="Caminho 9918" d="M374.038,203.239c.075-.551.173-1.255.309-2.147l.247-1.718q.116-.814.252-1.759c.186-1.442.4-3.055.666-4.87.439-3,1.163-7.615,2.389-13.015a88.033,88.033,0,0,1,5.455-16.7q.508-1.168,1.073-2.318c-.508-.2-1.011-.418-1.5-.664a17.252,17.252,0,0,1-7.241-6.8,18.541,18.541,0,0,1-10.507,1.639,16.238,16.238,0,0,1-4.475-1.392,18.343,18.343,0,0,1-6.668,6.066,18.774,18.774,0,0,1-5.858,1.957q.264.658.524,1.307l.678,1.688c4.9,12.36,8.3,22.359,10.431,28.806,1.127,3.437,1.972,6.125,2.535,7.942l.308,1.035c.121.406.222.751.311,1.029a5.174,5.174,0,0,1,.209.841l.006.059h10.759C373.976,203.776,374.017,203.39,374.038,203.239Z" transform="translate(-348.176 -153.244)" fill="none"/>
        </g>
        <g id="Grupo_3631" data-name="Grupo 3631" transform="translate(52.963 16.723)">
          <path id="Caminho_9919" data-name="Caminho 9919" d="M386.5,152.622a4.929,4.929,0,0,0-4.44-.141,9.691,9.691,0,0,0-3.579,3.211q-1.413,2.077-2.635,4.279a14.847,14.847,0,0,0,7.975-.361,7.211,7.211,0,0,0,3.82-3.3A2.84,2.84,0,0,0,386.5,152.622Z" transform="translate(-375.849 -152.02)" fill="none"/>
        </g>
        <g id="Grupo_3632" data-name="Grupo 3632" transform="translate(41.312 5.147)">
          <path id="Caminho_9920" data-name="Caminho 9920" d="M374.026,147.79a3.888,3.888,0,0,0-.359-2.639,2.421,2.421,0,0,0-1.916-1.357c-.073-.006-.146-.008-.221-.008a3.5,3.5,0,0,0-2.221.807,4.41,4.41,0,0,0-1.468,2.306,11.034,11.034,0,0,0,.322,6.062c.131.434.283.859.451,1.277a16.265,16.265,0,0,0,1.691-1.247A10.283,10.283,0,0,0,374.026,147.79Z" transform="translate(-367.562 -143.786)" fill="none"/>
        </g>
        <g id="Grupo_3633" data-name="Grupo 3633">
          <path id="Caminho_9921" data-name="Caminho 9921" d="M405.221,158.392a4.772,4.772,0,0,0-2.228-2.771,6.862,6.862,0,0,0-6.293-.193,11.777,11.777,0,0,0-4.334,3.887,57.089,57.089,0,0,0-2.98,4.963,15.094,15.094,0,0,1-7.913-6.654,18.38,18.38,0,0,0,2.168-1.569,12.375,12.375,0,0,0,4.485-6.347,6.182,6.182,0,0,0-.536-4.135,4.522,4.522,0,0,0-3.638-2.483,6.1,6.1,0,0,0-6.124,4.676,13.046,13.046,0,0,0,.363,7.24,17.525,17.525,0,0,0,.616,1.688,16.4,16.4,0,0,1-9.321,1.489,14.118,14.118,0,0,1-3.7-1.13,18.358,18.358,0,0,0,1.073-2.556,17.706,17.706,0,0,0,.952-7.083,10.036,10.036,0,0,0-.986-3.707,6.605,6.605,0,0,0-2.8-2.917,5.246,5.246,0,0,0-4.272-.38,5.334,5.334,0,0,0-3.016,3.054,9.736,9.736,0,0,0,.433,7.76,16.146,16.146,0,0,0,5.751,6.555,16.262,16.262,0,0,1-5.844,5.344,16.615,16.615,0,0,1-5.609,1.823c-.607-1.473-1.247-2.973-1.946-4.49a9.431,9.431,0,0,0-4-4.448,6.39,6.39,0,0,0-3.155-.617,4.564,4.564,0,0,0-3.207,1.6,5.276,5.276,0,0,0,.388,6.629,10.146,10.146,0,0,0,5.729,3.013,18.788,18.788,0,0,0,4.944.41c.222.543.44,1.081.658,1.617l.77,1.892c4.7,11.683,8.143,21.438,10.613,28.626.888,2.651,1.629,4.842,2.207,6.544l1.139,3.381c.062.184.112.322.155.439h1.469l-.006-.059a5.17,5.17,0,0,0-.209-.841c-.089-.278-.19-.623-.311-1.029l-.308-1.035c-.562-1.816-1.407-4.5-2.535-7.942-2.131-6.447-5.532-16.446-10.431-28.806l-.678-1.688q-.262-.65-.524-1.307a18.774,18.774,0,0,0,5.858-1.957,18.343,18.343,0,0,0,6.668-6.066,16.238,16.238,0,0,0,4.475,1.392,18.541,18.541,0,0,0,10.507-1.639,17.252,17.252,0,0,0,7.241,6.8c.492.246,1,.468,1.5.664q-.563,1.147-1.073,2.318a88.031,88.031,0,0,0-5.455,16.7c-1.226,5.4-1.95,10.015-2.389,13.015-.263,1.815-.481,3.427-.666,4.87q-.137.945-.252,1.759l-.247,1.718c-.136.891-.235,1.6-.309,2.147-.021.152-.062.537-.1.983h1.5s.2-1.672.264-2.145c.039-.277.083-.578.122-.907.121-1.007.256-2.123.415-3.364.2-1.368.433-2.94.72-4.719.582-3.6,1.331-7.947,2.48-12.861a88.733,88.733,0,0,1,5.439-16.333q.59-1.329,1.25-2.629a16.929,16.929,0,0,0,9.751-.3,9.288,9.288,0,0,0,4.988-4.316A4.929,4.929,0,0,0,405.221,158.392Zm-59.567,6.329a8.416,8.416,0,0,1-4.707-2.473,2.873,2.873,0,0,1,1.773-5.131,3.068,3.068,0,0,1,1.9.671,7.39,7.39,0,0,1,3.114,3.5c.6,1.271,1.153,2.547,1.686,3.815A16.929,16.929,0,0,1,345.654,164.722ZM364.8,153.9a16.321,16.321,0,0,1-.865,2.11,14.131,14.131,0,0,1-4.913-5.623,7.612,7.612,0,0,1-.36-6.073,3.14,3.14,0,0,1,1.759-1.828,3.089,3.089,0,0,1,.991-.163,3.011,3.011,0,0,1,1.49.389,5.773,5.773,0,0,1,2.722,4.939A15.5,15.5,0,0,1,364.8,153.9Zm15.293.541a11.033,11.033,0,0,1-.322-6.062,4.411,4.411,0,0,1,1.468-2.306,3.5,3.5,0,0,1,2.221-.807c.074,0,.148,0,.221.008a2.421,2.421,0,0,1,1.916,1.357,3.888,3.888,0,0,1,.358,2.639,10.283,10.283,0,0,1-3.72,5.2,16.265,16.265,0,0,1-1.691,1.247C380.373,155.305,380.221,154.881,380.09,154.446Zm22.844,6.695a7.211,7.211,0,0,1-3.82,3.3,14.848,14.848,0,0,1-7.975.361q1.219-2.2,2.635-4.279a9.692,9.692,0,0,1,3.579-3.211,4.929,4.929,0,0,1,4.44.141A2.84,2.84,0,0,1,402.934,161.141Z" transform="translate(-338.176 -140.125)" fill="#59316d"/>
        </g>
      </g>
    </g>
  </g>
  <g id="Grupo_3637" data-name="Grupo 3637" transform="translate(0 0)">
    <g transform="matrix(1, 0, 0, 1, 0, 0)" filter="url(#Caminho_9922)">
      <path id="Caminho_9922-2" data-name="Caminho 9922" d="M372.941,267.8a5.681,5.681,0,0,1-5.05-3.059l-6.141-11.674h-5.912a4.141,4.141,0,0,1-.527,0,4.766,4.766,0,0,1-2.543-8.585v-4.545a4.16,4.16,0,0,1-1.708-3.368v-1.194A4.167,4.167,0,0,1,352.772,232l.08-19.128a61.26,61.26,0,0,1-34.2-54.8,61,61,0,0,1,61-61h0A60.991,60.991,0,0,1,408.319,211.9c-.093,6.248-.219,16.024-.263,19.467a4.181,4.181,0,0,1,2.98,4v1.194a4.182,4.182,0,0,1-3,4.007v3.409a4.773,4.773,0,0,1-1.665,9.111l-6.367,0-2.254,4.407a1.442,1.442,0,0,1-.283.55l-3.4,6.636A5.66,5.66,0,0,1,389,267.8h-16.06ZM362.6,250.256a1.406,1.406,0,0,1,1.244.752l6.537,12.428a2.885,2.885,0,0,0,2.564,1.553H389a2.872,2.872,0,0,0,2.576-1.577l3.538-6.913c.007-.014.014-.028.023-.042l2.678-5.235c.01-.02.02-.037.03-.055l.01-.021a1.557,1.557,0,0,1,1.3-.862h7.135a1.974,1.974,0,0,0,1.746-2.088,1.951,1.951,0,0,0-1.634-1.8,1.407,1.407,0,0,1-1.168-1.386v-5.675a1.405,1.405,0,0,1,1.406-1.406h.226a1.364,1.364,0,0,0,1.364-1.365v-1.194a1.364,1.364,0,0,0-1.364-1.364h-.226a1.406,1.406,0,0,1-1.406-1.424s.177-14.022.29-21.559a1.406,1.406,0,0,1,.763-1.229,58.175,58.175,0,1,0-51.421.919,1.4,1.4,0,0,1,.807,1.278l-.087,20.826a1.407,1.407,0,0,1-.866,1.292,1.361,1.361,0,0,0-.842,1.26v1.194a1.361,1.361,0,0,0,.842,1.26,1.4,1.4,0,0,1,.866,1.3v6.141a1.407,1.407,0,0,1-.8,1.268,1.942,1.942,0,0,0-1.125,1.636,1.97,1.97,0,0,0,1.836,2.091,1.878,1.878,0,0,0,.252,0Z" transform="translate(-318.65 -97.07)" fill="#59316d"/>
    </g>
    <g transform="matrix(1, 0, 0, 1, 0, 0)" filter="url(#Caminho_9925)">
      <path id="Caminho_9925-2" data-name="Caminho 9925" d="M372.941,267.8a5.681,5.681,0,0,1-5.05-3.059l-6.141-11.674h-5.912a4.141,4.141,0,0,1-.527,0,4.766,4.766,0,0,1-2.543-8.585v-4.545a4.16,4.16,0,0,1-1.708-3.368v-1.194A4.167,4.167,0,0,1,352.772,232l.08-19.128a61.26,61.26,0,0,1-34.2-54.8,61,61,0,0,1,61-61h0A60.991,60.991,0,0,1,408.319,211.9c-.093,6.248-.219,16.024-.263,19.467a4.181,4.181,0,0,1,2.98,4v1.194a4.182,4.182,0,0,1-3,4.007v3.409a4.773,4.773,0,0,1-1.665,9.111l-6.367,0-2.254,4.407a1.442,1.442,0,0,1-.283.55l-3.4,6.636A5.66,5.66,0,0,1,389,267.8h-16.06ZM362.6,250.256a1.406,1.406,0,0,1,1.244.752l6.537,12.428a2.885,2.885,0,0,0,2.564,1.553H389a2.872,2.872,0,0,0,2.576-1.577l3.538-6.913c.007-.014.014-.028.023-.042l2.678-5.235c.01-.02.02-.037.03-.055l.01-.021a1.557,1.557,0,0,1,1.3-.862h7.135a1.974,1.974,0,0,0,1.746-2.088,1.951,1.951,0,0,0-1.634-1.8,1.407,1.407,0,0,1-1.168-1.386v-5.675a1.405,1.405,0,0,1,1.406-1.406h.226a1.364,1.364,0,0,0,1.364-1.365v-1.194a1.364,1.364,0,0,0-1.364-1.364h-.226a1.406,1.406,0,0,1-1.406-1.424s.177-14.022.29-21.559a1.406,1.406,0,0,1,.763-1.229,58.175,58.175,0,1,0-51.421.919,1.4,1.4,0,0,1,.807,1.278l-.087,20.826a1.407,1.407,0,0,1-.866,1.292,1.361,1.361,0,0,0-.842,1.26v1.194a1.361,1.361,0,0,0,.842,1.26,1.4,1.4,0,0,1,.866,1.3v6.141a1.407,1.407,0,0,1-.8,1.268,1.942,1.942,0,0,0-1.125,1.636,1.97,1.97,0,0,0,1.836,2.091,1.878,1.878,0,0,0,.252,0Z" transform="translate(-318.65 -97.08)" fill="#59316d"/>
    </g>
  </g>
</svg>
