<svg id="Base" xmlns="http://www.w3.org/2000/svg" viewBox="0 0 1142.04 1109.04"><defs><style>.cls-1{fill:#ffccbc;}.cls-2{opacity:0.4;}.cls-3{fill:#ffac90;}.cls-4{fill:#59316d;}</style></defs><g id="Grupo_4875" data-name="Grupo 4875"><g id="Grupo_2949" data-name="Grupo 2949"><path id="Caminho_9502" data-name="Caminho 9502" class="cls-1" d="M473.44,826.53c5.26,80.81-32.18,170.81-32.18,170.81L239,940.4l-35.27-9.95c35.06-48.7,51.75-144.62,42.6-222.25-.7-5.85-1.12-11.35-1.44-16.62-3.5-64,23.11-82.73,45.58-111,24.54-30.64,79.17-146.34,79.17-173.72s68.53-94.41,53.29-170.49c0,0,20.71-12.87,41.54-2.32,9.47,4.77,18.9,14.34,26.51,32.08,17.84,41.69-7.23,159.52-28.54,188.41l-41.06,170s13.85,23.87,27.45,67.21A577.32,577.32,0,0,1,473.44,826.53Z"/></g><g id="Grupo_2950" data-name="Grupo 2950" class="cls-2"><path id="Caminho_9503" data-name="Caminho 9503" class="cls-3" d="M462.44,454.51l-41.05,170s13.85,23.88,27.45,67.21h0c-27.8-44.81-51.43-58.2-51.43-58.2C415.92,611.3,430.19,449,430.19,449s58-68.19,52.59-139.54A228.26,228.26,0,0,0,464.48,234c9.46,4.77,18.89,14.34,26.5,32.08C508.83,307.79,483.76,425.62,462.44,454.51Z"/></g><g id="Grupo_2951" data-name="Grupo 2951"><path id="Caminho_9504" data-name="Caminho 9504" class="cls-4" d="M441.26,999.68a2.42,2.42,0,0,1-.88-.17,2.3,2.3,0,0,1-1.25-3h0c.38-.89,37.18-90.48,32-169.81-4.23-65.08-18.1-116.33-29-147.85-11.77-34.1-22.63-53-22.74-53.18a2.3,2.3,0,0,1-.25-1.7L460.2,454a2.18,2.18,0,0,1,.39-.83C482,424.11,506,307.18,488.86,267c-7.67-17.92-18-29.07-30.8-33.11-14.54-4.62-28.26,1.43-32.55,3.65,9.3,50.38-16.87,96.24-36,129.82-9.4,16.47-17.52,30.7-17.52,39.43,0,12.77-11.46,45.15-30.65,86.61-18.1,39.13-37.33,73.88-49,88.54-3.4,4.28-6.92,8.38-10.33,12.35-21.11,24.56-41.06,47.77-33.32,113.63,9.44,80.42-9.06,176.66-43,223.86a2.31,2.31,0,1,1-3.75-2.69h0c33.38-46.39,51.53-141.23,42.21-220.63-8-67.87,12.61-91.82,34.4-117.18,3.38-3.94,6.87-8,10.22-12.21,24.37-30.64,78.63-145.71,78.63-172.29,0-9.94,8-24,18.13-41.71,19-33.31,45.07-78.95,35.2-128.3a2.3,2.3,0,0,1,1-2.41c.73-.46,18.18-11.06,37.69-4.89,14.13,4.45,25.46,16.47,33.7,35.71,18,42-6.11,159.22-28.53,190.34l-40.7,168.6c2.22,4,12.11,22.64,22.66,53.18,11,31.79,25,83.46,29.22,149.06,5.24,80.42-32,171-32.35,171.88A2.31,2.31,0,0,1,441.26,999.68Z"/></g></g></svg>