<?xml version="1.0" encoding="utf-8"?>
<!-- Generator: Adobe Illustrator 25.4.1, SVG Export Plug-In . SVG Version: 6.00 Build 0)  -->
<svg version="1.1" id="Padaria" xmlns="http://www.w3.org/2000/svg" xmlns:xlink="http://www.w3.org/1999/xlink" x="0px" y="0px"
	 viewBox="0 0 200 200" style="enable-background:new 0 0 200 200;" xml:space="preserve">
<style type="text/css">
	.st0{fill:none;}
	.st1{fill:#5A316B;}
</style>
<path class="st0" d="M107.4,134.3c3.7,2.9,7.9,5.2,12.3,6.8c1.3,0.5,2.6,0.7,4,0.7c0.3,0,0.6,0,0.8-0.1c0-0.3,0-0.6-0.1-0.8
	c-0.4-1.3-1-2.5-1.8-3.6c-2.7-3.9-6-7.2-9.8-10.1c-2.1-1.6-4.3-3.1-6.7-4.3c-0.6,2.9-1.3,5.8-2.1,8.6
	C105.1,132.4,106.2,133.4,107.4,134.3z"/>
<path class="st0" d="M116.1,94c-0.3,0-0.5,0-0.8,0.1c0,0.3,0,0.6,0.1,0.8c0.4,1.3,1,2.5,1.7,3.6c2.7,3.8,6.1,7.2,9.9,10
	c3.7,2.9,7.9,5.2,12.3,6.8c1.3,0.5,2.6,0.7,4,0.7c0.3,0,0.6,0,0.8-0.1c0-0.3,0-0.6-0.1-0.8c-0.4-1.3-1-2.5-1.8-3.7
	c-2.7-3.8-6.1-7.2-9.9-10c-3.7-2.9-7.9-5.2-12.3-6.8C118.9,94.3,117.5,94,116.1,94z"/>
<path class="st0" d="M146.6,82.9c3.7,2.9,7.9,5.2,12.3,6.8c1.3,0.5,2.6,0.7,4,0.7c0.3,0,0.6,0,0.8-0.1c0-0.3,0-0.5-0.1-0.8
	c-0.4-1.3-1-2.5-1.8-3.7c-5.6-7.6-13.3-13.5-22.1-16.9c-1.3-0.5-2.6-0.7-4-0.7c-0.3,0-0.5,0-0.8,0.1c0,0.3,0,0.6,0.1,0.8
	c0.4,1.3,1,2.5,1.7,3.6C139.5,76.7,142.8,80.1,146.6,82.9z"/>
<path class="st1" d="M149.9,113.9c-0.5-2-1.4-3.9-2.6-5.6c-3.1-4.4-6.9-8.3-11.3-11.5c-4.2-3.3-8.9-5.9-14-7.7c-2-0.7-4-1-6.1-1
	c-0.5,0-1,0.1-1.4,0.2c-1.5,0.3-2.9,1.1-3.9,2.3c-1.2,1.7-1.5,3.8-1,5.8c0.5,2,1.4,3.9,2.6,5.6c3.1,4.4,6.9,8.3,11.2,11.5
	c4.2,3.3,9,6,14.1,7.8c1.8,0.6,3.7,1,5.6,1h0.5c2.1,0,4-0.9,5.3-2.5C150.1,118,150.4,115.9,149.9,113.9z M144.1,116
	c-0.3,0.1-0.5,0.1-0.8,0.1c-1.4,0-2.7-0.3-4-0.7c-4.4-1.6-8.6-3.9-12.3-6.8c-3.8-2.8-7.1-6.2-9.9-10c-0.8-1.1-1.4-2.3-1.7-3.6
	c-0.1-0.3-0.1-0.6-0.1-0.8c0.3-0.1,0.5-0.1,0.8-0.1c1.4,0,2.7,0.3,4,0.7c4.4,1.6,8.6,3.9,12.3,6.8c3.8,2.8,7.1,6.2,9.9,10
	c0.8,1.1,1.4,2.3,1.8,3.7C144.1,115.4,144.1,115.7,144.1,116z"/>
<path class="st1" d="M130.3,139.6c-0.5-2-1.4-3.9-2.6-5.6c-3.1-4.4-6.9-8.3-11.2-11.5c-2.9-2.2-5.9-4.1-9.2-5.8
	c-0.1,0.3-0.1,0.7-0.2,1l-0.2,1c-0.1,0.7-0.2,1.4-0.4,2.1c-0.1,0.3-0.1,0.7-0.2,1s-0.1,0.7-0.2,1c2.3,1.3,4.6,2.7,6.7,4.3
	c3.8,2.8,7.1,6.2,9.8,10.1c0.8,1.1,1.4,2.3,1.8,3.6c0.1,0.3,0.1,0.5,0.1,0.8c-0.3,0.1-0.5,0.1-0.8,0.1c-1.4,0-2.7-0.3-4-0.7
	c-4.4-1.6-8.6-3.9-12.3-6.8c-1.2-0.9-2.3-1.9-3.4-2.8c-0.1,0.4-0.2,0.7-0.3,1.1s-0.2,0.7-0.3,1.1c-0.2,0.7-0.4,1.4-0.7,2
	c-0.1,0.3-0.2,0.7-0.3,1l-0.4,1c0.6,0.5,1.2,1,1.8,1.4c4.2,3.3,9,6,14.1,7.8c1.8,0.6,3.7,1,5.6,1h0.5c3.5,0.2,6.4-2.5,6.6-6
	c0-0.8-0.1-1.5-0.3-2.3L130.3,139.6z"/>
<path class="st1" d="M169.5,88.1c-0.5-2-1.4-3.9-2.6-5.6c-3.1-4.4-6.9-8.3-11.2-11.5c-4.2-3.3-9-6-14.1-7.8c-2-0.7-4-1-6.1-1
	c-0.5,0-1,0.1-1.4,0.2l0,0c-1.5,0.3-2.9,1.1-3.9,2.3c-1.2,1.7-1.5,3.8-1,5.8c0.5,2,1.4,3.9,2.6,5.6c3.1,4.4,6.9,8.3,11.3,11.5
	c4.2,3.3,9,6,14.1,7.8c1.8,0.6,3.7,1,5.6,1h0.5c2.1,0,4-0.9,5.3-2.5C169.7,92.2,170,90.1,169.5,88.1z M158.9,89.7
	c-4.4-1.6-8.6-3.9-12.3-6.8c-3.8-2.8-7.1-6.2-9.9-10c-0.8-1.1-1.4-2.4-1.8-3.7c-0.1-0.3-0.1-0.5-0.1-0.8c0.3-0.1,0.5-0.1,0.8-0.1
	c1.4,0,2.7,0.3,4,0.7c8.8,3.4,16.5,9.2,22.1,16.9c0.8,1.1,1.4,2.4,1.8,3.7c0.1,0.3,0.1,0.5,0.1,0.8c-0.3,0.1-0.5,0.1-0.8,0.1
	C161.5,90.4,160.2,90.1,158.9,89.7z"/>
<path class="st1" d="M86.2,60.2c-1.7-1.4-3.7-2.6-5.8-3.3c-5.5-2-11.3-3-17.1-3.1c-5.8-0.3-11.7,0.4-17.3,2c-2.2,0.6-4.2,1.6-6,2.9
	c-0.4,0.3-0.8,0.7-1.2,1.1c-1.2,1.2-1.8,2.7-1.9,4.4c0,2.2,1,4.3,2.8,5.7c1.7,1.4,3.7,2.6,5.8,3.3c5.5,2,11.3,3,17.1,3.1
	c0.7,0,1.5,0,2.2,0c5.1,0.1,10.2-0.6,15.1-2c2.2-0.6,4.2-1.6,6-2.9c1.8-1.3,2.9-3.3,3.1-5.5C89,63.6,88,61.6,86.2,60.2z M82.7,65.6
	c-0.2,0.3-0.4,0.5-0.7,0.7c-1.2,0.8-2.6,1.5-4,1.9c-4.9,1.4-10,1.9-15.2,1.7c-5.1-0.1-10.2-1-15-2.7c-1.4-0.5-2.7-1.2-3.8-2.1
	c-0.2-0.2-0.5-0.4-0.6-0.7c0.2-0.3,0.4-0.5,0.7-0.7l0,0c1.2-0.8,2.6-1.5,4-1.9c4.9-1.4,10-1.9,15.2-1.7c5.1,0.1,10.2,1,15,2.7
	c1.4,0.5,2.7,1.2,3.8,2.1C82.2,65.1,82.5,65.4,82.7,65.6z"/>
<path class="st1" d="M87.8,100.3c0-0.6-0.1-1.1-0.3-1.7c-0.3-0.8-0.7-1.5-1.2-2.1c-0.2-0.3-0.4-0.5-0.7-0.8l-0.6-0.5L84.9,95
	c-1.7-1.4-3.5-2.4-5.6-3.1c-5.5-2-11.3-3-17.1-3.1c-5.8-0.3-11.7,0.4-17.3,2c-2.2,0.6-4.2,1.6-6,2.9c-0.4,0.3-0.8,0.7-1.2,1.1
	c-1.2,1.2-1.9,2.7-1.9,4.4c0,2.2,1,4.3,2.8,5.7c1.7,1.4,3.7,2.5,5.8,3.3c5.5,2,11.3,3,17.1,3.1c0.7,0,1.5,0,2.2,0
	c5.1,0.1,10.1-0.6,15-2h0.1c0.4-0.1,0.8-0.3,1.1-0.4s0.8-0.3,1.2-0.5c0.9-0.4,1.8-0.8,2.7-1.4c0.3-0.2,0.7-0.4,1-0.7
	c0.2-0.2,0.4-0.3,0.6-0.5c1.5-1.2,2.4-3.1,2.5-5C87.9,100.6,87.9,100.5,87.8,100.3z M76.8,103.2c-4.9,1.4-10,1.9-15.2,1.7
	c-5.1-0.1-10.2-1-15-2.7c-1.4-0.5-2.7-1.2-3.8-2.1c-0.2-0.2-0.5-0.4-0.6-0.7c0-0.1,0.2-0.3,0.7-0.7l0,0c1.2-0.8,2.6-1.5,4-1.9
	c4.9-1.4,10-1.9,15.1-1.7c5.1,0.1,10.2,1,15,2.7c1.4,0.5,2.7,1.2,3.8,2.1c0.2,0.2,0.5,0.4,0.6,0.7c0,0.1-0.1,0.3-0.7,0.7
	C79.6,102.2,78.3,102.8,76.8,103.2L76.8,103.2z"/>
<path class="st1" d="M172.8,48.5c-6.5-4.9-15-6.8-24.7-5.4c-1.3,0.2-2.6,0.4-4,0.8c-10.9,2.5-22.4,8.8-33.1,18.1
	c-1.3,1-1.5,2.9-0.5,4.2c1,1.3,2.9,1.5,4.2,0.5l0.2-0.2c10-8.7,20.5-14.5,30.5-16.8c9.6-2.2,17.8-0.9,23.7,3.6
	c7.7,5.9,11,16.7,9.4,30.4c-1.7,14.3-8.5,29.9-19.2,44s-24,24.8-37.3,30.2c-12.1,4.9-22.8,4.9-30.4,0c0.7-1,1.4-2,2-3
	c3.4-5.4,6.2-11.2,8.3-17.2l0.4-1c0.1-0.3,0.2-0.7,0.3-1c0.2-0.7,0.5-1.4,0.7-2c0.1-0.3,0.2-0.7,0.3-1.1s0.2-0.7,0.3-1.1
	c0.8-2.8,1.5-5.7,2.1-8.6c0.1-0.3,0.1-0.7,0.2-1s0.1-0.7,0.2-1c0.1-0.7,0.2-1.4,0.4-2.1l0.2-1c0-0.3,0.1-0.7,0.2-1
	c0.8-5,1.2-10.1,1.4-15.2c0.7-20.2-3.4-39.5-11.5-54.2c-8.4-15.2-20-23.8-32.8-24.2C55.6,23,46.9,26.8,39.2,34c-1,1-2.1,2-3.1,3.2
	C28.2,46.3,22,59,18.4,73.9c-0.2,0.8-0.1,1.7,0.3,2.4c0.9,1.5,2.8,2.1,4.3,1.2c0.7-0.4,1.3-1.1,1.5-1.9c0-0.1,0-0.2,0.1-0.2
	c3.3-13.9,9-25.7,16.4-34c7.1-8,15.1-12,23.3-11.8c10.5,0.3,20.3,7.8,27.5,20.9c3.9,7.2,6.7,14.9,8.4,22.9c0.1,0.3,0.1,0.7,0.2,1
	s0.1,0.7,0.2,1.1c0.2,0.8,0.3,1.7,0.5,2.6c0.1,0.4,0.2,0.9,0.2,1.3s0.1,0.9,0.2,1.4c0.9,6.8,1.3,13.6,1.1,20.4
	c-0.1,4.4-0.5,8.7-1.1,13c0,0.3-0.1,0.7-0.1,1s-0.1,0.7-0.2,1l-0.3,2c-0.1,0.3-0.1,0.7-0.2,1s-0.1,0.7-0.2,1c-0.4,2-0.8,3.9-1.3,5.8
	c-0.1,0.4-0.2,0.8-0.3,1.2l-0.3,1.2c-0.2,0.8-0.4,1.5-0.7,2.3l-0.3,1.1l-0.4,1.1c-2.1,6.5-4.9,12.7-8.6,18.4c-0.5,0.8-1,1.5-1.5,2.2
	c-0.2,0.3-0.4,0.6-0.6,0.8l-0.6,0.8c-0.4,0.6-0.8,1.1-1.2,1.6l-0.6,0.8l-0.7,0.8c-7,8.1-15.2,12.4-23.5,12.1
	c-10.5-0.3-20.3-7.8-27.5-20.9c-7.5-13.7-11.3-31.8-10.7-50.9c0.1-2.1,0.2-4,0.3-5.6c0.1-0.8-0.1-1.7-0.6-2.3
	c-0.1-0.1-0.1-0.2-0.2-0.2c-0.5-0.5-1.1-0.9-1.9-1c-1.7-0.2-3.3,1-3.6,2.7c0,0.1,0,0.2,0,0.3c-0.2,2.1-0.3,4.1-0.3,6
	c-0.6,20.2,3.4,39.5,11.5,54.1c8.3,15.2,20,23.8,32.8,24.2h1c10,0,19.5-5,27.6-14.3c5.1,3.4,11.1,5.1,17.3,5
	c6.6-0.1,13.1-1.5,19.1-4.1c14.3-5.8,28.5-17.2,39.8-32.1s18.6-31.6,20.4-46.9C186.4,68.4,182.3,55.7,172.8,48.5z"/>
<path class="st1" d="M84,130.2c-1-0.9-2.1-1.6-3.3-2.2c-0.3-0.2-0.6-0.3-1-0.5s-0.6-0.3-1-0.4c-0.2-0.1-0.3-0.2-0.5-0.2
	c-0.4-0.2-0.9-0.3-1.4-0.5l-1-0.3l-1-0.3c-4.5-1.2-9.1-1.9-13.8-2c-5.8-0.3-11.7,0.4-17.3,2c-2.2,0.6-4.2,1.6-6,2.9
	c-0.4,0.3-0.8,0.7-1.2,1.1l0,0c-1.2,1.2-1.9,2.8-2,4.4c0,2.2,1,4.3,2.8,5.7c1.7,1.4,3.7,2.5,5.8,3.3c5.5,2,11.3,3,17.1,3.1
	c0.7,0,1.5,0,2.2,0c4.5,0,9-0.5,13.3-1.5c0.3-0.1,0.7-0.2,1-0.3s0.5-0.1,0.8-0.2l0.1-0.1c0.7-0.2,1.3-0.4,1.9-0.7
	c0.3-0.1,0.6-0.3,0.9-0.4s0.6-0.3,0.9-0.4c0.7-0.4,1.4-0.8,2.1-1.3c3.2-2,4.2-6.1,2.2-9.3C85.2,131.3,84.7,130.7,84,130.2z
	 M79.7,136.3l-0.2,0.1c-0.3,0.2-0.7,0.4-1,0.6c-0.6,0.3-1.3,0.6-1.9,0.8l-1,0.3l0,0l-1,0.3c-4.6,1.2-9.4,1.6-14.2,1.4
	c-5.1-0.1-10.2-1-15-2.7c-1.4-0.5-2.7-1.2-3.8-2.1c-0.3-0.2-0.5-0.4-0.6-0.7c0.1-0.1,0.1-0.2,0.2-0.3l0.1-0.1
	c0.1-0.1,0.2-0.2,0.4-0.3c1.2-0.8,2.6-1.5,4-1.9c4.9-1.4,10-1.9,15.2-1.7c4.6,0.1,9.2,0.8,13.6,2.2l1,0.4c0.2,0.1,0.3,0.1,0.4,0.2
	l0.5,0.2c0.7,0.3,1.4,0.6,2,1c0.3,0.2,0.7,0.4,1,0.7l0.3,0.2c0.3,0.2,0.5,0.4,0.6,0.7C80.2,135.9,80,136.1,79.7,136.3L79.7,136.3z"
	/>
</svg>
