<svg xmlns="http://www.w3.org/2000/svg" width="537.775" height="274.707" viewBox="0 0 537.775 274.707">
  <g id="Group_1582" data-name="Group 1582" transform="translate(-654.3 -242.344)">
    <path id="Path_8419" data-name="Path 8419" d="M-5167.172-960.22a4.113,4.113,0,0,0-.6,0l-1.782.051a10.243,10.243,0,0,0-1.319.06l-1.567.223-1.833.266-2.056.505a33.146,33.146,0,0,0-9.929,4.283,35.124,35.124,0,0,0-16.1,26.35,37.408,37.408,0,0,0-.095,4.806c.061.805.044,1.636.163,2.45s.248,1.645.368,2.476a35.27,35.27,0,0,0,3.341,9.774,37.619,37.619,0,0,0,6.383,8.789,36.837,36.837,0,0,0,9.2,6.6,33.412,33.412,0,0,0,11.214,3.427,23,23,0,0,0,2.989.248,27.192,27.192,0,0,0,3.024.06,36.19,36.19,0,0,0,6.048-.762,35.441,35.441,0,0,0,12.053-5.08l-.36.043,12.276,4.926.728.291-.206-.754-3.614-13.124-.061.317a35.163,35.163,0,0,0,6.554-14.991,32.026,32.026,0,0,0,.479-7.71,26.006,26.006,0,0,0-.352-3.692q-.136-.907-.282-1.8c-.1-.591-.282-1.165-.428-1.713a35.125,35.125,0,0,0-13.706-19.968,33.657,33.657,0,0,0-8.147-4.283l-1.842-.66-1.713-.445-1.593-.394c-.515-.094-1.012-.146-1.474-.223-.926-.111-1.714-.274-2.459-.308l-1.8-.06h-1.1C-5166.9-960.247-5167.363-960.174-5167.172-960.22Z" transform="translate(6128.958 1203.083)" fill="#fff" stroke="#707070" stroke-width="1"/>
    <g id="Group_1546" data-name="Group 1546" transform="translate(654.3 242.839)">
      <g id="freepik--character-2--inject-7" transform="translate(266.339 53.555)">
        <rect id="Rectangle_1355" data-name="Rectangle 1355" width="216.016" height="188.184" rx="38.79" transform="translate(23.125 32.475)" fill="#f9afa1"/>
        <g id="Group_1542" data-name="Group 1542" transform="translate(23.125 32.475)">
          <rect id="Rectangle_1356" data-name="Rectangle 1356" width="216.016" height="188.184" rx="38.79" fill="#535c89"/>
        </g>
        <path id="Path_8294" data-name="Path 8294" d="M-4930.322-783.237h32.354l-33.083,33.091Z" transform="translate(5169.403 881.312)" fill="#f9afa1"/>
        <g id="Group_1543" data-name="Group 1543" transform="translate(238.353 98.076)">
          <path id="Path_8295" data-name="Path 8295" d="M-4930.322-783.237h32.354l-33.083,33.091Z" transform="translate(4931.05 783.237)" fill="#535c89"/>
        </g>
        <path id="Path_8296" data-name="Path 8296" d="M-5191.344-764.657l-13.561-15.419c-3.667-3.666-4.925-5.431-4.189-6.073.977-.857.557-.574,8.172,5.14,0,0-10.793-8.249-7.05-8.3.659,0,2.493,1.062,4.455,2.347-2.673-2.27-3.427-3.8-2.9-4.532.856-1.268,7.47,3.315,10.511,5.517-2.484-1.85-7.221-5.44-8.052-6.57-1.148-1.542,1.173-1.413,3.058-.771,2.116.72,13.809,6.69,17.27,8.232a2.235,2.235,0,0,0,3.065-.774,2.133,2.133,0,0,0,.155-.313c1.276-5.362,5.14-8.849,6.613-9.3s2.612,1.431,1.559,2.8a20.494,20.494,0,0,0-2.279,5.123,13.269,13.269,0,0,0-.693,4.395c0,1.713.12,3.2.231,4.437l12.4,17-20.73,11.993Z" transform="translate(5209.295 883.077)" fill="#b78876"/>
        <path id="Path_8297" data-name="Path 8297" d="M-5195.712-777.133c-.137.188-2.57-1.465-5.379-3.7s-5-4.206-4.84-4.386,2.57,1.482,5.38,3.7S-5195.592-777.33-5195.712-777.133Z" transform="translate(5208.814 881.599)" fill="#aa6550"/>
        <path id="Path_8298" data-name="Path 8298" d="M-5192.852-780.27c-.137.2-2.8-1.431-5.954-3.624s-5.6-4.138-5.465-4.326,2.8,1.422,5.954,3.615S-5192.715-780.467-5192.852-780.27Z" transform="translate(5208.575 882.029)" fill="#aa6550"/>
        <path id="Path_8299" data-name="Path 8299" d="M-5190.526-783.536c-.137.2-2.689-1.294-5.7-3.332s-5.337-3.846-5.208-4.052,2.682,1.293,5.7,3.332S-5190.4-783.733-5190.526-783.536Z" transform="translate(5208.168 882.417)" fill="#aa6550"/>
        <path id="Path_8300" data-name="Path 8300" d="M-5170.822-773.217l49.41,62.654-11.315,26.341s-13.553-3-17.664-8.7-37.948-68.53-37.948-68.53Z" transform="translate(5206.291 879.876)" fill="#b78876"/>
        <path id="Path_8301" data-name="Path 8301" d="M-5023.349-875.537c3.555,3.084,3.546,8.515,3.135,13.2s-.728,10.023,2.519,13.432c2.681,2.81,7.539,4.035,8.155,7.864a4.411,4.411,0,0,1-3.647,5.062,4.411,4.411,0,0,1-3.643-1.061c1.045,3.024.326,6.8-2.3,8.635s-7.016.7-7.83-2.39a3.88,3.88,0,0,1-2.788,4.727,3.879,3.879,0,0,1-4.726-2.788,3.9,3.9,0,0,1-.1-.551" transform="translate(5184.245 894.546)" fill="#263238"/>
        <path id="Path_8302" data-name="Path 8302" d="M-5083.392-845.594a4.687,4.687,0,0,1-6.129,2.523,4.687,4.687,0,0,1-2.522-6.129h0c.814-1.782,2.741-3.067,2.93-5.02.223-2.356-2.185-4.043-4.283-5.071s-4.635-2.364-4.866-4.729,1.816-4.052,3.521-5.577,3.426-3.889,2.338-5.919c-.54-1.045-1.662-1.636-2.39-2.57-1.6-2.039-.762-5.285,1.285-6.853a9.527,9.527,0,0,1,7.427-1.362,67.477,67.477,0,0,1,7.436,2.262,31.016,31.016,0,0,0,24.705-3.238" transform="translate(5193.379 896.229)" fill="#263238"/>
        <path id="Path_8303" data-name="Path 8303" d="M-5066.944-790.743a17.2,17.2,0,0,0,20.208-13.192l12.156-55.732a24.731,24.731,0,0,0-18.4-29.746q-.339-.08-.681-.151l-1.268-.188a24.894,24.894,0,0,0-27.883,19.06c-2.707,11.761-5.542,24.791-6.4,31.19-1.773,13.252,11.136,17.244,11.136,17.244l-2.321,11.136a17.2,17.2,0,0,0,13.349,20.336l.083.017Z" transform="translate(5192.102 896.622)" fill="#b78876"/>
        <path id="Path_8304" data-name="Path 8304" d="M-5078.934-857.461a1.919,1.919,0,0,0,1.542,2.176,1.823,1.823,0,0,0,2.184-1.373l.009-.04a1.9,1.9,0,0,0-1.533-2.176,1.832,1.832,0,0,0-2.194,1.381Z" transform="translate(5190.608 892.163)" fill="#263238"/>
        <path id="Path_8305" data-name="Path 8305" d="M-5079.5-859.669c.2.283,1.781-.574,3.82-.266s3.366,1.533,3.623,1.319c.129-.094-.051-.574-.625-1.139a5.239,5.239,0,0,0-2.861-1.362,5.046,5.046,0,0,0-3.083.514C-5079.323-860.208-5079.6-859.8-5079.5-859.669Z" transform="translate(5190.689 892.486)" fill="#263238"/>
        <path id="Path_8306" data-name="Path 8306" d="M-5055.744-853.662a1.91,1.91,0,0,0,1.542,2.176,1.824,1.824,0,0,0,2.184-1.376l.009-.046a1.9,1.9,0,0,0-1.542-2.167,1.816,1.816,0,0,0-2.18,1.357C-5055.735-853.7-5055.74-853.68-5055.744-853.662Z" transform="translate(5187.283 891.619)" fill="#263238"/>
        <path id="Path_8307" data-name="Path 8307" d="M-5056.244-855.809c.2.274,1.782-.574,3.813-.266s3.375,1.533,3.632,1.319c.12-.094-.052-.574-.634-1.139a5.24,5.24,0,0,0-2.861-1.362,5.049,5.049,0,0,0-3.084.514C-5056.038-856.374-5056.346-855.937-5056.244-855.809Z" transform="translate(5187.354 891.933)" fill="#263238"/>
        <path id="Path_8308" data-name="Path 8308" d="M-5068.26-842.029a13.64,13.64,0,0,0-3.212-1.079c-.514-.129-.985-.308-1.019-.677a2.692,2.692,0,0,1,.565-1.482q1.02-1.773,2.116-3.726c2.955-5.32,5.14-9.714,4.959-9.834s-2.784,4.095-5.739,9.423l-2.056,3.752a3.087,3.087,0,0,0-.565,2,1.319,1.319,0,0,0,.746.857,3.633,3.633,0,0,0,.856.248A13.649,13.649,0,0,0-5068.26-842.029Z" transform="translate(5189.786 892.15)" fill="#263238"/>
        <path id="Path_8309" data-name="Path 8309" d="M-5055.5-865.119c.12.583,2.193.617,4.532,1.251s4.172,1.568,4.566,1.122c.171-.214-.086-.788-.78-1.431a8.158,8.158,0,0,0-6.93-1.807C-5055.072-865.761-5055.543-865.35-5055.5-865.119Z" transform="translate(5187.246 893.199)" fill="#263238"/>
        <path id="Path_8310" data-name="Path 8310" d="M-5077.625-866.432c.292.514,1.713.24,3.427.463s3.066.771,3.426.334c.18-.214,0-.711-.531-1.242a5.029,5.029,0,0,0-5.568-.634C-5077.488-867.126-5077.754-866.68-5077.625-866.432Z" transform="translate(5190.422 893.476)" fill="#263238"/>
        <path id="Path_8311" data-name="Path 8311" d="M-5039.69-875.105l.06.069a10.5,10.5,0,0,1,2.879,7.3v.266c0,3.855-.694,7.71-.686,11.522s.745,7.872,3.152,10.871c.985,1.242,2.9,2.27,4.026,1.156a3.239,3.239,0,0,0,.728-1.662c2.039-9,5.706-16.713,7.084-26.238a8.111,8.111,0,0,0-2.373-7.024c-1.782-1.713-4-3.564-6.374-2.835s-5.842,4.454-7.821,6" transform="translate(5184.979 895.45)" fill="#263238"/>
        <path id="Path_8312" data-name="Path 8312" d="M-5032.045-848.384c.24-.069,9.483-1.362,7.864,7.641s-10.279,5.525-10.279,5.26S-5032.045-848.384-5032.045-848.384Z" transform="translate(5184.229 890.667)" fill="#b78876"/>
        <path id="Path_8313" data-name="Path 8313" d="M-5030.542-837.852a2.831,2.831,0,0,0,.377.3,1.6,1.6,0,0,0,1.174.24c1.011-.18,2.082-1.542,2.416-3.161a5.261,5.261,0,0,0,0-2.321,1.852,1.852,0,0,0-.968-1.413.805.805,0,0,0-1,.266c-.163.223-.137.42-.188.42s-.163-.18,0-.54a.994.994,0,0,1,.455-.5,1.209,1.209,0,0,1,.907-.077,2.251,2.251,0,0,1,1.387,1.713,5.392,5.392,0,0,1,.095,2.57c-.386,1.807-1.619,3.332-2.981,3.478a1.714,1.714,0,0,1-1.4-.5C-5030.568-837.637-5030.577-837.843-5030.542-837.852Z" transform="translate(5183.669 890.123)" fill="#aa6550"/>
        <path id="Path_8314" data-name="Path 8314" d="M-5038.474-882.447c2.758-3.3-2.57-9.38-6.853-11.445s-10.451-.745-15.111.077c-2.938.523-5.919,1.413-8.849.857a19.962,19.962,0,0,1-5.517-2.3,14.926,14.926,0,0,0-5.6-1.962,5.518,5.518,0,0,0-5.2,2.321c-1.02,1.713-.308,4.394,1.61,4.951a4.488,4.488,0,0,0-6.289.862,4.489,4.489,0,0,0,.861,6.289,4.49,4.49,0,0,0,3.038.9c-1.139-1.165-3.35.163-3.426,1.79s1.208,3.007,2.57,3.872c3.521,2.21,7.992,2.321,12.087,1.585s8.018-2.261,12.1-3.1,10.922-2.433,14.606-.488c2.707,1.422,4.2,5.14,5.919,4.634a5.592,5.592,0,0,0,3.426-3.649,16.246,16.246,0,0,0,.574-5.14" transform="translate(5192.364 897.661)" fill="#263238"/>
        <path id="Path_8315" data-name="Path 8315" d="M-5011.906-837.794a1.371,1.371,0,0,0,.471-.206,2.674,2.674,0,0,0,.977-1.114,3.925,3.925,0,0,0,.292-2.33,4.675,4.675,0,0,0-1.611-2.638,11.758,11.758,0,0,0-3.247-1.893,21.047,21.047,0,0,1-3.795-1.833,7.575,7.575,0,0,1-2.75-3.572,12.536,12.536,0,0,1-.8-4.866c.086-3.427,1.037-6.639,1.268-9.663s-.155-5.859-1.439-7.821a7.255,7.255,0,0,0-4.283-3.212,5.013,5.013,0,0,0-1.465-.146,1.912,1.912,0,0,0-.505.077,7.46,7.46,0,0,1,1.928.24,7.233,7.233,0,0,1,4.043,3.212,12.326,12.326,0,0,1,1.3,7.615c-.3,2.955-1.217,6.168-1.319,9.688a12.858,12.858,0,0,0,.856,5.037,7.982,7.982,0,0,0,2.938,3.761,21.612,21.612,0,0,0,3.881,1.833,11.724,11.724,0,0,1,3.178,1.782,4.494,4.494,0,0,1,1.576,2.45,3.716,3.716,0,0,1-.205,2.2A2.946,2.946,0,0,1-5011.906-837.794Z" transform="translate(5183.416 894.769)" fill="#455a64"/>
        <path id="Path_8316" data-name="Path 8316" d="M-5084.437-889.087a1.561,1.561,0,0,0-.394-.214,3.271,3.271,0,0,0-.5-.2,4.322,4.322,0,0,0-.728-.18,5.426,5.426,0,0,0-4.54,1.388h0a7.265,7.265,0,0,0-1.611,5.362,8.928,8.928,0,0,0,3.307,6.108,13.814,13.814,0,0,0,7.486,3.007,30.5,30.5,0,0,0,8.892-.54,40.167,40.167,0,0,0,13.106-5.071,40,40,0,0,1,5.414-2.8,14.4,14.4,0,0,1,5.14-1.054,15.341,15.341,0,0,1,7.384,1.713,25.72,25.72,0,0,1,2.39,1.516,10.54,10.54,0,0,0-2.3-1.713,15.114,15.114,0,0,0-7.478-1.91,14.761,14.761,0,0,0-5.277,1.019,40.442,40.442,0,0,0-5.474,2.8,40.437,40.437,0,0,1-12.986,4.977,30.312,30.312,0,0,1-8.763.557,13.493,13.493,0,0,1-7.273-2.878,8.611,8.611,0,0,1-3.221-5.834,6.978,6.978,0,0,1,1.473-5.14h0a5.322,5.322,0,0,1,4.334-1.431A9.322,9.322,0,0,1-5084.437-889.087Z" transform="translate(5192.513 896.583)" fill="#455a64"/>
        <path id="Path_8317" data-name="Path 8317" d="M-5077.281-897.727a5.148,5.148,0,0,0,.317,2.022,8.5,8.5,0,0,0,3.546,4.283,10.616,10.616,0,0,0,3.589,1.49,15.21,15.21,0,0,0,4.455.231c3.144-.231,6.433-1.311,9.885-2.2s6.9-1.362,9.886-.565a12.853,12.853,0,0,1,6.716,4.36,13.356,13.356,0,0,1,2.57,4.831c.343,1.259.386,2,.445,1.987a3.856,3.856,0,0,0,0-.531,10.4,10.4,0,0,0-.249-1.5,12.9,12.9,0,0,0-2.493-4.994,13.1,13.1,0,0,0-6.853-4.566c-3.084-.857-6.63-.368-10.1.531s-6.733,1.979-9.808,2.227a15.073,15.073,0,0,1-4.343-.18,10.661,10.661,0,0,1-3.5-1.388,8.566,8.566,0,0,1-3.546-4.06A12.232,12.232,0,0,1-5077.281-897.727Z" transform="translate(5190.369 897.727)" fill="#455a64"/>
        <path id="Path_8318" data-name="Path 8318" d="M-5072.213-831.581a9.765,9.765,0,0,0,.694,2.57,3.145,3.145,0,0,0,1.927,1.713,2.809,2.809,0,0,0,2.57-.78,4.544,4.544,0,0,0,1.208-2.518c.137-.857,0-1.927-.856-2.2a2.192,2.192,0,0,0-1.054,0l-4.746.857" transform="translate(5189.678 888.427)" fill="#aa6550"/>
        <path id="Path_8319" data-name="Path 8319" d="M-5071.5-828.023a6.686,6.686,0,0,0,2.365.445,3.353,3.353,0,0,0,2.21-1.011,3.56,3.56,0,0,0,.951-2.767,3.1,3.1,0,0,0-.171-.754c-.111-.231-.077-.214-.274-.24a2.99,2.99,0,0,0-.763.043l-.8.06c-1.028.077-1.953.137-2.732.18a8.134,8.134,0,0,1-2.57-.051,8.738,8.738,0,0,1,2.492-.514c.771-.111,1.713-.223,2.716-.343l.788-.086a8.014,8.014,0,0,1,.857-.077,1.072,1.072,0,0,1,.625.223,1.243,1.243,0,0,1,.351.523,3.7,3.7,0,0,1,.223.959,4.206,4.206,0,0,1-1.225,3.367,3.826,3.826,0,0,1-2.716,1.054,3.551,3.551,0,0,1-1.868-.523C-5071.327-827.775-5071.524-827.989-5071.5-828.023Z" transform="translate(5189.794 888.467)" fill="#263238"/>
        <path id="Path_8320" data-name="Path 8320" d="M-5076.305-810.917s8.635,3.272,17.039.857c0,0-6.339,5.32-17.9,3.281Z" transform="translate(5190.352 885.281)" fill="#aa6550"/>
        <path id="Path_8321" data-name="Path 8321" d="M-5066.651-669.413a9.825,9.825,0,0,1-1.182-.908c-.368-.3-.857-.668-1.379-1.062s-1.156-.857-1.885-1.328-1.482-.985-2.364-1.473-1.816-1-2.818-1.516a43.987,43.987,0,0,0-13.98-4.18c-1.123-.12-2.185-.257-3.187-.283s-1.936-.069-2.784-.06-1.627.051-2.3.077-1.259.077-1.713.129a8.936,8.936,0,0,1-1.482.1,11.37,11.37,0,0,1,1.465-.274q.853-.145,1.713-.206c.677-.051,1.448-.146,2.313-.146s1.8-.051,2.81,0,2.09.137,3.221.24a46.834,46.834,0,0,1,7.247,1.49,45.482,45.482,0,0,1,6.853,2.733c1,.531,1.97,1.019,2.818,1.568s1.653,1.037,2.355,1.533,1.319.977,1.859,1.388.985.805,1.336,1.131A9.03,9.03,0,0,1-5066.651-669.413Z" transform="translate(5193.874 866.592)" fill="#fafafa"/>
        <path id="Path_8322" data-name="Path 8322" d="M-5128.913-727.975l7.024-30.436c2.689-11.445,5.876-22.444,11.23-23.746v3.538l-2.3,86.956s-14.314,16.276-32.552,7.247c-5.705-2.835-16.113-22.752-16.113-22.752s-24.217-43.208-23.206-45.17,15.8-21.03,17.313-21.981Z" transform="translate(5205.791 881.158)" fill="#f9afa1"/>
        <path id="Path_8323" data-name="Path 8323" d="M-5044.759-792.528c13.963,2.673,29.683,10.819,36.921,31.7,2.638,7.624,21.861,63.827,21.861,63.827l-32.783-.685-5.294-11.573,2.569,18.8,2.219,26.813-82.784,1.4.582-40.4.8-80.352s.925-1.216,15.205-9.089C-5076.608-796.982-5044.759-792.528-5044.759-792.528Z" transform="translate(5193.919 882.911)" fill="#f9afa1"/>
        <g id="Group_1544" data-name="Group 1544" transform="translate(157.384 144.128)" opacity="0.2">
          <path id="Path_8324" data-name="Path 8324" d="M-5025.536-729.477c1.362,16.961,2.921,22.2,4.283,39.165a15.076,15.076,0,0,0,.856,4.711,5.139,5.139,0,0,0,3.427,3.127c2.416.488,5.551,2.236,6.228-.129l-2.288-16.336a32.17,32.17,0,0,0-2.261-6.9c-5.08-11.282-6.956-11.941-10.279-23.643" transform="translate(5025.57 729.477)"/>
        </g>
        <path id="Path_8325" data-name="Path 8325" d="M-5082.7-784.965l.274-1.765,2.646-16.927a1.972,1.972,0,0,1,2.107-1.662l32.6,2.724a3.743,3.743,0,0,1,3.426,4.009l-.728,9.834-10.177,13.278-14.657,2.287" transform="translate(5191.145 884.479)" fill="#f9afa1"/>
        <path id="Path_8326" data-name="Path 8326" d="M-5101.847-744.407c.128,0,.223,13.261.223,29.614s-.094,29.614-.223,29.614-.223-13.26-.223-29.614S-5101.967-744.407-5101.847-744.407Z" transform="translate(5193.922 875.745)" fill="#263238"/>
        <path id="Path_8327" data-name="Path 8327" d="M-5008.292-691.549s0-.06-.1-.188a3.384,3.384,0,0,1-.274-.583l-.994-2.253-3.572-8.318-11.642-27.506c-2.262-5.38-4.412-10.5-6.365-15.171a28.6,28.6,0,0,1-2.107-6.853,37.867,37.867,0,0,1-.565-6.253,25.244,25.244,0,0,1,1.3-8.952l.266-.711.3-.6a5.357,5.357,0,0,1,.514-.908l.36-.531a1.634,1.634,0,0,1,.137-.171,17.66,17.66,0,0,0-1.414,2.981,25.916,25.916,0,0,0-1.148,8.892,32.7,32.7,0,0,0,2.732,12.978l6.4,15.154,11.521,27.558,3.426,8.369.917,2.287.231.6A1.025,1.025,0,0,1-5008.292-691.549Z" transform="translate(5184.152 879.493)" fill="#263238"/>
        <path id="Path_8328" data-name="Path 8328" d="M-5035.629-788.727a10.54,10.54,0,0,1-.951.857,14.691,14.691,0,0,1-3.126,1.825,23.448,23.448,0,0,1-5.5,1.542,67.966,67.966,0,0,1-7.538.745c-2.81.12-5.876.069-9.166.128a42.414,42.414,0,0,0-10.365,1.268,19.112,19.112,0,0,0-9.749,5.748,13.465,13.465,0,0,0-2.707,5.345,11.438,11.438,0,0,0,.1,6.125,9.747,9.747,0,0,0,1.43,2.741,7.217,7.217,0,0,0,2.313,1.953,5.033,5.033,0,0,0,2.861.6,3.91,3.91,0,0,0,2.518-1.285,6.853,6.853,0,0,0,1.268-5.422,8.877,8.877,0,0,0-.856-2.673,13.066,13.066,0,0,0-1.517-2.3,16.139,16.139,0,0,0-8.789-5.2,18.671,18.671,0,0,0-8.986.1,24.666,24.666,0,0,0-6.853,2.938,32.808,32.808,0,0,0-4.558,3.427c-1.173,1.028-2,1.919-2.57,2.5l-.634.685a1.5,1.5,0,0,1-.231.223,28.074,28.074,0,0,1,3.34-3.538,31.012,31.012,0,0,1,4.541-3.478,24.614,24.614,0,0,1,6.938-3.032,18.853,18.853,0,0,1,9.149-.154,16.456,16.456,0,0,1,9.02,5.3,13.445,13.445,0,0,1,1.56,2.313,9.284,9.284,0,0,1,.856,2.8,8.985,8.985,0,0,1-.051,2.99,5.929,5.929,0,0,1-1.311,2.784,4.339,4.339,0,0,1-2.792,1.431,5.419,5.419,0,0,1-3.118-.643,7.707,7.707,0,0,1-2.458-2.073,10.155,10.155,0,0,1-1.508-2.878,11.83,11.83,0,0,1-.1-6.365,13.719,13.719,0,0,1,2.8-5.525,19.605,19.605,0,0,1,9.972-5.868,42.608,42.608,0,0,1,10.477-1.216c3.3-.051,6.365,0,9.157-.077a68.5,68.5,0,0,0,7.513-.677,24.267,24.267,0,0,0,5.482-1.456,15.64,15.64,0,0,0,3.136-1.713c.342-.231.574-.445.745-.565A1.845,1.845,0,0,1-5035.629-788.727Z" transform="translate(5194.948 882.099)" fill="#fafafa"/>
        <path id="Path_8329" data-name="Path 8329" d="M-4995.951-747.425a1.618,1.618,0,0,1-.368.06c-.24,0-.591.06-1.054.077a33.913,33.913,0,0,1-3.88-.094c-1.636-.12-3.572-.368-5.714-.668s-4.488-.617-6.973-.745a26.922,26.922,0,0,0-6.93.523,17.483,17.483,0,0,0-5.294,2.013,15.261,15.261,0,0,0-3.906,3.427,1.222,1.222,0,0,1,.188-.317,6.187,6.187,0,0,1,.617-.857,11.817,11.817,0,0,1,2.938-2.57,17.239,17.239,0,0,1,5.363-2.142,26.339,26.339,0,0,1,7.05-.565c2.51.128,4.866.471,7.007.788s4.061.6,5.68.754,2.947.223,3.854.231A11.748,11.748,0,0,1-4995.951-747.425Z" transform="translate(5183.599 876.45)" fill="#fafafa"/>
        <path id="Path_8330" data-name="Path 8330" d="M-5026.791-706.254a17.286,17.286,0,0,0-4.917-.42,26.7,26.7,0,0,0-5.714,1.019c-2.185.591-4.626,1.456-7.366,2.3a30.307,30.307,0,0,1-9.235,1.6,26.452,26.452,0,0,1-10.519-2.184,26.173,26.173,0,0,1-9.595-6.973,19.983,19.983,0,0,1-3.427-5.328,12.179,12.179,0,0,1-.984-6.433,9.371,9.371,0,0,1,3.04-5.731,6.689,6.689,0,0,1,2.888-1.473,6.759,6.759,0,0,1,5.937,1.6,5.137,5.137,0,0,1,1.541,2.664,5.193,5.193,0,0,1-.23,3.007,7.232,7.232,0,0,1-1.6,2.458,12.749,12.749,0,0,1-4.7,2.99,14.372,14.372,0,0,1-2.57.711c-.428.077-.856.171-1.276.231l-1.276.154a27.809,27.809,0,0,1-9.346-.66,29.13,29.13,0,0,1-7.222-2.775,26.713,26.713,0,0,1-4.806-3.324l-.856-.745-.7-.711a11.908,11.908,0,0,1-1.062-1.148l-.616-.737a1.8,1.8,0,0,1-.189-.257,2.045,2.045,0,0,1,.231.231l.643.7a12.924,12.924,0,0,0,1.088,1.114l.711.694.856.728a27.078,27.078,0,0,0,4.806,3.23,29.1,29.1,0,0,0,7.171,2.69,27.523,27.523,0,0,0,9.242.6l1.251-.154c.42-.068.856-.163,1.268-.24a13.784,13.784,0,0,0,2.511-.7,12.42,12.42,0,0,0,4.549-2.9,6.852,6.852,0,0,0,1.507-2.321,4.9,4.9,0,0,0,.214-2.767,5.361,5.361,0,0,0-4-3.838,6,6,0,0,0-5.662,1.294,8.851,8.851,0,0,0-2.887,5.457,11.878,11.878,0,0,0,.942,6.193,19.888,19.888,0,0,0,3.323,5.217,25.807,25.807,0,0,0,9.423,6.853,26.269,26.269,0,0,0,10.356,2.193,30.125,30.125,0,0,0,9.149-1.542c2.732-.857,5.14-1.662,7.393-2.236a26.512,26.512,0,0,1,5.765-.951,17.048,17.048,0,0,1,2.134,0c.607.094,1.13.137,1.541.231l.934.231A1.382,1.382,0,0,1-5026.791-706.254Z" transform="translate(5193.855 873.682)" fill="#fafafa"/>
        <path id="Path_8331" data-name="Path 8331" d="M-5104.288-714.948c-.077,0-.471-.857-1.3-2.3a22.354,22.354,0,0,0-9.14-8.523c-1.456-.737-2.416-1.062-2.39-1.139a2.6,2.6,0,0,1,.7.163,13.928,13.928,0,0,1,1.825.685,20.019,20.019,0,0,1,5.345,3.572,19.707,19.707,0,0,1,3.932,5.088,14.8,14.8,0,0,1,.856,1.765A2.623,2.623,0,0,1-5104.288-714.948Z" transform="translate(5196.08 873.236)" fill="#fafafa"/>
        <path id="Path_8332" data-name="Path 8332" d="M-5142.106-679.263a1.255,1.255,0,0,1-.137-.214c-.077-.146-.205-.377-.351-.642-.309-.565-.754-1.413-1.3-2.51a58.7,58.7,0,0,1-3.923-9.654,31.209,31.209,0,0,1-1.225-7.1,22.152,22.152,0,0,1,.163-4.026,24.173,24.173,0,0,1,1.011-4.155,18.119,18.119,0,0,1,5.029-7.607,12.311,12.311,0,0,1,9.14-3.212,6.784,6.784,0,0,1,4.505,2.193,5.534,5.534,0,0,1,1.277,4.686,4.165,4.165,0,0,1-1.216,2.116,4.951,4.951,0,0,1-2.091,1.139,6.169,6.169,0,0,1-4.48-.54,10.223,10.223,0,0,1-3.263-2.784,15,15,0,0,1-2.065-3.487,15.421,15.421,0,0,1-1.122-7.093,14.572,14.572,0,0,1,1.713-5.7,14.886,14.886,0,0,1,2.69-3.6,14.029,14.029,0,0,1,2.2-1.79c.266-.18.488-.291.634-.377l.223-.111s-.274.2-.805.565a15.6,15.6,0,0,0-2.133,1.833,15.25,15.25,0,0,0-2.57,3.589,14.393,14.393,0,0,0-1.6,5.6,15.039,15.039,0,0,0,1.165,6.939,14.806,14.806,0,0,0,2.021,3.384,9.911,9.911,0,0,0,3.153,2.664,5.736,5.736,0,0,0,4.18.5,4.024,4.024,0,0,0,2.99-2.947,5.137,5.137,0,0,0-1.183-4.283,6.338,6.338,0,0,0-4.214-2.039,11.884,11.884,0,0,0-8.806,3.092,17.852,17.852,0,0,0-4.925,7.418,23.253,23.253,0,0,0-1.02,4.069,22.3,22.3,0,0,0-.18,3.958,31.437,31.437,0,0,0,1.165,7.033,62.653,62.653,0,0,0,3.769,9.663l1.225,2.57c.128.274.231.5.316.668S-5142.106-679.263-5142.106-679.263Z" transform="translate(5200.661 874.214)" fill="#fafafa"/>
        <path id="Path_8333" data-name="Path 8333" d="M-5156.4-758.427a2.069,2.069,0,0,1,.077.351,10.168,10.168,0,0,1,.129,1.045,21.9,21.9,0,0,1,0,3.846A24.448,24.448,0,0,1-5170-733.114a21.952,21.952,0,0,1-3.589,1.379c-.429.137-.78.2-1.011.257s-.359.068-.359.051a11.042,11.042,0,0,1,1.319-.471,26.933,26.933,0,0,0,3.5-1.5,25.071,25.071,0,0,0,13.638-19.822,27.714,27.714,0,0,0,.146-3.8A10.972,10.972,0,0,1-5156.4-758.427Z" transform="translate(5204.372 877.755)" fill="#fafafa"/>
        <path id="Path_8334" data-name="Path 8334" d="M-4985.285-715.068a12.541,12.541,0,0,0-3.307,3.015c-.856,1.105-1.713,2.57-2.681,4.112a31.622,31.622,0,0,1-3.658,4.84,30.813,30.813,0,0,1-8.78,6.6,25.673,25.673,0,0,1-3.067,1.311,6.642,6.642,0,0,1-1.182.343,6.651,6.651,0,0,1,1.113-.505c.72-.317,1.765-.762,2.99-1.431a32.966,32.966,0,0,0,8.566-6.622,32.453,32.453,0,0,0,3.641-4.754,45.108,45.108,0,0,1,2.784-4.095,10.826,10.826,0,0,1,2.458-2.27,5.423,5.423,0,0,1,.8-.437C-4985.388-715.042-4985.285-715.085-4985.285-715.068Z" transform="translate(5180.429 871.539)" fill="#fafafa"/>
        <path id="Path_8335" data-name="Path 8335" d="M-5042-791.248a1.329,1.329,0,0,1-.395.1l-1.139.206c-.994.163-2.433.377-4.206.617-3.564.48-8.5,1.045-13.972,1.448a69.352,69.352,0,0,1-7.71.274,21.839,21.839,0,0,1-6.245-1.071,13.853,13.853,0,0,1-3.812-1.927,9.46,9.46,0,0,1-.908-.728c-.189-.188-.283-.283-.274-.3s.445.343,1.276.857a15.276,15.276,0,0,0,3.812,1.765,22.183,22.183,0,0,0,6.167.959,76.17,76.17,0,0,0,7.71-.308c5.457-.4,10.391-.908,13.955-1.311l4.223-.48A10.958,10.958,0,0,1-5042-791.248Z" transform="translate(5190.853 882.659)" fill="#263238"/>
        <path id="Path_8336" data-name="Path 8336" d="M-4981.6-674.073a23.017,23.017,0,0,1-18.2,26.99,23,23,0,0,1-4.168.422l-64.89-.72,1.713-21.013,55.561-8.344" transform="translate(5189.161 866.043)" fill="#b78876"/>
        <path id="Path_8337" data-name="Path 8337" d="M-5068.942-666.827c-.3.094-4.043-1.585-7.4-3.135a24.2,24.2,0,0,0-11.394-2.21l-15.471.788s.951,2.57,2.57,3.427,11.325,1.131,11.325,1.131l-.5.505a11.134,11.134,0,0,1-7.709,3.375H-5099a14.369,14.369,0,0,1-3.229-.634l-3.812-1.542c-1.157-.514-2.373-.437-2.878.728s-.12,2.5,3.032,4.086c1.756.857,8.284,3.144,8.284,3.144a15.4,15.4,0,0,0,.386,2.758c.283.951,2.844,1.9,2.844,1.9a34.19,34.19,0,0,0,2.279,4.078c.3.343,2.621,1.071,5.1,1.765a22,22,0,0,0,12.189-.094l5.894-1.765V-666.51" transform="translate(5194.931 865.393)" fill="#b78876"/>
        <path id="Path_8338" data-name="Path 8338" d="M-5088.226-652.563a17.528,17.528,0,0,1-7.8-2.056c0-.1,1.713.548,3.88,1.105S-5088.218-652.691-5088.226-652.563Z" transform="translate(5193.056 862.874)" fill="#aa6550"/>
        <path id="Path_8339" data-name="Path 8339" d="M-5088.251-648.195a3.957,3.957,0,0,1-2.176-.163,4.017,4.017,0,0,1-1.953-.959,12.946,12.946,0,0,1,2.056.591A14.033,14.033,0,0,1-5088.251-648.195Z" transform="translate(5192.533 862.112)" fill="#aa6550"/>
        <path id="Path_8340" data-name="Path 8340" d="M-5085.972-667.557a6.554,6.554,0,0,1-1.191,1.276,19.034,19.034,0,0,1-3.375,2.57,13.277,13.277,0,0,1-3.95,1.525,5.659,5.659,0,0,1-1.713.188,22.518,22.518,0,0,0,5.5-2.047,26.223,26.223,0,0,0,3.384-2.424A9.728,9.728,0,0,1-5085.972-667.557Z" transform="translate(5193.081 864.727)" fill="#aa6550"/>
        <path id="Path_8341" data-name="Path 8341" d="M-5060.644-672.007l-1.577,23.763h61.121a22.823,22.823,0,0,0,11.778-3.264h0a22.853,22.853,0,0,0,10.656-23.986,70.306,70.306,0,0,0-3.939-13.184l-30.736,5.063.985,3.821Z" transform="translate(5188.209 867.755)" fill="#f9afa1"/>
        <path id="Path_8342" data-name="Path 8342" d="M-4997.775-680.639a4.857,4.857,0,0,1-.617.137l-1.79.326-6.6,1.1-21.724,3.427-21.75,3.332-6.6.959-1.8.24a5.618,5.618,0,0,1-.634.051,3.071,3.071,0,0,1,.625-.146l1.782-.317,6.579-1.1,21.724-3.427,21.793-3.358,6.6-.959,1.8-.24A2.919,2.919,0,0,1-4997.775-680.639Z" transform="translate(5187.789 866.604)" fill="#263238"/>
        <path id="Path_8343" data-name="Path 8343" d="M-5026.1-645.814c-.111,0,.369-1.713.428-4.514a19.3,19.3,0,0,0-.094-2.279,21.119,21.119,0,0,0-.377-2.57,23.894,23.894,0,0,0-1.987-5.637,25.792,25.792,0,0,0-3.341-4.968l-.856-1c-.292-.326-.608-.608-.9-.9-.574-.591-1.183-1.062-1.713-1.516-2.185-1.713-3.735-2.57-3.684-2.647a6.607,6.607,0,0,1,1.088.557,11.612,11.612,0,0,1,1.233.745c.454.326,1.02.642,1.559,1.105a19.881,19.881,0,0,1,1.765,1.491c.3.291.633.565.934.857l.934,1.011a25.121,25.121,0,0,1,3.426,5.028,23.728,23.728,0,0,1,1.988,5.757,19.324,19.324,0,0,1,.343,2.647,16.324,16.324,0,0,1,0,2.313,15.166,15.166,0,0,1-.171,1.91,9.492,9.492,0,0,1-.249,1.413A7.226,7.226,0,0,1-5026.1-645.814Z" transform="translate(5184.825 865.342)" fill="#fafafa"/>
        <path id="Path_8344" data-name="Path 8344" d="M-4984.123-648.326a12.791,12.791,0,0,1-2.835-.334,14.654,14.654,0,0,1-3.17-1.122,12.592,12.592,0,0,1-3.572-2.656,11.382,11.382,0,0,1-2.63-4.711,12.707,12.707,0,0,1-.454-3,11.71,11.71,0,0,1,.257-3.2,9.456,9.456,0,0,1,1.269-3.144,7.129,7.129,0,0,1,2.569-2.45,6.381,6.381,0,0,1,3.59-.857,4.793,4.793,0,0,1,3.35,1.713,4.694,4.694,0,0,1,1.13,3.606,4.276,4.276,0,0,1-2.107,3.015,10.033,10.033,0,0,1-6.75.925,14.091,14.091,0,0,1-11.915-13.5,10.126,10.126,0,0,1,.239-2.844,23.892,23.892,0,0,0-.068,2.835,14.563,14.563,0,0,0,2.441,7.213,13.978,13.978,0,0,0,9.354,5.936,9.668,9.668,0,0,0,6.459-.857,3.853,3.853,0,0,0,1.9-2.7,4.47,4.47,0,0,0-4.071-4.838l-.015,0a5.928,5.928,0,0,0-3.332.762,7.71,7.71,0,0,0-3.641,5.294,11.262,11.262,0,0,0-.266,3.1,12.26,12.26,0,0,0,.42,2.9,11.014,11.014,0,0,0,2.5,4.6,12.48,12.48,0,0,0,3.427,2.647,15.038,15.038,0,0,0,3.1,1.174C-4985.143-648.4-4984.114-648.386-4984.123-648.326Z" transform="translate(5180.063 866.063)" fill="#fafafa"/>
      </g>
      <g id="freepik--character-1--inject-7" transform="translate(0 2.21)">
        <path id="Path_8345" data-name="Path 8345" d="M-5300.382-945.747h-153.071a33.734,33.734,0,0,0-33.734,33.734h0v54.55h-33.022l33.022,33.023v37.083a33.734,33.734,0,0,0,33.734,33.734h153.071a33.734,33.734,0,0,0,33.734-33.734h0V-912.013a33.734,33.734,0,0,0-33.734-33.734Z" transform="translate(5520.21 955.956)" fill="#f9afa1"/>
        <path id="Path_8346" data-name="Path 8346" d="M-5338.187-939.463c-.968,2.51.694,5.243,2.57,7.178s4.121,3.769,4.711,6.391c.488,2.2-.326,4.489-.129,6.733s1.439,4.36,2.142,6.553c1.277,3.975.763,8.318-.376,12.335a22.671,22.671,0,0,1-4.592,9.089,12.107,12.107,0,0,1-8.977,4.283,3.545,3.545,0,0,1-2.656-.959,4.281,4.281,0,0,1-.762-2.356,229.664,229.664,0,0,1,0-51.912" transform="translate(5495.481 955.437)" fill="#263238"/>
        <path id="Path_8347" data-name="Path 8347" d="M-5341.689-874.341c7.453-.326,14.34,6.81,13.749,14.246,7.547,1.842,12.85,10.143,11.4,17.766-.489,2.518-1.611,4.917-1.765,7.47-.171,2.793.856,5.508,1.362,8.249a25.98,25.98,0,0,1-1.49,14.871c-1.174,2.835-3.367,5.765-6.434,5.851a6.337,6.337,0,0,1-5.14-3.024,15.957,15.957,0,0,1-2.073-5.851c-1.328-6.7-1.713-13.578-3.563-20.148s-5.448-13.046-11.385-16.379c-3.28-1.85-7.221-2.724-9.834-5.44a10.683,10.683,0,0,1-1.927-11.05,14.085,14.085,0,0,1,8.4-7.838" transform="translate(5497.176 945.901)" fill="#263238"/>
        <path id="Path_8348" data-name="Path 8348" d="M-5399.1-935.549c-.086-3.187,2.853-5.645,5.816-6.853s6.262-1.61,8.9-3.427c2.348-1.576,3.915-4.035,5.894-6a19.609,19.609,0,0,1,27.73-.194,19.607,19.607,0,0,1,5.25,9.188c1.139,4.532.359,9.894-3.212,12.909-4.146,3.5-10.28,2.716-15.617,1.628s-11.333-2.159-15.771.968c-2.673,1.876-4.214,4.943-5.851,7.778s-3.684,5.722-6.776,6.793-7.3-.779-7.418-4.043" transform="translate(5502.997 957.665)" fill="#263238"/>
        <path id="Path_8349" data-name="Path 8349" d="M-5385.056-932.309a5.329,5.329,0,0,0-4.754,5.414h0l3.178,71.957c.137,8.5,12.558,13.269,21.656,13.055h0c9.191-.214,9.482-4.72,9.6-12.807.188-13.5.171-18.572.18-18.495s11.607-1.953,13.98-17.133c1.173-7.53.771-19.882.111-29.982-.591-9.089-6.639-20.225-15.693-19.248Z" transform="translate(5501.515 955.076)" fill="#ffbe9d"/>
        <path id="Path_8350" data-name="Path 8350" d="M-5336.648-906.215a1.943,1.943,0,0,1-1.867,1.962,1.849,1.849,0,0,1-2-1.684l0-.029a1.938,1.938,0,0,1,1.868-1.962,1.852,1.852,0,0,1,2,1.685Z" transform="translate(5494.448 950.535)" fill="#263238"/>
        <path id="Path_8351" data-name="Path 8351" d="M-5337.346-909.873c-.24.257-1.713-.857-3.8-.857s-3.624,1.062-3.854.805c-.111-.111.137-.574.805-1.062a5.3,5.3,0,0,1,3.075-.951,5.139,5.139,0,0,1,3.032.968C-5337.449-910.464-5337.227-909.984-5337.346-909.873Z" transform="translate(5495.094 951.109)" fill="#263238"/>
        <path id="Path_8352" data-name="Path 8352" d="M-5360.1-906.215a1.944,1.944,0,0,1-1.867,1.962,1.849,1.849,0,0,1-2-1.684l0-.029a1.937,1.937,0,0,1,1.868-1.962,1.851,1.851,0,0,1,2,1.685Z" transform="translate(5497.81 950.535)" fill="#263238"/>
        <path id="Path_8353" data-name="Path 8353" d="M-5361.285-909.364c-.24.257-1.713-.857-3.8-.857s-3.624,1.062-3.847.805c-.111-.111.129-.574.8-1.062a5.331,5.331,0,0,1,3.075-.959,5.142,5.142,0,0,1,3.032.977C-5361.43-909.938-5361.208-909.475-5361.285-909.364Z" transform="translate(5498.525 951.037)" fill="#263238"/>
        <path id="Path_8354" data-name="Path 8354" d="M-5351.315-893.852a14.062,14.062,0,0,1,3.427-.617c.531-.06,1.037-.171,1.13-.531a2.8,2.8,0,0,0-.359-1.585l-1.593-4.06c-2.2-5.782-3.8-10.536-3.564-10.622s2.21,4.532,4.412,10.28l1.525,4.086a3.138,3.138,0,0,1,.283,2.09,1.351,1.351,0,0,1-.856.788,3.323,3.323,0,0,1-.856.12A13.582,13.582,0,0,1-5351.315-893.852Z" transform="translate(5496.137 951.013)" fill="#263238"/>
        <path id="Path_8355" data-name="Path 8355" d="M-5352.8-862.956a38.549,38.549,0,0,1-20.3-5.371s4.943,10.4,20.105,8.943Z" transform="translate(5499.119 944.856)" fill="#eb996e"/>
        <path id="Path_8356" data-name="Path 8356" d="M-5353.22-885.294a3.761,3.761,0,0,0-3.427-1.388,3.429,3.429,0,0,0-2.373,1.276,2.175,2.175,0,0,0-.154,2.493,2.51,2.51,0,0,0,2.741.685,7.818,7.818,0,0,0,2.664-1.6,2.254,2.254,0,0,0,.6-.617.692.692,0,0,0,0-.779" transform="translate(5497.168 947.492)" fill="#eb996e"/>
        <path id="Path_8357" data-name="Path 8357" d="M-5358.387-889.217c.343,0,.352,2.253,2.3,3.855s4.36,1.353,4.377,1.713c0,.146-.539.445-1.559.471a5.645,5.645,0,0,1-3.658-1.259,4.928,4.928,0,0,1-1.773-3.238C-5358.8-888.677-5358.541-889.217-5358.387-889.217Z" transform="translate(5497.058 947.851)" fill="#263238"/>
        <path id="Path_8358" data-name="Path 8358" d="M-5360.6-913.561c-.206.574-2.3.308-4.746.608s-4.437.977-4.763.463c-.146-.24.2-.779.994-1.328a8.327,8.327,0,0,1,7.247-.857C-5360.931-914.272-5360.477-913.827-5360.6-913.561Z" transform="translate(5498.694 951.568)" fill="#263238"/>
        <path id="Path_8359" data-name="Path 8359" d="M-5338.192-916.942c-.369.471-1.808,0-3.547,0s-3.2.326-3.529-.171c-.154-.24.077-.711.719-1.165a5.14,5.14,0,0,1,5.7.163C-5338.192-917.661-5338.012-917.173-5338.192-916.942Z" transform="translate(5495.135 952.13)" fill="#263238"/>
        <path id="Path_8360" data-name="Path 8360" d="M-5396.63-883a13.441,13.441,0,0,0,15.838-10.51,13.454,13.454,0,0,0,.164-4.318c-.471-3.726-2.476-7.5-1.182-11.033,1.713-4.651,8.232-6.082,9.962-10.734,1-2.7.1-5.859,1.242-8.506,1.071-2.484,3.692-3.915,6.245-4.84s5.277-1.559,7.418-3.221,3.469-4.8,2.09-7.136a143.519,143.519,0,0,0-33.1,8.044c-2.476.925-5.071,2.039-6.536,4.232-1.542,2.33-1.464,5.328-1.336,8.121.633,13.6-1.439,26.341-.805,39.945" transform="translate(5502.51 955.605)" fill="#263238"/>
        <path id="Path_8361" data-name="Path 8361" d="M-5401.4-888.314a.852.852,0,0,1-.249-.077,3.143,3.143,0,0,1-.694-.343,5.029,5.029,0,0,1-1.885-2.227,7.48,7.48,0,0,1-.5-4.6,14.668,14.668,0,0,1,2.75-5.508,40.393,40.393,0,0,0,4.163-6.116,9.41,9.41,0,0,0,1-3.906,12.967,12.967,0,0,0-.856-4.215,12.805,12.805,0,0,1-.9-4.574,10.282,10.282,0,0,1,4.925-8.275,11.786,11.786,0,0,1,4.994-1.422,20.986,20.986,0,0,0,4.994-.857,6.516,6.516,0,0,0,3.512-3.161,24.2,24.2,0,0,0,1.662-4.472,24.273,24.273,0,0,1,1.713-4.283,16.212,16.212,0,0,1,5.679-6.382,12.287,12.287,0,0,1,7.188-1.867,9.244,9.244,0,0,1,5.662,2.321,8.943,8.943,0,0,1,2.527,3.889,7.2,7.2,0,0,1,.351,2.912,4.354,4.354,0,0,1-.171,1.011,8.748,8.748,0,0,0,.086-1.019,7.581,7.581,0,0,0-.428-2.853,8.892,8.892,0,0,0-8.044-5.945,12,12,0,0,0-6.973,1.867,15.836,15.836,0,0,0-5.517,6.253,23.734,23.734,0,0,0-1.662,4.283,24.332,24.332,0,0,1-1.713,4.549,7.745,7.745,0,0,1-1.534,2.022,6.492,6.492,0,0,1-2.21,1.345,21.033,21.033,0,0,1-5.14.908,11.311,11.311,0,0,0-4.814,1.362,9.837,9.837,0,0,0-4.72,7.9,12.581,12.581,0,0,0,.856,4.437,13.1,13.1,0,0,1,.9,4.352,9.831,9.831,0,0,1-1.062,4.06,41.391,41.391,0,0,1-4.241,6.142,14.369,14.369,0,0,0-2.758,5.371,7.275,7.275,0,0,0,.4,4.472,5.14,5.14,0,0,0,1.782,2.236C-5401.746-888.434-5401.395-888.349-5401.4-888.314Z" transform="translate(5503.676 956.654)" fill="#455a64"/>
        <path id="Path_8362" data-name="Path 8362" d="M-5349.431-955a1.405,1.405,0,0,1,.591.18,6.036,6.036,0,0,1,1.431.857,7.34,7.34,0,0,1,1.5,10.031,6.469,6.469,0,0,1-1.114,1.242c-.308.257-.5.368-.514.343a21.057,21.057,0,0,0,1.363-1.713,7.392,7.392,0,0,0-1.431-9.62A19.455,19.455,0,0,0-5349.431-955Z" transform="translate(5495.726 957.282)" fill="#455a64"/>
        <path id="Path_8363" data-name="Path 8363" d="M-5314.582-838.266a12.6,12.6,0,0,0,.437-1.61,7.412,7.412,0,0,0-.745-4.36,10.116,10.116,0,0,0-4.78-4.454,19.862,19.862,0,0,0-3.726-1.328c-1.336-.343-2.75-.625-4.164-1.088a9.422,9.422,0,0,1-3.829-2.09,6.391,6.391,0,0,1-1.807-3.632c-.231-1.276-.309-2.484-.591-3.564a6.986,6.986,0,0,0-1.379-2.724,7.874,7.874,0,0,0-3.667-2.493c-1.02-.308-1.627-.308-1.627-.36a2.183,2.183,0,0,1,.437,0,7.135,7.135,0,0,1,1.242.2,7.774,7.774,0,0,1,3.855,2.458,7.233,7.233,0,0,1,1.5,2.835c.308,1.122.4,2.347.643,3.581a5.931,5.931,0,0,0,1.713,3.427,9.112,9.112,0,0,0,3.658,1.979c1.379.445,2.792.737,4.137,1.088a19.154,19.154,0,0,1,3.769,1.353,10.284,10.284,0,0,1,4.883,4.686,7.382,7.382,0,0,1,.634,4.532,5.359,5.359,0,0,1-.385,1.191A2.076,2.076,0,0,1-5314.582-838.266Z" transform="translate(5494.439 944.52)" fill="#455a64"/>
        <path id="Path_8364" data-name="Path 8364" d="M-5390.414-876.042c-7.71-2.056-14.306-9.569-17-17.047s-2.69-15.642-2-23.557c.5-5.731,1.508-11.8,5.311-16.113,5.74-6.51,11.993-9.834,20.627-9.56" transform="translate(5504.38 955.467)" fill="#263238"/>
        <path id="Path_8365" data-name="Path 8365" d="M-5345.544-847.881l-7.153-1.8a4.068,4.068,0,0,0,1.422-4.986,6.554,6.554,0,0,0-5.465-4.052l-32.6-3.683a2.571,2.571,0,0,0-2.732,1.61q-2.167,5.518-.146,9.08h-.154l-6.288,1.251-10.656,94.006,69.8-3.264Z" transform="translate(5504.312 944.01)" fill="#f5f5f5"/>
        <path id="Path_8366" data-name="Path 8366" d="M-5352.479-847.407a7.326,7.326,0,0,1-1.311.257c-.856.137-2.082.283-3.606.437a84.224,84.224,0,0,1-23.892-1.191c-1.508-.3-2.715-.574-3.546-.8a6.924,6.924,0,0,1-1.276-.377,7.522,7.522,0,0,1,1.311.214c.857.163,2.065.394,3.572.651a98.884,98.884,0,0,0,23.806,1.182c1.525-.1,2.759-.214,3.615-.3A8.6,8.6,0,0,1-5352.479-847.407Z" transform="translate(5500.984 942.096)" fill="#263238"/>
        <path id="Path_8367" data-name="Path 8367" d="M-5383.68-831a25.763,25.763,0,0,1,2.441-4.06,25.432,25.432,0,0,1,2.818-3.812,25.257,25.257,0,0,1-2.45,4.06A24.984,24.984,0,0,1-5383.68-831Z" transform="translate(5500.635 940.634)" fill="#e0e0e0"/>
        <path id="Path_8368" data-name="Path 8368" d="M-5358.4-829.046a49.112,49.112,0,0,1-5.851-7.281,24.863,24.863,0,0,1,3.1,3.5A24.177,24.177,0,0,1-5358.4-829.046Z" transform="translate(5497.85 940.268)" fill="#e0e0e0"/>
        <path id="Path_8369" data-name="Path 8369" d="M-5369.9-815.456a26.481,26.481,0,0,1-1.054-4.677,24.7,24.7,0,0,1-.608-4.754,25.973,25.973,0,0,1,1.054,4.677A26.3,26.3,0,0,1-5369.9-815.456Z" transform="translate(5498.898 938.628)" fill="#e0e0e0"/>
        <path id="Path_8370" data-name="Path 8370" d="M-5350.949-813.017a37.57,37.57,0,0,1-3.958,4.215,36.829,36.829,0,0,1-4.283,3.9,37.618,37.618,0,0,1,3.958-4.215A39.062,39.062,0,0,1-5350.949-813.017Z" transform="translate(5497.124 936.926)" fill="#e0e0e0"/>
        <path id="Path_8371" data-name="Path 8371" d="M-5377.7-795.635a19.868,19.868,0,0,1-7.427-7.872c.12-.077,1.43,1.979,3.5,4.146S-5377.617-795.746-5377.7-795.635Z" transform="translate(5500.843 935.563)" fill="#e0e0e0"/>
        <path id="Path_8372" data-name="Path 8372" d="M-5369.195-779.877c0,.129-1.953.754-4.215,1.962s-3.915,2.476-4,2.364a12.492,12.492,0,0,1,3.795-2.767A12.223,12.223,0,0,1-5369.195-779.877Z" transform="translate(5499.736 932.175)" fill="#e0e0e0"/>
        <path id="Path_8373" data-name="Path 8373" d="M-5355.093-780.8a8.44,8.44,0,0,1-1.362-1.465c-.788-.942-1.842-2.287-2.938-3.821s-2.021-2.964-2.664-4.026a8.525,8.525,0,0,1-.942-1.765,9.833,9.833,0,0,1,1.208,1.593l2.767,3.941,2.818,3.889A9.385,9.385,0,0,1-5355.093-780.8Z" transform="translate(5497.67 933.896)" fill="#e0e0e0"/>
        <path id="Path_8374" data-name="Path 8374" d="M-5354.1-766.627a24.456,24.456,0,0,1-5.141,1.2,24.787,24.787,0,0,1-5.268.523,41.482,41.482,0,0,1,5.2-.959A44.346,44.346,0,0,1-5354.1-766.627Z" transform="translate(5497.887 930.275)" fill="#e0e0e0"/>
        <path id="Path_8375" data-name="Path 8375" d="M-5375.211-850.4c-.061,0,.351-.514.7-1.422a7.556,7.556,0,0,0,.377-3.718,15.1,15.1,0,0,0-1.105-3.658,6.932,6.932,0,0,1-.582-1.508,5.056,5.056,0,0,1,.856,1.379,11.835,11.835,0,0,1,1.259,3.718,6.96,6.96,0,0,1-.522,3.915A2.77,2.77,0,0,1-5375.211-850.4Z" transform="translate(5499.508 943.764)" fill="#e0e0e0"/>
        <path id="Path_8376" data-name="Path 8376" d="M-5359.892-856.9a7.8,7.8,0,0,1,1.379,5.894c-.129,0-.146-1.362-.531-2.981S-5359.986-856.828-5359.892-856.9Z" transform="translate(5497.227 943.218)" fill="#e0e0e0"/>
        <path id="Path_8377" data-name="Path 8377" d="M-5291.587-794.349l32.467-57.026,3.915-9.894s10.125-21.758,10.828-23.986c.813-2.57,2.244-2.775,3.169-2.416,1.439.574,1.9,2.716,1.268,4.934-.223.762-4.154,12.721-4.154,12.721a28.772,28.772,0,0,1,3.358-2.493c2.492-1.713,7.058-1.628,11.29-.12s5.276,2.3,4.771,3.966a2.209,2.209,0,0,1-1.362,1.345,4.28,4.28,0,0,1-3.127.068c-6.8-2.313-9.816.754-9.816.754l-.506,1.293s5.14-1.636,8.019.677a4.3,4.3,0,0,1,1.063,1.234,5.628,5.628,0,0,1,3.6,7.1,5.622,5.622,0,0,1-1.521,2.376,2.338,2.338,0,0,1-2.57.651,2.887,2.887,0,0,1-.968-1.122,4.925,4.925,0,0,0-.471-.642l-1.937,3.427s-4.771,7.453-6.484,10.939L-5263.112-781a15.759,15.759,0,0,1-20.291,9.226c-.09-.033-.179-.068-.268-.1h0a15.769,15.769,0,0,1-8.877-20.46A15.819,15.819,0,0,1-5291.587-794.349Z" transform="translate(5487.728 947.649)" fill="#ffbe9d"/>
        <path id="Path_8378" data-name="Path 8378" d="M-5250.73-847.482c1.147.754,2.732.24,3.76-.651s1.713-2.116,2.707-3.084c2.887-2.887,7.709-3.161,10.477-6.185.385-.42.728-1.062.394-1.525s-.951-.377-1.465-.274l-13.286,2.63" transform="translate(5481.574 943.559)" fill="#ffbe9d"/>
        <path id="Path_8379" data-name="Path 8379" d="M-5248.138-856.624a5.709,5.709,0,0,1,1.4-.428c.917-.231,2.253-.531,3.9-.857l5.791-1.225,1.713-.351a2.707,2.707,0,0,1,2.03.068,1.147,1.147,0,0,1,.428,1.208,2.263,2.263,0,0,1-.514.977,8.687,8.687,0,0,1-1.5,1.319c-2.209,1.533-4.634,2.159-6.57,3.178a9.836,9.836,0,0,0-2.519,1.713c-.685.66-1.225,1.413-1.791,2.056a4.776,4.776,0,0,1-3.521,1.979c-1.02,0-1.439-.505-1.4-.514a3.963,3.963,0,0,0,1.388.214,4.63,4.63,0,0,0,3.118-2.03,27.764,27.764,0,0,1,1.756-2.159,10.4,10.4,0,0,1,2.647-1.9c2-1.079,4.412-1.713,6.451-3.17a8.646,8.646,0,0,0,1.353-1.191c.377-.42.506-.925.24-1.071a2.7,2.7,0,0,0-1.448.043l-1.713.317-5.825,1.071c-1.662.291-3.006.514-3.94.651A4.7,4.7,0,0,1-5248.138-856.624Z" transform="translate(5481.569 943.612)" fill="#eb996e"/>
        <path id="Path_8380" data-name="Path 8380" d="M-5230.632-862.115a5.535,5.535,0,0,1,1.524-2.056,4.287,4.287,0,0,1,2.57-.857,11.07,11.07,0,0,1,3.427.565,17.418,17.418,0,0,0,3.478.788,5.6,5.6,0,0,0,2.912-.445,2.216,2.216,0,0,0,1.242-1.559,1.375,1.375,0,0,0,0-.728c-.051,0-.051.257-.18.685a2.08,2.08,0,0,1-1.2,1.285,5.7,5.7,0,0,1-2.733.308,18.879,18.879,0,0,1-3.375-.857,10.956,10.956,0,0,0-3.546-.548,4.526,4.526,0,0,0-2.767,1.028,3.925,3.925,0,0,0-1.157,1.619C-5230.65-862.381-5230.667-862.124-5230.632-862.115Z" transform="translate(5478.695 944.581)" fill="#eb996e"/>
        <path id="Path_8381" data-name="Path 8381" d="M-5231.542-882.887a14.746,14.746,0,0,0-.805,2.373c-.5,1.645-1.1,3.6-1.773,5.757s-1.328,4.095-1.859,5.731a13.74,13.74,0,0,0-.711,2.4,12.153,12.153,0,0,0,1.045-2.279c.565-1.439,1.285-3.427,2-5.7s1.276-4.283,1.636-5.817A11.865,11.865,0,0,0-5231.542-882.887Z" transform="translate(5479.561 946.944)" fill="#eb996e"/>
        <path id="Path_8382" data-name="Path 8382" d="M-5228.491-857.363a2.762,2.762,0,0,0,.789,0,2.322,2.322,0,0,1,1.867.5,1.256,1.256,0,0,1,.3,1.2,6.4,6.4,0,0,1-.608,1.508,2.814,2.814,0,0,0-.317,1.97,2.406,2.406,0,0,0,1.525,1.533,2.7,2.7,0,0,0,2.133-.214,3.326,3.326,0,0,0,1.413-1.379,10.984,10.984,0,0,0,.942-3.084,6.31,6.31,0,0,0,0-2.167,1.393,1.393,0,0,0-.3-.737c-.042,0,.068.274.112.762a7.533,7.533,0,0,1-.18,2.082,11.9,11.9,0,0,1-.994,2.921,2.681,2.681,0,0,1-2.981,1.345,1.9,1.9,0,0,1-1.216-1.2,2.367,2.367,0,0,1,.266-1.636,7.05,7.05,0,0,0,.6-1.636,1.625,1.625,0,0,0-.471-1.516,2.443,2.443,0,0,0-2.142-.445A2.4,2.4,0,0,0-5228.491-857.363Z" transform="translate(5478.386 943.41)" fill="#eb996e"/>
        <path id="Path_8383" data-name="Path 8383" d="M-5221.975-851.469a1.181,1.181,0,0,0-.146.7,2.171,2.171,0,0,0,.994,1.67,2.9,2.9,0,0,0,2.887,0,4.718,4.718,0,0,0,2.176-2.776,5.7,5.7,0,0,0,0-3.529,5.436,5.436,0,0,0-1.585-2.4,5.145,5.145,0,0,0-1.653-.994,1.564,1.564,0,0,0-.694-.154,9.269,9.269,0,0,1,2.107,1.4,5.367,5.367,0,0,1,1.354,5.517,4.4,4.4,0,0,1-1.927,2.527,2.569,2.569,0,0,1-2.476.069,2.083,2.083,0,0,1-.994-1.4C-5222.018-851.2-5221.932-851.469-5221.975-851.469Z" transform="translate(5477.473 943.511)" fill="#eb996e"/>
        <path id="Path_8384" data-name="Path 8384" d="M-5235.3-845.091a2.05,2.05,0,0,0-1.148-.351,4.715,4.715,0,0,0-2.981.711l.369.248a13.773,13.773,0,0,0,.239-1.713,10.773,10.773,0,0,0-.856-5.791,26.672,26.672,0,0,1,.369,5.748,14.975,14.975,0,0,1-.214,1.636l-.1.557.472-.317a4.957,4.957,0,0,1,2.7-.805C-5235.748-845.151-5235.32-845.031-5235.3-845.091Z" transform="translate(5479.99 942.514)" fill="#eb996e"/>
        <path id="Path_8385" data-name="Path 8385" d="M-5226.687-867.657c-.137,0,.051,1.028.959,1.816s1.927.857,1.927.711-.813-.394-1.593-1.088S-5226.55-867.709-5226.687-867.657Z" transform="translate(5478.133 944.761)" fill="#eb996e"/>
        <path id="Path_8386" data-name="Path 8386" d="M-5345-741.257l33.965.334-5.7-24.645,1.91,4.651a23.394,23.394,0,0,0,21.647,14.52h0c10.742,0,18.169-7.992,22.709-17.724,10.623-22.752,20.859-59.39,20.859-59.39l-20.705-18.195c-14.991,28.354-29.074,52.974-29.074,52.974s-4.069-12.361-7.213-23.395-3.118-16.824-7.941-22.324c-7.427-8.464-17.989-10.562-27.823-13.1l-.368,45.778-2.27,60.512" transform="translate(5495.09 941.877)" fill="#f9afa1"/>
        <path id="Path_8387" data-name="Path 8387" d="M-5398.551-775.566l61.849,11.993,3.006,23.763h-94.829a18.675,18.675,0,0,1-18.9-18.443q-.01-.853.057-1.7c1.362-17.321,2.844-38.651,3.975-47.671.856-7.033,3.684-14.306,7-20.559,4.788-9.012,20.747-20.559,34.736-21.159l2.647,58.91" transform="translate(5509.775 942.135)" fill="#f9afa1"/>
        <g id="Group_1545" data-name="Group 1545" transform="translate(62.348 92.839)">
          <path id="Path_8388" data-name="Path 8388" d="M-5345-741.257l33.965.334-5.7-24.645,1.91,4.651a23.394,23.394,0,0,0,21.647,14.52h0c10.742,0,18.169-7.992,22.709-17.724,10.623-22.752,20.859-59.39,20.859-59.39l-20.705-18.195c-14.991,28.354-29.074,52.974-29.074,52.974s-4.069-12.361-7.213-23.395-3.118-16.824-7.941-22.324c-7.427-8.464-17.989-10.562-27.823-13.1l-.368,45.778-2.27,60.512" transform="translate(5432.742 849.038)" fill="#cbe7de"/>
          <path id="Path_8389" data-name="Path 8389" d="M-5398.551-775.557l55.784,10.228a5.844,5.844,0,0,1,4.652,4.532l4.42,21.047h-94.829a18.675,18.675,0,0,1-18.9-18.443q-.01-.853.057-1.7c1.362-17.321,2.844-38.651,3.975-47.671.856-7.033,3.684-14.306,7-20.559,4.788-9.012,20.747-20.559,34.736-21.159l2.647,58.91" transform="translate(5447.428 849.287)" fill="#cbe7de"/>
        </g>
        <path id="Path_8390" data-name="Path 8390" d="M-5405.25-774.3a2.488,2.488,0,0,1,0-.565v-7.615c0-5.028-.094-11.993-.48-19.642-.2-3.838-.445-7.487-.71-10.793a44.266,44.266,0,0,0-1.242-8.7,12.46,12.46,0,0,0-2.725-5.14,19.517,19.517,0,0,0-1.593-1.456,6.613,6.613,0,0,1,1.756,1.311,12.076,12.076,0,0,1,2.9,5.2,42.867,42.867,0,0,1,1.336,8.789c.291,3.315.548,6.964.746,10.8.394,7.71.437,14.64.351,19.7-.051,2.518-.12,4.557-.18,6l-.094,1.619A2.055,2.055,0,0,1-5405.25-774.3Z" transform="translate(5504.696 939.106)" fill="#263238"/>
        <path id="Path_8391" data-name="Path 8391" d="M-5331.692-749.806a9.408,9.408,0,0,0-2.253-1.825,14.255,14.255,0,0,0-3.161-1.259c-1.276-.368-2.775-.651-4.429-.985-6.613-1.354-15.736-3.23-25.844-5.14s-19.309-3.427-25.964-4.489l-7.89-1.259-2.142-.36a4.628,4.628,0,0,1-.745-.154,4.431,4.431,0,0,1,.753.068l2.159.274c1.868.248,4.575.625,7.907,1.122,6.673.994,15.882,2.467,26,4.36s19.24,3.812,25.827,5.234c1.653.36,3.152.668,4.438,1.062a13.684,13.684,0,0,1,3.178,1.353,6.846,6.846,0,0,1,1.713,1.371,3.334,3.334,0,0,1,.36.437A.809.809,0,0,1-5331.692-749.806Z" transform="translate(5503.566 930.082)" fill="#263238"/>
        <path id="Path_8392" data-name="Path 8392" d="M-5406.511-765.277c0,.077-1.139.343-2.9,1.062a25.891,25.891,0,0,0-3,1.473,27.056,27.056,0,0,0-3.333,2.347,26.333,26.333,0,0,0-2.844,2.878,24.272,24.272,0,0,0-1.97,2.69c-1.011,1.619-1.474,2.716-1.551,2.681a3.251,3.251,0,0,1,.266-.8,17.5,17.5,0,0,1,1.011-2.047,22.739,22.739,0,0,1,1.927-2.793,22.078,22.078,0,0,1,6.339-5.32,20.515,20.515,0,0,1,3.076-1.413,15.928,15.928,0,0,1,2.193-.642A2.892,2.892,0,0,1-5406.511-765.277Z" transform="translate(5506.145 930.082)" fill="#263238"/>
        <path id="Path_8393" data-name="Path 8393" d="M-5311.557-757.855a3.74,3.74,0,0,1-.128-.591c-.068-.428-.163-.994-.274-1.713-.239-1.482-.557-3.624-.916-6.279-.72-5.3-1.593-12.652-2.331-20.79s-1.173-15.522-1.413-20.876c-.12-2.673-.188-4.84-.223-6.339v-1.713a3.324,3.324,0,0,1,0-.6,2.616,2.616,0,0,1,.069.6l.111,1.713c.094,1.542.214,3.692.368,6.322.317,5.345.814,12.721,1.542,20.85s1.559,15.479,2.2,20.79c.317,2.621.583,4.754.771,6.3.077.711.146,1.276.2,1.713A2.4,2.4,0,0,1-5311.557-757.855Z" transform="translate(5491.055 937.463)" fill="#263238"/>
        <path id="Path_8394" data-name="Path 8394" d="M-5287.522-761.764a6.23,6.23,0,0,1-.5-.565,16.673,16.673,0,0,1-1.139-1.713,22.579,22.579,0,0,1-3.041-12.987,14.6,14.6,0,0,1,.274-2.03,2.912,2.912,0,0,1,.189-.728c.077,0-.086,1.062-.146,2.775a25.545,25.545,0,0,0,3,12.849C-5288.079-762.68-5287.453-761.815-5287.522-761.764Z" transform="translate(5487.527 932.162)" fill="#263238"/>
        <path id="Path_8395" data-name="Path 8395" d="M-5409.5-803.767a1.485,1.485,0,0,1-.317.069,7.916,7.916,0,0,1-.934.094,14.115,14.115,0,0,1-3.427-.274,24.372,24.372,0,0,1-4.874-1.525c-1.773-.737-3.658-1.713-5.628-2.664a42.346,42.346,0,0,0-5.714-2.364,19.4,19.4,0,0,0-4.917-.968,15.957,15.957,0,0,0-4.6.523,1.079,1.079,0,0,1,.3-.137,6.091,6.091,0,0,1,.856-.3,11.769,11.769,0,0,1,3.427-.394,18.7,18.7,0,0,1,5.037.857,39.1,39.1,0,0,1,5.774,2.381c1.979.977,3.846,1.936,5.594,2.681a26.186,26.186,0,0,0,4.78,1.593A21.29,21.29,0,0,0-5409.5-803.767Z" transform="translate(5508.697 936.74)" fill="#fafafa"/>
        <path id="Path_8396" data-name="Path 8396" d="M-5393.7-804.867a30.474,30.474,0,0,1-5.037,1.079,28.747,28.747,0,0,1-5.14.642,30.634,30.634,0,0,1,5.037-1.079A28.764,28.764,0,0,1-5393.7-804.867Z" transform="translate(5503.532 935.758)" fill="#fafafa"/>
        <path id="Path_8397" data-name="Path 8397" d="M-5410.452-783.407a6.493,6.493,0,0,1-1.242.54c-.813.317-2,.745-3.486,1.225a89.715,89.715,0,0,1-11.839,2.93c-2.347.411-4.6.711-6.656.917a27,27,0,0,1-5.5.146,9.423,9.423,0,0,1-3.563-1.019,5.718,5.718,0,0,1-.857-.548,1.359,1.359,0,0,1-.266-.24,11.366,11.366,0,0,0,1.19.634,9.808,9.808,0,0,0,3.521.857,28.28,28.28,0,0,0,5.423-.24c2.047-.231,4.283-.54,6.622-.951a108.967,108.967,0,0,0,11.821-2.784c1.491-.445,2.69-.857,3.521-1.088A9.323,9.323,0,0,1-5410.452-783.407Z" transform="translate(5509.264 932.681)" fill="#fafafa"/>
        <path id="Path_8398" data-name="Path 8398" d="M-5393.893-778.17a25.042,25.042,0,0,1-4.668.3,24.8,24.8,0,0,1-4.669-.146,25.133,25.133,0,0,1,4.669-.3A24.936,24.936,0,0,1-5393.893-778.17Z" transform="translate(5503.439 931.958)" fill="#fafafa"/>
        <path id="Path_8399" data-name="Path 8399" d="M-5443.79-737.3a1.742,1.742,0,0,1,.094-.463c.085-.343.206-.762.343-1.285l.257-.925c.111-.334.257-.685.394-1.071a26.2,26.2,0,0,1,1.063-2.57l.693-1.465c.249-.514.565-1.011.856-1.542a38.34,38.34,0,0,1,2.108-3.264,39.044,39.044,0,0,1,13.337-11.607,37.7,37.7,0,0,1,3.53-1.636c.574-.214,1.1-.463,1.645-.634l1.55-.488a24.511,24.511,0,0,1,2.707-.694c.4-.086.771-.18,1.114-.24l.959-.128,1.319-.163a1.608,1.608,0,0,1,.462,0,1.833,1.833,0,0,1-.454.111l-1.3.248-.942.163-1.1.274a26.581,26.581,0,0,0-2.664.754l-1.524.514c-.531.18-1.062.428-1.619.651a38.182,38.182,0,0,0-3.478,1.653,43.728,43.728,0,0,0-7.239,5.02,44.251,44.251,0,0,0-6,6.468c-.771,1.114-1.533,2.159-2.115,3.212-.3.523-.617,1.011-.857,1.516l-.72,1.439a25.6,25.6,0,0,0-1.113,2.57c-.146.377-.3.728-.42,1.054l-.3.908-.42,1.259A1.7,1.7,0,0,1-5443.79-737.3Z" transform="translate(5509.253 930.112)" fill="#fafafa"/>
        <path id="Path_8400" data-name="Path 8400" d="M-5395.842-763.3a15.448,15.448,0,0,0-3.513,4.42,21.342,21.342,0,0,0-1.97,5.817,60.452,60.452,0,0,0-.857,7.53,53.853,53.853,0,0,1-.856,7.581,20.929,20.929,0,0,1-2.15,5.868,12.9,12.9,0,0,1-2.57,3.3,7.14,7.14,0,0,1-.9.711c-.214.146-.334.223-.342.206a15.014,15.014,0,0,0,3.581-4.369,21.345,21.345,0,0,0,2.021-5.791,55.47,55.47,0,0,0,.857-7.53,55.582,55.582,0,0,1,.856-7.59,20.93,20.93,0,0,1,2.09-5.876,13.28,13.28,0,0,1,2.57-3.341,8.648,8.648,0,0,1,.856-.72A1.572,1.572,0,0,1-5395.842-763.3Z" transform="translate(5504.266 929.798)" fill="#fafafa"/>
        <path id="Path_8401" data-name="Path 8401" d="M-5376.578-726.823c-.12,0,0-7.384.317-16.482s.643-16.473.762-16.473,0,7.384-.317,16.49S-5376.458-726.814-5376.578-726.823Z" transform="translate(5499.624 929.293)" fill="#fafafa"/>
        <path id="Path_8402" data-name="Path 8402" d="M-5349.69-727.395a5.716,5.716,0,0,1-.376-1.071,12.8,12.8,0,0,1-.351-1.285c-.112-.505-.266-1.079-.36-1.713a30.518,30.518,0,0,1-.454-4.574,32.146,32.146,0,0,1,1.713-11.093,30.944,30.944,0,0,1,1.807-4.232c.283-.591.6-1.088.856-1.533a11.346,11.346,0,0,1,.72-1.122,5.1,5.1,0,0,1,.676-.908c.077.043-.856,1.371-1.979,3.709A33.548,33.548,0,0,0-5349.15-747a33.652,33.652,0,0,0-1.713,10.956,35.347,35.347,0,0,0,.351,4.532C-5350.084-728.963-5349.6-727.421-5349.69-727.395Z" transform="translate(5495.984 928.598)" fill="#fafafa"/>
        <path id="Path_8403" data-name="Path 8403" d="M-5399.756-833.916c0,.069-1.354-.523-3.581-1.242a40.665,40.665,0,0,0-17.989-1.593c-2.312.317-3.726.677-3.743.6a3.86,3.86,0,0,1,.968-.317,25.054,25.054,0,0,1,2.725-.591,36.426,36.426,0,0,1,18.143,1.6q1.31.463,2.57,1.054A4.194,4.194,0,0,1-5399.756-833.916Z" transform="translate(5506.569 940.444)" fill="#fafafa"/>
        <path id="Path_8404" data-name="Path 8404" d="M-5320.147-791.35a23.172,23.172,0,0,1-3.178-.051c-1.961-.077-4.668-.18-7.658-.249s-5.7-.111-7.658-.128a23.714,23.714,0,0,1-3.178-.111,3.9,3.9,0,0,1,.856-.1c.548,0,1.345-.077,2.33-.1,1.961-.06,4.668-.077,7.667,0s5.7.231,7.709.394c.977.077,1.765.146,2.313.214A3.792,3.792,0,0,1-5320.147-791.35Z" transform="translate(5494.634 933.934)" fill="#fafafa"/>
        <path id="Path_8405" data-name="Path 8405" d="M-5299.293-795.007c0,.077-1.071.445-2.741,1.268a26.819,26.819,0,0,0-10.708,9.543c-1.012,1.568-1.5,2.613-1.568,2.57a2.5,2.5,0,0,1,.274-.771,17.763,17.763,0,0,1,1.028-1.979,23.792,23.792,0,0,1,4.677-5.662,24.246,24.246,0,0,1,6.159-4,18.254,18.254,0,0,1,2.082-.788A3.143,3.143,0,0,1-5299.293-795.007Z" transform="translate(5490.69 934.344)" fill="#fafafa"/>
        <path id="Path_8406" data-name="Path 8406" d="M-5311.4-827.085a12.772,12.772,0,0,0-4.352.608,29.344,29.344,0,0,0-4.395,1.953,35.486,35.486,0,0,1-5.431,2.441,22.118,22.118,0,0,1-10.733.694,19.239,19.239,0,0,1-3.161-.857,5.673,5.673,0,0,1-1.1-.48,43.96,43.96,0,0,0,4.283,1.028,22.993,22.993,0,0,0,10.545-.814,38.634,38.634,0,0,0,5.388-2.381,27.225,27.225,0,0,1,4.48-1.885,10.11,10.11,0,0,1,3.255-.471,6.08,6.08,0,0,1,.856.086C-5311.506-827.127-5311.395-827.1-5311.4-827.085Z" transform="translate(5494.456 938.967)" fill="#fafafa"/>
        <path id="Path_8407" data-name="Path 8407" d="M-5316.045-760.174a4.456,4.456,0,0,1-.994.471c-.326.137-.729.3-1.208.454s-1.02.36-1.627.514a33.308,33.308,0,0,1-4.369.908,35.416,35.416,0,0,1-5.448.283,36.629,36.629,0,0,1-5.423-.608,32.567,32.567,0,0,1-4.283-1.174c-.608-.189-1.13-.42-1.593-.608s-.856-.368-1.182-.523a5.136,5.136,0,0,1-.969-.531c0-.077,1.448.608,3.847,1.362a35.778,35.778,0,0,0,4.283,1.062,35.3,35.3,0,0,0,10.742.326,35.747,35.747,0,0,0,4.334-.805C-5317.519-759.66-5316.071-760.251-5316.045-760.174Z" transform="translate(5494.824 929.468)" fill="#fafafa"/>
        <path id="Path_8408" data-name="Path 8408" d="M-5289.822-737.105a1.79,1.79,0,0,1-.334-.274,11.4,11.4,0,0,1-.856-.857,20.361,20.361,0,0,1-2.707-3.632,29.615,29.615,0,0,1-3.82-14.349,57.766,57.766,0,0,1,1.944-14.794c.463-1.85.856-3.341,1.174-4.36.146-.471.266-.857.359-1.174s.138-.411.154-.4a1.39,1.39,0,0,1-.068.42c-.068.325-.163.72-.274,1.2-.257,1.105-.608,2.57-1.036,4.395a61.884,61.884,0,0,0-1.79,14.7,30.35,30.35,0,0,0,3.605,14.177,22.892,22.892,0,0,0,2.57,3.675C-5290.225-737.559-5289.8-737.14-5289.822-737.105Z" transform="translate(5488.285 931.755)" fill="#fafafa"/>
        <path id="Path_8409" data-name="Path 8409" d="M-5257.342-767.1a16.905,16.905,0,0,0-4.532-2.57,36.5,36.5,0,0,0-5.482-1.431,60.807,60.807,0,0,1-6.853-1.568,28.141,28.141,0,0,1-10.854-6.528,25.985,25.985,0,0,1-2.57-2.887c-.282-.36-.471-.66-.607-.857s-.2-.308-.181-.317a10.7,10.7,0,0,1,.926,1.062,29.8,29.8,0,0,0,2.646,2.767,29.069,29.069,0,0,0,10.768,6.331,65.9,65.9,0,0,0,6.776,1.593,35.151,35.151,0,0,1,5.517,1.533,13.115,13.115,0,0,1,3.375,1.885,6.722,6.722,0,0,1,.788.694C-5257.411-767.2-5257.325-767.11-5257.342-767.1Z" transform="translate(5486.979 932.66)" fill="#fafafa"/>
        <path id="Path_8410" data-name="Path 8410" d="M-5245.316-799.756a6.376,6.376,0,0,1-.917-.8c-.282-.266-.625-.591-1.054-.951s-.856-.788-1.439-1.2a39.237,39.237,0,0,0-3.975-2.818,39.894,39.894,0,0,0-10.931-4.677,41.318,41.318,0,0,0-4.788-.934c-.686-.111-1.311-.154-1.858-.206s-1.028-.094-1.414-.111a6.884,6.884,0,0,1-1.208-.111,5.878,5.878,0,0,1,1.208-.06,14.231,14.231,0,0,1,1.431,0,14.232,14.232,0,0,1,1.885.137,37.182,37.182,0,0,1,4.84.857,41.6,41.6,0,0,1,5.722,1.919,40.691,40.691,0,0,1,5.329,2.81,36.845,36.845,0,0,1,3.966,2.921,16.289,16.289,0,0,1,1.405,1.268,13.756,13.756,0,0,1,1,1.011A5.74,5.74,0,0,1-5245.316-799.756Z" transform="translate(5484.753 936.729)" fill="#fafafa"/>
        <path id="Path_8411" data-name="Path 8411" d="M-5330.186-843.669a6.366,6.366,0,0,1-1.627.78,29.388,29.388,0,0,1-4.155,1.285,29.789,29.789,0,0,1-4.283.685,5.976,5.976,0,0,1-1.8,0c0-.137,2.716-.36,6-1.139S-5330.237-843.8-5330.186-843.669Z" transform="translate(5494.667 941.323)" fill="#fafafa"/>
        <path id="Path_8412" data-name="Path 8412" d="M-5297.6-709.155a2.382,2.382,0,0,1-1.62,2.953,2.385,2.385,0,0,1-1,.071h0a2.373,2.373,0,0,1-1.953-1.713l-.729-2.69h.111a2.493,2.493,0,0,1-1.979,2.917,2.489,2.489,0,0,1-.8.021h0c-1.122,0-2.09-1.636-2.416-2.5h0a4.659,4.659,0,0,1-4.352-2.09l-5.028-7.847-9.312-6.81,5.637-20.122L-5301.007-734c.788.617.908.857,2.159,2.03l12.936,11.9c-1.465.857-2.707.814-4.746,0s-10.965-6.853-10.965-6.853l4.026,17.689" transform="translate(5492.464 927.457)" fill="#ffbe9d"/>
        <path id="Path_8413" data-name="Path 8413" d="M-5312.741-722.147a4.116,4.116,0,0,1,.592.351l.668.463a4.031,4.031,0,0,1,.856.72,3.709,3.709,0,0,1,.685,1.156c.154.454.317.917.489,1.4l1.1,3.221c.763,2.3,1.431,4.369,1.893,5.885a14.386,14.386,0,0,1,.66,2.476,14.656,14.656,0,0,1-.959-2.381c-.54-1.491-1.26-3.546-2.022-5.834-.368-1.139-.729-2.227-1.062-3.229-.154-.5-.3-.968-.446-1.413a3.626,3.626,0,0,0-.574-1.088,4.431,4.431,0,0,0-.737-.719l-.617-.523C-5312.586-721.95-5312.757-722.121-5312.741-722.147Z" transform="translate(5490.465 923.898)" fill="#eb996e"/>
        <path id="Path_8414" data-name="Path 8414" d="M-5300.112-707.226a3.861,3.861,0,0,1-.283-.857l-.643-2.3c-.548-1.936-1.276-4.617-2.21-7.538a27.049,27.049,0,0,0-3.084-7.136,6.186,6.186,0,0,0-1.636-1.636c-.471-.291-.771-.377-.762-.428a.578.578,0,0,1,.231.043,3.1,3.1,0,0,1,.616.231,5.633,5.633,0,0,1,1.808,1.6,24.917,24.917,0,0,1,3.247,7.187c.942,2.9,1.627,5.637,2.09,7.6.231.977.4,1.773.514,2.33A3.029,3.029,0,0,1-5300.112-707.226Z" transform="translate(5489.89 924.611)" fill="#eb996e"/>
        <path id="Path_8415" data-name="Path 8415" d="M-5294-706.25a3.834,3.834,0,0,1-.351-.9c-.214-.685-.48-1.516-.8-2.5-.651-2.116-1.516-5.045-2.45-8.284s-1.713-6.082-2.356-8.309a3.986,3.986,0,0,0-1.371-2.09,5.173,5.173,0,0,0-.856-.445.542.542,0,0,1,.257,0,2.108,2.108,0,0,1,.677.283,4.023,4.023,0,0,1,1.568,2.133c.7,2.116,1.533,5.046,2.484,8.284s1.756,6.193,2.33,8.326c.257.994.48,1.842.651,2.57A4.511,4.511,0,0,1-5294-706.25Z" transform="translate(5488.951 924.851)" fill="#eb996e"/>
      </g>
      <g id="freepik--speech-bubble--inject-7" transform="translate(272.164 0)">
        <path id="Path_8416" data-name="Path 8416" d="M-5150.53-919.829a3,3,0,0,0,3,3,3,3,0,0,0,3-3,3,3,0,0,0-3-3A3,3,0,0,0-5150.53-919.829Z" transform="translate(5195.044 954.881)" fill="#455a64"/>
        <circle id="Ellipse_114" data-name="Ellipse 114" cx="2.998" cy="2.998" r="2.998" transform="translate(32.513 32.054)" fill="#455a64"/>
        <path id="Path_8417" data-name="Path 8417" d="M-5178.577-921.328a3,3,0,0,0,1.1,4.1,3,3,0,0,0,4.1-1.1,3,3,0,0,0-1.1-4.1h0a2.99,2.99,0,0,0-4.087,1.084Z" transform="translate(5199.123 954.881)" fill="#455a64"/>
        <path id="Path_8418" data-name="Path 8418" d="M-5167.172-960.221a4.113,4.113,0,0,0-.6,0l-1.782.051a10.243,10.243,0,0,0-1.319.06l-1.567.223-1.833.266-2.056.505a33.146,33.146,0,0,0-9.929,4.283,35.124,35.124,0,0,0-16.1,26.35,37.408,37.408,0,0,0-.095,4.806c.061.805.044,1.636.163,2.45s.248,1.645.368,2.476a35.27,35.27,0,0,0,3.341,9.774,37.619,37.619,0,0,0,6.383,8.789,36.837,36.837,0,0,0,9.2,6.6,33.412,33.412,0,0,0,11.214,3.427,23,23,0,0,0,2.989.248,27.192,27.192,0,0,0,3.024.06,36.19,36.19,0,0,0,6.048-.762,35.441,35.441,0,0,0,12.053-5.08l-.36.043,12.276,4.926.728.291-.206-.754-3.614-13.124-.061.317a35.163,35.163,0,0,0,6.554-14.991,32.026,32.026,0,0,0,.479-7.71,26.006,26.006,0,0,0-.352-3.692q-.136-.907-.282-1.8c-.1-.591-.282-1.165-.428-1.713a35.125,35.125,0,0,0-13.706-19.968,33.657,33.657,0,0,0-8.147-4.283l-1.842-.66-1.713-.445-1.593-.394c-.515-.094-1.012-.146-1.474-.223-.926-.111-1.714-.274-2.459-.308l-1.8-.06h-1.1a2.52,2.52,0,0,0-.378,0,1.089,1.089,0,0,0,.378.051l1.1.094,1.79.12c.712.051,1.517.231,2.441.368a34.934,34.934,0,0,1,27.909,25.939c.129.565.309,1.131.411,1.713s.172,1.165.266,1.765a25.038,25.038,0,0,1,.326,3.624,31.7,31.7,0,0,1-.5,7.53,34.685,34.685,0,0,1-6.5,14.648l-.111.146.052.18q1.714,6.357,3.58,13.132l.523-.463-12.276-4.943-.188-.077-.18.111a34.444,34.444,0,0,1-17.7,5.705,28.331,28.331,0,0,1-2.955-.051,21.963,21.963,0,0,1-2.921-.248,32.72,32.72,0,0,1-10.965-3.349,36.378,36.378,0,0,1-9.012-6.45,36.939,36.939,0,0,1-6.271-8.566,34.813,34.813,0,0,1-3.255-9.586c-.129-.857-.257-1.619-.377-2.424s-.1-1.61-.163-2.407a35.952,35.952,0,0,1,.068-4.711A34.688,34.688,0,0,1-5186-954.422a33.421,33.421,0,0,1,9.774-4.4l2.021-.54,1.816-.3,1.56-.257c.479-.051.916-.069,1.3-.094l1.773-.129A2.782,2.782,0,0,0-5167.172-960.221Z" transform="translate(5202.494 960.245)" fill="#455a64"/>
      </g>
    </g>
  </g>
</svg>
