<?xml version="1.0" encoding="utf-8"?>
<!-- Generator: Adobe Illustrator 25.4.1, SVG Export Plug-In . SVG Version: 6.00 Build 0)  -->
<svg version="1.1" id="Shopping" xmlns="http://www.w3.org/2000/svg" xmlns:xlink="http://www.w3.org/1999/xlink" x="0px" y="0px"
	 viewBox="0 0 200 200" style="enable-background:new 0 0 200 200;" xml:space="preserve">
<style type="text/css">
	.st0{fill:#5A316B;}
</style>
<path class="st0" d="M94.4,102.6c-0.1-1.5-1.3-2.6-2.8-2.6h-67c-1.5,0-2.7,1.1-2.8,2.6l-5.6,78.1c-0.2,1.5,0.9,2.9,2.5,3.1
	c0.1,0,0.2,0,0.3,0h78.2c1.5,0,2.8-1.2,2.8-2.7c0-0.1,0-0.1,0-0.2L94.4,102.6z M22,178.2l5.2-72.6H89l5.2,72.6H22z"/>
<path class="st0" d="M58.1,147.5c9.2,0,16.7-7.5,16.7-16.8v-14c0-1.5-1.3-2.7-2.8-2.7l0,0c-1.5,0-2.8,1.2-2.8,2.8l0,0v13.6
	c0.1,5.5-3.9,10.3-9.3,11.3c-6.1,1-11.8-3.1-12.9-9.2c-0.1-0.6-0.1-1.2-0.1-1.8v-14c0-1.5-1.3-2.8-2.8-2.7l0,0
	c-1.5,0-2.8,1.2-2.8,2.8l0,0v14C41.4,140,48.9,147.4,58.1,147.5z"/>
<path class="st0" d="M52.4,55.3h16.9v5.6c0,1.5,1.2,2.8,2.8,2.8l0,0l0,0c1.5,0,2.8-1.2,2.8-2.8c0,0,0,0,0,0v-5.6h33.5v5.6
	c0,1.5,1.2,2.8,2.8,2.8l0,0l0,0c1.5,0,2.8-1.2,2.8-2.7c0,0,0,0,0-0.1v-5.6h16.9l1.4,33.7c0.1,1.5,1.4,2.7,2.9,2.7l0,0
	c1.5-0.1,2.7-1.4,2.7-2.9c0,0,0,0,0,0l-1.6-36.3c-0.1-1.5-1.3-2.7-2.8-2.7H114V39c0-11.4-9.3-21.9-20.7-22.7
	c-12.3-0.9-23,8.3-23.9,20.6c0,0.6-0.1,1.1-0.1,1.7v11.2H49.8c-1.5,0-2.7,1.2-2.8,2.7l-1.7,39.1c-0.1,1.5,1.1,2.8,2.7,2.9l0,0
	c1.5,0.1,2.8-1.1,2.9-2.7c0,0,0,0,0,0L52.4,55.3z M74.9,38.6c0-9.3,7.5-16.7,16.8-16.7c0.5,0,1,0,1.5,0.1
	c8.7,0.9,15.3,8.3,15.2,17.1v10.8H74.9V38.6z"/>
<path class="st0" d="M181,114h-12.7c3.3-5.2,1.7-12.1-3.5-15.4s-12.1-1.7-15.4,3.5c-0.1,0.2-0.3,0.4-0.4,0.7
	c-0.2,0.3-0.3,0.6-0.5,0.9c-2.4-1.2-5.2-1.2-7.6,0c-2.6-5.6-9.2-8.1-14.8-5.5s-8.1,9.2-5.5,14.8c0.1,0.3,0.3,0.6,0.5,0.9h-12.7
	c-1.5,0-2.8,1.2-2.8,2.8l0,0v16.8c0,1.5,1.2,2.8,2.8,2.8h2.8V181c0,1.5,1.2,2.8,2.8,2.8h61.4c1.5,0,2.8-1.2,2.8-2.8v-44.7h2.8
	c1.5,0,2.8-1.2,2.8-2.8v-16.8C183.8,115.2,182.5,114,181,114z M153,108.4c0-3.1,2.5-5.6,5.6-5.6c3.1,0,5.6,2.5,5.6,5.6
	c0,3.1-2.5,5.6-5.6,5.6c0,0,0,0,0,0H153V108.4z M141.8,130.7v-11.2h5.6v11.2H141.8z M147.4,136.3v41.9h-5.6v-41.9L147.4,136.3z
	 M145.1,108.4c1.3,0.3,2.3,1.5,2.3,2.9v2.7h-5.6v-2.8c0-1.5,1.2-2.8,2.7-2.8C144.8,108.4,145,108.4,145.1,108.4L145.1,108.4z
	 M125.1,108.4c0-3.1,2.5-5.6,5.6-5.6c0.2,0,0.5,0,0.7,0c2.8,0.4,4.9,2.9,4.9,5.8v5.4h-5.6C127.6,114,125.1,111.5,125.1,108.4
	C125.1,108.4,125.1,108.4,125.1,108.4L125.1,108.4z M111.1,119.6h25.1v11.2h-25.1L111.1,119.6z M116.7,136.3h19.5v41.9h-19.5
	L116.7,136.3z M172.5,178.2H153v-41.9h19.5L172.5,178.2z M178.1,130.8H153v-11.2h25.1L178.1,130.8z"/>
<path class="st0" d="M116.3,85.7c0-7.3-6-13.3-13.3-13.3c-0.6,0-1.1,0-1.7,0.1c-3,0.4-5.8,1.8-7.9,4l-1.7,1.7l-1.7-1.7
	c-4.8-4.9-12.5-5.4-17.9-1.2c-5.7,4.6-6.7,12.9-2.1,18.7c0.3,0.4,0.6,0.8,1,1.1h0.1c1.1,1.1,2.8,1.1,3.9,0c0,0,0,0,0,0l0,0
	c1.1-1.1,1.1-2.8,0.1-3.9c0,0,0,0-0.1-0.1h-0.1c-3-3-3-8,0.1-11c0.7-0.7,1.6-1.3,2.5-1.7c2.8-1.2,6.1-0.5,8.3,1.7l0.1,0.1l3.9,3.9
	c1.1,1.1,2.9,1.1,3.9,0c0,0,0,0,0,0l0,0l3.7-3.8c2.7-2.8,7-3.2,10.2-0.9c3.4,2.5,4.2,7.4,1.6,10.8c-0.2,0.3-0.5,0.6-0.8,0.9
	l-8.4,8.4c-1.1,1.1-1.1,2.9,0,3.9c0,0,0,0,0,0l0,0c1.1,1.1,2.8,1.1,3.9,0c0,0,0,0,0,0l8.4-8.4C114.9,92.6,116.3,89.2,116.3,85.7z"/>
<path class="st0" d="M30.2,167H86c1.5,0,2.8,1.2,2.8,2.8v0c0,1.5-1.2,2.8-2.8,2.8H30.2c-1.5,0-2.8-1.2-2.8-2.8v0
	C27.4,168.2,28.7,167,30.2,167z"/>
</svg>
