<?xml version="1.0" encoding="utf-8"?>
<!-- Generator: Adobe Illustrator 25.4.1, SVG Export Plug-In . SVG Version: 6.00 Build 0)  -->
<svg version="1.1" id="Supermercado" xmlns="http://www.w3.org/2000/svg" xmlns:xlink="http://www.w3.org/1999/xlink" x="0px"
	 y="0px" viewBox="0 0 200 200" style="enable-background:new 0 0 200 200;" xml:space="preserve">
<style type="text/css">
	.st0{fill:#5A316B;}
</style>
<path class="st0" d="M21.6,37.4c-1.9,0-3.4,1.5-3.4,3.4c0,1.9,1.5,3.4,3.4,3.4h18.2c8.7,21.5,17.2,43.1,25.9,64.7l-8,19.2
	c-0.6,1.9,0.3,3.9,2.2,4.6c0.3,0.1,0.6,0.2,0.9,0.2H146c1.9,0,3.4-1.5,3.4-3.4c0-1.9-1.5-3.4-3.4-3.4c0,0,0,0,0,0H65.9l5.8-13.8
	l83.1-6.7c1.4-0.2,2.6-1.2,3-2.6l10.2-44.3c0.3-1.9-1-3.8-2.9-4.1c-0.1,0-0.3,0-0.4,0H51.2l-6-14.9c-0.5-1.3-1.8-2.1-3.1-2.1H21.6z
	 M53.9,61.2h35.9V80H61.4L53.9,61.2z M96.6,61.2h23.9V80H96.6V61.2z M127.3,61.2h33.2L156.1,80h-28.9V61.2z M64.1,86.8h25.7v17.1
	l-18.2,1.4L64.1,86.8z M96.6,86.8h23.9v14.6l-23.9,1.9V86.8z M127.3,86.8h27.3l-2.8,12.1l-24.5,2V86.8z M77.9,143
	c-8.5,0-15.3,6.9-15.3,15.3c0,8.5,6.9,15.3,15.3,15.3c8.5,0,15.3-6.8,15.3-15.3C93.2,149.9,86.3,143,77.9,143z M129,143
	c-8.5,0-15.3,6.9-15.3,15.3s6.9,15.3,15.3,15.3s15.3-6.9,15.3-15.3l0,0C144.3,149.9,137.5,143,129,143z M77.9,149.8
	c4.7,0,8.5,3.8,8.5,8.5s-3.8,8.5-8.5,8.5c-4.7,0-8.5-3.8-8.5-8.5C69.3,153.7,73.1,149.9,77.9,149.8
	C77.8,149.8,77.8,149.8,77.9,149.8L77.9,149.8z M129,149.8c4.7,0,8.5,3.8,8.5,8.5c0,4.7-3.8,8.5-8.5,8.5c-4.7,0-8.5-3.8-8.5-8.5
	C120.5,153.7,124.3,149.9,129,149.8C129,149.8,129,149.8,129,149.8L129,149.8z"/>
</svg>
