<?xml version="1.0" encoding="utf-8"?>
<svg xmlns="http://www.w3.org/2000/svg" viewBox="0 0 500 500"><defs><style>.a{fill:#fff;}.b{fill:#d34819;}.c{fill:#e0551e;}.d{fill:none;stroke:#5a326e;stroke-linecap:round;stroke-linejoin:round;stroke-width:5px;}.e{fill:#a5c481;}</style></defs><path class="a" d="M435.07,216.34a32.86,32.86,0,0,0-.33-3.69c-4.24-43.54-29.83-79.07-63.29-92.69C354,102.62,331.09,91,305.79,89.15c-25.64-1.85-58.78,11-78.13,24.95-7.86-2.52-23.32-7.77-31.92-8.39-39.38-2.85-72,18-90.18,49.78-32.65,13.59-56.4,55-56.4,104,0,27.85,7.69,53.25,20.32,72.49,40.16,91.75,145.19,123.73,211.38,106.68,74.71-19.24,148.66-98.66,154-202.4A128.05,128.05,0,0,0,435.07,216.34Z"/><path class="b" d="M420.65,207.34c4.2-58.1-41.29-114-99.39-118.19-25.65-1.85-58.78,11-78.14,24.95-7.86-2.52-23.31-7.77-31.91-8.39-58.1-4.2-101.43,43.08-105.63,101.18a105.46,105.46,0,0,0,166.76,93.24,105.9,105.9,0,0,0,24.74,4.81C355.18,309.14,416.45,265.44,420.65,207.34Z"/><path class="c" d="M450.54,216.34a35.39,35.39,0,0,0-.33-3.69c-5.66-58.06-49.27-101.88-98.9-98.49-41.23,2.81-73.89,37.34-82.41,82.36-1.3-.07-2.6-.11-3.91-.11a71.06,71.06,0,0,0-39.83,12.4,75.17,75.17,0,0,0-13.44-7.18c-14.1-30.55-39-50.86-67.43-50.86-44,0-79.66,48.67-79.66,108.7,0,27.85,7.69,53.25,20.32,72.49,40.15,91.75,145.18,123.73,211.37,106.68C371,419.4,445,340,450.35,236.24A128,128,0,0,0,450.54,216.34Z"/><path class="d" d="M435.07,216.34a32.86,32.86,0,0,0-.33-3.69c-4.24-43.54-29.83-79.07-63.29-92.69C354,102.62,331.09,91,305.79,89.15c-25.64-1.85-58.78,11-78.13,24.95-7.86-2.52-23.32-7.77-31.92-8.39-39.38-2.85-72,18-90.18,49.78-32.65,13.59-56.4,55-56.4,104,0,27.85,7.69,53.25,20.32,72.49,40.16,91.75,145.19,123.73,211.38,106.68,74.71-19.24,148.66-98.66,154-202.4A128.05,128.05,0,0,0,435.07,216.34Z"/><path class="d" d="M258.27,194.64c3.5-1,26-7,47.89,6.91,23.09,14.65,26.59,39.5,27,42.85"/><path class="d" d="M270.22,163.76c1-3.49,7.87-25.78,31.2-37,24.65-11.84,47.59-1.66,50.65-.24"/><path class="d" d="M205.43,185.89c-10.89,0-37.75,1.26-63.19,18.2-43.74,29.11-44.7,78.76-44.71,84.39"/><path class="d" d="M107.33,155.41c3.2-1.72,23.92-12.41,48.25-3.59,25.71,9.33,34.49,32.84,35.61,36"/><path class="a" d="M314.21,147.63c-27.67-2.22-51.8,17.57-63.66,32.11a11.09,11.09,0,0,0-2.29-2.51c7.76-7,11.11-20.9,11.74-23.51,4.36-18.15-3.91-23.19-1.85-44.44,2.13-22,12.85-35.7,10.38-37.15-2.75-1.62-15.65,15.65-19.43,20.72-10.66,14.29-16,21.43-17.54,29.5-2.88,15,4.66,22.55-1.78,32.73-3.24,5.12-5.53,15.42-6.45,21.87a28.37,28.37,0,0,0-4.41,2.75c-4.68-14.45-8.93-22.76-24.79-29.11-9-3.62-13.43-1.14-24.17-5.58-13.88-5.72-21.82-16.14-25.1-20.45-21.2-27.8-14.92-37.84-17-63.83-2.42,0-6.78,30.46.66,55.8a107.27,107.27,0,0,0,3.69,10.41,115.85,115.85,0,0,0,16.63,27c16.93,19.84,33.75,25,64.88,31.2a14,14,0,0,0-2.44,6.75c-13.81-5.58-39.34-10-57.78,4.23-23.64,18.23-21.72,56.35-16.32,58.27,5,1.77,11-27.93,39.62-44.28,15.24-8.7,29.68-9.52,37.72-10.06a15.64,15.64,0,0,0,7.7,3.72,38,38,0,0,0-3.8,18.55c1,14.61,10.15,16.28,13.66,33.62,2.68,13.21-.51,22.81,1.05,23.11,1.3.25,3.38-6.32,10.51-28.37,7.32-22.64,8.48-26.09,8.4-32.56-.08-6.81-1.52-16.14-4.82-22.24a19.91,19.91,0,0,0,3.2-4.2c8.87-4.63,25.12-13.57,47.27-14.78,40.8-2.23,65.39,23.75,69.66,18.72C357.34,172.06,350.76,150.56,314.21,147.63Z"/><path class="e" d="M227.79,194.71c-.15,3.33-21.33-1.46-44.29,11.65-28.65,16.36-34.65,46.06-39.62,44.29-5.4-1.92-7.32-40,16.31-58.27C186.74,171.9,228,190,227.79,194.71Z"/><path class="e" d="M249.63,190.32c2.19,3.26,22.05-15.38,54.75-17.17,40.81-2.23,65.4,23.75,69.67,18.73-10-23.59-16.58-45.08-53.13-48C279.86,140.57,246.56,185.75,249.63,190.32Z"/><path class="e" d="M227.79,182.83c-35.95-6.88-54-11.28-72.26-32.63a116.25,116.25,0,0,1-16.63-27c-.22-.53-2.15-5.2-3.68-10.41-7.45-25.35-3.09-55.82-.67-55.8,2.09,26-4.18,36,17,63.83,3.28,4.3,11.23,14.73,25.1,20.45,10.75,4.43,15.13,2,24.17,5.58C219.07,154.13,222,164,227.79,182.83Z"/><path class="e" d="M236.49,151.32c6.44-10.19-1.11-17.7,1.78-32.73,1.54-8.08,6.87-15.22,17.54-29.5,3.78-5.07,16.67-22.35,19.43-20.73,2.47,1.46-8.25,15.13-10.38,37.16-2.06,21.25,6.21,26.29,1.84,44.44-.8,3.35-6.1,25.4-19.47,27.35-9.37,1.36-17.92,7.06-17.65.14C229.76,172.77,232.36,157.84,236.49,151.32Z"/><path class="e" d="M233.52,193.36c-9.21,9.95-8.52,23.48-8.4,25.21,1,14.62,10.15,16.28,13.66,33.62,2.67,13.21-.52,22.81,1.05,23.12,1.29.25,3.38-6.32,10.5-28.37,7.32-22.64,8.48-26.1,8.41-32.57-.12-10.36-3.38-26.59-11.56-28.36C241.48,184.77,235.65,191.06,233.52,193.36Z"/><ellipse class="e" cx="238.44" cy="185.2" rx="21.14" ry="14.38" transform="translate(-48.03 89.88) rotate(-19.43)"/><path class="d" d="M314.21,147.63c-27.67-2.22-51.8,17.57-63.66,32.11a11.09,11.09,0,0,0-2.29-2.51c7.76-7,11.11-20.9,11.74-23.51,4.36-18.15-3.91-23.19-1.85-44.44,2.13-22,12.85-35.7,10.38-37.15-2.75-1.62-15.65,15.65-19.43,20.72-10.66,14.29-16,21.43-17.54,29.5-2.88,15,4.66,22.55-1.78,32.73-3.24,5.12-5.53,15.42-6.45,21.87a28.37,28.37,0,0,0-4.41,2.75c-4.68-14.45-8.93-22.76-24.79-29.11-9-3.62-13.43-1.14-24.17-5.58-13.88-5.72-21.82-16.14-25.1-20.45-21.2-27.8-14.92-37.84-17-63.83-2.42,0-6.78,30.46.66,55.8a107.27,107.27,0,0,0,3.69,10.41,115.85,115.85,0,0,0,16.63,27c16.93,19.84,33.75,25,64.88,31.2a14,14,0,0,0-2.44,6.75c-13.81-5.58-39.34-10-57.78,4.23-23.64,18.23-21.72,56.35-16.32,58.27,5,1.77,11-27.93,39.62-44.28,15.24-8.7,29.68-9.52,37.72-10.06a15.64,15.64,0,0,0,7.7,3.72,38,38,0,0,0-3.8,18.55c1,14.61,10.15,16.28,13.66,33.62,2.68,13.21-.51,22.81,1.05,23.11,1.3.25,3.38-6.32,10.51-28.37,7.32-22.64,8.48-26.09,8.4-32.56-.08-6.81-1.52-16.14-4.82-22.24a19.91,19.91,0,0,0,3.2-4.2c8.87-4.63,25.12-13.57,47.27-14.78,40.8-2.23,65.39,23.75,69.66,18.72C357.34,172.06,350.76,150.56,314.21,147.63Z"/><path class="e" d="M227.68,139.2c2.54,1.29,5.46,3.88,10.55,21.91,4.15,14.68,3.81,18.61,2.06,21.91-.6,1.12-2.58,4.86-6.34,5.55a8.51,8.51,0,0,1-7.62-2.75c-4.22-4.88,2.15-10.81-.38-19.55-2.62-9.06-11.42-9.46-11.88-17.79-.18-3.4,1-7.94,4.38-9.83C222.25,136.52,227,138.84,227.68,139.2Z"/><path class="d" d="M225,139.2c2.54,1.29,5.45,3.88,10.55,21.91,4.14,14.68,3.8,18.61,2.05,21.91-.59,1.12-2.57,4.86-6.34,5.55a8.5,8.5,0,0,1-7.61-2.75c-4.23-4.88,2.14-10.81-.38-19.55-2.63-9.06-11.43-9.46-11.88-17.79-.19-3.4,1-7.94,4.37-9.83C219.52,136.52,224.25,138.84,225,139.2Z"/></svg>