<?xml version="1.0" encoding="utf-8"?>
<!-- Generator: Adobe Illustrator 25.3.1, SVG Export Plug-In . SVG Version: 6.00 Build 0)  -->
<svg version="1.1" id="remover_icone_1_" xmlns="http://www.w3.org/2000/svg" xmlns:xlink="http://www.w3.org/1999/xlink" x="0px"
	 y="0px" viewBox="0 0 324.8 324.8" style="enable-background:new 0 0 324.8 324.8;" xml:space="preserve">
<style type="text/css">
	.st0{fill:#59316D;}
</style>
<g id="remover_icone">
	<path id="Caminho_17974" class="st0" d="M162.2,225.4h2.9v-93.5h-5.7v93.5H162.2z"/>
	<path id="Caminho_17975" class="st0" d="M147.6,225.4l-5.7-93.6H136l5.7,93.6H147.6z"/>
	<path id="Caminho_17976" class="st0" d="M183,131.9l-5.9,93.6h5.9l5.7-93.6H183z"/>
	<path id="Caminho_17977" class="st0" d="M217.9,117.3v-3h-29.2v-10c0-2.2-0.9-4.2-2.6-5.6c-1.4-1.2-3.2-1.9-5-1.9h-37.3
		c-4.1,0-7.4,3.2-7.5,7.3v10.2h-29.5v5.9h5.7l5.9,108.3c0.5,9,5,14.4,11.6,14.4h64.7c6.6,0,10.8-5.4,11.4-14.4l5.9-108.3h5.7V117.3z
		 M142.1,104.3c0-0.5,0.2-0.9,0.5-1.2c0.3-0.3,0.8-0.4,1.2-0.3h37.3c0.4,0,0.7,0.1,1,0.3c0.3,0.3,0.5,0.8,0.5,1.2v10.1h-40.6
		L142.1,104.3z M194.8,237h-64.6c-4.3,0-5.6-4.9-5.9-8.9l-5.9-108h87.8l-5.9,108l0,0C200.2,231.4,199.2,237,194.8,237z"/>
</g>
</svg>
