<svg xmlns="http://www.w3.org/2000/svg" width="440.824" height="443.511" viewBox="0 0 440.824 443.511">
  <g id="Grupo_9572" data-name="Grupo 9572" transform="translate(-1604.313 -540)">
    <g id="Grupo_9094" data-name="Grupo 9094" transform="translate(1795.147 540.904) rotate(68)">
      <g id="Grupo_8978" data-name="Grupo 8978" transform="translate(0 0.473)">
        <rect id="Retângulo_2549" data-name="Retângulo 2549" width="234.178" height="127.803" fill="#e29c9e"/>
      </g>
      <g id="Grupo_8980" data-name="Grupo 8980" transform="translate(134.709 0)" opacity="0.8">
        <g id="Grupo_8979" data-name="Grupo 8979">
          <rect id="Retângulo_2550" data-name="Retângulo 2550" width="58.551" height="127.803" fill="#fff"/>
        </g>
      </g>
      <g id="Grupo_8981" data-name="Grupo 8981" transform="translate(16.126 75.026)">
        <path id="Caminho_17611" data-name="Caminho 17611" d="M7.6,0h7.128a.684.684,0,0,1,.5.206.684.684,0,0,1,.206.5v39.82a.7.7,0,0,1-.706.707H7.834a.7.7,0,0,1-.707-.707V8.247a.339.339,0,0,0-.118-.236.193.193,0,0,0-.236-.059L.942,9.542.706,9.6q-.53,0-.53-.648L0,3.888a.836.836,0,0,1,.529-.825L6.714.177A1.755,1.755,0,0,1,7.6,0Z" transform="translate(0 0.471)" fill="#b15e66"/>
        <path id="Caminho_17612" data-name="Caminho 17612" d="M3.77,38.73Q0,35.107,0,28.863V13.312Q0,7.187,3.77,3.593T14.02,0Q20.5,0,24.3,3.593t3.8,9.719V28.863q0,6.246-3.8,9.867T14.02,42.353Q7.539,42.353,3.77,38.73Zm14.461-5.125a5.98,5.98,0,0,0,1.56-4.33v-16.2a5.983,5.983,0,0,0-1.56-4.33,5.579,5.579,0,0,0-4.211-1.62,5.5,5.5,0,0,0-4.154,1.62,5.978,5.978,0,0,0-1.561,4.33v16.2a5.975,5.975,0,0,0,1.561,4.33,5.5,5.5,0,0,0,4.154,1.62A5.575,5.575,0,0,0,18.231,33.605Z" transform="translate(21.44 0)" fill="#b15e66"/>
      </g>
      <g id="Grupo_8982" data-name="Grupo 8982" transform="translate(202.527 9.047)">
        <path id="Caminho_17613" data-name="Caminho 17613" d="M3.849,0h3.61a.347.347,0,0,1,.254.1.345.345,0,0,1,.1.253V20.525a.356.356,0,0,1-.358.358H3.969a.356.356,0,0,1-.359-.358V4.177a.174.174,0,0,0-.06-.12.1.1,0,0,0-.119-.03L.478,4.833l-.119.03C.18,4.863.09,4.754.09,4.535L0,1.969a.423.423,0,0,1,.269-.417L3.4.089A.892.892,0,0,1,3.849,0Z" transform="translate(0 0.239)" fill="#b15e66"/>
        <path id="Caminho_17614" data-name="Caminho 17614" d="M1.909,19.615a6.6,6.6,0,0,1-1.909-5V6.742A6.479,6.479,0,0,1,1.909,1.82,7.213,7.213,0,0,1,7.1,0a7.269,7.269,0,0,1,5.206,1.82A6.454,6.454,0,0,1,14.23,6.742v7.876a6.577,6.577,0,0,1-1.924,5A7.233,7.233,0,0,1,7.1,21.449,7.177,7.177,0,0,1,1.909,19.615Zm7.324-2.6a3.029,3.029,0,0,0,.79-2.193v-8.2a3.027,3.027,0,0,0-.79-2.193A2.825,2.825,0,0,0,7.1,3.61,2.786,2.786,0,0,0,5,4.43a3.028,3.028,0,0,0-.79,2.193v8.2A3.03,3.03,0,0,0,5,17.02a2.785,2.785,0,0,0,2.1.82A2.824,2.824,0,0,0,9.233,17.019Z" transform="translate(10.859 0)" fill="#b15e66"/>
      </g>
      <g id="Grupo_8983" data-name="Grupo 8983" transform="translate(71.467 99.011)">
        <path id="Caminho_17615" data-name="Caminho 17615" d="M7.224,13.491,4.784,8.083A.127.127,0,0,0,4.667,8H2.85a.086.086,0,0,0-.1.1v5.33a.234.234,0,0,1-.234.234H.234A.224.224,0,0,1,.068,13.6.224.224,0,0,1,0,13.432V.234A.227.227,0,0,1,.068.068.228.228,0,0,1,.234,0H5.817a4.587,4.587,0,0,1,2.2.507A3.564,3.564,0,0,1,9.479,1.952,4.416,4.416,0,0,1,10,4.119a3.862,3.862,0,0,1-.664,2.275A3.534,3.534,0,0,1,7.478,7.731a.094.094,0,0,0-.059.137l2.655,5.525a.306.306,0,0,1,.039.117c0,.1-.072.156-.215.156H7.5A.276.276,0,0,1,7.224,13.491ZM2.753,2.46V5.8a.086.086,0,0,0,.1.1H5.408a1.87,1.87,0,0,0,1.338-.488,1.666,1.666,0,0,0,.517-1.269,1.7,1.7,0,0,0-.517-1.278,1.847,1.847,0,0,0-1.338-.5H2.85A.086.086,0,0,0,2.753,2.46Z" transform="translate(0 0.156)" fill="#b15e66"/>
        <path id="Caminho_17616" data-name="Caminho 17616" d="M9.42,2.294a.224.224,0,0,1-.165.069H2.85a.086.086,0,0,0-.1.1V5.486a.086.086,0,0,0,.1.1h4.2a.23.23,0,0,1,.166.068.227.227,0,0,1,.069.166V7.712a.234.234,0,0,1-.234.234H2.85a.086.086,0,0,0-.1.1v3.163a.086.086,0,0,0,.1.1h6.4a.234.234,0,0,1,.234.234v1.894a.234.234,0,0,1-.234.234H.234A.224.224,0,0,1,.068,13.6.222.222,0,0,1,0,13.432V.234A.224.224,0,0,1,.068.068.227.227,0,0,1,.234,0h9.02A.225.225,0,0,1,9.42.068a.225.225,0,0,1,.069.166V2.128A.224.224,0,0,1,9.42,2.294Z" transform="translate(11.987 0.156)" fill="#b15e66"/>
        <path id="Caminho_17617" data-name="Caminho 17617" d="M9.1,13.472l-.586-1.913c-.026-.052-.059-.078-.1-.078h-4.8c-.04,0-.072.027-.1.078l-.566,1.913a.246.246,0,0,1-.254.2H.211A.218.218,0,0,1,.035,13.6a.213.213,0,0,1-.019-.2L4.233.2A.245.245,0,0,1,4.487,0H7.552a.245.245,0,0,1,.254.2l4.217,13.2a.222.222,0,0,1,.02.1q0,.176-.215.176H9.348A.243.243,0,0,1,9.1,13.472Zm-4.8-4.12H7.728c.078,0,.1-.039.078-.117l-1.757-5.8c-.013-.052-.032-.075-.059-.069s-.046.029-.059.069l-1.719,5.8C4.2,9.313,4.226,9.352,4.292,9.352Z" transform="translate(22.73 0.156)" fill="#b15e66"/>
        <path id="Caminho_17618" data-name="Caminho 17618" d="M.069,13.6A.224.224,0,0,1,0,13.432V.234A.227.227,0,0,1,.069.068.224.224,0,0,1,.235,0H2.519a.232.232,0,0,1,.234.234v13.2a.233.233,0,0,1-.234.234H.235A.221.221,0,0,1,.069,13.6Z" transform="translate(36.49 0.156)" fill="#b15e66"/>
        <path id="Caminho_17619" data-name="Caminho 17619" d="M2.44,13.481A4.027,4.027,0,0,1,.634,12.057,3.73,3.73,0,0,1,0,9.9v-.43a.232.232,0,0,1,.234-.234H2.46a.233.233,0,0,1,.234.234v.293a1.594,1.594,0,0,0,.723,1.318,3.2,3.2,0,0,0,1.952.537,2.3,2.3,0,0,0,1.542-.44,1.375,1.375,0,0,0,.508-1.082A1.1,1.1,0,0,0,7.107,9.3a2.771,2.771,0,0,0-.85-.566q-.537-.244-1.708-.674a16.562,16.562,0,0,1-2.216-.918A4.442,4.442,0,0,1,.81,5.867a3.211,3.211,0,0,1-.615-2A3.522,3.522,0,0,1,.8,1.816,3.847,3.847,0,0,1,2.479.469,6.148,6.148,0,0,1,4.959,0,6.332,6.332,0,0,1,7.6.527,4.314,4.314,0,0,1,9.421,2a3.772,3.772,0,0,1,.654,2.2v.293a.233.233,0,0,1-.234.234H7.595a.232.232,0,0,1-.234-.234V4.334a1.772,1.772,0,0,0-.673-1.4,2.747,2.747,0,0,0-1.845-.576,2.333,2.333,0,0,0-1.435.391,1.271,1.271,0,0,0-.518,1.074,1.168,1.168,0,0,0,.3.819,2.657,2.657,0,0,0,.9.6q.6.263,1.845.712a23.093,23.093,0,0,1,2.177.9A4.341,4.341,0,0,1,9.538,8.015a3.052,3.052,0,0,1,.634,2,3.494,3.494,0,0,1-1.347,2.9,5.735,5.735,0,0,1-3.651,1.064A6.949,6.949,0,0,1,2.44,13.481Z" transform="translate(41.137 0)" fill="#b15e66"/>
      </g>
      <g id="Grupo_8984" data-name="Grupo 8984" transform="translate(8.246 11.382)">
        <path id="Caminho_17620" data-name="Caminho 17620" d="M3.467,2.849a1.415,1.415,0,0,1,.794,1.362,1.433,1.433,0,0,1-.552,1.224,2.345,2.345,0,0,1-1.445.414H.1a.1.1,0,0,1-.071-.03A.1.1,0,0,1,0,5.748V.1A.1.1,0,0,1,.029.029.1.1,0,0,1,.1,0H2.2q1.979,0,1.98,1.6A1.238,1.238,0,0,1,3.467,2.8Q3.417,2.824,3.467,2.849Zm-2.289-1.8v1.3A.037.037,0,0,0,1.22,2.4H2.2a.918.918,0,0,0,.61-.183.621.621,0,0,0,.217-.5A.643.643,0,0,0,2.807,1.2a.9.9,0,0,0-.61-.188H1.22A.037.037,0,0,0,1.178,1.053Zm1.688,3.58a.691.691,0,0,0,.217-.539.691.691,0,0,0-.217-.539.878.878,0,0,0-.61-.2H1.22a.037.037,0,0,0-.042.042V4.787a.037.037,0,0,0,.042.042H2.264A.866.866,0,0,0,2.866,4.633Z" transform="translate(0 0.067)" fill="#b15e66"/>
        <path id="Caminho_17621" data-name="Caminho 17621" d="M3.892,5.765l-.251-.819c-.011-.022-.024-.034-.041-.034H1.544c-.017,0-.031.012-.042.034l-.242.819a.106.106,0,0,1-.109.084H.09a.094.094,0,0,1-.075-.03.092.092,0,0,1-.008-.087L1.811.083A.1.1,0,0,1,1.92,0H3.232a.106.106,0,0,1,.109.083l1.8,5.648a.089.089,0,0,1,.009.042c0,.05-.031.075-.092.075H4A.1.1,0,0,1,3.892,5.765ZM1.837,4h1.47c.034,0,.044-.017.034-.05L2.588,1.47c-.005-.022-.013-.031-.025-.029s-.019.012-.025.029L1.8,3.952C1.8,3.985,1.809,4,1.837,4Z" transform="translate(4.58 0.067)" fill="#b15e66"/>
        <path id="Caminho_17622" data-name="Caminho 17622" d="M3.388.029A.1.1,0,0,1,3.459,0h.978a.094.094,0,0,1,.071.029A.1.1,0,0,1,4.537.1V5.748a.1.1,0,0,1-.03.071.094.094,0,0,1-.071.03H3.492a.119.119,0,0,1-.117-.067L1.212,2.206c-.011-.016-.023-.023-.034-.021s-.016.015-.016.038l.016,3.526a.1.1,0,0,1-.029.071.1.1,0,0,1-.071.03H.1a.1.1,0,0,1-.071-.03A.1.1,0,0,1,0,5.748V.1A.1.1,0,0,1,.029.029.1.1,0,0,1,.1,0h.944a.121.121,0,0,1,.117.067L3.317,3.626c.011.016.022.024.033.021s.017-.015.017-.038L3.359.1A.1.1,0,0,1,3.388.029Z" transform="translate(10.468 0.067)" fill="#b15e66"/>
        <path id="Caminho_17623" data-name="Caminho 17623" d="M1.027,5.727a1.832,1.832,0,0,1-.76-.714A2.072,2.072,0,0,1,0,3.952V2.022A2.074,2.074,0,0,1,.267.96a1.807,1.807,0,0,1,.76-.71A2.5,2.5,0,0,1,2.172,0,2.553,2.553,0,0,1,3.3.238a1.8,1.8,0,0,1,.761.677A1.889,1.889,0,0,1,4.337,1.93c0,.05-.034.081-.1.092l-.978.059H3.242c-.056,0-.084-.03-.084-.092a.953.953,0,0,0-.271-.71.974.974,0,0,0-.714-.268.985.985,0,0,0-.723.268.954.954,0,0,0-.271.71V4a.942.942,0,0,0,.271.7.985.985,0,0,0,.723.267A.975.975,0,0,0,2.887,4.7.941.941,0,0,0,3.158,4c0-.061.034-.092.1-.092l.978.042a.1.1,0,0,1,.071.025.074.074,0,0,1,.03.058,1.913,1.913,0,0,1-.272,1.02A1.817,1.817,0,0,1,3.3,5.74a2.515,2.515,0,0,1-1.132.242A2.459,2.459,0,0,1,1.027,5.727Z" transform="translate(15.908 0)" fill="#b15e66"/>
        <path id="Caminho_17624" data-name="Caminho 17624" d="M1.048,5.74a1.919,1.919,0,0,1-.772-.748A2.178,2.178,0,0,1,0,3.885V2.1A2.137,2.137,0,0,1,.276,1a1.9,1.9,0,0,1,.772-.74A2.427,2.427,0,0,1,2.2,0,2.444,2.444,0,0,1,3.354.263,1.9,1.9,0,0,1,4.128,1,2.15,2.15,0,0,1,4.4,2.1V3.885A2.215,2.215,0,0,1,4.128,5a1.886,1.886,0,0,1-.773.748A2.44,2.44,0,0,1,2.2,6.007,2.391,2.391,0,0,1,1.048,5.74ZM2.941,4.7a1.069,1.069,0,0,0,.284-.777V2.089a1.093,1.093,0,0,0-.28-.781.981.981,0,0,0-.748-.3.968.968,0,0,0-.74.3,1.09,1.09,0,0,0-.28.781V3.927a1.075,1.075,0,0,0,.28.777A.975.975,0,0,0,2.2,5,.992.992,0,0,0,2.941,4.7Z" transform="translate(20.987 0)" fill="#b15e66"/>
        <path id="Caminho_17625" data-name="Caminho 17625" d="M1.028,5.727a1.834,1.834,0,0,1-.761-.714A2.069,2.069,0,0,1,0,3.952V2.022A2.071,2.071,0,0,1,.267.96,1.808,1.808,0,0,1,1.028.25,2.49,2.49,0,0,1,2.173,0,2.554,2.554,0,0,1,3.3.238a1.8,1.8,0,0,1,.76.677A1.889,1.889,0,0,1,4.336,1.93c0,.05-.034.081-.1.092l-.978.059H3.242c-.056,0-.083-.03-.083-.092a.951.951,0,0,0-.271-.71.973.973,0,0,0-.714-.268.984.984,0,0,0-.723.268.949.949,0,0,0-.272.71V4a.937.937,0,0,0,.272.7.984.984,0,0,0,.723.267A.973.973,0,0,0,2.887,4.7.94.94,0,0,0,3.158,4c0-.061.034-.092.1-.092l.978.042a.1.1,0,0,1,.071.025.072.072,0,0,1,.029.058,1.913,1.913,0,0,1-.271,1.02,1.814,1.814,0,0,1-.76.685,2.516,2.516,0,0,1-1.132.242A2.453,2.453,0,0,1,1.028,5.727Z" transform="translate(27.847 0)" fill="#b15e66"/>
        <path id="Caminho_17626" data-name="Caminho 17626" d="M4.031.982a.1.1,0,0,1-.071.03H1.22a.037.037,0,0,0-.042.042V2.348a.037.037,0,0,0,.042.042h1.8a.1.1,0,0,1,.1.1V3.3a.1.1,0,0,1-.1.1H1.22a.037.037,0,0,0-.042.042V4.8a.037.037,0,0,0,.042.042H3.96a.1.1,0,0,1,.071.029.1.1,0,0,1,.03.071v.81a.1.1,0,0,1-.03.071.1.1,0,0,1-.071.03H.1a.1.1,0,0,1-.071-.03A.093.093,0,0,1,0,5.748V.1A.094.094,0,0,1,.03.029.1.1,0,0,1,.1,0H3.96a.1.1,0,0,1,.071.029A.1.1,0,0,1,4.061.1V.911A.1.1,0,0,1,4.031.982Z" transform="translate(33.044 0.067)" fill="#b15e66"/>
        <path id="Caminho_17627" data-name="Caminho 17627" d="M3.388.029A.1.1,0,0,1,3.459,0h.978a.1.1,0,0,1,.071.029A.1.1,0,0,1,4.536.1V5.748a.1.1,0,0,1-.1.1H3.492a.12.12,0,0,1-.117-.067L1.211,2.206c-.011-.016-.022-.023-.034-.021s-.016.015-.016.038l.016,3.526a.092.092,0,0,1-.029.071.094.094,0,0,1-.071.03H.1a.094.094,0,0,1-.07-.03A.092.092,0,0,1,0,5.748V.1A.093.093,0,0,1,.03.029.093.093,0,0,1,.1,0h.944a.12.12,0,0,1,.117.067L3.316,3.626c.011.016.023.024.034.021s.016-.015.016-.038L3.358.1A.1.1,0,0,1,3.388.029Z" transform="translate(37.924 0.067)" fill="#b15e66"/>
        <path id="Caminho_17628" data-name="Caminho 17628" d="M4.383.029A.1.1,0,0,1,4.412.1V.919a.1.1,0,0,1-.1.1h-1.5a.037.037,0,0,0-.041.042V5.748a.1.1,0,0,1-.1.1H1.7a.094.094,0,0,1-.07-.03.092.092,0,0,1-.03-.071V1.061a.037.037,0,0,0-.042-.042H.1A.1.1,0,0,1,.03.99.1.1,0,0,1,0,.919V.1A.1.1,0,0,1,.03.029.1.1,0,0,1,.1,0H4.311A.1.1,0,0,1,4.383.029Z" transform="translate(43.204 0.067)" fill="#b15e66"/>
        <path id="Caminho_17629" data-name="Caminho 17629" d="M3.091,5.774,2.047,3.459A.054.054,0,0,0,2,3.426H1.22a.037.037,0,0,0-.042.042V5.748a.1.1,0,0,1-.1.1H.1a.093.093,0,0,1-.071-.03A.094.094,0,0,1,0,5.748V.1A.1.1,0,0,1,.029.029.093.093,0,0,1,.1,0H2.49a1.965,1.965,0,0,1,.94.217,1.529,1.529,0,0,1,.627.618,1.9,1.9,0,0,1,.221.928,1.655,1.655,0,0,1-.283.973,1.523,1.523,0,0,1-.794.572.039.039,0,0,0-.026.058L4.311,5.732a.137.137,0,0,1,.017.05c0,.045-.031.067-.093.067H3.208A.118.118,0,0,1,3.091,5.774ZM1.178,1.053V2.481a.037.037,0,0,0,.042.042H2.314a.8.8,0,0,0,.573-.209.713.713,0,0,0,.221-.543.727.727,0,0,0-.221-.547.793.793,0,0,0-.573-.213H1.22A.037.037,0,0,0,1.178,1.053Z" transform="translate(48.367 0.067)" fill="#b15e66"/>
        <path id="Caminho_17630" data-name="Caminho 17630" d="M3.892,5.765l-.251-.819c-.011-.022-.025-.034-.042-.034H1.544c-.017,0-.031.012-.042.034l-.243.819a.1.1,0,0,1-.109.084H.09a.092.092,0,0,1-.075-.03.09.09,0,0,1-.008-.087L1.811.083A.105.105,0,0,1,1.92,0H3.231A.105.105,0,0,1,3.34.083L5.145,5.732a.1.1,0,0,1,.008.042c0,.05-.031.075-.092.075H4A.1.1,0,0,1,3.892,5.765ZM1.837,4h1.47c.034,0,.045-.017.034-.05L2.589,1.47c-.006-.022-.014-.031-.026-.029a.037.037,0,0,0-.025.029L1.8,3.952C1.8,3.985,1.809,4,1.837,4Z" transform="translate(53.34 0.067)" fill="#b15e66"/>
        <path id="Caminho_17631" data-name="Caminho 17631" d="M.03,5.819A.093.093,0,0,1,0,5.748V.1A.094.094,0,0,1,.03.029.1.1,0,0,1,.1,0h.978a.1.1,0,0,1,.071.029A.1.1,0,0,1,1.178.1V4.8a.037.037,0,0,0,.042.042H3.952a.1.1,0,0,1,.071.029.1.1,0,0,1,.029.071v.81a.1.1,0,0,1-.1.1H.1A.1.1,0,0,1,.03,5.819Z" transform="translate(59.229 0.067)" fill="#b15e66"/>
        <path id="Caminho_17632" data-name="Caminho 17632" d="M.029,5.819A.1.1,0,0,1,0,5.748V.1A.1.1,0,0,1,.029.029.1.1,0,0,1,.1,0H2.19a2.557,2.557,0,0,1,1.1.222,1.714,1.714,0,0,1,.732.622,1.675,1.675,0,0,1,.258.928V4.078a1.676,1.676,0,0,1-.258.927,1.713,1.713,0,0,1-.732.622,2.555,2.555,0,0,1-1.1.222H.1A.1.1,0,0,1,.029,5.819ZM1.22,4.838H2.232a.807.807,0,0,0,.622-.259A1.016,1.016,0,0,0,3.1,3.885V1.963a.983.983,0,0,0-.238-.693.826.826,0,0,0-.639-.259h-1a.037.037,0,0,0-.042.042V4.8A.037.037,0,0,0,1.22,4.838Z" transform="translate(65.679 0.067)" fill="#b15e66"/>
        <path id="Caminho_17633" data-name="Caminho 17633" d="M1.049,5.74a1.917,1.917,0,0,1-.773-.748A2.182,2.182,0,0,1,0,3.885V2.1A2.141,2.141,0,0,1,.276,1a1.9,1.9,0,0,1,.773-.74A2.423,2.423,0,0,1,2.2,0,2.444,2.444,0,0,1,3.354.263,1.9,1.9,0,0,1,4.128,1,2.15,2.15,0,0,1,4.4,2.1V3.885A2.215,2.215,0,0,1,4.128,5a1.886,1.886,0,0,1-.773.748A2.44,2.44,0,0,1,2.2,6.007,2.387,2.387,0,0,1,1.049,5.74ZM2.941,4.7a1.067,1.067,0,0,0,.284-.777V2.089a1.093,1.093,0,0,0-.28-.781.98.98,0,0,0-.748-.3.969.969,0,0,0-.739.3,1.091,1.091,0,0,0-.28.781V3.927a1.076,1.076,0,0,0,.28.777A.976.976,0,0,0,2.2,5,.989.989,0,0,0,2.941,4.7Z" transform="translate(70.717 0)" fill="#b15e66"/>
        <path id="Caminho_17634" data-name="Caminho 17634" d="M3.467,2.849a1.414,1.414,0,0,1,.794,1.362A1.434,1.434,0,0,1,3.71,5.435a2.347,2.347,0,0,1-1.446.414H.1a.1.1,0,0,1-.071-.03A.1.1,0,0,1,0,5.748V.1A.1.1,0,0,1,.03.029.1.1,0,0,1,.1,0H2.2q1.98,0,1.98,1.6A1.238,1.238,0,0,1,3.467,2.8Q3.417,2.824,3.467,2.849Zm-2.289-1.8v1.3A.037.037,0,0,0,1.22,2.4H2.2a.918.918,0,0,0,.61-.183.622.622,0,0,0,.217-.5A.644.644,0,0,0,2.808,1.2a.9.9,0,0,0-.61-.188H1.22A.037.037,0,0,0,1.178,1.053Zm1.688,3.58a.691.691,0,0,0,.217-.539.691.691,0,0,0-.217-.539.877.877,0,0,0-.61-.2H1.22a.037.037,0,0,0-.042.042V4.787a.037.037,0,0,0,.042.042H2.264A.864.864,0,0,0,2.866,4.633Z" transform="translate(77.694 0.067)" fill="#b15e66"/>
        <path id="Caminho_17635" data-name="Caminho 17635" d="M3.091,5.774,2.047,3.459A.054.054,0,0,0,2,3.426H1.22a.037.037,0,0,0-.042.042V5.748a.093.093,0,0,1-.03.071.094.094,0,0,1-.071.03H.1a.1.1,0,0,1-.071-.03A.1.1,0,0,1,0,5.748V.1A.1.1,0,0,1,.029.029.1.1,0,0,1,.1,0H2.49a1.962,1.962,0,0,1,.94.217,1.529,1.529,0,0,1,.627.618,1.892,1.892,0,0,1,.221.928,1.653,1.653,0,0,1-.285.973,1.515,1.515,0,0,1-.794.572.039.039,0,0,0-.024.058L4.312,5.732a.133.133,0,0,1,.016.05c0,.045-.031.067-.092.067H3.208A.118.118,0,0,1,3.091,5.774ZM1.178,1.053V2.481a.037.037,0,0,0,.042.042H2.314a.8.8,0,0,0,.573-.209.714.714,0,0,0,.221-.543.728.728,0,0,0-.221-.547.792.792,0,0,0-.573-.213H1.22A.037.037,0,0,0,1.178,1.053Z" transform="translate(82.874 0.067)" fill="#b15e66"/>
        <path id="Caminho_17636" data-name="Caminho 17636" d="M3.892,5.765l-.251-.819c-.011-.022-.024-.034-.041-.034H1.544c-.017,0-.031.012-.042.034l-.243.819a.1.1,0,0,1-.108.084H.09a.094.094,0,0,1-.075-.03.09.09,0,0,1-.008-.087L1.812.083A.1.1,0,0,1,1.92,0H3.232A.1.1,0,0,1,3.34.083L5.145,5.732a.093.093,0,0,1,.008.042c0,.05-.031.075-.092.075H4A.1.1,0,0,1,3.892,5.765ZM1.836,4H3.307c.033,0,.045-.017.033-.05L2.588,1.47c-.005-.022-.014-.031-.025-.029a.038.038,0,0,0-.026.029L1.8,3.952C1.8,3.985,1.808,4,1.836,4Z" transform="translate(87.847 0.067)" fill="#b15e66"/>
        <path id="Caminho_17637" data-name="Caminho 17637" d="M1.044,5.769a1.721,1.721,0,0,1-.773-.61A1.593,1.593,0,0,1,0,4.236V4.052a.094.094,0,0,1,.029-.071A.094.094,0,0,1,.1,3.952h.952a.1.1,0,0,1,.1.1v.125a.682.682,0,0,0,.309.564,1.372,1.372,0,0,0,.837.23.987.987,0,0,0,.659-.188.589.589,0,0,0,.217-.464.465.465,0,0,0-.134-.338,1.182,1.182,0,0,0-.363-.242c-.154-.07-.4-.166-.731-.289A7.065,7.065,0,0,1,1,3.058,1.9,1.9,0,0,1,.347,2.51a1.374,1.374,0,0,1-.263-.857A1.51,1.51,0,0,1,.342.777,1.65,1.65,0,0,1,1.061.2,2.637,2.637,0,0,1,2.123,0,2.717,2.717,0,0,1,3.254.225a1.848,1.848,0,0,1,.777.631,1.611,1.611,0,0,1,.28.94v.125a.1.1,0,0,1-.029.071.1.1,0,0,1-.071.029H3.25a.1.1,0,0,1-.1-.1V1.854a.76.76,0,0,0-.288-.6,1.177,1.177,0,0,0-.789-.247,1,1,0,0,0-.614.168.543.543,0,0,0-.222.46.5.5,0,0,0,.13.351,1.126,1.126,0,0,0,.384.255q.254.112.789.3a9.868,9.868,0,0,1,.932.384,1.861,1.861,0,0,1,.61.5,1.307,1.307,0,0,1,.271.856,1.5,1.5,0,0,1-.576,1.241,2.455,2.455,0,0,1-1.562.455A2.968,2.968,0,0,1,1.044,5.769Z" transform="translate(93.159 0)" fill="#b15e66"/>
        <path id="Caminho_17638" data-name="Caminho 17638" d="M.03,5.819A.094.094,0,0,1,0,5.748V.1A.1.1,0,0,1,.03.029.094.094,0,0,1,.1,0h.978a.093.093,0,0,1,.071.029A.094.094,0,0,1,1.178.1V5.748a.1.1,0,0,1-.1.1H.1A.094.094,0,0,1,.03,5.819Z" transform="translate(98.34 0.067)" fill="#b15e66"/>
        <path id="Caminho_17639" data-name="Caminho 17639" d="M.029,5.819A.094.094,0,0,1,0,5.748V.1A.1.1,0,0,1,.029.029.1.1,0,0,1,.1,0h.978a.093.093,0,0,1,.071.029A.094.094,0,0,1,1.178.1V4.8a.037.037,0,0,0,.042.042H3.951a.1.1,0,0,1,.1.1v.81a.094.094,0,0,1-.029.071.1.1,0,0,1-.071.03H.1A.1.1,0,0,1,.029,5.819Z" transform="translate(100.536 0.067)" fill="#b15e66"/>
      </g>
      <g id="Grupo_8986" data-name="Grupo 8986" transform="translate(99.06 26.565)">
        <g id="Grupo_8985" data-name="Grupo 8985" transform="translate(0 0)">
          <path id="Caminho_17640" data-name="Caminho 17640" d="M105.286,82.482c-4.075.8-6.87.053-9.261-2.027L68.968,56.967q-5.826.353-10.863.226-2.955-.075-5.661-.318l-4.107,4.311a5.429,5.429,0,0,1,3.2,8.3A1.532,1.532,0,1,1,49,67.777a2.366,2.366,0,0,0-2.418-3.641l-6.014,1.178A2.366,2.366,0,0,0,39.7,69.6a1.532,1.532,0,1,1-1.71,2.542,5.43,5.43,0,0,1,1.987-9.834l2.738-.537-1.348-6.887a30.4,30.4,0,0,1-8.4-3.789l-.005,0a32.389,32.389,0,0,1-13.5-19.382,13.432,13.432,0,0,1-8.113-1.93c.092.937.247,1.957.465,3.076A1.533,1.533,0,0,1,9.6,34.506,17.908,17.908,0,0,1,1.74,10.96,7.8,7.8,0,0,1,7.977,2.349L17.822.419A24.284,24.284,0,0,1,33.357,2.7a1.532,1.532,0,1,1-1.384,2.734A21.2,21.2,0,0,0,18.41,3.427L8.565,5.356a4.738,4.738,0,0,0-3.811,4.958l6.792,4.568a8.033,8.033,0,0,1,6.471-8.255,11.428,11.428,0,0,1,13.553,9.089,13.472,13.472,0,0,1-9.1,15.4,29.361,29.361,0,0,0,5.282,10.977A11.869,11.869,0,0,1,37.3,29.628l7.405-1.45a1.532,1.532,0,1,1,.589,3.007l-7.405,1.45A8.786,8.786,0,0,0,34.677,48.55,27.964,27.964,0,0,0,42.73,52.1c12-2.491,18.9-11.544,17.6-18.208A1.532,1.532,0,0,1,62.458,32.2L74.12,37.438c-5.559-6.2-10.563-9.773-29.206-18.152a1.531,1.531,0,0,1-.757-.741A29.185,29.185,0,0,0,36.232,8.2a1.532,1.532,0,1,1,1.927-2.382,32.013,32.013,0,0,1,8.521,10.9c20.57,9.272,24.769,12.851,31.4,20.591.305.357,1.833,2.5,2.373,3.129a1.532,1.532,0,0,1-1.79,2.395L76.142,41.7a14.6,14.6,0,0,1-3.757,8.229,20.7,20.7,0,0,1-4.816,4.052c7.585-.188,18.361-1.751,28.092-3.516h0v0h0l-12-5.387a1.532,1.532,0,1,1,1.254-2.8l12,5.387a3.066,3.066,0,0,1-.71,5.814q-1.883.341-3.718.652l25.263,29.492a2.5,2.5,0,0,1-1.418,4.08,9.448,9.448,0,0,1-8.552-2.7Zm1.619-2.721,3.06,3.1a6.446,6.446,0,0,0,4.77,1.953L88.95,54.712q-3.034.475-5.931.86l8.162,8.265A1.532,1.532,0,1,1,89,65.991l-9.816-9.94q-3.035.353-5.907.6L98.036,78.143a6.436,6.436,0,0,0,4.554,1.61l-9.651-9.773a1.532,1.532,0,0,1,2.181-2.153l11.754,11.9.032.032ZM44.651,55.719l.795,4.059,3.187-3.345Q46.555,56.132,44.651,55.719Zm4.3-2.32a78.882,78.882,0,0,0,9.752.751l.094-.022a19.909,19.909,0,0,0,11.267-6.2,10.918,10.918,0,0,0,3.02-7.591l-9.554-4.288a17.215,17.215,0,0,1-4.588,10.382,26.618,26.618,0,0,1-9.993,6.97ZM15.046,17.245c3.6,2.575,5.541,5.663,6.773,10.854A10.4,10.4,0,0,0,28.564,16.3a8.42,8.42,0,0,0-9.958-6.671A4.962,4.962,0,0,0,14.7,15.45Zm-3.7,8.709A10.386,10.386,0,0,0,18.8,28.678c-1.094-4.484-2.689-6.731-4.919-8.477A10.563,10.563,0,0,0,11.347,25.954ZM3.99,13.492A14.864,14.864,0,0,0,8.3,29.954c-.5-5.38.769-8.657,3.064-11.506Zm17.516,5.036a1.532,1.532,0,0,1-1.8-1.209l-.608-3.1a1.532,1.532,0,1,1,3.007-.589l.607,3.1A1.532,1.532,0,0,1,21.506,18.528Z" fill="#b15e66"/>
        </g>
      </g>
    </g>
    <g id="Grupo_9093" data-name="Grupo 9093" transform="translate(1974.063 600.222) rotate(118)">
      <g id="Grupo_8987" data-name="Grupo 8987" transform="translate(0 0.471)">
        <rect id="Retângulo_2551" data-name="Retângulo 2551" width="234.179" height="127.803" fill="#ffdea9"/>
      </g>
      <g id="Grupo_8989" data-name="Grupo 8989" transform="translate(134.709 0)" opacity="0.8">
        <g id="Grupo_8988" data-name="Grupo 8988">
          <rect id="Retângulo_2552" data-name="Retângulo 2552" width="58.551" height="127.803" fill="#fff"/>
        </g>
      </g>
      <g id="Grupo_8990" data-name="Grupo 8990" transform="translate(16.229 79.357)">
        <path id="Caminho_17641" data-name="Caminho 17641" d="M10.364,31.745a.217.217,0,0,0,.218.109h14.7a.647.647,0,0,1,.651.651v5.264a.648.648,0,0,1-.651.651H.868a.623.623,0,0,1-.462-.19.624.624,0,0,1-.19-.461V32.776a1.1,1.1,0,0,1,.325-.814Q3.2,29.357,5.968,26.291t3.473-3.825q1.519-1.791,3.093-3.419,4.938-5.48,4.938-8.139a4.012,4.012,0,0,0-1.356-3.121,5.071,5.071,0,0,0-3.527-1.221A5.068,5.068,0,0,0,9.062,7.787a4.134,4.134,0,0,0-1.357,3.229v1.357a.648.648,0,0,1-.651.651H.651a.623.623,0,0,1-.461-.19A.623.623,0,0,1,0,12.373V9.822A9.323,9.323,0,0,1,1.844,4.64,10.7,10.7,0,0,1,6.321,1.194,15.81,15.81,0,0,1,12.589,0a14.7,14.7,0,0,1,6.7,1.439,10.849,10.849,0,0,1,4.4,3.879,9.941,9.941,0,0,1,1.546,5.426,10.788,10.788,0,0,1-1.14,4.667,25.788,25.788,0,0,1-3.418,5.155q-1.683,2.117-3.636,4.178t-5.806,5.969l-.815.814A.178.178,0,0,0,10.364,31.745Z" transform="translate(0 0)" fill="#d67a4b"/>
        <path id="Caminho_17642" data-name="Caminho 17642" d="M3.473,35.678Q0,32.341,0,26.589V12.264A11.782,11.782,0,0,1,3.473,3.311Q6.944,0,12.914,0t9.469,3.311a11.736,11.736,0,0,1,3.5,8.953V26.59a11.961,11.961,0,0,1-3.5,9.089q-3.5,3.337-9.469,3.338T3.473,35.678Zm13.321-4.72a5.506,5.506,0,0,0,1.439-3.989V12.047a5.507,5.507,0,0,0-1.439-3.988,5.136,5.136,0,0,0-3.88-1.493A5.065,5.065,0,0,0,9.089,8.059a5.5,5.5,0,0,0-1.438,3.988V26.969a5.5,5.5,0,0,0,1.438,3.989,5.065,5.065,0,0,0,3.825,1.492A5.136,5.136,0,0,0,16.794,30.958Z" transform="translate(27.945 0)" fill="#d67a4b"/>
      </g>
      <g id="Grupo_8991" data-name="Grupo 8991" transform="translate(200.553 9.047)">
        <path id="Caminho_17643" data-name="Caminho 17643" d="M5.7,17.451a.12.12,0,0,0,.119.06H13.9a.356.356,0,0,1,.358.358v2.894a.346.346,0,0,1-.1.254.35.35,0,0,1-.253.1H.477a.348.348,0,0,1-.254-.1.346.346,0,0,1-.1-.254V18.019A.607.607,0,0,1,.3,17.571q1.461-1.432,2.983-3.118t1.909-2.1q.835-.984,1.7-1.879Q9.6,7.459,9.606,6A2.206,2.206,0,0,0,8.86,4.281a2.789,2.789,0,0,0-1.939-.671,2.787,2.787,0,0,0-1.939.671,2.272,2.272,0,0,0-.746,1.775V6.8a.355.355,0,0,1-.358.358H.358a.344.344,0,0,1-.253-.1A.342.342,0,0,1,0,6.8V5.4A5.124,5.124,0,0,1,1.015,2.55,5.878,5.878,0,0,1,3.475.656,8.69,8.69,0,0,1,6.921,0a8.086,8.086,0,0,1,3.684.79,5.955,5.955,0,0,1,2.416,2.133,5.46,5.46,0,0,1,.851,2.983,5.935,5.935,0,0,1-.627,2.566,14.2,14.2,0,0,1-1.879,2.835q-.926,1.164-2,2.3T6.175,16.885l-.448.447A.1.1,0,0,0,5.7,17.451Z" transform="translate(0 0)" fill="#d67a4b"/>
        <path id="Caminho_17644" data-name="Caminho 17644" d="M1.909,19.615a6.6,6.6,0,0,1-1.909-5V6.742A6.477,6.477,0,0,1,1.909,1.82,7.212,7.212,0,0,1,7.1,0a7.268,7.268,0,0,1,5.205,1.82A6.453,6.453,0,0,1,14.23,6.742v7.876a6.576,6.576,0,0,1-1.924,5A7.232,7.232,0,0,1,7.1,21.45,7.177,7.177,0,0,1,1.909,19.615ZM9.233,17.02a3.033,3.033,0,0,0,.79-2.193v-8.2a3.029,3.029,0,0,0-.79-2.193A2.825,2.825,0,0,0,7.1,3.609,2.785,2.785,0,0,0,5,4.43a3.025,3.025,0,0,0-.79,2.193v8.2A3.029,3.029,0,0,0,5,17.02a2.787,2.787,0,0,0,2.1.82A2.826,2.826,0,0,0,9.233,17.02Z" transform="translate(15.572 0)" fill="#d67a4b"/>
      </g>
      <g id="Grupo_8992" data-name="Grupo 8992" transform="translate(77.082 101.829)">
        <path id="Caminho_17645" data-name="Caminho 17645" d="M7.225,13.491,4.784,8.082A.126.126,0,0,0,4.667,8H2.852a.086.086,0,0,0-.1.1v5.33a.222.222,0,0,1-.069.165.224.224,0,0,1-.166.069H.235A.224.224,0,0,1,.069,13.6.225.225,0,0,1,0,13.432V.234A.228.228,0,0,1,.069.068.224.224,0,0,1,.235,0H5.819a4.582,4.582,0,0,1,2.2.507A3.552,3.552,0,0,1,9.479,1.952,4.41,4.41,0,0,1,10,4.119a3.863,3.863,0,0,1-.664,2.275A3.536,3.536,0,0,1,7.479,7.731a.093.093,0,0,0-.059.137l2.656,5.525a.3.3,0,0,1,.039.116c0,.1-.072.157-.214.157H7.5A.275.275,0,0,1,7.225,13.491ZM2.754,2.46V5.8a.086.086,0,0,0,.1.1H5.408a1.87,1.87,0,0,0,1.338-.488,1.666,1.666,0,0,0,.517-1.269A1.7,1.7,0,0,0,6.747,2.86a1.849,1.849,0,0,0-1.338-.5H2.851A.086.086,0,0,0,2.754,2.46Z" transform="translate(0 0.157)" fill="#d67a4b"/>
        <path id="Caminho_17646" data-name="Caminho 17646" d="M9.42,2.293a.222.222,0,0,1-.165.069h-6.4a.086.086,0,0,0-.1.1V5.486a.086.086,0,0,0,.1.1h4.2a.225.225,0,0,1,.166.068.229.229,0,0,1,.068.166V7.711a.234.234,0,0,1-.234.235h-4.2a.086.086,0,0,0-.1.1v3.163a.087.087,0,0,0,.1.1h6.4a.232.232,0,0,1,.234.234v1.893a.235.235,0,0,1-.234.234H.235A.224.224,0,0,1,.069,13.6.223.223,0,0,1,0,13.432V.234A.227.227,0,0,1,.069.068.224.224,0,0,1,.235,0h9.02A.224.224,0,0,1,9.42.068a.225.225,0,0,1,.069.166V2.128A.222.222,0,0,1,9.42,2.293Z" transform="translate(11.988 0.157)" fill="#d67a4b"/>
        <path id="Caminho_17647" data-name="Caminho 17647" d="M9.094,13.471l-.586-1.913c-.026-.052-.058-.078-.1-.078h-4.8c-.039,0-.072.026-.1.078l-.566,1.913a.245.245,0,0,1-.254.2H.211A.219.219,0,0,1,.035,13.6a.213.213,0,0,1-.019-.2L4.233.2A.244.244,0,0,1,4.486,0H7.551a.244.244,0,0,1,.254.2l4.217,13.2a.22.22,0,0,1,.02.1c0,.117-.072.176-.215.176H9.348A.245.245,0,0,1,9.094,13.471Zm-4.8-4.12H7.727c.079,0,.1-.039.079-.117l-1.758-5.8c-.013-.051-.032-.074-.058-.068a.091.091,0,0,0-.059.068l-1.718,5.8C4.2,9.313,4.226,9.352,4.292,9.352Z" transform="translate(22.73 0.157)" fill="#d67a4b"/>
        <path id="Caminho_17648" data-name="Caminho 17648" d="M.069,13.6A.225.225,0,0,1,0,13.432V.234A.228.228,0,0,1,.069.068.225.225,0,0,1,.234,0H2.519a.226.226,0,0,1,.167.068.229.229,0,0,1,.068.166v13.2a.234.234,0,0,1-.234.234H.234A.225.225,0,0,1,.069,13.6Z" transform="translate(36.49 0.157)" fill="#d67a4b"/>
        <path id="Caminho_17649" data-name="Caminho 17649" d="M2.44,13.481A4.027,4.027,0,0,1,.634,12.056,3.724,3.724,0,0,1,0,9.9v-.43A.225.225,0,0,1,.068,9.3a.226.226,0,0,1,.166-.068H2.46a.233.233,0,0,1,.234.234v.293a1.6,1.6,0,0,0,.723,1.318,3.2,3.2,0,0,0,1.953.537,2.305,2.305,0,0,0,1.542-.44,1.377,1.377,0,0,0,.508-1.083,1.093,1.093,0,0,0-.312-.79,2.76,2.76,0,0,0-.849-.566q-.537-.244-1.708-.673a16.739,16.739,0,0,1-2.216-.918A4.442,4.442,0,0,1,.81,5.867a3.212,3.212,0,0,1-.615-2,3.52,3.52,0,0,1,.6-2.05A3.849,3.849,0,0,1,2.479.469,6.155,6.155,0,0,1,4.959,0,6.337,6.337,0,0,1,7.6.527,4.325,4.325,0,0,1,9.42,2a3.772,3.772,0,0,1,.654,2.2v.293a.233.233,0,0,1-.234.234H7.595a.233.233,0,0,1-.234-.234V4.334a1.776,1.776,0,0,0-.673-1.4,2.749,2.749,0,0,0-1.845-.576,2.335,2.335,0,0,0-1.435.391,1.27,1.27,0,0,0-.517,1.074,1.17,1.17,0,0,0,.3.82,2.663,2.663,0,0,0,.9.6q.6.263,1.845.712a23.183,23.183,0,0,1,2.176.9A4.346,4.346,0,0,1,9.537,8.015a3.043,3.043,0,0,1,.635,2,3.5,3.5,0,0,1-1.347,2.9,5.735,5.735,0,0,1-3.652,1.064A6.944,6.944,0,0,1,2.44,13.481Z" transform="translate(41.137 0)" fill="#d67a4b"/>
      </g>
      <g id="Grupo_8993" data-name="Grupo 8993" transform="translate(8.246 11.382)">
        <path id="Caminho_17650" data-name="Caminho 17650" d="M3.468,2.849A1.415,1.415,0,0,1,4.261,4.21,1.434,1.434,0,0,1,3.71,5.435a2.349,2.349,0,0,1-1.445.413H.1a.1.1,0,0,1-.071-.029A.1.1,0,0,1,0,5.749V.1A.1.1,0,0,1,.029.029.1.1,0,0,1,.1,0H2.2q1.979,0,1.98,1.6a1.239,1.239,0,0,1-.71,1.2C3.434,2.816,3.434,2.832,3.468,2.849Zm-2.289-1.8v1.3A.037.037,0,0,0,1.22,2.4H2.2a.917.917,0,0,0,.61-.183.622.622,0,0,0,.217-.5A.645.645,0,0,0,2.808,1.2a.905.905,0,0,0-.61-.188H1.22A.037.037,0,0,0,1.178,1.053Zm1.688,3.58a.692.692,0,0,0,.217-.539.69.69,0,0,0-.217-.539.878.878,0,0,0-.61-.2H1.22a.037.037,0,0,0-.042.041V4.787a.037.037,0,0,0,.042.043H2.264A.867.867,0,0,0,2.866,4.633Z" transform="translate(0 0.067)" fill="#d67a4b"/>
        <path id="Caminho_17651" data-name="Caminho 17651" d="M3.892,5.765l-.251-.819c-.011-.022-.025-.034-.041-.034H1.544c-.017,0-.031.011-.042.034l-.242.819a.105.105,0,0,1-.109.083H.09a.1.1,0,0,1-.075-.029.093.093,0,0,1-.008-.088L1.811.083A.1.1,0,0,1,1.92,0H3.232a.106.106,0,0,1,.109.083l1.8,5.648a.084.084,0,0,1,.009.042c0,.05-.031.075-.091.075H4A.1.1,0,0,1,3.892,5.765ZM1.837,4h1.47c.034,0,.044-.017.034-.05L2.588,1.471c-.006-.023-.014-.032-.025-.029s-.019.012-.025.029L1.8,3.952C1.8,3.986,1.809,4,1.837,4Z" transform="translate(4.58 0.067)" fill="#d67a4b"/>
        <path id="Caminho_17652" data-name="Caminho 17652" d="M3.387.029A.1.1,0,0,1,3.459,0h.978a.1.1,0,0,1,.071.029A.1.1,0,0,1,4.537.1V5.749a.1.1,0,0,1-.1.1H3.492a.118.118,0,0,1-.116-.067L1.211,2.206c-.011-.016-.022-.024-.034-.021s-.016.015-.016.038l.016,3.526a.094.094,0,0,1-.029.071.1.1,0,0,1-.071.029H.1a.1.1,0,0,1-.071-.029A.1.1,0,0,1,0,5.749V.1A.1.1,0,0,1,.029.029.1.1,0,0,1,.1,0h.944a.121.121,0,0,1,.117.067l2.156,3.56c.011.017.022.024.033.021s.017-.015.017-.038L3.359.1A.1.1,0,0,1,3.387.029Z" transform="translate(10.469 0.067)" fill="#d67a4b"/>
        <path id="Caminho_17653" data-name="Caminho 17653" d="M1.028,5.727a1.829,1.829,0,0,1-.76-.714A2.074,2.074,0,0,1,0,3.952V2.021A2.073,2.073,0,0,1,.268.96a1.8,1.8,0,0,1,.76-.71A2.49,2.49,0,0,1,2.173,0,2.546,2.546,0,0,1,3.3.238a1.8,1.8,0,0,1,.761.677A1.887,1.887,0,0,1,4.337,1.93c0,.05-.034.081-.1.091l-.978.059H3.242c-.056,0-.083-.031-.083-.092a.952.952,0,0,0-.271-.71.974.974,0,0,0-.714-.268.985.985,0,0,0-.723.268.953.953,0,0,0-.271.71V4a.942.942,0,0,0,.271.7.984.984,0,0,0,.723.267A.974.974,0,0,0,2.887,4.7.941.941,0,0,0,3.159,4c0-.061.034-.092.1-.092l.978.042a.1.1,0,0,1,.071.025.074.074,0,0,1,.03.058,1.908,1.908,0,0,1-.272,1.02,1.811,1.811,0,0,1-.761.685,2.51,2.51,0,0,1-1.132.243A2.453,2.453,0,0,1,1.028,5.727Z" transform="translate(15.908 0)" fill="#d67a4b"/>
        <path id="Caminho_17654" data-name="Caminho 17654" d="M1.048,5.739a1.912,1.912,0,0,1-.772-.748A2.174,2.174,0,0,1,0,3.885V2.1A2.138,2.138,0,0,1,.276,1,1.894,1.894,0,0,1,1.048.263,2.423,2.423,0,0,1,2.2,0,2.441,2.441,0,0,1,3.354.263,1.9,1.9,0,0,1,4.128,1,2.154,2.154,0,0,1,4.4,2.1V3.885A2.218,2.218,0,0,1,4.128,5a1.885,1.885,0,0,1-.773.747A2.437,2.437,0,0,1,2.2,6.007,2.389,2.389,0,0,1,1.048,5.739ZM2.941,4.7a1.069,1.069,0,0,0,.284-.777V2.089a1.092,1.092,0,0,0-.28-.781.981.981,0,0,0-.748-.3.968.968,0,0,0-.739.3,1.09,1.09,0,0,0-.28.781V3.927a1.075,1.075,0,0,0,.28.777A.974.974,0,0,0,2.2,5,.99.99,0,0,0,2.941,4.7Z" transform="translate(20.988 0)" fill="#d67a4b"/>
        <path id="Caminho_17655" data-name="Caminho 17655" d="M1.028,5.727a1.829,1.829,0,0,1-.761-.714A2.07,2.07,0,0,1,0,3.952V2.021A2.069,2.069,0,0,1,.267.96a1.8,1.8,0,0,1,.761-.71A2.485,2.485,0,0,1,2.172,0,2.552,2.552,0,0,1,3.3.238a1.8,1.8,0,0,1,.76.677A1.89,1.89,0,0,1,4.336,1.93c0,.05-.034.081-.1.091l-.978.059H3.242c-.056,0-.083-.031-.083-.092a.95.95,0,0,0-.272-.71.972.972,0,0,0-.714-.268.984.984,0,0,0-.723.268.95.95,0,0,0-.271.71V4a.939.939,0,0,0,.271.7.984.984,0,0,0,.723.267A.972.972,0,0,0,2.886,4.7.939.939,0,0,0,3.158,4c0-.061.034-.092.1-.092l.978.042a.1.1,0,0,1,.071.025.073.073,0,0,1,.029.058,1.911,1.911,0,0,1-.271,1.02,1.812,1.812,0,0,1-.76.685,2.516,2.516,0,0,1-1.132.243A2.448,2.448,0,0,1,1.028,5.727Z" transform="translate(27.847 0)" fill="#d67a4b"/>
        <path id="Caminho_17656" data-name="Caminho 17656" d="M4.031.982a.1.1,0,0,1-.071.029H1.22a.037.037,0,0,0-.042.042V2.348a.037.037,0,0,0,.042.042h1.8a.1.1,0,0,1,.071.029.1.1,0,0,1,.029.071V3.3a.1.1,0,0,1-.029.07.093.093,0,0,1-.071.029H1.22a.037.037,0,0,0-.042.042V4.8a.037.037,0,0,0,.042.042H3.96a.1.1,0,0,1,.1.1v.811a.1.1,0,0,1-.1.1H.1a.1.1,0,0,1-.07-.029A.094.094,0,0,1,0,5.749V.1A.1.1,0,0,1,.03.029.1.1,0,0,1,.1,0H3.96a.1.1,0,0,1,.071.029A.1.1,0,0,1,4.061.1V.911A.1.1,0,0,1,4.031.982Z" transform="translate(33.044 0.067)" fill="#d67a4b"/>
        <path id="Caminho_17657" data-name="Caminho 17657" d="M3.388.029A.1.1,0,0,1,3.459,0h.978a.1.1,0,0,1,.071.029A.1.1,0,0,1,4.537.1V5.749a.1.1,0,0,1-.1.1H3.492a.119.119,0,0,1-.117-.067L1.211,2.206c-.011-.016-.023-.024-.034-.021s-.016.015-.016.038l.016,3.526a.093.093,0,0,1-.029.071.1.1,0,0,1-.071.029H.1A.1.1,0,0,1,.03,5.819.094.094,0,0,1,0,5.749V.1A.1.1,0,0,1,.03.029.1.1,0,0,1,.1,0h.944a.12.12,0,0,1,.117.067l2.156,3.56c.011.017.022.024.034.021s.016-.015.016-.038L3.359.1A.1.1,0,0,1,3.388.029Z" transform="translate(37.924 0.067)" fill="#d67a4b"/>
        <path id="Caminho_17658" data-name="Caminho 17658" d="M4.383.029A.1.1,0,0,1,4.412.1V.919a.1.1,0,0,1-.1.1h-1.5a.037.037,0,0,0-.042.042V5.749a.1.1,0,0,1-.1.1H1.7a.094.094,0,0,1-.07-.029.092.092,0,0,1-.03-.071V1.061a.037.037,0,0,0-.042-.042H.1A.094.094,0,0,1,.03.99.094.094,0,0,1,0,.919V.1A.1.1,0,0,1,.03.029.1.1,0,0,1,.1,0h4.21A.1.1,0,0,1,4.383.029Z" transform="translate(43.205 0.067)" fill="#d67a4b"/>
        <path id="Caminho_17659" data-name="Caminho 17659" d="M3.091,5.773,2.047,3.459A.055.055,0,0,0,2,3.426H1.22a.037.037,0,0,0-.042.042V5.749a.1.1,0,0,1-.029.071.1.1,0,0,1-.071.029H.1a.1.1,0,0,1-.071-.029A.1.1,0,0,1,0,5.749V.1A.1.1,0,0,1,.029.029.1.1,0,0,1,.1,0H2.489a1.965,1.965,0,0,1,.94.218,1.526,1.526,0,0,1,.626.618,1.9,1.9,0,0,1,.221.928,1.653,1.653,0,0,1-.283.973,1.521,1.521,0,0,1-.794.572.04.04,0,0,0-.026.059L4.311,5.732a.137.137,0,0,1,.017.05c0,.045-.031.067-.093.067H3.207A.118.118,0,0,1,3.091,5.773ZM1.178,1.053V2.481a.037.037,0,0,0,.042.042H2.314a.8.8,0,0,0,.573-.209.714.714,0,0,0,.221-.543.727.727,0,0,0-.221-.547.791.791,0,0,0-.573-.213H1.22A.037.037,0,0,0,1.178,1.053Z" transform="translate(48.368 0.067)" fill="#d67a4b"/>
        <path id="Caminho_17660" data-name="Caminho 17660" d="M3.892,5.765l-.251-.819c-.011-.022-.025-.034-.042-.034H1.544c-.017,0-.031.011-.042.034l-.243.819a.1.1,0,0,1-.109.083H.09a.093.093,0,0,1-.075-.029.091.091,0,0,1-.008-.088L1.811.083A.106.106,0,0,1,1.92,0H3.231A.105.105,0,0,1,3.34.083l1.8,5.648a.092.092,0,0,1,.008.042c0,.05-.031.075-.092.075H4A.1.1,0,0,1,3.892,5.765ZM1.836,4H3.307c.034,0,.045-.017.034-.05L2.589,1.471c-.006-.023-.014-.032-.026-.029s-.019.012-.024.029L1.8,3.952C1.8,3.986,1.809,4,1.836,4Z" transform="translate(53.341 0.067)" fill="#d67a4b"/>
        <path id="Caminho_17661" data-name="Caminho 17661" d="M.03,5.819A.094.094,0,0,1,0,5.749V.1A.1.1,0,0,1,.03.029.1.1,0,0,1,.1,0h.978a.1.1,0,0,1,.071.029A.1.1,0,0,1,1.178.1V4.8a.037.037,0,0,0,.042.042H3.952a.1.1,0,0,1,.1.1v.811a.1.1,0,0,1-.1.1H.1A.1.1,0,0,1,.03,5.819Z" transform="translate(59.23 0.067)" fill="#d67a4b"/>
        <path id="Caminho_17662" data-name="Caminho 17662" d="M.029,5.819A.1.1,0,0,1,0,5.749V.1A.1.1,0,0,1,.029.029.1.1,0,0,1,.1,0H2.189a2.563,2.563,0,0,1,1.1.221,1.71,1.71,0,0,1,.731.623,1.674,1.674,0,0,1,.259.927V4.077A1.674,1.674,0,0,1,4.019,5a1.709,1.709,0,0,1-.731.622,2.554,2.554,0,0,1-1.1.222H.1A.1.1,0,0,1,.029,5.819ZM1.22,4.837H2.232a.807.807,0,0,0,.622-.258A1.016,1.016,0,0,0,3.1,3.886V1.963a.982.982,0,0,0-.238-.693.825.825,0,0,0-.639-.259h-1a.037.037,0,0,0-.042.042V4.8A.037.037,0,0,0,1.22,4.837Z" transform="translate(65.679 0.067)" fill="#d67a4b"/>
        <path id="Caminho_17663" data-name="Caminho 17663" d="M1.049,5.739a1.909,1.909,0,0,1-.773-.748A2.178,2.178,0,0,1,0,3.885V2.1A2.141,2.141,0,0,1,.276,1,1.891,1.891,0,0,1,1.049.263,2.419,2.419,0,0,1,2.2,0,2.44,2.44,0,0,1,3.354.263,1.9,1.9,0,0,1,4.128,1,2.151,2.151,0,0,1,4.4,2.1V3.885A2.215,2.215,0,0,1,4.128,5a1.885,1.885,0,0,1-.773.747A2.436,2.436,0,0,1,2.2,6.007,2.386,2.386,0,0,1,1.049,5.739ZM2.941,4.7a1.066,1.066,0,0,0,.284-.777V2.089a1.092,1.092,0,0,0-.28-.781.979.979,0,0,0-.748-.3.969.969,0,0,0-.739.3,1.092,1.092,0,0,0-.28.781V3.927a1.076,1.076,0,0,0,.28.777A.975.975,0,0,0,2.2,5,.988.988,0,0,0,2.941,4.7Z" transform="translate(70.718 0)" fill="#d67a4b"/>
        <path id="Caminho_17664" data-name="Caminho 17664" d="M3.467,2.849A1.414,1.414,0,0,1,4.261,4.21,1.435,1.435,0,0,1,3.71,5.435a2.35,2.35,0,0,1-1.446.413H.1A.1.1,0,0,1,.03,5.819.1.1,0,0,1,0,5.749V.1A.1.1,0,0,1,.03.029.1.1,0,0,1,.1,0H2.2q1.98,0,1.98,1.6a1.239,1.239,0,0,1-.71,1.2C3.434,2.816,3.434,2.832,3.467,2.849Zm-2.289-1.8v1.3A.037.037,0,0,0,1.22,2.4H2.2a.916.916,0,0,0,.61-.183.622.622,0,0,0,.217-.5A.645.645,0,0,0,2.808,1.2a.9.9,0,0,0-.61-.188H1.22A.037.037,0,0,0,1.178,1.053Zm1.688,3.58a.692.692,0,0,0,.217-.539.69.69,0,0,0-.217-.539.877.877,0,0,0-.61-.2H1.22a.037.037,0,0,0-.042.041V4.787a.037.037,0,0,0,.042.043H2.264A.865.865,0,0,0,2.866,4.633Z" transform="translate(77.694 0.067)" fill="#d67a4b"/>
        <path id="Caminho_17665" data-name="Caminho 17665" d="M3.091,5.773,2.047,3.459A.054.054,0,0,0,2,3.426H1.22a.037.037,0,0,0-.042.042V5.749a.094.094,0,0,1-.03.071.1.1,0,0,1-.071.029H.1a.1.1,0,0,1-.071-.029A.1.1,0,0,1,0,5.749V.1A.1.1,0,0,1,.029.029.1.1,0,0,1,.1,0H2.49a1.96,1.96,0,0,1,.94.218,1.53,1.53,0,0,1,.627.618,1.893,1.893,0,0,1,.221.928,1.651,1.651,0,0,1-.284.973,1.512,1.512,0,0,1-.794.572.039.039,0,0,0-.024.059L4.311,5.732a.129.129,0,0,1,.016.05c0,.045-.031.067-.092.067H3.208A.118.118,0,0,1,3.091,5.773ZM1.178,1.053V2.481a.037.037,0,0,0,.042.042H2.314a.8.8,0,0,0,.573-.209.715.715,0,0,0,.221-.543.728.728,0,0,0-.221-.547.79.79,0,0,0-.573-.213H1.22A.037.037,0,0,0,1.178,1.053Z" transform="translate(82.874 0.067)" fill="#d67a4b"/>
        <path id="Caminho_17666" data-name="Caminho 17666" d="M3.892,5.765l-.251-.819c-.011-.022-.024-.034-.041-.034H1.544c-.017,0-.031.011-.042.034l-.243.819a.1.1,0,0,1-.109.083H.09a.1.1,0,0,1-.075-.029.091.091,0,0,1-.008-.088L1.812.083A.1.1,0,0,1,1.92,0H3.232A.1.1,0,0,1,3.34.083L5.145,5.732a.092.092,0,0,1,.008.042c0,.05-.031.075-.092.075H4A.1.1,0,0,1,3.892,5.765ZM1.836,4H3.307q.05,0,.033-.05L2.588,1.471c-.005-.023-.014-.032-.025-.029a.038.038,0,0,0-.026.029L1.8,3.952Q1.794,4,1.836,4Z" transform="translate(87.847 0.067)" fill="#d67a4b"/>
        <path id="Caminho_17667" data-name="Caminho 17667" d="M1.044,5.769a1.721,1.721,0,0,1-.773-.61A1.593,1.593,0,0,1,0,4.235V4.052a.1.1,0,0,1,.029-.071A.1.1,0,0,1,.1,3.952h.952a.1.1,0,0,1,.1.1v.124a.681.681,0,0,0,.309.564,1.368,1.368,0,0,0,.836.23.985.985,0,0,0,.659-.188.588.588,0,0,0,.217-.464.466.466,0,0,0-.134-.338,1.185,1.185,0,0,0-.363-.242c-.154-.07-.4-.166-.731-.288A7.2,7.2,0,0,1,1,3.057,1.889,1.889,0,0,1,.347,2.51a1.374,1.374,0,0,1-.263-.856A1.511,1.511,0,0,1,.342.776,1.649,1.649,0,0,1,1.061.2,2.626,2.626,0,0,1,2.123,0,2.717,2.717,0,0,1,3.254.225a1.851,1.851,0,0,1,.777.631,1.61,1.61,0,0,1,.28.94v.125a.1.1,0,0,1-.1.1H3.25a.1.1,0,0,1-.071-.029.1.1,0,0,1-.029-.071V1.855a.76.76,0,0,0-.288-.6,1.174,1.174,0,0,0-.789-.247,1,1,0,0,0-.614.168.543.543,0,0,0-.222.459.5.5,0,0,0,.13.351,1.134,1.134,0,0,0,.384.255q.254.112.789.3a9.766,9.766,0,0,1,.932.384,1.856,1.856,0,0,1,.61.5,1.306,1.306,0,0,1,.271.856,1.5,1.5,0,0,1-.577,1.241,2.454,2.454,0,0,1-1.562.456A2.965,2.965,0,0,1,1.044,5.769Z" transform="translate(93.16 0)" fill="#d67a4b"/>
        <path id="Caminho_17668" data-name="Caminho 17668" d="M.03,5.819A.1.1,0,0,1,0,5.749V.1A.1.1,0,0,1,.03.029.094.094,0,0,1,.1,0h.978a.094.094,0,0,1,.071.029A.1.1,0,0,1,1.178.1V5.749a.1.1,0,0,1-.1.1H.1A.094.094,0,0,1,.03,5.819Z" transform="translate(98.34 0.067)" fill="#d67a4b"/>
        <path id="Caminho_17669" data-name="Caminho 17669" d="M.029,5.819A.094.094,0,0,1,0,5.749V.1A.1.1,0,0,1,.029.029.1.1,0,0,1,.1,0h.978a.094.094,0,0,1,.071.029A.1.1,0,0,1,1.178.1V4.8a.037.037,0,0,0,.042.042H3.951a.1.1,0,0,1,.071.03.1.1,0,0,1,.029.071v.811a.094.094,0,0,1-.029.071.1.1,0,0,1-.071.029H.1A.1.1,0,0,1,.029,5.819Z" transform="translate(100.537 0.067)" fill="#d67a4b"/>
      </g>
      <g id="Grupo_9007" data-name="Grupo 9007" transform="translate(118.95 14.661)">
        <g id="Grupo_8994" data-name="Grupo 8994" transform="translate(0 0)">
          <path id="Caminho_17670" data-name="Caminho 17670" d="M28.632,53.477c-1.113.686-1.035,1.629-1.2,2.434a2.423,2.423,0,0,1-2.223,2.148,2.5,2.5,0,0,1-2.7-1.816,7.276,7.276,0,0,1-.295-.878c-.69-2.755-.688-2.769-3.682-2.8-1.039-.01-1.881-.03-2.207-1.376-1.119-4.617-5.364-6.032-9.215-3.157a10.063,10.063,0,0,0-3.385,5C1.7,58.954,1.761,65.06,2.362,71.192c.1.974.591,1.7,1.635,1.655a1.868,1.868,0,0,0,1.858-2.112A80.546,80.546,0,0,1,6.55,60.38a24.655,24.655,0,0,1,1.5-6.291,5.3,5.3,0,0,1,4.45-3.461c.68-.08,1.462-.092,1.54.868.067.816-.56,1.007-1.221,1.072-2,.2-2.821,1.619-3.313,3.291a51.348,51.348,0,0,0-1.593,13.4,13.193,13.193,0,0,1-.236,2.757,3.865,3.865,0,0,1-3.859,2.866A3.447,3.447,0,0,1,.481,71.922C-.294,64.8-.453,57.708,2.5,50.954c1.537-3.513,4.075-5.884,8.07-6.248,3.644-.332,6.164,1.314,7.453,4.755.366.977,3.591,1.724,4.279.953.536-.6-.04-1.007-.394-1.408A21.246,21.246,0,0,1,17.06,38.343c-.469-2.635-.477-5.23,2-7.056.611-.451.343-.936.252-1.482-.986-5.962.066-11.431,4.007-16.169a6.21,6.21,0,0,0,.977-1.771,14.062,14.062,0,0,1,2.482-4.32c1.112-1.249,2.592-2.2,1.418-4.292-.4-.719.28-1.51,1.242-1.223,1.791.533,3.209-.181,4.728-.978,2.656-1.393,5.339-1.608,7.726.623.617.577,1.028.374,1.6.01a6.146,6.146,0,0,1,6.83.043,5.876,5.876,0,0,0,3.15.909c1.671-.026,2.11.64,1.186,1.988a1.619,1.619,0,0,0,.235,2.469,9.6,9.6,0,0,1,2.4,7.194,3.755,3.755,0,0,0,1.237,3.322c.532.435.841.968.251,1.568s-1.131.2-1.619-.206a5.015,5.015,0,0,1-1.905-4.23c.127-3.273-.513-6.169-3.788-7.812-.616-.308-1-.938-.374-1.495.883-.782.426-1-.335-1.294a16.142,16.142,0,0,1-1.472-.778,4.253,4.253,0,0,0-5.773,1.082c-.943,1.1-1.51.937-2.2-.264-1.168-2.045-2.915-2.617-5.221-1.79-.808.291-1.545.771-2.338,1.112-.734.315-1.5.559-2.393.887.072.6,1.014.928.7,1.668-.29.68-1,.653-1.532.918-2.01,1-3.088,2.783-3.984,4.714-.439.947.224,1.047.9,1.052,1.308.011,1.608.626,1.2,1.8a11.2,11.2,0,0,0-.278,4.044,3.953,3.953,0,0,1-1.385,3.3,1.085,1.085,0,0,1-1.512.131c-.537-.463-.385-.972.059-1.444,1.54-1.634.521-3.674.815-5.507.082-.507-.626-.7-1.144-.461a2.021,2.021,0,0,0-.676.62,16.927,16.927,0,0,0-3.006,14.891,3.021,3.021,0,0,0,.962,1.725c.284.058.321-.12.35-.3.126-.778-.33-2.006,1.024-1.954,1.144.044.884,1.159.9,1.913.06,3.8,1.259,6.906,5,8.552.529.233.992.657.708,1.309-.317.727-.965.7-1.582.429a8.746,8.746,0,0,1-4.9-4.571c-.675-1.636-2.128-2.538-3.068-3.9-.559-.812-1.1-.194-1.446.318a4.683,4.683,0,0,0-.6,3.393,19.146,19.146,0,0,0,5.006,11.128,2.167,2.167,0,0,1,.571,2.631,6.574,6.574,0,0,0-.2,4.368c.12.4.2.912.786.848.479-.052.483-.5.538-.854a5.521,5.521,0,0,1,1.769-3.574c.724-.615.156-1.1-.138-1.6a32.6,32.6,0,0,1-3.707-8.462c-.186-.729-.514-1.557.492-1.863,1.039-.315,1.227.61,1.407,1.3a29.414,29.414,0,0,0,4.083,8.888,6.941,6.941,0,0,1,1.21,4.38,7.217,7.217,0,0,0,.838,4.122c.187.329.433.638.861.592.479-.052.522-.466.559-.832.363-3.594,1.437-7.176-.078-10.784a10.056,10.056,0,0,1-.66-3.253c-.1-1.7-.263-3.292-1.77-4.444-.544-.416-.947-1.153-.223-1.739.7-.566,1.241-.014,1.72.516a15.712,15.712,0,0,0,3.236,2.758c.727.462,1.382.867,1.87-.335.446-1.1,1.236-1.047,2.082-.388a6.46,6.46,0,0,0,.612.418c2.71,1.651,3.177,1.6,5.425-.627.929-.919,1.842-1.906,2.376.311.221.914.743.389,1.089.119a10.309,10.309,0,0,0,3.07-3.894c.315-.688.745-1.239,1.552-.8.722.394.441,1.033.186,1.624-1.15,2.668-2.936,5.065-5.684,5.731A24.43,24.43,0,0,1,42,43.934a4.254,4.254,0,0,1-1.9-.683c-.937-.528-1.71-.952-2.309.444-.257.6-.942.487-1.488.268-.623-.249-1.231-.532-2.045-.887-.159,2.583.837,4.781,1.458,7.043.167.609.793.485,1.273.491,1.175.014,2.35-.005,3.524.014.733.012,1.657-.083,1.611,1.006-.036.888-.832.944-1.54.943-1.113,0-2.23.054-3.337-.029-1.195-.089-1.812.215-1.849,1.572-.039,1.476-.354,2.942-.51,4.416a2.562,2.562,0,0,1-2.144,2.46,2.647,2.647,0,0,1-2.792-1.416C28.717,57.81,28.761,55.737,28.632,53.477Z" fill="#d67a4b"/>
        </g>
        <g id="Grupo_8995" data-name="Grupo 8995" transform="translate(9.716 62.277)">
          <path id="Caminho_17671" data-name="Caminho 17671" d="M17.616,2c7.7-.5,15.444-.2,23.088-1.641A25.816,25.816,0,0,1,49.2.4,52.731,52.731,0,0,0,63.424.175c.306-.038.611-.1.917-.128.686-.07,1.463-.191,1.635.733S65.4,1.9,64.71,2.013c-.791.134-1.591.218-2.388.309a53.891,53.891,0,0,1-13.491.071,29.513,29.513,0,0,0-9.415.141,47.279,47.279,0,0,1-9.581.873c-1.082-.024-1.652.281-1.882,1.475-.6,3.11-1.879,5.9-5.277,6.735a9.873,9.873,0,0,1-9.553-2.7,9.373,9.373,0,0,1-2.4-3.489,2.176,2.176,0,0,0-2.532-1.52c-2.866.1-2.868.039-1.888,2.71C8.787,13.389,14.468,17,21.621,16.288a10.027,10.027,0,0,0,8.451-5.815,18.108,18.108,0,0,0,1.46-4.186c.15-.673.287-1.475,1.221-1.273,1.027.222.809,1.041.651,1.8-2.047,9.753-10.842,14.272-19.966,10.284C8.418,14.9,5.528,10.921,3.987,5.854,3.6,4.567,3.2,3.731,1.662,3.962.915,4.074.006,3.943,0,2.964c-.007-1.046.951-.956,1.678-.958Q9.646,1.989,17.616,2Zm2.005,7.941c3.693.075,6.472-2.6,6.5-5.532.007-.73-.375-.808-.916-.8q-5.916.113-11.833.226c-1.042.018-1.122.457-.647,1.268C14.427,8.011,16.826,9.811,19.621,9.941Z" transform="translate(0 0)" fill="#d67a4b"/>
        </g>
        <g id="Grupo_8996" data-name="Grupo 8996" transform="translate(43.424 22.132)">
          <path id="Caminho_17672" data-name="Caminho 17672" d="M7.967,31.325c-.343,1.6-.26,3.223-.975,4.679-.659,1.342-1.368,2.6-3.141,2.294C2.168,38.006,1.826,36.693,1.8,35.23a7.142,7.142,0,0,0-.766-3.41C-.33,29.437-.064,26.951.266,24.427c.083-.639.2-1.335.989-1.329.949.008,1.1.832.908,1.483-1.247,4.214,1.95,7.663,1.714,12A3.928,3.928,0,0,0,5.741,32.5c-1-4.338,1.345-7.922,2.293-11.816.154-.635.424-1.271,1.212-1.1.931.2.791.973.637,1.648a28.584,28.584,0,0,1-1.959,5.781c-.454.974-.523,1.667.671,2.213A4.97,4.97,0,0,1,11.2,32.653c.133.471.28,1.037.938.921.6-.1.667-.644.726-1.151a6.207,6.207,0,0,0-1-4.6A2.1,2.1,0,0,1,11.918,25,29.194,29.194,0,0,0,15.9,15.286a4.127,4.127,0,0,0-.451-3.388c-.263-.4-.552-.925-1.123-.8-.53.115-.406.7-.487,1.1a20.99,20.99,0,0,1-.966,3.951c-.281.668-.623,1.311-1.477,1-.792-.291-.6-1-.4-1.582a14.825,14.825,0,0,0,.575-7.493c-.175-1.082.273-1.83,1.443-1.212.788.415.987.05,1.228-.484a7.569,7.569,0,0,0,.635-4.694C14.745.986,14.6.22,15.53.033c1.05-.213,1.2.647,1.313,1.386A9.5,9.5,0,0,1,15.7,7.858c-.388.66-.571,1.086.2,1.673,1.992,1.521,2.412,3.659,1.936,5.99a31.43,31.43,0,0,1-3.488,9.334c-1.384,2.427-.655,3.619,2.193,3.628a51.151,51.151,0,0,0,9.769-.861c1.516-.29,3.05-.489,4.578-.713.758-.112,1.614-.2,1.727.833.1.923-.728,1.02-1.4,1.133q-2.923.487-5.853.937a46.45,46.45,0,0,1-8.865.6c-1.155-.043-1.755.282-1.649,1.533a4.969,4.969,0,0,1-.139,1.287,2.607,2.607,0,0,1-2.449,2.387,2.641,2.641,0,0,1-2.843-1.907C9.1,32.881,9.049,31.88,7.967,31.325Z" transform="translate(0 0)" fill="#d67a4b"/>
        </g>
        <g id="Grupo_8997" data-name="Grupo 8997" transform="translate(35.501 6.349)">
          <path id="Caminho_17673" data-name="Caminho 17673" d="M6.991,18.52c-4.425.059-6.78-3.089-5.407-7.332a1.385,1.385,0,0,0-.353-1.452A5.961,5.961,0,0,1,5.079.2c5.069-1.042,9.382,2.121,8.61,6.677-.415,2.453-1.288,4.714-1.094,7.369C12.771,16.666,9.884,18.482,6.991,18.52Zm3.074-6.758c-1.012-1.309-.8-1.961.273-2.682a3.812,3.812,0,0,0-.107-6.159,6.308,6.308,0,0,0-6.63.015c-1.947,1.5-2.341,4.438-.558,5.779,1.251.94,1.9,1.706.724,3.235C5.767,10.944,7.641,11.05,10.065,11.762ZM6.955,16.54c1.406-.12,3.227-.394,3.275-1.779.047-1.363-1.853-1.358-3.071-1.607a.63.63,0,0,0-.183-.007C5.61,13.283,3.7,13.6,3.7,14.857,3.7,16.239,5.617,16.4,6.955,16.54Z" transform="translate(0 0)" fill="#d67a4b"/>
        </g>
        <g id="Grupo_8998" data-name="Grupo 8998" transform="translate(33.464 26.066)">
          <path id="Caminho_17674" data-name="Caminho 17674" d="M3.737,5a10.92,10.92,0,0,1,.625-1.269c.594-.88,1.241-.962,1.857-.012.2.308.333.663.536.969,1.2,1.8,1.611,1.8,3.273.388.831-.707,1.595-2.833,2.972-.411.232.408.639-.108.864-.353a16.023,16.023,0,0,0,2.5-3.427c.265-.512.6-.972,1.267-.873.691.1.812.694.921,1.235a12.7,12.7,0,0,1,.328,2.189c.017.817-.5,1.439-1.28.972-.908-.543-1.148.05-1.608.525-.856.883-1.735,1.749-2.655,2.564-.636.564-1.372.945-2.064.047-.383-.5-.709-.275-1.091-.017-.457.309-.96.852-1.411.82-1.8-.124-3.327-1.156-5.282-1.3C1.454,6.905.4,4.462.1,2.25,0,1.534-.231.579.741.391c1.135-.219,1.146.8,1.29,1.591A4.649,4.649,0,0,0,3.737,5Z" transform="translate(0 0)" fill="#d67a4b"/>
        </g>
        <g id="Grupo_8999" data-name="Grupo 8999" transform="translate(26.891 20.05)">
          <path id="Caminho_17675" data-name="Caminho 17675" d="M2.948,0c.635.1,1.037.533.835,1.146A10.4,10.4,0,0,1,1.966,5.141c-.427.47-.971.878-1.6.335-.6-.522-.4-1.092.086-1.6a7.519,7.519,0,0,0,1.23-2.655C1.919.651,2.165.064,2.948,0Z" transform="translate(0 0)" fill="#d67a4b"/>
        </g>
        <g id="Grupo_9000" data-name="Grupo 9000" transform="translate(54.235 18.365)">
          <path id="Caminho_17676" data-name="Caminho 17676" d="M3.01,4.164C2.976,4.827,2.9,5.562,2,5.6,1.218,5.626,1,5,.983,4.34a6.8,6.8,0,0,0-.812-2.8C-.091,1.007-.106.431.511.117S1.565.163,1.886.668A7.52,7.52,0,0,1,3.01,4.164Z" transform="translate(0 0)" fill="#d67a4b"/>
        </g>
        <g id="Grupo_9001" data-name="Grupo 9001" transform="translate(52.385 21.507)">
          <path id="Caminho_17677" data-name="Caminho 17677" d="M.049,2.557C.372,1.674-.674.071.918,0,2.581-.07,2.026,1.627,2.034,2.582S2.57,5.227.9,5.125C-.689,5.029.384,3.435.049,2.557Z" transform="translate(0 0)" fill="#d67a4b"/>
        </g>
        <g id="Grupo_9002" data-name="Grupo 9002" transform="translate(30.297 23.396)">
          <path id="Caminho_17678" data-name="Caminho 17678" d="M.014,3.042a5.228,5.228,0,0,1,.006-.86C.235,1.292-.007-.159,1.38.014c1.42.178.569,1.447.568,2.272a3.467,3.467,0,0,1-.035.552c-.136.813.473,2.184-.971,2.129C-.382,4.915.153,3.563.014,3.042Z" transform="translate(0 0)" fill="#d67a4b"/>
        </g>
        <g id="Grupo_9003" data-name="Grupo 9003" transform="translate(39.671 11.422)">
          <path id="Caminho_17679" data-name="Caminho 17679" d="M.874,0c.662.113,1.236.336,1.3,1.082a.817.817,0,0,1-.882.946A1.143,1.143,0,0,1,0,.986C-.044.4.359.123.874,0Z" transform="translate(0 0)" fill="#d67a4b"/>
        </g>
        <g id="Grupo_9004" data-name="Grupo 9004" transform="translate(43.047 11.456)">
          <path id="Caminho_17680" data-name="Caminho 17680" d="M1.132,2.007C.5,2.033.065,1.778.007,1.228-.071.482.485.145,1.12.022A.812.812,0,0,1,2.15.791C2.252,1.578,1.7,1.837,1.132,2.007Z" transform="translate(0 0)" fill="#d67a4b"/>
        </g>
        <g id="Grupo_9005" data-name="Grupo 9005" transform="translate(42.783 14.276)">
          <path id="Caminho_17681" data-name="Caminho 17681" d="M.916,1.791C.349,1.73-.016,1.439,0,.849A.829.829,0,0,1,.987,0,.8.8,0,0,1,1.81.829.88.88,0,0,1,.916,1.791Z" transform="translate(0 0)" fill="#d67a4b"/>
        </g>
        <g id="Grupo_9006" data-name="Grupo 9006" transform="translate(40.279 14.279)">
          <path id="Caminho_17682" data-name="Caminho 17682" d="M1.795.932a.866.866,0,0,1-1,.823A.82.82,0,0,1,.009.737.79.79,0,0,1,.892,0,.856.856,0,0,1,1.795.932Z" transform="translate(0 0)" fill="#d67a4b"/>
        </g>
      </g>
    </g>
    <g id="Grupo_8742" data-name="Grupo 8742" transform="translate(1724.809 590.795) rotate(30)">
      <g id="Grupo_8739" data-name="Grupo 8739" transform="translate(6.183 0)">
        <path id="Caminho_17416" data-name="Caminho 17416" d="M331.849,0,183.892,8.63a43.591,43.591,0,0,0-15.14,3.68L8.043,84.2A13.457,13.457,0,0,0,.279,99.235L26.834,224.822a13.584,13.584,0,0,0,19.409,9.172L204.868,154.8l146.477-4.9a12.7,12.7,0,0,0,12.206-14.636l-19.6-120.253C342.934,8.8,338.218-.184,331.849,0Z" fill="#535c89"/>
        <path id="Caminho_17417" data-name="Caminho 17417" d="M331.849,0,183.892,8.63a43.591,43.591,0,0,0-15.14,3.68L8.043,84.2A13.457,13.457,0,0,0,.279,99.235L26.834,224.822a13.584,13.584,0,0,0,19.409,9.172L204.868,154.8l146.477-4.9a12.7,12.7,0,0,0,12.206-14.636l-19.6-120.253C342.934,8.8,338.218-.184,331.849,0Z" opacity="0.1" style="isolation: isolate"/>
      </g>
      <path id="Caminho_17418" data-name="Caminho 17418" d="M327.157,0,181.227,8.226a41.771,41.771,0,0,0-14.967,3.666L7.908,83.377a13.442,13.442,0,0,0-7.62,15.01L26.843,224.03a13.444,13.444,0,0,0,19.179,9.217L202.3,154.5l144.463-4.572a12.581,12.581,0,0,0,12.019-14.593L339.133,15.1C338.112,8.83,333.454-.17,327.157,0Z" transform="translate(10.724 5.104)" fill="#535c89"/>
      <line id="Linha_214" data-name="Linha 214" y1="7.706" x2="125.212" transform="translate(192.82 27.622)" fill="none" stroke="#59316d" stroke-linecap="round" stroke-linejoin="round" stroke-width="4"/>
      <line id="Linha_215" data-name="Linha 215" x2="22.874" y2="105.07" transform="translate(177.825 38.563)" fill="none" stroke="#000" stroke-linecap="round" stroke-linejoin="round" stroke-width="2" opacity="0.2" style="isolation: isolate"/>
      <path id="Caminho_17419" data-name="Caminho 17419" d="M0,0,16.132,80.815S28.5,48.753,0,0Z" transform="translate(29.364 133.425)" fill="#fafafa" opacity="0.2" style="isolation: isolate"/>
      <path id="Caminho_17420" data-name="Caminho 17420" d="M0,59.81C.561,61.248,143.285,0,143.285,0a75.107,75.107,0,0,1-39.336,68.149C60.989,92.23,0,59.81,0,59.81Z" transform="translate(29.364 73.011)" fill="#fafafa" opacity="0.2" style="isolation: isolate"/>
      <ellipse id="Elipse_632" data-name="Elipse 632" cx="6.182" cy="6.182" rx="6.182" ry="6.182" transform="translate(116.973 122.843)" fill="#535c89"/>
      <path id="Caminho_17421" data-name="Caminho 17421" d="M0,0S17.7,26.641,13.414,72.016" transform="translate(168.882 73.011)" fill="none" stroke="#59316d" stroke-linecap="round" stroke-linejoin="round" stroke-width="4"/>
      <g id="Grupo_8740" data-name="Grupo 8740" transform="translate(18.481 35.328)" opacity="0.2">
        <line id="Linha_216" data-name="Linha 216" y1="1.452" x2="3.292" transform="translate(0 64.899)" fill="none" stroke="#fafafa" stroke-linecap="round" stroke-linejoin="round" stroke-width="1"/>
        <line id="Linha_217" data-name="Linha 217" y1="58.918" x2="133.278" transform="translate(10.122 2.962)" fill="none" stroke="#fafafa" stroke-linecap="round" stroke-linejoin="round" stroke-width="1" stroke-dasharray="5.198 5.198"/>
        <line id="Linha_218" data-name="Linha 218" y1="1.452" x2="3.278" transform="translate(146.821 0)" fill="none" stroke="#fafafa" stroke-linecap="round" stroke-linejoin="round" stroke-width="1"/>
      </g>
      <line id="Linha_219" data-name="Linha 219" y1="7.721" x2="125.212" transform="translate(197.018 51.229)" fill="none" stroke="#59316d" stroke-linecap="round" stroke-linejoin="round" stroke-width="4"/>
      <line id="Linha_220" data-name="Linha 220" y1="7.721" x2="125.212" transform="translate(202.654 80.689)" fill="none" stroke="#59316d" stroke-linecap="round" stroke-linejoin="round" stroke-width="4"/>
      <path id="Caminho_17422" data-name="Caminho 17422" d="M331.849,0,183.892,8.63a43.589,43.589,0,0,0-15.139,3.68L8.043,84.2A13.458,13.458,0,0,0,.279,99.235L26.834,224.822a13.584,13.584,0,0,0,19.409,9.172L204.869,154.8l146.476-4.9a12.7,12.7,0,0,0,12.206-14.636l-19.6-120.253C342.934,8.8,338.218-.184,331.849,0Z" transform="translate(0 0)" fill="none" stroke="#59316d" stroke-linecap="round" stroke-linejoin="round" stroke-width="4"/>
      <path id="Caminho_17423" data-name="Caminho 17423" d="M331.849,0,183.892,8.63a43.589,43.589,0,0,0-15.139,3.68L8.043,84.2A13.458,13.458,0,0,0,.279,99.235L26.834,224.822a13.584,13.584,0,0,0,19.409,9.172L204.869,154.8l146.476-4.9a12.7,12.7,0,0,0,12.206-14.636l-19.6-120.253C342.934,8.8,338.218-.184,331.849,0Z" transform="translate(0 0)" fill="none" stroke="#59316d" stroke-linecap="round" stroke-linejoin="round" stroke-width="4" opacity="0.5" style="isolation: isolate"/>
      <path id="Caminho_17424" data-name="Caminho 17424" d="M327.157,0,181.227,8.226a41.771,41.771,0,0,0-14.967,3.666L7.908,83.377a13.442,13.442,0,0,0-7.62,15.01L26.843,224.03a13.444,13.444,0,0,0,19.179,9.217L202.3,154.5l144.463-4.572a12.58,12.58,0,0,0,12.019-14.593L339.133,15.1C338.112,8.83,333.454-.17,327.157,0Z" transform="translate(5.656 5.104)" fill="none" stroke="#59316d" stroke-linecap="round" stroke-linejoin="round" stroke-width="4"/>
      <line id="Linha_221" data-name="Linha 221" x2="22.874" y2="105.07" transform="translate(177.825 38.563)" fill="none" stroke="#59316d" stroke-linecap="round" stroke-linejoin="round" stroke-width="4"/>
      <path id="Caminho_17425" data-name="Caminho 17425" d="M0,0,16.132,80.815S28.5,48.753,0,0Z" transform="translate(25.31 133.425)" fill="none" stroke="#59316d" stroke-linecap="round" stroke-linejoin="round" stroke-width="4"/>
      <path id="Caminho_17426" data-name="Caminho 17426" d="M0,59.81C.561,61.248,143.285,0,143.285,0a75.107,75.107,0,0,1-39.336,68.149C60.989,92.23,0,59.81,0,59.81Z" transform="translate(25.31 73.011)" fill="none" stroke="#59316d" stroke-linecap="round" stroke-linejoin="round" stroke-width="4"/>
      <ellipse id="Elipse_633" data-name="Elipse 633" cx="6.182" cy="6.182" rx="6.182" ry="6.182" transform="translate(113.932 122.843)" fill="none" stroke="#59316d" stroke-linecap="round" stroke-linejoin="round" stroke-width="4"/>
      <g id="Grupo_8741" data-name="Grupo 8741" transform="translate(18.481 35.328)">
        <line id="Linha_222" data-name="Linha 222" y1="1.452" x2="3.292" transform="translate(0 64.899)" fill="none" stroke="#59316d" stroke-linecap="round" stroke-linejoin="round" stroke-width="4"/>
        <line id="Linha_223" data-name="Linha 223" y1="58.918" x2="133.278" transform="translate(10.122 2.962)" fill="none" stroke="#59316d" stroke-linecap="round" stroke-linejoin="round" stroke-width="4"/>
        <line id="Linha_224" data-name="Linha 224" y1="1.452" x2="3.278" transform="translate(146.821 0)" fill="none" stroke="#59316d" stroke-linecap="round" stroke-linejoin="round" stroke-width="4"/>
      </g>
    </g>
  </g>
</svg>
