<?xml version="1.0" encoding="utf-8"?>
<!-- Generator: Adobe Illustrator 16.0.0, SVG Export Plug-In . SVG Version: 6.00 Build 0)  -->
<!DOCTYPE svg PUBLIC "-//W3C//DTD SVG 1.1//EN" "http://www.w3.org/Graphics/SVG/1.1/DTD/svg11.dtd">
<svg version="1.1" id="Layer_1" xmlns="http://www.w3.org/2000/svg" xmlns:xlink="http://www.w3.org/1999/xlink" x="0px" y="0px"
	 width="219.75px" height="247.75px" viewBox="0 0 219.75 247.75" enable-background="new 0 0 219.75 247.75" xml:space="preserve">
<g>
	<path fill="#5C2666" stroke="#592561" stroke-miterlimit="10" d="M64.909,238.417c1.546,4.221,4.916,9.993,9.705,8.241
		L216.2,194.752c4.791-1.753,2.496-7.547,0.952-11.766L152.976,7.136c-1.545-4.221-5.587-5.083-10.376-3.331L3.013,54.711
		c-4.791,1.752-0.991,9.448,0.554,13.668L64.909,238.417z"/>
	
		<rect x="38.524" y="28.308" transform="matrix(-0.9391 0.3436 -0.3436 -0.9391 258.6417 198.0306)" fill="#E1E0DF" width="146.501" height="187.248"/>
	
		<rect x="36.669" y="22.784" transform="matrix(-0.9391 0.3436 -0.3436 -0.9391 259.3761 196.2355)" display="none" fill="#FBFAFB" stroke="#58167D" stroke-miterlimit="10" width="151.263" height="196.633"/>
	<g>
		
			<ellipse transform="matrix(-0.9391 0.3436 -0.3436 -0.9391 276.4099 -7.4521)" fill="#5C2666" stroke="#592561" stroke-miterlimit="10" cx="138.865" cy="20.765" rx="4.163" ry="3.648"/>
		
			<ellipse transform="matrix(-0.9391 0.3436 -0.3436 -0.9391 226.2979 21.6519)" fill="#5C2666" stroke="#592561" stroke-miterlimit="10" cx="111.23" cy="30.877" rx="4.163" ry="3.648"/>
		
			<ellipse transform="matrix(-0.9391 0.3436 -0.3436 -0.9391 175.7469 51.0142)" fill="#5C2666" stroke="#592561" stroke-miterlimit="10" cx="83.354" cy="41.078" rx="4.162" ry="3.648"/>
		
			<ellipse transform="matrix(-0.9391 0.3437 -0.3437 -0.9391 127.2323 77.8275)" fill="#5C2666" stroke="#592561" stroke-miterlimit="10" cx="56.719" cy="50.189" rx="4.162" ry="3.65"/>
		
			<ellipse transform="matrix(-0.9391 0.3435 -0.3435 -0.9391 76.4563 107.9161)" fill="#5C2666" stroke="#592561" stroke-miterlimit="10" cx="28.669" cy="60.731" rx="4.162" ry="3.649"/>
	</g>
	<g>
		<g>
			<path fill="#5C2666" d="M138.44,18.503c0,0,0.239-0.511,0.586-1.466c0.346-0.942,0.779-2.323,1.021-3.963
				c0.103-0.819,0.144-1.703,0.063-2.592c-0.07-0.437-0.118-0.89-0.271-1.312c-0.058-0.217-0.124-0.433-0.23-0.631l-0.135-0.309
				l-0.065-0.156l-0.004-0.01c-0.041-0.079,0.052,0.097,0.04,0.075l-0.014-0.022l-0.027-0.044l-0.054-0.089
				c-0.146-0.237-0.292-0.476-0.44-0.716l-0.222-0.361l-0.231-0.259c-0.298-0.348-0.583-0.707-0.994-1.044
				c-0.715-0.731-1.625-1.27-2.54-1.738c-0.473-0.197-0.956-0.382-1.437-0.541c-0.496-0.083-0.98-0.286-1.476-0.274l-0.736-0.055
				c-0.244-0.007-0.48,0.046-0.72,0.054c-0.236,0.03-0.484,0.004-0.709,0.074c-0.228,0.06-0.454,0.12-0.679,0.179
				c-0.894,0.257-1.697,0.707-2.406,1.236c-0.392,0.215-0.647,0.596-0.964,0.878c-0.154,0.15-0.307,0.297-0.456,0.441
				c-0.125,0.17-0.247,0.338-0.367,0.502c-0.244,0.331-0.477,0.648-0.699,0.95c-0.184,0.335-0.359,0.653-0.523,0.952
				c-0.167,0.302-0.325,0.584-0.47,0.845c-0.115,0.279-0.221,0.536-0.316,0.767c-0.386,0.93-0.63,1.468-0.63,1.468l-0.974-0.229
				c0,0,0.092-0.598,0.297-1.658c0.053-0.265,0.111-0.56,0.175-0.879c0.108-0.311,0.225-0.646,0.35-1.005
				c0.129-0.362,0.266-0.747,0.41-1.152c0.21-0.384,0.432-0.788,0.663-1.208c0.118-0.211,0.239-0.427,0.362-0.647
				c0.158-0.201,0.319-0.406,0.483-0.614c0.357-0.396,0.646-0.877,1.118-1.224c0.842-0.786,1.898-1.485,3.122-1.904
				c0.309-0.098,0.62-0.197,0.933-0.297c0.313-0.105,0.646-0.109,0.974-0.167c0.33-0.039,0.664-0.097,0.997-0.097l1.004,0.049
				c0.681-0.006,1.321,0.215,1.987,0.333c0.643,0.187,1.277,0.425,1.884,0.705c1.184,0.619,2.321,1.342,3.235,2.291
				c0.48,0.427,0.901,0.987,1.304,1.544l0.3,0.412l0.204,0.374c0.135,0.248,0.269,0.494,0.402,0.738
				c0.638,1.3,0.806,2.485,0.852,3.653c0.021,1.151-0.185,2.19-0.409,3.117c-0.504,1.841-1.22,3.221-1.771,4.144
				c-0.551,0.916-0.948,1.41-0.948,1.409L138.44,18.503z"/>
		</g>
		<g>
			<path fill="#5C2666" d="M110.608,28.688c0,0,0.239-0.511,0.586-1.466c0.346-0.942,0.779-2.323,1.021-3.964
				c0.103-0.819,0.144-1.703,0.063-2.592c-0.069-0.437-0.118-0.89-0.27-1.312c-0.059-0.217-0.124-0.433-0.231-0.631l-0.134-0.309
				l-0.065-0.156l-0.004-0.01c-0.042-0.08,0.053,0.097,0.04,0.075l-0.014-0.022l-0.027-0.044l-0.055-0.089
				c-0.146-0.237-0.292-0.476-0.44-0.716l-0.222-0.361l-0.231-0.259c-0.298-0.348-0.583-0.707-0.994-1.044
				c-0.715-0.731-1.625-1.27-2.54-1.738c-0.473-0.197-0.956-0.382-1.437-0.541c-0.495-0.083-0.98-0.286-1.476-0.274l-0.736-0.055
				c-0.244-0.008-0.48,0.046-0.72,0.054c-0.236,0.03-0.485,0.004-0.71,0.074c-0.228,0.06-0.455,0.12-0.679,0.179
				c-0.894,0.257-1.697,0.707-2.406,1.235c-0.392,0.215-0.648,0.596-0.965,0.879c-0.154,0.149-0.307,0.296-0.456,0.441
				c-0.125,0.17-0.247,0.338-0.367,0.502c-0.244,0.331-0.477,0.648-0.699,0.95c-0.184,0.335-0.358,0.653-0.522,0.952
				c-0.168,0.302-0.325,0.584-0.47,0.845c-0.115,0.279-0.221,0.536-0.316,0.767c-0.386,0.93-0.63,1.468-0.63,1.468l-0.974-0.229
				c0,0,0.093-0.598,0.297-1.658c0.053-0.266,0.111-0.56,0.174-0.879c0.108-0.311,0.226-0.646,0.351-1.005
				c0.129-0.362,0.266-0.747,0.41-1.153c0.21-0.384,0.432-0.787,0.663-1.208c0.118-0.212,0.239-0.428,0.362-0.647
				c0.158-0.201,0.32-0.406,0.483-0.614c0.357-0.396,0.646-0.877,1.118-1.224c0.842-0.786,1.899-1.485,3.123-1.904
				c0.309-0.098,0.62-0.197,0.933-0.297c0.313-0.105,0.646-0.11,0.974-0.167c0.329-0.039,0.664-0.097,0.997-0.097l1.004,0.049
				c0.682-0.006,1.322,0.215,1.987,0.333c0.642,0.187,1.277,0.425,1.884,0.705c1.183,0.619,2.321,1.342,3.235,2.291
				c0.479,0.427,0.901,0.987,1.304,1.544l0.3,0.412l0.204,0.374c0.135,0.248,0.269,0.494,0.402,0.738
				c0.638,1.301,0.805,2.486,0.852,3.654c0.021,1.151-0.185,2.19-0.41,3.117c-0.504,1.841-1.22,3.221-1.771,4.144
				c-0.551,0.916-0.948,1.41-0.948,1.409L110.608,28.688z"/>
		</g>
		<g>
			<path fill="#5C2666" d="M82.775,38.872c0,0,0.239-0.511,0.587-1.466c0.346-0.942,0.779-2.323,1.021-3.964
				c0.103-0.819,0.144-1.703,0.064-2.592c-0.069-0.437-0.118-0.89-0.27-1.312c-0.059-0.218-0.124-0.433-0.231-0.631l-0.134-0.309
				l-0.065-0.156l-0.004-0.01c-0.042-0.079,0.053,0.097,0.04,0.075l-0.013-0.022l-0.027-0.044l-0.055-0.088
				c-0.146-0.237-0.292-0.476-0.439-0.717l-0.223-0.361l-0.231-0.259c-0.298-0.348-0.583-0.707-0.994-1.044
				c-0.715-0.731-1.625-1.27-2.54-1.738c-0.473-0.197-0.956-0.382-1.437-0.541c-0.495-0.083-0.98-0.286-1.476-0.274l-0.736-0.055
				c-0.244-0.007-0.48,0.047-0.72,0.054c-0.236,0.03-0.484,0.004-0.709,0.074c-0.229,0.06-0.455,0.12-0.679,0.179
				c-0.894,0.257-1.697,0.707-2.406,1.236c-0.392,0.215-0.648,0.596-0.964,0.878c-0.155,0.15-0.307,0.297-0.456,0.441
				c-0.125,0.171-0.247,0.338-0.367,0.502c-0.244,0.331-0.477,0.648-0.699,0.95c-0.184,0.335-0.358,0.653-0.522,0.952
				c-0.168,0.302-0.325,0.584-0.47,0.845c-0.115,0.279-0.221,0.536-0.316,0.767c-0.386,0.93-0.63,1.468-0.63,1.468l-0.974-0.229
				c0,0,0.093-0.598,0.297-1.658c0.053-0.266,0.111-0.56,0.175-0.879c0.108-0.311,0.225-0.646,0.35-1.005
				c0.129-0.362,0.266-0.747,0.41-1.153c0.21-0.384,0.432-0.787,0.663-1.208c0.118-0.211,0.239-0.427,0.362-0.647
				c0.159-0.201,0.32-0.406,0.484-0.615c0.356-0.395,0.646-0.877,1.118-1.224c0.842-0.786,1.899-1.486,3.123-1.905
				c0.309-0.098,0.62-0.197,0.933-0.297c0.313-0.105,0.646-0.11,0.974-0.167c0.329-0.039,0.664-0.097,0.997-0.098l1.004,0.049
				c0.682-0.006,1.322,0.215,1.987,0.333c0.643,0.187,1.277,0.425,1.884,0.705c1.184,0.619,2.321,1.342,3.235,2.291
				c0.48,0.427,0.901,0.987,1.304,1.544l0.3,0.412l0.204,0.374c0.135,0.248,0.27,0.494,0.402,0.738
				c0.638,1.301,0.805,2.486,0.852,3.654c0.021,1.151-0.186,2.19-0.41,3.117c-0.505,1.841-1.22,3.221-1.771,4.144
				c-0.551,0.916-0.948,1.41-0.947,1.409L82.775,38.872z"/>
		</g>
		<g>
			<path fill="#5C2666" d="M54.944,49.056c0,0,0.239-0.511,0.586-1.466c0.347-0.942,0.78-2.322,1.021-3.963
				c0.103-0.819,0.144-1.703,0.063-2.592c-0.07-0.437-0.119-0.89-0.271-1.312c-0.059-0.217-0.124-0.433-0.231-0.631l-0.134-0.309
				l-0.065-0.156l-0.004-0.01c-0.042-0.079,0.052,0.097,0.04,0.074l-0.014-0.022l-0.027-0.044l-0.055-0.089
				c-0.146-0.237-0.292-0.476-0.439-0.716l-0.223-0.361L54.961,37.2c-0.297-0.348-0.583-0.707-0.994-1.044
				c-0.715-0.731-1.625-1.27-2.54-1.738c-0.473-0.197-0.956-0.382-1.437-0.541c-0.495-0.083-0.98-0.286-1.476-0.274l-0.736-0.055
				c-0.244-0.007-0.48,0.047-0.72,0.054c-0.236,0.03-0.484,0.004-0.709,0.074c-0.228,0.06-0.455,0.12-0.679,0.179
				c-0.894,0.257-1.696,0.707-2.405,1.236c-0.392,0.215-0.648,0.596-0.965,0.878c-0.155,0.149-0.307,0.296-0.456,0.441
				c-0.125,0.171-0.247,0.338-0.367,0.502c-0.244,0.331-0.477,0.648-0.699,0.95c-0.184,0.335-0.358,0.653-0.522,0.952
				c-0.168,0.302-0.325,0.584-0.47,0.845c-0.115,0.279-0.221,0.535-0.316,0.767c-0.386,0.93-0.63,1.468-0.63,1.468l-0.974-0.229
				c0,0,0.093-0.598,0.297-1.658c0.053-0.266,0.111-0.56,0.174-0.879c0.108-0.311,0.226-0.646,0.351-1.005
				c0.129-0.362,0.266-0.747,0.41-1.152c0.21-0.384,0.432-0.788,0.663-1.208c0.118-0.211,0.239-0.427,0.362-0.647
				c0.158-0.201,0.319-0.406,0.483-0.614c0.357-0.395,0.646-0.877,1.118-1.224c0.842-0.786,1.899-1.486,3.122-1.904
				c0.309-0.099,0.62-0.198,0.933-0.297c0.313-0.105,0.646-0.11,0.974-0.167c0.329-0.039,0.664-0.097,0.997-0.098l1.004,0.049
				c0.682-0.006,1.321,0.215,1.987,0.333c0.642,0.187,1.277,0.425,1.884,0.705c1.183,0.619,2.321,1.342,3.235,2.291
				c0.479,0.427,0.901,0.987,1.304,1.544l0.3,0.412l0.204,0.374c0.135,0.248,0.27,0.494,0.402,0.738
				c0.638,1.3,0.806,2.485,0.853,3.653c0.021,1.151-0.185,2.19-0.409,3.117c-0.505,1.842-1.22,3.221-1.771,4.144
				c-0.551,0.916-0.948,1.41-0.948,1.409L54.944,49.056z"/>
		</g>
		<g>
			<path fill="#5C2666" d="M27.112,59.24c0,0,0.239-0.511,0.586-1.466c0.346-0.942,0.779-2.323,1.021-3.964
				c0.103-0.819,0.144-1.703,0.063-2.592c-0.07-0.437-0.119-0.89-0.271-1.312c-0.058-0.217-0.124-0.433-0.231-0.631l-0.134-0.309
				l-0.065-0.156l-0.004-0.01c-0.042-0.079,0.052,0.097,0.04,0.075l-0.014-0.022l-0.027-0.044l-0.055-0.089
				c-0.145-0.237-0.292-0.476-0.439-0.716l-0.223-0.361l-0.231-0.259c-0.297-0.348-0.583-0.707-0.994-1.044
				c-0.715-0.731-1.625-1.27-2.54-1.738c-0.473-0.197-0.956-0.382-1.437-0.541c-0.495-0.083-0.98-0.286-1.476-0.274l-0.736-0.055
				c-0.244-0.007-0.48,0.047-0.72,0.054c-0.236,0.03-0.485,0.004-0.71,0.074c-0.228,0.06-0.454,0.12-0.679,0.178
				c-0.894,0.257-1.697,0.707-2.406,1.236c-0.392,0.215-0.647,0.596-0.964,0.878c-0.155,0.149-0.307,0.297-0.456,0.441
				c-0.125,0.171-0.247,0.338-0.367,0.502c-0.243,0.331-0.477,0.648-0.699,0.95c-0.184,0.335-0.359,0.653-0.522,0.952
				c-0.168,0.302-0.325,0.584-0.47,0.845c-0.115,0.279-0.221,0.536-0.316,0.767c-0.386,0.93-0.63,1.468-0.63,1.468l-0.974-0.229
				c0,0,0.092-0.598,0.297-1.658c0.052-0.266,0.111-0.56,0.174-0.879c0.108-0.311,0.225-0.646,0.351-1.005
				c0.128-0.362,0.266-0.747,0.41-1.153c0.21-0.384,0.431-0.787,0.662-1.208c0.118-0.211,0.239-0.427,0.362-0.647
				c0.158-0.201,0.319-0.406,0.483-0.615c0.356-0.395,0.646-0.877,1.118-1.224c0.842-0.786,1.899-1.486,3.123-1.905
				c0.309-0.098,0.62-0.197,0.933-0.297c0.313-0.105,0.646-0.11,0.974-0.167c0.33-0.039,0.664-0.097,0.997-0.098l1.004,0.049
				c0.682-0.006,1.321,0.215,1.987,0.333c0.642,0.187,1.277,0.425,1.884,0.705c1.183,0.618,2.321,1.341,3.235,2.291
				c0.479,0.427,0.901,0.987,1.304,1.544l0.3,0.412l0.204,0.374c0.135,0.248,0.27,0.494,0.402,0.738
				c0.639,1.3,0.806,2.486,0.852,3.654c0.021,1.15-0.185,2.19-0.409,3.116c-0.504,1.842-1.22,3.221-1.771,4.145
				c-0.551,0.916-0.948,1.41-0.948,1.409L27.112,59.24z"/>
		</g>
	</g>
</g>
<g>
	<path fill="#5C2666" stroke="#592561" stroke-miterlimit="10" d="M64.909,238.417c1.546,4.221,4.916,9.993,9.705,8.24
		l141.587-51.906c4.789-1.752,2.496-7.546,0.951-11.766L152.976,7.136c-1.545-4.221-5.588-5.083-10.377-3.331L3.013,54.711
		c-4.791,1.752-0.99,9.448,0.554,13.668L64.909,238.417z"/>
	
		<rect x="38.524" y="28.308" transform="matrix(-0.9391 0.3436 -0.3436 -0.9391 258.6412 198.0302)" fill="#FFFFFF" width="146.5" height="187.248"/>
	
		<rect x="36.669" y="22.784" transform="matrix(-0.9391 0.3436 -0.3436 -0.9391 259.3766 196.2354)" display="none" fill="#FBFAFB" stroke="#58167D" stroke-miterlimit="10" width="151.263" height="196.632"/>
	<g>
		
			<ellipse transform="matrix(-0.9391 0.3436 -0.3436 -0.9391 276.4108 -7.4523)" fill="#5C2666" stroke="#592561" stroke-miterlimit="10" cx="138.866" cy="20.765" rx="4.163" ry="3.648"/>
		
			<ellipse transform="matrix(-0.9391 0.3436 -0.3436 -0.9391 226.2988 21.6517)" fill="#5C2666" stroke="#592561" stroke-miterlimit="10" cx="111.231" cy="30.877" rx="4.163" ry="3.648"/>
		
			<ellipse transform="matrix(-0.9391 0.3436 -0.3436 -0.9391 175.7471 51.0159)" fill="#5C2666" stroke="#592561" stroke-miterlimit="10" cx="83.354" cy="41.078" rx="4.163" ry="3.648"/>
		
			<ellipse transform="matrix(-0.9391 0.3437 -0.3437 -0.9391 127.2313 77.829)" fill="#5C2666" stroke="#592561" stroke-miterlimit="10" cx="56.719" cy="50.189" rx="4.162" ry="3.649"/>
		
			<ellipse transform="matrix(-0.9391 0.3435 -0.3435 -0.9391 76.4549 107.9171)" fill="#5C2666" stroke="#592561" stroke-miterlimit="10" cx="28.668" cy="60.731" rx="4.162" ry="3.649"/>
	</g>
	<g>
		<g>
			<path fill="#5C2666" d="M138.439,18.503c0,0,0.239-0.511,0.586-1.466c0.347-0.942,0.779-2.323,1.021-3.964
				c0.103-0.819,0.144-1.703,0.063-2.592c-0.07-0.437-0.119-0.89-0.271-1.312c-0.058-0.217-0.124-0.433-0.231-0.631l-0.134-0.309
				l-0.065-0.156l-0.004-0.01c-0.042-0.08,0.052,0.097,0.04,0.075l-0.014-0.022l-0.027-0.044l-0.054-0.089
				c-0.146-0.237-0.292-0.476-0.44-0.716l-0.222-0.361l-0.231-0.259c-0.298-0.348-0.584-0.707-0.994-1.044
				c-0.715-0.731-1.625-1.27-2.54-1.738c-0.473-0.197-0.955-0.382-1.437-0.541c-0.495-0.083-0.98-0.286-1.476-0.274l-0.736-0.055
				c-0.244-0.007-0.48,0.046-0.72,0.054c-0.236,0.03-0.484,0.004-0.709,0.074c-0.228,0.06-0.455,0.12-0.679,0.179
				c-0.894,0.257-1.697,0.707-2.406,1.236c-0.392,0.215-0.647,0.596-0.964,0.878c-0.155,0.15-0.307,0.297-0.456,0.441
				c-0.125,0.17-0.247,0.338-0.367,0.502c-0.244,0.331-0.477,0.648-0.699,0.95c-0.184,0.335-0.358,0.653-0.522,0.952
				c-0.167,0.302-0.325,0.584-0.47,0.845c-0.115,0.279-0.221,0.536-0.316,0.767c-0.386,0.93-0.63,1.468-0.63,1.468l-0.974-0.229
				c0,0,0.092-0.598,0.297-1.658c0.053-0.265,0.111-0.56,0.175-0.879c0.108-0.311,0.225-0.646,0.35-1.005
				c0.129-0.362,0.266-0.747,0.41-1.152c0.21-0.384,0.432-0.788,0.662-1.208c0.119-0.211,0.239-0.427,0.362-0.647
				c0.158-0.201,0.319-0.406,0.483-0.614c0.356-0.396,0.646-0.877,1.118-1.224c0.842-0.786,1.899-1.486,3.123-1.904
				c0.308-0.099,0.62-0.197,0.933-0.297c0.313-0.105,0.646-0.109,0.974-0.167c0.329-0.039,0.664-0.097,0.997-0.097l1.004,0.049
				c0.682-0.006,1.322,0.216,1.987,0.333c0.643,0.187,1.277,0.425,1.884,0.705c1.183,0.619,2.321,1.342,3.235,2.291
				c0.479,0.427,0.901,0.987,1.304,1.544l0.3,0.412l0.205,0.373c0.135,0.248,0.269,0.494,0.402,0.738
				c0.638,1.3,0.805,2.485,0.852,3.653c0.021,1.151-0.185,2.19-0.409,3.117c-0.505,1.841-1.22,3.221-1.771,4.144
				c-0.551,0.916-0.948,1.41-0.947,1.409L138.439,18.503z"/>
		</g>
		<g>
			<path fill="#5C2666" d="M110.607,28.688c0,0,0.239-0.511,0.586-1.466c0.347-0.942,0.779-2.323,1.021-3.964
				c0.103-0.819,0.144-1.703,0.064-2.592c-0.07-0.437-0.118-0.89-0.271-1.312c-0.058-0.217-0.124-0.433-0.23-0.631l-0.134-0.309
				l-0.065-0.156l-0.004-0.01c-0.042-0.08,0.053,0.097,0.04,0.075l-0.014-0.022l-0.027-0.044l-0.055-0.089
				c-0.146-0.237-0.292-0.476-0.44-0.716l-0.222-0.361l-0.231-0.259c-0.298-0.348-0.583-0.707-0.994-1.044
				c-0.715-0.731-1.625-1.27-2.54-1.738c-0.473-0.197-0.956-0.381-1.437-0.541c-0.495-0.083-0.98-0.286-1.476-0.274l-0.736-0.055
				c-0.244-0.008-0.48,0.046-0.72,0.054c-0.236,0.03-0.484,0.004-0.709,0.074c-0.229,0.06-0.455,0.12-0.679,0.179
				c-0.894,0.257-1.697,0.707-2.406,1.235c-0.392,0.215-0.647,0.596-0.964,0.878c-0.155,0.15-0.307,0.297-0.456,0.441
				c-0.125,0.17-0.247,0.338-0.367,0.502c-0.243,0.331-0.477,0.648-0.699,0.95c-0.184,0.335-0.359,0.653-0.523,0.952
				c-0.167,0.302-0.325,0.584-0.47,0.845c-0.115,0.279-0.221,0.536-0.316,0.767c-0.386,0.93-0.63,1.468-0.63,1.468l-0.974-0.229
				c0,0,0.092-0.598,0.297-1.658c0.053-0.266,0.111-0.56,0.175-0.879c0.108-0.311,0.225-0.646,0.351-1.005
				c0.128-0.362,0.266-0.747,0.41-1.153c0.21-0.384,0.431-0.787,0.662-1.208c0.118-0.211,0.239-0.428,0.362-0.647
				c0.158-0.201,0.319-0.406,0.483-0.614c0.356-0.396,0.646-0.877,1.118-1.224c0.842-0.786,1.899-1.485,3.122-1.904
				c0.309-0.098,0.62-0.197,0.933-0.297c0.313-0.105,0.646-0.11,0.974-0.167c0.329-0.039,0.664-0.097,0.997-0.097l1.004,0.049
				c0.682-0.006,1.322,0.216,1.987,0.333c0.643,0.187,1.277,0.425,1.884,0.705c1.183,0.619,2.321,1.342,3.235,2.291
				c0.48,0.427,0.901,0.987,1.304,1.544l0.3,0.412l0.204,0.374c0.135,0.248,0.269,0.494,0.402,0.738
				c0.638,1.301,0.805,2.486,0.852,3.654c0.021,1.151-0.186,2.19-0.41,3.117c-0.505,1.841-1.22,3.22-1.771,4.144
				c-0.551,0.916-0.948,1.41-0.947,1.409L110.607,28.688z"/>
		</g>
		<g>
			<path fill="#5C2666" d="M82.775,38.872c0,0,0.239-0.511,0.586-1.466c0.346-0.942,0.779-2.323,1.022-3.964
				c0.103-0.819,0.144-1.703,0.064-2.592c-0.07-0.437-0.118-0.89-0.271-1.312c-0.058-0.218-0.124-0.433-0.23-0.631l-0.134-0.309
				l-0.065-0.156l-0.004-0.01c-0.042-0.079,0.053,0.097,0.04,0.075l-0.013-0.022l-0.027-0.044l-0.055-0.088
				c-0.145-0.237-0.292-0.476-0.439-0.717l-0.223-0.361l-0.231-0.259c-0.298-0.348-0.583-0.707-0.994-1.044
				c-0.716-0.731-1.625-1.27-2.54-1.738c-0.473-0.197-0.956-0.382-1.437-0.541c-0.496-0.083-0.98-0.286-1.477-0.274l-0.736-0.055
				c-0.244-0.007-0.48,0.047-0.72,0.054c-0.236,0.03-0.484,0.004-0.709,0.074c-0.228,0.06-0.455,0.12-0.679,0.178
				c-0.893,0.257-1.696,0.707-2.405,1.236c-0.392,0.215-0.648,0.596-0.965,0.878c-0.155,0.149-0.307,0.297-0.456,0.441
				c-0.125,0.171-0.247,0.338-0.367,0.502c-0.244,0.331-0.477,0.648-0.699,0.95c-0.184,0.335-0.358,0.653-0.522,0.952
				c-0.168,0.302-0.325,0.584-0.47,0.845c-0.115,0.279-0.221,0.536-0.316,0.767c-0.386,0.93-0.63,1.468-0.63,1.468l-0.974-0.229
				c0,0,0.093-0.598,0.297-1.658c0.053-0.266,0.111-0.56,0.174-0.879c0.108-0.311,0.226-0.646,0.351-1.005
				c0.129-0.362,0.266-0.747,0.41-1.153c0.21-0.384,0.432-0.787,0.663-1.208c0.118-0.211,0.239-0.427,0.362-0.647
				c0.158-0.201,0.319-0.406,0.483-0.615c0.357-0.395,0.646-0.877,1.118-1.224c0.842-0.786,1.899-1.486,3.122-1.905
				c0.309-0.098,0.62-0.197,0.933-0.297c0.313-0.105,0.646-0.11,0.974-0.167c0.329-0.039,0.664-0.097,0.997-0.098l1.004,0.049
				c0.681-0.006,1.321,0.215,1.987,0.333c0.642,0.187,1.277,0.425,1.884,0.705c1.183,0.619,2.321,1.342,3.235,2.292
				c0.479,0.427,0.901,0.987,1.304,1.544l0.3,0.412l0.204,0.374c0.135,0.248,0.27,0.494,0.402,0.738
				c0.639,1.301,0.805,2.486,0.851,3.654c0.021,1.151-0.185,2.19-0.41,3.117c-0.505,1.841-1.22,3.221-1.771,4.144
				c-0.551,0.916-0.948,1.41-0.948,1.409L82.775,38.872z"/>
		</g>
		<g>
			<path fill="#5C2666" d="M54.944,49.056c0,0,0.239-0.511,0.586-1.466c0.347-0.942,0.78-2.322,1.022-3.963
				c0.103-0.819,0.144-1.703,0.063-2.592c-0.07-0.437-0.119-0.89-0.271-1.312c-0.058-0.217-0.124-0.433-0.231-0.631l-0.134-0.309
				l-0.065-0.156l-0.004-0.01c-0.042-0.079,0.052,0.097,0.04,0.074l-0.014-0.022l-0.027-0.044l-0.055-0.089
				c-0.146-0.237-0.292-0.476-0.439-0.716l-0.223-0.361l-0.23-0.259c-0.298-0.348-0.583-0.707-0.994-1.044
				c-0.715-0.731-1.625-1.27-2.54-1.738c-0.473-0.197-0.956-0.382-1.437-0.541c-0.496-0.083-0.98-0.286-1.477-0.274l-0.736-0.055
				c-0.244-0.007-0.48,0.047-0.72,0.054c-0.236,0.03-0.484,0.004-0.709,0.074c-0.228,0.06-0.455,0.12-0.679,0.179
				c-0.894,0.257-1.697,0.707-2.406,1.236c-0.392,0.215-0.648,0.596-0.965,0.878c-0.154,0.149-0.306,0.296-0.456,0.441
				c-0.125,0.17-0.247,0.338-0.367,0.502c-0.244,0.331-0.477,0.648-0.699,0.95c-0.184,0.335-0.359,0.653-0.523,0.952
				c-0.167,0.302-0.325,0.584-0.47,0.845c-0.115,0.279-0.221,0.536-0.316,0.767c-0.386,0.93-0.63,1.468-0.63,1.468l-0.974-0.229
				c0,0,0.092-0.598,0.297-1.658c0.053-0.266,0.111-0.56,0.175-0.879c0.108-0.311,0.225-0.646,0.35-1.005
				c0.129-0.362,0.266-0.747,0.411-1.152c0.21-0.384,0.431-0.788,0.662-1.208c0.118-0.211,0.239-0.427,0.362-0.647
				c0.159-0.201,0.32-0.406,0.484-0.614c0.356-0.395,0.646-0.877,1.118-1.224c0.842-0.786,1.899-1.486,3.123-1.905
				c0.309-0.098,0.62-0.197,0.933-0.297c0.313-0.105,0.646-0.11,0.974-0.167c0.329-0.039,0.664-0.097,0.997-0.097l1.004,0.049
				c0.682-0.006,1.322,0.215,1.987,0.333c0.643,0.187,1.277,0.425,1.884,0.705c1.183,0.618,2.321,1.341,3.235,2.291
				c0.48,0.427,0.901,0.987,1.304,1.544l0.3,0.412l0.204,0.373c0.135,0.248,0.269,0.494,0.402,0.738
				c0.638,1.3,0.806,2.485,0.853,3.653c0.021,1.151-0.185,2.19-0.409,3.117c-0.504,1.842-1.22,3.221-1.771,4.144
				c-0.551,0.917-0.948,1.41-0.948,1.409L54.944,49.056z"/>
		</g>
		<g>
			<path fill="#5C2666" d="M27.111,59.24c0,0,0.239-0.511,0.586-1.466c0.347-0.942,0.779-2.323,1.021-3.964
				c0.103-0.819,0.144-1.703,0.063-2.592c-0.07-0.437-0.119-0.89-0.271-1.312c-0.058-0.217-0.124-0.433-0.231-0.631l-0.134-0.309
				l-0.065-0.156l-0.004-0.01c-0.042-0.079,0.052,0.097,0.04,0.075l-0.014-0.022l-0.027-0.044l-0.054-0.089
				c-0.146-0.237-0.292-0.476-0.44-0.716l-0.223-0.361l-0.231-0.258c-0.297-0.349-0.583-0.707-0.994-1.044
				c-0.716-0.731-1.625-1.27-2.54-1.738c-0.473-0.197-0.956-0.382-1.437-0.541c-0.496-0.083-0.981-0.286-1.477-0.274l-0.736-0.055
				c-0.244-0.007-0.48,0.047-0.72,0.054c-0.236,0.03-0.484,0.004-0.709,0.074c-0.228,0.06-0.455,0.12-0.679,0.179
				c-0.894,0.257-1.697,0.707-2.406,1.236c-0.392,0.215-0.647,0.596-0.964,0.878c-0.155,0.15-0.307,0.297-0.456,0.441
				c-0.125,0.17-0.247,0.338-0.367,0.502c-0.243,0.331-0.477,0.648-0.699,0.95c-0.184,0.335-0.358,0.653-0.522,0.952
				c-0.168,0.302-0.325,0.584-0.47,0.845c-0.115,0.279-0.221,0.536-0.316,0.767c-0.386,0.93-0.63,1.468-0.63,1.468l-0.974-0.229
				c0,0,0.093-0.598,0.297-1.658c0.053-0.266,0.111-0.56,0.174-0.879c0.108-0.311,0.226-0.646,0.351-1.005
				c0.128-0.362,0.266-0.747,0.41-1.153c0.21-0.384,0.432-0.787,0.662-1.208c0.118-0.211,0.239-0.427,0.362-0.647
				c0.158-0.201,0.319-0.406,0.483-0.614c0.356-0.396,0.646-0.877,1.118-1.224c0.842-0.786,1.899-1.486,3.122-1.905
				c0.309-0.098,0.62-0.197,0.933-0.297c0.313-0.105,0.646-0.11,0.974-0.167c0.329-0.039,0.664-0.097,0.997-0.098l1.004,0.049
				c0.682-0.006,1.322,0.215,1.987,0.333c0.643,0.187,1.277,0.425,1.884,0.705c1.184,0.619,2.321,1.341,3.235,2.291
				c0.48,0.427,0.901,0.987,1.304,1.544l0.3,0.412l0.204,0.374c0.135,0.248,0.27,0.494,0.402,0.738
				c0.639,1.3,0.806,2.486,0.853,3.654c0.021,1.15-0.185,2.19-0.409,3.116c-0.505,1.842-1.22,3.221-1.771,4.145
				c-0.551,0.916-0.948,1.41-0.947,1.409L27.111,59.24z"/>
		</g>
	</g>
</g>
</svg>
