<svg xmlns="http://www.w3.org/2000/svg" width="560.77" height="276.83" viewBox="0 0 560.77 276.83">
  <defs>
    <style>
      .cls-1 {
        opacity: 0.32;
      }

      .cls-2 {
        fill: #cbe7de;
      }

      .cls-3 {
        fill: #bc7261;
      }

      .cls-4 {
        fill: #975b4e;
      }

      .cls-5 {
        opacity: 0.2;
        isolation: isolate;
      }

      .cls-6 {
        fill: #59316d;
      }

      .cls-7, .cls-8 {
        fill: none;
      }

      .cls-8 {
        stroke: #59316d;
        stroke-miterlimit: 10;
      }

      .cls-9 {
        fill: #f5d5a1;
      }

      .cls-10 {
        fill: #ebcd9b;
      }

      .cls-11 {
        fill: #ffdea9;
      }
    </style>
  </defs>
  <g id="Grupo_3824" data-name="Grupo 3824" transform="translate(-960 -151.261)">
    <g id="Grupo_3801" data-name="Grupo 3801" transform="translate(8.182 6.206)">
      <g id="Grupo_3660" data-name="Grupo 3660" class="cls-1" transform="translate(1092.236 150.776)">
        <circle id="Elipse_3" data-name="Elipse 3" class="cls-2" cx="116.352" cy="116.352" r="116.352" transform="translate(20.677 22.006)"/>
      </g>
      <g id="Grupo_3407" data-name="Grupo 3407" transform="translate(1501.019 1073.237) rotate(-14)">
        <g id="freepik--Briefcases--inject-19" transform="translate(-143.581 -900.929)">
          <g id="Retângulo_1781" data-name="Retângulo 1781" transform="translate(2.938 40.595)">
            <rect id="Retângulo_1790" data-name="Retângulo 1790" class="cls-3" width="141.923" height="63.208" rx="2.24"/>
          </g>
          <g id="Caminho_9733" data-name="Caminho 9733" transform="translate(44.935)">
            <path id="Caminho_9752" data-name="Caminho 9752" class="cls-4" d="M-56.54-870.462H-93.383A10.553,10.553,0,0,1-103.919-881v-9.46a10.552,10.552,0,0,1,10.536-10.536H-56.54A10.535,10.535,0,0,1-46-890.458h0v9.415A10.536,10.536,0,0,1-56.493-870.46h-.048Zm-36.842-22.795a2.845,2.845,0,0,0-2.815,2.8v9.415a2.846,2.846,0,0,0,2.846,2.846H-56.51a2.846,2.846,0,0,0,2.846-2.846v-9.415A2.845,2.845,0,0,0-56.51-893.3Z" transform="translate(103.919 900.995)"/>
          </g>
          <g id="Caminho_9734" data-name="Caminho 9734" class="cls-5" transform="translate(2.938 40.596)">
            <path id="Caminho_9753" data-name="Caminho 9753" class="cls-6" d="M-2.526-865.163h-135a3.445,3.445,0,0,0-3.461,3.429v18.091l70.3,13.845a3.1,3.1,0,0,0,1.307,0L.935-843.643v-18.075a3.445,3.445,0,0,0-3.445-3.445Z" transform="translate(140.988 865.163)"/>
          </g>
          <g id="Caminho_9735" data-name="Caminho 9735" transform="translate(0 17.491)">
            <path id="Caminho_9754" data-name="Caminho 9754" class="cls-3" d="M1.372-844.823l-70.439,13.845a3.815,3.815,0,0,1-1.323,0l-70.439-13.845a3.415,3.415,0,0,1-2.753-3.338v-34a3.4,3.4,0,0,1,3.4-3.4H.756a3.4,3.4,0,0,1,3.4,3.4V-848.1A3.4,3.4,0,0,1,1.372-844.823Z" transform="translate(143.581 885.556)"/>
          </g>
          <g id="Retângulo_1782" data-name="Retângulo 1782" transform="translate(63.363 62.854)">
            <rect id="Retângulo_1791" data-name="Retângulo 1791" class="cls-4" width="21.09" height="15.737" rx="2.12"/>
          </g>
          <g id="Retângulo_1783" data-name="Retângulo 1783" transform="translate(63.363 62.854)">
            <rect id="Retângulo_1792" data-name="Retângulo 1792" class="cls-7" width="21.09" height="15.737" rx="2.12"/>
          </g>
        </g>
        <g id="freepik--Briefcases--inject-19-2" transform="translate(-143.581 -900.929)">
          <g id="Retângulo_1781-2" data-name="Retângulo 1781-2" transform="translate(2.938 40.595)">
            <rect id="Retângulo_1793" data-name="Retângulo 1793" class="cls-3" width="141.923" height="63.208" rx="2.24"/>
          </g>
          <g id="Caminho_9733-2" data-name="Caminho 9733-2" transform="translate(44.935)">
            <path id="Caminho_9755" data-name="Caminho 9755" class="cls-4" d="M-56.54-870.462H-93.383A10.553,10.553,0,0,1-103.919-881v-9.46a10.552,10.552,0,0,1,10.536-10.536H-56.54A10.535,10.535,0,0,1-46-890.458h0v9.415A10.536,10.536,0,0,1-56.493-870.46h-.048Zm-36.842-22.795a2.845,2.845,0,0,0-2.815,2.8v9.415a2.846,2.846,0,0,0,2.846,2.846H-56.51a2.846,2.846,0,0,0,2.846-2.846v-9.415A2.845,2.845,0,0,0-56.51-893.3Z" transform="translate(103.919 900.995)"/>
          </g>
          <g id="Caminho_9734-2" data-name="Caminho 9734-2" class="cls-5" transform="translate(2.938 40.596)">
            <path id="Caminho_9756" data-name="Caminho 9756" class="cls-6" d="M-2.526-865.163h-135a3.445,3.445,0,0,0-3.461,3.429v18.091l70.3,13.845a3.1,3.1,0,0,0,1.307,0L.935-843.643v-18.075a3.445,3.445,0,0,0-3.445-3.445Z" transform="translate(140.988 865.163)"/>
          </g>
          <g id="Caminho_9735-2" data-name="Caminho 9735-2" transform="translate(0 17.491)">
            <path id="Caminho_9757" data-name="Caminho 9757" class="cls-3" d="M1.372-844.823l-70.439,13.845a3.815,3.815,0,0,1-1.323,0l-70.439-13.845a3.415,3.415,0,0,1-2.753-3.338v-34a3.4,3.4,0,0,1,3.4-3.4H.756a3.4,3.4,0,0,1,3.4,3.4V-848.1A3.4,3.4,0,0,1,1.372-844.823Z" transform="translate(143.581 885.556)"/>
          </g>
          <g id="Retângulo_1782-2" data-name="Retângulo 1782-2" transform="translate(63.363 62.854)">
            <rect id="Retângulo_1794" data-name="Retângulo 1794" class="cls-4" width="21.09" height="15.737" rx="2.12"/>
          </g>
          <g id="Retângulo_1783-2" data-name="Retângulo 1783-2" transform="translate(63.363 62.854)">
            <rect id="Retângulo_1795" data-name="Retângulo 1795" class="cls-7" width="21.09" height="15.737" rx="2.12"/>
          </g>
        </g>
        <g id="Grupo_3406" data-name="Grupo 3406" transform="translate(-140.693 -901.495)">
          <g id="Grupo_3401" data-name="Grupo 3401" transform="translate(53.167 8.258)">
            <path id="Caminho_9758" data-name="Caminho 9758" class="cls-7" d="M-54.415-894.206l-36.873.047a2.846,2.846,0,0,0-2.816,2.8v6.954H-51.57v-6.954A2.845,2.845,0,0,0-54.415-894.206Z" transform="translate(94.104 894.206)"/>
          </g>
          <g id="Grupo_3402" data-name="Grupo 3402" transform="translate(44.879)">
            <path id="Caminho_9759" data-name="Caminho 9759" class="cls-6" d="M-42.371-882.871h-8.793v-7.52a2.281,2.281,0,0,0-2.278-2.28l-36.872.047a2.267,2.267,0,0,0-2.251,2.237v7.516h-8.854v-7.521a11.138,11.138,0,0,1,11.1-11.1h36.842a11.115,11.115,0,0,1,11.1,11.1ZM-50.031-884H-43.5v-6.389a9.981,9.981,0,0,0-9.97-9.97H-90.315a10,10,0,0,0-9.971,9.971V-884H-93.7v-6.4a3.4,3.4,0,0,1,3.376-3.356l36.878-.046a3.415,3.415,0,0,1,3.412,3.412Z" transform="translate(101.419 901.495)"/>
          </g>
          <g id="Grupo_3403" data-name="Grupo 3403" transform="translate(2.883 58.12)">
            <path id="Caminho_9760" data-name="Caminho 9760" class="cls-6" d="M1.463-803.38H-135.383a3.107,3.107,0,0,1-3.1-3.1v-43.694l61.557,12.1v6.518a1.837,1.837,0,0,0,1.835,1.835h16.286a1.838,1.838,0,0,0,1.835-1.835v-6.54l61.54-12.1v43.712A3.107,3.107,0,0,1,1.463-803.38ZM-137.354-848.8v42.317a1.973,1.973,0,0,0,1.971,1.97H1.463a1.973,1.973,0,0,0,1.971-1.97v-42.335l-59.275,11.65v5.608a2.973,2.973,0,0,1-2.968,2.968H-75.094a2.972,2.972,0,0,1-2.968-2.968v-5.587Z" transform="translate(138.487 850.195)"/>
          </g>
          <g id="Grupo_3404" data-name="Grupo 3404" transform="translate(0 17.491)">
            <path id="Caminho_9761" data-name="Caminho 9761" class="cls-6" d="M-76.538-832.155-137.822-844.2a3.992,3.992,0,0,1-3.21-3.892v-34a3.97,3.97,0,0,1,3.965-3.965H3.872a3.97,3.97,0,0,1,3.965,3.965v34.057A3.982,3.982,0,0,1,4.591-844.2L-56.58-832.177v-5.548a1.837,1.837,0,0,0-1.835-1.835H-74.7a1.837,1.837,0,0,0-1.837,1.835Zm-60.529-52.768a2.835,2.835,0,0,0-2.832,2.832v34a2.854,2.854,0,0,0,2.3,2.781l.185.036,59.748,11.744v-4.192a2.972,2.972,0,0,1,2.969-2.968h16.286a2.972,2.972,0,0,1,2.968,2.968v4.17L4.285-845.3a2.874,2.874,0,0,0,2.419-2.75v-34.046a2.835,2.835,0,0,0-2.832-2.832Z" transform="translate(141.032 886.056)"/>
          </g>
          <g id="Grupo_3405" data-name="Grupo 3405" transform="translate(63.308 62.855)">
            <path id="Caminho_9762" data-name="Caminho 9762" class="cls-6" d="M-65.9-829.146H-82.185a2.972,2.972,0,0,1-2.968-2.968v-10.933a2.971,2.971,0,0,1,2.968-2.968H-65.9a2.972,2.972,0,0,1,2.968,2.968v10.933A2.973,2.973,0,0,1-65.9-829.146Zm-16.286-15.737a1.836,1.836,0,0,0-1.835,1.835v10.933a1.837,1.837,0,0,0,1.835,1.835H-65.9a1.838,1.838,0,0,0,1.835-1.835v-10.933a1.837,1.837,0,0,0-1.835-1.835Z" transform="translate(85.153 846.016)"/>
          </g>
        </g>
      </g>
    </g>
    <g id="Grupo_3660-2" data-name="Grupo 3660" transform="translate(1107.898 141.982)">
      <path id="Caminho_58" data-name="Caminho 58" class="cls-8" d="M960.144,11.45l18.721,19.491,23.828-12.751,11.783,24.322,26.6-4.764,3.69,26.772,26.772,3.69-4.764,26.6,24.323,11.782-12.752,23.828,19.491,18.721-19.491,18.721,12.752,23.828-24.323,11.782,4.764,26.6-26.772,3.69-3.69,26.772-26.6-4.764L1002.693,280.1l-23.828-12.751-18.721,19.491-18.721-19.491L917.594,280.1l-11.782-24.322-26.6,4.764-3.691-26.772-26.772-3.69,4.764-26.6L829.19,191.693l12.751-23.828-19.49-18.721,19.49-18.721L829.19,106.594l24.322-11.782-4.764-26.6,26.772-3.69,3.691-26.772,26.6,4.764L917.594,18.19l23.829,12.751Z" transform="translate(-833.45 -1.45)"/>
    </g>
    <g id="Grupo_3802" data-name="Grupo 3802" transform="translate(1766.742 565.396) rotate(180)">
      <path id="Caminho_10921" data-name="Caminho 10921" class="cls-9" d="M245.972,197.138,362.035,184.92v66.991L245.972,264.129l43.982-43.269Z" transform="translate(0 32.49)"/>
      <path id="Caminho_10922" data-name="Caminho 10922" class="cls-9" d="M501.912,197.138,385.849,184.92v66.991l116.063,12.217L457.93,220.859Z" transform="translate(304.83 32.49)"/>
      <path id="Caminho_10923" data-name="Caminho 10923" class="cls-10" d="M315.976,180.309H267.107V247.3l48.869,14.661Z" transform="translate(46.059 22.441)"/>
      <path id="Caminho_10924" data-name="Caminho 10924" class="cls-10" d="M385.849,180.309h48.869V247.3l-48.869,14.661Z" transform="translate(304.83 22.441)"/>
      <path id="Caminho_10925" data-name="Caminho 10925" class="cls-11" d="M693.488,301.725c-142.921-60.574-275.318-59.9-426.381,0V212.981c115.064-55.669,311.762-58.894,426.381,0Z" transform="translate(46.059 -31.985)"/>
    </g>
    <g id="Grupo_3806" data-name="Grupo 3806" transform="translate(566.434 238.896)">
      <g id="Grupo_3805" data-name="Grupo 3805" transform="translate(529.371 117.944)">
        <path id="Caminho_10935" data-name="Caminho 10935" class="cls-6" d="M550.958,120.863c9.353,1.865,14.463,5.059,12.9,12.872-1.689,8.461-8.646,9.353-18.3,7.425l-.4-.078L542.5,154.42l6.22,1.242-.188.946-19.163-3.823.191-.946,3.235.648,6.572-32.951-3.235-.645.188-.946Zm-5.6,19.274,1.042.209c4.184.833,5.853-1.835,7-7.61l.477-2.388c1.122-5.626.323-7.855-3.459-8.61l-1.343-.269Z" transform="translate(-529.371 -117.944)"/>
        <path id="Caminho_10936" data-name="Caminho 10936" class="cls-6" d="M557.743,144.316l-9.944-1.424-5.42,10.293,3.763.54-.134.955-7.688-1.1.137-.955,2.36.34,17.752-32.674,4.119.591L570.4,157.2l2.313.331-.137.952-16.423-2.352.137-.955,3.563.51Zm-9.335-2.465,9.094,1.3-2.486-13.788Z" transform="translate(-511.612 -113.286)"/>
        <path id="Caminho_10937" data-name="Caminho 10937" class="cls-6" d="M565.175,139.859l-1.358,16.949,3.289.266-.078.961-16.444-1.319.078-.961,3.289.266,2.683-33.495-3.289-.263.078-.961,15.278,1.224c10.574.848,15.546,2.364,14.955,9.75-.5,6.172-3.88,7.736-9.279,7.763l-.012.149c5.408,1.149,7.112,3.423,6.637,9.291l-.212,2.683c-.266,3.289-.206,4.465,1.209,4.578.913.072,1.7-.272,2.677-4.166l.854.17c-1.221,5.709-2.758,7.061-7.461,6.685-6.375-.513-8.076-2.787-7.506-9.92l.3-3.692c.289-3.593-.269-5.521-3-5.742Zm.078-.961,1.618.131c3.746.3,5.832-1.621,6.27-7.085l.119-1.468c.454-5.665-1.549-6.742-5.089-7.028l-1.671-.131Z" transform="translate(-487.275 -111.28)"/>
        <path id="Caminho_10938" data-name="Caminho 10938" class="cls-6" d="M580.984,146.2l-10.046-.236-4.16,10.866,3.8.09-.021.964L562.8,157.7l.024-.964,2.385.057,13.749-34.551,4.157.1,11.974,35.151,2.331.057-.018.964-16.591-.388.021-.964,3.6.084Zm-9.562-1.343,9.183.215-4.1-13.394Z" transform="translate(-463.038 -109.413)"/>
        <path id="Caminho_10939" data-name="Caminho 10939" class="cls-6" d="M590.034,122.355c8.926-.23,14.155,1.662,14.319,7.954.128,4.871-2.85,7.536-8.154,8.539l0,.1c6.414.645,10.237,3.235,10.374,8.562.209,7.864-6.336,10.114-15.871,10.365l-14.913.388-.027-.964,3.3-.087-.874-33.584-3.3.087-.027-.964ZM588.488,139l1.319-.033c3.653-.1,4.659-2.459,4.548-6.62l-.063-2.382c-.125-4.871-1.039-6.724-4.587-6.634l-1.623.045Zm.469,17.961,2.385-.063c3.9-.1,4.945-3.074,4.823-7.742l-.068-2.689c-.111-4.16-1.5-6.661-6.417-6.533l-1.164.03Z" transform="translate(-439.092 -109.227)"/>
        <path id="Caminho_10940" data-name="Caminho 10940" class="cls-6" d="M612.2,127.966l1.188,9.995-.91.063c-3.238-6.446-5.775-8.562-11.9-8.145L598.8,130l1.071,15.648,1.722-.116c3.289-.227,5.229-3.158,5.826-7.064l.758-.051,1.027,14.988-.862.06c-1.561-4.981-3.62-6.825-7.166-6.581l-1.215.084,1.11,16.253L603,163.09c6.431-.442,10.586-5.151,11.726-10.774l1.015-.069.349,11.066-27.8,1.9-.078-1.113,2.987-.206-2.268-33.217-2.987.2-.078-1.116Zm-11.8-9.622,2.447.036c1.832.027,2.519,1.1,2.584,2.113a3.266,3.266,0,0,1-2.026,3.089l-7.828,3.844-.439-.481Z" transform="translate(-417.267 -117.15)"/>
        <path id="Caminho_10941" data-name="Caminho 10941" class="cls-6" d="M628.672,155.911l-7.055.77-20.858-30.725,3.462,31.659,2.77-.3.1.958-6.906.755-.1-.958,2.772-.3-3.65-33.372-2.773.3-.1-.958,13.914-1.519,15.976,23.864-2.662-24.35-2.776.3-.1-.961,6.909-.755.1.961-2.773.3Z" transform="translate(-396.489 -113.233)"/>
        <path id="Caminho_10942" data-name="Caminho 10942" class="cls-6" d="M631.272,148.742c-.624-4.166-3.939-5.056-10.374-5.888-6.33-.8-11.305-2.516-12.442-10.093-.842-5.62,2.537-11.511,10.267-12.669,4.614-.692,7.458.475,9.162.218.854-.128,1.05-.516,1.3-1.221l.555-.084,1.868,10.085-.806.119c-3.25-4.232-7.413-8.738-12.58-7.966-3.614.54-5.811,3.023-5.363,5.984.552,3.713,4.154,4.459,9.425,5.056,5.8.669,12.254,1.653,13.5,9.983,1.083,7.225-3.122,12.729-10.5,13.836-4.868.728-9.305-.146-10.714.066-.8.119-1.021.716-1.28,1.731l-.7.1L610.3,146.134l.853-.128c3.262,4.644,9.01,9.786,14.531,8.959C628.7,154.514,631.818,152.4,631.272,148.742Z" transform="translate(-372.68 -115.839)"/>
        <path id="Caminho_10943" data-name="Caminho 10943" class="cls-6" d="M625.566,140.535c-1.418-7.837-5.647-12.69-6.548-17.683-.567-3.143,1.367-4.42,3.316-4.772,1.892-.343,3.936.113,4.521,3.358.964,5.342-1.621,11.013-.185,18.948l.764,4.244-1.1.2Zm1.5,6.067c2.2-.4,4.044.4,4.513,3a3.572,3.572,0,0,1-3.05,4.518,3.53,3.53,0,0,1-4.518-3.05A3.63,3.63,0,0,1,627.07,146.6Z" transform="translate(-351.67 -117.865)"/>
      </g>
    </g>
  </g>
</svg>
