<svg xmlns="http://www.w3.org/2000/svg" width="170.749" height="159.435" viewBox="0 0 170.749 159.435">
  <defs>
    <style>
      .cls-1 {
        fill: #ffdea9;
      }

      .cls-2, .cls-7 {
        fill: none;
      }

      .cls-2 {
        stroke: #59316d;
        stroke-miterlimit: 10;
      }

      .cls-3 {
        fill: #bc7261;
      }

      .cls-4 {
        fill: #975b4e;
      }

      .cls-5 {
        opacity: 0.2;
        isolation: isolate;
      }

      .cls-6 {
        fill: #59316d;
      }
    </style>
  </defs>
  <g id="Grupo_3660" data-name="Grupo 3660" transform="translate(27.759 0.722)">
    <ellipse id="Elipse_3" data-name="Elipse 3" class="cls-1" cx="60.109" cy="60.109" rx="60.109" ry="60.109" transform="translate(10.682 11.369)"/>
    <path id="Caminho_58" data-name="Caminho 58" class="cls-2" d="M893.585,11.45l9.672,10.069,12.31-6.588L921.653,27.5,935.4,25.036,937.3,38.867l13.831,1.906-2.461,13.743L961.237,60.6l-6.588,12.31,10.069,9.672-10.069,9.672,6.588,12.31-12.565,6.087,2.461,13.743L937.3,126.3,935.4,140.133l-13.743-2.461-6.087,12.565-12.31-6.588-9.672,10.069-9.672-10.069-12.31,6.588-6.087-12.565-13.743,2.461L849.867,126.3,836.036,124.4l2.461-13.743-12.565-6.087,6.587-12.31-10.069-9.672,10.069-9.672L825.932,60.6,838.5,54.516l-2.461-13.743,13.831-1.906,1.906-13.831L865.516,27.5,871.6,14.932l12.31,6.588Z" transform="translate(-822.451 -11.45)"/>
    <g id="Grupo_3407" data-name="Grupo 3407" transform="translate(325.529 903.877) rotate(-14)">
      <g id="freepik--Briefcases--inject-19" transform="translate(-143.581 -900.961)">
        <g id="Retângulo_1781" data-name="Retângulo 1781" transform="translate(2.77 38.277)">
          <rect id="Retângulo_1790" data-name="Retângulo 1790" class="cls-3" width="133.819" height="59.599" rx="2.24"/>
        </g>
        <g id="Caminho_9733" data-name="Caminho 9733" transform="translate(42.369)">
          <path id="Caminho_9752" data-name="Caminho 9752" class="cls-4" d="M-59.246-872.206H-93.984a9.95,9.95,0,0,1-9.935-9.935v-8.92a9.95,9.95,0,0,1,9.935-9.935h34.739a9.934,9.934,0,0,1,9.935,9.935h0v8.877a9.934,9.934,0,0,1-9.89,9.98h-.045ZM-93.984-893.7a2.683,2.683,0,0,0-2.655,2.64v8.877a2.684,2.684,0,0,0,2.683,2.684h34.739a2.683,2.683,0,0,0,2.683-2.684v-8.877a2.683,2.683,0,0,0-2.683-2.684Z" transform="translate(103.919 900.995)"/>
        </g>
        <g id="Caminho_9734" data-name="Caminho 9734" class="cls-5" transform="translate(2.77 38.278)">
          <path id="Caminho_9753" data-name="Caminho 9753" class="cls-6" d="M-10.433-865.163H-137.724a3.249,3.249,0,0,0-3.264,3.234v17.058L-74.7-831.817a2.925,2.925,0,0,0,1.233,0l66.3-13.054v-17.043a3.248,3.248,0,0,0-3.249-3.249Z" transform="translate(140.988 865.163)"/>
        </g>
        <g id="Caminho_9735" data-name="Caminho 9735" transform="translate(0 16.493)">
          <path id="Caminho_9754" data-name="Caminho 9754" class="cls-3" d="M-6.9-847.149-73.321-834.1a3.6,3.6,0,0,1-1.248,0l-66.416-13.054a3.22,3.22,0,0,1-2.6-3.147v-32.055a3.2,3.2,0,0,1,3.2-3.2H-7.486a3.2,3.2,0,0,1,3.2,3.2v32.113A3.2,3.2,0,0,1-6.9-847.149Z" transform="translate(143.581 885.556)"/>
        </g>
        <g id="Retângulo_1782" data-name="Retângulo 1782" transform="translate(59.745 59.265)">
          <rect id="Retângulo_1791" data-name="Retângulo 1791" class="cls-4" width="19.886" height="14.838" rx="2.12"/>
        </g>
        <g id="Retângulo_1783" data-name="Retângulo 1783" transform="translate(59.745 59.265)">
          <rect id="Retângulo_1792" data-name="Retângulo 1792" class="cls-7" width="19.886" height="14.838" rx="2.12"/>
        </g>
      </g>
      <g id="freepik--Briefcases--inject-19-2" transform="translate(-143.581 -900.961)">
        <g id="Retângulo_1781-2" data-name="Retângulo 1781-2" transform="translate(2.77 38.277)">
          <rect id="Retângulo_1793" data-name="Retângulo 1793" class="cls-3" width="133.819" height="59.599" rx="2.24"/>
        </g>
        <g id="Caminho_9733-2" data-name="Caminho 9733-2" transform="translate(42.369)">
          <path id="Caminho_9755" data-name="Caminho 9755" class="cls-4" d="M-59.246-872.206H-93.984a9.95,9.95,0,0,1-9.935-9.935v-8.92a9.95,9.95,0,0,1,9.935-9.935h34.739a9.934,9.934,0,0,1,9.935,9.935h0v8.877a9.934,9.934,0,0,1-9.89,9.98h-.045ZM-93.984-893.7a2.683,2.683,0,0,0-2.655,2.64v8.877a2.684,2.684,0,0,0,2.683,2.684h34.739a2.683,2.683,0,0,0,2.683-2.684v-8.877a2.683,2.683,0,0,0-2.683-2.684Z" transform="translate(103.919 900.995)"/>
        </g>
        <g id="Caminho_9734-2" data-name="Caminho 9734-2" class="cls-5" transform="translate(2.77 38.278)">
          <path id="Caminho_9756" data-name="Caminho 9756" class="cls-6" d="M-10.433-865.163H-137.724a3.249,3.249,0,0,0-3.264,3.234v17.058L-74.7-831.817a2.925,2.925,0,0,0,1.233,0l66.3-13.054v-17.043a3.248,3.248,0,0,0-3.249-3.249Z" transform="translate(140.988 865.163)"/>
        </g>
        <g id="Caminho_9735-2" data-name="Caminho 9735-2" transform="translate(0 16.493)">
          <path id="Caminho_9757" data-name="Caminho 9757" class="cls-3" d="M-6.9-847.149-73.321-834.1a3.6,3.6,0,0,1-1.248,0l-66.416-13.054a3.22,3.22,0,0,1-2.6-3.147v-32.055a3.2,3.2,0,0,1,3.2-3.2H-7.486a3.2,3.2,0,0,1,3.2,3.2v32.113A3.2,3.2,0,0,1-6.9-847.149Z" transform="translate(143.581 885.556)"/>
        </g>
        <g id="Retângulo_1782-2" data-name="Retângulo 1782-2" transform="translate(59.745 59.265)">
          <rect id="Retângulo_1794" data-name="Retângulo 1794" class="cls-4" width="19.886" height="14.838" rx="2.12"/>
        </g>
        <g id="Retângulo_1783-2" data-name="Retângulo 1783-2" transform="translate(59.745 59.265)">
          <rect id="Retângulo_1795" data-name="Retângulo 1795" class="cls-7" width="19.886" height="14.838" rx="2.12"/>
        </g>
      </g>
      <g id="Grupo_3406" data-name="Grupo 3406" transform="translate(-140.858 -901.495)">
        <g id="Grupo_3401" data-name="Grupo 3401" transform="translate(50.131 7.786)">
          <path id="Caminho_9758" data-name="Caminho 9758" class="cls-7" d="M-56.681-894.206l-34.767.044a2.684,2.684,0,0,0-2.656,2.64v6.557H-54v-6.557A2.682,2.682,0,0,0-56.681-894.206Z" transform="translate(94.104 894.206)"/>
        </g>
        <g id="Grupo_3402" data-name="Grupo 3402" transform="translate(42.317)">
          <path id="Caminho_9759" data-name="Caminho 9759" class="cls-6" d="M-45.743-883.934h-8.291v-7.091a2.151,2.151,0,0,0-2.148-2.149l-34.766.044a2.138,2.138,0,0,0-2.123,2.11v7.087h-8.348v-7.092A10.5,10.5,0,0,1-90.95-901.5h34.739a10.48,10.48,0,0,1,10.469,10.469ZM-52.965-885h6.154v-6.024a9.411,9.411,0,0,0-9.4-9.4H-90.949a9.433,9.433,0,0,0-9.4,9.4V-885h6.212v-6.032a3.2,3.2,0,0,1,3.183-3.164l34.773-.044a3.22,3.22,0,0,1,3.218,3.217Z" transform="translate(101.419 901.495)"/>
        </g>
        <g id="Grupo_3403" data-name="Grupo 3403" transform="translate(2.719 54.801)">
          <path id="Caminho_9760" data-name="Caminho 9760" class="cls-6" d="M-6.528-806.053H-135.56a2.93,2.93,0,0,1-2.927-2.926v-41.2l58.042,11.409v6.146a1.732,1.732,0,0,0,1.731,1.731h15.356a1.733,1.733,0,0,0,1.731-1.731v-6.167L-3.6-850.2v41.216A2.93,2.93,0,0,1-6.528-806.053Zm-130.891-42.826v39.9a1.86,1.86,0,0,0,1.859,1.858H-6.528a1.86,1.86,0,0,0,1.859-1.858V-848.9l-55.89,10.985v5.288a2.8,2.8,0,0,1-2.8,2.8H-78.714a2.8,2.8,0,0,1-2.8-2.8v-5.268Z" transform="translate(138.487 850.195)"/>
        </g>
        <g id="Grupo_3404" data-name="Grupo 3404" transform="translate(0 16.493)">
          <path id="Caminho_9761" data-name="Caminho 9761" class="cls-6" d="M-80.221-835.233l-57.785-11.359a3.764,3.764,0,0,1-3.026-3.669v-32.056a3.743,3.743,0,0,1,3.739-3.739H-4.4a3.743,3.743,0,0,1,3.739,3.739V-850.2a3.754,3.754,0,0,1-3.061,3.614L-61.4-835.253v-5.231a1.732,1.732,0,0,0-1.731-1.731H-78.489a1.732,1.732,0,0,0-1.732,1.731Zm-57.072-49.755a2.673,2.673,0,0,0-2.671,2.671v32.055a2.691,2.691,0,0,0,2.164,2.623l.174.034,56.336,11.074v-3.953a2.8,2.8,0,0,1,2.8-2.8h15.356a2.8,2.8,0,0,1,2.8,2.8v3.932l56.322-11.07a2.71,2.71,0,0,0,2.281-2.593v-32.1A2.673,2.673,0,0,0-4.4-884.988Z" transform="translate(141.032 886.056)"/>
        </g>
        <g id="Grupo_3405" data-name="Grupo 3405" transform="translate(59.693 59.266)">
          <path id="Caminho_9762" data-name="Caminho 9762" class="cls-6" d="M-67-830.11H-82.354a2.8,2.8,0,0,1-2.8-2.8v-10.309a2.8,2.8,0,0,1,2.8-2.8H-67a2.8,2.8,0,0,1,2.8,2.8v10.309A2.8,2.8,0,0,1-67-830.11Zm-15.356-14.838a1.731,1.731,0,0,0-1.731,1.731v10.309a1.732,1.732,0,0,0,1.731,1.731H-67a1.733,1.733,0,0,0,1.731-1.731v-10.309A1.732,1.732,0,0,0-67-844.948Z" transform="translate(85.153 846.016)"/>
        </g>
      </g>
    </g>
  </g>
</svg>
