<?xml version="1.0" encoding="utf-8"?>
<svg xmlns="http://www.w3.org/2000/svg" xmlns:xlink="http://www.w3.org/1999/xlink" viewBox="0 0 40.73 66.83"><defs><style>.cls-1{fill:none;}.cls-2{clip-path:url(#clip-path);}.cls-3{opacity:0.5;}.cls-4{fill:#ffac90;}.cls-5{fill:#59316d;}.cls-6{fill:#263238;}.cls-7{fill:#663d32;}.cls-8{fill:#ff9592;}</style><clipPath id="clip-path" transform="translate(-212.96 -85.92)"><rect class="cls-1" width="433" height="589.28"/></clipPath></defs><title>rosto_confuso</title><g id="Layer_2" data-name="Layer 2"><g id="Layer_13" data-name="Layer 13"><g class="cls-2"><g class="cls-3"><path class="cls-4" d="M236.31,118.64c2.22,1.5,4.47,3,5.72,4.85s1.35,4-.62,5.66a7.89,7.89,0,0,1-4.51,1.62c-1.83.09-3.77-.47-4.42-1.44s.3-2.24,2.07-2.52a8.57,8.57,0,0,1-2.4-5.77,2.14,2.14,0,0,1,.88-2C233.79,118.53,235.54,118.12,236.31,118.64Z" transform="translate(-212.96 -85.92)"/></g><path class="cls-5" d="M244.4,125.1c-.58-3.06-4.44-5.44-8.55-7.21-.51-.21-1.28.19-.92.5,2.19,1.85,5,3.6,6,5.81a3,3,0,0,1-.34,3.4c-.85,1.05-2.35,1.5-3.64,2.31-.91.57-.91,1,.38.86C242,130.42,244.83,127.36,244.4,125.1Z" transform="translate(-212.96 -85.92)"/><path class="cls-6" d="M223.67,88.67a1.06,1.06,0,0,1-.68,0,6.32,6.32,0,0,0-8.18,2.2,1,1,0,1,1-1.7-1,8.27,8.27,0,0,1,10.7-3,1,1,0,0,1,.5,1.32A1,1,0,0,1,223.67,88.67Z" transform="translate(-212.96 -85.92)"/><path class="cls-6" d="M243.49,95.79a1,1,0,0,1,.67-.08A6.32,6.32,0,0,0,251.75,92a1,1,0,0,1,1.29-.59,1,1,0,0,1,.59,1.28,8.27,8.27,0,0,1-9.91,5,1,1,0,0,1-.23-1.87Z" transform="translate(-212.96 -85.92)"/><circle class="cls-7" cx="6.45" cy="18.4" r="3"/><circle class="cls-7" cx="34.39" cy="18.4" r="3"/><path class="cls-8" d="M234.12,148.63c-1,1.69-6.59,5.31-10.88,3.74s-3.27-6.75-2.32-8.43,5.05-3.94,9.35-2.38S235.07,147,234.12,148.63Z" transform="translate(-212.96 -85.92)"/><path class="cls-5" d="M219,143a25.48,25.48,0,0,1,4.62,1,42.44,42.44,0,0,1,4.39,1.57,43.94,43.94,0,0,1,4.19,2.06,24.55,24.55,0,0,1,3.91,2.63,31.86,31.86,0,0,1-4.54-1.21c-1.47-.49-2.92-1-4.34-1.63s-2.82-1.27-4.2-2A32.91,32.91,0,0,1,219,143Z" transform="translate(-212.96 -85.92)"/></g></g></g></svg>