<svg xmlns="http://www.w3.org/2000/svg" xmlns:xlink="http://www.w3.org/1999/xlink" viewBox="0 0 43.08 66.62"><defs><style>.cls-1{fill:none;}.cls-2{clip-path:url(#clip-path);}.cls-3{opacity:0.5;}.cls-4{fill:#ffac90;}.cls-5{fill:#59316d;}.cls-6{fill:#263238;}.cls-7{fill:#663d32;}.cls-8{fill:#ff9592;}</style><clipPath id="clip-path" transform="translate(-210.17 -86.14)"><rect class="cls-1" width="433" height="589.28"/></clipPath></defs><title>rosto_feliz</title><g id="Layer_2" data-name="Layer 2"><g id="Layer_13" data-name="Layer 13"><g class="cls-2"><g class="cls-3"><path class="cls-4" d="M236.31,118.64c2.22,1.5,4.47,3,5.72,4.85s1.35,4-.62,5.66a7.89,7.89,0,0,1-4.51,1.62c-1.83.09-3.77-.47-4.42-1.44s.3-2.24,2.07-2.52a8.57,8.57,0,0,1-2.4-5.77,2.14,2.14,0,0,1,.88-2C233.79,118.53,235.54,118.12,236.31,118.64Z" transform="translate(-210.17 -86.14)"/></g><path class="cls-5" d="M244.4,125.1c-.58-3.06-4.44-5.44-8.55-7.21-.51-.21-1.28.19-.92.5,2.19,1.85,5,3.6,6,5.81a3,3,0,0,1-.34,3.4c-.85,1.05-2.35,1.5-3.64,2.31-.91.57-.91,1,.38.86C242,130.42,244.83,127.36,244.4,125.1Z" transform="translate(-210.17 -86.14)"/><path class="cls-6" d="M221,90a1,1,0,0,1-.64-.22,6.31,6.31,0,0,0-8.47,0,1,1,0,0,1-1.42-.06,1,1,0,0,1,0-1.4,8.27,8.27,0,0,1,11.11,0,1,1,0,0,1,.14,1.41A1,1,0,0,1,221,90Z" transform="translate(-210.17 -86.14)"/><path class="cls-6" d="M252.24,90a1,1,0,0,1-.63-.22,6.32,6.32,0,0,0-8.48,0,1,1,0,0,1-1.41-.06,1,1,0,0,1,0-1.4,8.27,8.27,0,0,1,11.11,0,1,1,0,0,1,.14,1.41A1,1,0,0,1,252.24,90Z" transform="translate(-210.17 -86.14)"/><circle class="cls-7" cx="9.24" cy="18.18" r="3"/><circle class="cls-7" cx="37.18" cy="18.18" r="3"/><path class="cls-8" d="M234.12,148.63c-1,1.69-6.59,5.31-10.88,3.74s-3.27-6.75-2.32-8.43,5.05-3.94,9.35-2.38S235.07,147,234.12,148.63Z" transform="translate(-210.17 -86.14)"/><g id="Caminho_6549" data-name="Caminho 6549"><path class="cls-5" d="M220,141.56c.66-.16,2.13,3.47,7.07,5.07s9.54,0,9.91.44-.81,1-2.84,1.56a15,15,0,0,1-8.19-.16,9.93,9.93,0,0,1-5.66-4.33C219.49,142.66,219.65,141.62,220,141.56Z" transform="translate(-210.17 -86.14)"/></g></g></g></g></svg>