<svg xmlns="http://www.w3.org/2000/svg" xmlns:xlink="http://www.w3.org/1999/xlink" viewBox="0 0 402.46 883.07"><defs><style>.cls-1{fill:none;}.cls-2{clip-path:url(#clip-path);}.cls-3{fill:#ffccbc;}.cls-4{fill:#59316d;}.cls-5{fill:#ffac90;}.cls-6{fill:#263238;}.cls-7{fill:#fff;}.cls-8{fill:#bc7261;}.cls-9{fill:#d07f68;}.cls-10{fill:#cbe7de;}.cls-11{fill:#f9afa1;}.cls-12{fill:#a48a7b;}.cls-13{fill:#ffcb86;}.cls-14{fill:#e8a246;}.cls-15{fill:#c6c6c6;}.cls-16{fill:#f6f6f6;}.cls-17{fill:#7c6255;}.cls-18{opacity:0.27;}.cls-19{fill:#ddd;}.cls-20{fill:#ededed;}.cls-21{fill:#dadada;}.cls-22{fill:#fff7e0;}.cls-23{fill:#535c89;}.cls-24{opacity:0.8;}.cls-25{fill:#ef9286;}.cls-26{fill:#92bdf4;}.cls-27{fill:#d6e3f4;}.cls-28{fill:#cfdff4;}</style><clipPath id="clip-path" transform="translate(-15.87 -38.23)"><rect class="cls-1" width="433" height="589.28"/></clipPath></defs><title>personagem_dialogo</title><g id="Layer_2" data-name="Layer 2"><g id="Layer_13" data-name="Layer 13"><g class="cls-2"><path class="cls-3" d="M141.7,254.64a81.22,81.22,0,0,0,.64-17.69" transform="translate(-15.87 -38.23)"/><path class="cls-3" d="M252.62,143.2c.1-1.74.13-3.48.1-5.21-.23-12.77-.05-25.55-.43-38.33-.4-13.67-1.5-27.59-11.93-37.31-8.89-8.29-19.6-9-30.91-8.77-33.6.55-37.86,28-37.86,28s-3.85,16.19,1.8,28.75l-.34-.07a10,10,0,0,0-6.5,5.17,10.58,10.58,0,0,0,.87,10.24c2.34,3.62,6.89,5.77,11.44,5.87,2.1,14.06-.74,43.59-3.54,58.18-2.37,12.36,24.86,7,38.3,5.7.28-9.09-2.09-23.51.5-30.76,6.49,2.28,12.87,5.51,20.57,4.72a14.53,14.53,0,0,0,8.74-3.66C249.94,159.64,252.15,151.46,252.62,143.2Z" transform="translate(-15.87 -38.23)"/><path class="cls-4" d="M188.89,198.69c-5.81,0-10.73-.82-13.13-3.4a6.25,6.25,0,0,1-1.42-5.76c2.8-14.6,5.48-43,3.64-57-4.72-.36-9.13-2.76-11.4-6.28a11.59,11.59,0,0,1-.93-11.23,10.82,10.82,0,0,1,6.32-5.45C167,97,170.46,82,170.61,81.35c0-.2,4.78-28.21,38.83-28.77,10.9-.18,22.31.37,31.61,9,10.55,9.84,11.81,23.59,12.24,38,.22,7.41.26,14.93.29,22.21,0,5.29,0,10.76.14,16.13,0,1.88,0,3.61-.1,5.29h0c-.58,10.17-3.69,17.76-9.51,23.19a15.58,15.58,0,0,1-9.32,3.93c-6.54.67-12.12-1.45-17.52-3.49-.84-.32-1.67-.64-2.51-.94-1.28,4.67-.87,11.84-.48,18.79.23,3.9.44,7.58.34,10.71a1,1,0,0,1-.9,1c-1.94.19-4.2.46-6.58.75A158.9,158.9,0,0,1,188.89,198.69Zm-15.81-87.4a9,9,0,0,0-5.63,4.57,9.56,9.56,0,0,0,.81,9.27c2.06,3.19,6.23,5.31,10.62,5.41a1,1,0,0,1,1,.85c2.08,14-.66,43.49-3.54,58.51a4.33,4.33,0,0,0,.91,4c4.08,4.37,18.87,2.57,29.68,1.25,2-.25,4-.49,5.74-.67,0-2.85-.15-6.17-.35-9.65-.44-7.65-.89-15.56.89-20.54a1,1,0,0,1,1.27-.61c1.18.42,2.35.86,3.53,1.31,5.18,2,10.54,4,16.61,3.37a13.5,13.5,0,0,0,8.16-3.4c5.42-5.06,8.32-12.21,8.88-21.84.09-1.63.12-3.31.09-5.14-.1-5.39-.12-10.87-.14-16.16,0-7.27-.07-14.78-.28-22.16-.42-14-1.62-27.29-11.62-36.61-8.75-8.16-19.29-8.68-30.21-8.5-32.33.53-36.72,26.07-36.9,27.16,0,.23-3.71,16.09,1.73,28.18a1,1,0,0,1-.14,1,1,1,0,0,1-1,.35Zm79.54,31.91h0Z" transform="translate(-15.87 -38.23)"/><path class="cls-5" d="M191.78,146.89c8,16,9.81,33.8,12,51.54a46.67,46.67,0,0,0,9.87.28c.52-10-2.15-26.06.45-34.05,1.21.47,4,1.48,4,1.48C213.33,164.12,207.77,160.12,191.78,146.89Z" transform="translate(-15.87 -38.23)"/><path class="cls-5" d="M177.53,116.86c-1.86-1.39-5.45-2.28-7.25-.33a1.05,1.05,0,0,0,.37,1.74c1.19.3,2.41.1,3.58.58a4.26,4.26,0,0,1,2.31,2.28c.59,1.35.1,5.3,2.64,4.47a1.94,1.94,0,0,0,1.41-1.73A7.57,7.57,0,0,0,177.53,116.86Z" transform="translate(-15.87 -38.23)"/><path class="cls-6" d="M282.93,253.78c-.78-14.78-5.86-29.06-9.79-43.39A235.79,235.79,0,0,1,264,139.82c.42-13,2.13-25.95,1.71-38.94q-.06-1.51-.15-3c.07-3.26,0-6.52-.16-9.74-.6-12.29-3.26-25.35-11.88-34.65-9.87-10.64-24.81-17.71-39-12.42a54.65,54.65,0,0,0-62.71,35.8c-5,14.67-3.59,30.69-6,46-7,45.49-46.64,81.34-52.11,127a91.2,91.2,0,0,0,45.41,88.46c5,2.81,11.67,4.83,16,1.1,3.76-3.26,3.45-9,4.37-13.86,2.56-13.24,15.91-22,29.2-24.35s26.85.17,40.28,1.07,28.05-.22,38.6-8.41C279.31,284.69,283.72,268.56,282.93,253.78ZM252.62,143.2c-.47,8.26-2.68,16.44-9.19,22.52a14.53,14.53,0,0,1-8.74,3.66c-7.7.79-14.08-2.44-20.57-4.72-2.59,7.25-.22,21.67-.5,30.76-13.44,1.29-40.67,6.66-38.3-5.7,2.8-14.59,5.64-44.12,3.54-58.18-4.55-.1-9.1-2.25-11.44-5.87a10.58,10.58,0,0,1-.87-10.24,9.07,9.07,0,0,1,1.36-2c12.62-6.5,23.49-9.9,32.53-20.86,13.18-16,20.42-28.41,23-36,12.72,3.08,22.27,20.67,28.57,37.05.11,2,.19,4,.25,6,.39,12.78.2,25.56.43,38.33C252.75,139.72,252.72,141.46,252.62,143.2Z" transform="translate(-15.87 -38.23)"/><path class="cls-4" d="M161.14,180a5.5,5.5,0,0,0,.14-1.4,32.5,32.5,0,0,0-.14-4.07A74,74,0,0,0,158,159.9a165.13,165.13,0,0,1-5.61-21.21,39,39,0,0,1,0-12.76,25.24,25.24,0,0,1,5.47-12.28,50.37,50.37,0,0,1,11-8.42A70.18,70.18,0,0,0,179,96.82a91.6,91.6,0,0,0,13.63-17.48,124,124,0,0,0,7-13.21c.73-1.6,1.24-2.8,1.57-3.73a4.3,4.3,0,0,0,.45-1.35s-.92,1.71-2.52,4.86-4,7.6-7.32,12.9a93.08,93.08,0,0,1-13.72,17,67.24,67.24,0,0,1-10,8.11,50,50,0,0,0-11.22,8.55,26.25,26.25,0,0,0-5.78,13,40.11,40.11,0,0,0,0,13.21A151.6,151.6,0,0,0,157.16,160a83.41,83.41,0,0,1,3.53,14.36C161.06,178.07,161,180,161.14,180Z" transform="translate(-15.87 -38.23)"/><path class="cls-4" d="M158.36,113.42a24.44,24.44,0,0,0,4.18-5.27,77.33,77.33,0,0,0,11.73-30.07,24,24,0,0,0,.5-6.7,185.31,185.31,0,0,1-6.11,21.82A180.37,180.37,0,0,1,158.36,113.42Z" transform="translate(-15.87 -38.23)"/><path class="cls-4" d="M149.31,342.38c-4.21,0-8.47-2-10.62-3.24a92.29,92.29,0,0,1-45.92-89.45c2.82-23.49,14.77-44.69,26.32-65.19,11-19.52,22.39-39.72,25.8-61.81.87-5.61,1.22-11.43,1.57-17.07.6-9.69,1.21-19.72,4.42-29.1a55.14,55.14,0,0,1,3.69-8.41A56,56,0,0,1,214.46,40c15.43-5.59,30.67,2.91,39.82,12.77,7.41,8,11.38,19.53,12.15,35.28.17,3.52.23,6.73.16,9.81.06.94.11,2,.15,3a242.8,242.8,0,0,1-.87,24.35c-.34,4.8-.69,9.77-.85,14.65a234.74,234.74,0,0,0,9.08,70.26c.82,3,1.7,6,2.55,8.95,3.27,11.23,6.65,22.85,7.28,34.67.91,17.22-5,32.5-15.73,40.87-9,7-21.82,9.79-39.28,8.62-3.36-.23-6.79-.56-10.1-.88-9.88-1-20.09-1.95-29.93-.2-12.29,2.18-25.84,10.31-28.39,23.55-.21,1.11-.36,2.31-.51,3.46-.51,4-1,8.22-4.2,11A9.57,9.57,0,0,1,149.31,342.38ZM203.69,40.94a54,54,0,0,0-47.36,28.12,53.19,53.19,0,0,0-3.56,8.11c-3.12,9.12-3.72,19-4.31,28.58-.35,5.67-.71,11.54-1.59,17.25-3.47,22.45-15,42.8-26,62.49-11.46,20.32-23.3,41.34-26.07,64.43a90.27,90.27,0,0,0,44.91,87.48c3,1.66,10.33,5.1,14.81,1.2,2.59-2.24,3.05-5.86,3.53-9.69.14-1.19.3-2.42.52-3.59,2.74-14.19,17-22.85,30-25.15,10.11-1.79,20.46-.79,30.47.18,3.3.32,6.71.65,10.05.87,16.94,1.14,29.35-1.55,37.91-8.2,10.25-8,15.84-22.62,15-39.19h0c-.61-11.59-4-23.09-7.2-34.22-.85-2.93-1.73-6-2.55-9A236.63,236.63,0,0,1,263,139.79c.15-4.92.5-9.91.84-14.73a239.26,239.26,0,0,0,.87-24.14c0-1-.09-2-.15-3,.07-3.12,0-6.28-.16-9.76-.74-15.26-4.54-26.38-11.61-34-8.77-9.45-23.33-17.6-37.93-12.16a1.06,1.06,0,0,1-.56,0A52.7,52.7,0,0,0,203.69,40.94Zm-14.8,157.75c-5.81,0-10.73-.83-13.13-3.4a6.25,6.25,0,0,1-1.42-5.76c2.8-14.6,5.48-43,3.64-57-4.72-.36-9.13-2.76-11.4-6.28a11.59,11.59,0,0,1-.93-11.23,10.38,10.38,0,0,1,1.51-2.24,1.09,1.09,0,0,1,.29-.23c2.69-1.38,5.29-2.62,7.8-3.82,9.36-4.46,17.43-8.31,24.42-16.78C211.18,78,219.51,65,222.52,56.27a1,1,0,0,1,1.18-.65c10.83,2.62,20.67,15.29,29.27,37.67a.94.94,0,0,1,.07.3c.1,1.83.19,3.81.25,6,.22,7.41.26,14.93.29,22.21,0,5.29,0,10.76.14,16.13,0,1.88,0,3.61-.1,5.29h0c-.58,10.17-3.69,17.76-9.51,23.19a15.58,15.58,0,0,1-9.32,3.93c-6.54.67-12.12-1.45-17.52-3.49-.84-.32-1.67-.64-2.51-.94-1.28,4.67-.87,11.84-.48,18.79.23,3.9.44,7.58.34,10.71a1,1,0,0,1-.9,1c-1.94.19-4.2.46-6.58.75A158.9,158.9,0,0,1,188.89,198.69Zm-20.35-84.48a8.11,8.11,0,0,0-1.09,1.65,9.56,9.56,0,0,0,.81,9.27c2.06,3.19,6.23,5.31,10.62,5.41a1,1,0,0,1,1,.85c2.08,14-.66,43.49-3.54,58.51a4.33,4.33,0,0,0,.91,4c4.08,4.37,18.87,2.57,29.68,1.25,2-.25,4-.49,5.74-.67,0-2.85-.15-6.17-.35-9.65-.44-7.65-.89-15.56.89-20.54a1,1,0,0,1,1.27-.61c1.18.42,2.35.86,3.53,1.31,5.18,2,10.54,4,16.61,3.37a13.5,13.5,0,0,0,8.16-3.4c5.42-5.06,8.32-12.21,8.88-21.84.09-1.63.12-3.31.09-5.14-.1-5.39-.12-10.87-.14-16.16,0-7.27-.07-14.78-.28-22.16-.07-2.15-.15-4.06-.25-5.83-8-20.72-17.28-33.15-27-36.06-3.32,8.91-11.6,21.73-22.88,35.39C194,102,185.68,105.94,176.12,110.5,173.67,111.67,171.14,112.88,168.54,114.21Zm84.08,29h0Z" transform="translate(-15.87 -38.23)"/><path class="cls-7" d="M158.51,403.37s-26.75,15.23-39.3,58.26C104.76,498,98.41,662.92,97.81,679.56L58.54,749.1a167.92,167.92,0,0,0-17.79,46.26L16.87,902.54c7.49,11,41,11.88,41,11.88l98.68-214.14.14-.28c.16-.33.33-.66.48-1l.07-.15.12-.27.36-.87.24-.65c.08-.21.16-.43.23-.65s.19-.6.28-.89l.09-.28s65.32-146.72,81.52-205.16c5.29-15.6,11.19-55.6,11.8-64.73Z" transform="translate(-15.87 -38.23)"/><path class="cls-8" d="M168.51,403.37s-26.75,15.23-39.3,58.26c-14.45,36.36-20.8,201.29-21.4,217.93L68.54,749.1a167.92,167.92,0,0,0-17.79,46.26L26.87,902.54c7.49,11,41,11.88,41,11.88l98.68-214.14.14-.28c.16-.33.33-.66.48-1l.07-.15.12-.27.36-.87.24-.65c.08-.21.16-.43.23-.65s.19-.6.28-.89l.09-.28s65.32-146.72,81.52-205.16c5.29-15.6,11.19-55.6,11.8-64.73Z" transform="translate(-15.87 -38.23)"/><path class="cls-4" d="M57.86,915.42h0c-1.39,0-34.11-1.07-41.8-12.31a1,1,0,0,1-.15-.78L39.77,795.14a169.26,169.26,0,0,1,17.9-46.53l39.14-69.33c.72-19.64,7.07-181.79,21.47-218,6.5-22.32,16.94-37.1,24.54-45.56,8.27-9.21,14.91-13,15.19-13.2a1,1,0,0,1,.73-.11l93.36,22a1,1,0,0,1,.77,1c-.59,8.79-6.5,49.22-11.86,65-15.9,57.39-80,201.75-81.52,205.19l-.07.21c-.09.31-.19.62-.29.93l-.24.67c-.08.23-.16.45-.25.67s-.25.61-.38.91l-.12.28,0,.11c-.18.39-.35.74-.52,1.08l-.15.29L58.77,914.84A1,1,0,0,1,57.86,915.42Zm-39.92-13.1c7,9.28,34.67,10.87,39.3,11.08l98.39-213.54.15-.31c.17-.32.32-.64.47-1l.05-.09.13-.31c.12-.28.24-.56.35-.84s.16-.41.23-.62.15-.42.22-.63.19-.57.27-.86l.09-.27a.69.69,0,0,1,0-.13c.65-1.47,65.47-147.31,81.46-205,5.17-15.23,10.84-53.49,11.71-63.7l-92.13-21.69c-3.08,1.93-27,17.94-38.51,57.48C105.8,498.07,99.48,661.12,98.8,679.6a1,1,0,0,1-.12.45L59.41,749.59a167,167,0,0,0-17.68,46ZM97.8,679.56h0Z" transform="translate(-15.87 -38.23)"/><path class="cls-7" d="M408.33,897.36,345.47,697.15a27.25,27.25,0,0,0-1-3.08,28.67,28.67,0,0,0-3-5.94c-5.13-11.55-56.62-127-89.46-185.59h0c-11-31.44-.71-69.8,3.32-90l-91-23-8.48,7.38a88,88,0,0,0-6.28,7.36c-9.51,12.33-23.39,29.78-27.84,44.52-3.25,10.74-5.94,22.12-5.74,33.41h0s0,1,.11,2.78c0,.07,0,.13,0,.2,0,.25,0,.5.07.77a55.35,55.35,0,0,0,1.49,9.25c2.41,11.11,8.28,28.87,22.51,51.51,17.42,35.57,135.52,157.43,148.75,171l20.9,76.15a179.88,179.88,0,0,0,20.06,46.29l40.32,80.11C399.65,916.77,408.33,897.36,408.33,897.36Z" transform="translate(-15.87 -38.23)"/><path class="cls-9" d="M418.33,897.36,355.47,697.15a27.25,27.25,0,0,0-1-3.08,28.67,28.67,0,0,0-3-5.94c-5.13-11.55-56.62-127-89.46-185.59h0c-11-31.44-.71-69.8,3.32-90l-91-23-8.48,7.38a88,88,0,0,0-6.28,7.36c-9.51,12.33-23.39,29.78-27.84,44.52-3.25,10.74-5.94,22.12-5.74,33.41h0s0,1,.11,2.78c0,.07,0,.13,0,.2,0,.25,0,.5.07.77a55.35,55.35,0,0,0,1.49,9.25c2.41,11.11,8.28,28.87,22.51,51.51,17.42,35.57,135.52,157.43,148.75,171l20.9,76.15a179.88,179.88,0,0,0,20.06,46.29l40.32,80.11C409.65,916.77,418.33,897.36,418.33,897.36Z" transform="translate(-15.87 -38.23)"/><path class="cls-4" d="M370.23,921.29a1,1,0,0,1-.89-.55L329,840.63a181.06,181.06,0,0,1-20.12-46.47l-20.84-75.91c-14.23-14.64-131.25-135.47-148.73-171-14.34-22.83-20.21-40.76-22.61-51.79A56.84,56.84,0,0,1,115.2,486c0-.26,0-.52-.06-.77l0-.22c-.14-1.84-.11-2.83-.11-2.87v-.05c-.2-12.2,3-24.37,5.78-33.62,4.27-14.13,17.09-30.72,26.45-42.83l1.56-2a83.69,83.69,0,0,1,6.36-7.44l8.54-7.45a1,1,0,0,1,.9-.21l91,23a1,1,0,0,1,.74,1.16c-.44,2.19-.95,4.59-1.49,7.17-4.6,21.71-11.55,54.5-1.89,82.27,32.7,58.31,83.55,172.28,89.42,185.5a30,30,0,0,1,3.1,6.07,28.7,28.7,0,0,1,1,3.18l62.84,200.16a1,1,0,0,1,0,.71c-.36.81-9.25,20-38.89,23.52ZM117,482.31c0,.27,0,1.16.1,2.59l0,.22c0,.22,0,.47.06.74a55.92,55.92,0,0,0,1.47,9.1c2.37,10.9,8.17,28.61,22.38,51.22l.06.09c17.34,35.4,135.19,157,148.57,170.77a1,1,0,0,1,.24.43l20.91,76.16a178.69,178.69,0,0,0,19.94,46l40,79.55c25.86-3.36,35.16-19.43,36.46-21.93L344.52,697.45a25.73,25.73,0,0,0-.94-3,27.67,27.67,0,0,0-2.93-5.73,1.09,1.09,0,0,1-.08-.15c-5.71-12.85-56.7-127.18-89.42-185.51a.94.94,0,0,1-.1-.23c-9.84-28.3-2.82-61.41,1.82-83.33.47-2.21.91-4.29,1.3-6.21l-89.55-22.63-8.09,7a86.46,86.46,0,0,0-6.15,7.21l-1.56,2c-9.26,12-21.95,28.42-26.12,42.19-2.76,9.13-5.9,21.15-5.69,33.1Z" transform="translate(-15.87 -38.23)"/><path class="cls-3" d="M153.64,191.32c-16.41,13.55-15.17,36.33-12.95,55.51,3,25.84,13.35,49.88,17.15,75.32,10.06,67.38-8.53,89.58-8.53,89.58,40.17,29.86,53.46,44.07,100.71,26.84,8.67-38.2,13.45-78.11,18.42-116.07,0,0,21.88-26.65,14.42-56-1.86-7.3-2.28-14.14-29.56-38.88-21.68-19.67-44.58-44-74.3-43.76-6.73.06-13.63.78-19.68,3.74A28.69,28.69,0,0,0,153.64,191.32Z" transform="translate(-15.87 -38.23)"/><path class="cls-7" d="M153.64,191.32c-16.41,13.55-15.17,36.33-12.95,55.51,3,25.84,13.35,49.88,17.15,75.32,10.06,67.38-25.77,96.77-25.77,96.77,40.16,29.86,83.45,38.68,123.07,35.95,5.34-34.21,8.33-94.41,13.3-132.37,0,0,21.88-26.65,14.42-56-1.86-7.3-2.28-14.14-29.56-38.88-15.14-13.73-23.15-32.27-44.65-38-9.59-2.55-19.6-5.86-29.65-5.78-6.73.06-13.63.78-19.68,3.74A28.69,28.69,0,0,0,153.64,191.32Z" transform="translate(-15.87 -38.23)"/><path class="cls-10" d="M163.64,191.32c-16.41,13.55-15.17,36.33-12.95,55.51,3,25.84,13.35,49.88,17.15,75.32,10.06,67.38-25.77,96.77-25.77,96.77,40.16,29.86,83.45,38.68,123.07,35.95,5.34-34.21,8.33-94.41,13.3-132.37,0,0,21.88-26.65,14.42-56-1.86-7.3-2.28-14.14-29.56-38.88-15.14-13.73-23.15-32.27-44.65-38-9.59-2.55-19.6-5.86-29.65-5.78-6.73.06-13.63.78-19.68,3.74A28.69,28.69,0,0,0,163.64,191.32Z" transform="translate(-15.87 -38.23)"/><path class="cls-4" d="M241.27,456.36c-40.18,0-77.06-12.3-109.8-36.64a1,1,0,0,1-.4-.77,1,1,0,0,1,.36-.8c.36-.29,35.28-29.87,25.42-95.86-1.77-11.87-5-23.67-8.21-35.08-3.61-13-7.34-26.47-8.94-40.27-2.33-20.05-3.4-42.59,13.3-56.4h0a30.61,30.61,0,0,1,5.88-3.81c6.75-3.31,14.3-3.79,20.12-3.84,8.58-.08,17.05,2.28,25.26,4.54,1.56.44,3.11.86,4.65,1.27,15,4,23.43,13.93,32.32,24.45A141.28,141.28,0,0,0,254,226.91c26,23.57,27.8,31,29.56,38.16.09.41.19.81.3,1.21,7.13,28-12.32,53.92-14.44,56.62-2.26,17.36-4.14,39.71-6,61.32-2.17,25.69-4.4,52.26-7.3,70.81a1,1,0,0,1-.92.84Q248.18,456.35,241.27,456.36ZM133.65,418.85c35.65,26.17,76.22,38,120.63,35.08,2.82-18.44,5-44.58,7.16-69.87,1.83-21.76,3.73-44.25,6-61.69a1,1,0,0,1,.21-.51c.22-.26,21.48-26.61,14.23-55.09-.11-.41-.21-.81-.31-1.22-1.68-6.89-3.42-14-28.95-37.16a142.36,142.36,0,0,1-12.92-13.95c-8.69-10.27-16.89-20-31.31-23.8-1.55-.41-3.11-.85-4.67-1.28-8.08-2.23-16.42-4.54-24.72-4.47-5.6.05-12.86.5-19.25,3.64a27.79,27.79,0,0,0-5.48,3.56c-15.94,13.16-14.86,35.1-12.6,54.62,1.58,13.65,5.3,27,8.89,40C153.75,298.15,157,310,158.83,322c5.24,35.06-2.11,59.72-9.2,74.24C143.29,409.21,136.19,416.5,133.65,418.85Z" transform="translate(-15.87 -38.23)"/><path class="cls-4" d="M251.87,512.37a.86.86,0,0,1-.72-.37l-5.94-8.2a.88.88,0,0,1,.2-1.24.9.9,0,0,1,1.25.2l5.93,8.2a.88.88,0,0,1-.2,1.24A.83.83,0,0,1,251.87,512.37Z" transform="translate(-15.87 -38.23)"/><path class="cls-4" d="M259.56,507.64a.87.87,0,0,1-.68-.31l-8.44-9.92a.89.89,0,0,1,1.36-1.16l8.44,9.92a.9.9,0,0,1-.1,1.26A.92.92,0,0,1,259.56,507.64Z" transform="translate(-15.87 -38.23)"/><path class="cls-7" d="M184.07,398.85l-39.7-15.51L153.66,366l32.86,15.51c3.32-11,47.29-75.89,39.5-106.82,0,0-14-36.73-30.63-75.83-6.39-15-35.09-13-35.09-13,1.56-5.7,15.78-5.88,15.78-5.88s24.29,4.5,28.69,13.68c7.14,14.88,23.6,43.26,23.6,43.26s33-1.69,33.35-1.42c19.69,16.18,23.95,32.54,22.69,48.6A111.94,111.94,0,0,1,280.14,305c-1.07,3.48-11.7,17.51-11.7,17.51l-6.27,129.16s4,25.88,47.16,117.65c2,4.2,24,58.2,33,80.28a6.91,6.91,0,0,1-6.26,9.52l-150.15,3.22a7,7,0,0,1-7.39-6.73c-.86-23.48-4.53-97.21-4.64-103.9-.86-50.79,4.16-101.49,10.05-151.9C184,399.48,184,399.17,184.07,398.85Z" transform="translate(-15.87 -38.23)"/><path class="cls-11" d="M194.07,398.85l-39.7-15.51L163.66,366l32.86,15.51c3.32-11,47.29-75.89,39.5-106.82,0,0-14-36.73-30.63-75.83-6.39-15-35.09-13-35.09-13,1.56-5.7,15.78-5.88,15.78-5.88s24.29,4.5,28.69,13.68c7.14,14.88,23.6,43.26,23.6,43.26s33-1.69,33.35-1.42c19.69,16.18,23.95,32.54,22.69,48.6A111.94,111.94,0,0,1,290.14,305c-1.07,3.48-11.7,17.51-11.7,17.51l-6.27,129.16s4,25.88,47.16,117.65c2,4.2,24,58.2,33,80.28a6.91,6.91,0,0,1-6.26,9.52l-150.15,3.22a7,7,0,0,1-7.39-6.73c-.86-23.48-4.53-97.21-4.64-103.9-.86-50.79,4.16-101.49,10.05-151.9C194,399.48,194,399.17,194.07,398.85Z" transform="translate(-15.87 -38.23)"/><path class="cls-4" d="M185.51,663.34a8,8,0,0,1-8-7.7c-.45-12.24-1.66-38.19-2.73-61.08-1-21.26-1.86-39.63-1.91-42.84-.9-53.19,4.72-106.37,10.05-152l0-.18-39-15.23a1,1,0,0,1-.52-1.4l9.29-17.33a1,1,0,0,1,1.31-.43l31.85,15c1.24-3.16,4.31-8.72,8.37-16.1,13.63-24.77,36.45-66.21,30.75-89-.62-1.63-14.42-37.8-30.59-75.74-6-14.15-33.82-12.39-34.1-12.37a1,1,0,0,1-1-1.26c1.72-6.25,15.21-6.6,16.74-6.62a.8.8,0,0,1,.31,0l.31.07c7.43,1.57,25.13,6.1,29,14.14,6.51,13.56,21,38.7,23.26,42.66,32.8-1.68,33-1.48,33.42-1.16,17.27,14.18,24.6,29.89,23.06,49.45a114.85,114.85,0,0,1-4.31,21.08c-1,3.39-10,15.28-11.68,17.56l-6.25,128.73h0c.94,4.87,7.64,33.42,47.06,117.29,2,4.2,23.77,57.57,33,80.33a7.92,7.92,0,0,1-7.17,10.9L186,663.33ZM145.78,382.82l38.65,15.1a1,1,0,0,1,.63,1.05l-.11.94c-5.33,45.61-10.94,98.71-10,151.77.05,3.19.91,21.54,1.91,42.79,1.06,22.9,2.28,48.84,2.73,61.09a6,6,0,0,0,6.33,5.77l150.19-3.22a5.92,5.92,0,0,0,5.35-8.15c-9.27-22.74-31.05-76.07-33-80.23C268.9,485.65,262.16,456.88,261.21,452h0a1,1,0,0,1,0-.35l6.27-129.16a1,1,0,0,1,.2-.56c2.93-3.86,10.71-14.48,11.55-17.19a112.52,112.52,0,0,0,4.22-20.65c1.48-18.76-5.54-33.87-22.09-47.55-2.51-.05-20.75.82-32.9,1.44a1,1,0,0,1-.91-.49c-.17-.29-16.57-28.58-23.64-43.32-2.41-5-12.72-9.91-27.59-13L176,181c-3.36.06-11.33.87-14,3.81a73.32,73.32,0,0,1,13.6,1c10.78,1.85,17.94,6.25,20.69,12.7,16.48,38.66,30.5,75.5,30.64,75.87a.49.49,0,0,1,0,.11C232.93,298,209.85,340,196.06,365c-4.35,7.91-7.79,14.15-8.59,16.81a1,1,0,0,1-.55.62,1,1,0,0,1-.83,0l-32-15.11Z" transform="translate(-15.87 -38.23)"/><path class="cls-12" d="M290.1,312.43l-3.81,9.11a4.15,4.15,0,0,1-3-1.14l3.14-9.37Z" transform="translate(-15.87 -38.23)"/><path class="cls-13" d="M279.77,338.44a1.07,1.07,0,0,1,.53,1.54l-24.61,62.46a1.94,1.94,0,0,1-2.09,1.41h0c-.92-.21-1.33-1.4-.91-2.57l22.9-63.16a1.1,1.1,0,0,1,1.51-.63Z" transform="translate(-15.87 -38.23)"/><path class="cls-14" d="M279.77,338.44a1.07,1.07,0,0,1,.53,1.54l-24.61,62.46a1.94,1.94,0,0,1-2.09,1.41h0c-.92-.21-1.33-1.4-.91-2.57l22.9-63.16a1.1,1.1,0,0,1,1.51-.63Z" transform="translate(-15.87 -38.23)"/><path class="cls-15" d="M286.29,321.55l-6.41,19.91c-.93,1-5.31.09-4.9-2l8.26-19A8.38,8.38,0,0,0,286.29,321.55Z" transform="translate(-15.87 -38.23)"/><path class="cls-16" d="M284.16,321.55a1.41,1.41,0,0,1-.83-.48l-7.66,18.15c.06.86.57,1.13,1.33,1.37Z" transform="translate(-15.87 -38.23)"/><path class="cls-17" d="M284.77,319.24c0-.06,0-.18-.11-.35a3.31,3.31,0,0,1,0-1.07,31.15,31.15,0,0,1,1-3.28,20.56,20.56,0,0,1,1-3.3l.05-.1.33.13a.93.93,0,0,1,0,.1c-.23.84-.25,2-.64,3.37A31.27,31.27,0,0,1,285,317.9a3.2,3.2,0,0,0-.21,1C284.78,319.06,284.78,319.19,284.77,319.24Z" transform="translate(-15.87 -38.23)"/><path class="cls-17" d="M287,316.24c-.28.37-.55.68-.74,1a2.89,2.89,0,0,0-.39.71l-.1.29s0-.12,0-.31a2.47,2.47,0,0,1,.16-.86c.22-.71.86-1.5,1.08-2.42s.23-1.95.45-2.65l.17-.47.23.09c0,.13,0,.28,0,.44a12,12,0,0,1-.1,2.78A3.83,3.83,0,0,1,287,316.24Z" transform="translate(-15.87 -38.23)"/><path class="cls-17" d="M288.44,315.9a4.77,4.77,0,0,1-.45.84l-.52.69a10.1,10.1,0,0,0-.84,1.07,2.74,2.74,0,0,0-.33.85c0,.17,0,.28-.05.33a2.24,2.24,0,0,1,0-1.32,5.43,5.43,0,0,1,.67-1.31l.42-.69a6.55,6.55,0,0,0,.37-.75c.41-1.07.7-2.17,1-2.92L289,312l.18.07c0,.2,0,.43-.07.7A13.67,13.67,0,0,1,288.44,315.9Z" transform="translate(-15.87 -38.23)"/><path class="cls-4" d="M295.74,337.18a7.74,7.74,0,0,1,1.39-6.31,11.78,11.78,0,0,1,5.32-3.89,14.3,14.3,0,0,0,2-.86,5,5,0,0,0,2.43-4.81,6.79,6.79,0,0,1,1.05,4.82,16.59,16.59,0,0,1-1.55,4.79,15.94,15.94,0,0,1-3.66,5.55,6.46,6.46,0,0,1-6.18,1.61,1.3,1.3,0,0,1-.54-.3A1.36,1.36,0,0,1,295.74,337.18Z" transform="translate(-15.87 -38.23)"/><g class="cls-18"><path class="cls-7" d="M296.92,335.89l0-.59a5.06,5.06,0,0,1,.27-1.55c.12-.32.29-.63.44-1a9.73,9.73,0,0,1,.68-1,8.5,8.5,0,0,1,.9-.9,8.87,8.87,0,0,1,1-.8,45.05,45.05,0,0,1,4.13-2.24,7.16,7.16,0,0,0,.68-.48,1.46,1.46,0,0,0,.41-.48c.12-.15.09-.3.13-.4l0-.15v.16c0,.09.06.26,0,.44a1.76,1.76,0,0,1-.35.61,3,3,0,0,1-.65.63c-1,.81-2.58,1.56-3.94,2.5a10.54,10.54,0,0,0-1,.73c-.33.25-.59.54-.88.8s-.49.57-.71.85-.37.58-.5.85-.23.54-.33.77a4.69,4.69,0,0,0-.18.65Z" transform="translate(-15.87 -38.23)"/></g><g class="cls-18"><path class="cls-7" d="M305.51,328.77s0,.19-.11.52a3,3,0,0,1-.32.55,2.86,2.86,0,0,1-.58.57c-.95.73-2.37,1.31-3.58,2.13-.32.19-.59.43-.88.64s-.55.46-.76.73a7.55,7.55,0,0,0-1.11,1.51,8.53,8.53,0,0,0-.61,1.22l-.22.48.09-.52a5.45,5.45,0,0,1,.37-1.35,6.88,6.88,0,0,1,1-1.75,7.69,7.69,0,0,1,.78-.84,11.12,11.12,0,0,1,.94-.72,40.49,40.49,0,0,1,3.75-1.87,3.51,3.51,0,0,0,.62-.41,2.77,2.77,0,0,0,.38-.42Z" transform="translate(-15.87 -38.23)"/></g><g class="cls-18"><path class="cls-7" d="M303.68,332.35l-.21.26a5.81,5.81,0,0,0-.5.67,21.5,21.5,0,0,1-1.43,2.2,4.42,4.42,0,0,1-.52.54,2.71,2.71,0,0,1-.61.43,2.14,2.14,0,0,1-.62.26,3.18,3.18,0,0,1-.61.15,3.31,3.31,0,0,1-1.22-.08l.32-.08a3.48,3.48,0,0,0,.8-.23,2.35,2.35,0,0,0,.48-.23,2.56,2.56,0,0,0,.51-.33,3,3,0,0,0,.48-.4A4.23,4.23,0,0,0,301,335c.29-.34.56-.72.84-1.07a11.49,11.49,0,0,1,.83-.93,3.26,3.26,0,0,1,.72-.52A3.31,3.31,0,0,1,303.68,332.35Z" transform="translate(-15.87 -38.23)"/></g><path class="cls-13" d="M250.82,394l30.67-42.29a1.46,1.46,0,0,1,2.17-.2l3.06,2.28a1.4,1.4,0,0,1,.06,2.16l-33.37,40.07a1.62,1.62,0,0,1-2.12.32h0A1.63,1.63,0,0,1,250.82,394Z" transform="translate(-15.87 -38.23)"/><path class="cls-15" d="M280.76,352.38l14.77-16.78a3.47,3.47,0,0,0,3.51,2.7l-12.67,18.64C284.72,358.15,279.56,354.92,280.76,352.38Z" transform="translate(-15.87 -38.23)"/><path class="cls-16" d="M295.92,337.9a2,2,0,0,1-.74-1.21l-13.8,15.91a2.46,2.46,0,0,0,1.17,2.47Z" transform="translate(-15.87 -38.23)"/><path class="cls-4" d="M251.91,404.39a1.72,1.72,0,0,1-.44-.06,1.77,1.77,0,0,1-1.18-.91,2.9,2.9,0,0,1-.1-2.32l22.27-61.43a1.91,1.91,0,0,1,0-.32.38.38,0,0,1,0-.1l.57-1.3v0l7.68-17.69h0l3.13-9.34a.53.53,0,0,1,.26-.29.48.48,0,0,1,.39,0l3.71,1.39a.57.57,0,0,1,.28.27.53.53,0,0,1,0,.39l-3.8,9.11-6.4,19.89a.42.42,0,0,1-.11.18,1.54,1.54,0,0,1-.19.17l-23.91,60.65A2.59,2.59,0,0,1,251.91,404.39Zm21.55-64.8v.15a.63.63,0,0,1,0,.19l-22.3,61.51a1.89,1.89,0,0,0,0,1.5.79.79,0,0,0,.51.41l.1,0c.48.12,1.14-.37,1.44-1.14l24-60.79a.58.58,0,0,1,.23-.26l0,0,6.33-19.68a.52.52,0,0,1,.1-.27l3.56-8.52-2.74-1-2.88,8.6a.5.5,0,0,1-.06.51.53.53,0,0,1-.2.16L274,338.29l0,0Z" transform="translate(-15.87 -38.23)"/><path class="cls-4" d="M250.16,397.14a2.14,2.14,0,0,1-1.74-3.39l29.71-41a1.89,1.89,0,0,1,.18-.61.83.83,0,0,1,.08-.12l14.66-16.66a8.6,8.6,0,0,1,1.68-4.82,12.25,12.25,0,0,1,5.53-4.06l.5-.18a9.61,9.61,0,0,0,1.45-.64,4.53,4.53,0,0,0,2.18-4.32.5.5,0,0,1,.32-.52.52.52,0,0,1,.59.17,7.24,7.24,0,0,1,1.14,5.18,17.41,17.41,0,0,1-1.59,4.93,16.7,16.7,0,0,1-3.78,5.72,7.84,7.84,0,0,1-3.7,1.86l-12.59,18.51a.34.34,0,0,1-.12.12,1.5,1.5,0,0,1-.57.26L251.8,396.38A2.13,2.13,0,0,1,250.16,397.14Zm29-44.49a1.82,1.82,0,0,0-.09.37.5.5,0,0,1-.09.24l-29.78,41.07a1.1,1.1,0,0,0-.2.87,1.11,1.11,0,0,0,.5.74,1.13,1.13,0,0,0,1.5-.2l32.4-38.91a.51.51,0,0,1,.29-.17.9.9,0,0,0,.29-.09l12.37-18.19a.22.22,0,0,0,0-.08.48.48,0,0,1,.4-.51,6.79,6.79,0,0,0,3.63-1.69,15.8,15.8,0,0,0,3.54-5.38,16.16,16.16,0,0,0,1.5-4.65,7,7,0,0,0-.2-2.91,5.57,5.57,0,0,1-2.52,3.4,10.43,10.43,0,0,1-1.62.7l-.47.18a11.34,11.34,0,0,0-5.09,3.72,7.54,7.54,0,0,0-1.49,4.49.51.51,0,0,1-.3.46Z" transform="translate(-15.87 -38.23)"/><path class="cls-4" d="M249.87,377.6a7.53,7.53,0,0,1-.86,2.31,7.08,7.08,0,0,1-2.2,2.33,6.87,6.87,0,0,1-3.63,1.17h-.35a6.43,6.43,0,0,1-1.75-.3,7.71,7.71,0,0,1-1-.45,8.6,8.6,0,0,1-.93-.65,6,6,0,0,1-2-4.15,4.42,4.42,0,0,1,.08-1.18,4,4,0,0,1,.15-.62l.24-.58a2.43,2.43,0,0,1,.31-.54,5.88,5.88,0,0,1,.36-.51,4.84,4.84,0,0,1,.93-.82,5,5,0,0,1,2.33-.86H242a4.09,4.09,0,0,1,1.94.6,3.82,3.82,0,0,1,1.59,1.85,4.68,4.68,0,0,1,.3,1.17V377c0,.2-.08.42-.12.62a3.18,3.18,0,0,1-1.43,1.83,3.11,3.11,0,0,1-2.18.36,2.48,2.48,0,0,1-1.81-3.22,2.05,2.05,0,0,1,1.31-1.19,3.25,3.25,0,0,1,.43-.08,1.93,1.93,0,0,1,.41,0,1.63,1.63,0,0,1,.73.33,1.59,1.59,0,0,1,.59,1.25,1.28,1.28,0,0,1-.54,1,1.22,1.22,0,0,1-.91.19,1,1,0,0,1-.57-.36,1,1,0,0,1-.18-.52,1,1,0,0,0,.22.49.92.92,0,0,0,.55.3,1.16,1.16,0,0,0,.79-.22,1,1,0,0,0,.41-.9,1.32,1.32,0,0,0-.54-1,1.3,1.3,0,0,0-.59-.23,1,1,0,0,0-.34,0l-.34.08a1.67,1.67,0,0,0-1,1,1.73,1.73,0,0,0-.08.35,2,2,0,0,0,0,.42c0,.12.06.26.1.39s.1.25.17.37a2,2,0,0,0,1.32.95,2.55,2.55,0,0,0,2.83-1.8c0-.14.07-.28.09-.44v-.5a3.57,3.57,0,0,0-.26-1A3.06,3.06,0,0,0,243.5,374a3.3,3.3,0,0,0-1.95-.44,4.25,4.25,0,0,0-1.94.73,4.3,4.3,0,0,0-.79.69,3.25,3.25,0,0,0-.31.42,2.07,2.07,0,0,0-.27.45l-.21.48c-.06.16-.07.33-.12.49a4.07,4.07,0,0,0-.09,1.08,5.29,5.29,0,0,0,1.77,3.62,8.63,8.63,0,0,0,.81.58c.29.18.6.28.89.43a5.36,5.36,0,0,0,1.89.32,6.4,6.4,0,0,0,3.39-1,7.12,7.12,0,0,0,2.18-2.11,7.51,7.51,0,0,0,1-2.18,9.51,9.51,0,0,0,.2-1.54c0-.36,0-.55,0-.55s0,.19.05.55A7.21,7.21,0,0,1,249.87,377.6Z" transform="translate(-15.87 -38.23)"/><path class="cls-19" d="M267.13,342.34l-.11,7.08-.11,6-.42,6-.43,6-.56,7.87v.12c0,.07,0,.13,0,.21v.13a6.54,6.54,0,0,1-.09,1.56,7.31,7.31,0,0,1-.85,2.31A7.08,7.08,0,0,1,262.4,382a7.72,7.72,0,0,1-2.14,1l-1.5,0-1.45.1-2.75.21-4.62-7.59-.84-7.91-.55-6-1.09-12-.65-7.07Z" transform="translate(-15.87 -38.23)"/><path class="cls-20" d="M256.66,382.85a5.8,5.8,0,0,0,1.75.3l-15.58.27a6.43,6.43,0,0,1-1.75-.3,7.71,7.71,0,0,1-1-.45,8.6,8.6,0,0,1-.93-.65,6,6,0,0,1-2-4.15,4.42,4.42,0,0,1,.08-1.18,4,4,0,0,1,.15-.62l.24-.58a2.43,2.43,0,0,1,.31-.54,5.88,5.88,0,0,1,.36-.51,4.84,4.84,0,0,1,.93-.82,5,5,0,0,1,2.33-.86l15.58-.26a5.07,5.07,0,0,0-2.33.85,5.22,5.22,0,0,0-.93.83,4.67,4.67,0,0,0-.36.51,2.61,2.61,0,0,0-.31.54l-.24.57a4.13,4.13,0,0,0-.14.63,4.41,4.41,0,0,0-.09,1.17,5.93,5.93,0,0,0,2.06,4.15c.28.25.62.44.92.66A7.65,7.65,0,0,0,256.66,382.85Z" transform="translate(-15.87 -38.23)"/><path class="cls-21" d="M258.58,372.47l-1.52,0a4.21,4.21,0,0,1,1.52.19Z" transform="translate(-15.87 -38.23)"/><path class="cls-4" d="M265.45,377.34a7.49,7.49,0,0,1-.86,2.3A7,7,0,0,1,262.4,382a7.74,7.74,0,0,1-2.14,1,6.54,6.54,0,0,1-1.5.21,5.29,5.29,0,0,1-1.45-.13,4.77,4.77,0,0,1-.65-.17,7.65,7.65,0,0,1-1-.44c-.3-.22-.64-.41-.92-.66a5.93,5.93,0,0,1-2.06-4.15,4.41,4.41,0,0,1,.09-1.17,4.13,4.13,0,0,1,.14-.63l.24-.57a2.61,2.61,0,0,1,.31-.54,4.67,4.67,0,0,1,.36-.51,5.22,5.22,0,0,1,.93-.83,5.07,5.07,0,0,1,2.33-.85,4.29,4.29,0,0,1,1.53.19,3.94,3.94,0,0,1,.89.39,3.84,3.84,0,0,1,1.58,1.85,4,4,0,0,1,.3,1.17v.59c0,.19-.08.41-.13.62a3.12,3.12,0,0,1-1.43,1.82,3.08,3.08,0,0,1-1.1.39,2.57,2.57,0,0,1-1.07,0,2.48,2.48,0,0,1-1.82-3.21,2.07,2.07,0,0,1,1.31-1.2c.15,0,.29-.05.43-.08a2.5,2.5,0,0,1,.4,0,1.57,1.57,0,0,1,.68.3l.06,0a1.59,1.59,0,0,1,.59,1.26,1.25,1.25,0,0,1-.55,1l-.06,0a1.2,1.2,0,0,1-.84.16,1,1,0,0,1-.56-.37,1,1,0,0,1-.19-.52,1,1,0,0,0,.22.5,1,1,0,0,0,.55.29,1.05,1.05,0,0,0,.79-.22l0,0a1.07,1.07,0,0,0,.39-.87,1.38,1.38,0,0,0-.42-.9c-.05,0-.08-.08-.13-.11a1.27,1.27,0,0,0-.58-.23,2.08,2.08,0,0,0-.35,0l-.34.09a1.67,1.67,0,0,0-1,1,2.46,2.46,0,0,0-.09.34c0,.13,0,.33,0,.42s.05.26.09.39.11.25.17.37a2,2,0,0,0,1.32,1,2.22,2.22,0,0,0,1,0,2.59,2.59,0,0,0,1.88-1.77c0-.15.06-.28.08-.44v-.51a3.88,3.88,0,0,0-.25-1,3.07,3.07,0,0,0-1.31-1.49,2.7,2.7,0,0,0-.49-.23,3.37,3.37,0,0,0-1.47-.22,4.53,4.53,0,0,0-2.73,1.42c-.12.13-.21.29-.31.42a1.75,1.75,0,0,0-.26.46l-.21.47a4.43,4.43,0,0,0-.13.49,3.74,3.74,0,0,0-.08,1.08,5.27,5.27,0,0,0,1.76,3.62c.25.23.55.39.81.59s.61.28.9.42a5.21,5.21,0,0,0,1.87.32h0a6.38,6.38,0,0,0,3.39-1,6.8,6.8,0,0,0,2.08-2.14A5.79,5.79,0,0,0,265,377c.14-.66.45-.85.46-1.22v-.46a.41.41,0,0,1,0,.12c0,.07,0,.13,0,.21s0,.08,0,.13A7.24,7.24,0,0,1,265.45,377.34Z" transform="translate(-15.87 -38.23)"/><path class="cls-4" d="M246.81,342.69l21-.36C264.31,336.27,249,337.48,246.81,342.69Z" transform="translate(-15.87 -38.23)"/><rect class="cls-22" x="253.32" y="336.82" width="7.81" height="1.83" transform="translate(-21.59 -33.79) rotate(-0.98)"/><polygon class="cls-23" points="245.04 286.23 237.23 286.36 235.84 298.69 246.85 298.5 245.04 286.23"/><polygon class="cls-23" points="251.15 311.2 251.04 317.2 250.62 323.21 232.69 323.51 231.59 311.53 251.15 311.2"/><path class="cls-4" d="M265.52,376.75a4.64,4.64,0,0,1-.78,2l2.4-36.44.67,0Z" transform="translate(-15.87 -38.23)"/><g class="cls-24"><polygon class="cls-7" points="234.59 328.06 232.46 305.73 235.96 305.67 234.59 328.06"/></g><path class="cls-4" d="M240.83,383.92a7,7,0,0,1-1.9-.32l-.36-.14a4.44,4.44,0,0,1-.77-.36l-.34-.23a5.31,5.31,0,0,1-.66-.48,6.51,6.51,0,0,1-2.22-4.49v-.3a3.91,3.91,0,0,1,.09-1c0-.07,0-.13.05-.2a2.51,2.51,0,0,1,.12-.49l.24-.58a2.09,2.09,0,0,1,.3-.53l.06-.09.14-.21a2.88,2.88,0,0,1,.26-.35l.28-.28a3.29,3.29,0,0,1,.79-.66,5.45,5.45,0,0,1,2.49-.91l7.67-.14-.46-4.35-2.3-25a.51.51,0,0,1,.08-.32c.82-1.84,3.15-3.31,6.44-4.08v-.94l-1.1,0a.54.54,0,0,1-.38-.16.51.51,0,0,1-.12-.39l1.38-12.33a.5.5,0,0,1,.49-.44l7.81-.14a.52.52,0,0,1,.5.43l1.81,12.27a.52.52,0,0,1-.11.4.55.55,0,0,1-.38.18h-1.09v.9c3.16.62,5.49,2,6.6,3.94a.59.59,0,0,1,.07.29L264,376.45l-.5.09.5,0,0,.22a.36.36,0,0,1,0,.1,3.38,3.38,0,0,1-.06.53,7.79,7.79,0,0,1-.92,2.47,8,8,0,0,1-1.13,1.49,7.5,7.5,0,0,1-1.22,1,8.52,8.52,0,0,1-2.28,1h-.13a6,6,0,0,1-1.49.21h-.35l-3.82.08h-.14Zm4.49-41.13,2.28,24.9.52,4.88a.51.51,0,0,1-.12.38.5.5,0,0,1-.37.17l-8.15.14a4.66,4.66,0,0,0-2,.75,3,3,0,0,0-.63.53l-.27.27a1.87,1.87,0,0,0-.14.21l-.16.23,0,.08a1.26,1.26,0,0,0-.19.33l-.25.6a2.21,2.21,0,0,0-.07.3,2.27,2.27,0,0,1-.06.25,3,3,0,0,0-.06.79v.28A5.23,5.23,0,0,0,238,382l.34.23a3.59,3.59,0,0,0,.58.25l.35.14a5.72,5.72,0,0,0,1.55.26l11.71-.2h.2l2.31,0a.53.53,0,0,1,.45-.14l.19,0h.11l.16.07h.19a.34.34,0,0,1,.14,0h0a3.31,3.31,0,0,0,.43,0,6.11,6.11,0,0,0,1.38-.19h.07a7.5,7.5,0,0,0,1.95-.89,6.24,6.24,0,0,0,1-.88,6.6,6.6,0,0,0,1.79-3.44,4.88,4.88,0,0,0,.06-.52l0-.21v-.06L265.26,343l-.15,0a.51.51,0,0,1-.48-.51v-.16a.53.53,0,0,1,.27-.44,9.6,9.6,0,0,0-5.84-2.85.51.51,0,0,1-.41-.49l0-1.8a.5.5,0,0,1,.49-.51h1L258.48,325l-6.93.12-1.28,11.32h1l3.68-.07a.52.52,0,0,1,.51.49.49.49,0,0,1-.49.51l-3.18.06,0,1.17a.36.36,0,0,1,0,.11.47.47,0,0,1-.36.54C248.34,339.87,246.05,341.2,245.32,342.79Zm18.22,33.75h0Z" transform="translate(-15.87 -38.23)"/><path class="cls-7" d="M236.31,352l47.49,13.55s19.32,73.19-10.28,87l-36.19-14Z" transform="translate(-15.87 -38.23)"/><path class="cls-25" d="M246.31,352l47.49,13.55s19.32,73.19-10.28,87l-36.19-14Z" transform="translate(-15.87 -38.23)"/><path class="cls-4" d="M273.52,453.55a.92.92,0,0,1-.36-.07l-36.19-14a1,1,0,0,1-.64-.92l-1-86.57a1,1,0,0,1,1.28-1l47.49,13.55a1,1,0,0,1,.69.71,220.56,220.56,0,0,1,6,38.52c1.52,27-4.13,43.74-16.82,49.68A1,1,0,0,1,273.52,453.55Zm-35.2-15.7,35.16,13.61c26.65-13.15,11.17-78.45,9.5-85.14l-45.65-13Z" transform="translate(-15.87 -38.23)"/><path class="cls-26" d="M232,544.24,123.6,522.82l15-75.85L247,468.39l-2.64,13.36a7.83,7.83,0,0,1-6-8.05l-1.68-.33A9.51,9.51,0,0,0,244,483.43Z" transform="translate(-15.87 -38.23)"/><path class="cls-4" d="M231.58,546.14,123.22,524.72l15-75.87,108.36,21.42-2.26,11.48a7.83,7.83,0,0,1-6-8.05l-1.68-.33A9.51,9.51,0,0,0,244,483.43Z" transform="translate(-15.87 -38.23)"/><path class="cls-4" d="M231.17,548.23,122.81,526.8l15-75.85,108.36,21.42-1.85,9.38a7.83,7.83,0,0,1-6-8.05l-1.68-.33A9.51,9.51,0,0,0,244,483.43Z" transform="translate(-15.87 -38.23)"/><path class="cls-27" d="M229.8,554.42l13.27-67.1.33-1.68,1.32-6.67-7.31-1.37-1.68-.34c-40.65-7.86-89.59-19.51-95.74-11.59l-14.92,75.46C137.22,535.23,187.94,546.84,229.8,554.42Z" transform="translate(-15.87 -38.23)"/><path class="cls-4" d="M230.72,551h-.09c-7.86-1.42-16.16-3-24.19-4.55-34.67-6.64-70.52-13.51-80.24-8.78a.51.51,0,0,1-.52-.05.53.53,0,0,1-.19-.5l14.92-75.46a.51.51,0,0,1,.1-.21c5.35-6.88,39.68,0,76,7.39,6.69,1.35,13.61,2.74,20.19,4l1.69.33c2.51.48,4.92.94,7.29,1.37a.51.51,0,0,1,.33.22.54.54,0,0,1,.08.37l-14.92,75.45A.51.51,0,0,1,230.72,551Zm-93.81-15.92c15.54,0,42,5.08,69.72,10.38,7.86,1.5,16,3.06,23.69,4.46l14.73-74.47-6.75-1.27-1.75-.35c-6.59-1.27-13.51-2.67-20.2-4-34.3-6.92-69.75-14.08-75-7.85l-14.71,74.42C129.07,535.51,132.56,535.11,136.91,535.11Z" transform="translate(-15.87 -38.23)"/><rect class="cls-26" x="236.18" y="478.19" width="4.87" height="4.42" transform="translate(-294.81 583.08) rotate(-78.82)"/><rect class="cls-26" x="234.12" y="488.64" width="4.87" height="4.42" transform="translate(-306.73 589.48) rotate(-78.82)"/><rect class="cls-26" x="232.05" y="499.09" width="4.87" height="4.42" transform="translate(-318.65 595.88) rotate(-78.82)"/><rect class="cls-26" x="229.98" y="509.54" width="4.87" height="4.42" transform="translate(-330.57 602.28) rotate(-78.82)"/><rect class="cls-26" x="227.92" y="520" width="4.87" height="4.42" transform="translate(-342.49 608.68) rotate(-78.82)"/><rect class="cls-26" x="225.85" y="530.45" width="4.87" height="4.42" transform="translate(-354.41 615.07) rotate(-78.82)"/><rect class="cls-26" x="223.79" y="540.9" width="4.87" height="4.42" transform="translate(-366.33 621.47) rotate(-78.82)"/><path class="cls-4" d="M244.65,483.15c5.61,1.11,10.95-1.88,11.9-6.67s-2.86-9.58-8.47-10.69a11.29,11.29,0,0,0-7.92,1.26l3,.59a10,10,0,0,1,4.6-.17c4.68.93,7.88,4.82,7.12,8.68s-5.2,6.25-9.89,5.32a9.56,9.56,0,0,1-5.73-3.43l-2.32-.46A10.92,10.92,0,0,0,244.65,483.15Z" transform="translate(-15.87 -38.23)"/><path class="cls-4" d="M254.48,486.92c1-4.79-2.85-9.58-8.47-10.69-.19,0-.39-.06-.59-.09l-.33,1.69c.2,0,.39,0,.59.08,4.69.92,7.89,4.82,7.12,8.68s-5.2,6.24-9.89,5.32a9.59,9.59,0,0,1-5.73-3.43l-2.31-.46a10.93,10.93,0,0,0,7.71,5.57C248.2,494.7,253.54,491.71,254.48,486.92Z" transform="translate(-15.87 -38.23)"/><path class="cls-4" d="M252.41,497.38c1-4.79-2.85-9.58-8.46-10.69l-.59-.09-.34,1.69a5.59,5.59,0,0,1,.59.08c4.69.92,7.89,4.82,7.12,8.68s-5.2,6.24-9.88,5.32a9.53,9.53,0,0,1-5.73-3.43l-2.32-.46a11,11,0,0,0,7.71,5.57C246.13,505.16,251.47,502.17,252.41,497.38Z" transform="translate(-15.87 -38.23)"/><path class="cls-4" d="M250.35,507.84c.94-4.79-2.86-9.58-8.47-10.69l-.59-.09-.34,1.69c.2,0,.4,0,.6.08,4.68.92,7.88,4.82,7.12,8.68s-5.2,6.24-9.89,5.32a9.56,9.56,0,0,1-5.73-3.43l-2.32-.46a11,11,0,0,0,7.72,5.57C244.06,515.62,249.4,512.63,250.35,507.84Z" transform="translate(-15.87 -38.23)"/><path class="cls-4" d="M248.28,518.3c.95-4.79-2.85-9.58-8.47-10.69l-.59-.09-.33,1.69c.19,0,.39,0,.59.08,4.69.92,7.88,4.82,7.12,8.68s-5.2,6.24-9.89,5.32a9.61,9.61,0,0,1-5.73-3.43l-2.32-.46a11,11,0,0,0,7.72,5.57C242,526.08,247.33,523.09,248.28,518.3Z" transform="translate(-15.87 -38.23)"/><path class="cls-4" d="M246.21,528.76c.95-4.79-2.85-9.58-8.47-10.69l-.59-.09-.33,1.69c.2,0,.39,0,.59.08,4.69.92,7.88,4.82,7.12,8.68s-5.2,6.24-9.89,5.32a9.64,9.64,0,0,1-5.73-3.43l-2.32-.46a11,11,0,0,0,7.72,5.57C239.93,536.54,245.26,533.55,246.21,528.76Z" transform="translate(-15.87 -38.23)"/><path class="cls-4" d="M244.14,539.22c1-4.79-2.85-9.58-8.47-10.69-.19,0-.39-.06-.59-.09l-.33,1.69c.2,0,.39,0,.59.08,4.69.92,7.89,4.82,7.12,8.68s-5.2,6.24-9.89,5.32a9.64,9.64,0,0,1-5.73-3.43l-2.31-.46a10.93,10.93,0,0,0,7.71,5.57C237.86,547,243.2,544,244.14,539.22Z" transform="translate(-15.87 -38.23)"/><path class="cls-3" d="M191.17,225.31c.69-2.94,1.4-3.53,1.64-6.51,1.59-19.3-15.85-31.67-32.19-27.74-10,2.4-18,10.29-20.94,23.25l-36,131.61c-.06.25-.71,3.14-.76,3.39a37.86,37.86,0,0,0-.32,5.92c.88,11,10.17,20.74,21.47,20.66,7.82-.19,11.24-1.9,16-6C146,364,149.34,352.19,152.17,345c7.54-19.09,12.41-39,19.09-58.27S186.51,245.4,191.17,225.31Z" transform="translate(-15.87 -38.23)"/><path class="cls-13" d="M170.71,459.66c-27.25,7.6-55.63,44.35-36.88,57.18,19.95,13.66,27.74-10.9,40.23-2.49,3.35,2.25,4.4,5.25,5.08,8.29a48,48,0,0,0,1.35,5.73v0l.27.69,0,0a6.09,6.09,0,0,0,.3.63l0,0,.35.61.06.09c.13.2.26.39.4.58h0c.14.19.3.37.46.55l.1.1c.17.18.34.35.53.52l0,0a6.36,6.36,0,0,0,.57.46l.13.1c.22.15.44.3.68.44l.11.07.68.36.16.07c.26.13.55.24.84.36l.19.07c.28.1.56.2.86.29l.14,0q.51.15,1.05.27l.26.06c.38.09.77.16,1.18.23h0a12.45,12.45,0,0,0,1.51.17c.14,0,.29,0,.43,0,.42,0,.85,0,1.28,0h.32c.52,0,1-.06,1.58-.12l.42-.05c.42-.06.85-.13,1.27-.21l.47-.08c.53-.12,1.07-.24,1.62-.39l.33-.1c.45-.12.9-.26,1.34-.41l.57-.2c.43-.15.87-.32,1.3-.49l.41-.16c.52-.22,1-.45,1.57-.7l.66-.33,1-.52.69-.37,1.47-.84.78-.5.82-.52.87-.58.69-.49c.55-.39,1.09-.8,1.63-1.22l.51-.39c.34-.27.68-.54,1-.82l.41-.35c1.12-1,2.22-2,3.28-3l.21-.21A51.89,51.89,0,0,0,228,509h0c3.24-6.49,4.73-13.47,3.31-20.07C225.54,461.86,198,452.06,170.71,459.66Zm22.91,49.68c5-3.27,11.22-2.56,13.94,1.59a7.71,7.71,0,0,1,1.22,3.44,10.1,10.1,0,0,1,0,1.23,1.93,1.93,0,0,0,0,.24,9.62,9.62,0,0,1-.52,2.49,1.25,1.25,0,0,1-.09.25,9.87,9.87,0,0,1-.53,1.21h0a12.21,12.21,0,0,1-.69,1.13l-.18.26a10.71,10.71,0,0,1-.86,1.08h0a13.11,13.11,0,0,1-1,1l-.27.23a13.23,13.23,0,0,1-1.17.88,12.74,12.74,0,0,1-3.89,1.71c-3.65.9-7.34,0-9.5-2.57a6.81,6.81,0,0,1-1-1.45l-.17-.35-.15-.36c-.06-.16-.12-.33-.17-.49l-.06-.21c-.05-.19-.1-.39-.14-.6h0C187.69,516.29,189.65,511.94,193.62,509.34Z" transform="translate(-15.87 -38.23)"/><path class="cls-11" d="M148.43,502a7.37,7.37,0,1,1-9.07-5.11A7.38,7.38,0,0,1,148.43,502Z" transform="translate(-15.87 -38.23)"/><path class="cls-28" d="M159,482.15A7.37,7.37,0,1,1,149.9,477,7.38,7.38,0,0,1,159,482.15Z" transform="translate(-15.87 -38.23)"/><path class="cls-23" d="M179.39,470a7.37,7.37,0,1,1-9.07-5.12A7.35,7.35,0,0,1,179.39,470Z" transform="translate(-15.87 -38.23)"/><path class="cls-11" d="M201.88,467.67a7.37,7.37,0,1,1-9.07-5.11A7.38,7.38,0,0,1,201.88,467.67Z" transform="translate(-15.87 -38.23)"/><circle class="cls-23" cx="198.7" cy="441.2" r="7.37"/><circle class="cls-10" cx="202.79" cy="463.47" r="7.37"/><path class="cls-4" d="M139.65,513a7.87,7.87,0,1,1,7.59-10h0a7.88,7.88,0,0,1-5.47,9.69A7.7,7.7,0,0,1,139.65,513Zm0-14.74a6.86,6.86,0,0,0-6,3.49,6.87,6.87,0,0,0,7.83,10,6.87,6.87,0,0,0,4.76-8.46h0a6.88,6.88,0,0,0-6.6-5Z" transform="translate(-15.87 -38.23)"/><path class="cls-4" d="M150.21,493.1a7.87,7.87,0,0,1-7.58-5.76,7.86,7.86,0,1,1,15.15-4.22h0a7.88,7.88,0,0,1-5.46,9.69A8.18,8.18,0,0,1,150.21,493.1Zm0-14.74a6.56,6.56,0,0,0-1.85.26,6.85,6.85,0,0,0-4.77,8.45,6.87,6.87,0,0,0,13.23-3.69h0a6.88,6.88,0,0,0-6.61-5Z" transform="translate(-15.87 -38.23)"/><path class="cls-4" d="M170.61,480.92a7.87,7.87,0,1,1,7.59-10h0a7.87,7.87,0,0,1-5.46,9.69A7.76,7.76,0,0,1,170.61,480.92Zm0-14.74a7,7,0,0,0-1.86.26A6.88,6.88,0,0,0,164,474.9a6.87,6.87,0,0,0,13.23-3.69h0a6.88,6.88,0,0,0-6.6-5Z" transform="translate(-15.87 -38.23)"/><path class="cls-4" d="M193.11,478.61a7.86,7.86,0,1,1,7.58-10h0a7.87,7.87,0,0,1-5.47,9.69A7.67,7.67,0,0,1,193.11,478.61Zm0-14.73a6.87,6.87,0,1,0,6,10.24,6.8,6.8,0,0,0,.63-5.22h0a6.88,6.88,0,0,0-6.6-5Z" transform="translate(-15.87 -38.23)"/><path class="cls-4" d="M212.88,488.39a7.87,7.87,0,1,1,3.88-14.72,7.8,7.8,0,0,1,3.71,4.74h0a7.87,7.87,0,0,1-7.59,10Zm0-14.74a6.94,6.94,0,0,0-1.85.26,6.87,6.87,0,1,0,8.46,4.77h0a6.88,6.88,0,0,0-6.61-5Z" transform="translate(-15.87 -38.23)"/><path class="cls-4" d="M217,510.66a7.73,7.73,0,0,1-3.85-1,7.85,7.85,0,1,1,6,.73A8.08,8.08,0,0,1,217,510.66Zm0-14.74a6.89,6.89,0,0,0-1.85.26,6.76,6.76,0,1,0,1.85-.26Z" transform="translate(-15.87 -38.23)"/><path class="cls-4" d="M191.08,536.93c-.31,0-.61,0-.92,0l-.44,0a14.69,14.69,0,0,1-1.56-.18c-.43-.07-.83-.15-1.22-.23l-.26-.06c-.38-.09-.74-.18-1.08-.28l-.14,0c-.31-.09-.61-.19-.89-.3l-.2-.07c-.31-.12-.6-.24-.88-.37l-.11-.05-.76-.4-.12-.08a7.21,7.21,0,0,1-.71-.46l-.1-.07-.64-.51c-.24-.21-.42-.39-.6-.58l-.1-.11a6.55,6.55,0,0,1-.49-.58c-.16-.21-.3-.42-.43-.62l-.07-.1c-.13-.21-.25-.43-.36-.65s-.24-.48-.34-.7-.21-.52-.3-.76a30.72,30.72,0,0,1-1-4.15c-.11-.56-.22-1.12-.35-1.68-.74-3.32-1.85-6-4.86-8-5.24-3.53-9.62-1-14.68,2-6.63,3.89-14.13,8.3-25.56.48-5-3.43-7.08-8.8-6-15.52,2.73-16.47,23.63-37.15,43-42.56,15.93-4.44,31.76-2.94,43.43,4.12,9.29,5.62,15.45,14.45,17.83,25.53,1.34,6.26.18,13.32-3.35,20.4a52.88,52.88,0,0,1-9.73,13.38l-.21.21c-1.06,1.06-2.18,2.08-3.31,3.05l-.41.35-1,.82-.51.4c-.55.43-1.1.84-1.66,1.23l-.1.07-.59.43-.88.59-.82.52-.16.1-.64.4c-.49.3-1,.58-1.48.85l-.53.29-.17.08c-.34.19-.69.37-1,.54l-.67.33c-.53.25-1.07.49-1.6.71l-.41.16c-.43.18-.87.34-1.31.5l-.58.2c-.46.15-.91.29-1.37.42l-.34.1q-.83.23-1.65.39l-.47.09c-.43.08-.87.15-1.3.21l-.42,0c-.55.07-1.09.11-1.62.13h-.73Zm-5.2-1.76,1,.26.26.06,1.15.23c.45.07.91.12,1.49.16l.41,0c.41,0,.83,0,1.25,0h.31c.51,0,1-.06,1.55-.12l.4,0c.41-.06.83-.12,1.25-.2l.45-.09c.53-.11,1.06-.23,1.59-.38l.33-.09c.44-.13.88-.26,1.32-.41l.56-.19,1.28-.49.4-.16c.52-.21,1-.44,1.55-.69l.57-.27,1.11-.57.17-.09.51-.27,1.44-.84.62-.38.17-.1.8-.52.86-.58.58-.41.1-.07c.55-.39,1.09-.79,1.62-1.21l.51-.39,1-.81.4-.34c1.12-1,2.21-2,3.25-3l.21-.21a51.33,51.33,0,0,0,9.54-13.12c3.44-6.88,4.57-13.7,3.27-19.74a37.38,37.38,0,0,0-17.36-24.88c-11.44-6.92-27-8.38-42.65-4-19.06,5.31-39.61,25.6-42.28,41.75-1,6.31.87,11.34,5.55,14.53,10.9,7.46,18.11,3.23,24.48-.51,5.14-3,10-5.87,15.75-2,3.48,2.34,4.6,5.52,5.28,8.6.13.56.24,1.13.35,1.69a28.79,28.79,0,0,0,1,4c.09.26.18.48.27.7s.2.44.3.64a6.86,6.86,0,0,0,.35.62l-.36.36.42-.27.37.54c.15.19.29.36.45.53l.09.1c.16.16.32.32.5.48s.38.32.57.46l.12.09c.2.14.41.28.64.42l-.14.49.25-.43c.21.12.42.23.65.34l-.07.53.22-.46c.25.12.52.24.81.35l.1,0c.35.12.63.22.92.3v.53Zm9.29-7.16a9.23,9.23,0,0,1-7.14-3.09,7.51,7.51,0,0,1-.58-.78,6.61,6.61,0,0,1-.44-.77,3.13,3.13,0,0,1-.15-.32c-.08-.18-.14-.31-.19-.44l-.18-.52-.05-.18c-.07-.25-.12-.46-.17-.67-.8-4.07,1.37-8.58,5.4-11.23,5.2-3.41,11.76-2.63,14.64,1.74a8.12,8.12,0,0,1,1.29,3.67,9.07,9.07,0,0,1,0,1.3V517a10,10,0,0,1-.54,2.62l-.09.27a12.73,12.73,0,0,1-.55,1.27c-.2.37-.43.75-.72,1.18l-.2.28a11.24,11.24,0,0,1-.89,1.12,12.93,12.93,0,0,1-1,1l-.28.24a12.73,12.73,0,0,1-1.21.91,13.15,13.15,0,0,1-4.05,1.78A12,12,0,0,1,195.17,528Zm3.4-19.13a11.62,11.62,0,0,0-6.35,2c-3.7,2.43-5.69,6.52-5,10.19,0,.19.08.38.13.57l.06.18c.05.16.1.31.16.46a3.45,3.45,0,0,0,.14.34c.07.15.1.24.15.33a6.38,6.38,0,0,0,.38.67,6.92,6.92,0,0,0,.52.69c2,2.36,5.44,3.28,9,2.4a12,12,0,0,0,3.74-1.65,12.53,12.53,0,0,0,1.12-.84l.26-.22c.38-.34.69-.64,1-.93a11,11,0,0,0,.83-1l.18-.25a10.64,10.64,0,0,0,.65-1.08,9,9,0,0,0,.51-1.16l.09-.24a9,9,0,0,0,.48-2.36v-.17a9.27,9.27,0,0,0,0-1.21,7.2,7.2,0,0,0-1.14-3.22A8,8,0,0,0,198.57,508.88Zm-6.63,1.55h0Z" transform="translate(-15.87 -38.23)"/><path class="cls-3" d="M140.72,347.61a44.22,44.22,0,0,1,1.94,4.52l10.59,33.27a245.64,245.64,0,0,1,7.11,31.5c4.85,30.75,15.68,67.23,15.68,67.23l7,19.55c2,2.83,4.16,5.64,6.27,8.36s4.52,5.8,6.6,8.81a17.12,17.12,0,0,1,2.63,4.92,6.7,6.7,0,0,1-1,6.13,31,31,0,0,0-3.91,6.54c-.59,1.2-1.21,2.44-1.88,3.62-.36.62-.78,1.25-1.18,1.85A12.34,12.34,0,0,0,188.5,548a1.28,1.28,0,0,1-.53.8,1.18,1.18,0,0,1-.91.17c-.83-.2-1.81-.55-2.76-.88l-1.11-.38a4,4,0,0,1-.44,1,7.47,7.47,0,0,1-5.37,3,10.11,10.11,0,0,1-5.81-1.8,4.34,4.34,0,0,1-1.14,1.12,5.8,5.8,0,0,1-3.24,1,4.17,4.17,0,0,1-1.13-.15,9.82,9.82,0,0,1-4.5-3.21,7,7,0,0,0-3.67,1.55,1.16,1.16,0,0,1-1.39.17,29.2,29.2,0,0,1-10.83-12.25,1.29,1.29,0,0,1,.17-1.36,52.9,52.9,0,0,1,4.19-4.06c1.16-1.05,2.35-2.13,3.2-3-1.53-3-2.55-10.31-2.51-10.72a18.33,18.33,0,0,1,2.81-8.39,13,13,0,0,1,2.34-2.52,8.85,8.85,0,0,0,2-2.18c.52-1,.34-1.77-.08-3.34-.1-.36-.19-.72-.28-1.11l-4-10.27c-7.78-16.63-37.89-78.48-44.6-103.46l-7.51-25.05c-2.64-10.87,5.09-20.46,13.75-23.66,11-4.07,22.36,1.41,25.55,8.57M154,528.89Z" transform="translate(-15.87 -38.23)"/><path class="cls-4" d="M167.19,553h0a5.32,5.32,0,0,1-1.4-.18,10.1,10.1,0,0,1-4.6-3.11,5.91,5.91,0,0,0-2.62,1.21,2.13,2.13,0,0,1-2.57.3,30.29,30.29,0,0,1-11.24-12.69,2.29,2.29,0,0,1,.31-2.42,51.41,51.41,0,0,1,4.27-4.14c1-.88,1.92-1.75,2.69-2.49a45.71,45.71,0,0,1-2.31-10.58,19.23,19.23,0,0,1,3-8.85,13.49,13.49,0,0,1,2.52-2.72,8.48,8.48,0,0,0,1.78-1.91c.32-.6.25-1.06-.17-2.61-.1-.38-.19-.72-.27-1.07l-4-10.21c-1-2.09-2.35-5-4-8.48C137.3,459.31,113.83,409.85,108,388l-7.5-25a19.38,19.38,0,0,1,1.4-13.11c0-.43.09-.69.09-.69.06-.34.72-3.26.78-3.51l36-131.64c2.87-12.59,10.77-21.33,21.66-23.95a27.52,27.52,0,0,1,24.28,5.84,26.88,26.88,0,0,1,9.15,22.95,14.3,14.3,0,0,1-.9,4.08,23.46,23.46,0,0,0-.76,2.57c-3.62,15.57-9.48,32-15.16,48-1.68,4.71-3.26,9.16-4.78,13.56-2.72,7.84-5.18,15.93-7.56,23.74-3.47,11.42-7.07,23.22-11.55,34.58-.55,1.4-1.13,3-1.74,4.69-1.33,3.64-2.82,7.76-4.64,11.54l7.48,23.49a248,248,0,0,1,7.15,31.66c4.78,30.32,15.54,66.73,15.65,67.1l7,19.37c1.95,2.77,4.09,5.53,6.17,8.2,2.23,2.86,4.53,5.82,6.63,8.86a17.49,17.49,0,0,1,2.77,5.22h0a7.68,7.68,0,0,1-1.23,7,30.71,30.71,0,0,0-3.77,6.33c-.6,1.21-1.22,2.46-1.92,3.68-.37.65-.8,1.29-1.21,1.91a11.71,11.71,0,0,0-1.93,3.71,2.28,2.28,0,0,1-.95,1.44,2.16,2.16,0,0,1-1.71.31c-.88-.21-1.88-.57-2.86-.91l-.21-.08a2.26,2.26,0,0,1-.16.26,8.42,8.42,0,0,1-6.14,3.48,10.28,10.28,0,0,1-5.65-1.52,5.73,5.73,0,0,1-.8.66A6.82,6.82,0,0,1,167.19,553Zm-5.63-5.36a1,1,0,0,1,.74.32,8.89,8.89,0,0,0,4,2.93,6.27,6.27,0,0,0,.87.11,4.74,4.74,0,0,0,2.67-.86,3.59,3.59,0,0,0,.9-.88,1,1,0,0,1,1.33-.28,9.26,9.26,0,0,0,5.22,1.66,6.43,6.43,0,0,0,4.59-2.54,2.79,2.79,0,0,0,.33-.73,1,1,0,0,1,.5-.6,1,1,0,0,1,.78-.06l1.1.38a27.79,27.79,0,0,0,2.68.85.2.2,0,0,0,.13,0,.26.26,0,0,0,.1-.16,12.9,12.9,0,0,1,2.23-4.44c.39-.59.8-1.2,1.14-1.8.66-1.16,1.27-2.38,1.85-3.56a32.31,32.31,0,0,1,4-6.75,5.69,5.69,0,0,0,.83-5.21,15.9,15.9,0,0,0-2.49-4.62c-2.07-3-4.36-5.93-6.57-8.77s-4.31-5.54-6.3-8.4a1,1,0,0,1-.12-.23l-7-19.55c-.13-.42-10.92-37-15.72-67.41a246.26,246.26,0,0,0-7.09-31.38l-7.59-23.85a1,1,0,0,1,.05-.74,121.76,121.76,0,0,0,4.73-11.72c.61-1.7,1.2-3.31,1.76-4.74,4.45-11.28,8-23,11.5-34.42,2.38-7.83,4.85-15.93,7.58-23.81,1.52-4.41,3.11-8.86,4.79-13.58,5.66-15.87,11.5-32.28,15.09-47.74a25.52,25.52,0,0,1,.82-2.77,12.54,12.54,0,0,0,.8-3.59,24.6,24.6,0,0,0-8.46-21.27A25.53,25.53,0,0,0,160.85,192c-10.13,2.44-17.49,10.64-20.19,22.5l-36,131.65c0,.21-.67,3-.74,3.33,0,0,0,.31-.09.75a1,1,0,0,1-.09.34,17.34,17.34,0,0,0-1.35,11.86l7.49,25c5.84,21.69,29.25,71.05,40.51,94.77,1.65,3.49,3,6.4,4,8.55l4,10.34a.74.74,0,0,1,0,.14c.08.35.17.69.26,1,.42,1.56.74,2.76,0,4.12a9.93,9.93,0,0,1-2.22,2.46,12.13,12.13,0,0,0-2.17,2.31,17.36,17.36,0,0,0-2.66,7.93c0,.69,1,7.52,2.41,10.18a1,1,0,0,1-.18,1.16c-.86.88-2.06,2-3.21,3a49.83,49.83,0,0,0-4.12,4,.29.29,0,0,0,0,.3A28,28,0,0,0,157,549.53a.15.15,0,0,0,.2,0,8.15,8.15,0,0,1,4.23-1.82Z" transform="translate(-15.87 -38.23)"/><path class="cls-4" d="M161.56,549.68a1,1,0,0,1-.61-.21,1,1,0,0,1-.19-1.4l7.36-9.58a1,1,0,0,1,1.4-.18,1,1,0,0,1,.19,1.4l-7.36,9.58A1,1,0,0,1,161.56,549.68Z" transform="translate(-15.87 -38.23)"/><path class="cls-4" d="M171.57,550.88a1,1,0,0,1-.59-.2,1,1,0,0,1-.21-1.39l8.68-11.73a1,1,0,1,1,1.6,1.19l-8.67,11.72A1,1,0,0,1,171.57,550.88Z" transform="translate(-15.87 -38.23)"/><path class="cls-4" d="M183.19,548.7a1,1,0,0,1-.88-1.47L189,534.64a1,1,0,0,1,1.77.94l-6.71,12.59A1,1,0,0,1,183.19,548.7Z" transform="translate(-15.87 -38.23)"/><path class="cls-4" d="M157.57,534.67a1,1,0,0,1-.67-.26l-3.66-3.31-2.53,2.36a1,1,0,1,1-1.36-1.46l3.2-3a1,1,0,0,1,1.35,0l4.34,3.93a1,1,0,0,1,.07,1.42A1,1,0,0,1,157.57,534.67Z" transform="translate(-15.87 -38.23)"/></g></g></g></svg>