<svg xmlns="http://www.w3.org/2000/svg" viewBox="0 0 563 1026"><defs><style>.cls-1{fill:#ffccbc;}.cls-2{fill:#59316d;}.cls-3{fill:#ffac90;}.cls-4{opacity:0.5;}.cls-5{fill:#263238;}.cls-6{fill:#663d32;}.cls-7{fill:#fff;}.cls-8{fill:#bc7261;}.cls-9{fill:#d07f68;}.cls-10{fill:#cbe7de;}.cls-11{fill:#ddd;}.cls-12{fill:#f9afa1;}.cls-13{fill:#ff9592;}.cls-14{fill:#a48a7b;}.cls-15{fill:#ffcb86;}.cls-16{fill:#e8a246;}.cls-17{fill:#c6c6c6;}.cls-18{fill:#f6f6f6;}.cls-19{fill:#7c6255;}.cls-20{opacity:0.27;}.cls-21{fill:#ededed;}.cls-22{fill:#dadada;}.cls-23{fill:#fff7e0;}.cls-24{fill:#535c89;}.cls-25{opacity:0.8;}.cls-26{fill:#ef9286;}.cls-27{fill:#92bdf4;}.cls-28{fill:#d6e3f4;}.cls-29{fill:#cfdff4;}.cls-30{fill:none;}</style></defs><title>personagem_sala</title><g id="Layer_2" data-name="Layer 2"><g id="Layer_13" data-name="Layer 13"><path class="cls-1" d="M165.51,254.64a80.6,80.6,0,0,0,.65-17.69"/><path class="cls-1" d="M276.44,143.2c.1-1.74.13-3.48.09-5.21-.22-12.77,0-25.55-.42-38.33-.4-13.67-1.5-27.59-11.93-37.31-8.89-8.29-19.61-9-30.91-8.77-33.6.55-37.86,28-37.86,28s-3.85,16.19,1.79,28.75l-.33-.07a10,10,0,0,0-6.5,5.17,10.6,10.6,0,0,0,.86,10.24c2.34,3.62,6.9,5.77,11.45,5.87,2.09,14.06-.74,43.59-3.54,58.18-2.37,12.36,24.86,7,38.3,5.7.28-9.09-2.09-23.51.5-30.76,6.49,2.28,12.87,5.51,20.57,4.72a14.53,14.53,0,0,0,8.74-3.66C273.75,159.64,276,151.46,276.44,143.2Z"/><path class="cls-2" d="M212.7,198.69c-5.8,0-10.72-.82-13.13-3.4a6.27,6.27,0,0,1-1.41-5.76c2.8-14.6,5.47-43,3.64-57-4.72-.36-9.13-2.76-11.41-6.28a11.59,11.59,0,0,1-.92-11.23,10.84,10.84,0,0,1,6.31-5.45c-5-12.51-1.5-27.54-1.35-28.19,0-.2,4.77-28.21,38.83-28.77,10.89-.18,22.31.37,31.6,9,10.56,9.84,11.82,23.59,12.25,38,.22,7.41.25,14.93.28,22.21,0,5.29.05,10.76.14,16.13,0,1.88,0,3.61-.09,5.29h0c-.58,10.17-3.7,17.76-9.51,23.19a15.58,15.58,0,0,1-9.32,3.93c-6.54.67-12.12-1.45-17.52-3.49-.84-.32-1.68-.64-2.51-.94-1.29,4.67-.88,11.84-.48,18.79.22,3.9.43,7.58.34,10.71a1,1,0,0,1-.9,1c-1.95.19-4.2.46-6.58.75A158.89,158.89,0,0,1,212.7,198.69Zm-15.8-87.4a9,9,0,0,0-5.63,4.57,9.56,9.56,0,0,0,.81,9.27c2.06,3.19,6.23,5.31,10.62,5.41a1,1,0,0,1,1,.85c2.08,14-.66,43.49-3.55,58.51a4.38,4.38,0,0,0,.91,4c4.09,4.37,18.88,2.57,29.68,1.25,2-.25,4-.49,5.75-.67,0-2.85-.16-6.17-.35-9.65-.44-7.65-.89-15.56.88-20.54a1,1,0,0,1,1.28-.61c1.17.42,2.35.86,3.53,1.31,5.18,2,10.53,4,16.61,3.37a13.44,13.44,0,0,0,8.15-3.4c5.43-5.06,8.33-12.21,8.88-21.84.1-1.63.13-3.31.09-5.14-.09-5.39-.11-10.87-.14-16.16,0-7.27-.06-14.78-.28-22.16-.41-14-1.62-27.29-11.61-36.61-8.76-8.16-19.29-8.68-30.21-8.5-32.33.53-36.73,26.07-36.9,27.16,0,.23-3.71,16.09,1.73,28.18a1,1,0,0,1-1.13,1.39Zm79.54,31.91h0Z"/><path class="cls-3" d="M215.59,146.89c8,16,9.82,33.8,12,51.54a46.65,46.65,0,0,0,9.87.28c.52-10-2.15-26.06.45-34.05,1.21.47,4,1.48,4,1.48C237.15,164.12,231.59,160.12,215.59,146.89Z"/><path class="cls-3" d="M201.35,116.86c-1.86-1.39-5.45-2.28-7.25-.33a1,1,0,0,0,.37,1.74c1.19.3,2.41.1,3.58.58a4.26,4.26,0,0,1,2.31,2.28c.59,1.35.1,5.3,2.64,4.47a2,2,0,0,0,1.41-1.73A7.59,7.59,0,0,0,201.35,116.86Z"/><g class="cls-4"><path class="cls-3" d="M260.13,118.64c2.22,1.5,4.47,3,5.72,4.85s1.34,4-.62,5.66a7.9,7.9,0,0,1-4.52,1.62c-1.82.09-3.76-.47-4.42-1.44s.3-2.24,2.07-2.52A8.61,8.61,0,0,1,256,121a2.14,2.14,0,0,1,.88-2C257.61,118.53,259.35,118.12,260.13,118.64Z"/></g><path class="cls-2" d="M268.22,125.1c-.58-3.06-4.44-5.44-8.55-7.21-.51-.21-1.28.19-.93.5,2.2,1.85,5,3.6,6,5.81a3.06,3.06,0,0,1-.34,3.4c-.85,1.05-2.35,1.5-3.64,2.31-.91.57-.91,1,.38.86C265.79,130.42,268.65,127.36,268.22,125.1Z"/><path class="cls-5" d="M244.78,90a1,1,0,0,1-.64-.22,6.33,6.33,0,0,0-8.48,0,1,1,0,0,1-1.36-1.46,8.27,8.27,0,0,1,11.11,0,1,1,0,0,1-.63,1.77Z"/><path class="cls-5" d="M276.06,90a1,1,0,0,1-.63-.22,6.32,6.32,0,0,0-8.48,0,1,1,0,0,1-1.42-.06,1,1,0,0,1,.05-1.4,8.27,8.27,0,0,1,11.11,0,1,1,0,0,1,.14,1.41A1,1,0,0,1,276.06,90Z"/><circle class="cls-6" cx="243.22" cy="104.32" r="3"/><circle class="cls-6" cx="271.16" cy="104.32" r="3"/><path class="cls-5" d="M306.75,253.78C306,239,300.89,224.72,297,210.39a236.12,236.12,0,0,1-9.12-70.57c.42-13,2.13-25.95,1.71-38.94,0-1-.08-2-.14-3,.07-3.26,0-6.52-.16-9.74-.6-12.29-3.26-25.35-11.88-34.65-9.87-10.64-24.81-17.71-39-12.42a54.65,54.65,0,0,0-59.08,27.54,53.6,53.6,0,0,0-3.62,8.26c-5,14.67-3.59,30.69-6,46-7,45.49-46.65,81.34-52.12,127A91.21,91.21,0,0,0,163,338.26c5,2.81,11.66,4.83,16,1.1,3.75-3.26,3.45-9,4.37-13.86,2.55-13.24,15.91-22,29.2-24.35s26.84.17,40.28,1.07,28.05-.22,38.6-8.41C303.13,284.69,307.53,268.56,306.75,253.78ZM276.44,143.2c-.47,8.26-2.69,16.44-9.19,22.52a14.53,14.53,0,0,1-8.74,3.66c-7.7.79-14.08-2.44-20.57-4.72-2.59,7.25-.22,21.67-.5,30.76-13.44,1.29-40.67,6.66-38.3-5.7,2.8-14.59,5.63-44.12,3.54-58.18-4.55-.1-9.11-2.25-11.45-5.87a10.6,10.6,0,0,1-.86-10.24,9.07,9.07,0,0,1,1.36-2c12.62-6.5,23.49-9.9,32.53-20.86,13.18-16,20.42-28.41,23-36,12.73,3.08,22.28,20.67,28.58,37.05.11,2,.19,4,.25,6,.38,12.78.2,25.56.42,38.33C276.57,139.72,276.54,141.46,276.44,143.2Z"/><path class="cls-2" d="M185,180a6,6,0,0,0,.14-1.4,32.5,32.5,0,0,0-.14-4.07,74.69,74.69,0,0,0-3.11-14.64,163.51,163.51,0,0,1-5.61-21.21,38.49,38.49,0,0,1,0-12.76,25.13,25.13,0,0,1,5.46-12.28,50.67,50.67,0,0,1,11-8.42,70.1,70.1,0,0,0,10.18-8.41,91.26,91.26,0,0,0,13.64-17.48,124,124,0,0,0,6.95-13.21c.73-1.6,1.24-2.8,1.57-3.73a4.57,4.57,0,0,0,.45-1.35s-.92,1.71-2.52,4.86-4,7.6-7.32,12.9a93.08,93.08,0,0,1-13.72,17,67.24,67.24,0,0,1-10,8.11,49.75,49.75,0,0,0-11.22,8.55,26.08,26.08,0,0,0-5.78,13,40.11,40.11,0,0,0,0,13.21A151.6,151.6,0,0,0,181,160a84.35,84.35,0,0,1,3.53,14.36C184.87,178.07,184.82,180,185,180Z"/><path class="cls-2" d="M182.18,113.42a24.75,24.75,0,0,0,4.18-5.27,77.49,77.49,0,0,0,11.73-30.07,24,24,0,0,0,.5-6.7,185.31,185.31,0,0,1-6.11,21.82A182.07,182.07,0,0,1,182.18,113.42Z"/><path class="cls-2" d="M173.13,342.38c-4.21,0-8.47-2-10.62-3.24a92.29,92.29,0,0,1-45.92-89.45c2.82-23.49,14.76-44.69,26.32-65.19,11-19.52,22.38-39.72,25.8-61.81.87-5.61,1.22-11.43,1.57-17.07.59-9.69,1.21-19.72,4.42-29.1a55.14,55.14,0,0,1,3.69-8.41A56,56,0,0,1,238.28,40c15.43-5.59,30.67,2.91,39.82,12.77,7.41,8,11.38,19.53,12.15,35.28.17,3.52.22,6.73.16,9.81.06.94.11,2,.14,3a237,237,0,0,1-.87,24.35c-.33,4.8-.68,9.77-.84,14.65a234.74,234.74,0,0,0,9.08,70.26c.82,3,1.7,6,2.55,8.95,3.27,11.23,6.65,22.85,7.28,34.67.91,17.22-5,32.5-15.73,40.87-9,7-21.82,9.79-39.28,8.62-3.37-.23-6.79-.56-10.11-.88-9.87-1-20.08-1.95-29.92-.2-12.3,2.18-25.84,10.31-28.4,23.55-.21,1.11-.36,2.31-.5,3.46-.51,4-1,8.22-4.2,11A9.57,9.57,0,0,1,173.13,342.38ZM227.51,40.94a54,54,0,0,0-47.36,28.12,53.19,53.19,0,0,0-3.56,8.11c-3.12,9.12-3.73,19-4.31,28.58-.35,5.67-.71,11.54-1.59,17.25-3.48,22.45-14.95,42.8-26,62.49-11.46,20.32-23.3,41.34-26.07,64.43a90.27,90.27,0,0,0,44.91,87.48c3,1.66,10.33,5.1,14.81,1.2,2.59-2.24,3-5.86,3.52-9.69.15-1.19.31-2.42.53-3.59,2.73-14.19,17-22.85,30-25.15,10.11-1.79,20.46-.79,30.47.18,3.3.32,6.71.65,10,.87,16.94,1.14,29.34-1.55,37.91-8.2,10.25-8,15.84-22.62,15-39.19h0c-.62-11.59-4-23.09-7.2-34.22-.85-2.93-1.74-6-2.56-9a236.63,236.63,0,0,1-9.15-70.86c.16-4.92.51-9.91.85-14.73a236.36,236.36,0,0,0,.86-24.14c0-1-.08-2-.14-3,.06-3.12,0-6.28-.16-9.76-.74-15.26-4.54-26.38-11.62-34-8.76-9.45-23.32-17.6-37.93-12.16a1,1,0,0,1-.55,0A52.7,52.7,0,0,0,227.51,40.94ZM212.7,198.69c-5.8,0-10.73-.83-13.13-3.4a6.27,6.27,0,0,1-1.41-5.76c2.8-14.6,5.47-43,3.64-57-4.72-.36-9.13-2.76-11.4-6.28a11.57,11.57,0,0,1-.93-11.23,10,10,0,0,1,1.51-2.24,1.09,1.09,0,0,1,.29-.23c2.69-1.38,5.29-2.62,7.8-3.82,9.36-4.46,17.43-8.31,24.41-16.78C235,78,243.32,65,246.34,56.27a1,1,0,0,1,1.18-.65c10.82,2.62,20.67,15.29,29.27,37.67a.73.73,0,0,1,.06.3c.11,1.83.2,3.81.26,6,.22,7.41.25,14.93.28,22.21,0,5.29.05,10.76.14,16.13,0,1.88,0,3.61-.09,5.29h0c-.58,10.17-3.7,17.76-9.51,23.19a15.58,15.58,0,0,1-9.32,3.93c-6.54.67-12.12-1.45-17.52-3.49-.84-.32-1.68-.64-2.51-.94-1.29,4.67-.88,11.84-.48,18.79.22,3.9.43,7.58.34,10.71a1,1,0,0,1-.9,1c-1.95.19-4.2.46-6.58.75A158.89,158.89,0,0,1,212.7,198.69Zm-20.34-84.48a8.11,8.11,0,0,0-1.09,1.65,9.56,9.56,0,0,0,.81,9.27c2.06,3.19,6.23,5.31,10.62,5.41a1,1,0,0,1,1,.85c2.08,14-.66,43.49-3.55,58.51a4.38,4.38,0,0,0,.91,4c4.09,4.37,18.88,2.57,29.68,1.25,2-.25,4-.49,5.75-.67,0-2.85-.16-6.17-.35-9.65-.44-7.65-.89-15.56.88-20.54a1,1,0,0,1,1.28-.61c1.17.42,2.35.86,3.53,1.31,5.18,2,10.53,4,16.61,3.37a13.44,13.44,0,0,0,8.15-3.4c5.43-5.06,8.33-12.21,8.88-21.84.1-1.63.13-3.31.09-5.14-.09-5.39-.11-10.87-.14-16.16,0-7.27-.06-14.78-.28-22.16-.06-2.15-.14-4.06-.24-5.83-8-20.72-17.29-33.15-27-36.06-3.32,8.91-11.6,21.73-22.88,35.39-7.27,8.81-15.53,12.75-25.1,17.31C197.49,111.67,195,112.88,192.36,114.21Zm84.08,29h0Z"/><path class="cls-1" d="M263.89,490.08c5.29-15.6,11.18-55.6,11.8-64.73l-93.37-22S155.58,418.6,143,461.63C139.3,474.38,253.83,519.71,263.89,490.08Z"/><path class="cls-1" d="M263.89,490.08c5.29-15.6,11.18-55.6,11.8-64.73l-93.37-22S155.58,418.6,143,461.63C139.3,474.38,253.83,519.71,263.89,490.08Z"/><ellipse class="cls-1" cx="201.27" cy="475.34" rx="60.17" ry="54.67"/><path class="cls-1" d="M182.37,695.24l-60.8-14.32s6.24-181,21.45-219.29l120.87,28.45C247.69,548.52,182.37,695.24,182.37,695.24Z"/><ellipse class="cls-1" cx="151.97" cy="688.08" rx="31.4" ry="28.53"/><ellipse class="cls-1" cx="151.97" cy="688.08" rx="31.4" ry="28.53"/><path class="cls-1" d="M122.89,677.31l58.16,21.54L82.56,901.69a40,40,0,0,0-3.69,12.25h0l-37.18-6.42L64.57,795.36A167.92,167.92,0,0,1,82.36,749.1Z"/><ellipse class="cls-1" cx="59.82" cy="910.89" rx="18.51" ry="16.82"/><path class="cls-1" d="M83.81,976.78c-17.88-.26-34.25-.27-50.56-1.39-5.23-.36-10.47-3.76-12.42-8.22-2.7-6.16,0-13.64,2.32-19.56a43.88,43.88,0,0,1,4.09-8.09c1.58-2.42,3.7-4.43,5.43-6.76,6.41-8.63,7.81-19.53,9.9-29.55.07-.36,40.94-13.31,36.87,6.61-3.81,18.6,10.93,22.24,17.69,26.34a233.68,233.68,0,0,0,38.47,18.22c2.62,1,5.66,2.59,8.45,3,2.11.34,4.46-.15,6.62-.27,4.67-.27,9.31,0,11.88,4.12,7.22,11.44-7,14.56-16.3,15.45-8.43.8-16.92.58-25.39.62C108.51,977.41,96.16,977,83.81,976.78Z"/><ellipse class="cls-1" cx="59.2" cy="916.12" rx="18.51" ry="16.82"/><path class="cls-2" d="M118.44,978.35c-7.36,0-14.8-.16-22-.32-4.21-.09-8.42-.19-12.63-.25l-9.35-.12c-14.3-.18-27.81-.35-41.27-1.27-5.62-.39-11.2-4.1-13.26-8.81-3-6.84.32-15.29,2.3-20.33A44.06,44.06,0,0,1,26.4,939a37,37,0,0,1,3.16-4c.78-.91,1.59-1.84,2.3-2.8,5.39-7.26,7.22-16.52,8.69-24,0-.24.08-.5.14-.77a.43.43,0,0,1,0-.11L63.59,795.16a169.14,169.14,0,0,1,17.9-46.55l39.14-69.33c.72-19.66,7.07-181.79,21.46-218,12.5-42.83,39.47-58.61,39.74-58.76a1,1,0,0,1,.72-.11l93.37,22a1,1,0,0,1,.77,1c-.6,8.79-6.5,49.22-11.86,65-15.9,57.39-80,201.75-81.52,205.19l-.07.21c-.09.31-.19.62-.29.93l-.24.67c-.08.23-.17.45-.25.67s-.25.61-.38.91l-.12.28-.05.11c-.18.39-.35.74-.52,1.08l-.15.3L83.46,902.12a39.11,39.11,0,0,0-3.58,11.82c-.82,11.89,7.45,16,14.08,19.4,1.34.67,2.61,1.31,3.69,2A230.73,230.73,0,0,0,136,953.44c.77.3,1.57.64,2.39,1a27.37,27.37,0,0,0,5.87,2,17,17,0,0,0,4.38-.1c.68-.07,1.36-.14,2-.18,5-.28,9.95.07,12.79,4.58,2.23,3.54,2.71,6.67,1.42,9.3-2,4.12-8.24,6.71-18.48,7.68-6.75.65-13.63.64-20.29.63h-7.61ZM42.69,907.6a.78.78,0,0,1,0,.14c-.06.28-.11.55-.15.82-1.52,7.67-3.39,17.18-9.05,24.8-.76,1-1.59,2-2.4,2.91a37.56,37.56,0,0,0-3,3.8,43.26,43.26,0,0,0-4,7.91c-2.53,6.43-4.79,13.19-2.33,18.79,1.78,4.08,6.65,7.28,11.57,7.62,13.4.92,26.88,1.09,41.15,1.27l9.35.12c4.22.06,8.44.16,12.65.25,8,.17,16.27.36,24.39.31h5.19c6.61,0,13.44,0,20.1-.62,9.23-.88,15.22-3.21,16.88-6.57,1-2,.52-4.44-1.32-7.35-2.16-3.43-6-3.94-11-3.65-.63,0-1.27.1-1.93.17a18.7,18.7,0,0,1-4.9.08,28.44,28.44,0,0,1-6.33-2.13c-.8-.34-1.57-.67-2.31-1A232,232,0,0,1,96.62,937c-1-.61-2.25-1.23-3.56-1.89C86.28,931.7,77,927,77.89,913.74a41.31,41.31,0,0,1,3.77-12.49l97.94-201.7c.16-.32.32-.64.47-1l0-.09.14-.31c.12-.28.24-.56.35-.84l.23-.62.22-.63c.1-.29.19-.57.27-.86l.09-.27a.69.69,0,0,1,.05-.13c.65-1.47,65.47-147.31,81.46-205,5.17-15.24,10.84-53.49,11.71-63.7l-92.14-21.69c-3.07,1.93-27,17.94-38.51,57.48-14.36,36.16-20.68,199.21-21.36,217.69a.9.9,0,0,1-.13.45L83.23,749.59a167.37,167.37,0,0,0-17.69,46Zm78.93-228h0Z"/><path class="cls-1" d="M266.84,487.22c-8.13-14.75-34.15-47.49-40.58-54.48L139.82,482.2S139,507,164,546.71C171.27,558.24,282.28,515.23,266.84,487.22Z"/><path class="cls-1" d="M266.84,487.22c-8.13-14.75-34.15-47.49-40.58-54.48L139.82,482.2S139,507,164,546.71C171.27,558.24,282.28,515.23,266.84,487.22Z"/><ellipse class="cls-1" cx="213.57" cy="518.04" rx="57.67" ry="56.03"/><path class="cls-1" d="M365.72,689.07,314,719S182.48,584.4,164,546.71l102.82-59.49C299.74,540.07,365.72,689.07,365.72,689.07Z"/><ellipse class="cls-1" cx="339.86" cy="704.03" rx="30.1" ry="29.24"/><ellipse class="cls-1" cx="340.04" cy="704.03" rx="30.1" ry="29.24"/><path class="cls-1" d="M311.74,714l56.6-19.92,65.28,211.06-33.06,11.64-46.84-76.59a180.2,180.2,0,0,1-20.05-46.29Z"/><ellipse class="cls-1" cx="416.75" cy="909.98" rx="17.57" ry="17.07"/><path class="cls-1" d="M478.14,944.58c-13.3,10.52-25.3,20.33-38,29.22a14.86,14.86,0,0,1-14.69,1c-6.16-3.22-9.27-10.69-11.59-16.73a72.52,72.52,0,0,1-4.36-17.8c-.68-6-5.58-17.84-9.24-24.49-.18-.33,23.37-33.71,31.92-15.43,4.5,9.63,20.43,5.22,28.17,4.38A220.51,220.51,0,0,0,500.91,896c2.59-.79,5.9-1.36,8.26-2.68,1.78-1,3.17-2.79,4.67-4.18,3.25-3,6.85-5.56,11.51-3.9,13.07,4.65,4.77,15.61-1.46,21.89-5.64,5.69-12,10.61-18.19,15.71C496.68,930.26,487.32,937.32,478.14,944.58Z"/><ellipse class="cls-1" cx="418.23" cy="912.3" rx="17.74" ry="17.24"/><path class="cls-1" d="M275.84,502.54l-25.12-.33-52.46-.69-45.51-.59c-3.77-.05-9.44.13-9.44.13s-1-2.87-1.3-3.93c-4.67-16-1.14-32.83,3.55-48.34,4.46-14.74,18.34-32.19,27.85-44.52a86.19,86.19,0,0,1,6.28-7.36l8.48-7.38,91,23C275.13,432.74,264.87,471.1,275.84,502.54Z"/><path class="cls-2" d="M431.79,977.27A14.85,14.85,0,0,1,425,975.7c-6.79-3.55-10.09-12.13-12.06-17.26a73.31,73.31,0,0,1-4.42-18.05c-.54-4.76-3.83-13.3-6.86-19.66-.16-.3-.32-.65-.48-1a16.83,16.83,0,0,1-1.25-2.24.91.91,0,0,1-.18-.21L352.87,840.7a181,181,0,0,1-20.16-46.54l-20.84-75.91c-14.24-14.64-131.25-135.47-148.73-171-14.35-22.83-20.21-40.76-22.61-51.79A56.84,56.84,0,0,1,139,486c0-.26-.05-.52-.07-.77V485a26.45,26.45,0,0,1-.11-2.87v-.05c-.2-12.2,3-24.37,5.78-33.62,4.27-14.12,17.09-30.71,26.45-42.83l1.55-2a87.16,87.16,0,0,1,6.36-7.44l8.55-7.45a1,1,0,0,1,.9-.21l91,23a1,1,0,0,1,.74,1.16c-.44,2.19-.95,4.59-1.49,7.17-4.6,21.71-11.55,54.49-1.89,82.26,32.68,58.29,83.54,172.29,89.42,185.51a30.23,30.23,0,0,1,3.1,6.07,28.7,28.7,0,0,1,1,3.18L433.08,900c3.51,7.36,14.71,5.62,22.89,4.34,1.54-.24,3-.46,4.24-.6A218.74,218.74,0,0,0,500.62,895c.76-.23,1.58-.44,2.42-.66a24.75,24.75,0,0,0,5.64-1.94,14.87,14.87,0,0,0,3.11-2.68c.46-.46.91-.93,1.37-1.35,3.46-3.22,7.38-6,12.53-4.11,4.22,1.5,6.71,3.79,7.4,6.81,1,4.41-1.85,10-8.49,16.73a183.18,183.18,0,0,1-14.46,12.66c-1.27,1-2.54,2.07-3.8,3.12-6,4.92-12.17,9.75-18.17,14.42-3.14,2.45-6.29,4.89-9.41,7.37l-6.92,5.49c-10.62,8.44-20.65,16.42-31.16,23.76A15.7,15.7,0,0,1,431.79,977.27ZM401.24,916a.75.75,0,0,1,.31.37,16.66,16.66,0,0,0,1.3,2.36.83.83,0,0,1,.07.13c.18.38.32.69.48,1,2.9,6.07,6.46,15,7.07,20.34a70.83,70.83,0,0,0,4.3,17.55c2.53,6.58,5.47,13.25,11.12,16.2a13.86,13.86,0,0,0,13.65-.94c10.45-7.3,20.46-15.26,31-23.68,2.28-1.81,4.58-3.65,6.93-5.5,3.13-2.48,6.28-4.93,9.42-7.38,6-4.66,12.19-9.48,18.12-14.39l3.82-3.12a183.77,183.77,0,0,0,14.3-12.52c4.21-4.25,9-10.27,8-14.87-.53-2.31-2.59-4.12-6.12-5.38-3.91-1.39-7,.47-10.5,3.69-.44.41-.86.85-1.29,1.29a16.44,16.44,0,0,1-3.57,3,26.63,26.63,0,0,1-6.12,2.13c-.81.21-1.6.41-2.34.64a220.94,220.94,0,0,1-40.77,8.81c-1.2.13-2.64.35-4.16.59-8.33,1.3-20.92,3.26-25-5.53,0,0,0-.09-.05-.13L368.34,697.44a26.15,26.15,0,0,0-.94-3,27.92,27.92,0,0,0-2.93-5.73,1.09,1.09,0,0,1-.08-.15C358.68,675.69,307.67,561.33,275,503a.88.88,0,0,1-.1-.22c-9.84-28.3-2.83-61.42,1.82-83.34.47-2.21.91-4.29,1.3-6.21l-89.55-22.63-8.09,7a83.32,83.32,0,0,0-6.15,7.21l-1.56,2c-9.26,12-21.95,28.41-26.12,42.18-2.76,9.13-5.9,21.15-5.69,33.1a.57.57,0,0,1,0,.13c0,.26,0,1.15.11,2.59l0,.22c0,.22,0,.47.06.74a56.09,56.09,0,0,0,1.47,9.1c2.37,10.9,8.17,28.61,22.38,51.22a.41.41,0,0,1,0,.09c17.35,35.4,135.19,157,148.58,170.77a1,1,0,0,1,.24.43l20.91,76.16a178.69,178.69,0,0,0,19.94,46Z"/><path class="cls-7" d="M182.32,403.37S155.58,418.6,143,461.63c-14.44,36.36-20.79,201.29-21.4,217.93L82.36,749.1a167.92,167.92,0,0,0-17.79,46.26L40.69,902.54c7.49,11,41,11.88,41,11.88l98.67-214.14.15-.28c.16-.33.33-.66.48-1l.07-.15.11-.27c.13-.29.25-.58.37-.87l.24-.65c.08-.21.16-.43.23-.65s.19-.6.28-.89l.09-.28s65.32-146.72,81.52-205.16c5.29-15.6,11.18-55.6,11.8-64.73Z"/><path class="cls-8" d="M192.32,403.37S165.58,418.6,153,461.63c-14.44,36.36-20.79,201.29-21.4,217.93L92.36,749.1a167.92,167.92,0,0,0-17.79,46.26L50.69,902.54c7.49,11,41,11.88,41,11.88l98.67-214.14.15-.28c.16-.33.33-.66.48-1l.07-.15.11-.27c.13-.29.25-.58.37-.87l.24-.65c.08-.21.16-.43.23-.65s.19-.6.28-.89l.09-.28s65.32-146.72,81.52-205.16c5.29-15.6,11.18-55.6,11.8-64.73Z"/><path class="cls-2" d="M81.68,915.42h0c-1.38,0-34.1-1.07-41.79-12.31a1,1,0,0,1-.15-.78L63.59,795.14a169.26,169.26,0,0,1,17.9-46.53l39.14-69.33c.72-19.64,7.07-181.79,21.46-218,6.51-22.32,16.95-37.1,24.55-45.56,8.27-9.21,14.91-13,15.19-13.2a1,1,0,0,1,.72-.11l93.37,22a1,1,0,0,1,.77,1c-.6,8.79-6.51,49.22-11.86,65-15.9,57.39-80,201.75-81.52,205.19l-.07.21c-.09.31-.19.62-.29.93l-.24.67c-.08.23-.17.45-.25.67s-.25.61-.38.91l-.12.28-.05.11c-.18.39-.35.74-.52,1.08l-.15.29L82.59,914.84A1,1,0,0,1,81.68,915.42Zm-39.92-13.1c7,9.28,34.66,10.87,39.29,11.08l98.4-213.54.15-.31c.16-.32.32-.64.47-1l0-.09.14-.31.35-.84.23-.62c.08-.21.15-.42.22-.63s.19-.57.27-.86l.09-.27a.69.69,0,0,1,.05-.13c.65-1.47,65.47-147.31,81.46-205,5.17-15.23,10.84-53.49,11.71-63.7l-92.14-21.69c-3.07,1.93-27,17.94-38.51,57.48-14.36,36.16-20.68,199.21-21.36,217.69a.9.9,0,0,1-.13.45L83.23,749.59a167.05,167.05,0,0,0-17.69,46Zm79.86-222.76h0Z"/><path class="cls-7" d="M432.15,897.36,369.29,697.15a29.46,29.46,0,0,0-1-3.08,28.67,28.67,0,0,0-3-5.94c-5.13-11.55-56.62-127-89.46-185.59h0c-11-31.44-.71-69.8,3.32-90l-91-23-8.48,7.38a86.19,86.19,0,0,0-6.28,7.36c-9.51,12.33-23.39,29.78-27.85,44.52-3.25,10.74-5.93,22.12-5.73,33.41h0s0,1,.11,2.78a1.36,1.36,0,0,1,0,.2c0,.25,0,.5.07.77a55.35,55.35,0,0,0,1.49,9.25c2.41,11.11,8.27,28.87,22.51,51.51,17.42,35.57,135.51,157.43,148.75,171l20.9,76.15a180.2,180.2,0,0,0,20.05,46.29l40.33,80.11C423.47,916.77,432.15,897.36,432.15,897.36Z"/><path class="cls-9" d="M442.15,897.36,379.29,697.15a29.46,29.46,0,0,0-1-3.08,28.67,28.67,0,0,0-3-5.94c-5.13-11.55-56.62-127-89.46-185.59h0c-11-31.44-.71-69.8,3.32-90l-91-23-8.48,7.38a86.19,86.19,0,0,0-6.28,7.36c-9.51,12.33-23.39,29.78-27.85,44.52-3.25,10.74-5.93,22.12-5.73,33.41h0s0,1,.11,2.78a1.36,1.36,0,0,1,0,.2c0,.25,0,.5.07.77a55.35,55.35,0,0,0,1.49,9.25c2.41,11.11,8.27,28.87,22.51,51.51,17.42,35.57,135.51,157.43,148.75,171l20.9,76.15a180.2,180.2,0,0,0,20.05,46.29l40.33,80.11C433.47,916.77,442.15,897.36,442.15,897.36Z"/><path class="cls-2" d="M394.05,921.29a1,1,0,0,1-.9-.55l-40.32-80.11a180.72,180.72,0,0,1-20.12-46.47l-20.84-75.91c-14.24-14.64-131.25-135.47-148.73-171-14.35-22.83-20.21-40.76-22.61-51.79A56.84,56.84,0,0,1,139,486c0-.26-.05-.52-.07-.77V485c-.14-1.84-.12-2.83-.12-2.87a.09.09,0,0,0,0-.05c-.2-12.2,3-24.37,5.78-33.62,4.27-14.13,17.09-30.72,26.45-42.83l1.55-2a87.16,87.16,0,0,1,6.36-7.44l8.55-7.45a1,1,0,0,1,.9-.21l91,23a1,1,0,0,1,.74,1.16c-.44,2.19-.95,4.59-1.49,7.17-4.6,21.71-11.55,54.5-1.89,82.27,32.7,58.31,83.55,172.28,89.42,185.5a30,30,0,0,1,3.1,6.07,28.7,28.7,0,0,1,1,3.18L433.1,897.06a1,1,0,0,1,0,.71c-.36.81-9.25,20-38.89,23.52Zm-253.23-439c0,.27,0,1.16.11,2.59l0,.22c0,.22,0,.47.06.74a55.92,55.92,0,0,0,1.47,9.1c2.37,10.9,8.17,28.61,22.38,51.22a.41.41,0,0,1,0,.09c17.35,35.4,135.19,157,148.58,170.77a1,1,0,0,1,.24.43l20.9,76.16a179.06,179.06,0,0,0,19.95,46l40,79.55c25.85-3.36,35.16-19.43,36.45-21.93L368.34,697.45a28,28,0,0,0-3.87-8.76,1.09,1.09,0,0,1-.08-.15C358.68,675.69,307.68,561.36,275,503a.67.67,0,0,1-.1-.23c-9.84-28.3-2.83-61.41,1.82-83.33.47-2.21.91-4.29,1.3-6.21l-89.56-22.63-8.08,7a86.46,86.46,0,0,0-6.15,7.21l-1.56,2c-9.26,12-21.95,28.42-26.12,42.19-2.76,9.13-5.9,21.15-5.69,33.1A.53.53,0,0,1,140.82,482.31Z"/><path class="cls-1" d="M483.84,251.89c-.28-1.19-1.75-1.79-3.19-1.72a12.86,12.86,0,0,0-4.24,1.27l-4.23,1.87q5.28-4.2,10.44-8.52c1.82-1.52,3.82-3.62,3-5.41-.55-1.24-2.34-1.68-4-1.39a14.24,14.24,0,0,0-4.58,2q-4.53,2.65-9,5.42,8.58-6.61,16.84-13.53c1.82-1.51,3.82-3.62,3-5.41-.55-1.24-2.35-1.68-4-1.39a14.24,14.24,0,0,0-4.58,2q-14.16,8.31-27.67,17.54Q463.13,236.06,474,227c1.81-1.52,3.81-3.63,3-5.41-.55-1.24-2.34-1.68-4-1.39a14.19,14.19,0,0,0-4.57,2q-11.76,6.9-23.08,14.44-2.77,1.85-5.52,3.74c.12-.25.24-.5.35-.75,1.84-4.11,2.6-8.89-.09-12-.88-1-2.67-1.77-4-.82a3.79,3.79,0,0,0-1,1.37l-13,24.33a54.38,54.38,0,0,0-11.42,12c-.94,1.41-7.2,3.38-8.95,4.19l-9.45,4.41-19.41,9c-13.28,6.18-26.76,12.8-39.67,20C320,309.43,308.57,318,295.78,326a32.9,32.9,0,0,0-4.71,4,21.35,21.35,0,0,0-.73,27.84,20,20,0,0,0,14.5,8.08c10.56,1.16,18.69-4.73,27.88-10,31-17.91,60.52-37.15,86.57-60.63q4-3.58,7.87-7.24c8-7.5,17-5.46,31.66-18.37q11-6.33,21.59-13.18C482.21,255.25,484.25,253.59,483.84,251.89Z"/><path class="cls-1" d="M256.36,209.37c-1.73-2.49-1.69-3.41-3.75-5.61-13.33-14.25-34.35-10-42.47,4.49-4.95,8.86-4.47,20,3.2,31l73.92,115.46c.14.21,1.87,2.65,2,2.86a38.48,38.48,0,0,0,4.2,4.24c8.84,6.87,22.35,6.72,29.94-1.52,5.14-5.8,6.17-9.43,6.32-15.67-.39-8.24-6.95-18.72-10.4-25.66-9.15-18.42-20.71-35.46-30.59-53.41S268.21,226.39,256.36,209.37Z"/><path class="cls-2" d="M308,367.72a24.65,24.65,0,0,1-15.09-5.16,38.22,38.22,0,0,1-4.35-4.38l-2.09-2.95L212.5,239.75c-7.46-10.63-8.64-22.3-3.23-32a27.17,27.17,0,0,1,20.43-13.6,27.63,27.63,0,0,1,23.64,8.91,14.29,14.29,0,0,1,2.44,3.42,24.21,24.21,0,0,0,1.4,2.3c9.18,13.19,17.51,28.62,25.56,43.55,2.38,4.42,4.63,8.59,6.89,12.67,4,7.29,8.37,14.56,12.6,21.59,4.79,8,9.74,16.23,14.24,24.6,4.74-3.11,10.32-6.67,16.32-10,11.42-6.34,24.41-12.87,39.73-20l19.4-9,9.46-4.41c.52-.25,1.37-.57,2.35-.94,1.85-.7,5.69-2.15,6.19-2.9a54.78,54.78,0,0,1,11.47-12.12l12.87-24.15a4.6,4.6,0,0,1,1.32-1.7c1.71-1.26,4.05-.5,5.31,1,2.76,3.17,2.21,7.48,1.16,10.7l2.8-1.88c7.52-5,15.3-9.88,23.12-14.47a15.69,15.69,0,0,1,4.91-2.12c1.86-.33,4.24.14,5.06,2,1.23,2.78-2.18,5.64-3.3,6.58L470,231.6q4.46-2.74,8.94-5.38a15.24,15.24,0,0,1,4.91-2.12c1.87-.34,4.25.14,5.06,2h0c1.23,2.79-2.17,5.64-3.3,6.58-1.95,1.63-3.94,3.27-5.95,4.91a9.24,9.24,0,0,1,1.88-.55c1.87-.34,4.25.14,5.06,2,1.24,2.79-2.17,5.64-3.29,6.58-1.58,1.32-3.22,2.67-4.9,4a9.36,9.36,0,0,1,2.23-.43c2.11-.11,3.84.92,4.22,2.49.64,2.68-2.75,4.87-3.86,5.59-7,4.5-14.22,8.93-21.55,13.16A61.62,61.62,0,0,1,439,282.47c-4.19,1.64-7.81,3.06-11.17,6.21-2.43,2.29-5,4.67-7.88,7.26-22.83,20.58-49.58,39.32-86.74,60.76-1.15.66-2.28,1.33-3.39,2-2.89,1.71-5.61,3.33-8.45,4.71A22.39,22.39,0,0,1,308,367.72Zm-17.87-10.78a36.87,36.87,0,0,0,4,4c7.64,5.93,18.89,6.26,26.17.76l.16-.1c2.8-1.35,5.51-3,8.38-4.67l3.42-2c37-21.36,63.68-40,86.4-60.5,2.86-2.59,5.43-4.95,7.85-7.23,3.64-3.42,7.43-4.91,11.81-6.63a58.7,58.7,0,0,0,19.88-11.76l.16-.11c7.33-4.23,14.58-8.66,21.55-13.16,2.11-1.36,3.2-2.62,3-3.45-.14-.58-1.11-1-2.17-1a11.42,11.42,0,0,0-3.89,1.19q-2.12.91-4.22,1.86a1,1,0,0,1-1.27-.39,1,1,0,0,1,.24-1.3c3.64-2.9,7.15-5.76,10.42-8.5,2.18-1.83,3.16-3.33,2.75-4.24-.3-.69-1.57-1-2.88-.82a13.68,13.68,0,0,0-4.24,1.88c-2.95,1.73-6,3.55-9,5.42a1,1,0,0,1-1.14-1.65c5.77-4.46,11.43-9,16.81-13.5,2.18-1.83,3.15-3.33,2.75-4.24h0c-.3-.69-1.57-1-2.88-.81a13.43,13.43,0,0,0-4.24,1.87c-9.37,5.5-18.66,11.39-27.61,17.51a1,1,0,0,1-1.38-.25,1,1,0,0,1,.21-1.38c7.6-5.71,15.07-11.65,22.22-17.63,2.17-1.82,3.15-3.32,2.75-4.24-.31-.68-1.57-1-2.88-.81A13.31,13.31,0,0,0,469,223c-7.78,4.57-15.53,9.42-23,14.41-1.85,1.23-3.68,2.48-5.51,3.73a1,1,0,0,1-1.47-1.25l.34-.73c1-2.18,2.94-7.61.06-10.93-.57-.66-1.8-1.26-2.62-.66a3,3,0,0,0-.74,1l-13,24.33a1,1,0,0,1-.26.32,53,53,0,0,0-11.21,11.79c-.8,1.19-3.46,2.27-7.14,3.66-.95.36-1.76.67-2.21.88L392.77,274l-19.41,9c-15.27,7.1-28.23,13.62-39.6,19.92-6.34,3.52-12.21,7.29-17.11,10.52a1,1,0,0,1-.8.13,1,1,0,0,1-.63-.5c-4.61-8.65-9.74-17.2-14.71-25.47-4.23-7-8.6-14.33-12.64-21.65-2.26-4.09-4.51-8.27-6.89-12.69-8-14.88-16.32-30.26-25.44-43.36a26.89,26.89,0,0,1-1.51-2.47,12.65,12.65,0,0,0-2.15-3,25.65,25.65,0,0,0-21.94-8.28A25.16,25.16,0,0,0,211,208.74c-5,9-3.87,19.88,3.15,29.9L288.1,354.13l2,2.81Z"/><path class="cls-1" d="M177.46,191.32c-16.41,13.55-15.17,36.33-13,55.51,3,25.84,13.35,49.88,17.15,75.32,10.06,67.38-8.53,89.58-8.53,89.58,40.16,29.86,53.46,44.07,100.71,26.84,8.67-38.2,13.45-78.11,18.42-116.07,0,0,21.88-26.65,14.41-56-1.85-7.3-2.27-14.14-29.55-38.88-21.69-19.67-44.59-44-74.3-43.76-6.73.06-13.63.78-19.68,3.74A28.69,28.69,0,0,0,177.46,191.32Z"/><path class="cls-7" d="M177.46,191.32c-16.41,13.55-15.17,36.33-13,55.51,3,25.84,13.35,49.88,17.15,75.32,10.06,67.38-25.77,96.77-25.77,96.77,40.16,29.86,83.45,38.68,123.07,35.95,5.34-34.21,8.33-94.41,13.3-132.37,0,0,21.88-26.65,14.41-56-1.85-7.3-2.27-14.14-29.55-38.88-15.14-13.73-23.15-32.27-44.65-38-9.59-2.55-19.6-5.86-29.65-5.78-6.73.06-13.63.78-19.68,3.74A28.69,28.69,0,0,0,177.46,191.32Z"/><path class="cls-10" d="M187.46,191.32c-16.41,13.55-15.17,36.33-13,55.51,3,25.84,13.35,49.88,17.15,75.32,10.06,67.38-25.77,96.77-25.77,96.77,40.16,29.86,83.45,38.68,123.07,35.95,5.34-34.21,8.33-94.41,13.3-132.37,0,0,21.88-26.65,14.41-56-1.85-7.3-2.27-14.14-29.55-38.88-15.14-13.73-23.15-32.27-44.65-38-9.59-2.55-19.6-5.86-29.65-5.78-6.73.06-13.63.78-19.68,3.74A28.69,28.69,0,0,0,187.46,191.32Z"/><path class="cls-2" d="M265.09,456.36c-40.18,0-77.06-12.3-109.8-36.64a1,1,0,0,1-.4-.77,1,1,0,0,1,.36-.8c.35-.29,35.27-29.87,25.42-95.86-1.77-11.87-5-23.67-8.21-35.08-3.61-13-7.35-26.47-8.94-40.27-2.33-20.05-3.41-42.59,13.3-56.4h0a30.31,30.31,0,0,1,5.88-3.81c6.75-3.31,14.3-3.79,20.11-3.84,8.58-.08,17.06,2.28,25.27,4.54,1.56.44,3.11.86,4.65,1.27,15,4,23.43,13.93,32.32,24.45a141.28,141.28,0,0,0,12.74,13.76c26,23.57,27.8,31,29.55,38.16l.3,1.21c7.14,28-12.31,53.92-14.43,56.62-2.26,17.36-4.14,39.71-6,61.32-2.17,25.69-4.41,52.26-7.3,70.81a1,1,0,0,1-.92.84Q272,456.35,265.09,456.36ZM157.47,418.85c35.65,26.17,76.22,38,120.63,35.08,2.82-18.44,5-44.58,7.15-69.87,1.84-21.76,3.73-44.25,6-61.69a1.06,1.06,0,0,1,.22-.51c.22-.26,21.48-26.61,14.22-55.09l-.3-1.22c-1.68-6.89-3.42-14-28.95-37.16a143.73,143.73,0,0,1-12.93-13.95c-8.68-10.27-16.89-20-31.31-23.8-1.54-.41-3.1-.85-4.66-1.28-8.08-2.23-16.42-4.54-24.72-4.47-5.61.05-12.86.5-19.25,3.64a28.15,28.15,0,0,0-5.49,3.56c-15.93,13.16-14.85,35.1-12.59,54.62,1.58,13.65,5.29,27,8.88,40,3.19,11.47,6.48,23.33,8.27,35.32,5.23,35.06-2.12,59.72-9.21,74.24C167.11,409.21,160,416.5,157.47,418.85Z"/><path class="cls-7" d="M81.58,921.91c-.28-6.13,9.48,7,12.9,9.42a209.73,209.73,0,0,0,36.66,20.35c2.49,1.11,26.12-1.61,31.81,6,4.5,6,5.27,15.12-.6,19.68-7.91,6.15-23.82,4.21-33.31,5-25.19,2.18-50.44,2.08-75.69,1-7.86-.33-15.72-.79-23.56-1.43-7.14-.57-10.13-4.76-12.6-11.37-2.57-6.88,0-15.23,2.21-21.84a52.47,52.47,0,0,1,3.9-9c1.5-2.71,3.27-7.17,4.92-9.77,0,0,1.78-1.62,6.93,2C47.42,940.66,81.8,926.82,81.58,921.91Z"/><path class="cls-11" d="M86.58,921.91c-.28-6.13,9.48,7,12.9,9.42a209.73,209.73,0,0,0,36.66,20.35c2.49,1.11,26.12-1.61,31.81,6,4.5,6,5.27,15.12-.6,19.68-7.91,6.15-23.82,4.21-33.31,5-25.19,2.18-50.44,2.08-75.69,1-7.86-.33-15.72-.79-23.56-1.43-7.14-.57-10.13-4.76-12.6-11.37-2.57-6.88,0-15.23,2.21-21.84a52.47,52.47,0,0,1,3.9-9c1.5-2.71,3.27-7.17,4.92-9.77,0,0,1.78-1.62,6.93,2C52.42,940.66,86.8,926.82,86.58,921.91Z"/><path class="cls-2" d="M85.65,985c-10.1,0-20.81-.24-32.34-.72-8.34-.35-16.06-.81-23.6-1.43s-10.86-5.23-13.37-12c-2.81-7.51.32-16.86,2.19-22.45a53.77,53.77,0,0,1,4-9.19c.63-1.13,1.3-2.57,2-4.09a53.92,53.92,0,0,1,2.93-5.72.74.74,0,0,1,.16-.19c.39-.35,2.6-1.91,8.06,2,8.81,6.24,30.38,0,40-5.21,4.16-2.27,5-3.7,5-4.06h0c-.06-1.3.3-2.12,1.06-2.44,1.68-.71,4,1.48,8.81,6.66A42.07,42.07,0,0,0,95,930.59a207.2,207.2,0,0,0,36.5,20.25,33.05,33.05,0,0,0,5.71.27c8.25,0,22.07.13,26.46,6,4.64,6.17,5.67,15.94-.77,20.95-6.12,4.76-16.43,4.86-25.52,5-3,0-5.87.06-8.27.26C115.57,984.43,101.35,985,85.65,985ZM28.88,930.6a58.47,58.47,0,0,0-2.71,5.34c-.73,1.56-1.42,3-2.08,4.21A52.07,52.07,0,0,0,20.26,949c-2.42,7.25-4.59,14.86-2.21,21.23s5.09,10.24,11.81,10.79c7.52.61,15.21,1.07,23.53,1.42,29.37,1.21,53.38.89,75.57-1,2.48-.22,5.36-.25,8.41-.28,8.8-.09,18.78-.19,24.42-4.57s4.56-12.93.43-18.41c-3.85-5.12-17.1-5.2-25-5.25-3.77,0-5.62,0-6.44-.42A209.55,209.55,0,0,1,94,932.08a42.28,42.28,0,0,1-4.74-4.67c-1.94-2.07-5.47-5.85-6.69-6.18a2.64,2.64,0,0,0,0,.64h0c.07,1.61-1.94,3.54-6,5.74-9.37,5.11-32,12.11-41.9,5.1C30.89,930.07,29.26,930.45,28.88,930.6Z"/><rect x="18.59" y="977.31" width="146.57" height="8.89" rx="2"/><path class="cls-2" d="M163.17,987.11H20.59a2.92,2.92,0,0,1-2.91-2.91v-4.89a2.91,2.91,0,0,1,2.91-2.91H163.17a2.91,2.91,0,0,1,2.91,2.91v4.89A2.92,2.92,0,0,1,163.17,987.11ZM20.59,978.22a1.08,1.08,0,0,0-1.08,1.09v4.89a1.08,1.08,0,0,0,1.08,1.09H163.17a1.09,1.09,0,0,0,1.09-1.09v-4.89a1.09,1.09,0,0,0-1.09-1.09Z"/><path class="cls-7" d="M442.24,898.58c-3.84-4.78,11.78,0,16,0a209.84,209.84,0,0,0,41.59-5.24c2.67-.58,20.13-16.74,29.19-14,7.16,2.17,13.18,9.09,11.14,16.23-2.75,9.64-16.73,17.48-23.9,23.75-19,16.64-39.47,31.47-60.46,45.55q-9.79,6.57-19.85,12.77c-6.1,3.75-11,2.14-16.88-1.73-6.14-4-9-12.29-11.13-18.93a54.1,54.1,0,0,1-2.19-9.59c-.38-3.07-1.59-7.72-1.8-10.79,0,0,.49-2.36,6.79-2.46C425.76,933.89,445.32,902.41,442.24,898.58Z"/><path class="cls-11" d="M447.24,893.58c-3.84-4.78,11.78,0,16,0a209.84,209.84,0,0,0,41.59-5.24c2.67-.58,20.13-16.74,29.19-14,7.16,2.17,13.18,9.09,11.14,16.23-2.75,9.64-16.73,17.48-23.9,23.75-19,16.64-39.47,31.47-60.46,45.55q-9.79,6.57-19.85,12.77c-6.1,3.75-11,2.14-16.88-1.73-6.14-4-9-12.29-11.13-18.93a54.1,54.1,0,0,1-2.19-9.59c-.38-3.07-1.59-7.72-1.8-10.79,0,0,.49-2.36,6.79-2.46C430.76,928.89,450.32,897.41,447.24,893.58Z"/><path class="cls-2" d="M429.15,980.65c-3.56,0-7-1.61-10.6-4-6.18-4.06-9.07-11.82-11.49-19.41a53.42,53.42,0,0,1-2.23-9.76c-.16-1.28-.47-2.84-.79-4.49a57.08,57.08,0,0,1-1-6.35,1.1,1.1,0,0,1,0-.25c.11-.51,1-3.07,7.67-3.18,10.79-.17,24.52-17.93,29.17-27.82,2-4.3,1.87-6,1.65-6.24-.82-1-1-1.89-.59-2.6.94-1.56,4.09-1.15,11.05.17a40.69,40.69,0,0,0,6.21.93,208.43,208.43,0,0,0,41.42-5.22,33.16,33.16,0,0,0,4.76-3.17c6.69-4.83,17.89-12.93,24.88-10.81,7.4,2.24,14,9.51,11.76,17.35-2.13,7.46-10.38,13.64-17.67,19.08-2.41,1.81-4.69,3.52-6.51,5.1-16.82,14.71-36.06,29.21-60.55,45.62-6.93,4.65-13.43,8.84-19.88,12.8A13.74,13.74,0,0,1,429.15,980.65Zm-24.29-43.92a57.25,57.25,0,0,0,1,5.91c.33,1.68.64,3.27.81,4.62a52.18,52.18,0,0,0,2.15,9.42c2.33,7.29,5.08,14.71,10.76,18.45s10.16,5.24,15.9,1.71c6.43-3.94,12.91-8.12,19.82-12.75,24.43-16.37,43.61-30.83,60.37-45.48,1.87-1.63,4.18-3.36,6.62-5.19,7-5.27,15-11.25,17-18.12s-4-13.12-10.53-15.11c-6.12-1.85-16.86,5.91-23.28,10.55-3.05,2.21-4.56,3.28-5.44,3.47a209.81,209.81,0,0,1-41.78,5.26,42.14,42.14,0,0,1-6.58-1c-2.79-.53-7.87-1.49-9-1a2.94,2.94,0,0,0,.35.54h0c1,1.25.53,4-1.42,8.15-4.54,9.67-18.68,28.69-30.8,28.88C406.17,935.11,405.07,936.38,404.86,936.73Z"/><rect x="412.62" y="936.33" width="146.57" height="8.89" rx="2" transform="translate(-461.94 468.82) rotate(-36.21)"/><path class="cls-2" d="M429.84,987.77a2.9,2.9,0,0,1-2.35-1.19l-2.89-3.94a2.91,2.91,0,0,1,.63-4.07l115-84.23a2.91,2.91,0,0,1,4.07.63l2.89,3.94a2.93,2.93,0,0,1,.53,2.16,2.9,2.9,0,0,1-1.16,1.91h0l-115,84.23A2.9,2.9,0,0,1,429.84,987.77ZM542,895.6a1.09,1.09,0,0,0-.64.21L426.31,980a1,1,0,0,0-.43.71,1.06,1.06,0,0,0,.19.81L429,985.5a1.09,1.09,0,0,0,1.52.24l115-84.23a1.09,1.09,0,0,0,.43-.71,1.06,1.06,0,0,0-.19-.81l-2.89-4A1.09,1.09,0,0,0,542,895.6Zm4.07,6.64h0Z"/><path class="cls-2" d="M437.54,273a.9.9,0,0,1-.47-.13.89.89,0,0,1-.29-1.23c3.68-6,5-12.1,3.8-18.15a20.09,20.09,0,0,0-2.87-7.37.88.88,0,0,1-.13-.77l1.85-6.44a.89.89,0,0,1,1.71.49l-1.74,6.05c1.34,2.16,7.38,13.32-1.1,27.13A.9.9,0,0,1,437.54,273Z"/><path class="cls-2" d="M461.38,251.05a.91.91,0,0,1-.73-.38.89.89,0,0,1,.21-1.24l8.27-5.84a.9.9,0,0,1,1.25.21.89.89,0,0,1-.22,1.24l-8.27,5.84A.87.87,0,0,1,461.38,251.05Z"/><path class="cls-2" d="M466.11,257.86a.88.88,0,0,1-.76-.43.9.9,0,0,1,.3-1.23l11.15-6.72a.89.89,0,1,1,.92,1.53l-11.15,6.72A.84.84,0,0,1,466.11,257.86Z"/><path class="cls-2" d="M275.69,512.37A.85.85,0,0,1,275,512L269,503.8a.88.88,0,0,1,.2-1.24.9.9,0,0,1,1.25.2l5.93,8.2a.88.88,0,0,1-.2,1.24A.85.85,0,0,1,275.69,512.37Z"/><path class="cls-2" d="M283.38,507.64a.86.86,0,0,1-.68-.31l-8.44-9.92a.89.89,0,0,1,.1-1.26.9.9,0,0,1,1.26.1l8.43,9.92a.89.89,0,0,1-.1,1.26A.87.87,0,0,1,283.38,507.64Z"/><path class="cls-7" d="M207.88,398.85l-39.69-15.51L177.48,366l32.85,15.51c3.32-11,47.3-75.89,39.5-106.82,0,0-14-36.73-30.62-75.83-6.39-15-35.09-13-35.09-13,1.56-5.7,15.78-5.88,15.78-5.88s24.29,4.5,28.69,13.68c7.13,14.88,23.6,43.26,23.6,43.26s33-1.69,33.34-1.42c19.7,16.18,24,32.54,22.7,48.6A112.75,112.75,0,0,1,304,305c-1.07,3.48-11.7,17.51-11.7,17.51L286,451.66s4,25.88,47.16,117.65c2,4.2,24,58.2,33,80.28a6.91,6.91,0,0,1-6.26,9.52l-150.16,3.22a7,7,0,0,1-7.38-6.73c-.87-23.48-4.53-97.21-4.64-103.9-.86-50.79,4.16-101.49,10-151.9C207.81,399.48,207.85,399.17,207.88,398.85Z"/><path class="cls-12" d="M217.88,398.85l-39.69-15.51L187.48,366l32.85,15.51c3.32-11,47.3-75.89,39.5-106.82,0,0-13.95-36.73-30.62-75.83-6.39-15-35.09-13-35.09-13,1.56-5.7,15.78-5.88,15.78-5.88s24.29,4.5,28.69,13.68c7.13,14.88,23.6,43.26,23.6,43.26s33-1.69,33.34-1.42c19.7,16.18,24,32.54,22.7,48.6A112.75,112.75,0,0,1,314,305c-1.07,3.48-11.7,17.51-11.7,17.51L296,451.66s4,25.88,47.16,117.65c2,4.2,24,58.2,33,80.28a6.91,6.91,0,0,1-6.26,9.52l-150.16,3.22a7,7,0,0,1-7.38-6.73c-.87-23.48-4.53-97.21-4.64-103.9-.86-50.79,4.16-101.49,10-151.9C217.81,399.48,217.85,399.17,217.88,398.85Z"/><path class="cls-2" d="M209.32,663.34a8,8,0,0,1-7.95-7.7c-.45-12.24-1.66-38.19-2.74-61.08-1-21.26-1.85-39.63-1.9-42.84-.9-53.19,4.72-106.37,10.05-152l0-.18-39-15.23a1,1,0,0,1-.51-1.4l9.29-17.33a1,1,0,0,1,1.31-.43l31.85,15c1.24-3.16,4.3-8.72,8.37-16.1,13.63-24.77,36.45-66.21,30.75-89-.62-1.63-14.42-37.8-30.59-75.74-6-14.15-33.83-12.39-34.11-12.37a1,1,0,0,1-.84-.36,1,1,0,0,1-.19-.9c1.71-6.25,15.21-6.6,16.74-6.62a.75.75,0,0,1,.3,0l.32.07c7.43,1.57,25.12,6.1,29,14.14,6.5,13.56,21,38.7,23.26,42.66,32.79-1.68,33-1.48,33.42-1.16,17.27,14.18,24.59,29.89,23.05,49.45a114,114,0,0,1-4.3,21.08c-1.05,3.39-10,15.28-11.68,17.56L287,451.58h0c.94,4.87,7.64,33.42,47.06,117.29,2,4.2,23.76,57.57,33,80.33a7.91,7.91,0,0,1-7.16,10.9l-150.16,3.22ZM169.6,382.82l38.65,15.1a1,1,0,0,1,.63,1.05l-.11.94c-5.33,45.61-10.94,98.71-10,151.77.05,3.19.91,21.54,1.9,42.79,1.07,22.9,2.29,48.84,2.73,61.09a6,6,0,0,0,6.34,5.77l150.19-3.22a5.92,5.92,0,0,0,5.35-8.15c-9.27-22.74-31.05-76.07-33-80.23C292.71,485.65,286,456.88,285,452h0a1.34,1.34,0,0,1,0-.35l6.28-129.16a1,1,0,0,1,.2-.56c2.93-3.86,10.71-14.48,11.55-17.19a112.52,112.52,0,0,0,4.22-20.65c1.48-18.76-5.54-33.87-22.09-47.55-2.51-.05-20.75.82-32.9,1.44a1,1,0,0,1-.92-.49c-.16-.29-16.56-28.58-23.63-43.32-2.41-5-12.73-9.91-27.59-13l-.3-.07c-3.37.06-11.34.87-14,3.81a73.37,73.37,0,0,1,13.6,1c10.78,1.85,17.94,6.25,20.69,12.7,16.48,38.66,30.5,75.5,30.64,75.87l0,.11C256.74,298,233.67,340,219.88,365c-4.35,7.91-7.79,14.15-8.59,16.81a1,1,0,0,1-.55.62,1,1,0,0,1-.83,0l-32-15.11Z"/><path class="cls-13" d="M257.93,148.63c-.95,1.69-6.58,5.31-10.88,3.74s-3.27-6.75-2.31-8.43,5-3.94,9.34-2.38S258.89,147,257.93,148.63Z"/><g id="Caminho_6549" data-name="Caminho 6549"><path class="cls-2" d="M243.8,141.56c.66-.16,2.13,3.47,7.07,5.07s9.54,0,9.91.44-.81,1-2.85,1.56a15,15,0,0,1-8.18-.16,10,10,0,0,1-5.67-4.33C243.31,142.66,243.47,141.62,243.8,141.56Z"/></g><path class="cls-14" d="M313.92,312.43l-3.81,9.11a4.14,4.14,0,0,1-3-1.14l3.14-9.37Z"/><path class="cls-15" d="M303.59,338.44a1.07,1.07,0,0,1,.53,1.54l-24.61,62.46a1.94,1.94,0,0,1-2.09,1.41h0c-.93-.21-1.33-1.4-.91-2.57l22.9-63.16a1.1,1.1,0,0,1,1.51-.63Z"/><path class="cls-16" d="M303.59,338.44a1.07,1.07,0,0,1,.53,1.54l-24.61,62.46a1.94,1.94,0,0,1-2.09,1.41h0c-.93-.21-1.33-1.4-.91-2.57l22.9-63.16a1.1,1.1,0,0,1,1.51-.63Z"/><path class="cls-17" d="M310.11,321.55l-6.41,19.91c-.93,1-5.31.09-4.9-2l8.26-19A8.31,8.31,0,0,0,310.11,321.55Z"/><path class="cls-18" d="M308,321.55a1.43,1.43,0,0,1-.84-.48l-7.65,18.15c.06.86.57,1.13,1.32,1.37Z"/><path class="cls-19" d="M308.59,319.24c0-.06,0-.18-.11-.35a3.31,3.31,0,0,1,0-1.07,28.93,28.93,0,0,1,1-3.28,21.73,21.73,0,0,1,1-3.3s0-.07.06-.1l.33.13a.62.62,0,0,0,0,.1c-.23.84-.25,2-.64,3.37a31.27,31.27,0,0,1-1.34,3.16,3.61,3.61,0,0,0-.22,1C308.6,319.06,308.59,319.19,308.59,319.24Z"/><path class="cls-19" d="M310.81,316.24c-.28.37-.55.68-.74,1a2.89,2.89,0,0,0-.39.71l-.1.29s0-.12,0-.31a2.47,2.47,0,0,1,.16-.86c.22-.71.86-1.5,1.08-2.42s.23-1.95.45-2.65c.06-.17.11-.33.17-.47l.23.09a3,3,0,0,0,0,.44,13.2,13.2,0,0,1-.1,2.78A4,4,0,0,1,310.81,316.24Z"/><path class="cls-19" d="M312.26,315.9a5.53,5.53,0,0,1-.45.84l-.52.69a10.34,10.34,0,0,0-.85,1.07,3,3,0,0,0-.33.85c0,.17,0,.28,0,.33a2.29,2.29,0,0,1,0-1.32,5.49,5.49,0,0,1,.68-1.31l.42-.69a6.53,6.53,0,0,0,.36-.75c.42-1.07.7-2.17,1-2.92l.25-.68.18.07c0,.2,0,.43-.07.7A13.67,13.67,0,0,1,312.26,315.9Z"/><path class="cls-2" d="M319.55,337.18a7.78,7.78,0,0,1,1.4-6.31,11.81,11.81,0,0,1,5.31-3.89,13.93,13.93,0,0,0,2-.86,5,5,0,0,0,2.43-4.81,6.79,6.79,0,0,1,1.05,4.82,16.9,16.9,0,0,1-1.55,4.79,15.94,15.94,0,0,1-3.66,5.55,6.46,6.46,0,0,1-6.18,1.61,1.3,1.3,0,0,1-.54-.3A1.5,1.5,0,0,1,319.55,337.18Z"/><g class="cls-20"><path class="cls-7" d="M320.74,335.89l0-.59a5.06,5.06,0,0,1,.27-1.55c.12-.32.28-.63.44-1a9.73,9.73,0,0,1,.68-1,8.5,8.5,0,0,1,.9-.9,8.87,8.87,0,0,1,1-.8,46.38,46.38,0,0,1,4.12-2.24,6.27,6.27,0,0,0,.69-.48,1.59,1.59,0,0,0,.41-.48c.12-.15.09-.3.13-.4l0-.15v.16c0,.09,0,.26,0,.44a1.76,1.76,0,0,1-.35.61,3.26,3.26,0,0,1-.65.63c-1,.81-2.58,1.56-3.94,2.5a8.45,8.45,0,0,0-1,.73c-.33.25-.59.54-.88.8s-.49.57-.71.85-.37.58-.51.85a8.09,8.09,0,0,1-.33.77,6.69,6.69,0,0,0-.18.65C320.79,335.68,320.74,335.89,320.74,335.89Z"/></g><g class="cls-20"><path class="cls-7" d="M329.32,328.77a4.43,4.43,0,0,1-.1.52,3,3,0,0,1-.32.55,2.86,2.86,0,0,1-.58.57c-.95.73-2.37,1.31-3.59,2.13-.31.19-.58.43-.87.64s-.55.46-.76.73a7.55,7.55,0,0,0-1.11,1.51,8.53,8.53,0,0,0-.61,1.22l-.22.48.08-.52a6.05,6.05,0,0,1,.38-1.35,6.92,6.92,0,0,1,1.78-2.59,11.12,11.12,0,0,1,.94-.72,40.49,40.49,0,0,1,3.75-1.87,4.44,4.44,0,0,0,.62-.41,3.43,3.43,0,0,0,.38-.42Z"/></g><g class="cls-20"><path class="cls-7" d="M327.49,332.35l-.2.26a5.73,5.73,0,0,0-.51.67,19.68,19.68,0,0,1-1.42,2.2,4.51,4.51,0,0,1-.53.54,2.33,2.33,0,0,1-.61.43,2,2,0,0,1-.61.26,3.18,3.18,0,0,1-.61.15,3.31,3.31,0,0,1-1.22-.08l.32-.08a3.48,3.48,0,0,0,.8-.23,2.62,2.62,0,0,0,.48-.23,2.89,2.89,0,0,0,.51-.33,2.55,2.55,0,0,0,.47-.4,3.54,3.54,0,0,0,.45-.49c.29-.34.56-.72.84-1.07a9.86,9.86,0,0,1,.83-.93,3,3,0,0,1,.72-.52Z"/></g><path class="cls-15" d="M274.64,394l30.67-42.29a1.45,1.45,0,0,1,2.16-.2l3.07,2.28a1.4,1.4,0,0,1,.06,2.16l-33.37,40.07a1.62,1.62,0,0,1-2.12.32h0A1.63,1.63,0,0,1,274.64,394Z"/><path class="cls-17" d="M304.58,352.38l14.77-16.78a3.47,3.47,0,0,0,3.51,2.7l-12.68,18.64C308.54,358.15,303.38,354.92,304.58,352.38Z"/><path class="cls-18" d="M319.73,337.9a2,2,0,0,1-.73-1.21L305.2,352.6a2.46,2.46,0,0,0,1.17,2.47Z"/><path class="cls-2" d="M275.73,404.39a1.67,1.67,0,0,1-.44-.06,1.77,1.77,0,0,1-1.18-.91,2.85,2.85,0,0,1-.1-2.32l22.27-61.43a1.23,1.23,0,0,1,0-.32.19.19,0,0,1,0-.1l.56-1.3s0,0,0,0l7.68-17.69h0l3.14-9.34a.49.49,0,0,1,.26-.29.48.48,0,0,1,.39,0l3.7,1.39a.55.55,0,0,1,.29.27.53.53,0,0,1,0,.39l-3.8,9.11-6.4,19.89a.54.54,0,0,1-.11.18,1.12,1.12,0,0,1-.2.17L278,402.62A2.59,2.59,0,0,1,275.73,404.39Zm21.55-64.8v.15a.63.63,0,0,1,0,.19L275,401.44a1.89,1.89,0,0,0,0,1.5.81.81,0,0,0,.52.41l.1,0c.48.12,1.14-.37,1.44-1.14l24-60.79a.56.56,0,0,1,.22-.26l0,0,6.33-19.68a.52.52,0,0,1,.1-.27l3.56-8.52-2.74-1-2.88,8.6a.52.52,0,0,1-.06.51.74.74,0,0,1-.2.16l-7.54,17.34a.08.08,0,0,1,0,0Z"/><path class="cls-2" d="M274,397.14a2.14,2.14,0,0,1-1.74-3.39l29.71-41a1.89,1.89,0,0,1,.18-.61.75.75,0,0,1,.07-.12l14.67-16.66a8.6,8.6,0,0,1,1.68-4.82,12.25,12.25,0,0,1,5.53-4.06l.49-.18a9.74,9.74,0,0,0,1.46-.64,4.54,4.54,0,0,0,2.18-4.32.5.5,0,0,1,.32-.52.5.5,0,0,1,.58.17,7.24,7.24,0,0,1,1.15,5.18,17.14,17.14,0,0,1-1.6,4.93,16.41,16.41,0,0,1-3.78,5.72,7.75,7.75,0,0,1-3.7,1.86L308.6,357.22a.34.34,0,0,1-.12.12,1.58,1.58,0,0,1-.57.26l-32.29,38.78A2.14,2.14,0,0,1,274,397.14Zm29-44.49a1.34,1.34,0,0,0-.09.37.5.5,0,0,1-.09.24l-29.78,41.07a1.1,1.1,0,0,0-.2.87,1.11,1.11,0,0,0,.5.74,1.14,1.14,0,0,0,1.5-.2l32.4-38.91a.48.48,0,0,1,.29-.17.9.9,0,0,0,.29-.09l12.37-18.19s0-.05,0-.08a.48.48,0,0,1,.4-.51,6.79,6.79,0,0,0,3.63-1.69,15.77,15.77,0,0,0,3.53-5.38,16.21,16.21,0,0,0,1.51-4.65,7.16,7.16,0,0,0-.2-2.91,5.58,5.58,0,0,1-2.53,3.4,10.32,10.32,0,0,1-1.61.7l-.47.18a11.32,11.32,0,0,0-5.1,3.72,7.59,7.59,0,0,0-1.48,4.49.51.51,0,0,1-.3.46Z"/><path class="cls-2" d="M273.69,377.6a7.58,7.58,0,0,1-.87,2.31,7,7,0,0,1-5.82,3.5h-.36a6.56,6.56,0,0,1-1.75-.3,7.58,7.58,0,0,1-1-.45A8.6,8.6,0,0,1,263,382a6,6,0,0,1-2.06-4.15,4.45,4.45,0,0,1,.09-1.18,4,4,0,0,1,.15-.62l.23-.58a2.48,2.48,0,0,1,.32-.54c.12-.17.22-.35.35-.51a5.22,5.22,0,0,1,.94-.82,5,5,0,0,1,2.32-.86h.48a4.13,4.13,0,0,1,1.94.6,3.82,3.82,0,0,1,1.59,1.85,4.68,4.68,0,0,1,.3,1.17V377a4.56,4.56,0,0,1-.13.62A3.17,3.17,0,0,1,268,379.4a3.12,3.12,0,0,1-2.18.36,2.48,2.48,0,0,1-1.81-3.22,2,2,0,0,1,1.31-1.19,3.43,3.43,0,0,1,.42-.08,1.84,1.84,0,0,1,.41,0,1.62,1.62,0,0,1,.74.33,1.59,1.59,0,0,1,.59,1.25,1.26,1.26,0,0,1-.55,1,1.19,1.19,0,0,1-.9.19,1,1,0,0,1-.57-.36,1.08,1.08,0,0,1-.19-.52,1.18,1.18,0,0,0,.23.49.92.92,0,0,0,.55.3,1.16,1.16,0,0,0,.79-.22,1.05,1.05,0,0,0,.41-.9,1.35,1.35,0,0,0-.54-1,1.3,1.3,0,0,0-.59-.23,1,1,0,0,0-.35,0l-.33.08a1.65,1.65,0,0,0-1,1,1.29,1.29,0,0,0-.09.35,2.93,2.93,0,0,0,0,.42c0,.12.05.26.1.39s.1.25.16.37a2.05,2.05,0,0,0,1.33.95,2.55,2.55,0,0,0,2.83-1.8c0-.14.06-.28.08-.44v-.5a4.47,4.47,0,0,0-.26-1,3.06,3.06,0,0,0-1.31-1.49,3.31,3.31,0,0,0-1.95-.44,4.29,4.29,0,0,0-1.95.73,4.24,4.24,0,0,0-.78.69,3.25,3.25,0,0,0-.31.42,2.07,2.07,0,0,0-.27.45l-.21.48c-.06.16-.07.33-.12.49a3.69,3.69,0,0,0-.09,1.08,5.32,5.32,0,0,0,1.76,3.62,7.61,7.61,0,0,0,.82.58c.28.18.6.28.89.43a5.32,5.32,0,0,0,1.89.32,6.4,6.4,0,0,0,3.39-1,7.12,7.12,0,0,0,2.18-2.11,7.51,7.51,0,0,0,1-2.18,8.32,8.32,0,0,0,.19-1.54v-.55s0,.19,0,.55A6.51,6.51,0,0,1,273.69,377.6Z"/><path class="cls-11" d="M291,342.34l-.12,7.08-.1,6-.42,6-.43,6-.57,7.87v.12c0,.07,0,.13,0,.21v.13a6.54,6.54,0,0,1-.09,1.56,7.56,7.56,0,0,1-.85,2.31,7.08,7.08,0,0,1-2.19,2.34,7.78,7.78,0,0,1-2.15,1l-1.5,0-1.45.1-2.74.21-4.62-7.59-.84-7.91-.55-6-1.09-12-.65-7.07Z"/><path class="cls-21" d="M280.47,382.85a5.91,5.91,0,0,0,1.76.3l-15.59.27a6.56,6.56,0,0,1-1.75-.3,7.58,7.58,0,0,1-1-.45A8.6,8.6,0,0,1,263,382a6,6,0,0,1-2.06-4.15,4.45,4.45,0,0,1,.09-1.18,4,4,0,0,1,.15-.62l.23-.58a2.48,2.48,0,0,1,.32-.54c.12-.17.22-.35.35-.51a5.22,5.22,0,0,1,.94-.82,5,5,0,0,1,2.32-.86l15.59-.26a5.07,5.07,0,0,0-2.33.85,5.22,5.22,0,0,0-.93.83,4.67,4.67,0,0,0-.36.51,2.23,2.23,0,0,0-.31.54l-.25.57c-.06.19-.09.42-.14.63a4.38,4.38,0,0,0-.08,1.17,6,6,0,0,0,2,4.15c.29.25.63.44.93.66A8.13,8.13,0,0,0,280.47,382.85Z"/><path class="cls-22" d="M282.4,372.47l-1.52,0a4.24,4.24,0,0,1,1.52.19Z"/><path class="cls-2" d="M289.27,377.34a7.76,7.76,0,0,1-.86,2.3,7,7,0,0,1-2.19,2.33,7.74,7.74,0,0,1-2.14,1,6.62,6.62,0,0,1-1.5.21,5.36,5.36,0,0,1-1.46-.13,5.68,5.68,0,0,1-.65-.17,8.13,8.13,0,0,1-1-.44c-.3-.22-.64-.41-.93-.66a6,6,0,0,1-2-4.15,4.38,4.38,0,0,1,.08-1.17c.05-.21.08-.44.14-.63l.25-.57a2.23,2.23,0,0,1,.31-.54,4.67,4.67,0,0,1,.36-.51,5.22,5.22,0,0,1,.93-.83,5.07,5.07,0,0,1,2.33-.85,4.21,4.21,0,0,1,1.52.19,4,4,0,0,1,.9.39,3.82,3.82,0,0,1,1.57,1.85,4.4,4.4,0,0,1,.31,1.17v.59c0,.19-.09.41-.13.62a3.14,3.14,0,0,1-2.53,2.21,2.56,2.56,0,0,1-1.07,0,2.48,2.48,0,0,1-1.82-3.21,2,2,0,0,1,1.31-1.2c.14,0,.29-.05.42-.08a2.54,2.54,0,0,1,.41,0,1.68,1.68,0,0,1,.68.3l.06,0a1.58,1.58,0,0,1,.58,1.26,1.24,1.24,0,0,1-.54,1l-.06,0a1.21,1.21,0,0,1-.84.16,1.11,1.11,0,0,1-.57-.37,1,1,0,0,1-.18-.52.89.89,0,0,0,.77.79,1.05,1.05,0,0,0,.79-.22l0,0a1.07,1.07,0,0,0,.39-.87,1.38,1.38,0,0,0-.42-.9,1.5,1.5,0,0,1-.13-.11,1.27,1.27,0,0,0-.58-.23,2.08,2.08,0,0,0-.35,0l-.34.09a1.65,1.65,0,0,0-1,1,2.46,2.46,0,0,0-.09.34c0,.13,0,.33,0,.42s0,.26.09.39a2.48,2.48,0,0,0,.17.37,2,2,0,0,0,1.32,1,2.23,2.23,0,0,0,1,0,2.57,2.57,0,0,0,1.87-1.77c0-.15.07-.28.09-.44v-.51a3.5,3.5,0,0,0-.26-1,3,3,0,0,0-1.3-1.49,2.7,2.7,0,0,0-.49-.23,3.37,3.37,0,0,0-1.47-.22A4.23,4.23,0,0,0,279,374a4,4,0,0,0-.8.68c-.11.13-.2.29-.3.42a2.13,2.13,0,0,0-.27.46l-.2.47a3,3,0,0,0-.13.49,3.73,3.73,0,0,0-.09,1.08,5.33,5.33,0,0,0,1.77,3.62c.25.23.55.39.81.59s.6.28.89.42a5.27,5.27,0,0,0,1.88.32h0a6.38,6.38,0,0,0,3.39-1,6.8,6.8,0,0,0,2.08-2.14,5.64,5.64,0,0,0,.8-2.46c.14-.66.46-.85.47-1.22,0-.18,0-.31,0-.4v-.06a.41.41,0,0,1,0,.12c0,.07,0,.13,0,.21s0,.08,0,.13A8,8,0,0,1,289.27,377.34Z"/><path class="cls-2" d="M270.63,342.69l21-.36C288.13,336.27,272.8,337.48,270.63,342.69Z"/><rect class="cls-23" x="277.14" y="336.82" width="7.81" height="1.83" transform="translate(-5.72 4.84) rotate(-0.98)"/><polygon class="cls-24" points="284.73 324.45 276.92 324.59 275.53 336.91 286.53 336.73 284.73 324.45"/><polygon class="cls-24" points="290.83 349.42 290.73 355.43 290.31 361.43 272.37 361.74 271.28 349.76 290.83 349.42"/><path class="cls-2" d="M289.34,376.75a4.64,4.64,0,0,1-.78,2l2.4-36.44.67,0Z"/><g class="cls-25"><polygon class="cls-7" points="274.28 366.29 272.15 343.96 275.65 343.9 274.28 366.29"/></g><path class="cls-2" d="M264.65,383.92a6.94,6.94,0,0,1-1.9-.32l-.36-.14a4.12,4.12,0,0,1-.77-.36l-.34-.23a5.31,5.31,0,0,1-.66-.48,6.56,6.56,0,0,1-2.23-4.49v-.3a4,4,0,0,1,.1-1,1.42,1.42,0,0,0,0-.2,3.51,3.51,0,0,1,.13-.49l.24-.58a2.09,2.09,0,0,1,.3-.53l.06-.09.14-.21a2.88,2.88,0,0,1,.26-.35l.27-.28a3.57,3.57,0,0,1,.8-.66,5.37,5.37,0,0,1,2.49-.91l7.66-.14-.45-4.35-2.3-25a.51.51,0,0,1,.08-.32c.82-1.84,3.15-3.31,6.44-4.08v-.94l-1.1,0a.54.54,0,0,1-.38-.16.52.52,0,0,1-.13-.39l1.39-12.33a.5.5,0,0,1,.49-.44l7.81-.14a.53.53,0,0,1,.5.43L285,336.65a.49.49,0,0,1-.12.4.51.51,0,0,1-.37.18h-1.1l0,.9c3.15.62,5.49,2,6.6,3.94a.59.59,0,0,1,.07.29l-2.27,34.08-.51.09.5,0v.22a.36.36,0,0,1,0,.1,3.38,3.38,0,0,1-.06.53,8,8,0,0,1-.92,2.47,7.66,7.66,0,0,1-1.14,1.49,7,7,0,0,1-1.21,1,8.57,8.57,0,0,1-2.29,1h-.13a5.94,5.94,0,0,1-1.48.21h-.35l-3.82.08h-.15Zm4.49-41.13,2.28,24.9.52,4.88a.48.48,0,0,1-.13.38.46.46,0,0,1-.36.17l-8.15.14a4.57,4.57,0,0,0-2,.75,2.8,2.8,0,0,0-.63.53l-.27.27-.15.21-.15.23-.05.08a1,1,0,0,0-.19.33l-.25.6a1.32,1.32,0,0,0-.07.3l-.06.25a3,3,0,0,0-.07.79v.28a5.26,5.26,0,0,0,2.44,4.16l.34.23a3.59,3.59,0,0,0,.58.25l.34.14a5.85,5.85,0,0,0,1.56.26l11.71-.2h.19l2.32,0a.52.52,0,0,1,.45-.14l.19,0h.11l.16.07H280a.32.32,0,0,1,.14,0h0a3.28,3.28,0,0,0,.43,0,6.18,6.18,0,0,0,1.38-.19H282a7.5,7.5,0,0,0,1.95-.89,5.82,5.82,0,0,0,1-.88,7.1,7.1,0,0,0,1-1.29,7,7,0,0,0,.8-2.15l.06-.52,0-.21v-.06L289.08,343l-.15,0a.5.5,0,0,1-.48-.51v-.16a.53.53,0,0,1,.27-.44,9.63,9.63,0,0,0-5.84-2.85.5.5,0,0,1-.41-.49l0-1.8a.5.5,0,0,1,.49-.51h1L282.3,325l-6.93.12-1.28,11.32h1l3.68-.07a.53.53,0,0,1,.51.49.5.5,0,0,1-.49.51l-3.18.06,0,1.17a.36.36,0,0,1,0,.11.47.47,0,0,1-.37.54C272.16,339.87,269.87,341.2,269.14,342.79Zm18.21,33.75h0Z"/><path class="cls-7" d="M260.13,352l47.49,13.55s19.32,73.19-10.28,87l-36.19-14Z"/><path class="cls-26" d="M270.13,352l47.49,13.55s19.32,73.19-10.28,87l-36.19-14Z"/><path class="cls-2" d="M297.34,453.55a.89.89,0,0,1-.36-.07l-36.2-14a1,1,0,0,1-.63-.92l-1-86.57a1,1,0,0,1,.39-.81,1,1,0,0,1,.89-.17l47.49,13.55a1,1,0,0,1,.69.71,220.56,220.56,0,0,1,6,38.52c1.52,27-4.14,43.74-16.82,49.68A1,1,0,0,1,297.34,453.55Zm-35.2-15.7,35.16,13.61c26.64-13.15,11.16-78.45,9.5-85.14l-45.65-13Z"/><path class="cls-27" d="M255.78,544.24,147.42,522.82l15-75.85,108.36,21.42-2.64,13.36a7.83,7.83,0,0,1-6-8.05l-1.68-.33a9.51,9.51,0,0,0,7.33,10.06Z"/><path class="cls-2" d="M255.4,546.14,147,524.72l15-75.87L270.4,470.27l-2.27,11.48a7.83,7.83,0,0,1-6-8.05l-1.68-.33a9.51,9.51,0,0,0,7.33,10.06Z"/><path class="cls-2" d="M255,548.23,146.63,526.8l15-75.85L270,472.37l-1.86,9.38a7.83,7.83,0,0,1-6-8.05l-1.68-.33a9.51,9.51,0,0,0,7.33,10.06Z"/><path class="cls-28" d="M253.62,554.42l13.27-67.1.33-1.68,1.32-6.67-7.31-1.37-1.68-.34c-40.65-7.86-89.59-19.51-95.74-11.59l-14.92,75.46C161,535.23,211.75,546.84,253.62,554.42Z"/><path class="cls-2" d="M254.54,551h-.09c-7.86-1.42-16.16-3-24.19-4.55-34.67-6.64-70.52-13.51-80.24-8.78a.5.5,0,0,1-.71-.55l14.92-75.46a.51.51,0,0,1,.1-.21c5.34-6.88,39.68,0,76,7.39,6.69,1.35,13.61,2.74,20.2,4l1.68.33c2.52.48,4.93.94,7.3,1.37a.53.53,0,0,1,.33.22.48.48,0,0,1,.07.37L255,550.62A.51.51,0,0,1,254.54,551Zm-93.81-15.92c15.54,0,42,5.08,69.71,10.38,7.87,1.5,16,3.06,23.7,4.46l14.72-74.47-6.74-1.27-1.75-.35c-6.59-1.27-13.51-2.67-20.21-4-34.29-6.92-69.74-14.08-75-7.85l-14.71,74.42C152.89,535.51,156.38,535.11,160.73,535.11Z"/><rect class="cls-27" x="260" y="478.19" width="4.87" height="4.42" transform="translate(-259.74 644.68) rotate(-78.82)"/><rect class="cls-27" x="257.94" y="488.64" width="4.87" height="4.42" transform="translate(-271.66 651.07) rotate(-78.82)"/><rect class="cls-27" x="255.87" y="499.09" width="4.87" height="4.42" transform="translate(-283.58 657.47) rotate(-78.82)"/><rect class="cls-27" x="253.8" y="509.54" width="4.87" height="4.42" transform="translate(-295.5 663.87) rotate(-78.82)"/><rect class="cls-27" x="251.74" y="520" width="4.87" height="4.42" transform="translate(-307.42 670.27) rotate(-78.82)"/><rect class="cls-27" x="249.67" y="530.45" width="4.87" height="4.42" transform="translate(-319.34 676.67) rotate(-78.82)"/><rect class="cls-27" x="247.6" y="540.9" width="4.87" height="4.42" transform="translate(-331.26 683.06) rotate(-78.82)"/><path class="cls-2" d="M268.46,483.15c5.62,1.11,11-1.88,11.9-6.67s-2.85-9.58-8.46-10.69a11.29,11.29,0,0,0-7.92,1.26l3,.59a9.94,9.94,0,0,1,4.59-.17c4.69.93,7.89,4.82,7.12,8.68s-5.2,6.25-9.88,5.32a9.53,9.53,0,0,1-5.73-3.43l-2.32-.46A10.92,10.92,0,0,0,268.46,483.15Z"/><path class="cls-2" d="M278.3,486.92c.95-4.79-2.85-9.58-8.47-10.69l-.59-.09-.33,1.69c.2,0,.39,0,.59.08,4.69.92,7.88,4.82,7.12,8.68s-5.2,6.24-9.89,5.32a9.59,9.59,0,0,1-5.73-3.43l-2.32-.46a11,11,0,0,0,7.72,5.57C272,494.7,277.35,491.71,278.3,486.92Z"/><path class="cls-2" d="M276.23,497.38c.95-4.79-2.85-9.58-8.47-10.69-.19,0-.39-.06-.59-.09l-.33,1.69c.2,0,.39,0,.59.08,4.69.92,7.89,4.82,7.12,8.68s-5.2,6.24-9.89,5.32a9.59,9.59,0,0,1-5.73-3.43l-2.31-.46a10.93,10.93,0,0,0,7.71,5.57C270,505.16,275.29,502.17,276.23,497.38Z"/><path class="cls-2" d="M274.16,507.84c.95-4.79-2.85-9.58-8.46-10.69l-.59-.09-.34,1.69a5.59,5.59,0,0,1,.59.08c4.69.92,7.89,4.82,7.12,8.68s-5.2,6.24-9.88,5.32a9.53,9.53,0,0,1-5.73-3.43l-2.32-.46a11,11,0,0,0,7.71,5.57C267.88,515.62,273.22,512.63,274.16,507.84Z"/><path class="cls-2" d="M272.1,518.3c.94-4.79-2.86-9.58-8.47-10.69l-.59-.09-.34,1.69c.2,0,.4,0,.6.08,4.68.92,7.88,4.82,7.12,8.68s-5.2,6.24-9.89,5.32a9.61,9.61,0,0,1-5.73-3.43l-2.32-.46A11,11,0,0,0,260.2,525C265.81,526.08,271.15,523.09,272.1,518.3Z"/><path class="cls-2" d="M270,528.76c1-4.79-2.85-9.58-8.47-10.69L261,518l-.33,1.69c.19,0,.39,0,.59.08,4.69.92,7.88,4.82,7.12,8.68s-5.2,6.24-9.89,5.32a9.61,9.61,0,0,1-5.73-3.43l-2.32-.46a11,11,0,0,0,7.72,5.57C263.74,536.54,269.08,533.55,270,528.76Z"/><path class="cls-2" d="M268,539.22c1-4.79-2.85-9.58-8.47-10.69l-.59-.09-.33,1.69c.2,0,.39,0,.59.08,4.69.92,7.88,4.82,7.12,8.68s-5.2,6.24-9.89,5.32a9.64,9.64,0,0,1-5.73-3.43l-2.32-.46a11,11,0,0,0,7.72,5.57C261.68,547,267,544,268,539.22Z"/><path class="cls-1" d="M215,225.31c.68-2.94,1.4-3.53,1.64-6.51,1.58-19.3-15.85-31.67-32.2-27.74-10,2.4-18,10.29-20.93,23.25l-36,131.61c-.06.25-.71,3.14-.76,3.39a37.86,37.86,0,0,0-.32,5.92c.88,11,10.16,20.74,21.47,20.66,7.82-.19,11.23-1.9,16-6C169.78,364,173.15,352.19,176,345c7.53-19.09,12.41-39,19.09-58.27S210.33,245.4,215,225.31Z"/><path class="cls-15" d="M194.52,459.66c-27.24,7.6-55.62,44.35-36.87,57.18,19.95,13.66,27.74-10.9,40.23-2.49,3.35,2.25,4.4,5.25,5.07,8.29a50,50,0,0,0,1.36,5.73v0c.09.23.17.46.27.69l0,0a6.09,6.09,0,0,0,.3.63l0,0c.11.2.22.41.35.61l.06.09c.12.2.26.39.4.58h0c.14.19.3.37.46.55l.1.1a6.53,6.53,0,0,0,.53.52l0,0a6.36,6.36,0,0,0,.57.46l.13.1c.21.15.44.3.67.44l.12.07.68.36.15.07c.27.13.55.24.85.36l.19.07c.28.1.56.2.86.29l.14,0c.33.1.69.19,1.05.27l.26.06c.38.09.77.16,1.18.23h0a12.45,12.45,0,0,0,1.51.17c.14,0,.29,0,.43,0,.42,0,.85,0,1.28,0h.32c.52,0,1.05-.06,1.58-.12l.42-.05,1.27-.21.46-.08c.54-.12,1.08-.24,1.63-.39l.33-.1c.44-.12.89-.26,1.34-.41l.57-.2c.43-.15.87-.32,1.3-.49l.4-.16c.53-.22,1-.45,1.57-.7l.67-.33,1-.52.69-.37c.49-.27,1-.55,1.46-.84.27-.16.53-.33.79-.5l.81-.52.87-.58.69-.49c.55-.39,1.1-.8,1.64-1.22l.51-.39,1-.82.41-.35c1.12-1,2.22-2,3.28-3l.21-.21A52.13,52.13,0,0,0,251.85,509h0c3.24-6.49,4.73-13.47,3.31-20.07C249.36,461.86,221.77,452.06,194.52,459.66Zm22.91,49.68c5-3.27,11.22-2.56,13.95,1.59a7.71,7.71,0,0,1,1.22,3.44,8.42,8.42,0,0,1,0,1.23,1.93,1.93,0,0,1,0,.24,9.6,9.6,0,0,1-.51,2.49l-.09.25a9.87,9.87,0,0,1-.53,1.21h0a12.21,12.21,0,0,1-.69,1.13l-.18.26a12.33,12.33,0,0,1-.86,1.08h0a13.11,13.11,0,0,1-1,1l-.27.23a13.23,13.23,0,0,1-1.17.88,12.84,12.84,0,0,1-3.89,1.71c-3.66.9-7.34,0-9.5-2.57a6.64,6.64,0,0,1-.55-.73c-.16-.24-.29-.48-.42-.72s-.11-.23-.16-.35l-.15-.36c-.06-.16-.12-.33-.17-.49l-.06-.21c-.05-.19-.1-.39-.14-.6h0C211.51,516.29,213.47,511.94,217.43,509.34Z"/><path class="cls-12" d="M172.25,502a7.37,7.37,0,1,1-9.08-5.11A7.38,7.38,0,0,1,172.25,502Z"/><path class="cls-29" d="M182.79,482.15a7.37,7.37,0,1,1-9.07-5.11A7.37,7.37,0,0,1,182.79,482.15Z"/><path class="cls-24" d="M203.21,470a7.37,7.37,0,1,1-9.07-5.12A7.37,7.37,0,0,1,203.21,470Z"/><path class="cls-12" d="M225.7,467.67a7.37,7.37,0,1,1-9.08-5.11A7.38,7.38,0,0,1,225.7,467.67Z"/><circle class="cls-24" cx="238.39" cy="479.43" r="7.37"/><circle class="cls-10" cx="242.47" cy="501.7" r="7.37"/><path class="cls-2" d="M163.47,513a7.87,7.87,0,1,1,7.59-10h0a7.88,7.88,0,0,1-5.47,9.69A7.7,7.7,0,0,1,163.47,513Zm0-14.74a7,7,0,0,0-1.86.25,6.88,6.88,0,0,0-4.13,3.24,6.86,6.86,0,0,0,7.82,10,6.87,6.87,0,0,0,4.77-8.46h0a6.88,6.88,0,0,0-6.6-5Z"/><path class="cls-2" d="M174,493.1a7.86,7.86,0,0,1-7.57-5.76,7.86,7.86,0,1,1,15.15-4.22h0a7.89,7.89,0,0,1-5.47,9.69A8.07,8.07,0,0,1,174,493.1Zm0-14.74a6.51,6.51,0,0,0-1.85.26,6.85,6.85,0,0,0-4.77,8.45,6.87,6.87,0,0,0,13.23-3.69h0a6.86,6.86,0,0,0-3.25-4.13A6.78,6.78,0,0,0,174,478.36Z"/><path class="cls-2" d="M194.43,480.92a7.87,7.87,0,1,1,7.59-10h0a7.88,7.88,0,0,1-5.46,9.69A7.76,7.76,0,0,1,194.43,480.92Zm0-14.74a6.94,6.94,0,0,0-1.85.26,6.87,6.87,0,0,0,3.69,13.23,6.89,6.89,0,0,0,4.77-8.46h0a6.88,6.88,0,0,0-6.61-5Z"/><path class="cls-2" d="M216.93,478.61a7.86,7.86,0,1,1,7.58-10h0a7.87,7.87,0,0,1-5.47,9.69A7.67,7.67,0,0,1,216.93,478.61Zm0-14.73a7,7,0,0,0-1.86.25,6.87,6.87,0,0,0,3.69,13.23,6.86,6.86,0,0,0,4.77-8.46h0a6.88,6.88,0,0,0-6.6-5Z"/><path class="cls-2" d="M236.7,488.39a7.87,7.87,0,1,1,7.59-10h0a7.87,7.87,0,0,1-7.59,10Zm0-14.74a6.89,6.89,0,0,0-6.62,8.72,6.88,6.88,0,0,0,8.46,4.77,6.88,6.88,0,0,0,4.77-8.46h0a6.9,6.9,0,0,0-6.61-5Z"/><path class="cls-2" d="M240.79,510.66a7.87,7.87,0,1,1,2.12-.29A8.08,8.08,0,0,1,240.79,510.66Zm0-14.74a7,7,0,0,0-1.86.26,6.79,6.79,0,1,0,1.86-.26Z"/><path class="cls-2" d="M214.9,536.93c-.31,0-.62,0-.92,0l-.44,0a14.69,14.69,0,0,1-1.56-.18c-.43-.07-.83-.15-1.22-.23l-.27-.06c-.37-.09-.73-.18-1.07-.28l-.15,0c-.31-.09-.6-.19-.88-.3l-.2-.07c-.31-.12-.6-.24-.88-.37l-.11-.05-.76-.4-.13-.08c-.24-.14-.48-.3-.7-.46l-.1-.07c-.25-.19-.46-.35-.65-.51s-.41-.39-.59-.58l-.11-.11c-.17-.19-.33-.38-.48-.58s-.3-.42-.44-.62l-.06-.1c-.13-.21-.25-.43-.37-.65s-.23-.48-.33-.7-.21-.52-.3-.76a29.29,29.29,0,0,1-1-4.15c-.11-.56-.22-1.12-.35-1.68-.74-3.32-1.85-6-4.86-8-5.24-3.53-9.62-1-14.68,2-6.63,3.89-14.14,8.3-25.56.48-5-3.43-7.08-8.8-6-15.52,2.73-16.47,23.62-37.15,43-42.56,15.93-4.44,31.75-2.94,43.43,4.12,9.29,5.62,15.45,14.45,17.83,25.53,1.34,6.26.18,13.32-3.35,20.4a53.13,53.13,0,0,1-9.73,13.38l-.21.21c-1.06,1.06-2.18,2.08-3.31,3.05l-.42.35c-.33.28-.67.55-1,.82l-.51.4c-.55.43-1.1.84-1.66,1.23l-.1.07-.6.43-.87.59-.82.52-.17.1-.63.4c-.49.3-1,.58-1.48.85l-.53.29-.17.08c-.34.19-.69.37-1,.54l-.68.33c-.53.25-1.06.49-1.59.71l-.41.16c-.44.18-.88.34-1.32.5l-.57.2c-.46.15-.91.29-1.37.42l-.34.1q-.83.23-1.65.39l-.47.09-1.3.21-.42,0c-.55.07-1.09.11-1.63.13h-.72Zm-5.2-1.76,1,.26.26.06,1.15.23c.44.07.91.12,1.48.16l.42,0c.41,0,.83,0,1.25,0h.31c.51,0,1-.06,1.54-.12l.41,0c.41-.06.83-.12,1.25-.2l.45-.09c.53-.11,1.06-.23,1.59-.38l.33-.09c.44-.13.88-.26,1.32-.41l.56-.19,1.28-.49.4-.16c.51-.21,1-.44,1.55-.69l.57-.27,1.11-.57.16-.09.51-.27c.49-.27,1-.55,1.45-.84l.62-.38.16-.1.81-.52.86-.58.58-.41.1-.07c.55-.39,1.09-.79,1.62-1.21l.51-.39,1-.81.41-.34c1.11-1,2.21-2,3.25-3l.21-.21a51.33,51.33,0,0,0,9.54-13.12c3.43-6.88,4.56-13.7,3.27-19.74-2.32-10.81-8.32-19.41-17.37-24.88-11.44-6.92-27-8.38-42.64-4-19.06,5.31-39.61,25.6-42.28,41.75-1.05,6.31.87,11.34,5.55,14.53,10.9,7.46,18.11,3.23,24.48-.51,5.13-3,10-5.87,15.75-2,3.48,2.34,4.59,5.52,5.28,8.6.13.56.24,1.13.35,1.69a27.43,27.43,0,0,0,1,4c.09.26.17.48.27.7s.2.44.3.64a6.86,6.86,0,0,0,.35.62l-.36.36.42-.27c.11.18.24.36.37.54s.29.36.45.53l.09.1c.15.16.32.32.5.48s.37.32.56.46l.13.09c.2.14.41.28.64.42l-.14.49.25-.43c.2.12.42.23.65.34l-.07.53.21-.46c.26.12.53.24.82.35l.1,0c.35.12.62.22.91.3v.53ZM219,528a9.21,9.21,0,0,1-7.14-3.09,9.37,9.37,0,0,1-.59-.78,8.35,8.35,0,0,1-.43-.77,3.13,3.13,0,0,1-.15-.32c-.08-.18-.14-.31-.19-.44a4.56,4.56,0,0,1-.18-.52l-.05-.18c-.07-.25-.13-.46-.17-.67-.8-4.07,1.36-8.58,5.4-11.23,5.19-3.41,11.76-2.63,14.63,1.74a8.14,8.14,0,0,1,1.3,3.67,9.07,9.07,0,0,1,0,1.3V517a10,10,0,0,1-.54,2.62l-.09.27a12.69,12.69,0,0,1-.56,1.27,10.14,10.14,0,0,1-.72,1.18,2.75,2.75,0,0,1-.19.28,11.28,11.28,0,0,1-1.94,2.14l-.29.24a11.58,11.58,0,0,1-1.21.91,12.94,12.94,0,0,1-4.05,1.78A11.86,11.86,0,0,1,219,528Zm3.4-19.13a11.65,11.65,0,0,0-6.36,2c-3.69,2.43-5.68,6.52-5,10.19,0,.19.09.38.14.57l0,.18c.05.16.11.31.16.46l.15.34a2.75,2.75,0,0,0,.15.33,6.38,6.38,0,0,0,.38.67,6.92,6.92,0,0,0,.52.69c2,2.36,5.44,3.28,9,2.4a11.78,11.78,0,0,0,3.74-1.65,12.55,12.55,0,0,0,1.13-.84l.26-.22a12.17,12.17,0,0,0,.95-.93,9.64,9.64,0,0,0,.84-1l.18-.25a10.64,10.64,0,0,0,.65-1.08,9,9,0,0,0,.51-1.16l.09-.24a9,9,0,0,0,.48-2.36v-.17a9.27,9.27,0,0,0,0-1.21,7.2,7.2,0,0,0-1.14-3.22A8,8,0,0,0,222.39,508.88Zm-6.63,1.55h0Z"/><path class="cls-1" d="M164.53,347.61a40.18,40.18,0,0,1,1.94,4.52l10.6,33.27a245.64,245.64,0,0,1,7.11,31.5c4.85,30.75,15.68,67.23,15.68,67.23l7,19.55c2,2.83,4.16,5.64,6.27,8.36s4.52,5.8,6.6,8.81a17.12,17.12,0,0,1,2.63,4.92,6.7,6.7,0,0,1-1,6.13,31,31,0,0,0-3.91,6.54c-.6,1.2-1.21,2.44-1.89,3.62-.35.62-.77,1.25-1.17,1.85a12.15,12.15,0,0,0-2.08,4.08,1.28,1.28,0,0,1-.53.8,1.18,1.18,0,0,1-.91.17c-.83-.2-1.81-.55-2.77-.88l-1.1-.38a4,4,0,0,1-.45,1,7.43,7.43,0,0,1-5.36,3,10.11,10.11,0,0,1-5.81-1.8,4.5,4.5,0,0,1-1.14,1.12,5.82,5.82,0,0,1-3.24,1,4.11,4.11,0,0,1-1.13-.15,9.85,9.85,0,0,1-4.51-3.21,7.06,7.06,0,0,0-3.67,1.55,1.15,1.15,0,0,1-1.38.17,29.14,29.14,0,0,1-10.83-12.25,1.29,1.29,0,0,1,.17-1.36,52.9,52.9,0,0,1,4.19-4.06c1.16-1.05,2.35-2.13,3.2-3-1.53-3-2.55-10.31-2.51-10.72a18.33,18.33,0,0,1,2.81-8.39,13,13,0,0,1,2.34-2.52,9.05,9.05,0,0,0,2-2.18c.52-1,.34-1.77-.08-3.34-.1-.36-.2-.72-.29-1.11l-4-10.27c-7.77-16.63-37.88-78.48-44.6-103.46l-7.51-25.05c-2.63-10.87,5.1-20.46,13.76-23.66,11-4.07,22.36,1.41,25.54,8.57m13.3,181.28Z"/><path class="cls-2" d="M191,553h0a5.3,5.3,0,0,1-1.39-.18,10.1,10.1,0,0,1-4.6-3.11,5.86,5.86,0,0,0-2.62,1.21,2.15,2.15,0,0,1-2.58.3,30.33,30.33,0,0,1-11.23-12.69,2.29,2.29,0,0,1,.31-2.42,51.41,51.41,0,0,1,4.27-4.14c1-.88,1.92-1.75,2.69-2.49a45.71,45.71,0,0,1-2.31-10.58,19.23,19.23,0,0,1,3-8.85,13.45,13.45,0,0,1,2.51-2.72,8.33,8.33,0,0,0,1.79-1.91c.32-.6.25-1.06-.17-2.61-.1-.38-.19-.72-.27-1.07l-4-10.21c-1-2.09-2.36-5-4-8.48-11.28-23.78-34.75-73.24-40.62-95.08l-7.5-25a19.38,19.38,0,0,1,1.4-13.11l.08-.69c.07-.34.72-3.26.78-3.51l36-131.64c2.88-12.59,10.78-21.33,21.67-23.95a27.52,27.52,0,0,1,24.28,5.84,26.91,26.91,0,0,1,9.15,22.95,14.3,14.3,0,0,1-.9,4.08,21.43,21.43,0,0,0-.76,2.57c-3.62,15.57-9.48,32-15.16,48-1.68,4.71-3.26,9.16-4.78,13.56-2.72,7.84-5.18,15.93-7.56,23.74C185,322.21,181.4,334,176.92,345.37c-.55,1.4-1.13,3-1.75,4.69-1.32,3.64-2.81,7.76-4.63,11.54L178,385.09a248,248,0,0,1,7.15,31.66c4.78,30.32,15.54,66.73,15.65,67.1l7,19.37c2,2.77,4.09,5.53,6.17,8.2,2.23,2.86,4.53,5.82,6.63,8.86a17.49,17.49,0,0,1,2.77,5.22h0a7.68,7.68,0,0,1-1.23,7,30.28,30.28,0,0,0-3.77,6.33c-.6,1.21-1.22,2.46-1.92,3.68-.37.65-.8,1.29-1.21,1.91a11.51,11.51,0,0,0-1.93,3.71,2.32,2.32,0,0,1-1,1.44,2.17,2.17,0,0,1-1.71.31c-.88-.21-1.89-.57-2.86-.91l-.22-.08a2.2,2.2,0,0,1-.15.26,8.42,8.42,0,0,1-6.14,3.48,10.34,10.34,0,0,1-5.66-1.52,5.64,5.64,0,0,1-.79.66A6.82,6.82,0,0,1,191,553Zm-5.64-5.36a1,1,0,0,1,.74.32,9,9,0,0,0,4,2.93,6.08,6.08,0,0,0,.87.11,4.74,4.74,0,0,0,2.67-.86,3.77,3.77,0,0,0,.9-.88,1,1,0,0,1,1.33-.28,9.26,9.26,0,0,0,5.22,1.66,6.45,6.45,0,0,0,4.59-2.54,2.79,2.79,0,0,0,.33-.73,1,1,0,0,1,.5-.6,1,1,0,0,1,.78-.06l1.1.38a27.79,27.79,0,0,0,2.68.85.2.2,0,0,0,.13,0,.25.25,0,0,0,.09-.16,13.26,13.26,0,0,1,2.23-4.44c.4-.59.8-1.2,1.15-1.8.66-1.16,1.27-2.38,1.85-3.56a31.89,31.89,0,0,1,4.05-6.75,5.72,5.72,0,0,0,.83-5.21,16.14,16.14,0,0,0-2.49-4.62c-2.07-3-4.36-5.93-6.57-8.77s-4.31-5.54-6.3-8.4A1,1,0,0,1,206,504l-7-19.55c-.13-.42-10.92-37-15.73-67.41a244.53,244.53,0,0,0-7.08-31.38l-7.6-23.85a1,1,0,0,1,.06-.74,119.12,119.12,0,0,0,4.72-11.72c.62-1.7,1.21-3.31,1.77-4.74,4.45-11.28,8-23,11.5-34.42,2.38-7.83,4.85-15.93,7.58-23.81,1.52-4.41,3.11-8.86,4.79-13.58,5.65-15.87,11.5-32.28,15.09-47.74a23.44,23.44,0,0,1,.82-2.77,12.57,12.57,0,0,0,.79-3.59,24.59,24.59,0,0,0-8.45-21.27A25.53,25.53,0,0,0,184.67,192c-10.13,2.44-17.49,10.64-20.2,22.5l-36,131.65c0,.21-.68,3-.74,3.33,0,0,0,.31-.09.75a1,1,0,0,1-.09.34,17.34,17.34,0,0,0-1.35,11.86l7.49,25c5.83,21.69,29.25,71.05,40.51,94.77,1.65,3.49,3,6.4,4,8.55l4,10.34c0,.05,0,.09,0,.14.08.35.17.69.26,1,.42,1.56.74,2.76,0,4.12a9.68,9.68,0,0,1-2.21,2.46,12.13,12.13,0,0,0-2.17,2.31,17.36,17.36,0,0,0-2.66,7.93c0,.69,1,7.52,2.41,10.18a1,1,0,0,1-.18,1.16c-.87.88-2.06,2-3.21,3a48.26,48.26,0,0,0-4.12,4,.29.29,0,0,0,0,.3,28.12,28.12,0,0,0,10.43,11.8.15.15,0,0,0,.2,0,8.15,8.15,0,0,1,4.23-1.82Z"/><path class="cls-2" d="M185.37,549.68a1,1,0,0,1-.61-.21,1,1,0,0,1-.18-1.4l7.36-9.58a1,1,0,0,1,1.58,1.22l-7.35,9.58A1,1,0,0,1,185.37,549.68Z"/><path class="cls-2" d="M195.39,550.88a1,1,0,0,1-.59-.2,1,1,0,0,1-.21-1.39l8.67-11.73a1,1,0,0,1,1.4-.21,1,1,0,0,1,.21,1.4l-8.67,11.72A1,1,0,0,1,195.39,550.88Z"/><path class="cls-2" d="M207,548.7a1,1,0,0,1-.88-1.47l6.71-12.59a1,1,0,0,1,1.35-.41,1,1,0,0,1,.42,1.35l-6.72,12.59A1,1,0,0,1,207,548.7Z"/><path class="cls-2" d="M181.39,534.67a1,1,0,0,1-.67-.26l-3.66-3.31-2.53,2.36a1,1,0,1,1-1.36-1.46l3.2-3a1,1,0,0,1,1.35,0l4.34,3.93a1,1,0,0,1,.07,1.42A1,1,0,0,1,181.39,534.67Z"/><rect class="cls-30" width="563" height="1026"/></g></g></svg>